<svg width="40" height="40" viewBox="0 0 40 40" fill="none" xmlns="http://www.w3.org/2000/svg">
<rect width="40" height="40" rx="8" fill="#28303F"/>
<g clip-path="url(#clip0_3932_67425)">
<path d="M27.2727 10H12.7273C12.004 10 11.3103 10.2873 10.7988 10.7988C10.2873 11.3103 10 12.004 10 12.7273V27.2727C10 27.996 10.2873 28.6897 10.7988 29.2012C11.3103 29.7127 12.004 30 12.7273 30H27.2727C27.996 30 28.6897 29.7127 29.2012 29.2012C29.7127 28.6897 30 27.996 30 27.2727V12.7273C30 12.004 29.7127 11.3103 29.2012 10.7988C28.6897 10.2873 27.996 10 27.2727 10V10ZM16.8182 25.8273C16.8183 25.8827 16.8075 25.9377 16.7864 25.989C16.7653 26.0402 16.7343 26.0868 16.6951 26.1261C16.6559 26.1654 16.6094 26.1965 16.5582 26.2178C16.507 26.2391 16.4521 26.25 16.3966 26.25H14.6C14.5444 26.2502 14.4894 26.2393 14.4381 26.2181C14.3867 26.1969 14.34 26.1658 14.3008 26.1265C14.2615 26.0872 14.2303 26.0406 14.2091 25.9892C14.188 25.9379 14.1771 25.8828 14.1773 25.8273V18.2955C14.1773 18.1833 14.2218 18.0758 14.3011 17.9965C14.3804 17.9173 14.4879 17.8727 14.6 17.8727H16.3966C16.5085 17.873 16.6157 17.9177 16.6948 17.9969C16.7738 18.0762 16.8182 18.1835 16.8182 18.2955V25.8273ZM15.4977 17.1591C15.1606 17.1591 14.831 17.0591 14.5507 16.8718C14.2704 16.6845 14.0519 16.4183 13.9229 16.1068C13.7939 15.7954 13.7602 15.4527 13.8259 15.122C13.8917 14.7914 14.054 14.4876 14.2924 14.2492C14.5308 14.0109 14.8345 13.8485 15.1652 13.7828C15.4958 13.717 15.8386 13.7507 16.15 13.8798C16.4615 14.0088 16.7277 14.2272 16.915 14.5076C17.1023 14.7879 17.2023 15.1174 17.2023 15.4545C17.2023 15.9066 17.0227 16.3402 16.703 16.6598C16.3834 16.9795 15.9498 17.1591 15.4977 17.1591ZM26.2091 25.8568C26.2092 25.9079 26.1993 25.9585 26.1798 26.0057C26.1603 26.0529 26.1317 26.0958 26.0956 26.132C26.0595 26.1681 26.0166 26.1967 25.9694 26.2162C25.9221 26.2357 25.8715 26.2456 25.8205 26.2455H23.8886C23.8376 26.2456 23.787 26.2357 23.7397 26.2162C23.6925 26.1967 23.6496 26.1681 23.6135 26.132C23.5774 26.0958 23.5488 26.0529 23.5293 26.0057C23.5098 25.9585 23.4999 25.9079 23.5 25.8568V22.3284C23.5 21.8011 23.6545 20.0193 22.1216 20.0193C20.9341 20.0193 20.692 21.2386 20.6443 21.7864V25.8614C20.6443 25.9635 20.6042 26.0615 20.5325 26.1342C20.4608 26.2069 20.3634 26.2485 20.2614 26.25H18.3955C18.3445 26.25 18.294 26.2399 18.2469 26.2204C18.1998 26.2008 18.157 26.1722 18.121 26.1361C18.0851 26.1 18.0565 26.0571 18.0371 26.01C18.0177 25.9629 18.0078 25.9123 18.008 25.8614V18.2625C18.0078 18.2115 18.0177 18.161 18.0371 18.1139C18.0565 18.0667 18.0851 18.0239 18.121 17.9878C18.157 17.9517 18.1998 17.923 18.2469 17.9035C18.294 17.8839 18.3445 17.8739 18.3955 17.8739H20.2614C20.3644 17.8739 20.4633 17.9148 20.5362 17.9877C20.6091 18.0606 20.65 18.1594 20.65 18.2625V18.9193C21.0909 18.2568 21.7443 17.7477 23.1386 17.7477C26.2273 17.7477 26.2068 20.6318 26.2068 22.2159L26.2091 25.8568Z" fill="white"/>
</g>
<defs>
<clipPath id="clip0_3932_67425">
<rect width="20" height="20" fill="white" transform="translate(10 10)"/>
</clipPath>
</defs>
</svg>
