<svg width="40" height="40" viewBox="0 0 40 40" fill="none" xmlns="http://www.w3.org/2000/svg">
<rect width="40" height="40" rx="8" fill="#28303F"/>
<g clip-path="url(#clip0_3932_67416)">
<path d="M20 10.4166C14.475 10.4166 10 14.8166 10 20.2433C10 24.5858 12.865 28.2683 16.8375 29.5666C17.3375 29.6591 17.5208 29.355 17.5208 29.0941C17.5208 28.8608 17.5125 28.2425 17.5083 27.4233C14.7267 28.0158 14.14 26.105 14.14 26.105C13.685 24.9708 13.0275 24.6675 13.0275 24.6675C12.1217 24.0583 13.0975 24.0708 13.0975 24.0708C14.1017 24.1391 14.6292 25.0833 14.6292 25.0833C15.5208 26.5858 16.97 26.1516 17.5417 25.9008C17.6317 25.265 17.8892 24.8325 18.175 24.5866C15.9542 24.3408 13.62 23.4958 13.62 19.7308C13.62 18.6583 14.0075 17.7816 14.6492 17.0941C14.5367 16.8458 14.1992 15.8466 14.7367 14.4933C14.7367 14.4933 15.5742 14.23 17.4867 15.5008C18.2867 15.2825 19.1367 15.1741 19.9867 15.1691C20.8367 15.1741 21.6867 15.2825 22.4867 15.5008C24.3867 14.23 25.2242 14.4933 25.2242 14.4933C25.7617 15.8466 25.4242 16.8458 25.3242 17.0941C25.9617 17.7816 26.3492 18.6583 26.3492 19.7308C26.3492 23.5058 24.0117 24.3366 21.7867 24.5783C22.1367 24.8733 22.4617 25.4758 22.4617 26.3966C22.4617 27.7116 22.4492 28.7683 22.4492 29.0875C22.4492 29.345 22.6242 29.6525 23.1367 29.5541C27.1375 28.2641 30 24.5791 30 20.2433C30 14.8166 25.5225 10.4166 20 10.4166Z" fill="white"/>
</g>
<defs>
<clipPath id="clip0_3932_67416">
<rect width="20" height="20" fill="white" transform="translate(10 10)"/>
</clipPath>
</defs>
</svg>
