<svg width="40" height="40" viewBox="0 0 40 40" fill="none" xmlns="http://www.w3.org/2000/svg">
<rect width="40" height="40" rx="8" fill="#28303F"/>
<g clip-path="url(#clip0_3932_67405)">
<path d="M20.1182 31C25.641 31 30.1182 26.5228 30.1182 21C30.1182 15.4772 25.641 11 20.1182 11C14.5953 11 10.1182 15.4772 10.1182 21C10.1182 26.5228 14.5953 31 20.1182 31Z" fill="white"/>
<path d="M25.3704 17.2147L26.3682 16.2613V16.0522H22.9125L20.45 22.1807L17.6488 16.0522H14.0261V16.2613L15.1909 17.6636C15.2465 17.715 15.2894 17.7786 15.3162 17.8494C15.343 17.9202 15.353 17.9962 15.3454 18.0716V23.5829C15.3628 23.681 15.3566 23.7818 15.3274 23.8771C15.2982 23.9723 15.2467 24.0592 15.1773 24.1307L13.8682 25.7204V25.9272H17.5898V25.7182L16.2773 24.1272C16.2071 24.056 16.1543 23.9695 16.123 23.8745C16.0916 23.7795 16.0826 23.6786 16.0966 23.5795V18.8159L19.3625 25.9295H19.7432L22.5511 18.8159V24.4829C22.5511 24.6318 22.5511 24.6625 22.4534 24.7613L21.4432 25.7386V25.9477H26.3454V25.7386L25.3716 24.7852C25.3291 24.7535 25.296 24.7109 25.276 24.6618C25.256 24.6127 25.2497 24.5591 25.2579 24.5068V17.4932C25.2496 17.4408 25.2558 17.3871 25.2758 17.3381C25.2959 17.289 25.329 17.2463 25.3716 17.2147H25.3704Z" fill="#1F1F2C"/>
</g>
<defs>
<clipPath id="clip0_3932_67405">
<rect width="20" height="20" fill="white" transform="translate(10.1182 11)"/>
</clipPath>
</defs>
</svg>
