<svg width="533" height="418" viewBox="0 0 533 418" fill="none" xmlns="http://www.w3.org/2000/svg">
<g clip-path="url(#clip0_301_50225)">
<mask id="mask0_301_50225" style="mask-type:alpha" maskUnits="userSpaceOnUse" x="-1" y="-2" width="575" height="422">
<path d="M-0.399844 -1.0587L495.471 -1.05866C526.242 13.2865 548.729 32.6477 565.606 52.0163C576.183 65.5106 576.183 83.4957 565.606 96.9901C535.628 142.859 489.779 184.237 419.238 219.312C348.703 253.492 271.108 279.578 218.205 323.65C200.573 338.942 189.988 356.927 191.75 373.122C194.437 388.887 203.29 405.171 218.264 419.59L-0.399881 419.59L-0.399844 -1.0587Z" fill="url(#paint0_linear_301_50225)"/>
</mask>
<g mask="url(#mask0_301_50225)">
<mask id="mask1_301_50225" style="mask-type:alpha" maskUnits="userSpaceOnUse" x="-1" y="-2" width="535" height="422">
<path d="M87.8924 419.59C95.1316 389.405 103.37 359.494 117.93 331.876C134.074 301.233 156.85 272.165 184.956 251.828C212.114 232.17 244.305 223.211 277.126 219.194C302.574 216.079 345.743 215.909 373.767 216.146C405.966 216.427 437.714 207.771 465.035 190.622C465.235 190.496 465.434 190.371 465.634 190.245C500.18 168.398 531.809 132.923 532.971 89.799C533.578 67.0864 525.813 44.2703 511.697 26.5589C502.822 15.432 491.912 6.48751 480.046 -1.05129L-0.384556 -1.05133L-0.384593 419.59L87.8924 419.59Z" fill="url(#paint1_linear_301_50225)"/>
</mask>
<g mask="url(#mask1_301_50225)">
<path d="M481.645 4.29554e-05L-0.00702627 8.47998e-07L-0.00706282 418L4.80491 418C53.773 418 93.0766 382.977 114.387 338.889C115.525 336.534 116.705 334.194 117.93 331.87C134.074 301.226 156.85 272.159 184.956 251.821C212.114 232.164 244.305 223.205 277.126 219.187C302.574 216.073 345.743 215.903 373.767 216.139C405.966 216.42 437.714 207.765 465.035 190.615C465.235 190.49 465.434 190.364 465.634 190.238C500.18 168.391 531.809 132.917 532.971 89.7924C533.578 67.0798 525.813 44.2637 511.697 26.5597C503.222 15.9359 492.881 7.32429 481.645 4.29554e-05Z" fill="#43D9BB" fill-opacity="0.05"/>
</g>
</g>
</g>
<defs>
<linearGradient id="paint0_linear_301_50225" x1="26.3318" y1="1.5317" x2="366.452" y2="311.424" gradientUnits="userSpaceOnUse">
<stop offset="0.0162" stop-color="white"/>
<stop offset="0.0258" stop-color="#FAFAFA"/>
<stop offset="0.1426" stop-color="#C0C0C0"/>
<stop offset="0.2625" stop-color="#8D8D8D"/>
<stop offset="0.3827" stop-color="#626262"/>
<stop offset="0.5034" stop-color="#3E3E3E"/>
<stop offset="0.6249" stop-color="#232323"/>
<stop offset="0.7474" stop-color="#0F0F0F"/>
<stop offset="0.8715" stop-color="#040404"/>
<stop offset="1"/>
</linearGradient>
<linearGradient id="paint1_linear_301_50225" x1="476.141" y1="209.264" x2="-63.9823" y2="209.264" gradientUnits="userSpaceOnUse">
<stop offset="0.232" stop-color="white"/>
<stop offset="0.4358" stop-color="#AEAEAE"/>
<stop offset="0.6396" stop-color="#636363"/>
<stop offset="0.8071" stop-color="#2E2E2E"/>
<stop offset="0.9319" stop-color="#0C0C0C"/>
<stop offset="1"/>
</linearGradient>
<clipPath id="clip0_301_50225">
<rect width="533" height="418" fill="white" transform="translate(533 418) rotate(-180)"/>
</clipPath>
</defs>
</svg>
