<svg width="40" height="40" viewBox="0 0 40 40" fill="none" xmlns="http://www.w3.org/2000/svg">
<rect width="40" height="40" rx="8" fill="#28303F"/>
<circle cx="20" cy="21" r="10" fill="white"/>
<path d="M24.1867 17.2731C24.1867 17.2731 23.181 16.5991 21.5903 16.5L21.3696 17.1295C21.3696 17.1251 20.6629 17.0192 20.6172 17.0148C20.2165 16.9753 19.7889 16.9797 19.387 17.011C19.34 17.0148 18.6308 17.1282 18.6308 17.1295L18.4095 16.5C16.8188 16.5997 15.8131 17.2731 15.8131 17.2731C13.4374 20.9416 14.0789 23.9581 14.0789 23.9581C14.8745 24.7977 17.1612 25.5269 17.1612 25.5269L17.7687 24.466L16.7963 24.0239L16.9398 23.7368C17.7756 24.1544 18.7324 24.3838 19.6648 24.434C20.4987 24.4785 21.3508 24.35 22.1458 24.1017C22.3019 24.0528 22.4568 23.9982 22.6091 23.938C22.653 23.9205 23.0474 23.7249 23.0593 23.7368L23.2029 24.0239L22.2304 24.466L22.838 25.5269C22.838 25.5269 25.1253 24.7977 25.9209 23.9581C25.9216 23.9581 26.5623 20.9416 24.1867 17.2731ZM18.0227 22.5988C17.4264 22.5988 16.9424 22.0721 16.9424 21.4219C16.9424 20.7723 17.4258 20.245 18.0227 20.245C18.6196 20.245 19.1024 20.7717 19.1024 21.4219C19.103 22.0721 18.6196 22.5988 18.0227 22.5988ZM21.9771 22.5988C21.3809 22.5988 20.8974 22.0721 20.8974 21.4219C20.8974 20.7723 21.3809 20.245 21.9771 20.245C22.5734 20.245 23.0574 20.7717 23.0574 21.4219C23.0568 22.0721 22.5734 22.5988 21.9771 22.5988Z" fill="#090B11"/>
</svg>
