<svg width="115" height="26" viewBox="0 0 115 26" fill="none" xmlns="http://www.w3.org/2000/svg">
<g clip-path="url(#clip0_3843_71918)">
<path d="M18.8724 2.32513C17.6567 2.32513 16.658 3.28806 16.658 4.48524C16.658 5.68243 17.6574 6.59291 18.8724 6.59291C20.0874 6.59291 21.0868 5.62999 21.0868 4.48524C21.0868 3.34049 20.1143 2.32513 18.8724 2.32513Z" fill="#D85111"/>
<path d="M20.6819 7.91608H17.0898V20.718H20.6819V7.91608Z" fill="#D85111"/>
<path d="M58.7611 7.57758C57.3297 7.57758 55.7366 8.17616 54.9258 9.50342V7.91603H51.4419V20.718H55.034V13.3544C55.034 11.8712 55.9521 10.7006 57.5185 10.7006C59.2466 10.7006 59.976 11.8195 59.976 13.2503V20.718H63.5682V12.6516C63.5682 9.84187 62.0555 7.57758 58.7611 7.57758Z" fill="#D85111"/>
<path d="M71.9057 7.52582C67.9354 7.52582 64.9377 10.3621 64.9377 14.3166C64.9377 18.2712 67.9354 21.1082 71.9057 21.1082C75.8758 21.1082 78.8735 18.246 78.8735 14.3166C78.8735 10.3873 75.8758 7.52582 71.9057 7.52582ZM71.9057 17.96C70.1498 17.96 68.5298 16.7111 68.5298 14.3173C68.5298 11.9237 70.1498 10.6747 71.9057 10.6747C73.6614 10.6747 75.2814 11.8978 75.2814 14.3173C75.2814 16.7369 73.6614 17.96 71.9057 17.96Z" fill="#D85111"/>
<path d="M95.5128 7.5517C93.757 7.5517 92.3533 8.12441 91.2994 9.68525C90.6244 8.30624 89.1655 7.5517 87.3568 7.5517C85.8986 7.5517 84.1972 8.22792 83.4679 9.47686V7.91602H80.0376V20.718H83.6297V13.2243C83.6297 11.8195 84.5479 10.7006 86.1142 10.7006C87.6804 10.7006 88.4636 11.7412 88.4636 13.1209V20.7187H92.0288V13.225C92.0288 11.8461 92.947 10.7013 94.4865 10.7013C96.1341 10.7013 96.8359 11.7418 96.8359 13.1215V20.7193H100.32V12.4194C100.32 8.9845 97.9705 7.55374 95.5128 7.55374V7.5517Z" fill="#D85111"/>
<path d="M111.154 7.91608L107.886 15.4098L104.349 7.91608H100.325L105.969 19.1041L102.836 25.7655H106.644L114.989 7.91608H111.154Z" fill="#D85111"/>
<path d="M29.0116 17.9593C27.2558 17.9593 25.6358 16.7104 25.6358 14.3166C25.6358 11.923 27.2566 10.674 29.0116 10.674C30.1007 10.674 31.0621 11.146 31.6353 12.0823L35.0231 11.0118C33.9332 8.87623 31.7505 7.52582 29.0116 7.52582C25.0413 7.52582 22.0437 10.3621 22.0437 14.3166C22.0437 18.2712 25.0413 21.1082 29.0116 21.1082C32.311 21.1082 34.8019 19.1299 35.549 16.2065H31.8184C31.2841 17.3716 30.228 17.96 29.0116 17.96V17.9593Z" fill="#D85111"/>
<path d="M43.1127 7.52582C39.1424 7.52582 36.1448 10.3621 36.1448 14.3166C36.1448 18.2712 39.1424 21.1082 43.1127 21.1082C47.0829 21.1082 50.0805 18.246 50.0805 14.3166C50.0805 10.3873 47.0829 7.52582 43.1127 7.52582ZM43.1127 17.96C41.3569 17.96 39.7368 16.7111 39.7368 14.3173C39.7368 11.9237 41.3576 10.6747 43.1127 10.6747C44.8677 10.6747 46.4884 11.8978 46.4884 14.3173C46.4884 16.7369 44.8677 17.96 43.1127 17.96Z" fill="#D85111"/>
<path d="M12.3515 9.50615C13.088 8.5657 13.2415 7.66271 13.2415 6.58265C13.2415 5.50259 12.2208 2.26788 8.50148 2.26788H-0.0319824V20.7058H9.18569C13.7772 20.7058 15.7153 17.6419 15.7153 14.4086C15.7153 12.9261 15.0742 11.0017 12.3508 9.50547L12.3515 9.50615ZM3.57211 5.09741H7.91835C8.91851 5.09741 9.72853 5.87851 9.72853 6.84143C9.72853 7.80504 8.9178 8.58545 7.91835 8.58545H3.57211V5.09673V5.09741ZM8.76018 17.8763H3.57211V11.4157H8.76018C10.612 11.4157 12.1126 12.8621 12.1126 14.6456C12.1126 16.6232 10.7782 17.8756 8.76018 17.8756V17.8763Z" fill="#D85111"/>
</g>
<defs>
<clipPath id="clip0_3843_71918">
<rect width="115" height="25" fill="white" transform="translate(0 0.527344)"/>
</clipPath>
</defs>
</svg>
