<svg width="85" height="54" viewBox="0 0 85 54" fill="none" xmlns="http://www.w3.org/2000/svg">
<path fill-rule="evenodd" clip-rule="evenodd" d="M39.9678 32.3282C40.2125 32.2926 40.4567 32.3314 40.5705 32.2271C40.9495 31.8799 41.4275 31.7235 41.8607 31.4882C42.3916 31.1994 43.0097 31.0399 43.5095 30.7392C44.1961 30.3259 44.9146 29.9549 45.6216 29.6099C46.3501 29.2541 47.0213 28.7824 47.7933 28.5017C48.1386 28.3761 48.4194 28.0748 48.7354 27.8612C48.7693 27.8384 48.8405 27.8701 48.9091 27.8785C48.9267 27.9513 48.9451 28.0289 48.9689 28.1278C48.529 28.3361 48.0348 28.4645 47.6903 28.7649C47.381 29.0344 46.9391 29.0047 46.7233 29.2513C46.4637 29.5477 46.0361 29.4662 45.8578 29.7388C45.6483 30.0599 45.2421 29.9067 45.0483 30.1741C44.8162 30.4945 44.3738 30.3827 44.1327 30.6015C43.7941 30.9089 43.2582 30.8741 43.0181 31.1627C42.6928 31.5538 42.088 31.3523 41.8789 31.8413C41.4017 31.881 41.0662 32.2264 40.6549 32.4078C40.1901 32.613 39.6748 32.7512 39.2779 33.0474C38.9394 33.3003 38.4887 33.3174 38.2334 33.5678C37.9965 33.8002 37.6752 33.7705 37.5012 33.9623C37.2664 34.2208 36.963 34.2585 36.6871 34.3915C36.4571 34.5026 36.2296 34.6257 36.0071 34.7577C35.5981 35.0007 35.2089 35.3032 34.7122 35.3717C34.5972 35.3876 34.4114 35.4119 34.3878 35.4785C34.2402 35.8942 33.7583 35.7144 33.5339 35.9923C33.2782 36.3088 32.8538 36.2731 32.515 36.421C32.408 36.468 32.2353 36.4584 32.1894 36.534C32.0163 36.8167 31.6592 36.7756 31.4757 36.953C31.2226 37.1972 30.9234 37.0524 30.6726 37.1796C30.2977 37.369 29.9157 37.5457 29.5332 37.7207C29.2068 37.8703 28.8758 38.0093 28.5068 38.1708C28.4919 38.1646 28.4188 38.1335 28.3775 38.1159C28.2115 38.2791 28.0635 38.4249 27.9519 38.5352C27.5465 38.4701 27.2357 38.5514 26.9857 38.8211C26.7097 39.1185 26.356 38.9889 26.0357 38.9895C25.667 38.9902 25.5727 39.5637 25.0655 39.3607C24.8113 39.259 24.4253 39.4847 24.0618 39.5716C24.5053 39.0924 25.032 38.8639 25.5916 38.7799C26.1676 38.6943 26.5515 38.1355 27.1687 38.2007C27.414 37.866 27.7557 37.9482 28.1002 38.0024C28.2036 37.8309 28.3048 37.6629 28.4206 37.4703C28.6292 37.4855 28.8169 37.4996 29.0138 37.514C29.206 37.2655 29.4253 37.0646 29.7723 37.2658C29.8454 37.1268 29.9137 36.9968 29.9935 36.8441C30.6152 36.6162 31.306 36.5126 31.8688 36.0781C32.1066 35.8945 32.3884 35.7539 32.6694 35.6425C33.197 35.434 33.7279 35.256 34.2447 35.0001C34.7963 34.7272 35.3066 34.3144 35.955 34.2298C36.0603 34.2163 36.1448 34.0463 36.244 33.9429C36.3385 33.9829 36.4346 34.063 36.4897 34.0411C36.9305 33.8658 37.3662 33.6768 37.7961 33.4767C37.8614 33.4462 37.8902 33.3363 37.9364 33.2629C38.0094 33.2971 38.0866 33.3327 38.2036 33.3877C38.3812 33.2138 38.5701 33.0285 38.7596 32.8431C38.7844 32.8563 38.8118 32.8837 38.8363 32.8815C39.2247 32.8417 39.48 32.4742 39.8832 32.4536C39.9326 32.451 39.9751 32.3168 39.9678 32.3282ZM73.7885 14.1036C73.7814 13.9808 73.7769 13.8989 73.7696 13.7714C73.8532 13.8003 73.918 13.8234 73.9914 13.8494C74.3366 13.4858 74.6794 13.1066 75.0425 12.7492C75.5297 12.2696 76.0443 11.8289 76.4879 11.2913C76.8635 10.8352 77.4062 10.4717 77.6764 9.94535C77.9325 9.44848 78.5478 9.30448 78.6884 8.74725C79.2366 8.49253 79.3506 7.86655 79.7598 7.48849C79.8808 7.3774 79.9378 7.22548 80.1252 7.15519C80.3134 7.0838 80.297 7.03857 80.386 6.56635C80.4422 6.53963 80.5156 6.50229 80.5906 6.47093C80.6445 6.44846 80.7476 6.44013 80.7507 6.41463C80.8366 5.7973 81.5886 5.71097 81.7486 5.15707C81.7643 5.10489 81.7565 5.01575 81.7861 5.0017C82.6365 4.60834 82.9278 3.67013 83.6212 3.12925C83.8804 2.92646 83.9039 2.58278 84.1428 2.37683C84.2451 2.28839 84.331 2.18083 84.4364 2.06975C84.4286 1.92741 84.3911 1.75787 84.42 1.60049C84.4489 1.44239 84.5442 1.29592 84.641 1.07388C84.1272 1.0146 83.7539 1.30446 83.3065 1.21927C83.6118 1.10813 83.9171 0.996983 84.2451 0.877673C84.242 0.803347 84.2389 0.721342 84.2357 0.640263C83.0605 0.631239 83.0348 0.599731 81.9407 1.5037C81.1669 2.14356 80.2861 2.67882 79.7246 3.5524C79.0468 3.94382 78.6166 4.59922 78.0668 5.12541C77.3164 5.84297 76.6402 6.63646 75.9061 7.37049C74.9816 8.29473 74.0367 9.19821 73.0894 10.0989C72.2027 10.9421 71.259 11.7163 70.3019 12.4814C69.6705 12.9862 69.062 13.538 68.4328 14.0553C67.8034 14.5727 67.1565 15.0691 66.5135 15.5703C66.0419 15.9376 65.6008 16.3667 65.079 16.6418C64.527 16.9328 64.2174 17.4829 63.6764 17.7668C63.3353 17.9459 63.0855 18.287 62.6698 18.3403C62.6124 18.3474 62.5338 18.356 62.5046 18.3939C62.0226 19.0269 61.2709 19.29 60.6558 19.7395C60.0167 20.2064 59.3461 20.6309 58.6784 21.0568C58.309 21.2926 57.9122 21.478 57.5734 21.7684C57.1738 22.1112 56.6465 22.2444 56.2157 22.5559C55.684 22.9401 55.1041 23.2696 54.533 23.5831C53.975 23.8895 53.4231 24.2082 52.8811 24.5384C51.8237 25.182 50.6816 25.6807 49.6826 26.4254C49.4185 26.6226 49.0779 26.6562 48.7924 26.8834C48.4076 27.1901 47.7788 27.2183 47.4479 27.5559C47.0827 27.9283 46.477 27.7776 46.232 28.2666C45.355 28.5128 44.6508 29.1294 43.7854 29.4083C43.5283 29.4908 43.3041 29.6748 43.0628 29.8083C42.7962 29.9562 42.5302 30.1051 42.2583 30.2424C42.0113 30.3675 41.6631 30.312 41.5398 30.6533C41.0804 30.7318 40.724 31.0448 40.3082 31.2032C39.7756 31.4062 39.3491 31.8423 38.7533 31.8915C38.5526 32.3301 37.9414 32.1398 37.7189 32.5662C37.6801 32.6407 37.5084 32.6454 37.3985 32.6838C37.0799 32.7945 36.7637 32.8691 36.4968 33.1311C36.2682 33.3555 35.8542 33.2586 35.5985 33.588C35.4509 33.7776 35.0638 33.7804 34.7967 33.8636C34.7205 34.0093 34.652 34.1395 34.5818 34.2739C34.0248 34.1046 33.7096 34.4311 33.429 34.8361C33.1032 34.6256 32.7369 34.7885 32.5582 34.975C32.3279 35.2145 32.0653 35.2588 31.8043 35.3452C31.042 35.5977 30.377 36.0801 29.575 36.2504C29.3687 36.2941 29.211 36.5654 29.0362 36.7274C28.9211 36.7199 28.7859 36.6936 28.6545 36.7061C28.2872 36.7406 28.0144 37.0208 27.6177 37.0557C27.289 37.0846 26.9447 37.3278 26.6825 37.5606C26.5381 37.6886 26.4449 37.5917 26.3671 37.6237C25.9263 37.8061 25.3792 37.729 25.04 38.1854C24.9547 38.2997 24.7155 38.2997 24.5473 38.3522C23.3405 38.7283 22.1326 39.1007 20.928 39.4836C20.6563 39.5697 20.3615 39.6457 20.1406 39.8108C19.9136 39.9804 19.6683 39.7337 19.461 39.9294C19.3271 40.0562 19.1374 40.1237 18.9449 40.2332C18.75 40.2557 18.4947 40.2495 18.2612 40.3179C17.359 40.5829 16.4443 40.8232 15.5701 41.1642C14.4821 41.5887 13.3232 41.6877 12.2067 41.9795C11.4022 42.1899 10.521 42.1072 9.60722 42.1592C9.4694 42.2648 9.26028 42.4252 9.03492 42.5978C8.99673 42.5809 8.9206 42.5463 8.82791 42.5045C8.73225 42.7365 8.63698 42.9678 8.52524 43.2387C9.0396 43.2119 9.47158 43.1891 9.97767 43.1627C9.90934 43.3708 9.86671 43.5002 9.81548 43.6565L8.94746 43.927C8.87273 44.0699 8.81822 44.1743 8.7214 44.3583C8.95956 44.4419 9.19742 44.5257 9.47182 44.6224C9.3247 44.7394 9.23997 44.8068 9.14713 44.8808C9.19031 45.3789 9.58286 45.5635 9.95174 45.7653C9.917 45.8408 9.88318 45.916 9.87452 45.935C10.1398 46.0719 10.3957 46.2039 10.7013 46.3617C10.9073 46.2388 11.0935 45.8613 11.5049 46.0136C11.4706 46.0897 11.4361 46.1658 11.3711 46.3094C11.7204 46.1355 12.0241 45.9839 12.3276 45.8327C12.351 45.8718 12.375 45.9118 12.3988 45.9512C12.2551 46.0369 12.1114 46.1227 11.9217 46.2357C12.1656 46.2793 12.3637 46.3147 12.6202 46.3605C12.6369 46.2476 12.6516 46.1505 12.6799 45.9628C12.8117 45.9129 13.0144 45.8362 13.2621 45.7427C13.2435 45.9321 13.23 46.0702 13.205 46.3226C13.4103 46.2585 13.5448 46.2268 13.6714 46.1755C14.5867 45.8045 15.5953 45.8404 16.522 45.4876C17.4544 45.1325 18.435 44.9055 19.3723 44.5618C19.5718 44.4888 19.7938 44.7652 19.9596 44.4604C20.0109 44.3661 20.3523 44.4312 20.405 44.3362C20.5957 43.9935 20.8131 44.3563 21.0261 44.2723C21.396 44.1262 21.6663 43.8349 22.0717 43.7256C23.2908 43.396 24.4946 43.0048 25.6939 42.606C26.1459 42.456 26.5607 42.1966 27.0076 42.0271C27.466 41.8534 27.9428 41.7289 28.3995 41.5496C27.6523 41.5721 26.0386 42.0988 25.3372 42.4289C25.4511 42.352 25.5647 42.2753 25.6787 42.1984C25.629 42.1695 25.579 42.1407 25.5293 42.1115C26.033 41.9546 26.5301 41.7691 27.0419 41.6471C27.7762 41.4725 28.3478 40.9119 29.1073 40.8117C29.2897 40.5089 29.7052 40.5562 29.8909 40.3574C30.1869 40.0408 30.608 40.3286 30.9083 39.9955C31.1351 39.7439 31.5674 39.6776 31.981 39.4972C32.006 39.4596 32.0792 39.349 32.1525 39.2384C32.1233 39.2068 32.0942 39.1753 32.0653 39.1436C31.2796 39.4824 30.4938 39.8211 29.6687 40.1772C29.6377 40.1636 29.5321 40.1172 29.4266 40.0708C29.4884 39.9529 29.543 39.8489 29.5977 39.7451C29.6985 39.7804 29.7993 39.8157 30.0173 39.8924C30.0049 39.6839 29.9932 39.49 29.9815 39.2962L30.2014 39.3892C30.2897 39.4034 30.3785 39.4177 30.4901 39.4354C30.4813 39.345 30.473 39.2632 30.4615 39.1455C30.7718 38.9587 31.1023 38.7602 31.4363 38.5591C31.5568 38.6903 31.6471 38.7885 31.7496 38.9002C32.0102 38.7014 32.2648 38.5075 32.5106 38.3201C32.6082 38.3432 32.7141 38.3689 32.8616 38.4038C32.9642 38.1364 33.0574 37.8929 33.1509 37.6493C33.2719 37.7125 33.3242 37.7399 33.4003 37.7799C33.5217 37.6652 33.6495 37.5447 33.7851 37.4167C33.6748 37.361 33.5704 37.3082 33.4562 37.2506C33.4164 37.3152 33.3741 37.3839 33.3093 37.4891C33.1453 37.4684 32.96 37.4445 32.7529 37.4183C32.7479 37.5652 32.7444 37.6736 32.7404 37.7891C32.4796 37.7827 32.2212 37.7762 31.9347 37.7689C31.6885 38.1333 31.1942 38.0485 30.7984 38.2755C30.7348 38.3892 30.6511 38.5389 30.567 38.6885C30.2379 38.4556 29.9636 38.7797 29.6069 38.7702C29.579 38.6969 29.5433 38.603 29.48 38.4358C29.6285 38.4918 29.6971 38.5172 29.8219 38.5643C29.8659 38.4164 29.9142 38.255 29.9652 38.0839C30.1547 38.1906 30.2816 38.2621 30.4275 38.3443C30.577 38.1979 30.7246 38.0529 30.8799 37.9002C31.2007 38.0654 31.3987 37.8526 31.6318 37.633C31.8278 37.4478 32.0917 37.3347 32.3417 37.1803C32.3667 37.065 32.3981 36.9221 32.4604 36.6364C32.6371 36.849 32.7168 36.9448 32.8367 37.089C33.0713 36.9766 33.3213 36.8569 33.571 36.7364C33.8231 36.6149 34.1474 36.5521 34.3092 36.3559C34.5262 36.0921 34.8245 36.4527 35.0343 36.1475C35.1748 35.9428 35.5037 35.8674 35.746 35.7353C35.9181 35.8711 36.0467 35.9729 36.2879 36.1641C35.9663 36.2334 35.771 36.2753 35.4751 36.3388C35.4865 36.319 35.4327 36.4126 35.3639 36.532C35.424 36.5739 35.4831 36.6148 35.5604 36.669C35.5355 36.7306 35.5065 36.8019 35.4784 36.8713C35.5171 36.8921 35.5714 36.9456 35.6006 36.9342C35.8407 36.8401 36.0707 36.7186 36.3144 36.6359C36.5761 36.5475 36.9442 36.5753 37.0951 36.4027C37.324 36.1406 37.6278 36.1946 37.8842 36.0226C37.9535 35.8982 38.0379 35.7463 38.1477 35.5494C38.2996 35.6 38.4558 35.652 38.692 35.7304C37.9686 36.4041 37.0989 36.7162 36.1878 37.219C36.681 37.2133 37.0261 37.077 37.3407 36.9319C37.5279 36.8457 37.6588 36.6396 37.8981 36.5843C38.088 36.5407 38.3053 36.3117 38.4331 36.362C38.7586 36.4899 38.7285 36.1435 38.9006 36.0943C39.1264 36.0297 39.3595 35.9763 39.5718 35.8804C39.8225 35.7673 40.0477 35.5996 40.2958 35.4806C40.5216 35.3722 40.7355 35.2673 40.9486 35.1216C41.2894 34.889 41.7536 34.8371 42.2094 34.8387C41.9366 34.9492 41.6642 35.0598 41.2705 35.2197C42.157 35.3174 42.6326 34.6648 43.2934 34.5415C43.365 34.3331 43.4043 34.1072 43.519 33.9294C43.5768 33.8399 43.7709 33.8387 44.0803 33.7422C43.8469 33.9631 43.7574 34.0476 43.6666 34.1335C43.7166 34.1558 43.7743 34.2052 43.8061 34.192C44.1415 34.0539 44.5146 34.0443 44.7972 33.7238C45.0054 33.4874 45.4112 33.5514 45.7019 33.2853C46.038 32.9776 46.557 32.8788 46.9736 32.648C47.3832 32.4208 47.8051 32.2191 48.2033 31.9649C48.7857 31.5934 49.4339 31.3252 50.0187 30.9569C50.6021 30.5898 51.3081 30.4426 51.8062 29.9211C52.0569 29.6583 52.4475 29.644 52.7531 29.406C53.3995 28.9038 54.1561 28.5446 54.8585 28.1119C55.2334 27.8812 55.5634 27.5859 55.9933 27.4346C56.5077 27.2533 56.7765 26.9168 56.8619 26.4257C56.9595 26.5291 57.0427 26.6177 57.1328 26.7132C57.1778 26.6382 57.22 26.5681 57.2624 26.4977C57.3351 26.5309 57.411 26.5655 57.4086 26.5643C57.6878 26.3668 57.9093 26.1175 58.1794 26.0418C58.5485 25.9379 58.6886 25.6222 59.1328 25.3801C59.924 25.3021 60.4508 24.374 61.37 24.083C61.3456 23.9264 61.3208 23.7644 61.272 23.449C61.4765 23.6386 61.5985 23.752 61.6319 23.7829C62.3514 23.4326 62.8485 22.9755 63.3099 22.4709L63.2372 22.2378C63.3827 22.2609 63.4981 22.3041 63.6066 22.2903C63.7503 22.272 63.888 22.2094 64.0529 22.158C64.104 22.0407 64.1628 21.9073 64.2296 21.7543L64.971 21.5232C64.9763 21.3881 64.9803 21.2794 64.9856 21.144C65.0858 21.171 65.1806 21.1967 65.3349 21.2384C65.4532 21.0389 65.58 20.8249 65.6814 20.6537C65.6435 20.4623 65.6171 20.3288 65.5698 20.0892C65.8321 20.3014 66.002 20.4386 66.1814 20.5839C66.6228 20.2285 66.9885 19.791 67.52 19.5144C67.9888 19.2708 68.2759 18.7538 68.7471 18.445C69.007 18.2745 69.1441 17.9012 69.5304 17.8634C69.6167 17.5285 69.9178 17.4065 70.1544 17.2122C70.4504 16.9695 70.9222 16.9159 71.0627 16.5333C71.2049 16.1479 71.7466 16.1739 71.7837 15.7313C72.1192 15.5837 72.3232 15.2532 72.6136 15.0807C72.9484 14.8821 73.181 14.648 73.3769 14.3298C73.4399 14.2275 73.6153 14.1946 73.7885 14.1036Z" fill="white"/>
<path fill-rule="evenodd" clip-rule="evenodd" d="M0.627657 43.523C0.684091 43.5877 0.825625 43.6787 0.816848 43.7506C0.720089 44.5064 1.1086 45.1029 1.44259 45.7146C1.71752 46.2185 1.97604 46.7555 2.43704 47.1084C3.29123 47.762 3.97937 48.6807 5.13686 48.8715C5.332 49.3965 6.07672 49.0759 6.26874 49.6062C6.91 49.7028 7.41202 50.1264 8.00072 50.3456C8.37063 50.4835 8.73451 50.6315 9.09364 50.7957C9.23154 50.8587 9.41661 50.8187 9.63541 50.8285C9.73607 50.935 9.88537 51.0923 10.073 51.291C10.3252 51.3591 10.6393 51.4438 11.0001 51.5414C11.0525 51.6816 11.1219 51.8669 11.1954 52.0649C11.3034 52.0699 11.4117 52.0751 11.5201 52.0803C11.7823 52.3553 11.4118 52.3745 11.3434 52.5158C11.6819 52.892 12.1278 53.0586 12.6275 53.1736C12.8329 52.8836 13.0414 52.5899 13.2698 52.267L12.9184 51.1396C12.9962 50.9819 13.0734 50.826 13.1541 50.6623C12.9182 50.1511 12.9149 49.5525 12.4901 49.0951C12.2859 48.8755 12.1544 48.5808 11.8582 48.46C11.6692 48.383 11.6348 48.0695 11.3212 48.1503C11.2523 48.1681 11.1056 47.8659 10.9877 47.7163C10.7538 47.4189 10.3925 47.2967 10.0843 47.1156C9.35109 46.6836 8.60692 46.2505 7.82065 45.9331C7.0404 45.6191 6.29982 45.1919 5.4553 45.0334C5.20839 44.987 4.98443 44.8237 4.74619 44.7236C4.51544 44.6267 4.27938 44.5422 3.98171 44.4275C4.2394 44.2063 4.49849 43.9843 4.79515 43.7296C4.87285 43.83 4.93508 43.9112 5.00052 43.9962C5.7126 43.6994 6.22111 43.071 6.9353 42.6895L6.81817 42.3137C7.33612 41.9561 7.82768 41.6168 8.31924 41.2776C8.52157 41.1332 8.83571 41.4053 9.04624 41.0558C8.91177 41.0374 8.78332 41.0199 8.65494 41.0026C9.08099 40.9511 9.2128 40.1565 9.82837 40.6206C10.1661 39.8323 11.2259 39.8252 11.4428 38.9472C11.499 38.973 11.5742 39.0079 11.6768 39.0555C12.0485 38.7641 12.4048 38.4119 12.8263 38.1751C13.2638 37.9287 13.2585 37.39 13.7864 37.0903C14.3711 37.0032 14.9547 36.6472 15.3521 36.032C15.3563 35.7664 15.36 35.5217 15.3643 35.2605C15.2999 35.2027 15.2236 35.134 15.1476 35.0652C15.2155 34.935 15.284 34.8049 15.3611 34.6578C15.099 34.6145 14.8422 34.5722 14.5829 34.5295C14.6554 34.3916 14.7237 34.2616 14.8093 34.0983C14.6348 34.0579 14.4668 34.0191 14.2477 33.9682C14.0361 34.487 13.4092 34.3505 13.0063 34.7071C12.4403 35.2084 11.6905 35.4963 11.0449 35.9151C10.2906 36.4039 9.56544 36.9379 8.82439 37.4474C8.03586 37.9893 7.25061 38.5339 6.42601 39.0253C5.74961 39.4279 5.17637 39.9942 4.47452 40.3695C4.31897 40.7564 3.77353 40.6086 3.61759 40.9953C2.96368 41.1276 2.58448 41.7425 1.96424 41.9406C1.8407 41.9801 1.74649 42.105 1.62701 42.1673C1.09203 42.4465 0.605894 42.7597 0.627657 43.523Z" fill="white"/>
</svg>
