<svg width="198" height="36" viewBox="0 0 198 36" fill="none" xmlns="http://www.w3.org/2000/svg">
<path d="M47.3733 10.5193C47.3733 10.5193 45.3619 9.17134 42.1805 8.97314L41.7391 10.2321C41.7391 10.2233 40.3257 10.0115 40.2343 10.0027C39.4329 9.92374 38.5777 9.93254 37.7739 9.99514C37.6799 10.0027 36.2615 10.2321 36.2615 10.2321L35.8189 8.97314C32.6375 9.17254 30.6262 10.5193 30.6262 10.5193C25.8748 17.8563 27.1578 23.8893 27.1578 23.8893C28.749 25.5685 33.3223 27.0269 33.3223 27.0269L34.5373 24.9051L32.5925 24.0209L32.8795 23.4467C34.5511 24.2819 36.4647 24.7407 38.3295 24.8411C39.9973 24.9301 41.7015 24.6731 43.2915 24.1765C43.6037 24.0787 43.9135 23.9695 44.2181 23.8491C44.3059 23.8141 45.0947 23.4229 45.1185 23.4467L45.4057 24.0209L43.4607 24.9051L44.6759 27.0269C44.6759 27.0269 49.2505 25.5685 50.8417 23.8893C50.8417 23.8893 52.1245 17.8563 47.3733 10.5193ZM35.0453 21.1707C33.8527 21.1707 32.8847 20.1173 32.8847 18.8169C32.8847 17.5177 33.8515 16.4631 35.0453 16.4631C36.2391 16.4631 37.2047 17.5165 37.2047 18.8169C37.2059 20.1173 36.2391 21.1707 35.0453 21.1707ZM42.9541 21.1707C41.7617 21.1707 40.7947 20.1173 40.7947 18.8169C40.7947 17.5177 41.7617 16.4631 42.9541 16.4631C44.1467 16.4631 45.1147 17.5165 45.1147 18.8169C45.1135 20.1173 44.1467 21.1707 42.9541 21.1707Z" fill="white"/>
<path d="M63.9616 12.8182H66.0895V19.9176C66.0895 20.5739 65.942 21.1439 65.647 21.6278C65.3554 22.1117 64.9493 22.4846 64.429 22.7464C63.9086 23.0083 63.3037 23.1392 62.6143 23.1392C62.0012 23.1392 61.4444 23.0315 60.9439 22.8161C60.4467 22.5973 60.0523 22.2659 59.7607 21.8217C59.469 21.3743 59.3248 20.8125 59.3281 20.1364H61.4709C61.4775 20.4048 61.5322 20.6352 61.6349 20.8274C61.741 21.0163 61.8852 21.1622 62.0675 21.2649C62.2531 21.3643 62.4718 21.4141 62.7237 21.4141C62.9889 21.4141 63.2126 21.3577 63.3949 21.245C63.5805 21.129 63.7214 20.96 63.8175 20.7379C63.9136 20.5159 63.9616 20.2424 63.9616 19.9176V12.8182ZM71.2798 23.1491C70.5076 23.1491 69.8397 22.9851 69.2763 22.657C68.7161 22.3255 68.2836 21.8648 67.9787 21.2749C67.6738 20.6816 67.5213 19.9938 67.5213 19.2116C67.5213 18.4228 67.6738 17.7334 67.9787 17.1435C68.2836 16.5502 68.7161 16.0895 69.2763 15.7614C69.8397 15.4299 70.5076 15.2642 71.2798 15.2642C72.0521 15.2642 72.7183 15.4299 73.2784 15.7614C73.8419 16.0895 74.276 16.5502 74.581 17.1435C74.8859 17.7334 75.0384 18.4228 75.0384 19.2116C75.0384 19.9938 74.8859 20.6816 74.581 21.2749C74.276 21.8648 73.8419 22.3255 73.2784 22.657C72.7183 22.9851 72.0521 23.1491 71.2798 23.1491ZM71.2898 21.5085C71.6411 21.5085 71.9344 21.4091 72.1697 21.2102C72.4051 21.008 72.5824 20.733 72.7017 20.3849C72.8243 20.0369 72.8857 19.6409 72.8857 19.1967C72.8857 18.7526 72.8243 18.3565 72.7017 18.0085C72.5824 17.6605 72.4051 17.3854 72.1697 17.1832C71.9344 16.9811 71.6411 16.88 71.2898 16.88C70.9351 16.88 70.6368 16.9811 70.3949 17.1832C70.1563 17.3854 69.9756 17.6605 69.853 18.0085C69.7337 18.3565 69.674 18.7526 69.674 19.1967C69.674 19.6409 69.7337 20.0369 69.853 20.3849C69.9756 20.733 70.1563 21.008 70.3949 21.2102C70.6368 21.4091 70.9351 21.5085 71.2898 21.5085ZM76.4155 23V15.3636H78.5334V23H76.4155ZM77.4794 14.3793C77.1645 14.3793 76.8944 14.2749 76.669 14.0661C76.447 13.8539 76.3359 13.6004 76.3359 13.3054C76.3359 13.0137 76.447 12.7635 76.669 12.5547C76.8944 12.3426 77.1645 12.2365 77.4794 12.2365C77.7943 12.2365 78.0627 12.3426 78.2848 12.5547C78.5102 12.7635 78.6229 13.0137 78.6229 13.3054C78.6229 13.6004 78.5102 13.8539 78.2848 14.0661C78.0627 14.2749 77.7943 14.3793 77.4794 14.3793ZM82.3478 18.5852V23H80.2299V15.3636H82.2484V16.7109H82.3379C82.5069 16.2668 82.7903 15.9155 83.188 15.657C83.5858 15.3951 84.068 15.2642 84.6348 15.2642C85.1651 15.2642 85.6274 15.3802 86.0218 15.6122C86.4163 15.8442 86.7228 16.1757 86.9416 16.6065C87.1603 17.0341 87.2697 17.5445 87.2697 18.1378V23H85.1518V18.5156C85.1551 18.0483 85.0358 17.6837 84.7939 17.4219C84.5519 17.1567 84.2188 17.0241 83.7946 17.0241C83.5095 17.0241 83.2576 17.0855 83.0389 17.2081C82.8234 17.3307 82.6544 17.5097 82.5318 17.745C82.4125 17.977 82.3511 18.2571 82.3478 18.5852ZM101.203 16.3828H99.025C98.9853 16.1011 98.9041 15.8509 98.7814 15.6321C98.6588 15.41 98.5014 15.2211 98.3091 15.0653C98.1169 14.9096 97.8948 14.7902 97.6429 14.7074C97.3944 14.6245 97.1242 14.5831 96.8326 14.5831C96.3056 14.5831 95.8465 14.714 95.4554 14.9759C95.0643 15.2344 94.7611 15.6122 94.5456 16.1094C94.3302 16.6032 94.2225 17.2031 94.2225 17.9091C94.2225 18.6349 94.3302 19.2448 94.5456 19.7386C94.7644 20.2325 95.0693 20.6054 95.4604 20.8572C95.8515 21.1091 96.3039 21.2351 96.8176 21.2351C97.106 21.2351 97.3728 21.197 97.6181 21.1207C97.8667 21.0445 98.0871 20.9335 98.2793 20.7876C98.4715 20.6385 98.6306 20.4579 98.7566 20.2457C98.8858 20.0336 98.9753 19.7917 99.025 19.5199L101.203 19.5298C101.146 19.9972 101.005 20.4479 100.78 20.8821C100.558 21.313 100.258 21.6991 99.8801 22.0405C99.5056 22.3786 99.0582 22.647 98.5378 22.8459C98.0208 23.0414 97.4358 23.1392 96.7828 23.1392C95.8747 23.1392 95.0627 22.9337 94.3468 22.5227C93.6342 22.1117 93.0707 21.5168 92.6564 20.7379C92.2454 19.959 92.04 19.0161 92.04 17.9091C92.04 16.7988 92.2488 15.8542 92.6664 15.0753C93.084 14.2964 93.6507 13.7031 94.3667 13.2955C95.0826 12.8845 95.888 12.679 96.7828 12.679C97.3728 12.679 97.9197 12.7618 98.4235 12.9276C98.9306 13.0933 99.3797 13.3352 99.7708 13.6534C100.162 13.9683 100.48 14.3544 100.725 14.8118C100.974 15.2692 101.133 15.7929 101.203 16.3828ZM106.157 23.1491C105.385 23.1491 104.717 22.9851 104.153 22.657C103.593 22.3255 103.161 21.8648 102.856 21.2749C102.551 20.6816 102.398 19.9938 102.398 19.2116C102.398 18.4228 102.551 17.7334 102.856 17.1435C103.161 16.5502 103.593 16.0895 104.153 15.7614C104.717 15.4299 105.385 15.2642 106.157 15.2642C106.929 15.2642 107.595 15.4299 108.155 15.7614C108.719 16.0895 109.153 16.5502 109.458 17.1435C109.763 17.7334 109.915 18.4228 109.915 19.2116C109.915 19.9938 109.763 20.6816 109.458 21.2749C109.153 21.8648 108.719 22.3255 108.155 22.657C107.595 22.9851 106.929 23.1491 106.157 23.1491ZM106.167 21.5085C106.518 21.5085 106.811 21.4091 107.047 21.2102C107.282 21.008 107.459 20.733 107.579 20.3849C107.701 20.0369 107.763 19.6409 107.763 19.1967C107.763 18.7526 107.701 18.3565 107.579 18.0085C107.459 17.6605 107.282 17.3854 107.047 17.1832C106.811 16.9811 106.518 16.88 106.167 16.88C105.812 16.88 105.514 16.9811 105.272 17.1832C105.033 17.3854 104.853 17.6605 104.73 18.0085C104.611 18.3565 104.551 18.7526 104.551 19.1967C104.551 19.6409 104.611 20.0369 104.73 20.3849C104.853 20.733 105.033 21.008 105.272 21.2102C105.514 21.4091 105.812 21.5085 106.167 21.5085ZM111.292 23V15.3636H113.311V16.7109H113.4C113.559 16.2635 113.825 15.9105 114.196 15.652C114.567 15.3935 115.011 15.2642 115.528 15.2642C116.052 15.2642 116.498 15.3951 116.866 15.657C117.233 15.9155 117.479 16.2668 117.601 16.7109H117.681C117.837 16.2734 118.118 15.9238 118.526 15.6619C118.937 15.3968 119.423 15.2642 119.983 15.2642C120.695 15.2642 121.274 15.4912 121.718 15.9453C122.165 16.3961 122.389 17.0357 122.389 17.8643V23H120.276V18.282C120.276 17.8577 120.163 17.5395 119.938 17.3274C119.713 17.1153 119.431 17.0092 119.093 17.0092C118.708 17.0092 118.408 17.1319 118.193 17.3771C117.978 17.6191 117.87 17.9389 117.87 18.3366V23H115.817V18.2372C115.817 17.8627 115.709 17.5644 115.493 17.3423C115.281 17.1203 115.001 17.0092 114.653 17.0092C114.418 17.0092 114.206 17.0689 114.017 17.1882C113.831 17.3042 113.684 17.4683 113.574 17.6804C113.465 17.8892 113.41 18.1345 113.41 18.4162V23H111.292ZM124.062 23V15.3636H126.08V16.7109H126.17C126.329 16.2635 126.594 15.9105 126.965 15.652C127.337 15.3935 127.781 15.2642 128.298 15.2642C128.821 15.2642 129.267 15.3951 129.635 15.657C130.003 15.9155 130.248 16.2668 130.371 16.7109H130.45C130.606 16.2734 130.888 15.9238 131.296 15.6619C131.707 15.3968 132.192 15.2642 132.752 15.2642C133.465 15.2642 134.043 15.4912 134.487 15.9453C134.935 16.3961 135.159 17.0357 135.159 17.8643V23H133.046V18.282C133.046 17.8577 132.933 17.5395 132.708 17.3274C132.482 17.1153 132.2 17.0092 131.862 17.0092C131.478 17.0092 131.178 17.1319 130.963 17.3771C130.747 17.6191 130.639 17.9389 130.639 18.3366V23H128.586V18.2372C128.586 17.8627 128.478 17.5644 128.263 17.3423C128.051 17.1203 127.771 17.0092 127.423 17.0092C127.187 17.0092 126.975 17.0689 126.786 17.1882C126.601 17.3042 126.453 17.4683 126.344 17.6804C126.235 17.8892 126.18 18.1345 126.18 18.4162V23H124.062ZM141.729 19.7486V15.3636H143.846V23H141.813V21.6129H141.733C141.561 22.0604 141.274 22.42 140.873 22.6918C140.476 22.9635 139.99 23.0994 139.417 23.0994C138.906 23.0994 138.457 22.9834 138.069 22.7514C137.682 22.5194 137.378 22.1896 137.16 21.7621C136.944 21.3345 136.835 20.8224 136.831 20.2259V15.3636H138.949V19.848C138.953 20.2988 139.074 20.6551 139.312 20.9169C139.551 21.1787 139.871 21.3097 140.272 21.3097C140.527 21.3097 140.766 21.2517 140.988 21.1357C141.21 21.0163 141.389 20.8407 141.525 20.6087C141.664 20.3767 141.732 20.09 141.729 19.7486ZM147.658 18.5852V23H145.54V15.3636H147.559V16.7109H147.648C147.817 16.2668 148.101 15.9155 148.499 15.657C148.896 15.3951 149.379 15.2642 149.945 15.2642C150.476 15.2642 150.938 15.3802 151.332 15.6122C151.727 15.8442 152.033 16.1757 152.252 16.6065C152.471 17.0341 152.58 17.5445 152.58 18.1378V23H150.462V18.5156C150.466 18.0483 150.346 17.6837 150.104 17.4219C149.862 17.1567 149.529 17.0241 149.105 17.0241C148.82 17.0241 148.568 17.0855 148.349 17.2081C148.134 17.3307 147.965 17.5097 147.842 17.745C147.723 17.977 147.662 18.2571 147.658 18.5852ZM154.249 23V15.3636H156.367V23H154.249ZM155.313 14.3793C154.999 14.3793 154.728 14.2749 154.503 14.0661C154.281 13.8539 154.17 13.6004 154.17 13.3054C154.17 13.0137 154.281 12.7635 154.503 12.5547C154.728 12.3426 154.999 12.2365 155.313 12.2365C155.628 12.2365 155.897 12.3426 156.119 12.5547C156.344 12.7635 156.457 13.0137 156.457 13.3054C156.457 13.6004 156.344 13.8539 156.119 14.0661C155.897 14.2749 155.628 14.3793 155.313 14.3793ZM162.126 15.3636V16.9545H157.527V15.3636H162.126ZM158.571 13.5341H160.689V20.6534C160.689 20.849 160.719 21.0014 160.778 21.1108C160.838 21.2169 160.921 21.2914 161.027 21.3345C161.136 21.3776 161.262 21.3991 161.405 21.3991C161.504 21.3991 161.604 21.3909 161.703 21.3743C161.803 21.3544 161.879 21.3395 161.932 21.3295L162.265 22.9055C162.159 22.9387 162.01 22.9768 161.817 23.0199C161.625 23.0663 161.392 23.0945 161.116 23.1044C160.606 23.1243 160.159 23.0563 159.774 22.9006C159.393 22.7448 159.096 22.5028 158.884 22.1747C158.672 21.8466 158.568 21.4323 158.571 20.9318V13.5341ZM164.813 25.8636C164.544 25.8636 164.292 25.8421 164.057 25.799C163.825 25.7592 163.633 25.7079 163.48 25.6449L163.958 24.0639C164.206 24.1402 164.43 24.1816 164.629 24.1882C164.831 24.1948 165.005 24.1484 165.151 24.049C165.3 23.9496 165.421 23.7805 165.514 23.5419L165.638 23.2188L162.899 15.3636H165.126L166.707 20.9716H166.787L168.382 15.3636H170.625L167.657 23.8253C167.514 24.2363 167.32 24.5942 167.075 24.8991C166.833 25.2074 166.526 25.4444 166.155 25.6101C165.784 25.7791 165.337 25.8636 164.813 25.8636Z" fill="white"/>
<rect x="1" y="1" width="196" height="34" rx="17" stroke="url(#paint0_linear_4488_37821)" stroke-width="2"/>
<defs>
<linearGradient id="paint0_linear_4488_37821" x1="-1.84402e-07" y1="18" x2="198" y2="18" gradientUnits="userSpaceOnUse">
<stop stop-color="#42D8BC"/>
<stop offset="1" stop-color="#039AEC"/>
</linearGradient>
</defs>
</svg>
