<svg width="602" height="334" viewBox="0 0 602 334" fill="none" xmlns="http://www.w3.org/2000/svg">
<path d="M23.2274 327.522H551.727" stroke="#002A41" stroke-width="0.75" stroke-linecap="round" stroke-linejoin="round"/>
<mask id="mask0_4381_35318" style="mask-type:luminance" maskUnits="userSpaceOnUse" x="188" y="0" width="211" height="205">
<path d="M388.987 0H198.547C193.163 0 188.797 4.2534 188.797 9.50024V195.062C188.797 200.309 193.163 204.562 198.547 204.562H388.987C394.372 204.562 398.737 200.309 398.737 195.062V9.50024C398.737 4.2534 394.372 0 388.987 0Z" fill="white"/>
</mask>
<g mask="url(#mask0_4381_35318)">
<path opacity="0.8" d="M388.987 -11.04H198.547C193.163 -11.04 188.797 -6.55709 188.797 -1.02708V194.549C188.797 200.079 193.163 204.562 198.547 204.562H388.987C394.372 204.562 398.737 200.079 398.737 194.549V-1.02708C398.737 -6.55709 394.372 -11.04 388.987 -11.04Z" fill="url(#paint0_linear_4381_35318)"/>
</g>
<path d="M383.737 19.842H203.797C198.413 19.842 194.047 24.2073 194.047 29.592V189.562C194.047 194.947 198.413 199.312 203.797 199.312H383.737C389.122 199.312 393.487 194.947 393.487 189.562V29.592C393.487 24.2073 389.122 19.842 383.737 19.842Z" fill="#000305"/>
<mask id="mask1_4381_35318" style="mask-type:alpha" maskUnits="userSpaceOnUse" x="194" y="19" width="200" height="181">
<path d="M383.737 19.842H203.797C198.413 19.842 194.047 24.2073 194.047 29.592V189.562C194.047 194.947 198.413 199.312 203.797 199.312H383.737C389.122 199.312 393.487 194.947 393.487 189.562V29.592C393.487 24.2073 389.122 19.842 383.737 19.842Z" fill="#002A41"/>
</mask>
<g mask="url(#mask1_4381_35318)">
<g filter="url(#filter0_f_4381_35318)">
<ellipse cx="107.929" cy="22.199" rx="107.929" ry="22.199" transform="matrix(1 0 0 -1 186.08 229.056)" fill="#43D9BB"/>
</g>
<g filter="url(#filter1_f_4381_35318)">
<ellipse cx="107.929" cy="22.199" rx="107.929" ry="22.199" transform="matrix(1 0 0 -1 186.08 35.1172)" fill="#039AEC"/>
</g>
</g>
<path d="M454.517 264.592C454.517 264.592 456.188 275.582 455.788 279.232C454.458 291.502 448.177 303.672 445.517 327.512H547.698C547.698 327.512 548.627 284.032 544.607 264.582H454.517V264.592Z" fill="#00121C" stroke="#002A41" stroke-linecap="round" stroke-linejoin="round"/>
<path d="M453.928 270.842C453.928 270.842 451.418 228.082 446.478 186.922C443.518 162.232 438.557 137.762 437.417 119.482C435.937 95.5722 465.127 102.212 490.547 101.152C515.967 100.092 540.657 96.7922 542.427 119.022C544.187 141.252 546.618 269.432 546.618 269.432C546.618 269.432 498.458 282.342 453.928 270.842Z" fill="#42D8BC"/>
<mask id="mask2_4381_35318" style="mask-type:luminance" maskUnits="userSpaceOnUse" x="437" y="100" width="110" height="176">
<path d="M453.928 270.842C453.928 270.842 451.418 228.082 446.478 186.922C443.518 162.232 438.557 137.762 437.417 119.482C435.937 95.5722 465.127 102.212 490.547 101.152C515.967 100.092 540.657 96.7922 542.427 119.022C544.187 141.252 546.618 269.432 546.618 269.432C546.618 269.432 498.458 282.342 453.928 270.842Z" fill="white"/>
</mask>
<g mask="url(#mask2_4381_35318)">
<g opacity="0.2">
<path d="M446.137 133.522C440.177 147.532 430.287 159.832 417.887 168.672L420.267 174.132C417.507 176.452 412.447 174.322 412.188 170.732L409.318 185.472L400.158 185.182C404.638 189.732 412.508 189.042 417.788 185.452C423.068 181.862 426.408 176.132 429.698 170.662C432.988 165.192 436.647 159.572 442.237 156.492C448.957 188.062 455.688 219.622 462.408 251.192C463.498 256.282 464.647 261.552 467.707 265.762C474.057 274.512 486.328 276.092 497.128 276.002C513.138 275.852 529.128 273.672 544.588 269.522L543.398 153.332L574.198 191.642C569.188 198.572 564.167 205.502 559.157 212.422C565.487 202.882 576.487 196.612 587.927 196.032C586.077 194.142 583.188 193.342 580.638 194.012L590.157 190.962L582.717 190.312C584.097 188.072 585.487 185.832 586.867 183.582C585.897 185.502 583.257 186.042 581.217 185.342C579.177 184.642 577.608 183.032 576.128 181.472C569.338 174.362 562.478 167.152 557.628 158.602C552.778 150.052 550.067 139.882 552.237 130.292L548.777 138.932L543.487 124.172C544.547 128.842 542.908 134.022 539.338 137.212C537.928 138.482 536.188 139.512 535.448 141.282C535.118 142.062 535.098 142.952 535.258 143.792C548.538 214.822 505.357 215.202 490.217 211.302C476.657 207.802 464.227 190.702 463.707 176.882C463.647 175.142 465.548 174.012 467.068 174.852C492.578 188.942 514.457 192.542 506.867 186.712C493.367 183.822 457.387 169.072 451.387 136.932C450.937 134.502 448.538 132.942 446.128 133.512L446.137 133.522Z" fill="black"/>
</g>
</g>
<path d="M453.928 270.842C453.928 270.842 451.418 228.082 446.478 186.922C443.518 162.232 438.557 137.762 437.417 119.482C435.937 95.5722 465.127 102.212 490.547 101.152C515.967 100.092 540.657 96.7922 542.427 119.022C544.187 141.252 546.618 269.432 546.618 269.432C546.618 269.432 498.458 282.342 453.928 270.842Z" stroke="#002A41" stroke-width="0.75" stroke-linecap="round" stroke-linejoin="round"/>
<path d="M495.478 327.522C495.478 327.522 493.377 322.402 492.167 320.782C485.917 312.482 486.698 305.402 484.408 297.652C483.708 295.282 478.917 289.422 478.917 289.422" stroke="#002A41" stroke-width="0.75" stroke-linecap="round" stroke-linejoin="round"/>
<path d="M557.708 221.372L550.277 230.192L552.568 245.652L563.888 233.742L557.708 221.372Z" fill="white" stroke="#002A41" stroke-width="0.75" stroke-linecap="round" stroke-linejoin="round"/>
<path d="M551.638 230.832C551.328 229.332 551.158 225.502 549.708 225.002C547.048 224.082 541.927 228.922 540.307 231.222C539.547 232.302 537.907 234.622 537.927 235.952C537.927 236.632 538.528 238.242 539.198 238.342C540.358 238.522 541.688 235.832 542.588 235.072C543.718 234.122 547.937 232.012 547.937 232.012C547.937 232.012 544.788 236.582 543.508 237.642C541.598 239.212 533.627 243.642 538.687 246.282C538.687 246.282 536.737 249.142 539.787 249.902C542.847 250.662 547.708 246.432 547.708 246.432C547.708 246.432 546.837 247.802 544.607 249.782C542.677 251.512 539.807 251.132 540.487 252.352C541.537 254.242 544.137 254.412 546.907 253.482C549.677 252.552 551.547 251.472 553.527 248.192C556.027 244.042 552.538 235.092 551.648 230.822L551.638 230.832Z" fill="white" stroke="#1A2E35" stroke-width="0.75" stroke-linecap="round" stroke-linejoin="round"/>
<path d="M540.768 245.652C540.768 245.652 544.917 243.562 547.057 241.962C549.197 240.362 550.287 238.162 550.287 238.162" stroke="#1A2E35" stroke-width="0.75" stroke-linecap="round" stroke-linejoin="round"/>
<path d="M518.438 100.422C518.438 100.422 543.197 101.892 543.057 109.502C543.057 109.502 555.457 114.782 556.117 120.742C556.777 126.702 609.078 182.732 600.008 199.002C592.098 213.202 560.148 239.622 560.148 239.622C560.148 239.622 557.098 232.762 553.648 224.752C553.648 224.752 567.668 194.182 574.068 191.042L540.427 148.312" fill="#42D8BC"/>
<mask id="mask3_4381_35318" style="mask-type:luminance" maskUnits="userSpaceOnUse" x="518" y="100" width="84" height="140">
<path d="M518.438 100.422C518.438 100.422 543.197 101.892 543.057 109.502C543.057 109.502 555.457 114.782 556.117 120.742C556.777 126.702 609.078 182.732 600.008 199.002C592.098 213.202 560.148 239.622 560.148 239.622C560.148 239.622 557.098 232.762 553.648 224.752C553.648 224.752 567.668 194.182 574.068 191.042L540.427 148.312" fill="white"/>
</mask>
<g mask="url(#mask3_4381_35318)">
<g opacity="0.2">
<path d="M446.637 133.352C440.677 147.362 430.787 159.662 418.387 168.502C419.177 170.322 419.977 172.142 420.767 173.962C418.007 176.282 412.947 174.152 412.688 170.562C411.728 175.472 410.778 180.382 409.818 185.302C406.768 185.202 403.708 185.112 400.658 185.012C405.138 189.562 413.008 188.872 418.288 185.282C423.568 181.692 426.908 175.962 430.198 170.492C433.488 165.022 437.147 159.402 442.737 156.322C449.457 187.892 456.188 219.452 462.908 251.022C463.998 256.112 465.147 261.382 468.207 265.592C474.557 274.342 486.828 275.922 497.628 275.832C513.638 275.682 529.628 273.502 545.088 269.352C544.688 230.622 544.288 191.892 543.898 153.162C554.168 165.932 564.428 178.702 574.698 191.472C569.688 198.402 564.667 205.332 559.657 212.252C565.987 202.712 576.987 196.442 588.427 195.862C586.577 193.972 583.688 193.172 581.138 193.842C584.308 192.822 587.477 191.812 590.657 190.792C588.177 190.572 585.697 190.362 583.217 190.142C584.597 187.902 585.987 185.662 587.367 183.412C586.397 185.332 583.757 185.872 581.717 185.172C579.677 184.472 578.108 182.862 576.628 181.302C569.838 174.192 562.978 166.982 558.128 158.432C553.278 149.882 550.567 139.712 552.737 130.122C551.587 133.002 550.427 135.882 549.277 138.762C547.517 133.842 545.747 128.922 543.987 124.002C545.047 128.672 543.408 133.852 539.838 137.042C538.478 138.262 536.827 139.262 536.037 140.902C534.977 143.112 535.827 145.712 536.527 148.062C540.917 162.722 538.838 179.542 529.648 191.772C520.458 204.002 503.908 210.752 489.098 206.932C474.278 203.112 462.747 188.062 464.337 172.842C480.147 178.622 496.818 182.062 513.628 183.002C499.508 179.982 485.297 175.902 473.397 167.722C461.497 159.542 452.108 146.642 451.258 132.232L446.628 133.332L446.637 133.352Z" fill="black"/>
</g>
</g>
<path d="M518.438 100.422C518.438 100.422 543.197 101.892 543.057 109.502C543.057 109.502 555.457 114.782 556.117 120.742C556.777 126.702 609.078 182.732 600.008 199.002C592.098 213.202 560.148 239.622 560.148 239.622C560.148 239.622 557.098 232.762 553.648 224.752C553.648 224.752 567.668 194.182 574.068 191.042L540.427 148.312" stroke="#002A41" stroke-width="0.75" stroke-linecap="round" stroke-linejoin="round"/>
<path d="M591.027 189.862C585.517 185.982 577.698 190.062 577.698 187.512C577.698 184.962 587.108 184.732 586.318 182.102" stroke="#002A41" stroke-width="0.75" stroke-linecap="round" stroke-linejoin="round"/>
<path d="M547.847 137.042C549.227 133.292 550.428 128.262 550.458 122.052" stroke="#002A41" stroke-width="0.75" stroke-linecap="round" stroke-linejoin="round"/>
<path d="M543.828 118.772C544.118 124.582 544.418 132.842 544.148 139.152C544.088 140.632 546.097 141.122 546.717 139.772" stroke="#002A41" stroke-width="0.75" stroke-linecap="round" stroke-linejoin="round"/>
<path d="M543.407 111.662C543.407 111.662 543.497 112.902 543.617 114.932" stroke="#002A41" stroke-width="0.75" stroke-linecap="round" stroke-linejoin="round"/>
<path d="M430.408 128.322C430.408 128.322 428.938 138.612 430.408 145.962" stroke="#002A41" stroke-width="0.75" stroke-linecap="round" stroke-linejoin="round"/>
<path d="M387.148 118.032L381.478 101.712C381.478 101.712 379.718 90.5422 378.248 88.3322C376.778 86.1322 372.958 83.0422 372.958 83.0422C372.958 83.0422 370.208 79.2222 368.278 77.6022C366.348 75.9822 355.028 70.1022 354.148 70.5422C353.268 70.9822 351.868 73.6322 359.218 77.7422C359.218 77.7422 355.178 77.4522 351.938 78.7722C348.698 80.0922 346.498 80.4622 347.898 81.8622C349.298 83.2622 350.468 83.9222 355.688 82.5222C355.688 82.5222 359.357 82.9622 362.297 82.7422L363.917 84.6522C363.917 84.6522 361.418 83.5522 359.948 85.9022C358.478 88.2522 356.788 91.1922 357.518 92.8822C357.518 92.8822 351.858 89.9422 350.318 92.3722C348.778 94.8022 353.548 97.0022 355.458 98.4722C357.368 99.9422 361.998 103.912 361.998 103.912C361.998 103.912 365.308 111.332 372.218 114.052C372.218 114.052 374.898 117.142 374.128 120.002L387.148 118.022V118.032Z" fill="white" stroke="#002A41" stroke-width="0.75" stroke-linecap="round" stroke-linejoin="round"/>
<path d="M362.807 79.7422L365.237 81.7222L367.957 86.4322L369.788 92.6022" stroke="#002A41" stroke-width="0.75" stroke-linecap="round" stroke-linejoin="round"/>
<path d="M371.337 92.6023C371.337 92.6023 367.487 97.2323 364.747 97.8923C364.747 97.8923 361.857 96.6423 361.277 96.1323C360.787 95.7023 360.047 94.8723 358.557 93.6823" stroke="#002A41" stroke-width="0.75" stroke-linecap="round" stroke-linejoin="round"/>
<path d="M367.068 92.2322L366.717 90.9822C366.717 90.9822 364.797 91.4222 363.247 90.9822L362.367 92.2322C362.367 92.2322 364.348 91.8622 367.068 92.2322Z" stroke="#002A41" stroke-width="0.75" stroke-linecap="round" stroke-linejoin="round"/>
<path d="M363.177 87.0222C363.177 87.0222 363.838 88.2522 363.688 90.1822" stroke="#002A41" stroke-width="0.75" stroke-linecap="round" stroke-linejoin="round"/>
<path d="M360.897 90.9822C360.897 90.9822 363.858 93.2622 363.448 97.3022" stroke="#002A41" stroke-width="0.75" stroke-linecap="round" stroke-linejoin="round"/>
<path d="M365.457 85.8423L367.068 87.6023V89.5923" stroke="#002A41" stroke-width="0.75" stroke-linecap="round" stroke-linejoin="round"/>
<path d="M448.137 103.032C448.137 103.032 438.768 102.632 432.788 119.492C432.788 119.492 425.727 123.612 411.357 154.972C411.357 154.972 408.887 151.662 403.577 142.592C398.937 134.672 391.867 124.442 386.017 109.472C386.017 109.472 381.317 115.262 371.237 114.932C371.237 114.932 393.077 188.682 408.357 188.682C425.217 188.682 443.777 149.482 443.777 149.482" fill="#42D8BC"/>
<mask id="mask4_4381_35318" style="mask-type:luminance" maskUnits="userSpaceOnUse" x="371" y="103" width="78" height="86">
<path d="M448.137 103.032C448.137 103.032 438.768 102.632 432.788 119.492C432.788 119.492 425.727 123.612 411.357 154.972C411.357 154.972 408.887 151.662 403.577 142.592C398.937 134.672 391.867 124.442 386.017 109.472C386.017 109.472 381.317 115.262 371.237 114.932C371.237 114.932 393.077 188.682 408.357 188.682C425.217 188.682 443.777 149.482 443.777 149.482" fill="white"/>
</mask>
<g mask="url(#mask4_4381_35318)">
<g opacity="0.2">
<path d="M446.637 133.352C440.677 147.362 430.787 159.662 418.387 168.502C419.177 170.322 419.977 172.142 420.767 173.962C418.007 176.282 412.947 174.152 412.688 170.562C411.728 175.472 410.778 180.382 409.818 185.302C406.768 185.202 403.708 185.112 400.658 185.012C405.138 189.562 413.008 188.872 418.288 185.282C423.568 181.692 426.908 175.962 430.198 170.492C433.488 165.022 437.147 159.402 442.737 156.322C449.457 187.892 456.188 219.452 462.908 251.022C463.998 256.112 465.147 261.382 468.207 265.592C474.557 274.342 486.828 275.922 497.628 275.832C513.638 275.682 529.628 273.502 545.088 269.352C544.688 230.622 544.288 191.892 543.898 153.162C554.168 165.932 564.428 178.702 574.698 191.472C569.688 198.402 564.667 205.332 559.657 212.252C565.987 202.712 576.987 196.442 588.427 195.862C586.577 193.972 583.688 193.172 581.138 193.842C584.308 192.822 587.477 191.812 590.657 190.792C588.177 190.572 585.697 190.362 583.217 190.142C584.597 187.902 585.987 185.662 587.367 183.412C586.397 185.332 583.757 185.872 581.717 185.172C579.677 184.472 578.108 182.862 576.628 181.302C569.838 174.192 562.978 166.982 558.128 158.432C553.278 149.882 550.567 139.712 552.737 130.122C551.587 133.002 550.427 135.882 549.277 138.762C547.517 133.842 545.747 128.922 543.987 124.002C545.047 128.672 543.408 133.852 539.838 137.042C538.478 138.262 536.827 139.262 536.037 140.902C534.977 143.112 535.827 145.712 536.527 148.062C540.917 162.722 538.838 179.542 529.648 191.772C520.458 204.002 503.908 210.752 489.098 206.932C474.278 203.112 462.747 188.062 464.337 172.842C480.147 178.622 496.818 182.062 513.628 183.002C499.508 179.982 485.297 175.902 473.397 167.722C461.497 159.542 452.108 146.642 451.258 132.232L446.628 133.332L446.637 133.352Z" fill="black"/>
</g>
</g>
<path d="M448.137 103.032C448.137 103.032 438.768 102.632 432.788 119.492C432.788 119.492 425.727 123.612 411.357 154.972C411.357 154.972 408.887 151.662 403.577 142.592C398.937 134.672 391.867 124.442 386.017 109.472C386.017 109.472 381.317 115.262 371.237 114.932C371.237 114.932 393.077 188.682 408.357 188.682C425.217 188.682 443.777 149.482 443.777 149.482" stroke="#002A41" stroke-width="0.75" stroke-linecap="round" stroke-linejoin="round"/>
<path d="M437.658 123.202C437.558 122.012 437.477 120.772 437.417 119.492" stroke="#002A41" stroke-width="0.75" stroke-linecap="round" stroke-linejoin="round"/>
<path d="M439.288 145.542C442.018 145.242 439.638 139.632 438.188 128.322" stroke="#002A41" stroke-width="0.75" stroke-linecap="round" stroke-linejoin="round"/>
<path d="M432.277 124.592C432.277 124.592 434.557 137.912 437.177 143.312" stroke="#002A41" stroke-width="0.75" stroke-linecap="round" stroke-linejoin="round"/>
<path d="M495.167 74.1721C495.167 74.1721 497.727 99.6421 503.417 102.712C503.417 102.712 502.508 112.442 485.908 112.442C469.308 112.442 469.307 98.7221 469.307 98.7221L495.167 74.1621V74.1721Z" fill="white"/>
<mask id="mask5_4381_35318" style="mask-type:luminance" maskUnits="userSpaceOnUse" x="469" y="74" width="35" height="39">
<path d="M495.167 74.1721C495.167 74.1721 497.727 99.6421 503.417 102.712C503.417 102.712 502.508 112.442 485.908 112.442C469.308 112.442 469.307 98.7221 469.307 98.7221L495.167 74.1621V74.1721Z" fill="white"/>
</mask>
<g mask="url(#mask5_4381_35318)">
<path d="M459.307 46.6121C459.307 46.6121 456.617 62.6521 457.057 65.9821C457.497 69.3121 456.677 72.8021 457.357 78.2421C458.037 83.6721 462.177 98.8121 472.057 101.132C477.207 102.342 488.377 97.3221 492.997 87.0221C493.307 86.3221 495.167 78.4121 495.167 78.4121C495.167 78.4121 499.747 81.5121 501.217 76.5021C502.687 71.4921 505.167 66.9121 501.987 63.9221C498.667 60.8021 494.507 67.4121 493.917 69.8121C493.317 72.2121 490.978 69.4921 490.978 69.4921C490.978 69.4921 489.507 58.4621 486.067 55.5321C482.627 52.6021 489.048 46.9421 485.788 43.0921C482.528 39.2521 468.017 40.1121 459.317 46.6121H459.307Z" fill="#002A41" stroke="#002A41" stroke-width="0.75" stroke-linecap="round" stroke-linejoin="round"/>
</g>
<path d="M495.167 74.1721C495.167 74.1721 497.727 99.6421 503.417 102.712C503.417 102.712 502.508 112.442 485.908 112.442C469.308 112.442 469.307 98.7221 469.307 98.7221L495.167 74.1621V74.1721Z" stroke="#002A41" stroke-width="0.75" stroke-linecap="round" stroke-linejoin="round"/>
<path d="M455.468 46.8722C455.468 46.8722 440.367 45.4122 443.677 33.2222C446.987 21.0322 459.607 19.7122 459.607 19.7122C459.607 19.7122 457.058 28.4522 472.038 26.7322C487.008 25.0122 503.177 23.5522 503.837 38.6522C503.837 38.6522 509.667 53.1022 499.867 67.1422C490.067 81.1822 481.057 69.8121 481.057 69.8121L473.237 53.0922L458.827 50.0422L455.478 46.8622L455.468 46.8722Z" fill="#002A41"/>
<mask id="mask6_4381_35318" style="mask-type:luminance" maskUnits="userSpaceOnUse" x="443" y="19" width="63" height="56">
<path d="M455.468 46.8722C455.468 46.8722 440.367 45.4122 443.677 33.2222C446.987 21.0322 459.607 19.7122 459.607 19.7122C459.607 19.7122 457.058 28.4522 472.038 26.7322C487.008 25.0122 503.177 23.5522 503.837 38.6522C503.837 38.6522 509.667 53.1022 499.867 67.1422C490.067 81.1822 481.057 69.8121 481.057 69.8121L473.237 53.0922L458.827 50.0422L455.478 46.8622L455.468 46.8722Z" fill="white"/>
</mask>
<g mask="url(#mask6_4381_35318)">
<path d="M477.207 38.7022C477.207 38.7022 495.087 40.7722 503.827 38.6522C512.567 36.5322 514.958 60.2521 514.958 60.2521L512.838 74.6922L488.987 78.8022L477.987 69.0021L473.487 55.3522L477.207 38.7022Z" fill="#00121C" stroke="#002A41" stroke-width="0.75" stroke-miterlimit="10"/>
</g>
<path d="M455.468 46.8722C455.468 46.8722 440.367 45.4122 443.677 33.2222C446.987 21.0322 459.607 19.7122 459.607 19.7122C459.607 19.7122 457.058 28.4522 472.038 26.7322C487.008 25.0122 503.177 23.5522 503.837 38.6522C503.837 38.6522 509.667 53.1022 499.867 67.1422C490.067 81.1822 481.057 69.8121 481.057 69.8121L473.237 53.0922L458.827 50.0422L455.478 46.8622L455.468 46.8722Z" stroke="#002A41" stroke-width="0.75" stroke-miterlimit="10"/>
<path d="M453.297 44.9021C453.297 44.9021 449.808 61.0521 450.258 64.3821C450.698 67.7121 449.667 71.2321 450.337 76.6721C451.007 82.1121 453.358 102.472 465.098 100.902C476.658 99.3621 492.558 89.9021 493.978 80.5121C494.088 79.7521 494.778 77.5221 494.778 77.5221C494.778 77.5221 499.607 79.0221 501.427 73.9621C503.247 68.9121 506.228 64.2621 502.598 61.3321C498.808 58.2721 493.818 64.9921 493.068 67.4121C492.318 69.8321 489.647 67.1521 489.647 67.1521C489.647 67.1521 488.177 56.1221 484.237 53.2621C480.287 50.4021 487.897 44.5821 484.177 40.7921C480.467 37.0121 463.558 38.1921 453.288 44.9021H453.297Z" fill="white" stroke="#002A41" stroke-width="0.75" stroke-linecap="round" stroke-linejoin="round"/>
<path d="M459.327 64.1321C459.327 67.1021 453.727 72.2921 454.387 74.9421C454.747 76.4021 458.527 77.1021 459.297 78.3821C459.597 78.8721 459.597 79.6021 459.597 79.6021" fill="white"/>
<path d="M459.327 64.1321C459.327 67.1021 453.727 72.2921 454.387 74.9421C454.747 76.4021 458.527 77.1021 459.297 78.3821C459.597 78.8721 459.597 79.6021 459.597 79.6021" stroke="#002A41" stroke-width="0.75" stroke-linecap="round" stroke-linejoin="round"/>
<path d="M453.978 65.8922C453.898 67.0522 453.367 67.9522 452.787 67.9122C452.217 67.8722 451.817 66.9022 451.897 65.7422C451.977 64.5822 452.507 63.6822 453.087 63.7222C453.657 63.7622 454.058 64.7322 453.978 65.8922Z" fill="#002A41"/>
<path d="M467.027 63.9922C466.937 65.2022 466.388 66.1422 465.788 66.1022C465.188 66.0622 464.767 65.0422 464.857 63.8322C464.947 62.6222 465.498 61.6822 466.098 61.7222C466.698 61.7622 467.117 62.7822 467.027 63.9922Z" fill="#002A41"/>
<path d="M461.117 58.6423C461.117 58.6423 466.107 54.6123 472.737 58.9023" stroke="#002A41" stroke-width="0.75" stroke-linecap="round" stroke-linejoin="round"/>
<path d="M475.327 82.1121C475.327 82.1121 464.308 91.8721 459.598 83.3821Z" fill="white"/>
<path d="M475.327 82.1121C475.327 82.1121 464.308 91.8721 459.598 83.3821" stroke="#002A41" stroke-width="0.75" stroke-linecap="round" stroke-linejoin="round"/>
<path d="M447.767 61.4722C447.767 61.4722 451.088 56.9322 456.698 60.2822" stroke="#002A41" stroke-width="0.75" stroke-linecap="round" stroke-linejoin="round"/>
<path d="M456.967 42.6921C456.967 42.6921 440.667 43.7521 448.837 53.9321C448.837 53.9321 448.657 46.6021 456.967 42.6921Z" fill="#002A41"/>
<path d="M456.967 65.8221C456.967 68.6021 454.987 70.862 452.547 70.862C450.107 70.862 448.128 68.6121 448.128 65.8221C448.128 63.0321 450.107 61.8521 452.547 61.8521C454.987 61.8521 456.967 63.0421 456.967 65.8221Z" stroke="#002A41" stroke-width="0.75" stroke-linecap="round" stroke-linejoin="round"/>
<path d="M472.478 63.9121C472.478 66.6921 470.007 68.9421 466.957 68.9421C463.907 68.9421 461.438 66.6921 461.438 63.9121C461.438 61.1321 463.907 59.9421 466.957 59.9421C470.007 59.9421 472.478 61.1321 472.478 63.9121Z" stroke="#002A41" stroke-width="0.75" stroke-linecap="round" stroke-linejoin="round"/>
<path d="M456.637 63.9121C456.637 62.7021 461.427 62.0821 461.427 63.2821" stroke="#002A41" stroke-width="0.75" stroke-linecap="round" stroke-linejoin="round"/>
<path d="M472.128 61.9521L495.167 63.9121" stroke="#002A41" stroke-width="0.75" stroke-linecap="round" stroke-linejoin="round"/>
<path d="M458.938 196.882C468.568 213.952 492.988 249.802 529.068 251.852" stroke="#002A41" stroke-width="0.75" stroke-linecap="round" stroke-linejoin="round"/>
<path d="M454.337 187.982C454.337 187.982 455.037 189.552 456.417 192.212" stroke="#002A41" stroke-width="0.75" stroke-linecap="round" stroke-linejoin="round"/>
<path d="M507.378 100.422C505.788 100.462 504.167 100.522 502.527 100.602C501.637 108.022 492.968 110.182 484.948 110.182C476.928 110.182 472.688 108.132 472.068 101.132C470.428 101.102 468.807 101.082 467.217 101.082C467.857 110.992 474.388 114.902 484.948 114.902C495.508 114.902 506.718 110.822 507.378 100.432V100.422Z" fill="#42D8BC" stroke="#002A41" stroke-miterlimit="10"/>
<path d="M410.577 173.892C410.577 173.892 410.128 161.542 411.898 160.952C413.668 160.362 413.658 167.712 418.368 167.422" stroke="#002A41" stroke-width="0.75" stroke-linecap="round" stroke-linejoin="round"/>
<path d="M353.527 73.1134L236.075 69.094C233.636 69.0106 231.59 70.9206 231.507 73.3603L231.189 82.6548C231.105 85.0945 233.015 87.1399 235.455 87.2234L352.906 91.2428C355.346 91.3263 357.391 89.4163 357.475 86.9766L357.793 77.682C357.876 75.2423 355.966 73.1969 353.527 73.1134Z" fill="white" stroke="#002A41" stroke-width="0.75" stroke-linecap="round" stroke-linejoin="round"/>
<path d="M225.207 75.3123H222.337" stroke="#002A41" stroke-width="0.75" stroke-linecap="round" stroke-linejoin="round"/>
<path d="M376.277 169.972L372.927 155.482L366.337 130.792L359.397 123.352L350.207 116.402C350.207 116.402 340.047 112.112 339.707 114.322C339.367 116.532 341.237 117.212 341.237 117.212C341.237 117.212 338.347 116.192 337.667 117.982C336.987 119.772 341.667 121.042 344.297 123.342C346.937 125.642 348.557 127.612 348.557 127.612C348.557 127.612 344.867 132.202 345.347 134.702L345.657 135.842C345.657 135.842 338.297 131.842 337.597 135.072C336.897 138.312 341.937 138.962 344.817 142.082C347.697 145.202 350.387 147.182 350.387 147.182C350.387 147.182 353.237 154.382 359.397 156.932L359.777 172.752C359.777 172.752 369.217 174.662 376.277 169.962V169.972Z" fill="white" stroke="#002A41" stroke-width="0.75" stroke-linecap="round" stroke-linejoin="round"/>
<path d="M341.997 118.062C341.997 118.062 346.628 121.212 348.908 122.142C348.908 122.142 353.208 126.662 354.758 128.272C356.298 129.882 358.417 134.072 358.417 134.072" fill="white"/>
<path d="M341.997 118.062C341.997 118.062 346.628 121.212 348.908 122.142C348.908 122.142 353.208 126.662 354.758 128.272C356.298 129.882 358.417 134.072 358.417 134.072" stroke="#002A41" stroke-width="0.75" stroke-linecap="round" stroke-linejoin="round"/>
<path d="M349.568 128.612C349.568 128.612 351.607 132.042 352.967 133.642C354.327 135.242 354.177 136.182 353.237 137.282" stroke="#002A41" stroke-width="0.75" stroke-linecap="round" stroke-linejoin="round"/>
<path d="M347.357 136.842C347.357 136.842 348.628 137.732 349.568 138.822C350.508 139.922 352.907 140.692 354.297 139.712C355.687 138.732 359.437 136.072 358.927 135.072" stroke="#002A41" stroke-width="0.75" stroke-linecap="round" stroke-linejoin="round"/>
<path d="M350.198 132.052C350.198 132.052 350.198 133.552 349.228 134.072C348.268 134.602 350.658 133.492 351.628 134.412" stroke="#002A41" stroke-width="0.75" stroke-linecap="round" stroke-linejoin="round"/>
<path d="M440.217 212.712C440.217 212.712 431.877 207.422 419.997 211.722C419.997 211.722 407.527 212.142 389.237 215.192C389.237 215.192 390.588 211.622 385.758 212.432C385.758 212.432 383.957 175.222 377.827 162.672C377.827 162.672 377.097 166.262 355.717 167.152C355.717 167.152 354.197 233.682 362.017 243.442C369.837 253.192 435.408 245.622 435.408 245.622C435.408 245.622 447.108 224.112 440.228 212.712H440.217Z" fill="#002A41"/>
<mask id="mask7_4381_35318" style="mask-type:luminance" maskUnits="userSpaceOnUse" x="355" y="162" width="88" height="87">
<path d="M440.217 212.712C440.217 212.712 431.877 207.422 419.997 211.722C419.997 211.722 407.527 212.142 389.237 215.192C389.237 215.192 390.588 211.622 385.758 212.432C385.758 212.432 383.957 175.222 377.827 162.672C377.827 162.672 377.097 166.262 355.717 167.152C355.717 167.152 354.197 233.682 362.017 243.442C369.837 253.192 435.408 245.622 435.408 245.622C435.408 245.622 447.108 224.112 440.228 212.712H440.217Z" fill="white"/>
</mask>
<g mask="url(#mask7_4381_35318)">
<path opacity="0.2" d="M355.587 230.172C355.587 230.172 365.247 245.152 381.927 243.442C398.607 241.732 436.567 226.072 437.938 240.182C439.298 254.302 421.177 251.642 421.177 251.642L376.857 258.472C376.857 258.472 372.207 266.502 358.047 254.302L343.887 242.102L355.598 230.172H355.587Z" fill="black"/>
</g>
<path d="M440.217 212.712C440.217 212.712 431.877 207.422 419.997 211.722C419.997 211.722 407.527 212.142 389.237 215.192C389.237 215.192 390.588 211.622 385.758 212.432C385.758 212.432 383.957 175.222 377.827 162.672C377.827 162.672 377.097 166.262 355.717 167.152C355.717 167.152 354.197 233.682 362.017 243.442C369.837 253.192 435.408 245.622 435.408 245.622C435.408 245.622 447.108 224.112 440.228 212.712H440.217Z" stroke="#002A41" stroke-width="0.75" stroke-linecap="round" stroke-linejoin="round"/>
<path d="M435.008 327.532C435.008 327.532 436.948 289.812 435.008 260.962C433.068 232.112 418.088 221.852 435.008 213.252C451.928 204.652 507.677 206.872 525.157 215.472C542.627 224.072 531.537 263.732 532.367 281.212C533.197 298.692 536.247 327.532 536.247 327.532H435.008Z" fill="#002A41"/>
<mask id="mask8_4381_35318" style="mask-type:luminance" maskUnits="userSpaceOnUse" x="427" y="207" width="110" height="121">
<path d="M435.008 327.532C435.008 327.532 436.948 289.812 435.008 260.962C433.068 232.112 418.088 221.852 435.008 213.252C451.928 204.652 507.677 206.872 525.157 215.472C542.627 224.072 531.537 263.732 532.367 281.212C533.197 298.692 536.247 327.532 536.247 327.532H435.008Z" fill="white"/>
</mask>
<g mask="url(#mask8_4381_35318)">
<path opacity="0.2" d="M477.628 269.742C477.628 269.742 466.038 261.702 459.688 271.682C453.338 281.662 487.738 331.462 493.658 331.712C499.578 331.962 527.928 331.712 527.928 331.712L543.198 298.052C543.198 298.052 536.558 227.302 523.988 226.002C511.418 224.702 502.908 251.812 501.058 267.662C499.208 283.512 500.928 289.902 500.928 289.902L477.628 269.732V269.742Z" fill="black"/>
</g>
<path d="M435.008 327.532C435.008 327.532 436.948 289.812 435.008 260.962C433.068 232.112 418.088 221.852 435.008 213.252C451.928 204.652 507.677 206.872 525.157 215.472C542.627 224.072 531.537 263.732 532.367 281.212C533.197 298.692 536.247 327.532 536.247 327.532H435.008Z" stroke="#002A41" stroke-width="0.75" stroke-linecap="round" stroke-linejoin="round"/>
<path d="M469.397 291.852C469.397 292.922 468.527 293.792 467.457 293.792C466.387 293.792 465.517 292.922 465.517 291.852C465.517 290.782 466.387 289.912 467.457 289.912C468.527 289.912 469.397 290.782 469.397 291.852Z" fill="#00121C"/>
<path d="M469.397 313.952C469.397 315.022 468.527 315.892 467.457 315.892C466.387 315.892 465.517 315.022 465.517 313.952C465.517 312.882 466.387 312.012 467.457 312.012C468.527 312.012 469.397 312.882 469.397 313.952Z" fill="#00121C"/>
<path d="M470.607 243.432C473.957 243.432 476.337 250.272 479.517 250.232C482.697 250.182 490.758 228.072 494.278 221.862C497.788 215.652 496.197 208.002 490.917 206.592C485.637 205.182 454.688 206.592 454.688 206.592C454.688 206.592 450.818 212.142 453.778 218.792C456.738 225.452 457.848 247.272 462.098 248.012C466.348 248.752 466.347 243.432 470.607 243.432Z" fill="#00121C" stroke="#002A41" stroke-linecap="round" stroke-linejoin="round"/>
<path d="M363.207 177.882C362.837 178.892 361.728 179.412 360.718 179.042C359.708 178.672 359.187 177.562 359.557 176.552C359.927 175.542 361.037 175.022 362.047 175.392C363.057 175.762 363.577 176.872 363.207 177.882Z" fill="#00121C"/>
<path d="M363.207 186.552C362.837 187.562 361.728 188.082 360.718 187.712C359.708 187.342 359.187 186.232 359.557 185.222C359.927 184.212 361.037 183.692 362.047 184.062C363.057 184.432 363.577 185.542 363.207 186.552Z" fill="#00121C"/>
<path d="M453.777 213.432C453.777 213.432 466.537 242.212 471.717 241.352C476.897 240.502 480.597 228.682 485.767 222.812C490.947 216.942 491.457 211.742 491.107 208.522L489.647 193.832L477.997 192.542L461.357 204.742L453.777 213.432Z" fill="white"/>
<mask id="mask9_4381_35318" style="mask-type:luminance" maskUnits="userSpaceOnUse" x="453" y="192" width="39" height="50">
<path d="M453.777 213.432C453.777 213.432 466.537 242.212 471.717 241.352C476.897 240.502 480.597 228.682 485.767 222.812C490.947 216.942 491.457 211.742 491.107 208.522L489.647 193.832L477.997 192.542L461.357 204.742L453.777 213.432Z" fill="white"/>
</mask>
<g mask="url(#mask9_4381_35318)">
<path d="M440.718 166.452C440.718 166.452 439.437 183.352 440.357 186.672C441.277 189.992 440.717 193.722 442.167 199.152C443.617 204.582 448.858 224.942 460.568 221.712C472.098 218.522 488.967 205.402 487.987 195.712L487.457 193.792C487.457 193.792 492.578 194.632 493.718 189.242C494.858 183.852 497.237 178.712 493.137 176.242C488.847 173.662 484.727 181.202 484.307 183.762C483.887 186.322 480.797 183.982 480.797 183.982C480.797 183.982 477.758 172.972 473.348 170.622C468.938 168.272 475.848 161.282 471.538 157.962C467.238 154.642 450.218 158.212 440.718 166.472V166.452Z" fill="#002A41" stroke="#002A41" stroke-width="0.75" stroke-linecap="round" stroke-linejoin="round"/>
</g>
<path d="M453.777 213.432C453.777 213.432 466.537 242.212 471.717 241.352C476.897 240.502 480.597 228.682 485.767 222.812C490.947 216.942 491.457 211.742 491.107 208.522L489.647 193.832L477.997 192.542L461.357 204.742L453.777 213.432Z" stroke="#002A41" stroke-width="0.75" stroke-linecap="round" stroke-linejoin="round"/>
<path d="M447.978 156.662C447.978 156.662 442.127 172.932 442.127 176.452C442.127 179.972 440.567 183.482 440.517 189.212C440.467 194.942 440.097 216.392 452.487 216.392C464.877 216.392 484.847 208.072 486.517 198.272V196.242C486.517 196.242 491.327 198.462 493.917 193.472C496.507 188.482 500.237 184.072 496.877 180.532C493.367 176.832 487.257 183.122 486.147 185.522C485.037 187.922 482.637 184.782 482.637 184.782C482.637 184.782 482.637 173.132 478.937 169.622C475.237 166.112 483.927 161.112 480.597 156.682C477.267 152.242 459.568 151.132 447.978 156.682V156.662Z" fill="white" stroke="#002A41" stroke-width="0.75" stroke-linecap="round" stroke-linejoin="round"/>
<path d="M494.087 184.652C494.087 184.652 501.117 174.792 496.307 163.142C496.307 163.142 492.428 143.542 468.568 141.502C468.568 141.502 474.668 136.882 470.788 135.032C464.908 132.232 454.568 141.692 454.568 141.692C454.568 141.692 459.417 134.362 457.057 134.232C454.697 134.102 438.108 152.792 447.978 159.442C457.848 166.092 472.487 160.362 472.487 160.362L479.667 184.652L480.777 187.732L491.198 188.472L494.087 184.652Z" fill="#002A41" stroke="#002A41" stroke-width="0.75" stroke-linecap="round" stroke-linejoin="round"/>
<path d="M447.978 156.662C447.978 156.662 442.127 172.932 442.127 176.452C442.127 179.972 440.567 183.482 440.517 189.212C440.467 194.942 440.097 216.392 452.487 216.392C464.877 216.392 484.847 208.072 486.517 198.272V196.242C486.517 196.242 491.327 198.462 493.917 193.472C496.507 188.482 500.237 184.072 496.877 180.532C493.367 176.832 487.257 183.122 486.147 185.522C485.037 187.922 482.637 184.782 482.637 184.782C482.637 184.782 482.637 173.132 478.937 169.622C475.237 166.112 483.927 161.112 480.597 156.682C477.267 152.242 459.568 151.132 447.978 156.682V156.662Z" fill="white" stroke="#002A41" stroke-width="0.75" stroke-linecap="round" stroke-linejoin="round"/>
<path d="M453.778 177.742C453.778 177.742 446.988 184.332 447.308 187.172C447.488 188.732 451.297 189.992 451.927 191.422C452.167 191.972 451.927 193.822 451.927 193.822" fill="white"/>
<path d="M453.778 177.742C453.778 177.742 446.988 184.332 447.308 187.172C447.488 188.732 451.297 189.992 451.927 191.422C452.167 191.972 451.927 193.822 451.927 193.822" stroke="#002A41" stroke-width="0.75" stroke-linecap="round" stroke-linejoin="round"/>
<path d="M448.757 178.262C448.327 179.572 447.267 180.402 446.397 180.112C445.527 179.822 445.177 178.532 445.607 177.222C446.037 175.912 447.097 175.082 447.967 175.372C448.837 175.662 449.187 176.952 448.757 178.262Z" fill="#002A41"/>
<path d="M465.527 178.262C465.097 179.572 464.037 180.402 463.167 180.112C462.297 179.822 461.947 178.532 462.377 177.222C462.807 175.912 463.867 175.082 464.737 175.372C465.607 175.662 465.957 176.952 465.527 178.262Z" fill="#002A41"/>
<path d="M459.698 172.732C459.698 172.732 465.427 169.242 471.717 174.602Z" fill="white"/>
<path d="M459.698 172.732C459.698 172.732 465.427 169.242 471.717 174.602" stroke="#002A41" stroke-width="0.75" stroke-linecap="round" stroke-linejoin="round"/>
<path d="M447.978 195.312C447.978 195.312 456.927 198.452 465.707 196.232C465.707 196.232 451.978 205.482 447.978 195.312Z" fill="white" stroke="#002A41" stroke-width="0.75" stroke-linecap="round" stroke-linejoin="round"/>
<path d="M444.348 173.672C444.348 173.672 448.417 169.422 453.777 173.672Z" fill="white"/>
<path d="M444.348 173.672C444.348 173.672 448.417 169.422 453.777 173.672" stroke="#002A41" stroke-width="0.75" stroke-linecap="round" stroke-linejoin="round"/>
<path d="M479.557 217.982C477.837 223.082 475.237 229.952 472.487 234.202Z" fill="white"/>
<path d="M479.557 217.982C477.837 223.082 475.237 229.952 472.487 234.202" stroke="#002A41" stroke-width="0.75" stroke-linecap="round" stroke-linejoin="round"/>
<path d="M481.647 211.302C481.647 211.302 481.257 212.692 480.577 214.842Z" fill="white"/>
<path d="M481.647 211.302C481.647 211.302 481.257 212.692 480.577 214.842" stroke="#002A41" stroke-width="0.75" stroke-linecap="round" stroke-linejoin="round"/>
<path d="M476.497 254.962L470.717 247.982C470.717 247.982 463.737 237.772 461.017 229.782C458.297 221.782 457.957 217.532 453.697 217.532C449.437 217.532 434.477 216.512 434.987 221.612C434.987 221.612 433.767 224.672 434.977 227.392C434.977 227.392 435.327 230.962 437.367 233.852C439.407 236.742 440.597 236.192 440.597 236.192C440.597 236.192 441.957 238.442 443.317 238.442C443.317 238.442 444.507 244.562 453.697 249.842L460.157 256.822L466.967 269.412L479.677 259.292L476.497 254.952V254.962Z" fill="white" stroke="#002A41" stroke-width="0.75" stroke-linecap="round" stroke-linejoin="round"/>
<path d="M455.398 224.462C455.398 224.462 452.847 225.612 450.677 226.122C448.507 226.632 441.108 227.782 440.598 229.952C440.088 232.122 443.018 237.612 444.558 237.862C446.088 238.122 451.577 237.862 451.827 236.712C451.827 236.712 452.087 238.242 451.827 239.772C451.567 241.302 450.428 243.732 452.338 247.682" fill="white"/>
<path d="M455.398 224.462C455.398 224.462 452.847 225.612 450.677 226.122C448.507 226.632 441.108 227.782 440.598 229.952C440.088 232.122 443.018 237.612 444.558 237.862C446.088 238.122 451.577 237.862 451.827 236.712C451.827 236.712 452.087 238.242 451.827 239.772C451.567 241.302 450.428 243.732 452.338 247.682" stroke="#002A41" stroke-width="0.75" stroke-linecap="round" stroke-linejoin="round"/>
<path d="M434.967 227.402C434.967 227.402 435.997 225.742 437.917 225.362C439.827 224.982 447.488 223.062 448.698 222.172" fill="white"/>
<path d="M434.967 227.402C434.967 227.402 435.997 225.742 437.917 225.362C439.827 224.982 447.488 223.062 448.698 222.172" stroke="#002A41" stroke-width="0.75" stroke-linecap="round" stroke-linejoin="round"/>
<path d="M434.987 221.612C434.987 221.612 436.387 220.892 437.917 220.632C439.447 220.372 447.298 218.142 449.948 218.432" fill="white"/>
<path d="M434.987 221.612C434.987 221.612 436.387 220.892 437.917 220.632C439.447 220.372 447.298 218.142 449.948 218.432" stroke="#002A41" stroke-width="0.75" stroke-linecap="round" stroke-linejoin="round"/>
<path d="M450.807 234.902C450.807 234.902 448.957 233.432 447.967 233.862C446.977 234.292 446.637 235.392 445.357 236.072" fill="white"/>
<path d="M450.807 234.902C450.807 234.902 448.957 233.432 447.967 233.862C446.977 234.292 446.637 235.392 445.357 236.072" stroke="#002A41" stroke-width="0.75" stroke-linecap="round" stroke-linejoin="round"/>
<path d="M447.967 233.862C447.967 233.862 450.977 233.012 452.337 231.652Z" fill="white"/>
<path d="M447.967 233.862C447.967 233.862 450.977 233.012 452.337 231.652" stroke="#002A41" stroke-width="0.75" stroke-linecap="round" stroke-linejoin="round"/>
<path d="M528.758 217.132C519.248 211.922 506.288 231.002 506.008 254.022C505.728 277.042 505.457 281.202 505.457 281.202L476.887 250.412C476.887 250.412 474.947 258.452 461.357 264.832C461.357 264.832 467.457 282.862 479.107 300.332C490.757 317.802 502.127 333.342 509.337 333.342C516.547 333.342 529.957 316.412 534.857 294.232C545.397 246.522 548.498 227.942 528.758 217.122V217.132Z" fill="#002A41" stroke="#002A41" stroke-width="0.75" stroke-linecap="round" stroke-linejoin="round"/>
<path d="M471.348 271.682C471.348 272.752 470.478 273.622 469.408 273.622C468.338 273.622 467.467 272.752 467.467 271.682C467.467 270.612 468.338 269.742 469.408 269.742C470.478 269.742 471.348 270.612 471.348 271.682Z" fill="#00121C"/>
<path d="M475.228 279.492C475.228 280.562 474.358 281.432 473.288 281.432C472.218 281.432 471.348 280.562 471.348 279.492C471.348 278.422 472.218 277.552 473.288 277.552C474.358 277.552 475.228 278.422 475.228 279.492Z" fill="#00121C"/>
<path d="M475.948 332.512H431.487V328.442H476.318C477.048 328.442 477.637 329.032 477.637 329.762V330.832C477.637 331.762 476.887 332.512 475.957 332.512H475.948Z" fill="#42D8BC" stroke="#002A41" stroke-linecap="round" stroke-linejoin="round"/>
<path d="M409.887 261.132H415.517C417.287 261.132 418.848 262.302 419.348 264.002L437.777 327.412C438.517 329.962 436.608 332.512 433.948 332.512H429.068L409.887 261.132Z" fill="#002A41" stroke="#002A41" stroke-width="0.75" stroke-linecap="round" stroke-linejoin="round"/>
<path d="M350.277 332.512H431.997C434.647 332.512 436.567 329.962 435.827 327.412L417.397 264.002C416.907 262.302 415.348 261.132 413.568 261.132H331.837C329.187 261.132 327.268 263.682 328.008 266.232L346.437 329.642C346.927 331.342 348.487 332.512 350.267 332.512H350.277Z" fill="#42D8BC" stroke="#002A41" stroke-width="0.75" stroke-linecap="round" stroke-linejoin="round"/>
<path d="M339.507 116.602H221.987C219.546 116.602 217.567 118.581 217.567 121.022V130.322C217.567 132.763 219.546 134.742 221.987 134.742H339.507C341.949 134.742 343.927 132.763 343.927 130.322V121.022C343.927 118.581 341.949 116.602 339.507 116.602Z" fill="white"/>
<mask id="mask10_4381_35318" style="mask-type:luminance" maskUnits="userSpaceOnUse" x="217" y="116" width="127" height="19">
<path d="M339.507 116.602H221.987C219.546 116.602 217.567 118.581 217.567 121.022V130.322C217.567 132.763 219.546 134.742 221.987 134.742H339.507C341.949 134.742 343.927 132.763 343.927 130.322V121.022C343.927 118.581 341.949 116.602 339.507 116.602Z" fill="white"/>
</mask>
<g mask="url(#mask10_4381_35318)">
<path opacity="0.5" d="M339.507 116.602H221.987C219.546 116.602 217.567 118.581 217.567 121.022V130.322C217.567 132.763 219.546 134.742 221.987 134.742H339.507C341.949 134.742 343.927 132.763 343.927 130.322V121.022C343.927 118.581 341.949 116.602 339.507 116.602Z" fill="white"/>
</g>
<path d="M339.507 116.602H221.987C219.546 116.602 217.567 118.581 217.567 121.022V130.322C217.567 132.763 219.546 134.742 221.987 134.742H339.507C341.949 134.742 343.927 132.763 343.927 130.322V121.022C343.927 118.581 341.949 116.602 339.507 116.602Z" stroke="#002A41" stroke-width="0.75" stroke-linecap="round" stroke-linejoin="round"/>
<path d="M331.433 32.0069L215.25 49.6817C212.837 50.0488 211.178 52.3028 211.545 54.7162L212.944 63.9104C213.311 66.3237 215.565 67.9825 217.978 67.6153L334.162 49.9406C336.575 49.5734 338.234 47.3194 337.867 44.9061L336.468 35.7119C336.101 33.2985 333.847 31.6397 331.433 32.0069Z" fill="white" stroke="#002A41" stroke-width="0.75" stroke-linecap="round" stroke-linejoin="round"/>
<path d="M43.8174 115.422C43.8174 115.422 33.5574 120.492 31.2274 130.692C31.2274 130.692 28.3174 127.782 27.1474 140.302C27.1474 140.302 1.22741 188.362 0.937411 209.032C0.647411 229.712 49.5774 263.202 49.5774 263.202C49.5774 263.202 54.8174 256.212 53.6574 249.802C53.6574 249.802 34.7274 213.982 25.1174 209.612C25.1174 209.612 35.8974 183.402 43.1774 178.452C50.4574 173.502 43.8274 115.422 43.8274 115.422H43.8174Z" fill="#002A41"/>
<mask id="mask11_4381_35318" style="mask-type:luminance" maskUnits="userSpaceOnUse" x="0" y="115" width="54" height="149">
<path d="M43.8174 115.422C43.8174 115.422 33.5574 120.492 31.2274 130.692C31.2274 130.692 28.3174 127.782 27.1474 140.302C27.1474 140.302 1.22741 188.362 0.937411 209.032C0.647411 229.712 49.5774 263.202 49.5774 263.202C49.5774 263.202 54.8174 256.212 53.6574 249.802C53.6574 249.802 34.7274 213.982 25.1174 209.612C25.1174 209.612 35.8974 183.402 43.1774 178.452C50.4574 173.502 43.8274 115.422 43.8274 115.422H43.8174Z" fill="white"/>
</mask>
<g mask="url(#mask11_4381_35318)">
<path opacity="0.2" d="M42.7874 187.432C42.7874 187.432 31.3874 154.662 27.3774 161.912C23.3674 169.162 13.0074 206.342 18.9274 211.792C24.8474 217.242 15.2274 217.542 19.6674 224.792C24.1074 232.032 52.9574 259.152 55.9074 258.352C58.8674 257.552 45.1974 211.792 45.1974 211.792L42.7874 187.432Z" fill="black"/>
</g>
<path d="M43.8174 115.422C43.8174 115.422 33.5574 120.492 31.2274 130.692C31.2274 130.692 28.3174 127.782 27.1474 140.302C27.1474 140.302 1.22741 188.362 0.937411 209.032C0.647411 229.712 49.5774 263.202 49.5774 263.202C49.5774 263.202 54.8174 256.212 53.6574 249.802C53.6574 249.802 34.7274 213.982 25.1174 209.612C25.1174 209.612 35.8974 183.402 43.1774 178.452C50.4574 173.502 43.8274 115.422 43.8274 115.422H43.8174Z" stroke="#002A41" stroke-width="0.75" stroke-linecap="round" stroke-linejoin="round"/>
<path d="M131.997 270.192C131.997 270.192 144.227 308.552 146.557 327.522H46.9474C46.9474 327.522 46.0674 282.512 49.8574 268.152L131.987 270.192H131.997Z" fill="#42D8BC" stroke="#002A41" stroke-width="0.75" stroke-linecap="round" stroke-linejoin="round"/>
<path d="M90.1074 317.372C92.3474 319.412 96.7074 327.522 96.7074 327.522" stroke="#002A41" stroke-width="0.75" stroke-linecap="round" stroke-linejoin="round"/>
<path d="M69.0874 291.452C69.0874 291.452 76.9474 303.752 86.0174 313.332" stroke="#002A41" stroke-width="0.75" stroke-linecap="round" stroke-linejoin="round"/>
<path d="M96.1674 39.5221C96.1674 39.5221 103.737 32.7221 101.987 28.4521C99.7074 22.8821 93.8374 31.1721 93.8374 31.1721C93.8374 31.1721 96.1674 22.6321 91.1874 20.4921C85.8574 18.2021 81.4074 28.2621 81.4074 28.2621C81.4074 28.2621 80.0274 19.6321 72.4774 21.4621C66.0674 23.0121 71.3074 30.2021 66.0674 32.5321C60.8274 34.8621 43.5474 40.8821 46.8474 52.5321C46.8474 52.5321 42.1874 43.4021 40.4374 47.0921C38.6874 50.7821 44.7074 55.8321 47.0374 56.4121C47.0374 56.4121 43.3474 64.1821 46.2574 66.3121C49.1674 68.4521 48.5874 60.6821 48.5874 60.6821C48.5874 60.6821 50.4874 82.0821 71.1074 93.3021C91.7274 104.522 91.1774 67.2821 91.1774 67.2821L96.3474 50.5821L96.1574 39.5121L96.1674 39.5221Z" fill="#002A41" stroke="#002A41" stroke-width="0.75" stroke-linecap="round" stroke-linejoin="round"/>
<path d="M47.8274 270.772C47.8274 270.772 47.2474 249.802 44.3374 217.182C41.4274 184.562 25.1174 119.322 47.8274 113.502C70.5474 107.672 115.867 104.012 131.127 118.742C148.017 135.052 135.207 225.922 134.627 241.652C134.047 257.382 136.957 275.432 136.957 275.432C136.957 275.432 76.6674 288.542 47.8374 270.772H47.8274Z" fill="#002A41"/>
<mask id="mask12_4381_35318" style="mask-type:luminance" maskUnits="userSpaceOnUse" x="35" y="108" width="105" height="173">
<path d="M47.8274 270.772C47.8274 270.772 47.2474 249.802 44.3374 217.182C41.4274 184.562 25.1174 119.322 47.8274 113.502C70.5474 107.672 115.867 104.012 131.127 118.742C148.017 135.052 135.207 225.922 134.627 241.652C134.047 257.382 136.957 275.432 136.957 275.432C136.957 275.432 76.6674 288.542 47.8374 270.772H47.8274Z" fill="white"/>
</mask>
<g mask="url(#mask12_4381_35318)">
<path opacity="0.2" d="M39.3774 207.392C39.3774 207.392 30.6374 150.552 60.6574 147.292C90.6774 144.022 130.237 145.402 134.397 170.472C138.557 195.552 147.727 255.572 147.727 255.572L153.937 282.702L105.237 291.942L40.1374 284.962L39.3774 207.392Z" fill="black"/>
</g>
<path d="M47.8274 270.772C47.8274 270.772 47.2474 249.802 44.3374 217.182C41.4274 184.562 25.1174 119.322 47.8274 113.502C70.5474 107.672 115.867 104.012 131.127 118.742C148.017 135.052 135.207 225.922 134.627 241.652C134.047 257.382 136.957 275.432 136.957 275.432C136.957 275.432 76.6674 288.542 47.8374 270.772H47.8274Z" stroke="#002A41" stroke-width="0.75" stroke-linecap="round" stroke-linejoin="round"/>
<path d="M95.1974 104.762V98.1621C95.1974 98.1621 106.477 99.9121 108.017 96.9921C109.557 94.0821 107.037 82.0421 107.037 82.0421C107.037 82.0421 112.477 82.2321 112.477 79.7121C112.477 77.1921 106.067 66.5121 106.067 66.5121C106.067 66.5121 106.847 57.9721 106.067 55.2521C105.287 52.5321 97.3274 37.1921 97.3274 37.1921C97.3274 37.1921 85.6774 43.5921 86.0674 47.0921C86.4574 50.5921 89.7574 53.8921 87.0374 56.8021C84.3174 59.7121 80.6274 67.5721 81.7974 71.3121L80.0474 72.5321C80.0474 72.5321 79.0774 65.5421 75.1974 64.3721C71.3174 63.2121 68.2074 70.9721 70.9274 76.4121C73.6474 81.8521 76.7474 80.8821 76.7474 80.8821C76.7474 80.8821 75.1974 90.2021 71.1174 93.3121L69.8974 103.022L95.1974 104.772V104.762Z" fill="white" stroke="#002A41" stroke-width="0.75" stroke-linecap="round" stroke-linejoin="round"/>
<path d="M102.677 66.7022C103.373 66.7022 103.937 65.6591 103.937 64.3722C103.937 63.0854 103.373 62.0422 102.677 62.0422C101.982 62.0422 101.417 63.0854 101.417 64.3722C101.417 65.6591 101.982 66.7022 102.677 66.7022Z" fill="#002A41"/>
<path d="M94.0374 80.3022C94.0374 80.3022 94.9474 82.8222 102.257 83.2122" stroke="#002A41" stroke-width="0.75" stroke-linecap="round" stroke-linejoin="round"/>
<path d="M102.677 57.7822C102.677 57.7822 98.6974 57.1923 97.3374 61.2623" stroke="#002A41" stroke-width="0.75" stroke-linecap="round" stroke-linejoin="round"/>
<path d="M62.1974 113.942C62.1974 113.942 54.4274 103.412 62.1974 102.242C69.9674 101.082 101.807 98.3622 106.857 102.242C111.907 106.122 99.0874 104.962 98.3174 111.562C97.5374 118.162 62.2074 113.942 62.2074 113.942H62.1974Z" fill="#002A41" stroke="#002A41" stroke-width="0.75" stroke-linecap="round" stroke-linejoin="round"/>
<path d="M110.117 66.2922C110.117 70.0322 109.027 73.0722 107.677 73.0722C106.327 73.0722 105.237 70.0322 105.237 66.2922C105.237 62.5522 106.327 59.5122 107.677 59.5122C109.027 59.5122 110.117 62.5522 110.117 66.2922Z" stroke="#002A41" stroke-width="0.75" stroke-linecap="round" stroke-linejoin="round"/>
<path d="M109.577 62.0422L82.7374 64.0022C80.8074 64.1422 78.9874 64.8622 77.5074 66.0222" stroke="#002A41" stroke-linecap="round" stroke-linejoin="round"/>
<path d="M190.557 87.8221L196.897 73.7021C196.897 73.7021 200.597 58.3921 203.527 55.0521C206.457 51.7121 211.217 45.7021 212.727 47.3721C213.827 48.5721 212.457 52.6721 210.047 55.8221C207.427 59.2421 209.557 62.4521 210.517 63.8021C211.477 65.1521 217.177 67.9821 221.647 68.5621C226.107 69.1421 235.007 63.5021 238.057 65.4821C241.107 67.4621 234.877 69.6421 234.877 69.6421C234.877 69.6421 239.687 69.0021 240.697 71.7021C241.297 73.3021 236.347 73.2721 233.947 73.5121C231.537 73.7621 226.637 74.4721 226.637 74.4721C226.637 74.4721 235.427 75.5921 235.307 77.9921C235.197 80.3921 228.727 78.1421 223.797 78.3321C223.797 78.3321 230.857 80.1521 230.457 82.4621C230.067 84.7821 226.337 82.3421 220.417 81.3221L206.747 79.5921L202.437 95.5321L190.557 87.8221Z" fill="white" stroke="#002A41" stroke-width="0.75" stroke-linecap="round" stroke-linejoin="round"/>
<path d="M231.307 70.4722C231.307 70.4722 227.157 73.3122 221.037 71.7822C221.037 71.7822 221.617 73.6722 221.037 74.4722C220.457 75.2722 220.527 76.8722 219.067 77.8922C217.607 78.9122 216.737 79.3522 216.737 79.3522" stroke="#002A41" stroke-width="0.75" stroke-linecap="round" stroke-linejoin="round"/>
<path d="M110.117 109.912C110.117 109.912 131.627 110.002 139.817 116.702C139.817 116.702 139.857 113.212 146.267 116.702C146.267 116.702 165.777 114.372 174.807 116.702C174.807 116.702 185.877 89.322 192.577 82.042C192.577 82.042 202.187 82.622 204.807 86.992C206.057 89.072 203.107 100.492 200.367 112.122C197.337 124.962 194.297 138.062 191.707 139.132C186.757 141.172 134.627 145.832 134.627 145.832L110.127 133.022V109.922L110.117 109.912Z" fill="#002A41"/>
<mask id="mask13_4381_35318" style="mask-type:luminance" maskUnits="userSpaceOnUse" x="110" y="82" width="96" height="64">
<path d="M110.117 109.912C110.117 109.912 131.627 110.002 139.817 116.702C139.817 116.702 139.857 113.212 146.267 116.702C146.267 116.702 165.777 114.372 174.807 116.702C174.807 116.702 185.877 89.322 192.577 82.042C192.577 82.042 202.187 82.622 204.807 86.992C206.057 89.072 203.107 100.492 200.367 112.122C197.337 124.962 194.297 138.062 191.707 139.132C186.757 141.172 134.627 145.832 134.627 145.832L110.127 133.022V109.922L110.117 109.912Z" fill="white"/>
</mask>
<g mask="url(#mask13_4381_35318)">
<path opacity="0.2" d="M139.817 148.182C139.817 148.182 134.947 130.772 142.767 132.402C150.587 134.032 181.647 137.212 187.377 132.292C193.117 127.372 196.767 85.6419 204.187 87.6419C211.607 89.6419 206.457 126.152 206.457 126.152C206.457 126.152 211.097 136.252 196.557 144.012L182.017 151.782L156.317 154.002L139.807 148.182H139.817Z" fill="black"/>
</g>
<path d="M110.117 109.912C110.117 109.912 131.627 110.002 139.817 116.702C139.817 116.702 139.857 113.212 146.267 116.702C146.267 116.702 165.777 114.372 174.807 116.702C174.807 116.702 185.877 89.322 192.577 82.042C192.577 82.042 202.187 82.622 204.807 86.992C206.057 89.072 203.107 100.492 200.367 112.122C197.337 124.962 194.297 138.062 191.707 139.132C186.757 141.172 134.627 145.832 134.627 145.832L110.127 133.022V109.922L110.117 109.912Z" stroke="#002A41" stroke-width="0.75" stroke-linecap="round" stroke-linejoin="round"/>
<path d="M114.307 166.082C114.307 166.082 91.1875 172.752 92.1175 189.942C93.0475 207.132 97.4775 206.152 87.6775 211.822C77.8775 217.492 87.1275 228.222 84.3475 233.022C81.5775 237.832 64.0075 251.142 71.5875 257.982C79.1675 264.822 117.267 251.142 130.577 257.982C143.887 264.822 154.397 250.312 157.937 246.542C161.477 242.782 151.107 237.452 151.477 229.872C151.847 222.292 158.507 180.402 149.997 174.812C141.487 169.222 121.657 163.002 114.307 166.062V166.082Z" fill="#002A41" stroke="#002A41" stroke-width="0.75" stroke-linecap="round" stroke-linejoin="round"/>
<path d="M196.567 193.832L200.807 178.442C200.807 178.442 202.467 167.902 203.857 165.822C205.247 163.742 208.847 160.832 208.847 160.832C208.847 160.832 211.447 157.222 213.267 155.702C215.087 154.172 225.767 148.632 226.597 149.042C227.427 149.462 228.747 151.952 221.817 155.842C221.817 155.842 225.627 155.562 228.687 156.812C231.737 158.062 233.817 158.402 232.497 159.722C231.177 161.042 230.067 161.662 225.147 160.342C225.147 160.342 221.677 160.762 218.907 160.552L217.377 162.352C217.377 162.352 219.737 161.312 221.117 163.532C222.507 165.752 224.097 168.522 223.407 170.122C223.407 170.122 228.747 167.352 230.207 169.632C231.667 171.922 227.157 174.002 225.357 175.392C223.557 176.782 219.187 180.522 219.187 180.522C219.187 180.522 216.067 187.522 209.547 190.092C209.547 190.092 208.127 193.002 208.857 195.712L196.567 193.842V193.832Z" fill="white" stroke="#002A41" stroke-width="0.75" stroke-linecap="round" stroke-linejoin="round"/>
<path d="M218.417 157.702L216.137 159.572L213.567 164.012L211.837 169.832" stroke="#002A41" stroke-width="0.75" stroke-linecap="round" stroke-linejoin="round"/>
<path d="M210.377 169.832C210.377 169.832 214.017 174.202 216.597 174.822C216.597 174.822 219.317 173.642 219.877 173.162C220.337 172.762 221.037 171.982 222.437 170.852" stroke="#002A41" stroke-width="0.75" stroke-linecap="round" stroke-linejoin="round"/>
<path d="M214.397 169.492L214.727 168.312C214.727 168.312 216.547 168.732 217.997 168.312L218.827 169.492C218.827 169.492 216.957 169.142 214.387 169.492H214.397Z" stroke="#002A41" stroke-width="0.75" stroke-linecap="round" stroke-linejoin="round"/>
<path d="M218.077 164.562C218.077 164.562 217.457 165.722 217.587 167.542" stroke="#002A41" stroke-width="0.75" stroke-linecap="round" stroke-linejoin="round"/>
<path d="M220.227 168.312C220.227 168.312 217.437 170.462 217.827 174.282" stroke="#002A41" stroke-width="0.75" stroke-linecap="round" stroke-linejoin="round"/>
<path d="M215.927 163.452L214.397 165.122V166.992" stroke="#002A41" stroke-width="0.75" stroke-linecap="round" stroke-linejoin="round"/>
<path d="M143.497 241.902C143.497 241.902 178.377 242.792 183.387 246.482C183.387 246.482 180.247 241.432 185.877 243.082C185.877 243.082 186.267 200.272 193.837 199.682L196.357 189.942C196.547 189.212 197.387 188.862 198.027 189.262C200.117 190.552 204.457 192.892 208.477 192.942C209.087 192.942 209.567 193.452 209.567 194.062V202.412C209.567 202.412 213.447 203.382 213.257 209.012C213.067 214.642 209.517 265.152 203.107 270.622C196.697 276.082 151.657 273.372 151.657 273.372C151.657 273.372 140.587 262.692 143.507 241.922L143.497 241.902Z" fill="#42D8BC"/>
<mask id="mask14_4381_35318" style="mask-type:luminance" maskUnits="userSpaceOnUse" x="143" y="189" width="71" height="86">
<path d="M143.497 241.902C143.497 241.902 178.377 242.792 183.387 246.482C183.387 246.482 180.247 241.432 185.877 243.082C185.877 243.082 186.267 200.272 193.837 199.682L196.357 189.942C196.547 189.212 197.387 188.862 198.027 189.262C200.117 190.552 204.457 192.892 208.477 192.942C209.087 192.942 209.567 193.452 209.567 194.062V202.412C209.567 202.412 213.447 203.382 213.257 209.012C213.067 214.642 209.517 265.152 203.107 270.622C196.697 276.082 151.657 273.372 151.657 273.372C151.657 273.372 140.587 262.692 143.507 241.922L143.497 241.902Z" fill="white"/>
</mask>
<g mask="url(#mask14_4381_35318)">
<path opacity="0.2" d="M154.357 253.162C154.357 253.162 165.067 270.102 181.987 268.492C198.907 266.892 193.937 260.512 196.557 258.012C199.177 255.512 207.547 259.222 211.827 227.692C216.107 196.162 225.007 249.852 225.007 249.852L222.437 276.042L206.467 287.692L191.457 290.622L156.317 293.492L145.697 263.552L154.347 253.152L154.357 253.162Z" fill="black"/>
</g>
<path d="M143.497 241.902C143.497 241.902 178.377 242.792 183.387 246.482C183.387 246.482 180.247 241.432 185.877 243.082C185.877 243.082 186.267 200.272 193.837 199.682L196.357 189.942C196.547 189.212 197.387 188.862 198.027 189.262C200.117 190.552 204.457 192.892 208.477 192.942C209.087 192.942 209.567 193.452 209.567 194.062V202.412C209.567 202.412 213.447 203.382 213.257 209.012C213.067 214.642 209.517 265.152 203.107 270.622C196.697 276.082 151.657 273.372 151.657 273.372C151.657 273.372 140.587 262.692 143.507 241.922L143.497 241.902Z" stroke="#002A41" stroke-width="0.75" stroke-linecap="round" stroke-linejoin="round"/>
<path d="M187.387 251.222C187.387 251.222 189.907 253.162 191.467 259.182" stroke="#002A41" stroke-width="0.75" stroke-linecap="round" stroke-linejoin="round"/>
<path d="M189.427 246.562C189.427 246.562 194.577 248.892 197.677 253.162" stroke="#002A41" stroke-width="0.75" stroke-linecap="round" stroke-linejoin="round"/>
<path d="M196.567 201.042C196.567 201.042 199.867 203.372 206.467 204.152" stroke="#002A41" stroke-width="0.75" stroke-linecap="round" stroke-linejoin="round"/>
<path d="M80.2875 327.522C80.2875 327.522 53.2875 270.562 73.9975 252.442C94.7075 234.322 138.347 239.132 145.747 241.342C153.147 243.562 160.537 265.012 160.907 276.472C161.277 287.942 168.547 287.782 158.197 327.512H80.2875V327.522Z" fill="#42D8BC"/>
<mask id="mask15_4381_35318" style="mask-type:luminance" maskUnits="userSpaceOnUse" x="66" y="239" width="98" height="89">
<path d="M80.2875 327.522C80.2875 327.522 53.2875 270.562 73.9975 252.442C94.7075 234.322 138.347 239.132 145.747 241.342C153.147 243.562 160.537 265.012 160.907 276.472C161.277 287.942 168.547 287.782 158.197 327.512H80.2875V327.522Z" fill="white"/>
</mask>
<g mask="url(#mask15_4381_35318)">
<path opacity="0.2" d="M89.0675 285.152C89.0675 285.152 103.037 269.862 103.957 274.892C104.877 279.932 87.6775 309.052 105.427 316.822C123.177 324.592 135.767 315.992 145.697 316.822C155.627 317.652 159.967 323.652 170.147 324.262C180.317 324.872 178.137 339.292 178.137 339.292L149.807 345.392H91.0075L69.7075 340.122L63.8275 329.742V306.442L89.0675 285.152Z" fill="black"/>
</g>
<path d="M80.2875 327.522C80.2875 327.522 53.2875 270.562 73.9975 252.442C94.7075 234.322 138.347 239.132 145.747 241.342C153.147 243.562 160.537 265.012 160.907 276.472C161.277 287.942 168.547 287.782 158.197 327.512H80.2875V327.522Z" stroke="#002A41" stroke-width="0.75" stroke-linecap="round" stroke-linejoin="round"/>
<path d="M106.917 290.722L123.377 285.332C123.377 285.332 130.217 274.442 133.737 271.672C137.257 268.902 139.467 267.972 142.987 269.642L148.907 268.812C148.907 268.812 151.407 265.642 154.267 266.312C157.127 266.982 167.577 270.192 166.467 272.412C165.357 274.632 156.477 270.562 155.187 271.672C155.187 271.672 158.097 276.892 158.097 280.082C158.097 283.272 158.927 288.122 157.127 288.122C155.327 288.122 153.797 286.102 153.937 283.512C153.937 283.512 153.387 289.232 151.577 288.962C149.777 288.682 148.527 287.162 148.807 284.802C148.807 284.802 144.647 297.702 134.107 297.562L114.967 305.332C114.967 305.332 111.087 304.412 106.927 290.722H106.917Z" fill="white" stroke="#002A41" stroke-width="0.75" stroke-linecap="round" stroke-linejoin="round"/>
<path d="M137.837 284.812C137.837 284.812 140.337 279.822 139.637 277.462L143.247 276.072C143.247 276.072 144.777 278.152 145.887 277.602L145.337 280.442C145.337 280.442 142.567 283.842 144.087 285.782C145.617 287.722 147.827 283.282 149.077 282.042C150.327 280.792 150.607 275.292 149.627 273.532C148.657 271.772 145.077 271.962 144.027 270.802" stroke="#002A41" stroke-width="0.75" stroke-linecap="round" stroke-linejoin="round"/>
<path d="M149.257 269.642C149.257 269.642 152.397 269.272 153.327 270.802C154.247 272.332 155.177 275.932 154.987 277.782C154.797 279.632 154.157 282.402 154.157 282.402" stroke="#002A41" stroke-width="0.75" stroke-linecap="round" stroke-linejoin="round"/>
<path d="M149.257 283.522L149.817 280.442" stroke="#002A41" stroke-width="0.75" stroke-linecap="round" stroke-linejoin="round"/>
<path d="M152.137 269.922C152.137 269.922 153.927 269.142 155.177 271.682" stroke="#002A41" stroke-width="0.75" stroke-linecap="round" stroke-linejoin="round"/>
<path d="M145.617 278.992L144.027 279.632L144.817 281.152L145.327 280.442L145.617 278.992Z" stroke="#002A41" stroke-width="0.75" stroke-linecap="round" stroke-linejoin="round"/>
<path d="M128.367 292.762C128.367 292.762 129.107 294.612 132.437 296.462" stroke="#002A41" stroke-width="0.75" stroke-linecap="round" stroke-linejoin="round"/>
<path d="M114.497 219.532L109.137 235.252C109.137 235.252 120.607 247.452 130.587 248.382L134.657 253.162L139.097 247.822L137.987 240.982L136.197 238.092L134.657 237.592L137.797 228.962L127.757 215.282H118.007L114.497 219.532Z" fill="white"/>
<mask id="mask16_4381_35318" style="mask-type:luminance" maskUnits="userSpaceOnUse" x="109" y="215" width="31" height="39">
<path d="M114.497 219.532L109.137 235.252C109.137 235.252 120.607 247.452 130.587 248.382L134.657 253.162L139.097 247.822L137.987 240.982L136.197 238.092L134.657 237.592L137.797 228.962L127.757 215.282H118.007L114.497 219.532Z" fill="white"/>
</mask>
<g mask="url(#mask16_4381_35318)">
<path d="M137.797 228.962L127.757 215.282H118.007L116.867 216.672C117.537 219.792 118.967 225.102 121.337 228.232C123.867 231.562 130.987 235.362 134.787 237.242L137.797 228.972V228.962Z" fill="#002A41" stroke="#002A41" stroke-width="0.75" stroke-linecap="round" stroke-linejoin="round"/>
</g>
<path d="M114.497 219.532L109.137 235.252C109.137 235.252 120.607 247.452 130.587 248.382L134.657 253.162L139.097 247.822L137.987 240.982L136.197 238.092L134.657 237.592L137.797 228.962L127.757 215.282H118.007L114.497 219.532Z" stroke="#002A41" stroke-width="0.75" stroke-linecap="round" stroke-linejoin="round"/>
<path d="M117.267 211.832C117.267 211.832 119.117 223.232 124.107 226.932C129.097 230.632 147.037 237.442 150.367 234.222C153.697 231.002 157.027 220.642 157.767 215.282C158.507 209.922 156.657 201.092 157.027 195.702C157.397 190.312 157.767 181.252 150.367 178.482C142.967 175.712 115.967 189.092 115.967 189.092L114.307 199.372L117.267 211.822V211.832Z" fill="white" stroke="#002A41" stroke-width="0.75" stroke-linecap="round" stroke-linejoin="round"/>
<path d="M152.127 195.702C152.127 195.702 151.017 200.212 152.127 201.872C152.877 203.002 154.837 205.712 156.027 207.352C156.547 208.072 156.377 209.062 155.657 209.572C154.237 210.582 152.117 212.202 151.637 213.242C151.487 213.552 151.637 214.632 151.637 214.632" stroke="#002A41" stroke-width="0.75" stroke-linecap="round" stroke-linejoin="round"/>
<path d="M151.737 217.432C151.737 217.432 146.767 221.422 141.717 216.312" stroke="#002A41" stroke-width="0.75" stroke-linecap="round" stroke-linejoin="round"/>
<path d="M137.797 197.432C137.797 197.432 139.997 192.582 147.727 195.072" stroke="#002A41" stroke-width="0.75" stroke-linecap="round" stroke-linejoin="round"/>
<path d="M152.437 194.362C152.437 194.362 154.207 192.542 156.287 194.362" stroke="#002A41" stroke-width="0.75" stroke-linecap="round" stroke-linejoin="round"/>
<path d="M145.667 199.252C145.977 200.402 145.767 201.452 145.197 201.612C144.627 201.762 143.917 200.962 143.607 199.812C143.297 198.662 143.507 197.612 144.077 197.452C144.647 197.302 145.357 198.102 145.667 199.252Z" fill="#002A41"/>
<path d="M156.187 198.082C156.407 199.132 156.167 200.062 155.647 200.172C155.127 200.282 154.527 199.522 154.307 198.482C154.087 197.432 154.327 196.502 154.847 196.392C155.367 196.282 155.967 197.042 156.187 198.082Z" fill="#002A41"/>
<path d="M143.017 165.222C143.017 165.222 152.437 159.822 166.597 172.352C179.387 183.672 163.747 177.182 163.747 177.182C163.747 177.182 170.247 189.332 163.317 191.822C156.287 194.352 160.177 186.982 144.637 183.462C144.637 183.462 151.567 189.082 146.817 192.362C140.717 196.572 136.687 189.382 131.877 191.042C131.877 191.042 129.287 205.282 124.107 207.682C124.107 207.682 119.067 226.772 112.437 225.552C105.807 224.332 113.937 221.742 110.237 210.092C106.537 198.442 98.5875 187.442 104.687 174.822C110.787 162.202 132.687 160.842 143.007 165.222H143.017Z" fill="#002A41" stroke="#002A41" stroke-width="0.75" stroke-linecap="round" stroke-linejoin="round"/>
<path d="M83.9875 249.292C78.7675 249.372 74.0375 251.302 71.7875 254.672C63.5475 266.972 53.2975 289.802 46.6375 304.972C39.9775 320.132 43.3075 329.382 46.6375 330.492C49.9675 331.602 61.7975 335.302 84.7275 324.202C107.657 313.102 105.437 310.892 105.437 310.892L118.587 304.822C119.107 304.582 119.167 303.872 118.707 303.542C116.617 302.042 112.397 297.802 112.107 287.942C112.087 287.422 111.567 287.062 111.087 287.262L98.7775 292.222C98.7775 292.222 96.9275 290.182 86.2075 294.252C86.2075 294.252 96.9375 286.482 101.737 280.572C103.997 277.782 104.707 272.542 103.927 267.222" fill="#42D8BC"/>
<path d="M83.9875 249.292C78.7675 249.372 74.0375 251.302 71.7875 254.672C63.5475 266.972 53.2975 289.802 46.6375 304.972C39.9775 320.132 43.3075 329.382 46.6375 330.492C49.9675 331.602 61.7975 335.302 84.7275 324.202C107.657 313.102 105.437 310.892 105.437 310.892L118.587 304.822C119.107 304.582 119.167 303.872 118.707 303.542C116.617 302.042 112.397 297.802 112.107 287.942C112.087 287.422 111.567 287.062 111.087 287.262L98.7775 292.222C98.7775 292.222 96.9275 290.182 86.2075 294.252C86.2075 294.252 96.9375 286.482 101.737 280.572C103.997 277.782 104.707 272.542 103.927 267.222" stroke="#002A41" stroke-width="0.75" stroke-linecap="round" stroke-linejoin="round"/>
<path d="M63.8275 301.822C67.3775 298.882 82.3175 297.382 82.5075 295.162C82.6975 292.942 69.9375 298.302 70.1175 295.162" stroke="#002A41" stroke-width="0.75" stroke-linecap="round" stroke-linejoin="round"/>
<path d="M93.7875 272.422C93.7875 272.422 97.4975 278.322 97.4875 281.672C97.4875 285.012 101.927 276.312 101.927 272.422" stroke="#002A41" stroke-width="0.75" stroke-linecap="round" stroke-linejoin="round"/>
<path d="M99.5175 294.612C99.5175 294.612 99.1475 299.052 103.217 306.452" stroke="#002A41" stroke-width="0.75" stroke-linecap="round" stroke-linejoin="round"/>
<path d="M97.2875 241.152C97.2875 241.152 101.087 229.902 105.527 231.562C109.967 233.212 131.597 242.592 134.647 253.162C134.647 253.162 130.207 247.312 126.327 253.162C122.447 259.012 118.727 253.812 97.2875 241.152Z" fill="#42D8BC" stroke="#002A41" stroke-width="0.75" stroke-linecap="round" stroke-linejoin="round"/>
<path d="M136.187 238.092C136.697 240.202 137.847 246.742 134.647 253.162C134.647 253.162 137.977 248.892 141.857 251.802C145.737 254.712 141.857 242.552 140.057 240.252C139.407 239.422 136.607 237.822 136.607 237.822C136.407 237.682 136.127 237.852 136.187 238.102V238.092Z" fill="#42D8BC" stroke="#002A41" stroke-width="0.75" stroke-linecap="round" stroke-linejoin="round"/>
<path d="M134.647 237.592C134.647 237.592 133.487 241.272 134.647 243.472" stroke="#002A41" stroke-width="0.75" stroke-linecap="round" stroke-linejoin="round"/>
<path d="M120.337 328.452H165.167V332.522H120.697C119.767 332.522 119.017 331.772 119.017 330.842V329.772C119.017 329.042 119.607 328.452 120.337 328.452Z" fill="#00121C" stroke="#002A41" stroke-linecap="round" stroke-linejoin="round"/>
<path d="M186.768 261.132H181.137C179.367 261.132 177.807 262.302 177.307 264.002L158.878 327.412C158.138 329.962 160.047 332.512 162.707 332.512H167.587L186.768 261.132Z" fill="#002A41" stroke="#002A41" stroke-width="0.75" stroke-linecap="round" stroke-linejoin="round"/>
<path d="M258.577 332.512H164.647C161.997 332.512 160.077 329.962 160.817 327.412L179.247 264.002C179.737 262.302 181.297 261.132 183.077 261.132H277.007C279.657 261.132 281.577 263.682 280.837 266.232L262.407 329.642C261.917 331.342 260.357 332.512 258.577 332.512Z" fill="#00121C" stroke="#002A41" stroke-linecap="round" stroke-linejoin="round"/>
<path d="M116.867 216.662C116.867 216.662 109.317 228.452 113.757 239.072C118.197 249.692 114.307 255.192 109.137 251.212C103.947 247.222 101.557 242.862 78.2575 246.552L93.7875 231.392L104.327 217.262L114.197 212.612L116.867 216.652V216.662Z" fill="#002A41" stroke="#002A41" stroke-width="0.75" stroke-linecap="round" stroke-linejoin="round"/>
<path d="M345.647 150.912H228.127C225.686 150.912 223.707 152.891 223.707 155.332V164.632C223.707 167.073 225.686 169.052 228.127 169.052H345.647C348.089 169.052 350.067 167.073 350.067 164.632V155.332C350.067 152.891 348.089 150.912 345.647 150.912Z" fill="white"/>
<mask id="mask17_4381_35318" style="mask-type:luminance" maskUnits="userSpaceOnUse" x="223" y="150" width="128" height="20">
<path d="M345.647 150.912H228.127C225.686 150.912 223.707 152.891 223.707 155.332V164.632C223.707 167.073 225.686 169.052 228.127 169.052H345.647C348.089 169.052 350.067 167.073 350.067 164.632V155.332C350.067 152.891 348.089 150.912 345.647 150.912Z" fill="white"/>
</mask>
<g mask="url(#mask17_4381_35318)">
<path opacity="0.3" d="M345.647 150.912H228.127C225.686 150.912 223.707 152.891 223.707 155.332V164.632C223.707 167.073 225.686 169.052 228.127 169.052H345.647C348.089 169.052 350.067 167.073 350.067 164.632V155.332C350.067 152.891 348.089 150.912 345.647 150.912Z" fill="white"/>
</g>
<path d="M345.647 150.912H228.127C225.686 150.912 223.707 152.891 223.707 155.332V164.632C223.707 167.073 225.686 169.052 228.127 169.052H345.647C348.089 169.052 350.067 167.073 350.067 164.632V155.332C350.067 152.891 348.089 150.912 345.647 150.912Z" stroke="#002A41" stroke-width="0.75" stroke-linecap="round" stroke-linejoin="round"/>
<path d="M260.563 55.9399L259.469 48.7498L262.586 48.2756C263.134 48.1923 263.605 48.196 264 48.2869C264.397 48.3773 264.71 48.5427 264.941 48.7831C265.174 49.023 265.318 49.3256 265.374 49.6907C265.414 49.9552 265.392 50.2051 265.308 50.4406C265.227 50.6757 265.093 50.8828 264.907 51.062C264.721 51.2388 264.493 51.3764 264.223 51.475L264.233 51.5452C264.544 51.5099 264.837 51.5456 265.112 51.6522C265.386 51.7566 265.618 51.9237 265.806 52.1537C265.994 52.3813 266.113 52.6648 266.165 53.0042C266.225 53.3974 266.175 53.763 266.016 54.1009C265.859 54.4385 265.605 54.7237 265.255 54.9566C264.905 55.1895 264.469 55.3456 263.947 55.425L260.563 55.9399ZM262.278 54.0841L263.19 53.9453C263.518 53.8954 263.755 53.7972 263.9 53.6506C264.045 53.5016 264.099 53.3066 264.062 53.0655C264.037 52.897 263.976 52.7601 263.881 52.6548C263.786 52.5495 263.663 52.4773 263.511 52.4382C263.361 52.3987 263.187 52.3941 262.988 52.4244L262.047 52.5675L262.278 54.0841ZM261.863 51.3598L262.664 51.238C262.834 51.212 262.981 51.1621 263.104 51.0884C263.227 51.0146 263.317 50.9219 263.374 50.8102C263.434 50.6958 263.452 50.5649 263.43 50.4175C263.396 50.1951 263.29 50.0375 263.113 49.9447C262.936 49.8496 262.726 49.8205 262.482 49.8575L261.654 49.9836L261.863 51.3598ZM270.328 47.0979L272.28 46.801L272.98 51.4071C273.064 51.9547 273.005 52.4486 272.803 52.8887C272.604 53.3261 272.288 53.6891 271.856 53.9776C271.423 54.2638 270.898 54.4537 270.283 54.5474C269.663 54.6417 269.103 54.6167 268.605 54.4722C268.106 54.3254 267.696 54.0728 267.376 53.7144C267.058 53.3534 266.857 52.899 266.773 52.3513L266.073 47.7452L268.025 47.4483L268.7 51.8859C268.734 52.1082 268.813 52.2997 268.938 52.4603C269.063 52.6185 269.219 52.7336 269.407 52.8056C269.598 52.8771 269.804 52.896 270.026 52.8622C270.251 52.828 270.443 52.7486 270.601 52.624C270.759 52.4993 270.874 52.3429 270.946 52.1548C271.018 51.9643 271.037 51.7579 271.003 51.5355L270.328 47.0979ZM275.159 46.3629L276.253 53.5529L274.301 53.8498L273.207 46.6598L275.159 46.3629ZM277.178 53.4122L276.084 46.2222L278.036 45.9252L278.891 51.5424L281.798 51.1002L282.037 52.673L277.178 53.4122ZM285.593 52.1321L282.826 52.553L281.732 45.363L284.471 44.9464C285.21 44.8339 285.871 44.8806 286.453 45.0866C287.037 45.2899 287.517 45.6384 287.891 46.1322C288.268 46.6233 288.513 47.2434 288.627 47.9923C288.741 48.7413 288.692 49.4072 288.482 49.99C288.271 50.5705 287.919 51.0454 287.427 51.4148C286.934 51.7819 286.323 52.021 285.593 52.1321ZM284.526 50.5989L285.27 50.4857C285.626 50.4316 285.92 50.3281 286.153 50.1754C286.389 50.0222 286.551 49.7952 286.639 49.4944C286.73 49.1933 286.737 48.7923 286.661 48.2914C286.584 47.7905 286.457 47.41 286.279 47.1498C286.102 46.8892 285.876 46.7214 285.599 46.6462C285.324 46.5707 284.999 46.5614 284.624 46.6184L283.936 46.7231L284.526 50.5989Z" fill="#002A41"/>
<path d="M276.678 77.8973L276.733 76.3073L283.05 76.5235L282.996 78.1135L280.809 78.0387L280.615 83.7172L278.67 83.6506L278.865 77.9721L276.678 77.8973ZM283.544 83.8174L283.793 76.5489L286.93 76.6563C287.47 76.6747 287.938 76.7891 288.336 76.9993C288.734 77.2095 289.039 77.503 289.251 77.8798C289.463 78.2566 289.56 78.7029 289.543 79.2187C289.525 79.7393 289.394 80.1742 289.15 80.5235C288.908 80.8729 288.576 81.1316 288.153 81.2996C287.733 81.4676 287.246 81.5421 286.692 81.5232L284.819 81.459L284.871 79.9258L286.347 79.9764C286.579 79.9843 286.778 79.9627 286.943 79.9115C287.111 79.858 287.24 79.7689 287.332 79.6441C287.427 79.5194 287.477 79.3541 287.484 79.1483C287.492 78.9401 287.452 78.7694 287.367 78.6362C287.284 78.5007 287.161 78.3993 286.997 78.3321C286.836 78.2627 286.64 78.224 286.408 78.216L285.712 78.1922L285.517 83.8849L283.544 83.8174ZM287.917 80.627L289.62 84.0253L287.476 83.952L285.816 80.5551L287.917 80.627ZM292.108 84.1105L289.978 84.0376L292.626 76.8512L295.324 76.9435L297.474 84.2941L295.345 84.2212L293.935 78.9L293.878 78.8981L292.108 84.1105ZM291.809 81.2292L295.812 81.3662L295.761 82.8426L291.758 82.7056L291.809 81.2292ZM300.971 84.4138L298.174 84.3181L298.423 77.0496L301.191 77.1443C301.939 77.1699 302.58 77.3375 303.114 77.6472C303.651 77.9545 304.058 78.3854 304.335 78.9397C304.614 79.4917 304.741 80.1463 304.715 80.9034C304.689 81.6605 304.519 82.3061 304.205 82.8402C303.89 83.3719 303.457 83.774 302.906 84.0465C302.354 84.3166 301.709 84.439 300.971 84.4138ZM300.205 82.7104L300.957 82.7362C301.317 82.7485 301.625 82.701 301.882 82.5937C302.142 82.4865 302.343 82.2932 302.485 82.0139C302.629 81.7345 302.71 81.3417 302.728 80.8354C302.745 80.3291 302.69 79.9316 302.562 79.643C302.437 79.3544 302.245 79.1477 301.987 79.0228C301.73 78.8979 301.413 78.829 301.034 78.8161L300.339 78.7923L300.205 82.7104ZM305.504 84.5689L305.753 77.3004L310.991 77.4797L310.937 79.0697L307.671 78.9579L307.629 80.2072L310.624 80.3097L310.57 81.8997L307.574 81.7972L307.531 83.0464L310.782 83.1577L310.728 84.7477L305.504 84.5689Z" fill="#002A41"/>
<path d="M264.27 122.399V129.672H262.295V122.399H264.27ZM271.498 122.399V129.672H269.85L267.222 125.851H267.18V129.672H265.205V122.399H266.882L269.467 126.206H269.524V122.399H271.498ZM274.421 122.399L275.912 127.527H275.969L277.46 122.399H279.69L277.29 129.672H274.591L272.19 122.399H274.421ZM280.391 129.672V122.399H285.632V123.99H282.365V125.24H285.363V126.831H282.365V128.081H285.618V129.672H280.391ZM290.532 124.672C290.513 124.435 290.424 124.25 290.266 124.118C290.11 123.985 289.872 123.919 289.552 123.919C289.348 123.919 289.182 123.944 289.051 123.994C288.923 124.041 288.829 124.106 288.767 124.189C288.706 124.272 288.674 124.366 288.671 124.473C288.667 124.561 288.682 124.64 288.717 124.711C288.755 124.78 288.815 124.842 288.895 124.899C288.976 124.954 289.079 125.003 289.204 125.048C289.329 125.093 289.479 125.134 289.651 125.169L290.248 125.297C290.65 125.382 290.995 125.495 291.281 125.634C291.568 125.774 291.802 125.938 291.985 126.128C292.167 126.315 292.301 126.526 292.386 126.76C292.473 126.994 292.518 127.25 292.521 127.527C292.518 128.005 292.399 128.41 292.162 128.741C291.925 129.073 291.587 129.325 291.146 129.498C290.708 129.671 290.182 129.757 289.566 129.757C288.934 129.757 288.382 129.664 287.911 129.477C287.443 129.29 287.078 129.002 286.818 128.614C286.56 128.223 286.429 127.723 286.427 127.115H288.302C288.314 127.338 288.369 127.525 288.469 127.676C288.568 127.828 288.708 127.942 288.888 128.021C289.07 128.099 289.287 128.138 289.538 128.138C289.749 128.138 289.925 128.112 290.067 128.06C290.209 128.008 290.317 127.935 290.39 127.843C290.463 127.751 290.501 127.645 290.504 127.527C290.501 127.416 290.465 127.319 290.394 127.236C290.325 127.151 290.211 127.075 290.053 127.009C289.894 126.94 289.68 126.876 289.41 126.817L288.686 126.661C288.042 126.521 287.534 126.288 287.162 125.961C286.793 125.632 286.609 125.183 286.612 124.615C286.609 124.153 286.732 123.75 286.981 123.404C287.232 123.056 287.579 122.785 288.021 122.591C288.467 122.397 288.977 122.3 289.552 122.3C290.139 122.3 290.647 122.398 291.075 122.594C291.504 122.791 291.834 123.068 292.066 123.425C292.301 123.781 292.419 124.196 292.421 124.672H290.532ZM293.073 123.99V122.399H299.394V123.99H297.206V129.672H295.26V123.99H293.073Z" fill="#002A41"/>
<path d="M264.324 156.709H266.781L268.472 160.829H268.557L270.247 156.709H272.705V163.982H270.773V159.777H270.716L269.097 163.925H267.932L266.313 159.749H266.256V163.982H264.324V156.709ZM275.53 163.982H273.399L275.8 156.709H278.498L280.899 163.982H278.768L277.177 158.712H277.121L275.53 163.982ZM275.132 161.113H279.138V162.59H275.132V161.113ZM287.892 156.709V163.982H286.244L283.617 160.161H283.574V163.982H281.599V156.709H283.276L285.861 160.516H285.918V156.709H287.892ZM290.715 163.982H288.585L290.985 156.709H293.684L296.085 163.982H293.954L292.363 158.712H292.306L290.715 163.982ZM290.317 161.113H294.323V162.59H290.317V161.113ZM301.166 159.11C301.135 158.984 301.087 158.874 301.021 158.78C300.954 158.682 300.871 158.601 300.772 158.534C300.675 158.466 300.561 158.415 300.431 158.382C300.303 158.346 300.162 158.329 300.009 158.329C299.677 158.329 299.394 158.408 299.16 158.566C298.928 158.725 298.75 158.954 298.627 159.252C298.506 159.55 298.446 159.91 298.446 160.331C298.446 160.758 298.504 161.122 298.62 161.425C298.736 161.728 298.909 161.96 299.139 162.121C299.368 162.282 299.653 162.363 299.994 162.363C300.295 162.363 300.545 162.319 300.744 162.231C300.945 162.144 301.095 162.019 301.195 161.858C301.294 161.697 301.344 161.508 301.344 161.29L301.685 161.326H300.023V159.919H303.247V160.928C303.247 161.591 303.106 162.158 302.825 162.629C302.545 163.098 302.159 163.458 301.667 163.708C301.177 163.957 300.615 164.081 299.98 164.081C299.272 164.081 298.651 163.931 298.116 163.63C297.581 163.33 297.163 162.901 296.862 162.345C296.564 161.789 296.415 161.127 296.415 160.36C296.415 159.758 296.506 159.226 296.688 158.762C296.873 158.298 297.129 157.906 297.455 157.586C297.782 157.264 298.16 157.022 298.588 156.858C299.017 156.693 299.476 156.61 299.966 156.61C300.397 156.61 300.797 156.671 301.166 156.794C301.538 156.915 301.866 157.088 302.15 157.313C302.436 157.535 302.667 157.799 302.842 158.105C303.018 158.41 303.124 158.745 303.162 159.11H301.166ZM304.168 163.982V156.709H309.409V158.3H306.142V159.55H309.139V161.141H306.142V162.391H309.395V163.982H304.168Z" fill="#002A41"/>
<path d="M272.617 7.54549V8.94457H269.078V7.54549H272.617ZM269.763 6.25834H271.694V11.1901C271.694 11.2647 271.707 11.3277 271.732 11.379C271.758 11.4279 271.798 11.4653 271.851 11.4909C271.905 11.5142 271.974 11.5259 272.058 11.5259C272.116 11.5259 272.184 11.5189 272.261 11.5049C272.34 11.4909 272.398 11.4792 272.435 11.4699L272.715 12.827C272.629 12.8527 272.505 12.8842 272.344 12.9215C272.186 12.9588 271.997 12.9833 271.778 12.9949C271.335 13.0182 270.963 12.9728 270.662 12.8585C270.361 12.7419 270.135 12.5589 269.984 12.3094C269.832 12.0599 269.759 11.7474 269.763 11.372V6.25834ZM275.451 9.89595V12.918H273.521V5.75467H275.381V8.56682H275.437C275.559 8.22405 275.76 7.95705 276.042 7.76585C276.325 7.57231 276.664 7.47554 277.06 7.47554C277.44 7.47554 277.77 7.56181 278.05 7.73437C278.332 7.90692 278.55 8.14477 278.704 8.4479C278.86 8.75103 278.937 9.09847 278.935 9.49022V12.918H277.004V9.89595C277.007 9.63012 276.94 9.42143 276.805 9.26986C276.672 9.11829 276.482 9.04251 276.235 9.04251C276.079 9.04251 275.941 9.07749 275.822 9.14744C275.705 9.21506 275.615 9.313 275.549 9.44125C275.486 9.56717 275.454 9.71873 275.451 9.89595ZM279.888 12.918V7.54549H281.819V12.918H279.888ZM280.854 6.98586C280.592 6.98586 280.369 6.89958 280.182 6.72703C279.995 6.55447 279.902 6.34694 279.902 6.10444C279.902 5.86193 279.995 5.6544 280.182 5.48184C280.369 5.30929 280.592 5.22301 280.854 5.22301C281.117 5.22301 281.341 5.30929 281.525 5.48184C281.712 5.6544 281.805 5.86193 281.805 6.10444C281.805 6.34694 281.712 6.55447 281.525 6.72703C281.341 6.89958 281.117 6.98586 280.854 6.98586ZM282.803 12.918V7.54549H284.677V8.56682H284.733C284.831 8.18907 284.986 7.91275 285.199 7.73787C285.413 7.56298 285.664 7.47554 285.951 7.47554C286.035 7.47554 286.117 7.48253 286.199 7.49652C286.283 7.50818 286.363 7.52567 286.44 7.54899V9.19641C286.345 9.16376 286.227 9.13928 286.087 9.12296C285.947 9.10663 285.827 9.09847 285.727 9.09847C285.538 9.09847 285.368 9.14161 285.216 9.22789C285.067 9.31183 284.949 9.43076 284.863 9.58465C284.776 9.73622 284.733 9.9146 284.733 10.1198V12.918H282.803ZM288.71 12.9879C288.328 12.9879 287.976 12.8877 287.654 12.6871C287.334 12.4866 287.078 12.1823 286.884 11.7742C286.693 11.3662 286.598 10.852 286.598 10.2317C286.598 9.58349 286.698 9.0565 286.898 8.65077C287.101 8.24503 287.362 7.94773 287.682 7.75885C288.004 7.56998 288.342 7.47554 288.696 7.47554C288.962 7.47554 289.195 7.52217 289.396 7.61545C289.596 7.70639 289.764 7.82881 289.899 7.9827C290.035 8.13427 290.137 8.301 290.207 8.48288H290.235V5.75467H292.166V12.918H290.249V12.0365H290.207C290.133 12.2184 290.025 12.3817 289.885 12.5262C289.748 12.6685 289.58 12.7816 289.382 12.8655C289.186 12.9471 288.962 12.9879 288.71 12.9879ZM289.424 11.5049C289.601 11.5049 289.753 11.4536 289.878 11.351C290.007 11.2461 290.105 11.0992 290.172 10.9103C290.242 10.7191 290.277 10.4929 290.277 10.2317C290.277 9.9659 290.242 9.73855 290.172 9.54968C290.105 9.35847 290.007 9.21273 289.878 9.11246C289.753 9.00986 289.601 8.95856 289.424 8.95856C289.247 8.95856 289.095 9.00986 288.969 9.11246C288.845 9.21273 288.75 9.35847 288.682 9.54968C288.617 9.73855 288.584 9.9659 288.584 10.2317C288.584 10.4976 288.617 10.7261 288.682 10.9173C288.75 11.1062 288.845 11.2519 288.969 11.3545C289.095 11.4548 289.247 11.5049 289.424 11.5049ZM296.332 7.54549V8.94457H292.736V7.54549H296.332ZM293.422 12.918V7.39159C293.422 6.94855 293.501 6.58129 293.66 6.28981C293.818 5.99834 294.042 5.78032 294.331 5.63574C294.62 5.49117 294.961 5.41889 295.352 5.41889C295.597 5.41889 295.835 5.43754 296.066 5.47485C296.299 5.51216 296.472 5.5448 296.584 5.57278L296.304 6.95788C296.234 6.93689 296.152 6.92057 296.059 6.90891C295.966 6.89492 295.884 6.88792 295.814 6.88792C295.632 6.88792 295.51 6.9264 295.447 7.00335C295.384 7.0803 295.352 7.18173 295.352 7.30765V12.918H293.422ZM297.077 12.918V7.54549H299.007V12.918H297.077ZM298.042 6.98586C297.781 6.98586 297.557 6.89958 297.371 6.72703C297.184 6.55447 297.091 6.34694 297.091 6.10444C297.091 5.86193 297.184 5.6544 297.371 5.48184C297.557 5.30929 297.781 5.22301 298.042 5.22301C298.306 5.22301 298.529 5.30929 298.714 5.48184C298.9 5.6544 298.994 5.86193 298.994 6.10444C298.994 6.34694 298.9 6.55447 298.714 6.72703C298.529 6.89958 298.306 6.98586 298.042 6.98586ZM301.041 13.0299C300.77 13.0299 300.538 12.9355 300.344 12.7466C300.153 12.5554 300.059 12.3234 300.061 12.0505C300.059 11.7847 300.153 11.5574 300.344 11.3685C300.538 11.1796 300.77 11.0852 301.041 11.0852C301.297 11.0852 301.523 11.1796 301.719 11.3685C301.917 11.5574 302.018 11.7847 302.02 12.0505C302.018 12.2324 301.97 12.398 301.876 12.5472C301.786 12.6941 301.667 12.8119 301.52 12.9005C301.373 12.9868 301.213 13.0299 301.041 13.0299ZM305.658 13.0159C305.075 13.0159 304.576 12.9005 304.16 12.6696C303.745 12.4365 303.427 12.1123 303.206 11.6973C302.984 11.2799 302.873 10.796 302.873 10.2457C302.873 9.69542 302.984 9.21273 303.206 8.79767C303.427 8.38028 303.745 8.05616 304.16 7.82531C304.576 7.59213 305.075 7.47554 305.658 7.47554C306.24 7.47554 306.739 7.59213 307.155 7.82531C307.57 8.05616 307.888 8.38028 308.109 8.79767C308.331 9.21273 308.442 9.69542 308.442 10.2457C308.442 10.796 308.331 11.2799 308.109 11.6973C307.888 12.1123 307.57 12.4365 307.155 12.6696C306.739 12.9005 306.24 13.0159 305.658 13.0159ZM305.672 11.5888C305.835 11.5888 305.976 11.534 306.095 11.4244C306.214 11.3149 306.306 11.1586 306.371 10.9558C306.436 10.7529 306.469 10.5115 306.469 10.2317C306.469 9.94958 306.436 9.70824 306.371 9.5077C306.306 9.30484 306.214 9.14861 306.095 9.03901C305.976 8.92942 305.835 8.87462 305.672 8.87462C305.499 8.87462 305.351 8.92942 305.227 9.03901C305.104 9.14861 305.009 9.30484 304.944 9.5077C304.879 9.70824 304.846 9.94958 304.846 10.2317C304.846 10.5115 304.879 10.7529 304.944 10.9558C305.009 11.1586 305.104 11.3149 305.227 11.4244C305.351 11.534 305.499 11.5888 305.672 11.5888ZM309.225 12.918V7.54549H311.1V8.56682H311.156C311.254 8.18907 311.409 7.91275 311.621 7.73787C311.836 7.56298 312.086 7.47554 312.373 7.47554C312.457 7.47554 312.54 7.48253 312.621 7.49652C312.705 7.50818 312.786 7.52567 312.863 7.54899V9.19641C312.767 9.16376 312.649 9.13928 312.51 9.12296C312.37 9.10663 312.25 9.09847 312.149 9.09847C311.96 9.09847 311.79 9.14161 311.639 9.22789C311.489 9.31183 311.372 9.43076 311.285 9.58465C311.199 9.73622 311.156 9.9146 311.156 10.1198V12.918H309.225ZM315.776 15.0446C315.238 15.0446 314.776 14.9676 314.391 14.8137C314.009 14.6622 313.712 14.4523 313.499 14.1841C313.29 13.9183 313.172 13.6128 313.146 13.2677H315.007C315.026 13.382 315.072 13.4741 315.147 13.5441C315.221 13.614 315.317 13.6641 315.434 13.6945C315.553 13.7271 315.685 13.7434 315.832 13.7434C316.082 13.7434 316.288 13.6828 316.451 13.5615C316.617 13.4403 316.7 13.2211 316.7 12.904V11.9946H316.644C316.574 12.1765 316.467 12.3315 316.322 12.4598C316.177 12.5857 316.004 12.6825 315.801 12.7501C315.598 12.8154 315.375 12.848 315.133 12.848C314.75 12.848 314.398 12.7594 314.076 12.5822C313.757 12.405 313.501 12.124 313.307 11.7392C313.116 11.3545 313.02 10.852 313.02 10.2317C313.02 9.58349 313.12 9.0565 313.321 8.65077C313.524 8.24503 313.785 7.94773 314.104 7.75885C314.426 7.56998 314.764 7.47554 315.119 7.47554C315.385 7.47554 315.618 7.52217 315.818 7.61545C316.019 7.70639 316.187 7.82881 316.322 7.9827C316.457 8.13427 316.56 8.301 316.63 8.48288H316.672V7.54549H318.603V12.904C318.603 13.3587 318.485 13.7446 318.249 14.0617C318.016 14.3812 317.687 14.6248 317.263 14.7927C316.839 14.9606 316.343 15.0446 315.776 15.0446ZM315.846 11.4769C316.024 11.4769 316.175 11.4279 316.301 11.33C316.429 11.2297 316.527 11.0875 316.595 10.9033C316.665 10.7167 316.7 10.4929 316.7 10.2317C316.7 9.9659 316.665 9.73855 316.595 9.54968C316.527 9.35847 316.429 9.21273 316.301 9.11246C316.175 9.00986 316.024 8.95856 315.846 8.95856C315.669 8.95856 315.518 9.00986 315.392 9.11246C315.268 9.21273 315.172 9.35847 315.105 9.54968C315.04 9.73855 315.007 9.9659 315.007 10.2317C315.007 10.4976 315.04 10.7237 315.105 10.9103C315.172 11.0945 315.268 11.2356 315.392 11.3335C315.518 11.4291 315.669 11.4769 315.846 11.4769Z" fill="white"/>
<defs>
<filter id="filter0_f_4381_35318" x="106.08" y="104.658" width="375.858" height="204.398" filterUnits="userSpaceOnUse" color-interpolation-filters="sRGB">
<feFlood flood-opacity="0" result="BackgroundImageFix"/>
<feBlend mode="normal" in="SourceGraphic" in2="BackgroundImageFix" result="shape"/>
<feGaussianBlur stdDeviation="40" result="effect1_foregroundBlur_4381_35318"/>
</filter>
<filter id="filter1_f_4381_35318" x="106.08" y="-89.2808" width="375.858" height="204.398" filterUnits="userSpaceOnUse" color-interpolation-filters="sRGB">
<feFlood flood-opacity="0" result="BackgroundImageFix"/>
<feBlend mode="normal" in="SourceGraphic" in2="BackgroundImageFix" result="shape"/>
<feGaussianBlur stdDeviation="40" result="effect1_foregroundBlur_4381_35318"/>
</filter>
<linearGradient id="paint0_linear_4381_35318" x1="190.49" y1="-2.07147" x2="410.978" y2="219.644" gradientUnits="userSpaceOnUse">
<stop stop-color="#42D8BC"/>
<stop offset="1" stop-color="#039AEC"/>
</linearGradient>
</defs>
</svg>
