<svg width="45" height="45" viewBox="0 0 45 45" fill="none" xmlns="http://www.w3.org/2000/svg">
<path d="M28.0498 3.35303H11.0547C10.1433 3.3541 9.26961 3.71661 8.62519 4.36103C7.98077 5.00545 7.61826 5.87917 7.61719 6.79053V38.4155C7.61826 39.3269 7.98077 40.2006 8.62519 40.845C9.26961 41.4894 10.1433 41.852 11.0547 41.853H28.0498C28.9612 41.852 29.8349 41.4894 30.4793 40.845C31.1237 40.2006 31.4863 39.3269 31.4873 38.4155V34.3366C33.2377 33.5263 34.7197 32.2321 35.7583 30.6068C36.797 28.9815 37.3489 27.093 37.3489 25.1641C37.3488 23.2353 36.7969 21.3467 35.7583 19.7215C34.7196 18.0962 33.2376 16.802 31.4872 15.9918L31.4873 6.79053C31.4863 5.87917 31.1237 5.00546 30.4793 4.36103C29.8349 3.71661 28.9612 3.3541 28.0498 3.35303ZM26.1639 4.72803L24.525 9.37268C24.43 9.64074 24.2544 9.87281 24.0222 10.037C23.79 10.2012 23.5127 10.2895 23.2283 10.2898H15.8759C15.5915 10.2895 15.3142 10.2012 15.082 10.037C14.8498 9.87276 14.6742 9.64071 14.5791 9.37268L12.9405 4.72803H26.1639ZM30.1123 38.4155C30.1117 38.9624 29.8942 39.4866 29.5076 39.8733C29.1209 40.2599 28.5967 40.4774 28.0498 40.478H11.0547C10.5079 40.4774 9.9836 40.2599 9.59694 39.8733C9.21027 39.4866 8.99278 38.9624 8.99219 38.4155V6.79053C8.99926 6.484 9.0721 6.18256 9.20577 5.90662C9.33944 5.63069 9.53083 5.38668 9.76699 5.19113C10.0031 4.99557 10.2785 4.85303 10.5746 4.77314C10.8706 4.69326 11.1803 4.6779 11.4828 4.7281L13.2827 9.83023C13.4726 10.3664 13.8238 10.8306 14.2882 11.1591C14.7525 11.4875 15.3071 11.6642 15.8759 11.6648H23.2283C23.7971 11.6643 24.3518 11.4876 24.8162 11.159C25.2805 10.8305 25.6317 10.3662 25.8215 9.8299L27.6217 4.72803C27.9242 4.67783 28.2339 4.69319 28.5299 4.77308C28.826 4.85298 29.1014 4.99553 29.3375 5.1911C29.5737 5.38667 29.7651 5.63069 29.8988 5.90664C30.0324 6.18259 30.1052 6.48404 30.1123 6.79058V15.473C28.0931 14.8872 25.9416 14.9437 23.9559 15.6347C21.9702 16.3256 20.2485 17.6169 19.0291 19.3297V18.0594C19.0256 17.8794 18.9516 17.708 18.823 17.5819C18.6945 17.4559 18.5216 17.3852 18.3416 17.3852C18.1615 17.3853 17.9886 17.4559 17.8601 17.5819C17.7315 17.708 17.6576 17.8795 17.6541 18.0595V32.273C17.6577 32.453 17.7317 32.6243 17.8602 32.7503C17.9888 32.8763 18.1616 32.9469 18.3416 32.9469C18.5216 32.9469 18.6944 32.8763 18.8229 32.7503C18.9515 32.6243 19.0255 32.4529 19.0291 32.273V30.9983C20.2486 32.711 21.9703 34.0022 23.956 34.6931C25.9417 35.3841 28.0931 35.4407 30.1124 34.855L30.1123 38.4155ZM36.0041 25.1674C35.8358 34.983 22.3731 37.2298 19.029 28.0186V22.3094C22.3769 13.0943 35.838 15.3476 36.0041 25.1674ZM16.0323 6.82141H23.0718C23.2518 6.82491 23.4233 6.89888 23.5493 7.02743C23.6754 7.15597 23.746 7.32884 23.746 7.50889C23.746 7.68894 23.6754 7.86181 23.5494 7.99036C23.4233 8.11892 23.2518 8.1929 23.0718 8.19641H16.0323C15.8523 8.1929 15.6809 8.11893 15.5548 7.99038C15.4287 7.86183 15.3581 7.68896 15.3581 7.50891C15.3581 7.32886 15.4287 7.15599 15.5548 7.02744C15.6809 6.89889 15.8523 6.82492 16.0323 6.82141ZM27.9646 18.575V20.0254C28.6105 20.1788 29.1859 20.5451 29.5982 21.0654C30.0105 21.5856 30.2357 22.2296 30.2376 22.8934C30.2376 23.0757 30.1651 23.2506 30.0362 23.3795C29.9073 23.5085 29.7324 23.5809 29.5501 23.5809C29.3677 23.5809 29.1929 23.5085 29.0639 23.3796C28.935 23.2507 28.8626 23.0758 28.8626 22.8934C28.8626 22.58 28.7697 22.2736 28.5957 22.013C28.4217 21.7523 28.1743 21.5491 27.8848 21.429C27.5953 21.3089 27.2767 21.2772 26.9693 21.3381C26.6618 21.399 26.3793 21.5497 26.1575 21.7711C25.9356 21.9924 25.7843 22.2746 25.7228 22.5819C25.6613 22.8892 25.6922 23.2079 25.8117 23.4977C25.9312 23.7874 26.1339 24.0352 26.3942 24.2098C26.6544 24.3844 26.9606 24.4779 27.2741 24.4785C27.9992 24.4768 28.6997 24.7416 29.2424 25.2226C29.785 25.7036 30.1319 26.3673 30.2172 27.0874C30.3024 27.8075 30.1201 28.5338 29.7047 29.1282C29.2894 29.7227 28.6701 30.1437 27.9646 30.3113V31.7574C27.961 31.9373 27.887 32.1087 27.7584 32.2347C27.6299 32.3607 27.4571 32.4313 27.2771 32.4313C27.0971 32.4313 26.9243 32.3607 26.7958 32.2347C26.6672 32.1087 26.5932 31.9374 26.5896 31.7574V30.31C25.9438 30.1565 25.3684 29.7902 24.9562 29.2699C24.5439 28.7497 24.3188 28.1058 24.3169 27.442C24.3165 27.2597 24.3886 27.0847 24.5172 26.9555C24.6459 26.8262 24.8206 26.7534 25.0029 26.753C25.1852 26.7526 25.3603 26.8246 25.4895 26.9533C25.6187 27.0819 25.6915 27.2566 25.6919 27.439C25.692 27.7524 25.7849 28.0587 25.959 28.3194C26.133 28.58 26.3805 28.7832 26.6699 28.9032C26.9594 29.0233 27.278 29.0548 27.5855 28.9939C27.8929 28.933 28.1754 28.7823 28.3972 28.5609C28.619 28.3395 28.7702 28.0573 28.8317 27.75C28.8932 27.4427 28.8623 27.124 28.7428 26.8343C28.6233 26.5446 28.4206 26.2968 28.1603 26.1222C27.9 25.9477 27.5938 25.8542 27.2804 25.8535C26.5555 25.8557 25.8551 25.5913 25.3124 25.1107C24.7698 24.63 24.4228 23.9666 24.3375 23.2467C24.2522 22.5269 24.4345 21.8007 24.8497 21.2065C25.265 20.6123 25.8842 20.1916 26.5896 20.0242V18.575C26.5932 18.395 26.6672 18.2237 26.7957 18.0977C26.9243 17.9717 27.0971 17.9011 27.2771 17.9011C27.4571 17.9011 27.6299 17.9717 27.7584 18.0977C27.887 18.2237 27.961 18.3951 27.9646 18.575Z" fill="url(#paint0_linear_4475_40750)"/>
<defs>
<linearGradient id="paint0_linear_4475_40750" x1="7.61719" y1="22.603" x2="37.3489" y2="22.603" gradientUnits="userSpaceOnUse">
<stop stop-color="#42D8BC"/>
<stop offset="1" stop-color="#039AEC"/>
</linearGradient>
</defs>
</svg>
