<svg width="466" height="373" viewBox="0 0 466 373" fill="none" xmlns="http://www.w3.org/2000/svg">
<path d="M17.2 346.2H453.8" stroke="#263238" stroke-miterlimit="10" stroke-linecap="round" stroke-linejoin="round"/>
<path d="M1 346.2H10.3" stroke="#263238" stroke-miterlimit="10" stroke-linecap="round" stroke-linejoin="round"/>
<path d="M377.1 224.2C377.1 224.2 374.6 231.1 369.3 232C364 232.9 354.6 222.6 360.5 217.3C366.4 211.9 374.6 220.4 377.1 224.2Z" fill="url(#paint0_linear_3385_67197)" stroke="#263238" stroke-miterlimit="10" stroke-linecap="round" stroke-linejoin="round"/>
<path d="M385.3 190.3C385.3 190.3 377.5 209.4 380.6 218.8C383.7 228.2 403.2 235.1 408.8 222.9C414.4 210.7 401.9 193.4 397.2 189.6C392.5 185.9 386.8 187.1 385.3 190.3Z" fill="url(#paint1_linear_3385_67197)" stroke="#263238" stroke-miterlimit="10" stroke-linecap="round" stroke-linejoin="round"/>
<path d="M431.1 198.4C431.1 198.4 417.6 210.6 416 222.9C414.4 235.1 423.5 239.5 432.9 238C442.3 236.4 447 212.6 444.2 201.6C441.4 190.6 431.1 198.4 431.1 198.4Z" fill="url(#paint2_linear_3385_67197)" stroke="#263238" stroke-miterlimit="10" stroke-linecap="round" stroke-linejoin="round"/>
<path d="M433.6 266.2C433.6 266.2 418.5 266.8 417.9 274C417.3 281.2 424.5 282.8 431.7 276.5C438.9 270.3 439.9 266.5 433.6 266.2Z" fill="url(#paint3_linear_3385_67197)" stroke="#263238" stroke-miterlimit="10" stroke-linecap="round" stroke-linejoin="round"/>
<path d="M418.1 275.8C418.1 275.8 430 270.4 435.3 269.4" stroke="#263238" stroke-miterlimit="10" stroke-linecap="round" stroke-linejoin="round"/>
<path d="M396.3 281.3C396.3 281.3 394.7 288.8 389.1 291.7C383.5 294.5 373.4 288.6 378.7 279.5C384 270.3 393.4 277.5 396.3 281.3Z" fill="url(#paint4_linear_3385_67197)" stroke="#263238" stroke-miterlimit="10" stroke-linecap="round" stroke-linejoin="round"/>
<path d="M383.1 257.7C383.1 257.7 380.3 251.4 369.3 255.5C358.3 259.6 353.9 265.9 360.8 268C367.7 270.3 383.1 257.7 383.1 257.7Z" fill="url(#paint5_linear_3385_67197)" stroke="#263238" stroke-miterlimit="10" stroke-linecap="round" stroke-linejoin="round"/>
<path d="M381 257.4C381 257.4 369.4 258.7 363.1 264" stroke="#263238" stroke-miterlimit="10" stroke-linecap="round" stroke-linejoin="round"/>
<path d="M414.4 182.4C414.4 182.4 416.3 186.8 420 185.9C423.8 185 424.7 179.3 430.7 180.9C436.7 182.5 441.7 189.4 441.7 186.2C441.7 183.1 434.2 174.9 425.7 174.9C417.3 174.9 414.8 178.3 414.4 182.4Z" fill="url(#paint6_linear_3385_67197)" stroke="#263238" stroke-miterlimit="10" stroke-linecap="round" stroke-linejoin="round"/>
<path d="M406.9 308.1C406.9 308.1 408.3 281.8 406.9 265.4C405.5 249 398.9 229.8 398.9 229.8L391 194.5" stroke="#263238" stroke-miterlimit="10" stroke-linecap="round" stroke-linejoin="round"/>
<path d="M410.2 308.1C410.2 308.1 410.7 286.5 412.5 272.5C414.4 258.4 421.9 236.4 421.9 236.4L436 206.2" stroke="#263238" stroke-miterlimit="10" stroke-linecap="round" stroke-linejoin="round"/>
<path d="M418.1 275.8C418.1 275.8 414.8 276.7 412.9 308.6" stroke="#263238" stroke-miterlimit="10" stroke-linecap="round" stroke-linejoin="round"/>
<path d="M402.2 307.6C402.2 307.6 403.1 290.7 401.3 284.6C399.4 278.5 396.3 281.2 396.3 281.2C396.3 281.2 387.6 282.2 384.5 287.3" stroke="#263238" stroke-miterlimit="10" stroke-linecap="round" stroke-linejoin="round"/>
<path d="M404.4 278.2C406.9 291.9 404.6 307.1 404.6 307.1" stroke="#263238" stroke-miterlimit="10" stroke-linecap="round" stroke-linejoin="round"/>
<path d="M383.1 257.7C383.1 257.7 396.6 255.1 402.2 270.1C402.8 271.6 403.2 273.1 403.6 274.7" stroke="#263238" stroke-miterlimit="10" stroke-linecap="round" stroke-linejoin="round"/>
<path d="M439.5 243.2C439.5 243.2 442.3 236.9 453.3 241C464.3 245.1 468.7 251.4 461.8 253.5C454.8 255.7 439.5 243.2 439.5 243.2Z" fill="url(#paint7_linear_3385_67197)" stroke="#263238" stroke-miterlimit="10" stroke-linecap="round" stroke-linejoin="round"/>
<path d="M442 243.6C442 243.6 453.3 243 458.7 249.6" stroke="#263238" stroke-miterlimit="10" stroke-linecap="round" stroke-linejoin="round"/>
<path d="M427.4 245.9C424.7 247.8 422.1 250.8 420.3 255.6C414.7 270.6 415.3 307.6 415.3 307.6" stroke="#263238" stroke-miterlimit="10" stroke-linecap="round" stroke-linejoin="round"/>
<path d="M439.5 243.2C439.5 243.2 435 242.3 430.1 244.5" stroke="#263238" stroke-miterlimit="10" stroke-linecap="round" stroke-linejoin="round"/>
<path d="M391.9 233.7C394.8 237.1 397.7 241.8 399.9 248.1C407.4 269.7 410.2 297.3 408.8 307.6" stroke="#263238" stroke-miterlimit="10" stroke-linecap="round" stroke-linejoin="round"/>
<path d="M390.3 231.9C383.7 225.1 377.1 224.1 377.1 224.1C377.1 224.1 367.4 221.5 363.7 225" stroke="#263238" stroke-miterlimit="10" stroke-linecap="round" stroke-linejoin="round"/>
<path d="M411 253.9C410.5 281.1 410.2 308.1 410.2 308.1" stroke="#263238" stroke-miterlimit="10" stroke-linecap="round" stroke-linejoin="round"/>
<path d="M411 250.5C411.3 232.5 411.7 214.9 412 205.4C412.9 181 414.4 182.4 414.4 182.4C414.4 182.4 416.1 176.9 425.9 177.6" stroke="#263238" stroke-miterlimit="10" stroke-linecap="round" stroke-linejoin="round"/>
<path d="M425.2 355.9H394.7C392.6 355.9 390.9 354.3 390.7 352.2L386.3 307.1H433.6L429.2 352.2C429 354.3 427.3 355.9 425.2 355.9Z" fill="#263238" stroke="#263238" stroke-miterlimit="10" stroke-linecap="round" stroke-linejoin="round"/>
<path d="M387.7 321.7L388.2 326.9H431.7L432.2 321.7H387.7Z" fill="white" stroke="#263238" stroke-miterlimit="10" stroke-linecap="round" stroke-linejoin="round"/>
<path d="M430.6 338.1L430.9 335.3H389L389.3 338.1H430.6Z" fill="white" stroke="#263238" stroke-miterlimit="10" stroke-linecap="round" stroke-linejoin="round"/>
<path d="M34.8 132V140.9" stroke="#263238" stroke-miterlimit="10" stroke-linecap="round" stroke-linejoin="round"/>
<path d="M39.2 136.5H30.3" stroke="#263238" stroke-miterlimit="10" stroke-linecap="round" stroke-linejoin="round"/>
<path d="M411.9 154.9V163.8" stroke="#263238" stroke-miterlimit="10" stroke-linecap="round" stroke-linejoin="round"/>
<path d="M416.4 159.3H407.5" stroke="#263238" stroke-miterlimit="10" stroke-linecap="round" stroke-linejoin="round"/>
<path d="M364.2 52.5V61.4" stroke="#263238" stroke-miterlimit="10" stroke-linecap="round" stroke-linejoin="round"/>
<path d="M368.7 57H359.8" stroke="#263238" stroke-miterlimit="10" stroke-linecap="round" stroke-linejoin="round"/>
<path d="M184.9 1V9.9" stroke="#263238" stroke-miterlimit="10" stroke-linecap="round" stroke-linejoin="round"/>
<path d="M189.4 5.40002H180.5" stroke="#263238" stroke-miterlimit="10" stroke-linecap="round" stroke-linejoin="round"/>
<path d="M129.5 321.5V330.3" stroke="#263238" stroke-miterlimit="10" stroke-linecap="round" stroke-linejoin="round"/>
<path d="M134 325.9H125.1" stroke="#263238" stroke-miterlimit="10" stroke-linecap="round" stroke-linejoin="round"/>
<path d="M19.5 257.2V266.1" stroke="#263238" stroke-miterlimit="10" stroke-linecap="round" stroke-linejoin="round"/>
<path d="M23.9 261.7H15.1" stroke="#263238" stroke-miterlimit="10" stroke-linecap="round" stroke-linejoin="round"/>
<path d="M333.241 25.7752C334.164 21.8508 331.731 17.921 327.806 16.9977C323.882 16.0745 319.952 18.5074 319.029 22.4318C318.106 26.3563 320.539 30.2861 324.463 31.2094C328.387 32.1326 332.317 29.6997 333.241 25.7752Z" stroke="#263238" stroke-miterlimit="10" stroke-linecap="round" stroke-linejoin="round"/>
<path d="M314.008 322.799C314.932 318.875 312.499 314.945 308.574 314.022C304.65 313.098 300.72 315.531 299.797 319.456C298.874 323.38 301.306 327.31 305.231 328.233C309.155 329.157 313.085 326.724 314.008 322.799Z" stroke="#263238" stroke-miterlimit="10" stroke-linecap="round" stroke-linejoin="round"/>
<path d="M19.5955 200.145C23.3204 198.602 25.0892 194.331 23.5463 190.606C22.0034 186.882 17.733 185.113 14.0081 186.656C10.2832 188.199 8.51443 192.469 10.0574 196.194C11.6003 199.919 15.8707 201.688 19.5955 200.145Z" stroke="#263238" stroke-miterlimit="10" stroke-linecap="round" stroke-linejoin="round"/>
<path d="M366.8 99.1C366.8 100 366.1 100.8 365.1 100.8C364.2 100.8 363.4 100.1 363.4 99.1C363.4 98.2 364.1 97.4 365.1 97.4C366 97.4 366.8 98.1 366.8 99.1Z" stroke="#263238" stroke-miterlimit="10" stroke-linecap="round" stroke-linejoin="round"/>
<path d="M104.3 24.2C104.3 25.1 103.6 25.9 102.6 25.9C101.6 25.9 100.9 25.2 100.9 24.2C100.9 23.3 101.6 22.5 102.6 22.5C103.6 22.5 104.3 23.3 104.3 24.2Z" stroke="#263238" stroke-miterlimit="10" stroke-linecap="round" stroke-linejoin="round"/>
<path d="M240.3 317.3C240.3 318.2 239.6 319 238.6 319C237.6 319 236.9 318.3 236.9 317.3C236.9 316.4 237.6 315.6 238.6 315.6C239.6 315.6 240.3 316.3 240.3 317.3Z" stroke="#263238" stroke-miterlimit="10" stroke-linecap="round" stroke-linejoin="round"/>
<path d="M226.3 321.8L223 295H210H182.1H169.1L165.8 321.8C165.8 322.3 165.7 322.9 165.6 323.4C164.3 332.7 158.4 340.7 150.1 345.1L135.7 352.8H182.2H210.1H256.4L242 345.1C233.7 340.7 227.8 332.7 226.5 323.4C226.4 322.8 226.3 322.3 226.3 321.8Z" fill="white" stroke="#263238" stroke-miterlimit="10" stroke-linecap="round" stroke-linejoin="round"/>
<path d="M224.4 312L222.9 295H209.9H182H169L167.5 312H224.4Z" fill="#263238" stroke="#263238" stroke-miterlimit="10" stroke-linecap="round" stroke-linejoin="round"/>
<path d="M256.2 352.8H135.6V356H256.2V352.8Z" fill="white" stroke="#263238" stroke-miterlimit="10" stroke-linecap="round" stroke-linejoin="round"/>
<path d="M170.3 334.4H214.3" stroke="#263238" stroke-miterlimit="10" stroke-linecap="round" stroke-linejoin="round"/>
<path d="M225.6 334.4H220.2" stroke="#263238" stroke-miterlimit="10" stroke-linecap="round" stroke-linejoin="round"/>
<path d="M331.1 300.4H60.8C55.2 300.4 50.6 295.8 50.6 290.2V73.8C50.6 69.4 54.2 65.9 58.5 65.9H333.4C337.8 65.9 341.3 69.5 341.3 73.8V290.2C341.3 295.8 336.8 300.4 331.1 300.4Z" fill="white" stroke="#263238" stroke-miterlimit="10" stroke-linecap="round" stroke-linejoin="round"/>
<path d="M341.3 261.5V74.4C341.3 69.7 337.5 65.8 332.7 65.8H59.2C54.5 65.8 50.6 69.6 50.6 74.4V261.5H341.3Z" fill="#263238" stroke="#263238" stroke-miterlimit="10" stroke-linecap="round" stroke-linejoin="round"/>
<path d="M328.2 75.1H63.7V261.6H328.2V75.1Z" fill="url(#paint8_linear_3385_67197)" stroke="#263238" stroke-miterlimit="10" stroke-linecap="round" stroke-linejoin="round"/>
<path d="M273 104.7H91V94C91 90.5 93.9 87.6 97.4 87.6H266.6C270.1 87.6 273 90.5 273 94V104.7Z" fill="#263238" stroke="#263238" stroke-miterlimit="10" stroke-linecap="round" stroke-linejoin="round"/>
<path d="M239.4 96.1C239.4 97.6 238.2 98.7 236.8 98.7C235.4 98.7 234.2 97.5 234.2 96.1C234.2 94.6 235.4 93.5 236.8 93.5C238.2 93.5 239.4 94.6 239.4 96.1Z" fill="white" stroke="#263238" stroke-miterlimit="10" stroke-linecap="round" stroke-linejoin="round"/>
<path d="M250 96.1C250 97.6 248.8 98.7 247.4 98.7C245.9 98.7 244.8 97.5 244.8 96.1C244.8 94.6 246 93.5 247.4 93.5C248.8 93.5 250 94.6 250 96.1Z" fill="white" stroke="#263238" stroke-miterlimit="10" stroke-linecap="round" stroke-linejoin="round"/>
<path d="M260.5 96.1C260.5 97.6 259.3 98.7 257.9 98.7C256.5 98.7 255.3 97.5 255.3 96.1C255.3 94.6 256.5 93.5 257.9 93.5C259.3 93.5 260.5 94.6 260.5 96.1Z" fill="white" stroke="#263238" stroke-miterlimit="10" stroke-linecap="round" stroke-linejoin="round"/>
<path d="M266.7 241.8H97.4C93.9 241.8 91.1 239 91.1 235.5V93.9C91.1 90.4 94 87.5 97.5 87.5H266.7C270.2 87.5 273.1 90.4 273.1 93.9V235.5C273 239 270.2 241.8 266.7 241.8Z" stroke="#263238" stroke-miterlimit="10" stroke-linecap="round" stroke-linejoin="round"/>
<path d="M99.7 100.8V242.4" stroke="#263238" stroke-width="0.25" stroke-miterlimit="10" stroke-linecap="round" stroke-linejoin="round"/>
<path d="M110.7 100.8V242.4" stroke="#263238" stroke-width="0.25" stroke-miterlimit="10" stroke-linecap="round" stroke-linejoin="round"/>
<path d="M121.7 100.8V242.4" stroke="#263238" stroke-width="0.25" stroke-miterlimit="10" stroke-linecap="round" stroke-linejoin="round"/>
<path d="M132.8 100.8V242.4" stroke="#263238" stroke-width="0.25" stroke-miterlimit="10" stroke-linecap="round" stroke-linejoin="round"/>
<path d="M143.8 100.8V242.4" stroke="#263238" stroke-width="0.25" stroke-miterlimit="10" stroke-linecap="round" stroke-linejoin="round"/>
<path d="M154.8 100.8V242.4" stroke="#263238" stroke-width="0.25" stroke-miterlimit="10" stroke-linecap="round" stroke-linejoin="round"/>
<path d="M165.8 100.8V242.4" stroke="#263238" stroke-width="0.25" stroke-miterlimit="10" stroke-linecap="round" stroke-linejoin="round"/>
<path d="M176.8 100.8V242.4" stroke="#263238" stroke-width="0.25" stroke-miterlimit="10" stroke-linecap="round" stroke-linejoin="round"/>
<path d="M187.9 100.8V242.4" stroke="#263238" stroke-width="0.25" stroke-miterlimit="10" stroke-linecap="round" stroke-linejoin="round"/>
<path d="M198.9 100.8V242.4" stroke="#263238" stroke-width="0.25" stroke-miterlimit="10" stroke-linecap="round" stroke-linejoin="round"/>
<path d="M209.9 100.8V242.4" stroke="#263238" stroke-width="0.25" stroke-miterlimit="10" stroke-linecap="round" stroke-linejoin="round"/>
<path d="M220.9 100.8V242.4" stroke="#263238" stroke-width="0.25" stroke-miterlimit="10" stroke-linecap="round" stroke-linejoin="round"/>
<path d="M231.9 100.8V242.4" stroke="#263238" stroke-width="0.25" stroke-miterlimit="10" stroke-linecap="round" stroke-linejoin="round"/>
<path d="M243 100.8V242.4" stroke="#263238" stroke-width="0.25" stroke-miterlimit="10" stroke-linecap="round" stroke-linejoin="round"/>
<path d="M254 100.8V242.4" stroke="#263238" stroke-width="0.25" stroke-miterlimit="10" stroke-linecap="round" stroke-linejoin="round"/>
<path d="M265 100.8V242.4" stroke="#263238" stroke-width="0.25" stroke-miterlimit="10" stroke-linecap="round" stroke-linejoin="round"/>
<path d="M91.3 115.1H273.4" stroke="#263238" stroke-width="0.25" stroke-miterlimit="10" stroke-linecap="round" stroke-linejoin="round"/>
<path d="M91.3 128.4H273.4" stroke="#263238" stroke-width="0.25" stroke-miterlimit="10" stroke-linecap="round" stroke-linejoin="round"/>
<path d="M91.3 141.8H273.4" stroke="#263238" stroke-width="0.25" stroke-miterlimit="10" stroke-linecap="round" stroke-linejoin="round"/>
<path d="M91.3 155.1H273.4" stroke="#263238" stroke-width="0.25" stroke-miterlimit="10" stroke-linecap="round" stroke-linejoin="round"/>
<path d="M91.3 168.5H273.4" stroke="#263238" stroke-width="0.25" stroke-miterlimit="10" stroke-linecap="round" stroke-linejoin="round"/>
<path d="M91.3 181.8H273.4" stroke="#263238" stroke-width="0.25" stroke-miterlimit="10" stroke-linecap="round" stroke-linejoin="round"/>
<path d="M91.3 195.2H273.4" stroke="#263238" stroke-width="0.25" stroke-miterlimit="10" stroke-linecap="round" stroke-linejoin="round"/>
<path d="M91.3 208.5H273.4" stroke="#263238" stroke-width="0.25" stroke-miterlimit="10" stroke-linecap="round" stroke-linejoin="round"/>
<path d="M91.3 221.9H273.4" stroke="#263238" stroke-width="0.25" stroke-miterlimit="10" stroke-linecap="round" stroke-linejoin="round"/>
<path d="M91.3 235.3H273.4" stroke="#263238" stroke-width="0.25" stroke-miterlimit="10" stroke-linecap="round" stroke-linejoin="round"/>
<path d="M350.9 154.9C350.9 154.9 346.3 158.9 346.3 159.7C346.3 160.5 345 169.1 345 169.1L351.3 171.7L353.9 167.2C353.9 167.2 355.2 165.4 356.2 163.7C357.2 162 359.5 160.2 359.5 160.2L357 159.7L354 162.8L353.7 158.3L350.9 154.9Z" fill="white" stroke="#263238" stroke-miterlimit="10" stroke-linecap="round" stroke-linejoin="round"/>
<path d="M345 169.1C345 169.1 335.9 179.7 333.1 183.3C330.3 186.9 322.4 195 319.5 200.2C316.7 205.3 317.4 211.6 319.8 213.6C322.3 215.6 332 211.3 336.2 202.9C340.3 194.5 351.2 171.8 351.2 171.8L345 169.1Z" fill="white" stroke="#263238" stroke-miterlimit="10" stroke-linecap="round" stroke-linejoin="round"/>
<path d="M355.9 135.5C355.9 135.5 354.6 140.3 353.6 142.4C352.6 144.5 347.8 146.4 348.3 147C348.8 147.7 351.3 149.8 351.3 149.8C351.3 149.8 351.5 160.7 353 161C354.5 161.3 359.6 160.2 359.6 160.2L358.6 167.8L371.3 166L372.5 155.3C372.5 155.3 378.1 151 378.1 146.9C378.1 142.8 371.5 134.5 365.2 132.8C358.9 131.2 357.7 132.4 355.9 135.5Z" fill="white" stroke="#263238" stroke-miterlimit="10" stroke-linecap="round" stroke-linejoin="round"/>
<path d="M356 143.1C355.9 143.9 355.5 144.5 355.1 144.5C354.7 144.5 354.6 143.7 354.7 142.9C354.8 142.1 355.2 141.5 355.6 141.5C356 141.6 356.1 142.3 356 143.1Z" fill="#263238"/>
<path d="M355.8 140.1C355.8 139.6 356.9 139 357.2 140.6" stroke="#263238" stroke-miterlimit="10" stroke-linecap="round" stroke-linejoin="round"/>
<path d="M352 151.7C352 151.7 353 151.9 354.4 151.1" stroke="#263238" stroke-miterlimit="10" stroke-linecap="round" stroke-linejoin="round"/>
<path d="M362.8 124.3C362.8 124.3 365.3 119.8 360.7 120.8C356.1 121.8 349.8 130.9 352.1 135C354.4 139.1 357.6 137.5 357.6 137.5C357.6 137.5 359.1 139.6 360.2 140.8C361.4 142 362.8 143.1 362.8 143.1C362.8 143.1 364 153 365.9 155.7C367.9 158.3 370.2 159.2 372 158.2C373.8 157.2 377 154.9 377 154.9C377 154.9 384.9 148.9 385.4 143.7C385.9 138.4 385.6 135.1 382.6 131.5C379.6 127.9 375.2 126.2 375.2 126.2C375.2 126.2 376.5 121.7 372.6 121.4C368.6 121 362.8 124.3 362.8 124.3Z" fill="#263238" stroke="#263238" stroke-miterlimit="10" stroke-linecap="round" stroke-linejoin="round"/>
<path d="M360.5 144.8C360.5 144.8 363.8 140.5 365.3 142C366.8 143.5 365.5 148.9 364.3 150.8C363.1 152.6 360.3 151.1 360.2 150.3" fill="white"/>
<path d="M360.5 144.8C360.5 144.8 363.8 140.5 365.3 142C366.8 143.5 365.5 148.9 364.3 150.8C363.1 152.6 360.3 151.1 360.2 150.3" stroke="#263238" stroke-miterlimit="10" stroke-linecap="round" stroke-linejoin="round"/>
<path d="M351.6 172.9L356.7 166.9L374.7 165L376.1 170.7L351.6 172.9Z" fill="white" stroke="#263238" stroke-miterlimit="10" stroke-linecap="round" stroke-linejoin="round"/>
<path d="M384.3 238.4L382 235.2L381.9 250.7C381.9 250.7 386.6 246.2 386.8 243.8C387 241.4 384.3 238.4 384.3 238.4Z" fill="white" stroke="#263238" stroke-miterlimit="10" stroke-linecap="round" stroke-linejoin="round"/>
<path d="M390.6 175.4C390.6 175.4 409.4 213.8 410.8 216.4C412.1 219 409.3 220 409.3 220L386.8 243.8L384.3 238.4L393.9 214.8L385.1 200.7C385.2 200.8 390 176.9 390.6 175.4Z" fill="white" stroke="#263238" stroke-miterlimit="10" stroke-linecap="round" stroke-linejoin="round"/>
<path d="M390.8 187.7L393.9 214.9L389 206.6L390.8 187.7Z" fill="#263238" stroke="#263238" stroke-miterlimit="10" stroke-linecap="round" stroke-linejoin="round"/>
<path d="M339.6 237.1C339.6 237.1 339.6 237.5 339.6 238.3C339.5 246.4 339 293.3 340.3 310.1C341.8 328.5 344.7 355.9 344.7 355.9C344.7 355.9 342.8 356.5 342.8 357.4C342.8 358.4 342.2 361.2 342.2 361.2C342.2 361.2 338 363.5 335.2 364.5C332.4 365.5 330.1 367.4 331.4 368.3C332.7 369.3 339 370 345.2 370.8C351.5 371.6 356.2 371.8 357 371C357.8 370.2 357.6 366 357.4 364.5C357.2 363 357.6 359.9 357.4 357.4C357.2 354.9 356.3 352.8 356.3 351.3C356.3 349.8 357.2 303.8 357.2 303.8L360 286.6L362.7 275.7C362.7 275.7 364.2 303.8 364.8 305.2C365.4 306.5 375.1 356.9 375.1 356.9L374 358.8L374.2 361.3C374.2 361.3 372.1 363.4 369.5 364.7C366.8 366 364.4 366.8 366.3 368.3C368.2 369.8 376 370.2 377.7 370.4C379.4 370.6 385.5 370.8 386.2 370.6C386.9 370.4 388.1 370.6 388.3 367.9C388.5 365.2 387.7 362.3 387.5 361.6C387.3 360.8 386.7 358.2 386.6 355.7C386.4 353.2 385.8 350.7 385.8 350.7L382.9 300.4L383.8 251C383.8 251 383.8 246.4 383.2 242.4C382.6 238.4 382.1 235.3 382.1 235.3L340.4 233.6" fill="#263238"/>
<path d="M339.6 237.1C339.6 237.1 339.6 237.5 339.6 238.3C339.5 246.4 339 293.3 340.3 310.1C341.8 328.5 344.7 355.9 344.7 355.9C344.7 355.9 342.8 356.5 342.8 357.4C342.8 358.4 342.2 361.2 342.2 361.2C342.2 361.2 338 363.5 335.2 364.5C332.4 365.5 330.1 367.4 331.4 368.3C332.7 369.3 339 370 345.2 370.8C351.5 371.6 356.2 371.8 357 371C357.8 370.2 357.6 366 357.4 364.5C357.2 363 357.6 359.9 357.4 357.4C357.2 354.9 356.3 352.8 356.3 351.3C356.3 349.8 357.2 303.8 357.2 303.8L360 286.6L362.7 275.7C362.7 275.7 364.2 303.8 364.8 305.2C365.4 306.5 375.1 356.9 375.1 356.9L374 358.8L374.2 361.3C374.2 361.3 372.1 363.4 369.5 364.7C366.8 366 364.4 366.8 366.3 368.3C368.2 369.8 376 370.2 377.7 370.4C379.4 370.6 385.5 370.8 386.2 370.6C386.9 370.4 388.1 370.6 388.3 367.9C388.5 365.2 387.7 362.3 387.5 361.6C387.3 360.8 386.7 358.2 386.6 355.7C386.4 353.2 385.8 350.7 385.8 350.7L382.9 300.4L383.8 251C383.8 251 383.8 246.4 383.2 242.4C382.6 238.4 382.1 235.3 382.1 235.3L340.4 233.6" stroke="#263238" stroke-miterlimit="10" stroke-linecap="round" stroke-linejoin="round"/>
<path d="M321.8 204.1L333.7 190.4C333.7 190.4 342.1 176 342.8 174.7C343.5 173.4 351.6 172.9 351.6 172.9L376.1 170.8C376.1 170.8 390.3 174.3 390.6 175.4C390.9 176.6 390 200.3 389.5 203.6C389 206.9 383 237.9 382.5 239.7C382 241.5 375.1 242.5 363.5 243.2C351.9 243.9 342 239.7 341.2 239.1C340.4 238.4 339.5 237.8 339.7 236.6C339.9 235.4 342.3 207.3 342.3 207.3C342.3 207.3 329.7 216.1 326.8 216.7C323.8 217.4 318.7 214.4 318 210.3C317.3 206.2 319.8 204 319.8 204" fill="white"/>
<path d="M321.8 204.1L333.7 190.4C333.7 190.4 342.1 176 342.8 174.7C343.5 173.4 351.6 172.9 351.6 172.9L376.1 170.8C376.1 170.8 390.3 174.3 390.6 175.4C390.9 176.6 390 200.3 389.5 203.6C389 206.9 383 237.9 382.5 239.7C382 241.5 375.1 242.5 363.5 243.2C351.9 243.9 342 239.7 341.2 239.1C340.4 238.4 339.5 237.8 339.7 236.6C339.9 235.4 342.3 207.3 342.3 207.3C342.3 207.3 329.7 216.1 326.8 216.7C323.8 217.4 318.7 214.4 318 210.3C317.3 206.2 319.8 204 319.8 204" stroke="#263238" stroke-miterlimit="10" stroke-linecap="round" stroke-linejoin="round"/>
<path d="M377.1 189.1C377.1 189.1 367.1 208.7 362.5 214.6" stroke="#263238" stroke-miterlimit="10" stroke-linecap="round" stroke-linejoin="round"/>
<path d="M372.9 201.7L367.4 211.3" stroke="#263238" stroke-miterlimit="10" stroke-linecap="round" stroke-linejoin="round"/>
<path d="M353.6 196.4L342.3 207.3L352.3 203" stroke="#263238" stroke-miterlimit="10" stroke-linecap="round" stroke-linejoin="round"/>
<path d="M184.3 261.5H210.4L211.3 212.5L200.8 147.8L170.6 148.2L184.9 218.5L184.3 261.5Z" fill="white" stroke="#263238" stroke-miterlimit="10" stroke-linecap="round" stroke-linejoin="round"/>
<path d="M203.5 215.4L210.3 261.5H246.6C245.3 256.2 234.2 211.7 234.2 208.9C234.2 206 226.4 157.6 224.4 154.7C222.4 151.8 195.4 140.7 195.4 140.7L198.1 156.3L203.5 215.4Z" fill="#263238" stroke="#263238" stroke-miterlimit="10" stroke-linecap="round" stroke-linejoin="round"/>
<path d="M220.9 176.3C223.1 186.6 225.6 197 226.7 207.5C227.9 218.8 226 230.8 225.4 242.1C225.1 246.6 225.3 250.9 225.6 255.4" stroke="#8C8C8C" stroke-miterlimit="10" stroke-linecap="round" stroke-linejoin="round"/>
<path d="M160.9 128.8C168.466 128.8 174.6 122.801 174.6 115.4C174.6 107.999 168.466 102 160.9 102C153.334 102 147.2 107.999 147.2 115.4C147.2 122.801 153.334 128.8 160.9 128.8Z" fill="#828282" stroke="#263238" stroke-miterlimit="10" stroke-linecap="round" stroke-linejoin="round"/>
<path d="M133.2 261.5H184.4C185 255.5 188 223.4 189 216.5C190.1 208.9 177.9 159.9 177.9 159.9L168.5 138.5L130.6 153.6L145.1 231.4L133.2 261.5Z" fill="#263238" stroke="#263238" stroke-miterlimit="10" stroke-linecap="round" stroke-linejoin="round"/>
<path d="M170.1 132.3C170.1 132.3 168.5 132.3 166.9 134.3C165.9 135.5 164 144.1 163.7 145.9C163.2 149.1 162.5 172.6 162.5 172.6C162.5 172.6 180 163.7 180.7 163.7C181.4 163.7 189.3 167.1 189.3 167.1C189.3 167.1 191.8 166.7 192.5 166.2C193.2 165.7 197.5 159.8 197.5 159.8L212.6 169.4C212.6 169.4 201.2 142.9 198.5 138.6C195.8 134.3 193.9 133.1 192.1 132.5C190.2 131.9 170.1 132.3 170.1 132.3Z" fill="white" stroke="#263238" stroke-miterlimit="10" stroke-linecap="round" stroke-linejoin="round"/>
<path d="M169.6 108.8C169.6 108.8 171.6 123.9 170.8 128.9C170.1 133.9 168.5 131.4 170.1 137.1C171.7 142.8 183.8 161.5 186.3 164.7C188.8 167.9 191.3 166.8 192.2 163.5C193.1 160.1 193.8 139.4 193.8 139.4L196.3 130.3L169.6 108.8Z" fill="white" stroke="#263238" stroke-miterlimit="10" stroke-linecap="round" stroke-linejoin="round"/>
<path d="M179.4 126.6L192.8 142.7L193.8 139.4L196.3 130.3L179.4 126.6Z" fill="#263238" stroke="#263238" stroke-miterlimit="10" stroke-linecap="round" stroke-linejoin="round"/>
<path d="M211.5 93.1C211.5 93.1 211.2 107.5 211.3 110.6C211.5 113.7 211.1 119.2 208.9 123.9C206.6 128.6 199.7 133.1 196 133.1C192.3 133.1 184.8 130.3 179.5 126.6C174.9 123.4 170.3 117.4 169 115.6C167.7 113.8 165.8 106.4 165.8 106.4L164.7 100.3L163.6 95.3C163.6 95.3 173.8 95.6 179.3 90C184.8 84.3 196.4 73.2 196.4 73.2L210 87L211.5 93.1Z" fill="white" stroke="#263238" stroke-miterlimit="10" stroke-linecap="round" stroke-linejoin="round"/>
<path d="M198.4 98.9C198.4 98.9 198.2 103.6 199.4 105.5C200.5 107.4 203.6 109.9 202.8 111.2C202 112.5 197.3 112.7 196.8 112.3" stroke="#263238" stroke-miterlimit="10" stroke-linecap="round" stroke-linejoin="round"/>
<path d="M188 115.6C188 115.6 190.8 120.8 197.7 120" stroke="#263238" stroke-miterlimit="10" stroke-linecap="round" stroke-linejoin="round"/>
<path d="M193.2 96C193.2 96 188.5 92.8 183.2 95.4" stroke="#263238" stroke-miterlimit="10" stroke-linecap="round" stroke-linejoin="round"/>
<path d="M200.5 95C200.5 95 204.9 91 208.6 94.5" stroke="#263238" stroke-miterlimit="10" stroke-linecap="round" stroke-linejoin="round"/>
<path d="M189.3 103C189.3 104.5 188.6 105.8 187.8 105.8C187 105.8 186.3 104.6 186.3 103C186.3 101.5 187 100.2 187.8 100.2C188.6 100.2 189.3 101.4 189.3 103Z" fill="#263238"/>
<path d="M206.3 102.5C206.3 104 205.6 105.3 204.8 105.3C204 105.3 203.3 104.1 203.3 102.5C203.3 101 204 99.7 204.8 99.7C205.6 99.7 206.3 101 206.3 102.5Z" fill="#263238"/>
<path d="M195.8 77.2C195.8 77.2 193.5 84.5 187.1 90.5C180.7 96.5 171.1 98.3 171.1 98.3C171.1 98.3 171.6 100.8 171 101.7C170.4 102.6 168.9 103.5 168.9 103.5C168.9 103.5 165.1 104.1 161.6 100.4C158.1 96.6 158.5 79.3 165.1 70.8C171.7 62.2 192.1 60.9 198 63.4C203.8 65.9 201.6 67 201.6 67C201.6 67 210.7 71 216.3 77.5C221.9 84 211.5 93.1 211.5 93.1L195.8 77.2Z" fill="#828282" stroke="#263238" stroke-miterlimit="10" stroke-linecap="round" stroke-linejoin="round"/>
<path d="M162.9 99.7C162.9 99.7 161.1 75.9 175 64.4L181.1 62.8C181.1 62.8 167 76.1 165.9 100.2L162.9 99.7Z" fill="#263238" stroke="#263238" stroke-miterlimit="10" stroke-linecap="round" stroke-linejoin="round"/>
<path d="M171.6 104.8C173.7 108.9 172.7 113.7 169.3 115.4C165.9 117.1 161.5 115.2 159.3 111.1C157.2 107 158.2 102.2 161.6 100.5C165 98.8 169.4 100.7 171.6 104.8Z" fill="#263238" stroke="#263238" stroke-miterlimit="10" stroke-linecap="round" stroke-linejoin="round"/>
<path d="M168.1 111C168.1 111 177.6 123.5 189.3 127.8" stroke="#263238" stroke-miterlimit="10" stroke-linecap="round" stroke-linejoin="round"/>
<path d="M192.2 128.7C191.7 129.8 190.2 130.2 188.8 129.6C187.4 129 186.6 127.6 187.1 126.5C187.6 125.4 189.1 125 190.5 125.6C191.9 126.2 192.6 127.6 192.2 128.7Z" fill="#263238" stroke="#263238" stroke-miterlimit="10" stroke-linecap="round" stroke-linejoin="round"/>
<path d="M182.2 210.7C182.2 210.7 188.2 206.4 188.7 206C189.2 205.5 193.1 200.2 194.2 198.6C195.3 197 197.3 195.6 198.8 194.3C200.2 193 202.6 190.2 203.7 188.3C204.8 186.4 206.2 184.7 206.7 186.7C207.2 188.7 205.9 191.1 205.4 192.5C204.9 193.9 203.4 196.4 203.4 196.4C203.4 196.4 209.2 192.8 212.7 192.1C216.2 191.5 220.6 191.5 220.7 192.6C220.9 193.7 219.8 194 218.2 194.6C216.6 195.2 212.4 196.8 210.8 197.4C209.2 198 205 201.2 205 201.2C205 201.2 213 199.3 214.8 198.8C216.5 198.3 220.8 198.2 221.7 198.2C222.6 198.2 223.4 199.9 222.2 200.9C220.9 201.8 218.4 203.1 218.4 203.1C218.4 203.1 217.5 204.7 216 206.2C214.6 207.8 213 209.8 211.4 212.2C209.8 214.6 207.5 216.3 204.9 217.6C202.4 218.9 191.7 220 191.7 220L184.5 223.6L182.2 210.7Z" fill="white" stroke="#263238" stroke-miterlimit="10" stroke-linecap="round" stroke-linejoin="round"/>
<path d="M218.2 203.3C218.2 203.3 208.4 205.7 206.2 207.2" stroke="#263238" stroke-miterlimit="10" stroke-linecap="round" stroke-linejoin="round"/>
<path d="M213 209.8C213 209.8 207.5 212.5 206.9 212.6" stroke="#263238" stroke-miterlimit="10" stroke-linecap="round" stroke-linejoin="round"/>
<path d="M144.6 148.7C144.6 148.7 128.3 152.7 127.9 155.2C127.5 157.7 115.9 232.8 115.2 236.1C114.5 239.4 113.6 245 115.9 245.5C118.1 245.9 184.8 225.2 184.8 225.2L181.6 209.2L146.7 213.2L151.8 181.8" fill="#263238"/>
<path d="M144.6 148.7C144.6 148.7 128.3 152.7 127.9 155.2C127.5 157.7 115.9 232.8 115.2 236.1C114.5 239.4 113.6 245 115.9 245.5C118.1 245.9 184.8 225.2 184.8 225.2L181.6 209.2L146.7 213.2L151.8 181.8" stroke="#263238" stroke-miterlimit="10" stroke-linecap="round" stroke-linejoin="round"/>
<path d="M144.6 213.4L128.8 214.2" stroke="#8C8C8C" stroke-miterlimit="10" stroke-linecap="round" stroke-linejoin="round"/>
<path d="M175.3 210.8L144.6 213.4L151.2 187.7" stroke="#8C8C8C" stroke-miterlimit="10" stroke-linecap="round" stroke-linejoin="round"/>
<path d="M295.6 5.59998H223.8C220.2 5.59998 217.3 8.49998 217.3 12.1V48.9C217.3 52.5 220.2 55.4 223.8 55.4H236.4L227.4 77L250.7 55.5H295.6C299.2 55.5 302.1 52.6 302.1 49V12.1C302.1 8.49998 299.2 5.59998 295.6 5.59998Z" fill="#263238" stroke="#263238" stroke-miterlimit="10" stroke-linecap="round" stroke-linejoin="round"/>
<path d="M292.6 3.5H220.8C217.2 3.5 214.3 6.4 214.3 10V46.8C214.3 50.4 217.2 53.3 220.8 53.3H233.4L224.4 74.8L247.7 53.3H292.6C296.2 53.3 299.1 50.4 299.1 46.8V10C299.1 6.4 296.2 3.5 292.6 3.5Z" fill="white" stroke="#263238" stroke-miterlimit="10" stroke-linecap="round" stroke-linejoin="round"/>
<path d="M240.4 31.8C242.278 31.8 243.8 30.2778 243.8 28.4C243.8 26.5222 242.278 25 240.4 25C238.522 25 237 26.5222 237 28.4C237 30.2778 238.522 31.8 240.4 31.8Z" fill="#263238"/>
<path d="M256.7 31.8C258.578 31.8 260.1 30.2778 260.1 28.4C260.1 26.5222 258.578 25 256.7 25C254.822 25 253.3 26.5222 253.3 28.4C253.3 30.2778 254.822 31.8 256.7 31.8Z" fill="#263238"/>
<path d="M272.9 31.8C274.778 31.8 276.3 30.2778 276.3 28.4C276.3 26.5222 274.778 25 272.9 25C271.022 25 269.5 26.5222 269.5 28.4C269.5 30.2778 271.022 31.8 272.9 31.8Z" fill="#263238"/>
<defs>
<linearGradient id="paint0_linear_3385_67197" x1="358.62" y1="223.804" x2="374.268" y2="223.804" gradientUnits="userSpaceOnUse">
<stop stop-color="#43D9BB"/>
<stop offset="1" stop-color="#0299ED"/>
</linearGradient>
<linearGradient id="paint1_linear_3385_67197" x1="379.872" y1="208.38" x2="405.566" y2="208.38" gradientUnits="userSpaceOnUse">
<stop stop-color="#43D9BB"/>
<stop offset="1" stop-color="#0299ED"/>
</linearGradient>
<linearGradient id="paint2_linear_3385_67197" x1="415.816" y1="217" x2="440.53" y2="217" gradientUnits="userSpaceOnUse">
<stop stop-color="#43D9BB"/>
<stop offset="1" stop-color="#0299ED"/>
</linearGradient>
<linearGradient id="paint3_linear_3385_67197" x1="417.865" y1="273.314" x2="434.72" y2="273.314" gradientUnits="userSpaceOnUse">
<stop stop-color="#43D9BB"/>
<stop offset="1" stop-color="#0299ED"/>
</linearGradient>
<linearGradient id="paint4_linear_3385_67197" x1="377.209" y1="283.709" x2="393.374" y2="283.709" gradientUnits="userSpaceOnUse">
<stop stop-color="#43D9BB"/>
<stop offset="1" stop-color="#0299ED"/>
</linearGradient>
<linearGradient id="paint5_linear_3385_67197" x1="357.492" y1="261.197" x2="379.175" y2="261.197" gradientUnits="userSpaceOnUse">
<stop stop-color="#43D9BB"/>
<stop offset="1" stop-color="#0299ED"/>
</linearGradient>
<linearGradient id="paint6_linear_3385_67197" x1="414.4" y1="180.968" x2="437.516" y2="180.968" gradientUnits="userSpaceOnUse">
<stop stop-color="#43D9BB"/>
<stop offset="1" stop-color="#0299ED"/>
</linearGradient>
<linearGradient id="paint7_linear_3385_67197" x1="439.5" y1="246.687" x2="461.184" y2="246.687" gradientUnits="userSpaceOnUse">
<stop stop-color="#43D9BB"/>
<stop offset="1" stop-color="#0299ED"/>
</linearGradient>
<linearGradient id="paint8_linear_3385_67197" x1="63.7" y1="168.35" x2="287.664" y2="168.35" gradientUnits="userSpaceOnUse">
<stop stop-color="#43D9BB"/>
<stop offset="1" stop-color="#0299ED"/>
</linearGradient>
</defs>
</svg>
