<svg width="435" height="435" viewBox="0 0 435 435" fill="none" xmlns="http://www.w3.org/2000/svg">
<g clip-path="url(#clip0_3868_77469)">
<path d="M131.7 68.9H105.6C100 68.9 95.4 64.4 95.4 58.7V32.6C95.4 27 99.9 22.4 105.6 22.4H131.7C137.3 22.4 141.9 26.9 141.9 32.6V58.7C141.9 64.3 137.4 68.9 131.7 68.9Z" fill="#E0E0E0"/>
<path d="M107.9 56.9L109.6 50.6C108.6 48.9 108.1 46.9 108.1 45C108.1 38.6 113.3 33.4 119.7 33.4C126.1 33.4 131.3 38.6 131.3 45C131.3 51.4 126.1 56.6 119.7 56.6C117.8 56.6 115.9 56.1 114.2 55.2L107.9 56.9ZM114.5 52.9L114.9 53.1C116.4 54 118 54.4 119.7 54.4C124.9 54.4 129.1 50.2 129.1 45C129.1 39.8 124.9 35.6 119.7 35.6C114.5 35.6 110.3 39.8 110.3 45C110.3 46.7 110.8 48.4 111.7 49.9L111.9 50.3L111 53.8L114.5 52.9Z" fill="white"/>
<path fill-rule="evenodd" clip-rule="evenodd" d="M124 46.7001C123.5 46.4001 122.9 46.1 122.3 46.3C121.9 46.5 121.6 47.2 121.3 47.5C121.2 47.7 121 47.7 120.8 47.6C119.2 47 117.9 45.9001 117 44.4001C116.8 44.2001 116.9 44 117.1 43.8C117.4 43.5 117.7 43.1001 117.8 42.7001C117.9 42.3001 117.7 41.8001 117.5 41.4001C117.3 40.9001 117 40.2001 116.5 39.9001C116 39.6001 115.5 39.8 115.1 40.1C114.4 40.7 114.1 41.5001 114.1 42.4001C114.1 42.6001 114.1 42.9 114.2 43.1C114.3 43.7 114.6 44.2001 114.9 44.7001C115.1 45.1001 115.4 45.5 115.6 45.8C116.5 47 117.6 48 118.8 48.8C119.4 49.2 120.1 49.5 120.8 49.8C121.6 50.1 122.3 50.3001 123.1 50.2001C124 50.0001 124.9 49.5 125.2 48.6C125.3 48.3 125.4 48.1 125.3 47.8C125.2 47.3 124.4 47.0001 124 46.7001Z" fill="white"/>
<path d="M367.1 350.7C369.4 349.3 371.8 348.3 374.3 347.6L375.8 340.5L387.8 340.3L389.5 347.3C392 347.9 394.5 348.9 396.8 350.2L402.9 346.2L411.5 354.5L407.7 360.7C409.1 363 410.1 365.4 410.8 367.9L417.9 369.4L418.1 381.4L411.1 383.1C410.5 385.6 409.5 388.1 408.2 390.4L412.2 396.5L403.9 405.1L397.7 401.3C395.4 402.7 393 403.7 390.5 404.4L389 411.5L377 411.7L375.3 404.7C372.8 404.1 370.3 403.1 368 401.8L361.9 405.8L353.3 397.5L357.1 391.3C355.7 389 354.7 386.6 354 384.1L346.9 382.6L346.7 370.6L353.7 368.9C354.3 366.4 355.3 363.9 356.6 361.6L352.6 355.5L360.9 346.9L367.1 350.7ZM373.5 366.7C368.6 371.8 368.7 380 373.8 384.9C378.9 389.8 387.1 389.7 392 384.6C396.9 379.5 396.8 371.3 391.7 366.4C386.6 361.4 378.4 361.6 373.5 366.7Z" fill="#EBEBEB"/>
<path d="M373.5 366.7C373.5 366.7 374.2 365.8 375.9 364.6C377.6 363.5 380.6 362.2 384.3 362.6C386.1 362.8 388.2 363.4 390 364.6C391.8 365.8 393.5 367.6 394.6 369.8C395.2 370.9 395.6 372.1 395.8 373.4C396 374.7 396.1 376 395.9 377.4C395.6 380.1 394.3 382.7 392.3 384.8C390.3 386.9 387.7 388.2 385 388.6C383.7 388.8 382.3 388.9 381 388.7C379.7 388.5 378.5 388.2 377.3 387.7C375 386.7 373.2 385 371.9 383.3C370.6 381.5 369.9 379.5 369.7 377.7C369.2 374 370.3 371 371.4 369.2C372.5 367.4 373.5 366.7 373.5 366.7C373.6 366.8 372.7 367.5 371.7 369.3C370.7 371 369.7 374 370.3 377.5C370.6 379.3 371.3 381.2 372.5 382.9C373.7 384.6 375.5 386.1 377.6 387.1C378.7 387.6 379.8 387.9 381.1 388.1C382.3 388.3 383.6 388.3 384.9 388C387.4 387.6 389.9 386.3 391.8 384.4C393.7 382.4 394.9 379.9 395.2 377.4C395.4 376.1 395.4 374.9 395.1 373.6C394.9 372.4 394.5 371.2 394 370.2C393 368.1 391.4 366.4 389.7 365.2C388 364 386 363.4 384.3 363.2C380.7 362.8 377.8 363.9 376.1 364.9C374.3 365.9 373.5 366.7 373.5 366.7Z" fill="#EBEBEB"/>
<path d="M367.1 350.7C367.1 350.7 367 350.6 366.7 350.5C366.4 350.3 366 350.1 365.5 349.8C364.4 349.2 362.9 348.2 360.8 347H360.9C358.8 349.2 356 352.1 352.6 355.7V355.5C353.8 357.3 355.2 359.4 356.6 361.6L356.7 361.7L356.6 361.8C355.4 363.9 354.4 366.4 353.8 369V369.1H353.7C351.5 369.6 349.1 370.2 346.7 370.8L346.9 370.5C347 374.3 347.1 378.3 347.1 382.5L346.9 382.2C349.1 382.7 351.5 383.2 354 383.7H354.2L354.3 383.9C355 386.2 356 388.7 357.4 391L357.5 391.2L357.4 391.4C356.2 393.3 355 395.4 353.6 397.6L353.5 397.2C356.2 399.8 359.1 402.6 362.1 405.5H361.7C363.6 404.3 365.7 402.9 367.8 401.5L368 401.4L368.2 401.5C370.3 402.7 372.8 403.7 375.4 404.3L375.6 404.4L375.7 404.6C376.2 406.8 376.8 409.2 377.4 411.6L377 411.3C380.8 411.2 384.9 411.2 389 411.1L388.6 411.4C389.1 409.2 389.6 406.7 390.1 404.3V404.1L390.3 404C392.7 403.3 395.1 402.3 397.4 400.9L397.6 400.8L397.8 400.9C399.9 402.2 402 403.4 404 404.7L403.5 404.8C406.3 401.9 409.1 399 411.8 396.2V396.7C410.5 394.7 409.1 392.6 407.8 390.6L407.7 390.4L407.8 390.2C409.1 387.9 410 385.5 410.6 383L410.7 382.8L410.9 382.7C413.3 382.1 415.6 381.5 417.9 381L417.6 381.3C417.5 377.2 417.5 373.2 417.4 369.3L417.7 369.6C415.3 369.1 412.9 368.6 410.6 368.1H410.4L410.3 367.9C409.6 365.4 408.5 363 407.2 360.8L407.1 360.6L407.2 360.4C408.5 358.3 409.7 356.2 411 354.2V354.6C408 351.7 405.1 348.9 402.4 346.2H402.8C400.7 347.6 398.7 348.9 396.7 350.2L396.6 350.3L396.5 350.2C394.1 348.8 391.7 347.9 389.3 347.3H389.2V347.2C388.6 344.6 388 342.3 387.5 340.1L387.7 340.3C383 340.4 379.1 340.4 375.7 340.5L375.9 340.4C375.3 343.2 374.8 345.6 374.4 347.5V347.6H374.3C371.8 348.3 370 349.1 368.8 349.7C368.2 350 367.8 350.2 367.5 350.4C367.2 350.6 367.1 350.7 367.1 350.7C367.1 350.7 367.2 350.6 367.5 350.4C367.8 350.2 368.2 350 368.8 349.7C369.9 349.1 371.7 348.2 374.3 347.5L374.2 347.6C374.6 345.7 375.1 343.3 375.6 340.5V340.4H375.7C379.1 340.3 383.1 340.2 387.7 340.1H387.9V340.3C388.4 342.5 389 344.8 389.7 347.3L389.5 347.1C391.9 347.7 394.4 348.6 396.9 350H396.6C398.5 348.7 400.5 347.4 402.7 346L402.9 345.9L403.1 346.1C405.8 348.7 408.7 351.5 411.8 354.4L412 354.6L411.9 354.8C410.7 356.8 409.4 358.9 408.2 361V360.7C409.5 362.9 410.6 365.4 411.4 368L411.1 367.8C413.4 368.3 415.8 368.8 418.2 369.3L418.5 369.4V369.7C418.6 373.6 418.6 377.6 418.7 381.7V382L418.4 382.1C416.1 382.7 413.7 383.2 411.4 383.8L411.7 383.5C411.1 386 410.1 388.5 408.8 390.9V390.5C410.1 392.5 411.4 394.5 412.8 396.6L413 396.8L412.8 397C410.1 399.8 407.3 402.7 404.5 405.6L404.3 405.8L404 405.6C401.9 404.4 399.9 403.1 397.8 401.8H398.2C395.9 403.2 393.4 404.3 390.9 405L391.2 404.7C390.7 407.1 390.2 409.6 389.7 411.8L389.6 412.1H389.3C385.2 412.2 381.1 412.2 377.3 412.3H377L376.9 412C376.3 409.6 375.7 407.2 375.2 405L375.5 405.3C372.8 404.6 370.3 403.6 368.1 402.4H368.5C366.4 403.8 364.3 405.1 362.4 406.4L362.2 406.6L362 406.4C359 403.5 356.1 400.7 353.4 398.1L353.2 397.9L353.3 397.7C354.6 395.5 355.9 393.4 357.1 391.5V391.8C355.7 389.4 354.6 386.9 354 384.5L354.2 384.7C351.7 384.2 349.3 383.7 347.1 383.2H346.9V383C346.8 378.8 346.8 374.8 346.7 371V370.8H346.9C349.4 370.2 351.8 369.6 354 369.1L353.8 369.3C354.5 366.6 355.5 364.1 356.7 362V362.2C355.3 360 353.9 358 352.7 356.1L352.6 356L352.7 355.9C356.1 352.4 358.9 349.5 361.1 347.3L361.2 347.2H361.3C363.3 348.4 364.8 349.4 365.9 350C366.4 350.3 366.8 350.6 367.1 350.7C367.1 350.7 366.9 350.6 367.1 350.7Z" fill="#EBEBEB"/>
<path d="M20.7001 49.9C23 48.5 25.4 47.5 27.9 46.8L29.4 39.7L41.4001 39.5L43.1 46.5C45.6 47.1 48.1001 48.1 50.4001 49.4L56.5 45.4L65.1 53.7L61.3 59.9C62.7001 62.2 63.7 64.6 64.4 67.1L71.5 68.6L71.7 80.6L64.7 82.3C64.1 84.8 63.1 87.3 61.8 89.6L65.8 95.7L57.5 104.3L51.3 100.5C49 101.9 46.6 102.9 44.1 103.6L42.6 110.7L30.6 110.9L28.9 103.9C26.4 103.3 23.9 102.3 21.6 101L15.5 105L6.90005 96.7L10.7 90.5C9.30005 88.2 8.30005 85.8 7.60005 83.3L0.500049 81.8L0.300049 69.8L7.30005 68.1C7.90005 65.6 8.90005 63.1 10.2 60.8L6.20005 54.7L14.5 46.1L20.7001 49.9ZM27.1 65.9C22.2001 71 22.3 79.2 27.4 84.1C32.5 89 40.7 88.9 45.6 83.8C50.5 78.7 50.4 70.5 45.3 65.6C40.2001 60.6 32.1 60.8 27.1 65.9Z" fill="#EBEBEB"/>
<path d="M27.1 65.9C27.1 65.9 27.8 65 29.5 63.8C31.2 62.7 34.2 61.4 37.9 61.8C39.7 62 41.8 62.6 43.6 63.8C45.4 65 47.1 66.8 48.2 69C48.8 70.1 49.2 71.3 49.4 72.6C49.6 73.9 49.7 75.2 49.5 76.6C49.2 79.3 47.9 81.9 45.9 84C43.9 86.1 41.3 87.4 38.6 87.8C37.3 88 35.9 88.1 34.6 87.9C33.3 87.7 32.1 87.4 30.9 86.9C28.6 85.9 26.8 84.2 25.5 82.5C24.2 80.7 23.5 78.7 23.3 76.9C22.8 73.2 23.9 70.2 25 68.4C26.2 66.6 27.1 65.9 27.1 65.9C27.2 66 26.3 66.7 25.3 68.5C24.3 70.2 23.3 73.2 23.9 76.7C24.2 78.5 24.9 80.4 26.1 82.1C27.3 83.8 29.1 85.3 31.2 86.3C32.3 86.8 33.4 87.1 34.7 87.3C35.9 87.5 37.2 87.5 38.5 87.2C41 86.8 43.5 85.5 45.4 83.6C47.3 81.6 48.5 79.1 48.8 76.6C49 75.3 49 74.1 48.7 72.8C48.5 71.6 48.1 70.4 47.6 69.4C46.6 67.3 45 65.6 43.3 64.4C41.6 63.2 39.6 62.6 37.9 62.4C34.3 62 31.4 63.1 29.7 64.1C28 65.1 27.2 66 27.1 65.9Z" fill="#EBEBEB"/>
<path d="M20.7 49.9C20.7 49.9 20.6 49.8 20.3 49.7C20 49.5 19.6 49.3 19.1 49C18 48.4 16.5 47.4 14.4 46.2H14.5C12.4 48.4 9.6 51.3 6.2 54.9V54.7C7.4 56.5 8.8 58.6 10.2 60.8L10.3 60.9L10.4 61C9.2 63.1 8.2 65.6 7.6 68.2V68.3H7.5C5.3 68.8 2.9 69.4 0.5 70L0.7 69.7C0.8 73.5 0.9 77.5 0.9 81.7L0.7 81.4C2.9 81.9 5.3 82.4 7.8 82.9H8L8.1 83.1C8.8 85.4 9.8 87.9 11.2 90.2L11.3 90.4L11 90.7C9.8 92.6 8.6 94.7 7.2 96.9L7.1 96.5C9.8 99.1 12.7 101.9 15.7 104.8H15.3C17.2 103.6 19.3 102.2 21.4 100.8L21.6 100.7L21.8 100.8C23.9 102 26.4 103 29 103.6L29.2 103.7L29.3 103.9C29.8 106.1 30.4 108.5 31 110.9L30.6 110.6C34.4 110.5 38.5 110.5 42.6 110.4L42.2 110.7C42.7 108.5 43.2 106 43.7 103.6V103.4L43.9 103.3C46.3 102.6 48.7 101.6 51 100.2L51.2 100.1L51.4 100.2C53.5 101.5 55.6 102.7 57.6 104L57.1 104.1C59.9 101.2 62.7 98.3 65.4 95.5V96C64.1 94 62.7 91.9 61.4 89.9L61.3 89.7L61.4 89.5C62.7 87.2 63.6 84.8 64.2 82.3L64.3 82.1L64.5 82C66.9 81.4 69.2 80.8 71.5 80.3L71.2 80.6C71.1 76.5 71.1 72.5 71 68.6L71.3 68.9C68.9 68.4 66.5 67.9 64.2 67.4H64L63.9 67.2C63.2 64.7 62.1 62.3 60.8 60.1L61 59.9L61.1 59.7C62.4 57.6 63.6 55.5 64.9 53.5V53.9C61.9 51 59 48.2 56.3 45.5H56.7C54.6 46.9 52.6 48.2 50.6 49.5L50.5 49.6L50.4 49.5C48 48.1 45.6 47.2 43.2 46.6H43.1V46.5C42.5 43.9 41.9 41.6 41.4 39.4L41.6 39.6C36.9 39.7 33 39.7 29.6 39.8L29.8 39.7C29.2 42.5 28.7 44.9 28.3 46.8V46.9H28.2C25.7 47.6 23.9 48.4 22.7 49C22.1 49.3 21.7 49.5 21.4 49.7C20.9 49.8 20.7 49.9 20.7 49.9C20.7 49.9 20.8 49.8 21.1 49.6C21.4 49.4 21.8 49.2 22.4 48.9C23.5 48.3 25.3 47.4 27.9 46.7L27.8 46.8C28.2 44.9 28.7 42.5 29.2 39.7V39.6H29.3C32.7 39.5 36.7 39.4 41.3 39.3H41.5V39.5C42 41.7 42.6 44 43.3 46.5L43.1 46.3C45.5 46.9 48 47.8 50.5 49.2H50.2C52.1 47.9 54.1 46.6 56.3 45.2L56.5 45.1L56.7 45.3C59.4 47.9 62.3 50.7 65.4 53.6L65.6 53.8L65.5 54C64.3 56 63 58.1 61.8 60.2V59.9C63.1 62.1 64.2 64.6 65 67.2L64.7 67C67 67.5 69.4 68 71.8 68.5L72.1 68.6V68.9C72.2 72.8 72.2 76.8 72.3 80.9V81.2L71.9 81C69.6 81.6 67.2 82.1 64.9 82.7L65.2 82.4C64.6 84.9 63.6 87.4 62.3 89.8V89.4C63.6 91.4 64.9 93.4 66.3 95.5L66.5 95.7L66.3 95.9C63.6 98.7 60.8 101.6 58 104.5L57.8 104.7L57.5 104.5C55.4 103.3 53.4 102 51.3 100.7H51.7C49.4 102.1 46.9 103.2 44.4 103.9L44.7 103.6C44.2 106 43.7 108.5 43.2 110.7L43.1 111H42.8C38.7 111.1 34.6 111.1 30.8 111.2H30.5L30.4 110.9C29.8 108.5 29.2 106.1 28.7 103.9L29 104.2C26.3 103.5 23.8 102.5 21.6 101.3H22C19.9 102.7 17.8 104 15.9 105.3L15.7 105.5L15.5 105.3C12.5 102.4 9.6 99.6 6.9 97L6.7 96.8L6.8 96.6C8.1 94.4 9.4 92.3 10.6 90.4V90.7C9 88.3 8 85.8 7.3 83.4L7.5 83.6C5 83.1 2.6 82.6 0.4 82.1H0.2V81.9C0.1 77.7 0.1 73.7 0 69.9V69.7H0.2C2.7 69.1 5.1 68.5 7.3 68L7.1 68.2C7.8 65.5 8.8 63 10 60.9V61.1C8.6 58.9 7.2 56.9 6 55V54.8L6.1 54.7C9.5 51.2 12.3 48.3 14.5 46.1L14.6 46H14.7C16.7 47.2 18.2 48.2 19.3 48.8C19.8 49.1 20.2 49.4 20.5 49.5C20.6 49.8 20.7 49.9 20.7 49.9Z" fill="#EBEBEB"/>
<path d="M405.8 312.3C407 311.6 408.3 311 409.6 310.6L410.4 306.8L416.8 306.7L417.7 310.4C419 310.7 420.3 311.2 421.6 311.9L424.8 309.8L429.4 314.2L427.4 317.5C428.1 318.7 428.7 320 429.1 321.3L432.9 322.1L433 328.5L429.3 329.4C429 330.7 428.5 332 427.8 333.3L429.9 336.5L425.5 341.1L422.2 339.1C421 339.8 419.7 340.4 418.4 340.8L417.6 344.6L411.2 344.7L410.3 341C409 340.7 407.7 340.2 406.4 339.5L403.2 341.6L398.6 337.2L400.6 333.9C399.9 332.7 399.3 331.4 398.9 330.1L395.1 329.3L395 322.9L398.7 322C399 320.7 399.5 319.4 400.2 318.1L398.1 314.9L402.5 310.3L405.8 312.3ZM409.2 320.7C406.6 323.4 406.7 327.7 409.4 330.3C412.1 332.9 416.4 332.8 419 330.1C421.6 327.4 421.5 323.1 418.8 320.5C416.1 318 411.8 318 409.2 320.7Z" fill="#EBEBEB"/>
<path d="M49.5999 5.5C50.7999 4.8 52.1 4.2 53.4 3.8L54.2 0H60.5L61.4 3.7C62.7 4 64 4.5 65.3 5.2L68.5 3.1L73.0999 7.5L71.0999 10.8C71.7999 12 72.4 13.3 72.8 14.6L76.5999 15.4L76.6999 21.8L73 22.7C72.7 24 72.2 25.3 71.5 26.6L73.5999 29.8L69.1999 34.4L65.9 32.4C64.7 33.1 63.3999 33.7 62.0999 34.1L61.2999 37.9L54.9 38L54 34.3C52.7 34 51.3999 33.5 50.0999 32.8L46.9 34.9L42.2999 30.5L44.2999 27.2C43.5999 26 42.9999 24.7 42.5999 23.4L38.7999 22.6L38.7 16.2L42.4 15.3C42.7 14 43.2 12.7 43.9 11.4L41.7999 8.2L46.2 3.6L49.5999 5.5ZM53 14C50.4 16.7 50.5 21 53.2 23.6C55.9 26.2 60.1999 26.1 62.7999 23.4C65.4 20.7 65.2999 16.4 62.5999 13.8C59.8999 11.2 55.6 11.3 53 14Z" fill="#EBEBEB"/>
<path d="M409.2 320.7C409.2 320.7 409.6 320.2 410.5 319.6C411.4 319 413 318.3 415 318.5C416 318.6 417 318.9 418 319.6C419 320.2 419.9 321.2 420.4 322.4C420.7 323 420.9 323.6 421 324.3C421.1 325 421.1 325.7 421 326.4C420.8 327.8 420.2 329.2 419.1 330.3C418 331.4 416.7 332.1 415.2 332.3C414.5 332.4 413.8 332.4 413.1 332.3C412.4 332.2 411.8 332 411.2 331.7C410 331.2 409 330.3 408.4 329.4C407.7 328.4 407.4 327.4 407.2 326.4C406.9 324.4 407.5 322.8 408.1 321.9C408.7 321.1 409.2 320.7 409.2 320.7C409.2 320.7 408.8 321.1 408.3 322.1C407.8 323 407.2 324.6 407.5 326.5C407.7 327.4 408 328.4 408.7 329.3C409.4 330.2 410.3 331 411.4 331.5C412 331.8 412.6 331.9 413.2 332C413.8 332.1 414.5 332.1 415.2 332C416.5 331.8 417.8 331.1 418.8 330.1C419.8 329.1 420.4 327.7 420.6 326.4C420.7 325.7 420.7 325.1 420.6 324.4C420.5 323.8 420.3 323.1 420 322.6C419.5 321.5 418.6 320.6 417.7 320C416.8 319.4 415.8 319.1 414.8 318.9C412.9 318.7 411.4 319.3 410.5 319.8C409.6 320.3 409.2 320.8 409.2 320.7Z" fill="#EBEBEB"/>
<path d="M405.8 312.3C405.8 312.3 405.7 312.3 405.6 312.2C405.4 312.1 405.2 312 405 311.8C404.4 311.5 403.6 311 402.5 310.3H402.6C401.5 311.5 400 313 398.2 314.9V314.8C398.8 315.8 399.6 316.9 400.3 318V318.1V318.2C399.7 319.3 399.2 320.6 398.8 322V322.1H398.7C397.5 322.4 396.3 322.7 395 323L395.1 322.9C395.1 324.9 395.2 327 395.2 329.3L395.1 329.2C396.3 329.4 397.5 329.7 398.9 330H399V330.1C399.3 331.3 399.9 332.6 400.6 333.9L400.7 334L400.6 334.1C400 335.1 399.3 336.2 398.6 337.4V337.2C400 338.6 401.6 340.1 403.2 341.6H403C404 340.9 405.1 340.2 406.2 339.5L406.3 339.4L406.4 339.5C407.5 340.1 408.8 340.7 410.2 341H410.3V341.1C410.6 342.3 410.9 343.5 411.2 344.8L411 344.7C413 344.7 415.2 344.6 417.4 344.6L417.2 344.8C417.4 343.6 417.7 342.3 418 341V340.9H418.1C419.4 340.5 420.6 340 421.9 339.3L422 339.2L422.1 339.3C423.2 340 424.3 340.6 425.4 341.3H425.2C426.7 339.8 428.2 338.2 429.6 336.7V336.9C428.9 335.8 428.2 334.7 427.5 333.7L427.4 333.6L427.5 333.5C428.2 332.3 428.7 331 429 329.7V329.6H429.1C430.4 329.3 431.6 329 432.8 328.7L432.7 328.9C432.7 326.7 432.6 324.6 432.6 322.5L432.7 322.7C431.4 322.4 430.2 322.2 428.9 321.9H428.8V321.8C428.4 320.5 427.9 319.2 427.2 318L427.1 317.9L427.2 317.8C427.9 316.7 428.5 315.6 429.2 314.5V314.7C427.6 313.1 426.1 311.7 424.6 310.3H424.8C423.7 311 422.6 311.7 421.6 312.4H421.5H421.4C420.1 311.7 418.8 311.2 417.6 310.9H417.5V310.8C417.2 309.4 416.9 308.2 416.6 307.1L416.7 307.2C414.2 307.2 412.1 307.3 410.3 307.3L410.4 307.2C410.1 308.7 409.8 309.9 409.6 311C408.3 311.4 407.3 311.8 406.7 312.1C406.4 312.3 406.2 312.4 406 312.5C405.9 312.2 405.8 312.3 405.8 312.3C405.8 312.3 405.9 312.2 406 312.2C406.1 312.1 406.4 312 406.7 311.8C407.3 311.5 408.3 311 409.6 310.6C409.8 309.6 410.1 308.3 410.4 306.8V306.7H410.5C412.3 306.7 414.4 306.6 416.9 306.6H417V306.7C417.3 307.9 417.6 309.1 417.9 310.4L417.8 310.3C419.1 310.6 420.4 311.1 421.7 311.8H421.6C422.6 311.1 423.7 310.4 424.8 309.7L424.9 309.6L425 309.7C426.4 311.1 428 312.6 429.6 314.1L429.7 314.2L429.6 314.3C429 315.4 428.3 316.5 427.6 317.6V317.4C428.3 318.6 428.9 319.9 429.3 321.2L429.2 321.1C430.4 321.4 431.7 321.6 433 321.9H433.1V322C433.1 324.1 433.2 326.2 433.2 328.4V328.5H433.1C431.9 328.8 430.6 329.1 429.4 329.4L429.5 329.3C429.2 330.6 428.7 332 428 333.2V333C428.7 334.1 429.4 335.1 430.1 336.2L430.2 336.3L430.1 336.4C428.6 337.9 427.2 339.4 425.7 341L425.6 341.1L425.5 341C424.4 340.3 423.3 339.7 422.2 339H422.4C421.2 339.7 419.8 340.3 418.6 340.7L418.7 340.6C418.4 341.9 418.2 343.2 417.9 344.4V344.6H417.7C415.5 344.6 413.4 344.7 411.3 344.7H411.1V344.6C410.8 343.3 410.5 342 410.2 340.9L410.3 341C408.9 340.7 407.5 340.1 406.4 339.5H406.6C405.5 340.2 404.4 340.9 403.4 341.6L403.3 341.7L403.2 341.6C401.6 340.1 400.1 338.6 398.6 337.2L398.5 337.1L398.6 337C399.3 335.9 400 334.7 400.6 333.7V333.9C399.8 332.6 399.3 331.3 398.9 330.1L399 330.2C397.7 329.9 396.4 329.7 395.2 329.4H395.1V329.3C395.1 327.1 395 324.9 395 322.9V322.8H395.1C396.4 322.5 397.7 322.2 398.8 321.9L398.7 322C399.1 320.6 399.6 319.3 400.2 318.1V318.2C399.4 317 398.7 316 398.1 315V314.9L398.2 314.8C400 312.9 401.5 311.4 402.6 310.2C403.7 310.9 404.5 311.4 405 311.7C405.3 311.9 405.5 312 405.6 312.1C405.7 312.2 405.8 312.3 405.8 312.3Z" fill="#EBEBEB"/>
<path d="M292.8 365.1C297.9 362.7 304 362.4 309.7 363.2C312.8 363.7 316 364.5 318.1 366.6C320.2 368.7 320.6 372.4 318.2 374.2C316.8 375.3 314.8 375.4 312.9 375.4C308.4 375.4 303.5 374.6 299.9 377.1C297.9 378.5 296.5 380.8 294.1 381.5C291.7 382.2 289 380.9 287.8 378.9C286.5 376.9 286.5 374.5 287.1 372.3C287 372.3 287.6 367.5 292.8 365.1Z" fill="#EBEBEB"/>
<path d="M281 344.5C284.1 348.6 290.3 347.2 293.1 344.7C295.9 342.2 297.1 338.6 298.2 335.2C300.7 327.3 303.2 319.1 301.4 311.1C300.8 308.7 299.9 306.3 298 304.6C296.1 302.8 293.3 301.8 290.7 302.4C287.6 303.1 285.7 305.9 284.3 308.5C280.2 316.2 278.1 324.6 278 333.1C278 337 278.5 341.2 281 344.5Z" fill="#EBEBEB"/>
<path d="M272.3 350.3C275.7 346.6 276.4 341.3 274.8 336.7C273.3 332.1 269.8 328.2 265.9 325C261.3 321.3 255.8 318.3 249.9 316.5C247.6 315.8 245.2 315.2 242.7 315.4C240.3 315.6 237.8 316.7 236.7 318.7C235 321.6 236.6 325.1 238.4 328C241.5 333.1 245 337.9 248.9 342.5C252 346.2 255.6 349.8 260.4 351.5C265.2 353.2 270.2 353 272.7 350" fill="#EBEBEB"/>
<path d="M280.8 405.9C280.9 405.9 281 405.2 281.1 404C281.2 402.7 281.4 401 281.6 398.9C281.9 396.8 282.2 394.2 282.9 391.5C283.5 388.8 284.6 385.8 285.9 382.8C287.3 379.8 288.9 377.1 290.8 374.9C292.7 372.7 294.9 371.1 297 370.2C299.1 369.3 301 368.9 302.2 368.7C303.5 368.6 304.2 368.5 304.2 368.4C304.2 368.3 303.5 368.3 302.1 368.4C300.8 368.5 298.8 368.8 296.6 369.7C294.4 370.6 292 372.2 290 374.4C288 376.6 286.3 379.4 284.9 382.5C283.6 385.6 282.6 388.6 281.9 391.4C281.3 394.2 281 396.8 280.8 398.9C280.6 401 280.6 402.8 280.5 404C280.7 405.2 280.7 405.9 280.8 405.9Z" fill="#E0E0E0"/>
<path d="M281.2 402C281.2 402 281.2 401.7 281.3 401.1C281.3 400.5 281.3 399.6 281.3 398.6C281.3 396.5 281.3 393.4 281.4 389.6C281.6 382 282.3 373.8 283.7 362.2C285 351.3 286.8 338.7 288.7 330.5C289.1 328.6 289.5 326.9 289.9 325.5C290.3 324 290.6 322.7 290.9 321.7C291.2 320.7 291.4 319.9 291.5 319.3C291.6 318.8 291.7 318.5 291.7 318.5C291.7 318.5 291.6 318.8 291.4 319.3C291.2 319.9 290.9 320.7 290.6 321.7C290.3 322.7 289.9 324 289.5 325.5C289.1 327 288.6 328.6 288.2 330.5C286.3 338 284.4 348.4 283 359.9C281.6 371.5 281 382 280.9 389.7C280.8 393.5 280.9 396.6 281 398.7C281.1 399.7 281.1 400.5 281.2 401.2C281.1 401.7 281.1 402 281.2 402Z" fill="#E0E0E0"/>
<path d="M281.2 381.7C281.3 381.7 281.2 380.8 281.2 379.1C281.1 377.5 280.8 375.1 280.3 372.1C279.8 369.2 279 365.7 277.8 362C277.3 360.3 276.1 356.2 273.1 350C269.2 341.7 264 334.9 259.4 330.6C258.3 329.5 257.1 328.7 256.2 327.9C255.7 327.5 255.3 327.1 254.8 326.8C254.4 326.5 253.9 326.3 253.5 326C252 325.1 251.1 324.6 251.1 324.6C251 324.8 254.5 326.6 258.9 330.9C263.3 335.2 268.4 341.9 272.3 350.2C274.4 354.7 275.9 358.7 277 362.1C278.2 365.8 279 369.2 279.7 372.1C280.3 375 280.6 377.3 280.8 379C281 380.8 281.2 381.7 281.2 381.7Z" fill="#E0E0E0"/>
<path d="M257.4 396.8L259.7 424.7H299.3L301.5 396.8H257.4Z" fill="#E0E0E0"/>
<path d="M306.3 385.8H253.6V396.8H306.3V385.8Z" fill="#E0E0E0"/>
<path d="M253.6 423.6V426.7H256.1H305.4V423.6H253.6Z" fill="#EBEBEB"/>
<path d="M258.5 432L256.1 426.7H303.5L300.7 432H258.5Z" fill="#E0E0E0"/>
<path d="M300.8 405.9C300.8 405.9 300.7 406 300.6 406.2C300.4 406.4 300.2 406.6 300 406.9C299.4 407.6 298.7 408.4 297.7 409.6L297.6 409.7L297.5 409.6C296 407.8 294.1 405.4 291.8 402.5H292.1C290.4 404.7 288.5 407.1 286.5 409.7L286.3 409.9L286.1 409.7C284 407.5 281.8 405.1 279.5 402.6H279.9C279.8 402.7 279.7 402.9 279.5 403C277.4 405.3 275.5 407.6 273.6 409.7L273.4 409.9L273.2 409.7C271.2 407.1 269.3 404.7 267.6 402.5H267.9C265.1 405.3 262.8 407.7 261 409.6L260.9 409.7L260.8 409.6C259.9 408.2 259.2 407.1 258.6 406.3C258.4 405.9 258.2 405.7 258 405.4C257.9 405.2 257.8 405.1 257.8 405.1C257.8 405.1 257.9 405.2 258 405.4C258.2 405.6 258.4 405.9 258.6 406.2C259.2 407 259.9 408.1 260.9 409.4H260.7C262.5 407.5 264.8 405.1 267.5 402.2L267.7 402L267.9 402.2C269.6 404.4 271.5 406.8 273.5 409.3H273.1C275 407.2 277 404.9 279 402.6C279.1 402.5 279.2 402.3 279.4 402.2L279.6 402L279.8 402.2C282.1 404.7 284.3 407.1 286.4 409.3H286C288 406.7 289.9 404.3 291.6 402.2L291.8 402L292 402.2C294.2 405.1 296.1 407.5 297.5 409.4H297.3C298.3 408.3 299.1 407.4 299.7 406.8C300 406.5 300.2 406.3 300.3 406.1C300.7 406 300.8 405.9 300.8 405.9Z" fill="#F5F5F5"/>
<path d="M302.1 396.6C302.1 396.7 292.2 396.8 279.9 396.8C267.7 396.8 257.7 396.7 257.7 396.6C257.7 396.5 267.6 396.4 279.9 396.4C292.2 396.4 302.1 396.5 302.1 396.6Z" fill="#F5F5F5"/>
<path d="M304.1 427C304.1 427.1 293.3 427.2 280 427.2C266.7 427.2 255.9 427.1 255.9 427C255.9 426.9 266.7 426.8 280 426.8C293.3 426.8 304.1 426.9 304.1 427Z" fill="#F5F5F5"/>
<path d="M225.6 289.2H197.4C192.1 289.2 187.8 284.9 187.8 279.6V251.4C187.8 246.1 192.1 241.8 197.4 241.8H225.6C230.9 241.8 235.2 246.1 235.2 251.4V279.6C235.2 284.9 230.9 289.2 225.6 289.2Z" fill="#E0E0E0"/>
<path d="M201 277.1C200.7 277.1 200.5 277 200.3 276.8C199.9 276.4 199.9 275.7 200.3 275.3L205.9 269.7C202.9 265.9 203.2 260.3 206.6 256.9C208.4 255.1 210.8 254.1 213.4 254.1C216 254.1 218.4 255.1 220.2 256.9C224 260.7 224 266.8 220.2 270.5C218.4 272.3 216 273.3 213.4 273.3C211.2 273.3 209.1 272.6 207.4 271.2L201.8 276.8C201.5 276.9 201.3 277.1 201 277.1ZM213.4 256.1C211.4 256.1 209.5 256.9 208.1 258.3C206.7 259.7 205.9 261.6 205.9 263.6C205.9 265.6 206.7 267.5 208.1 268.9C209.5 270.3 211.4 271.1 213.4 271.1C215.4 271.1 217.3 270.3 218.7 268.9C220.1 267.5 220.9 265.6 220.9 263.6C220.9 261.6 220.1 259.7 218.7 258.3C217.3 256.9 215.4 256.1 213.4 256.1Z" fill="white"/>
<path d="M420.9 78.4H396.7C391 78.4 386.3 73.8 386.3 68V43.8C386.3 38.1 390.9 33.4 396.7 33.4H420.9C426.6 33.4 431.3 38 431.3 43.8V68C431.3 73.8 426.7 78.4 420.9 78.4Z" fill="#E0E0E0"/>
<path d="M410.7 63.7C410.7 64.7 409.8 65.6 408.8 65.6C407.8 65.6 406.9 64.7 406.9 63.7C406.9 62.7 407.8 61.8 408.8 61.8C409.8 61.8 410.7 62.7 410.7 63.7Z" fill="white"/>
<path d="M405 61.3C407.1 59.1 410.5 59 412.6 61.2C413.6 62.2 415.1 60.7 414.1 59.7C411.2 56.7 406.4 56.8 403.5 59.8C402.5 60.7 404 62.3 405 61.3Z" fill="white"/>
<path d="M398.5 52.4C401.4 49.9 404.8 48.3 408.7 48.3C412.5 48.3 416.3 49.6 419.1 52.3C420.1 53.2 421.6 51.7 420.6 50.8C417.4 47.8 413.1 46.2 408.7 46.2C404.3 46.2 400.3 48 397 50.9C396 51.8 397.5 53.3 398.5 52.4Z" fill="white"/>
<path d="M401.1 57.3C403 55.2 405.7 53.9 408.6 53.8C411.5 53.7 414.4 54.9 416.4 57C417.4 58 418.9 56.5 417.9 55.5C415.5 53 412.1 51.5 408.6 51.6C405.2 51.7 401.9 53.2 399.6 55.7C398.6 56.8 400.1 58.3 401.1 57.3Z" fill="white"/>
<path d="M349 229.6C349.1 229.6 349.3 234.6 349.3 240.9C349.3 247.1 349.2 252.2 349 252.2C348.9 252.2 348.7 247.2 348.7 240.9C348.7 234.6 348.9 229.6 349 229.6Z" fill="#263238"/>
<path d="M264.3 109.4C264.2 109.4 264 101 264 90.6C264 80.2 264.1 71.8 264.3 71.8C264.4 71.8 264.6 80.2 264.6 90.6C264.6 101 264.4 109.4 264.3 109.4Z" fill="#263238"/>
<path d="M235.3 153.9C235.3 153.9 235.1 153.9 234.6 154C234.1 154 233.4 154 232.6 154C230.8 154 228.3 154 225.3 154.1C219.1 154.1 210.6 154.1 201.2 154.2C200 154.2 198.9 154.2 197.7 154.2C197.1 154.2 196.6 154.2 196 154.1C195.4 154 194.8 153.9 194.3 153.6C192.2 152.7 190.8 150.7 190.2 148.7C189.9 147.7 189.8 146.7 189.8 145.7C189.8 144.7 189.8 143.8 189.8 142.9C189.8 141.1 189.8 139.4 189.9 137.9C190 134.9 190 132.4 190 130.6C190 129.8 190 129.1 190.1 128.6C190.1 128.1 190.1 127.9 190.2 127.9C190.2 127.9 190.2 128.1 190.2 128.6C190.2 129.1 190.2 129.8 190.2 130.6C190.2 132.4 190.2 134.9 190.2 137.9C190.2 139.4 190.2 141.1 190.2 142.9C190.2 144.7 190 146.7 190.6 148.6C191.2 150.5 192.5 152.3 194.5 153.2C195 153.4 195.5 153.6 196 153.6C196.5 153.7 197.1 153.7 197.7 153.7C198.8 153.7 200 153.7 201.2 153.7C210.6 153.7 219.1 153.8 225.3 153.8C228.3 153.8 230.8 153.9 232.6 153.9C233.4 153.9 234.1 153.9 234.6 153.9C235.1 153.9 235.3 153.9 235.3 153.9Z" fill="#263238"/>
<path d="M282.6 71.7H242.4C236.7 71.7 232 67.1 232 61.3V21.1C232 15.4 236.6 10.7 242.4 10.7H282.6C288.3 10.7 293 15.3 293 21.1V61.3C293 67.1 288.4 71.7 282.6 71.7Z" fill="white"/>
<path d="M282.6 71.7C282.6 71.7 283.4 71.7 284.9 71.4C286.3 71.1 288.5 70.2 290.4 68.1C291.3 67 292.1 65.6 292.6 64C293.1 62.3 292.9 60.4 292.9 58.4C292.9 54.3 292.9 49.7 292.9 44.6C292.9 39.5 292.9 33.9 292.9 27.9C292.9 26.4 292.9 24.9 292.9 23.3C292.9 21.7 293 20.2 292.6 18.7C291.8 15.7 289.5 12.9 286.4 11.8C285.6 11.5 284.8 11.3 284 11.2C283.2 11.1 282.3 11.1 281.5 11.1C279.8 11.1 278 11.1 276.3 11.1C272.8 11.1 269.2 11.1 265.5 11.1C258.1 11.1 250.5 11.1 242.7 11.1C240.8 11.1 238.9 11.6 237.3 12.7C236.5 13.2 235.8 13.8 235.2 14.5C234.6 15.2 234 16 233.6 16.8C233.2 17.6 232.9 18.5 232.7 19.4C232.5 20.3 232.5 21.2 232.5 22.2C232.5 24.1 232.5 25.9 232.5 27.8C232.5 35.2 232.5 42.2 232.5 49C232.5 52.4 232.5 55.7 232.5 58.9C232.5 60.5 232.4 62.1 232.7 63.6C233 65.1 233.6 66.5 234.5 67.7C236.3 70.1 239 71.5 241.7 71.7C244.5 71.8 247.2 71.7 249.7 71.8C259.9 71.8 268.2 71.9 273.9 71.9C276.7 71.9 279 71.9 280.5 71.9C281.2 71.9 281.8 71.9 282.2 71.9C282.4 71.7 282.6 71.7 282.6 71.7C282.6 71.7 282.4 71.7 282 71.7C281.6 71.7 281 71.7 280.3 71.7C278.8 71.7 276.6 71.7 273.7 71.7C268 71.7 259.7 71.7 249.5 71.8C246.9 71.8 244.3 71.9 241.5 71.8C238.7 71.6 235.8 70.1 234 67.6C233.1 66.4 232.4 64.9 232.1 63.4C231.8 61.8 231.9 60.2 231.9 58.6C231.9 55.4 231.9 52.1 231.9 48.7C231.9 41.9 231.9 34.8 231.9 27.5C231.9 25.7 231.9 23.8 231.9 21.9C231.9 21 231.9 20 232.1 19C232.3 18.1 232.6 17.1 233 16.3C233.4 15.4 234 14.6 234.6 13.9C235.2 13.2 236 12.5 236.8 12C238.5 10.9 240.5 10.4 242.5 10.4C250.3 10.4 257.9 10.4 265.3 10.4C269 10.4 272.6 10.4 276.1 10.4C277.9 10.4 279.6 10.4 281.3 10.4C282.2 10.4 283 10.4 283.9 10.5C284.8 10.6 285.6 10.8 286.4 11.1C289.6 12.3 292.1 15.2 292.9 18.3C293.3 19.9 293.2 21.5 293.2 23.1C293.2 24.7 293.2 26.2 293.2 27.7C293.2 33.7 293.2 39.3 293.2 44.4C293.2 49.5 293.2 54.1 293.2 58.2C293.2 60.2 293.3 62.1 292.8 63.9C292.4 65.6 291.5 67 290.6 68.1C288.7 70.3 286.4 71.1 285 71.4C284.3 71.5 283.7 71.6 283.3 71.6C282.8 71.7 282.6 71.7 282.6 71.7Z" fill="#263238"/>
<path d="M357.9 92.6H317.7C312 92.6 307.3 88 307.3 82.2V42.1C307.3 36.4 311.9 31.7 317.7 31.7H357.9C363.6 31.7 368.3 36.3 368.3 42.1V82.3C368.3 88 363.6 92.6 357.9 92.6Z" fill="white"/>
<path d="M357.9 92.6C357.9 92.6 358.7 92.6 360.2 92.3C361.6 92 363.8 91.1 365.7 89C366.6 87.9 367.4 86.5 367.9 84.9C368.4 83.2 368.2 81.3 368.2 79.3C368.2 75.2 368.2 70.6 368.2 65.5C368.2 60.4 368.2 54.8 368.2 48.8C368.2 47.3 368.2 45.8 368.2 44.2C368.2 42.6 368.3 41.1 367.9 39.6C367.1 36.6 364.8 33.8 361.7 32.7C360.9 32.4 360.1 32.2 359.3 32.1C358.5 32 357.6 32 356.8 32C355.1 32 353.3 32 351.6 32C348.1 32 344.5 32 340.8 32C333.4 32 325.8 32 318 32C316.1 32 314.2 32.5 312.6 33.6C311.8 34.1 311.1 34.7 310.5 35.4C309.9 36.1 309.3 36.9 308.9 37.7C308.5 38.5 308.2 39.4 308 40.3C307.8 41.2 307.8 42.1 307.8 43.1C307.8 45 307.8 46.8 307.8 48.7C307.8 56.1 307.8 63.1 307.8 69.9C307.8 73.3 307.8 76.6 307.8 79.8C307.8 81.4 307.7 83 308 84.5C308.3 86 308.9 87.4 309.8 88.6C311.6 91 314.3 92.4 317 92.6C319.8 92.7 322.5 92.6 325 92.7C335.2 92.7 343.5 92.8 349.2 92.8C352 92.8 354.3 92.8 355.8 92.8C356.5 92.8 357.1 92.8 357.5 92.8C357.7 92.6 357.9 92.6 357.9 92.6C357.9 92.6 357.7 92.6 357.3 92.6C356.9 92.6 356.3 92.6 355.6 92.6C354.1 92.6 351.9 92.6 349 92.6C343.3 92.6 335 92.6 324.8 92.7C322.2 92.7 319.6 92.8 316.8 92.7C314 92.5 311.1 91 309.3 88.5C308.4 87.3 307.7 85.8 307.4 84.3C307.1 82.7 307.2 81.1 307.2 79.5C307.2 76.3 307.2 73 307.2 69.6C307.2 62.8 307.2 55.7 307.2 48.4C307.2 46.6 307.2 44.7 307.2 42.8C307.2 41.9 307.2 40.9 307.4 39.9C307.6 39 307.9 38 308.3 37.2C308.7 36.3 309.3 35.5 309.9 34.8C310.5 34.1 311.3 33.4 312.1 32.9C313.8 31.8 315.8 31.3 317.8 31.3C325.6 31.3 333.2 31.3 340.6 31.3C344.3 31.3 347.9 31.3 351.4 31.3C353.2 31.3 354.9 31.3 356.6 31.3C357.5 31.3 358.3 31.3 359.2 31.4C360.1 31.5 360.9 31.7 361.7 32C364.9 33.2 367.4 36.1 368.2 39.2C368.6 40.8 368.5 42.4 368.5 44C368.5 45.6 368.5 47.1 368.5 48.6C368.5 54.6 368.5 60.2 368.5 65.3C368.5 70.4 368.5 75 368.5 79.1C368.5 81.1 368.6 83 368.1 84.8C367.7 86.5 366.8 87.9 365.9 89C364 91.2 361.7 92 360.3 92.3C359.6 92.4 359 92.5 358.6 92.5C358.1 92.6 357.9 92.6 357.9 92.6Z" fill="#263238"/>
<path d="M424.2 166.2H384C378.3 166.2 373.6 161.6 373.6 155.8V115.6C373.6 109.9 378.2 105.2 384 105.2H424.2C429.9 105.2 434.6 109.8 434.6 115.6V155.8C434.6 161.6 429.9 166.2 424.2 166.2Z" fill="white"/>
<path d="M424.2 166.2C424.2 166.2 425 166.2 426.5 165.9C427.9 165.6 430.1 164.7 432 162.6C432.9 161.5 433.7 160.1 434.2 158.5C434.7 156.8 434.5 154.9 434.5 152.9C434.5 148.8 434.5 144.2 434.5 139.1C434.5 134 434.5 128.4 434.5 122.4C434.5 120.9 434.5 119.4 434.5 117.8C434.5 116.2 434.6 114.7 434.2 113.2C433.4 110.2 431.1 107.4 428 106.3C427.2 106 426.4 105.8 425.6 105.7C424.8 105.6 423.9 105.6 423.1 105.6C421.4 105.6 419.6 105.6 417.9 105.6C414.4 105.6 410.8 105.6 407.1 105.6C399.7 105.6 392.1 105.6 384.3 105.6C382.4 105.6 380.5 106.1 378.9 107.2C378.1 107.7 377.4 108.3 376.8 109C376.2 109.7 375.6 110.5 375.2 111.3C374.8 112.1 374.5 113 374.3 113.9C374.1 114.8 374.1 115.7 374.1 116.7C374.1 118.6 374.1 120.4 374.1 122.3C374.1 129.7 374.1 136.7 374.1 143.5C374.1 146.9 374.1 150.2 374.1 153.4C374.1 155 374 156.6 374.3 158.1C374.6 159.6 375.2 161 376.1 162.2C377.9 164.6 380.6 166 383.3 166.2C386.1 166.3 388.8 166.2 391.3 166.3C401.5 166.3 409.8 166.4 415.5 166.4C418.3 166.4 420.6 166.4 422.1 166.4C422.8 166.4 423.4 166.4 423.8 166.4C424 166.2 424.2 166.2 424.2 166.2C424.2 166.2 424 166.2 423.6 166.2C423.2 166.2 422.6 166.2 421.9 166.2C420.4 166.2 418.2 166.2 415.3 166.2C409.6 166.2 401.3 166.2 391.1 166.3C388.5 166.3 385.9 166.4 383.1 166.3C380.3 166.1 377.4 164.6 375.6 162.1C374.7 160.9 374 159.4 373.7 157.9C373.4 156.3 373.5 154.7 373.5 153.1C373.5 149.9 373.5 146.6 373.5 143.2C373.5 136.4 373.5 129.3 373.5 122C373.5 120.2 373.5 118.3 373.5 116.4C373.5 115.5 373.5 114.5 373.7 113.5C373.9 112.6 374.2 111.6 374.6 110.8C375 109.9 375.6 109.1 376.2 108.4C376.8 107.7 377.6 107 378.4 106.5C380.1 105.4 382.1 104.9 384.1 104.9C391.9 104.9 399.5 104.9 406.9 104.9C410.6 104.9 414.2 104.9 417.7 104.9C419.5 104.9 421.2 104.9 422.9 104.9C423.8 104.9 424.6 104.9 425.5 105C426.4 105.1 427.2 105.3 428 105.6C431.2 106.8 433.7 109.7 434.5 112.8C434.9 114.4 434.8 116 434.8 117.6C434.8 119.2 434.8 120.7 434.8 122.2C434.8 128.2 434.8 133.8 434.8 138.9C434.8 144 434.8 148.6 434.8 152.7C434.8 154.7 434.9 156.6 434.4 158.4C434 160.1 433.1 161.5 432.2 162.6C430.3 164.8 428 165.6 426.6 165.9C425.9 166 425.3 166.1 424.9 166.1C424.4 166.2 424.2 166.2 424.2 166.2Z" fill="#263238"/>
<path d="M199.5 123.1H159.3C153.6 123.1 148.9 118.5 148.9 112.7V72.5C148.9 66.8 153.5 62.1 159.3 62.1H199.5C205.2 62.1 209.9 66.7 209.9 72.5V112.7C209.8 118.4 205.2 123.1 199.5 123.1Z" fill="white"/>
<path d="M199.5 123.1C199.5 123.1 200.3 123.1 201.8 122.8C203.2 122.5 205.4 121.6 207.3 119.5C208.2 118.4 209 117 209.5 115.4C210 113.7 209.8 111.8 209.8 109.8C209.8 105.7 209.8 101.1 209.8 96C209.8 90.9 209.8 85.3 209.8 79.3C209.8 77.8 209.8 76.3 209.8 74.7C209.8 73.1 209.9 71.6 209.5 70.1C208.7 67.1 206.4 64.3 203.3 63.2C202.5 62.9 201.7 62.7 200.9 62.6C200.1 62.5 199.2 62.5 198.4 62.5C196.7 62.5 194.9 62.5 193.2 62.5C189.7 62.5 186.1 62.5 182.4 62.5C175 62.5 167.4 62.5 159.6 62.5C157.7 62.5 155.8 63 154.2 64.1C153.4 64.6 152.7 65.2 152.1 65.9C151.5 66.6 150.9 67.4 150.5 68.2C150.1 69 149.8 69.9 149.6 70.8C149.4 71.7 149.4 72.6 149.4 73.6C149.4 75.5 149.4 77.3 149.4 79.2C149.4 86.6 149.4 93.6 149.4 100.4C149.4 103.8 149.4 107.1 149.4 110.3C149.4 111.9 149.3 113.5 149.6 115C149.9 116.5 150.5 117.9 151.4 119.1C153.2 121.5 155.9 122.9 158.6 123.1C161.4 123.2 164.1 123.1 166.6 123.2C176.8 123.2 185.1 123.3 190.8 123.3C193.6 123.3 195.9 123.3 197.4 123.3C198.1 123.3 198.7 123.3 199.1 123.3C199.3 123.1 199.5 123.1 199.5 123.1C199.5 123.1 199.3 123.1 198.9 123.1C198.5 123.1 197.9 123.1 197.2 123.1C195.7 123.1 193.5 123.1 190.6 123.1C184.9 123.1 176.6 123.1 166.4 123.2C163.8 123.2 161.2 123.3 158.4 123.2C155.6 123 152.7 121.5 150.9 119C150 117.8 149.3 116.3 149 114.8C148.7 113.2 148.8 111.6 148.8 110C148.8 106.8 148.8 103.5 148.8 100.1C148.8 93.3 148.8 86.2 148.8 78.9C148.8 77.1 148.8 75.2 148.8 73.3C148.8 72.4 148.8 71.4 149 70.4C149.2 69.5 149.5 68.5 149.9 67.7C150.3 66.8 150.9 66 151.5 65.3C152.1 64.6 152.9 63.9 153.7 63.4C155.4 62.3 157.4 61.8 159.4 61.8C167.2 61.8 174.8 61.8 182.2 61.8C185.9 61.8 189.5 61.8 193 61.8C194.8 61.8 196.5 61.8 198.2 61.8C199.1 61.8 199.9 61.8 200.8 61.9C201.7 62 202.5 62.2 203.3 62.5C206.5 63.7 209 66.6 209.8 69.7C210.2 71.3 210.1 72.9 210.1 74.5C210.1 76.1 210.1 77.6 210.1 79.1C210.1 85.1 210.1 90.7 210.1 95.8C210.1 100.9 210.1 105.5 210.1 109.6C210.1 111.6 210.2 113.5 209.7 115.3C209.3 117 208.4 118.4 207.5 119.5C205.6 121.7 203.3 122.5 201.9 122.8C201.2 122.9 200.6 123 200.2 123C199.7 123.1 199.5 123.1 199.5 123.1Z" fill="#263238"/>
<path d="M375 137C375 137.1 368.1 137.3 359.5 137.3C351 137.3 344 137.2 344 137C344 136.8 350.9 136.7 359.5 136.7C368.1 136.7 375 136.8 375 137Z" fill="#263238"/>
<path d="M166.3 104.8H158.6V110.7H166.3V104.8Z" fill="url(#paint0_linear_3868_77469)"/>
<path d="M176 91.2H168.3V110.7H176V91.2Z" fill="url(#paint1_linear_3868_77469)"/>
<path d="M186.7 99.6H179V110.7H186.7V99.6Z" fill="url(#paint2_linear_3868_77469)"/>
<path d="M196.9 85.5H189.2V110.6H196.9V85.5Z" fill="url(#paint3_linear_3868_77469)"/>
<path d="M161.9 98.7C159.8 98.7 158.1 97 158.1 94.9C158.1 92.8 159.8 91.1 161.9 91.1C164 91.1 165.7 92.8 165.7 94.9C165.8 97 164 98.7 161.9 98.7ZM161.9 92C160.3 92 159.1 93.3 159.1 94.8C159.1 96.4 160.4 97.6 161.9 97.6C163.5 97.6 164.7 96.3 164.7 94.8C164.8 93.3 163.5 92 161.9 92Z" fill="url(#paint4_linear_3868_77469)"/>
<path d="M172.9 84.1C170.8 84.1 169.1 82.4 169.1 80.3C169.1 78.2 170.8 76.5 172.9 76.5C175 76.5 176.7 78.2 176.7 80.3C176.8 82.4 175 84.1 172.9 84.1ZM172.9 77.5C171.3 77.5 170.1 78.8 170.1 80.3C170.1 81.9 171.4 83.1 172.9 83.1C174.5 83.1 175.7 81.8 175.7 80.3C175.8 78.7 174.5 77.5 172.9 77.5Z" fill="url(#paint5_linear_3868_77469)"/>
<path d="M182.9 93.4C180.8 93.4 179.1 91.7 179.1 89.6C179.1 87.5 180.8 85.8 182.9 85.8C185 85.8 186.7 87.5 186.7 89.6C186.7 91.6 185 93.4 182.9 93.4ZM182.9 86.7C181.3 86.7 180.1 88 180.1 89.5C180.1 91.1 181.4 92.3 182.9 92.3C184.5 92.3 185.7 91 185.7 89.5C185.7 88 184.4 86.7 182.9 86.7Z" fill="url(#paint6_linear_3868_77469)"/>
<path d="M193.5 80C191.4 80 189.7 78.3 189.7 76.2C189.7 74.1 191.4 72.4 193.5 72.4C195.6 72.4 197.3 74.1 197.3 76.2C197.3 78.3 195.6 80 193.5 80ZM193.5 73.3C191.9 73.3 190.7 74.6 190.7 76.1C190.7 77.7 192 78.9 193.5 78.9C195.1 78.9 196.3 77.6 196.3 76.1C196.3 74.6 195.1 73.3 193.5 73.3Z" fill="url(#paint7_linear_3868_77469)"/>
<path d="M190.835 78.3503L184.682 87.1039L185.501 87.6789L191.653 78.9253L190.835 78.3503Z" fill="url(#paint8_linear_3868_77469)"/>
<path d="M175.803 82.6394L175.08 83.3306L179.78 88.2449L180.503 87.5537L175.803 82.6394Z" fill="url(#paint9_linear_3868_77469)"/>
<path d="M170.286 82.8385L163.357 91.7644L164.147 92.3776L171.076 83.4517L170.286 82.8385Z" fill="url(#paint10_linear_3868_77469)"/>
<path d="M194.2 123.8C194.2 125.4 192.9 126.7 191.3 126.7C189.7 126.7 188.4 125.4 188.4 123.8C188.4 122.2 189.7 120.9 191.3 120.9C192.9 120.9 194.2 122.2 194.2 123.8Z" fill="#263238"/>
<path d="M267.2 71.7C267.2 73.3 265.9 74.6 264.3 74.6C262.7 74.6 261.4 73.3 261.4 71.7C261.4 70.1 262.7 68.8 264.3 68.8C265.8 68.8 267.2 70.1 267.2 71.7Z" fill="#263238"/>
<path d="M376.3 137C376.3 138.6 375 139.9 373.4 139.9C371.8 139.9 370.5 138.6 370.5 137C370.5 135.4 371.8 134.1 373.4 134.1C375 134.1 376.3 135.4 376.3 137Z" fill="#263238"/>
<path d="M341.5 93.1C341.5 94.7 340.2 96 338.6 96C337 96 335.7 94.7 335.7 93.1C335.7 91.5 337 90.2 338.6 90.2C340.2 90.1 341.5 91.4 341.5 93.1Z" fill="#263238"/>
<path d="M202.9 45.7H184.2C178.5 45.7 173.8 41.1 173.8 35.3V16.6C173.8 10.9 178.4 6.20001 184.2 6.20001H202.9C208.6 6.20001 213.3 10.8 213.3 16.6V35.3C213.3 41 208.6 45.7 202.9 45.7Z" fill="white"/>
<path d="M202.9 45.7C202.9 45.7 203.4 45.7 204.3 45.5C205.2 45.4 206.6 45.1 208.1 44.1C209.6 43.2 211.3 41.7 212.3 39.4C212.8 38.3 213.1 37 213.1 35.5C213.1 34.1 213.1 32.6 213.1 31C213.1 27.8 213.1 24.4 213.1 20.6C213.1 19.7 213.1 18.7 213.1 17.8C213.1 16.8 213.1 15.9 213 14.9C212.9 13.9 212.6 13 212.1 12.1C211.7 11.2 211.1 10.3 210.4 9.60002C209 8.10002 207.1 7.00002 205 6.60002C203.9 6.40002 202.9 6.40002 201.7 6.40002C200.6 6.40002 199.4 6.40002 198.3 6.40002C193.7 6.40002 189 6.40002 184.2 6.40002C181.8 6.40002 179.5 7.30002 177.7 8.70002C175.9 10.2 174.7 12.2 174.2 14.4C174 15.5 174 16.6 174 17.7C174 18.8 174 19.9 174 21C174 23.2 174 25.3 174 27.4C174 29.5 174 31.5 174 33.5C174 34.5 174 35.5 174.1 36.4C174.2 37.3 174.5 38.2 174.8 39.1C176.2 42.5 179.4 44.7 182.4 45.2C183.9 45.5 185.5 45.3 186.9 45.4C188.3 45.4 189.7 45.4 190.9 45.4C193.4 45.4 195.6 45.4 197.4 45.4C199.1 45.4 200.5 45.4 201.5 45.4C201.9 45.4 202.3 45.4 202.6 45.4C202.8 45.7 202.9 45.7 202.9 45.7C202.9 45.7 202.8 45.7 202.5 45.7C202.2 45.7 201.9 45.7 201.4 45.7C200.4 45.7 199.1 45.7 197.3 45.7C195.5 45.7 193.3 45.7 190.8 45.7C189.5 45.7 188.2 45.7 186.8 45.7C185.4 45.7 183.9 45.8 182.3 45.6C179.1 45.1 175.9 42.8 174.3 39.3C174 38.4 173.7 37.5 173.6 36.5C173.5 35.5 173.5 34.5 173.5 33.5C173.5 31.5 173.5 29.5 173.5 27.4C173.5 25.3 173.5 23.2 173.5 21C173.5 19.9 173.5 18.8 173.5 17.7C173.5 16.6 173.5 15.4 173.7 14.3C174.2 12 175.5 9.90002 177.3 8.30002C179.2 6.80002 181.6 5.90002 184.1 5.90002C188.9 5.90002 193.7 5.90002 198.2 5.90002C199.3 5.90002 200.5 5.90002 201.6 5.90002C202.7 5.90002 203.9 5.90002 205 6.10002C207.2 6.60002 209.2 7.70002 210.6 9.30002C211.3 10.1 211.9 11 212.4 11.9C212.9 12.8 213.2 13.8 213.3 14.8C213.5 15.8 213.4 16.8 213.4 17.8C213.4 18.8 213.4 19.7 213.4 20.6C213.4 24.3 213.4 27.8 213.4 31C213.4 32.6 213.4 34.1 213.4 35.5C213.4 37 213 38.3 212.5 39.5C211.5 41.9 209.7 43.4 208.2 44.3C206.6 45.2 205.2 45.5 204.3 45.6C203.4 45.7 202.9 45.7 202.9 45.7Z" fill="#263238"/>
<path d="M195.2 25.7001C196.9 25.0001 198.1 23.3001 198.1 21.2001C198.1 18.5001 196.1 16.3 193.6 16.3C191.1 16.3 189 18.5001 189 21.1C189 23.2 190.2 24.9001 191.9 25.6C184.9 26.7001 185.2 34.3 185.2 34.3L201.8 34.4001C201.8 34.5001 202.2 26.8001 195.2 25.7001Z" fill="#455A64"/>
<path d="M201.8 34.5001L185.2 34.4001C185.2 34.4001 185.1 32.5001 185.9 30.5001C186.4 29.3001 187 28.3001 187.9 27.6001C188.9 26.7001 190.3 26.1001 191.8 25.8001C190.1 25.0001 189 23.3001 189 21.3001C189 20.0001 189.5 18.8001 190.4 17.9001C191.3 17.0001 192.4 16.5001 193.6 16.5001C196.1 16.5001 198.2 18.7001 198.2 21.4001C198.2 23.4001 197.1 25.1001 195.4 25.9001C197 26.1001 198.3 26.8001 199.3 27.7001C200.1 28.5001 200.8 29.5001 201.2 30.7001C201.9 32.5001 201.8 34.5001 201.8 34.5001ZM185.3 34.4001L201.8 34.5001C201.8 34.3001 201.8 32.5001 201.1 30.6001C200.7 29.4001 200 28.4001 199.2 27.7001C198.2 26.7001 196.8 26.1001 195.3 25.9001H195.2H195.3C197 25.2001 198.2 23.4001 198.2 21.4001C198.2 18.7001 196.2 16.6001 193.7 16.5001C192.5 16.5001 191.4 17.0001 190.5 17.9001C189.6 18.8001 189.2 20.0001 189.2 21.3001C189.2 23.3001 190.3 25.1001 192.1 25.8001H192.2H192.1C190.5 26.0001 189.2 26.6001 188.1 27.6001C187.3 28.4001 186.6 29.3001 186.1 30.5001C185.2 32.3001 185.3 34.1001 185.3 34.4001Z" fill="#263238"/>
<path d="M412.3 229.6H388C382.3 229.6 377.6 225 377.6 219.2V195C377.6 189.3 382.2 184.6 388 184.6H412.2C417.9 184.6 422.6 189.2 422.6 195V219.2C422.6 224.9 418 229.6 412.3 229.6Z" fill="white"/>
<path d="M412.3 229.6C412.3 229.6 412.9 229.6 413.9 229.4C414.9 229.2 416.5 228.8 418.2 227.6C419.8 226.4 421.6 224.4 422.2 221.6C422.6 220.2 422.5 218.6 422.5 217C422.5 215.3 422.5 213.6 422.5 211.8C422.5 208.1 422.5 204.1 422.5 199.8C422.5 198.7 422.5 197.6 422.5 196.5C422.5 195.4 422.6 194.3 422.3 193.2C421.9 191 420.7 188.8 418.9 187.3C417.1 185.8 414.7 184.9 412.2 184.9C409.7 184.9 407.1 184.9 404.4 184.9C399.1 184.9 393.7 184.9 388.1 184.9C385.4 184.9 382.7 186 380.9 188C379 189.9 378 192.5 378 195.1C378 200.4 378 205.5 378 210.3C378 212.7 378 215.1 378 217.4C378 218.6 378 219.7 378.1 220.8C378.2 221.9 378.6 222.9 379 223.9C379.9 225.8 381.4 227.3 383.1 228.3C384.8 229.3 386.7 229.7 388.5 229.6C395.8 229.6 401.7 229.7 405.9 229.7C407.9 229.7 409.5 229.7 410.6 229.7C411.1 229.7 411.5 229.7 411.8 229.7C412.1 229.6 412.3 229.6 412.3 229.6C412.3 229.6 412.2 229.6 411.9 229.6C411.6 229.6 411.2 229.6 410.7 229.6C409.6 229.6 408 229.6 406 229.6C401.9 229.6 395.9 229.6 388.6 229.7C386.8 229.8 384.8 229.4 383 228.4C381.2 227.4 379.6 225.9 378.7 223.9C378.2 222.9 377.9 221.8 377.7 220.7C377.5 219.6 377.6 218.4 377.6 217.3C377.6 215 377.6 212.6 377.6 210.2C377.6 205.4 377.6 200.3 377.6 195C377.6 192.3 378.7 189.5 380.6 187.5C382.5 185.5 385.3 184.3 388.2 184.3C393.8 184.3 399.3 184.3 404.5 184.3C407.1 184.3 409.7 184.3 412.3 184.3C414.9 184.3 417.4 185.2 419.3 186.9C421.2 188.5 422.4 190.8 422.8 193.1C423 194.3 423 195.4 423 196.5C423 197.6 423 198.7 423 199.8C423 204.1 423 208.1 423 211.8C423 213.6 423 215.4 423 217C423 218.6 423.1 220.2 422.7 221.7C422 224.6 420.2 226.6 418.5 227.8C416.8 229 415.2 229.4 414.1 229.5C413.6 229.6 413.1 229.6 412.9 229.6C412.4 229.6 412.3 229.6 412.3 229.6Z" fill="#263238"/>
<path d="M206.9 219.5H182.7C177 219.5 172.3 214.9 172.3 209.1V184.9C172.3 179.2 176.9 174.5 182.7 174.5H206.9C212.6 174.5 217.3 179.1 217.3 184.9V209.1C217.3 214.8 212.7 219.5 206.9 219.5Z" fill="white"/>
<path d="M206.9 219.5C206.9 219.5 207.5 219.5 208.5 219.3C209.5 219.1 211.1 218.7 212.8 217.5C214.4 216.3 216.2 214.3 216.8 211.5C217.2 210.1 217.1 208.5 217.1 206.9C217.1 205.2 217.1 203.5 217.1 201.7C217.1 198 217.1 194 217.1 189.7C217.1 188.6 217.1 187.5 217.1 186.4C217.1 185.3 217.2 184.2 216.9 183.1C216.5 180.9 215.3 178.7 213.5 177.2C211.7 175.7 209.3 174.8 206.8 174.8C204.3 174.8 201.7 174.8 199 174.8C193.7 174.8 188.3 174.8 182.7 174.8C180 174.8 177.3 175.9 175.5 177.9C173.6 179.8 172.6 182.4 172.6 185C172.6 190.3 172.6 195.4 172.6 200.2C172.6 202.6 172.6 205 172.6 207.3C172.6 208.5 172.6 209.6 172.7 210.7C172.8 211.8 173.2 212.8 173.6 213.8C174.5 215.7 176 217.2 177.7 218.2C179.4 219.2 181.3 219.6 183.1 219.5C190.4 219.5 196.3 219.6 200.5 219.6C202.5 219.6 204.1 219.6 205.2 219.6C205.7 219.6 206.1 219.6 206.4 219.6C206.8 219.5 206.9 219.5 206.9 219.5C206.9 219.5 206.8 219.5 206.5 219.5C206.2 219.5 205.8 219.5 205.3 219.5C204.2 219.5 202.6 219.5 200.6 219.5C196.5 219.5 190.5 219.5 183.2 219.6C181.4 219.7 179.4 219.3 177.6 218.3C175.8 217.3 174.2 215.8 173.3 213.8C172.8 212.8 172.5 211.7 172.3 210.6C172.1 209.5 172.2 208.3 172.2 207.2C172.2 204.9 172.2 202.5 172.2 200.1C172.2 195.3 172.2 190.2 172.2 184.9C172.2 182.2 173.3 179.4 175.2 177.4C177.1 175.4 179.9 174.2 182.8 174.2C188.4 174.2 193.9 174.2 199.1 174.2C201.7 174.2 204.3 174.2 206.9 174.2C209.5 174.2 212 175.1 213.9 176.8C215.8 178.4 217 180.7 217.4 183C217.6 184.2 217.6 185.3 217.6 186.4C217.6 187.5 217.6 188.6 217.6 189.7C217.6 194 217.6 198 217.6 201.7C217.6 203.5 217.6 205.3 217.6 206.9C217.6 208.5 217.7 210.1 217.3 211.6C216.6 214.5 214.8 216.5 213.1 217.7C211.4 218.9 209.8 219.3 208.7 219.4C208.2 219.5 207.7 219.5 207.5 219.5C207.1 219.5 206.9 219.5 206.9 219.5Z" fill="#263238"/>
<path d="M196.8 196.8C198.7 196 200.1 194 200.1 191.7C200.1 188.6 197.8 186.2 194.9 186.2C192 186.2 189.7 188.7 189.7 191.7C189.7 194.1 191.1 196.1 193 196.9C185 198.1 185.4 206.8 185.4 206.8L204.3 206.9C204.2 206.7 204.7 198 196.8 196.8Z" fill="url(#paint11_linear_3868_77469)"/>
<path d="M260.3 49C259.2 49 258 48.8 256.9 48.5C251.1 46.6 247.9 40.3 249.7 34.5C251.6 28.7 257.9 25.5 263.7 27.3C266.5 28.2 268.8 30.2 270.2 32.8C271.6 35.4 271.8 38.5 270.9 41.3C269.3 46 265 49 260.3 49ZM260.3 28.8C256.5 28.8 252.9 31.3 251.6 35.1C250.1 39.9 252.7 45 257.5 46.6C262.3 48.1 267.4 45.5 269 40.7C270.5 35.9 267.9 30.8 263.1 29.2C262.1 28.9 261.2 28.8 260.3 28.8Z" fill="#263238"/>
<path d="M275 55.7C274.7 55.7 274.5 55.6 274.3 55.4L266 46.4C265.6 46 265.7 45.4 266.1 45C266.5 44.6 267.1 44.7 267.5 45.1L275.8 54.1C276.2 54.5 276.1 55.1 275.7 55.5C275.4 55.6 275.2 55.7 275 55.7Z" fill="#263238"/>
<path d="M404.9 154.3C394.7 154.3 386.4 146 386.4 135.8C386.4 125.6 394.7 117.3 404.9 117.3C415.1 117.3 423.4 125.6 423.4 135.8C423.4 145.9 415.1 154.3 404.9 154.3ZM404.9 118.2C395.2 118.2 387.4 126.1 387.4 135.7C387.4 145.4 395.3 153.2 404.9 153.2C414.5 153.2 422.4 145.3 422.4 135.7C422.4 126.1 414.5 118.2 404.9 118.2Z" fill="url(#paint12_linear_3868_77469)"/>
<path d="M404.3 154.2C404.2 154.1 401.9 152.8 399.5 149.8C397.4 147 394.9 142.3 395.2 135.3C395.5 128.3 398.1 123.8 400.3 121.2C402.7 118.4 405 117.2 405.1 117.2L405.5 118.1C405.4 118.1 396.7 122.6 396.2 135.3C395.7 148 404.7 153.2 404.8 153.2L404.3 154.2Z" fill="url(#paint13_linear_3868_77469)"/>
<path d="M405.1 154.2L404.6 153.3C404.7 153.2 413.4 147.7 412.9 135C412.4 122.3 404.1 118.2 404 118.1L404.4 117.2C404.8 117.4 413.4 121.6 413.9 134.9C414.4 148.3 405.2 154.1 405.1 154.2Z" fill="url(#paint14_linear_3868_77469)"/>
<path d="M405.1 129.8C397.6 129.8 392.8 127.3 390 125.1L390.6 124.3C393.2 126.3 397.8 128.8 405.1 128.8C412.1 128.8 416.5 126.4 419 124.3L419.6 125.1C417 127.3 412.4 129.8 405.1 129.8Z" fill="url(#paint15_linear_3868_77469)"/>
<path d="M419.1 146.5C416.5 144.5 411.9 142.2 404.6 142.2C397.6 142.2 393.2 144.5 390.7 146.5L390.1 145.7C392.7 143.6 397.4 141.2 404.6 141.2C412.1 141.2 416.9 143.7 419.7 145.7L419.1 146.5Z" fill="url(#paint16_linear_3868_77469)"/>
<path d="M422.9 135.3H387.3V136.3H422.9V135.3Z" fill="url(#paint17_linear_3868_77469)"/>
<path d="M345.6 276.4H320.2V301.8H345.6V276.4Z" fill="#E0E0E0"/>
<path d="M378 277.9H351.9V280.1H378V277.9Z" fill="#E0E0E0"/>
<path d="M378 282.9H351.9V285.1H378V282.9Z" fill="#E0E0E0"/>
<path d="M378 288H351.9V290.2H378V288Z" fill="#E0E0E0"/>
<path d="M378 293H351.9V295.2H378V293Z" fill="#E0E0E0"/>
<path d="M378 298H351.9V300.2H378V298Z" fill="#E0E0E0"/>
<path d="M382.8 269.5H313.5V259.5C313.5 255.7 316.6 252.5 320.5 252.5H375.8C379.7 252.5 382.9 255.7 382.9 259.6V269.5H382.8Z" fill="#E0E0E0"/>
<path d="M376.3 313.5C376.3 313.4 377.2 313.6 378.7 313C379.5 312.7 380.3 312.1 381.1 311.2C381.9 310.3 382.5 309 382.6 307.4C382.6 301.1 382.6 292 382.5 280.7C382.5 275.1 382.5 268.9 382.5 262.3C382.5 261.5 382.5 260.6 382.5 259.8C382.5 258.9 382.5 258.1 382.2 257.3C381.7 255.7 380.6 254.3 379.1 253.5C378.3 253.1 377.5 252.9 376.6 252.8C375.7 252.8 374.8 252.8 373.9 252.8C372.1 252.8 370.2 252.8 368.4 252.8C353.5 252.8 337.1 252.8 319.9 252.8C318.9 252.8 317.8 253.1 316.9 253.5C316 254 315.2 254.7 314.7 255.6C314.2 256.5 313.8 257.4 313.7 258.5C313.7 259.5 313.7 260.6 313.7 261.6C313.7 265.8 313.7 269.9 313.7 274C313.7 282.1 313.7 289.9 313.7 297.4C313.7 299.3 313.7 301.1 313.7 302.9C313.7 303.8 313.7 304.7 313.7 305.6C313.7 306.5 313.6 307.4 313.8 308.2C314.1 309.9 315.2 311.4 316.6 312.3C317.3 312.8 318.1 313.1 318.9 313.2C319.7 313.4 320.5 313.3 321.4 313.3C328 313.3 334.2 313.3 339.8 313.3C351.1 313.3 360.2 313.4 366.5 313.4C369.6 313.4 372.1 313.4 373.8 313.4C374.6 313.4 375.2 313.4 375.7 313.4C376.1 313.5 376.3 313.5 376.3 313.5C376.3 313.5 376.1 313.5 375.7 313.5C375.3 313.5 374.6 313.5 373.8 313.5C372.1 313.5 369.7 313.5 366.5 313.5C360.2 313.5 351.1 313.5 339.8 313.6C334.2 313.6 328 313.6 321.4 313.6C320.6 313.6 319.7 313.7 318.9 313.5C318 313.3 317.2 313 316.5 312.5C315 311.5 313.9 310 313.5 308.2C313.3 307.3 313.4 306.4 313.4 305.5C313.4 304.6 313.4 303.7 313.4 302.8C313.4 301 313.4 299.1 313.4 297.3C313.4 289.8 313.4 282 313.4 273.9C313.4 269.8 313.4 265.7 313.4 261.5C313.4 260.4 313.4 259.4 313.4 258.3C313.5 257.2 313.9 256.1 314.5 255.2C315.1 254.3 315.9 253.5 316.9 253C317.9 252.5 319 252.2 320.1 252.2C337.3 252.2 353.7 252.2 368.6 252.2C370.5 252.2 372.3 252.2 374.1 252.2C375 252.2 375.9 252.2 376.8 252.2C377.7 252.3 378.6 252.5 379.4 252.9C381 253.7 382.2 255.2 382.8 256.9C383.1 257.7 383.1 258.7 383.1 259.5C383.1 260.3 383.1 261.2 383.1 262C383.1 268.6 383.1 274.8 383.1 280.4C383.1 291.7 383.1 300.8 383 307.1C382.9 308.7 382.2 310 381.4 311C380.6 311.9 379.7 312.5 378.9 312.8C378.1 313.1 377.5 313.2 377.1 313.2C376.5 313.5 376.3 313.5 376.3 313.5Z" fill="#263238"/>
<path d="M351.9 252.5C351.9 254.1 350.6 255.4 349 255.4C347.4 255.4 346.1 254.1 346.1 252.5C346.1 250.9 347.4 249.6 349 249.6C350.6 249.6 351.9 250.9 351.9 252.5Z" fill="#263238"/>
<path d="M389.1 214.9C391.4 216.3 394 217.2 396.9 217.2C406.4 217.2 411.7 209.2 411.4 202.1C412.4 201.4 413.3 200.5 413.9 199.5C413 199.9 412 200.2 411 200.3C412.1 199.7 412.9 198.7 413.2 197.5C412.2 198.1 411.1 198.5 410 198.7C409.1 197.7 407.7 197.1 406.3 197.1C403 197.1 400.6 200.2 401.3 203.4C397.1 203.2 393.3 201.2 390.8 198.1C389.5 200.4 390.1 203.4 392.4 204.9C391.6 204.9 390.8 204.6 390.1 204.3C390 206.7 391.7 208.9 394.2 209.4C393.5 209.6 392.7 209.6 391.9 209.5C392.5 211.5 394.4 213 396.7 213C394.5 214.5 391.8 215.2 389.1 214.9Z" fill="#455A64"/>
<path d="M360.8 64.6C362.3 70 358.8 75.2 353.4 75.2H324.5C319.8 75.2 316.2 70.7 317.5 66.1C317.6 65.9 317.7 65.6 317.7 65.4C319 62.2 322.7 60.2 326 60.9C326.8 55 331.8 50.1 337.6 49.4C343.4 48.8 349.4 52.5 351.4 58.1C351.4 58.1 358.9 57.7 360.8 64.6Z" fill="url(#paint18_linear_3868_77469)"/>
<path d="M336.4 80.3V69.2H332.1C331.6 69.2 331.3 68.6 331.6 68.2L338.7 58.1C338.9 57.7 339.5 57.7 339.7 58.1L346.8 68.1C347.1 68.5 346.8 69.1 346.3 69.1H342.1V80.3H336.4Z" fill="white"/>
<path d="M362.2 227.1L349.1 181.2H235L220.2 227C219.3 229.8 221.3 232.6 224.2 232.6H276.3L278.4 230.5H303L305.1 232.6H358.1C360.9 232.6 363 229.9 362.2 227.1Z" fill="#E0E0E0"/>
<g opacity="0.3">
<path d="M362.2 227.1L349.1 181.2H235L220.2 227C219.3 229.8 221.3 232.6 224.2 232.6H276.3L278.4 230.5H303L305.1 232.6H358.1C360.9 232.6 363 229.9 362.2 227.1Z" fill="black"/>
</g>
<path d="M235 180V112.6C235 109.9 237.2 107.8 239.8 107.8H344.6C347.3 107.8 349.4 110 349.4 112.6V180H235Z" fill="#E0E0E0"/>
<path d="M342.5 114.4H241.9V174.3H342.5V114.4Z" fill="white"/>
<path d="M342.5 174.4C342.5 174.4 342.5 174 342.5 173.3C342.5 172.6 342.5 171.5 342.5 170.2C342.5 167.4 342.5 163.4 342.4 158.2C342.4 147.8 342.3 132.8 342.3 114.5L342.5 114.7C315.4 114.7 280.2 114.7 241.9 114.8L242.2 114.5C242.2 135.7 242.2 156 242.2 174.4L242 174.2C271.5 174.2 296.6 174.3 314.4 174.3C323.3 174.3 330.3 174.4 335.2 174.4C337.6 174.4 339.5 174.4 340.7 174.4C341.3 174.4 341.8 174.4 342.1 174.4C342.4 174.4 342.5 174.4 342.5 174.4C342.5 174.4 342.3 174.4 342 174.4C341.7 174.4 341.2 174.4 340.6 174.4C339.3 174.4 337.5 174.4 335.1 174.4C330.3 174.4 323.2 174.4 314.4 174.5C296.6 174.5 271.4 174.6 241.9 174.6H241.7V174.4C241.7 156 241.7 135.7 241.7 114.5V114.2H242C280.3 114.2 315.5 114.2 342.6 114.3H342.8V114.5C342.8 132.9 342.7 147.9 342.7 158.3C342.7 163.5 342.7 167.5 342.6 170.3C342.6 171.7 342.6 172.7 342.6 173.4C342.6 174 342.5 174.4 342.5 174.4Z" fill="#263238"/>
<path d="M294.1 111.3C294.1 112.3 293.3 113.1 292.2 113.1C291.2 113.1 290.3 112.3 290.3 111.3C290.3 110.3 291.1 109.5 292.2 109.5C293.3 109.4 294.1 110.2 294.1 111.3Z" fill="#263238"/>
<path d="M362.2 225.4L349.1 179.5H235L220.1 225.3C219.2 228.1 221.2 230.9 224.1 230.9H276.2L278.3 228.8H303L305.1 230.9H358.1C360.9 230.9 363 228.2 362.2 225.4Z" fill="#E0E0E0"/>
<path d="M341 182.4L241.6 182.1C240.6 182.1 239.6 182.7 239.4 183.5L231.4 206.1C231 207.3 232.1 208.6 233.6 208.6H348.7C350.2 208.6 351.4 207.4 350.9 206.2L343.2 183.9C343 183 342.1 182.4 341 182.4Z" fill="#EBEBEB"/>
<g opacity="0.1">
<path d="M310.2 225.8H270.9C269.3 225.8 268.1 224.1 268.5 222.4L270.7 213.1C271 211.9 272 211.1 273.1 211.1H308.2C309.3 211.1 310.3 212 310.6 213.2L312.6 222.5C312.9 224.2 311.7 225.8 310.2 225.8Z" fill="black"/>
</g>
<path d="M310 189.6L309 184.9C308.9 184.6 308.6 184.3 308.3 184.3H302.2C301.8 184.3 301.4 184.7 301.5 185.1L302.2 189.8C302.2 190.1 302.5 190.4 302.9 190.4H309.4C309.8 190.4 310.1 190 310 189.6Z" fill="#263238"/>
<path d="M291.6 189.7L291.2 184.9C291.2 184.5 290.9 184.3 290.5 184.3H284.2C283.8 184.3 283.5 184.6 283.5 185L283.7 189.8C283.7 190.2 284 190.5 284.4 190.5H290.9C291.3 190.5 291.6 190.1 291.6 189.7Z" fill="#263238"/>
<path d="M301.3 189.6L300.6 184.9C300.6 184.6 300.3 184.3 299.9 184.3H292.7C292.3 184.3 292 184.7 292 185.1L292.4 189.9C292.4 190.3 292.7 190.5 293.1 190.5H300.5C301 190.4 301.3 190.1 301.3 189.6Z" fill="#263238"/>
<path d="M255.6 189.8L256.6 185.5C256.7 184.9 256.3 184.3 255.7 184.3H249.8C249.4 184.3 249 184.6 248.9 185L247.7 189.3C247.5 189.9 248 190.5 248.6 190.5H254.8C255.2 190.5 255.5 190.2 255.6 189.8Z" fill="#263238"/>
<path d="M342 189.4L340.2 184.7C340.1 184.4 339.8 184.2 339.5 184.2H327.9C327.4 184.2 327.1 184.7 327.2 185.2L329 189.9C329.1 190.2 329.4 190.4 329.7 190.4H341.4C341.9 190.4 342.2 189.9 342 189.4Z" fill="#263238"/>
<path d="M281.9 184.3H275.1C274.7 184.3 274.4 184.6 274.4 185L274.2 189.8C274.2 190.2 274.5 190.5 274.9 190.5H282.1C282.5 190.5 282.8 190.2 282.8 189.8L282.6 185C282.6 184.6 282.3 184.3 281.9 184.3Z" fill="#263238"/>
<path d="M246.9 184.3H242.2C241.8 184.3 241.4 184.6 241.3 184.9L239.7 189.2C239.5 189.8 239.9 190.5 240.6 190.5H245.6C246 190.5 246.4 190.2 246.5 189.8L247.7 185.5C248 184.9 247.5 184.3 246.9 184.3Z" fill="#263238"/>
<path d="M264.4 189.9L265 185.1C265.1 184.7 264.7 184.3 264.3 184.3H258.3C258 184.3 257.7 184.5 257.6 184.9L256.5 189.7C256.4 190.1 256.7 190.6 257.2 190.6H263.7C264 190.5 264.3 190.2 264.4 189.9Z" fill="#263238"/>
<path d="M265.9 184.9L265.3 189.7C265.2 190.1 265.6 190.5 266 190.5H272.7C273.1 190.5 273.4 190.2 273.4 189.8L273.6 185C273.6 184.6 273.3 184.3 272.9 184.3H266.6C266.2 184.3 265.9 184.6 265.9 184.9Z" fill="#263238"/>
<path d="M319.2 189.5L317.8 184.8C317.7 184.5 317.4 184.3 317.1 184.3H310.6C310.2 184.3 309.8 184.7 309.9 185.2L310.9 189.9C311 190.2 311.3 190.5 311.6 190.5H318.5C319 190.4 319.4 190 319.2 189.5Z" fill="#263238"/>
<path d="M327.9 189.5L326.1 184.8C326 184.5 325.7 184.3 325.4 184.3H319.4C318.9 184.3 318.6 184.8 318.7 185.2L320.1 189.9C320.2 190.2 320.5 190.4 320.8 190.4H327.1C327.8 190.4 328.1 189.9 327.9 189.5Z" fill="#263238"/>
<path d="M282.2 191.5H274.8C274.4 191.5 274.1 191.8 274.1 192.2L273.9 197.1C273.9 197.5 274.2 197.8 274.6 197.8H282.4C282.8 197.8 283.1 197.5 283.1 197.1L282.9 192.2C282.9 191.8 282.6 191.5 282.2 191.5Z" fill="#263238"/>
<path d="M330.7 196.9L328.9 192C328.8 191.7 328.5 191.5 328.2 191.5H321.7C321.2 191.5 320.9 192 321 192.4L322.4 197.3C322.5 197.6 322.8 197.8 323.1 197.8H330C330.5 197.8 330.8 197.3 330.7 196.9Z" fill="#263238"/>
<path d="M321.4 196.9L320 192C319.9 191.7 319.6 191.5 319.3 191.5H312.2C311.8 191.5 311.4 191.9 311.5 192.4L312.6 197.3C312.7 197.6 313 197.9 313.3 197.9H320.8C321.2 197.8 321.6 197.4 321.4 196.9Z" fill="#263238"/>
<path d="M265 197.9H272.3C272.7 197.9 273 197.6 273 197.2L273.2 192.3C273.2 191.9 272.9 191.6 272.5 191.6H265.6C265.2 191.6 264.9 191.9 264.9 192.2L264.3 197.1C264.2 197.5 264.6 197.9 265 197.9Z" fill="#263238"/>
<path d="M284.6 197.9H291.5C291.9 197.9 292.2 197.5 292.2 197.1L291.8 192.2C291.8 191.8 291.5 191.6 291.1 191.6H284.4C284 191.6 283.7 191.9 283.7 192.3L283.9 197.2C283.9 197.6 284.3 197.9 284.6 197.9Z" fill="#263238"/>
<path d="M292.7 192.3L293.1 197.2C293.1 197.6 293.4 197.8 293.8 197.8H301.6C302 197.8 302.4 197.4 302.3 197L301.6 192.1C301.6 191.8 301.3 191.5 300.9 191.5H293.3C293 191.5 292.6 191.9 292.7 192.3Z" fill="#263238"/>
<path d="M311.6 197L310.5 192.1C310.4 191.8 310.1 191.5 309.8 191.5H303.1C302.7 191.5 302.3 191.9 302.4 192.3L303.1 197.2C303.1 197.5 303.4 197.8 303.8 197.8H310.8C311.4 197.8 311.7 197.4 311.6 197Z" fill="#263238"/>
<path d="M254.4 191.5H239.7C239.4 191.5 239.1 191.7 239 192L237.1 197C236.9 197.5 237.3 198 237.8 198H253.4C253.7 198 254 197.8 254.1 197.4L255.2 192.4C255.1 192 254.8 191.5 254.4 191.5Z" fill="#263238"/>
<path d="M255.6 197.9H262.8C263.2 197.9 263.5 197.6 263.5 197.3L264.1 192.4C264.2 192 263.8 191.6 263.4 191.6H256.7C256.4 191.6 256.1 191.8 256 192.2L254.9 197.2C254.8 197.5 255.1 197.9 255.6 197.9Z" fill="#263238"/>
<path d="M339.5 197.8H344.1C344.6 197.8 344.9 197.3 344.8 196.8L342.9 192C342.8 191.7 342.5 191.6 342.2 191.6H338C337.5 191.6 337.2 192.1 337.3 192.5L338.9 197.3C338.9 197.6 339.2 197.8 339.5 197.8Z" fill="#263238"/>
<path d="M337.8 196.9L336.2 192.1C336.1 191.8 335.8 191.6 335.5 191.6H330.6C330.1 191.6 329.8 192.1 329.9 192.6L331.7 197.4C331.8 197.7 332.1 197.9 332.4 197.9H337.1C337.6 197.8 337.9 197.3 337.8 196.9Z" fill="#263238"/>
<path d="M264.3 206.2H271.5C272.1 206.2 272.5 205.8 272.6 205.2L272.8 200C272.8 199.4 272.3 198.9 271.7 198.9H265C264.5 198.9 264 199.3 263.9 199.8L263.2 204.9C263.2 205.7 263.7 206.2 264.3 206.2Z" fill="#263238"/>
<path d="M345 199H333.9C333.2 199 332.6 199.7 332.9 200.4L334.9 205.7C335.1 206.1 335.5 206.4 335.9 206.4H347.1C347.8 206.4 348.4 205.6 348.1 205L346 199.7C345.8 199.2 345.5 199 345 199Z" fill="#263238"/>
<path d="M254.3 199.8L253.2 204.9C253.1 205.6 253.6 206.2 254.2 206.2H261.4C261.9 206.2 262.4 205.8 262.5 205.3L263.2 200.2C263.3 199.6 262.8 199 262.1 199H255.4C254.8 199 254.4 199.3 254.3 199.8Z" fill="#263238"/>
<path d="M244.5 199.7L243 205C242.8 205.6 243.3 206.2 243.9 206.2H251.2C251.6 206.2 252 205.9 252.1 205.5L253.3 200.1C253.4 199.5 253 199 252.4 199L245.4 199.1C245 199.1 244.6 199.3 244.5 199.7Z" fill="#263238"/>
<path d="M313.2 200.2L314.3 205.4C314.4 205.9 314.8 206.2 315.3 206.2H322.7C323.4 206.2 323.9 205.5 323.7 204.8L322.1 199.6C322 199.1 321.6 198.8 321.1 198.8H314.1C313.6 199 313.1 199.6 313.2 200.2Z" fill="#263238"/>
<path d="M273.7 200L273.5 205.2C273.5 205.8 274 206.3 274.6 206.3L312.4 206.4C313.1 206.4 313.6 205.8 313.4 205.1L312.3 199.9C312.2 199.4 311.8 199.1 311.3 199.1H274.9C274.2 199 273.8 199.4 273.7 200Z" fill="#263238"/>
<path d="M236.3 199.5L234.3 205C234.1 205.5 234.5 206.1 235.1 206.1H241.2C241.6 206.1 241.9 205.9 242 205.5L243.6 200C243.8 199.5 243.3 198.9 242.8 198.9H237.1C236.7 199 236.4 199.2 236.3 199.5Z" fill="#263238"/>
<path d="M323.3 200.3L324.9 205.5C325 206 325.4 206.3 325.9 206.3H332.7C333.4 206.3 334 205.6 333.7 204.9L331.7 199.7C331.5 199.3 331.1 199 330.7 199H324.3C323.6 199 323.1 199.6 323.3 200.3Z" fill="#263238"/>
<path d="M349.5 179.7C349.5 179.8 323.9 180 292.4 180C260.8 180 235.3 179.9 235.3 179.7C235.3 179.5 260.9 179.4 292.4 179.4C324 179.4 349.5 179.5 349.5 179.7Z" fill="#263238"/>
<path d="M270.1 131.6C271.2 130.7 272.3 130 273.5 129.4L273.7 125.6L279.9 124.6L281.3 128.1C282.6 128.2 284 128.5 285.3 129L288.1 126.5L293.2 130.1L291.7 133.6C292.6 134.7 293.3 135.8 293.9 137L297.7 137.2L298.7 143.4L295.2 144.8C295.1 146.1 294.8 147.5 294.3 148.8L296.8 151.6L293.2 156.7L289.7 155.2C288.6 156.1 287.5 156.8 286.3 157.4L286.1 161.2L280 162.2L278.6 158.7C277.3 158.6 275.9 158.3 274.6 157.8L271.8 160.3L266.7 156.7L268.2 153.2C267.3 152.1 266.6 151 266 149.8L262.2 149.6L261.2 143.4L264.7 142C264.8 140.7 265.1 139.3 265.6 138L263.1 135.2L266.7 130.1L270.1 131.6ZM274.6 139.4C272.5 142.4 273.2 146.6 276.2 148.7C279.2 150.8 283.4 150.1 285.5 147.1C287.6 144.1 286.9 139.9 283.9 137.8C280.9 135.6 276.8 136.3 274.6 139.4Z" fill="#F5F5F5"/>
<path d="M304 147.3C304.7 146.7 305.5 146.2 306.3 145.8L306.4 143.3L310.6 142.6L311.6 145C312.5 145.1 313.4 145.3 314.3 145.6L316.2 143.9L319.6 146.4L318.6 148.8C319.2 149.5 319.7 150.3 320.1 151.1L322.6 151.2L323.3 155.4L320.9 156.4C320.8 157.3 320.6 158.2 320.3 159.1L322 161L319.5 164.4L317.1 163.4C316.4 164 315.6 164.5 314.8 164.9L314.7 167.4L310.5 168.1L309.5 165.7C308.6 165.6 307.7 165.4 306.8 165.1L304.9 166.8L301.5 164.3L302.5 161.9C301.9 161.2 301.4 160.4 301 159.6L298.5 159.5L297.8 155.3L300.2 154.3C300.3 153.4 300.5 152.5 300.8 151.6L299.1 149.7L301.6 146.3L304 147.3ZM307 152.5C305.5 154.5 306 157.4 308.1 158.8C310.1 160.3 313 159.8 314.4 157.7C315.9 155.7 315.4 152.8 313.3 151.4C311.3 150 308.5 150.5 307 152.5Z" fill="#F5F5F5"/>
<path d="M302 122.9C302.6 122.4 303.3 121.9 304.1 121.6L304.2 119.3L307.9 118.7L308.8 120.8C309.6 120.9 310.4 121.1 311.2 121.3L312.9 119.8L315.9 122L315 124.1C315.5 124.7 316 125.4 316.3 126.2L318.6 126.3L319.2 130L317.1 130.9C317 131.7 316.8 132.5 316.6 133.3L318.1 135L315.9 138L313.8 137.1C313.2 137.6 312.5 138.1 311.7 138.4L311.6 140.7L307.9 141.3L307 139.2C306.2 139.1 305.4 138.9 304.6 138.7L302.9 140.2L299.9 138L300.8 135.9C300.3 135.3 299.8 134.6 299.5 133.8L297.2 133.7L296.6 130L298.7 129.1C298.8 128.3 299 127.5 299.2 126.7L297.7 125L299.9 122L302 122.9ZM304.7 127.6C303.4 129.4 303.8 131.9 305.6 133.2C307.4 134.5 309.9 134.1 311.2 132.3C312.5 130.5 312.1 128 310.3 126.7C308.5 125.4 306 125.8 304.7 127.6Z" fill="#F5F5F5"/>
<path d="M256.5 148H257.6V155.4H256.5V148Z" fill="#263238"/>
<path d="M266.1 148V155.4H265.2L260.8 149.9V155.4H259.7V148H260.6L265 153.5V148H266.1Z" fill="#263238"/>
<path d="M269.8 149H267.3V148H273.4V148.9H270.9V155.4H269.9V149H269.8Z" fill="#263238"/>
<path d="M279.9 154.5V155.4H274.5V148H279.7V148.9H275.5V151.2H279.2V152.1H275.5V154.5H279.9Z" fill="#263238"/>
<path d="M286.7 151.7H287.7V154.6C287 155.2 285.9 155.5 284.9 155.5C282.6 155.5 281 153.9 281 151.7C281 149.5 282.7 147.9 285 147.9C286.2 147.9 287.2 148.3 287.8 149L287.1 149.7C286.5 149.1 285.8 148.8 285 148.8C283.3 148.8 282.1 150 282.1 151.6C282.1 153.2 283.3 154.4 285 154.4C285.6 154.4 286.2 154.3 286.7 153.9V151.7Z" fill="#263238"/>
<path d="M294.6 155.4L293 153.1C292.9 153.1 292.7 153.1 292.5 153.1H290.7V155.3H289.6V148H292.5C294.4 148 295.6 149 295.6 150.6C295.6 151.7 295 152.6 294 152.9L295.8 155.4H294.6ZM294.6 150.6C294.6 149.5 293.9 148.9 292.5 148.9H290.7V152.2H292.5C293.9 152.3 294.6 151.7 294.6 150.6Z" fill="#263238"/>
<path d="M302.1 153.6H298.2L297.4 155.4H296.3L299.6 148H300.6L304 155.4H302.9L302.1 153.6ZM301.7 152.7L300.1 149.1L298.5 152.7H301.7Z" fill="#263238"/>
<path d="M306.2 149H303.7V148H309.8V148.9H307.3V155.4H306.3V149H306.2Z" fill="#263238"/>
<path d="M310.9 148H312V155.4H310.9V148Z" fill="#263238"/>
<path d="M313.6 151.7C313.6 149.5 315.3 147.9 317.5 147.9C319.7 147.9 321.4 149.5 321.4 151.7C321.4 153.9 319.7 155.5 317.5 155.5C315.3 155.5 313.6 153.9 313.6 151.7ZM320.4 151.7C320.4 150.1 319.2 148.9 317.5 148.9C315.8 148.9 314.6 150.1 314.6 151.7C314.6 153.3 315.8 154.5 317.5 154.5C319.2 154.6 320.4 153.4 320.4 151.7Z" fill="#263238"/>
<path d="M329.4 148V155.4H328.5L324.1 149.9V155.4H323V148H323.9L328.3 153.5V148H329.4Z" fill="#263238"/>
<path d="M76.5 128.3C71.9 125.5 70.7 118.8 73.1 114C75.5 109.2 80.7 106.2 85.9 105.3C93.5 104 101.8 106.5 107.3 112C110.3 115 112.7 118.9 116.7 120.2C120.2 121.4 124 120.2 127.7 120.6C132.6 121.2 136.9 124.6 139.4 128.8C142 133 143.1 138 143.7 142.9C144.3 147.4 144.7 152.3 147.9 155.6C151 158.8 155.8 159.4 159.6 161.6C166.8 165.8 169.3 176.4 164.7 183.3C163.2 185.5 161.1 187.6 161 190.2C160.9 192.6 162.5 194.8 163.2 197.1C165.2 203 160.4 210.2 154.2 210.6C151.1 210.8 147.7 209.6 144.9 211.1C142.1 212.5 141.1 215.9 139.4 218.5C136 223.6 128.6 225.6 123 223C120.7 221.9 118.5 220.1 115.9 220.3C113.3 220.5 111.3 222.7 108.8 223.3C105.5 224 102.3 221.6 100.3 218.9C98.3 216.2 96.9 213 94.3 210.8C91 207.9 86.3 207.3 82.1 205.9C72.9 202.9 65.1 195.7 61.3 186.7C57.5 177.7 57.9 167.1 62.2 158.4" fill="#263238"/>
<path d="M66.4001 237.3L60.3001 149C60.1001 145.1 62.8001 141.7 66.7001 141.1L106 129.3C118.7 127.4 127.8 142.7 129.2 155.5C130.7 169.7 132 187 130.8 197.7C128.3 219.2 110.8 222.6 110.8 222.6C110.8 222.5 111 244.4 111.2 252.1L116.4 276L66.4001 237.3Z" fill="white"/>
<path d="M121.4 173.9C121.5 175.3 120.4 176.6 118.9 176.8C117.4 176.9 116.1 175.9 116 174.5C115.9 173.1 117 171.8 118.5 171.6C120 171.4 121.3 172.5 121.4 173.9Z" fill="#263238"/>
<path d="M125.7 163.3C125.4 163.7 123.2 162.2 120.3 162.4C117.4 162.5 115.3 164.1 114.9 163.8C114.7 163.6 115.1 163 116 162.3C116.9 161.6 118.4 160.8 120.3 160.8C122.1 160.7 123.7 161.3 124.6 162C125.5 162.5 125.8 163.2 125.7 163.3Z" fill="#263238"/>
<path d="M95.0001 174.8C95.1001 176.2 94.0001 177.5 92.5001 177.7C91.0001 177.8 89.7001 176.8 89.6001 175.4C89.5001 174 90.6001 172.7 92.1001 172.5C93.5001 172.3 94.8001 173.4 95.0001 174.8Z" fill="#263238"/>
<path d="M96.8001 165.1C96.5001 165.5 94.3001 164 91.4001 164.2C88.5001 164.3 86.4001 165.9 86.0001 165.6C85.8001 165.4 86.2001 164.8 87.1001 164.1C88.0001 163.4 89.5001 162.6 91.4001 162.6C93.2001 162.5 94.8001 163.1 95.7001 163.8C96.6001 164.3 96.9001 165 96.8001 165.1Z" fill="#263238"/>
<path d="M108.4 186.5C108.4 186.3 110.2 185.9 113.1 185.4C113.8 185.3 114.6 185.1 114.7 184.6C114.9 184 114.5 183.3 114.1 182.4C113.3 180.6 112.5 178.7 111.6 176.8C108.2 168.8 105.6 162.2 106 162.1C106.3 162 109.4 168.3 112.8 176.4C113.6 178.4 114.4 180.3 115.2 182.1C115.5 182.9 116.1 183.9 115.7 185C115.5 185.6 115 186 114.5 186.2C114 186.4 113.6 186.4 113.2 186.4C110.3 186.5 108.4 186.6 108.4 186.5Z" fill="#263238"/>
<path d="M110.6 221.3C110.6 221.3 97.6001 222.8 83.0001 214.8C83.0001 214.8 89.4001 230.6 110.6 227.7V221.3Z" fill="#263238"/>
<path d="M108.3 193.5C106.8 191.6 104.4 190.4 102.2 190.6C100.7 190.7 99.2 191.5 98.4 192.9C97.6 194.3 97.7 196.3 98.7 197.6C99.8 199.2 101.9 199.6 103.5 199.1C105.1 198.6 106.5 197.4 107.7 196.2C108 195.9 108.4 195.5 108.6 195.1C108.8 194.6 108.8 194 108.4 193.6" fill="#263238" fill-opacity="0.2"/>
<path d="M99.8 188.9C100.3 188.9 100.4 192 103.3 194.2C106.1 196.4 109.5 195.9 109.6 196.3C109.7 196.5 108.9 197 107.4 197.1C106 197.2 103.9 196.8 102.2 195.5C100.5 194.2 99.7 192.4 99.5 191.1C99.3 189.7 99.6 188.9 99.8 188.9Z" fill="#263238"/>
<path d="M97.6 153C97.3 153.8 94.4 153.6 91 154.1C87.6 154.6 84.8 155.7 84.3 155C84.1 154.7 84.5 153.9 85.6 153.1C86.7 152.3 88.4 151.5 90.5 151.1C92.6 150.8 94.5 151 95.7 151.5C97 152 97.7 152.6 97.6 153Z" fill="#263238"/>
<path d="M124.2 153.3C123.7 154 121.7 153.4 119.2 153.5C116.8 153.5 114.7 154.1 114.2 153.5C114 153.2 114.3 152.5 115.1 151.8C116 151.1 117.4 150.6 119.1 150.5C120.8 150.5 122.3 151 123.1 151.7C124.1 152.3 124.4 152.9 124.2 153.3Z" fill="#263238"/>
<path d="M143.3 149.5C142.3 146.3 140.4 143.3 137.6 141.5C136 140.5 134.3 139.9 132.8 138.8C129.7 136.4 128.9 132 127 128.6C124.5 124.2 119.7 121.1 114.6 120.6C110.4 120.2 106 121.6 101.9 120.6C98.8 119.9 96.2 117.9 93.1 117.4C87.1 116.3 81.6 120.7 77.3 125.1C77.3 129.4 80.8 132.2 84.1 134.9C87.4 137.6 92 138.7 96.2 137.9C99.5 137.3 103 135.5 105.9 137.2C108.9 139 109.1 143.5 111.8 145.8C115.6 149 121.6 145.9 126.4 147.2C130.1 148.2 132.5 151.8 135 154.7C137.5 157.6 141.2 160.4 144.9 159.3C144.7 156 144.4 152.6 143.3 149.5Z" fill="#263238"/>
<path d="M98 131.9C95.3 131.2 89.8 129.5 88.3 127.2C85.1 122.2 79.5 118.8 73.9 119.2C68.3 119.6 62.9 124.1 61.8 130.1C55 130.3 48.4 134.6 45.2 141.1C44.8 141.9 44.5 142.8 44.2 143.6C42.1 147.4 41.8 152.1 43.4 156.1C44.4 158.5 46 161.2 44.8 163.5C43.6 165.8 40.3 166 37.9 166.9C33.6 168.5 30.8 173.5 31.8 178C32.2 179.6 33 181.2 32.7 182.8C32.4 184.5 30.9 185.7 29.9 187C27.2 190.3 26.4 195.1 27.9 199.1C29.4 203.1 33.2 206.2 37.4 206.9C39.3 207.2 41.4 207.1 43.1 208.1C45 209.2 45.9 211.5 47.2 213.3C49.8 216.7 54.7 218.1 58.7 216.7C59.5 216.4 60.3 216 61 215.5C62.3 217.3 64.3 218.4 67.8 218.4L66.4 173.5C66.8 174.4 67.7 175.3 69.2 175.6C76.4 177.1 77.3 162.2 75.6 158.2C78.2 155.8 80.8 153.5 82.7 150.5C84.6 147.5 86.3 139.5 85.8 135.9C88.2001 136.1 99.2 132.3 98 131.9Z" fill="#263238"/>
<path d="M68.2001 177.2C67.9001 172.6 62.3001 171.7 58.4001 174.1C56.2001 175.4 54.6001 177.9 54.9001 182.8C55.6001 195.7 68.4001 192.3 68.5001 192C68.4001 191.7 68.5001 182.6 68.2001 177.2Z" fill="white"/>
<path d="M64.2001 187.3C64.1001 187.3 64.0001 187.5 63.6001 187.7C63.2001 187.9 62.6001 188 61.9001 187.8C60.5001 187.4 59.2001 185.3 59.0001 182.9C58.9001 181.7 59.1001 180.6 59.5001 179.6C59.8001 178.6 60.4001 177.9 61.1001 177.8C61.8001 177.6 62.3001 178 62.5001 178.3C62.7001 178.7 62.6001 178.9 62.7001 178.9C62.7001 178.9 63.0001 178.7 62.8001 178.1C62.7001 177.8 62.6001 177.5 62.2001 177.3C61.9001 177.1 61.4001 177 60.9001 177C59.9001 177.1 59.1001 178.1 58.7001 179.1C58.2001 180.2 58.0001 181.4 58.1001 182.7C58.3001 185.3 59.8001 187.7 61.7001 188.1C62.6001 188.3 63.4001 188 63.7001 187.6C64.2001 187.6 64.2001 187.3 64.2001 187.3Z" fill="#263238"/>
<path d="M80.1001 128.7C80.2001 128.8 78.8001 129.1 77.6001 130.9C76.3001 132.7 75.9001 136.1 76.8001 139.9L76.9001 140.2L76.6001 140.3C73.4001 141.1 69.9001 143.7 68.4001 147.8C68.0001 148.8 67.8001 149.9 67.8001 151C67.8001 152.1 68.0001 153.2 68.3001 154.4C68.5001 155.6 68.8001 156.8 68.8001 158.1C68.9001 159.4 68.6001 160.8 67.8001 161.9C66.2001 164.4 63.7001 165.6 61.5001 166.8C59.2001 168 57.1001 169.2 55.6001 170.8C52.4001 174.1 51.0001 178.3 50.9001 181.7C50.8001 185.2 51.8001 187.9 52.7001 189.7C53.6001 191.5 54.3001 192.3 54.2001 192.3C54.2001 192.3 54.0001 192.1 53.6001 191.7C53.3001 191.3 52.8001 190.7 52.3001 189.8C51.3001 188.1 50.2001 185.3 50.1001 181.7C50.1001 178.1 51.5001 173.7 54.8001 170.2C56.4001 168.4 58.7001 167.1 60.9001 166C63.1001 164.8 65.5001 163.6 66.9001 161.4C68.3001 159.4 67.6001 156.9 67.2001 154.6C67.0001 153.4 66.8001 152.2 66.7001 151C66.7001 149.8 67.0001 148.6 67.4001 147.5C69.1001 143.2 72.8001 140.5 76.2001 139.7L76.0001 140.1C75.2001 136.1 75.7001 132.6 77.2001 130.8C77.9001 129.9 78.7001 129.4 79.2001 129.1C79.8001 128.8 80.1001 128.7 80.1001 128.7Z" fill="#455A64"/>
<path d="M246.9 289.7L255.7 286.3C255.7 286.3 258.1 278.6 259.7 276.4C261.3 274.1 269.8 267.2 270.3 267C270.8 266.8 276.4 254.3 278.9 254.7C281.4 255.1 283.2 256.9 282.5 260.3C281.8 263.7 276.1 270.5 277.7 271.6C279.3 272.7 281.8 273.1 281.8 273.1C281.8 273.1 282.5 269.2 284.6 267.9C286.7 266.6 289.2 268.7 289.2 268.7L289.3 270.4L291.4 268.5C291.4 268.5 293.6 260.7 297 260.7C297 260.7 298.3 257.8 300.3 256.2C301.8 255 304.1 255.7 304.8 257.5L298.7 275.3L282 293.7C282 293.7 274.2 296.7 272.2 297.6C270.2 298.5 261.2 304.8 257.2 306.1C253.2 307.4 248.6 309.5 248.6 309.5L246.9 289.7Z" fill="white"/>
<path d="M270.2 284.2C270.2 284.1 269 283.9 267 283.9C265.1 283.9 262.2 284 259.5 285.6C258.1 286.4 257.1 287.5 256.4 288.6C255.7 289.7 255.2 290.8 254.9 291.8C254.3 293.7 254.1 294.9 254.2 294.9C254.3 294.9 254.7 293.8 255.5 292C256.3 290.3 257.5 287.8 260 286.3C262.5 284.9 265.2 284.6 267.1 284.5C269 284.4 270.2 284.3 270.2 284.2Z" fill="#263238"/>
<path d="M277.9 272.1C278 271.9 277.1 271.1 275.7 270.7C274.3 270.3 273.1 270.5 273.1 270.7C273.1 270.9 274.2 271.1 275.5 271.5C276.8 271.8 277.8 272.3 277.9 272.1Z" fill="#263238"/>
<path d="M296.8 275.4C296.7 275.4 296.8 273.9 297.2 271.5C297.5 269.1 298.1 265.7 298.8 261.9L299.1 262.4C298.5 262.1 297.8 261.7 297.3 261.5C296.7 261.3 296.1 261.4 295.5 261.7C294.6 262.2 293.9 263.2 293.4 264.2C292.9 265.2 292.5 266.3 292.3 267.3C291.8 269.4 291.5 271.3 291.2 272.9C290.6 276.1 290.3 278.1 290.1 278C290 278 290.1 276 290.5 272.8C290.7 271.2 291 269.3 291.4 267.1C291.6 266 292 264.9 292.5 263.8C293 262.7 293.7 261.5 295 260.8C295.7 260.4 296.7 260.3 297.5 260.5C298.3 260.8 298.8 261.1 299.5 261.4L299.8 261.5L299.7 261.9C299 265.7 298.3 269.1 297.8 271.4C297.3 274 296.9 275.4 296.8 275.4Z" fill="#263238"/>
<path d="M274.9 290.6C274.9 290.6 274.9 290.3 275 289.8C275.1 289.3 275.3 288.6 275.7 287.8C276.5 286.1 277.9 283.8 280.1 281.4L280 281.6C281.2 278.2 280.1 273.2 283.2 268.8C284 267.9 285.2 267.3 286.4 267.4C287.6 267.5 288.6 267.9 289.5 268.5L289.7 268.7V269C289.1 274 288.5 278.3 288.1 281.4C288 282.9 287.4 284.2 287 284.9C286.6 285.6 286.3 286 286.2 286C286.2 286 286.4 285.6 286.7 284.8C287 284 287.5 282.9 287.5 281.4C287.8 278.3 288.2 274 288.8 269L289 269.4C288.3 268.9 287.3 268.5 286.4 268.5C285.5 268.5 284.6 268.9 283.9 269.6C283.1 270.4 282.8 271.5 282.5 272.6C282.2 273.7 282 274.8 281.8 275.9C281.6 277 281.6 278 281.4 279.1C281.3 280.1 281 281.1 280.7 282V282.1L280.6 282.2C278.4 284.5 276.9 286.6 276.1 288.2C275.2 289.5 275 290.6 274.9 290.6Z" fill="#263238"/>
<path d="M64.8742 227.994L84.7369 245.089L84.7369 245.089L84.7394 245.092L84.9 244.9C84.7394 245.092 84.7395 245.092 84.7397 245.092L84.7403 245.092L84.743 245.095L84.7538 245.104L84.796 245.139L84.9609 245.277C85.1052 245.397 85.3169 245.574 85.5864 245.799C86.1252 246.248 86.8949 246.888 87.8186 247.653C89.6659 249.183 92.1292 251.212 94.5926 253.207C97.0556 255.201 99.5208 257.162 101.371 258.557C102.296 259.254 103.071 259.813 103.618 260.164C103.889 260.338 104.116 260.469 104.282 260.539C104.358 260.57 104.456 260.605 104.55 260.602C104.602 260.601 104.684 260.588 104.755 260.523C104.819 260.464 104.842 260.392 104.848 260.333L107.944 244.557L111.697 230.7L118.584 241.126L118.594 241.146L118.642 241.241L118.832 241.613L119.553 243.023C120.173 244.238 121.06 245.975 122.124 248.06C124.252 252.232 127.09 257.801 129.927 263.388C132.765 268.976 135.602 274.581 137.73 278.828C138.794 280.951 139.68 282.733 140.3 284.004C140.61 284.639 140.853 285.145 141.018 285.501C141.101 285.679 141.163 285.818 141.205 285.915C141.213 285.935 141.22 285.953 141.227 285.969C141.236 285.992 141.243 286.01 141.248 286.024C141.25 286.029 141.251 286.033 141.252 286.036C141.254 286.049 141.255 286.059 141.256 286.064L141.256 286.064C141.259 286.079 141.263 286.095 141.266 286.112C141.274 286.145 141.285 286.189 141.298 286.24C141.325 286.344 141.365 286.49 141.417 286.672C141.519 287.038 141.67 287.559 141.862 288.212C142.245 289.518 142.792 291.357 143.448 293.548C144.761 297.931 146.511 303.729 148.261 309.51C150.011 315.291 151.761 321.057 153.073 325.377C153.73 327.538 154.276 329.336 154.659 330.595L155.104 332.056L155.221 332.441L155.244 332.517L152.253 351.06L152.25 351.079L152.25 351.098L151.852 416.939L109.942 415.156L101.738 402.009L87.2464 317.258L87.2434 317.24L87.238 317.224L60.9727 235.232C61.3039 234.671 62.2621 232.893 63.1579 231.218C63.6393 230.318 64.105 229.442 64.4504 228.792C64.6231 228.467 64.7657 228.198 64.8652 228.011L64.8742 227.994Z" fill="white" stroke="#263238" stroke-width="0.5"/>
<path d="M113.4 404H158.4L165.6 434.3H96.2999L113.4 404Z" fill="#263238"/>
<path d="M253 283.2L196.2 314.8L156.9 258.7C156.8 258.6 156.7 258.4 156.6 258.2C152.1 252.3 147.7 245.8 140.5 244.1L139.4 243.9L141.5 311.1C141.5 311.1 169.5 341.9 185.2 354.7C189.9 358.5 201.7 356.1 207.3 353C229.9 340.5 268.5 308.6 268.5 308.6L253 283.2Z" fill="url(#paint19_linear_3868_77469)"/>
<path d="M158 372.7C158 372.7 162.1 340.6 163.5 332.6C170.6 290.4 139.3 243.8 139.3 243.8L125 241.4L112.7 231.2L118.1 246.4C118.1 246.4 136 296.5 139.6 312.5C143.2 328.5 144.9 377.7 145.5 376.6C145.8 375.9 148 406.3 150.7 434.2H181.1L158 372.7Z" fill="url(#paint20_linear_3868_77469)"/>
<path d="M155.4 337C155.4 337 155.4 336.6 155.4 336C155.4 335.3 155.5 334.3 155.6 333C155.6 332.3 155.7 331.6 155.7 330.9C155.7 330.1 155.7 329.3 155.7 328.3C155.7 326.5 155.7 324.4 155.6 322.1C155.2 312.9 153.2 300.1 148.6 286.8C146.9 281.8 145 277 142.9 272.8C140.9 268 138.5 263.8 136.3 260C134.1 256.2 132.1 252.9 130.5 250.2C128.8 247.5 127.5 245.4 126.5 243.9C126.1 243.2 125.7 242.6 125.4 242.2C125.2 241.8 125 241.6 125.1 241.6C125.1 241.6 125.3 241.8 125.5 242.1C125.8 242.5 126.2 243.1 126.6 243.7C127.6 245.1 129 247.3 130.7 249.9C132.4 252.6 134.5 255.9 136.7 259.6C138.9 263.4 141.3 267.6 143.4 272.4C145.5 276.7 147.4 281.4 149.2 286.5C153.8 299.9 155.8 312.7 156.1 322C156.2 324.3 156.2 326.4 156.1 328.3C156.1 329.2 156.1 330.1 156 330.9C155.9 331.7 155.9 332.4 155.8 333.1C155.7 334.3 155.6 335.3 155.5 336.1C155.5 336.7 155.4 337 155.4 337Z" fill="#263238"/>
<path d="M104.1 260.5C104.1 260.5 103.8 260.4 103.3 260.2C102.7 259.9 102 259.5 101.1 259.1C99.0999 258 96.4999 256.6 93.4999 254.9L93.8999 254.7C93.4999 258.1 92.8999 262.1 92.2999 266.4C91.9999 268.1 91.7999 269.8 91.5999 271.5L91.4999 272.1L90.9999 271.7C86.8999 268.2 83.3999 265.2 80.7999 263C79.5999 262 78.5999 261.1 77.8999 260.4C77.1999 259.8 76.8999 259.4 76.8999 259.4C76.8999 259.4 77.2999 259.7 78.0999 260.2C78.8999 260.9 79.8999 261.7 81.1999 262.7C83.7999 264.8 87.3999 267.8 91.4999 271.3L90.8999 271.5C91.0999 269.9 91.2999 268.2 91.5999 266.4C92.1999 262.1 92.8999 258.1 93.2999 254.7L93.3999 254.2L93.7999 254.4C96.7999 256.2 99.3999 257.7 101.3 258.8C102.1 259.3 102.8 259.7 103.4 260.1C103.9 260.3 104.1 260.5 104.1 260.5Z" fill="#263238"/>
<path d="M115.8 240.9C115.8 240.9 115.9 241.5 115.9 242.7C115.9 244 115.8 245.6 115.8 247.6C115.7 251.8 115.5 257.5 115.2 263.8C115.2 264 115.2 264.1 115.2 264.3V265.4L114.6 264.5C111.7 260 109.1 255.8 107 252.5L107.5 252.4C106.7 254.7 106 256.6 105.4 258.1C104.9 259.4 104.6 260.2 104.5 260.2C104.4 260.2 104.7 259.4 105.1 258C105.6 256.5 106.2 254.5 107 252.2L107.2 251.7L107.5 252.2C109.6 255.5 112.3 259.6 115.2 264.1L114.6 264.3C114.6 264.1 114.6 264 114.6 263.8C114.9 257.5 115.1 251.7 115.4 247.6C115.5 245.6 115.6 244 115.7 242.7C115.7 241.6 115.7 240.9 115.8 240.9Z" fill="#263238"/>
<path fill-rule="evenodd" clip-rule="evenodd" d="M111.251 374.617C111.481 380.831 111.692 386.53 112 391.3C112.7 401.5 112.3 417.1 111.7 434.3H63.8645L63.8999 434.4H27.5999L10.7999 393C7.99995 386.2 6.79995 378.9 7.29995 371.6L12.6999 289.2C13.8999 284.7 15.8999 277.6 17.8999 271.8C19.6999 266.6 22.5999 261.8 26.5999 258.1C28.1742 256.723 29.7484 255.442 31.5132 254.353L31.5 254.3L53 246.2L61.3 233.5C61.3 233.5 94.6 285.9 102.9 307.3C109.375 323.996 110.434 352.56 111.251 374.617ZM49.8331 328.641L60.6 372.3C60.6 372.3 55.5161 384.283 50.5779 396.813L44.2999 379.1L49.8331 328.641Z" fill="url(#paint21_linear_3868_77469)"/>
<path d="M53.8999 244.8L61.8999 268.8H70.3999L64.8999 272.3L108.5 355.6" fill="url(#paint22_linear_3868_77469)"/>
<path d="M108.5 355.6C108.5 355.6 108.4 355.5 108.3 355.3C108.2 355.1 108 354.8 107.8 354.4C107.3 353.6 106.7 352.4 105.9 351C104.3 348 102 343.6 99.0999 338.3C93.3999 327.5 85.5999 312.7 76.9999 296.3C72.5999 287.8 68.2999 279.7 64.5999 272.4L64.4999 272.1L64.6999 271.9C66.5999 270.7 68.3999 269.5 70.1999 268.4L70.3999 269C67.3999 269 64.5999 269 61.8999 269H61.6999L61.5999 268.8C59.1999 261.5 57.2999 255.5 55.8999 251.3C55.2999 249.3 54.6999 247.6 54.3999 246.5C54.1999 246 54.0999 245.6 53.9999 245.2C53.8999 244.9 53.8999 244.8 53.8999 244.8C53.8999 244.8 53.9999 244.9 54.0999 245.2C54.1999 245.5 54.3999 245.9 54.5999 246.4C54.9999 247.5 55.5999 249.1 56.2999 251.2C57.6999 255.4 59.7999 261.3 62.1999 268.6L61.8999 268.4C64.5999 268.4 67.3999 268.4 70.3999 268.4H71.3999L70.4999 269C68.6999 270.1 66.8999 271.3 64.9999 272.5L65.0999 272.1C68.8999 279.4 73.0999 287.4 77.5999 295.9C86.0999 312.3 93.8999 327.2 99.4999 338C102.3 343.4 104.5 347.7 106.1 350.8C106.8 352.3 107.4 353.4 107.9 354.3C108.1 354.7 108.2 355 108.3 355.2C108.5 355.5 108.5 355.6 108.5 355.6Z" fill="#263238"/>
<path d="M49.6 311.2C49.5 311.2 50.1 308.5 50.3 304.2C50.4 302 50.4 299.4 50.2 296.6C49.9 293.7 49.4 290.6 48.6 287.4C47.7 284.2 46.6 281.2 45.5 278.6C44.3 276 43.1 273.7 41.9 271.9C39.6 268.2 37.7 266.2 37.9 266.1C37.9 266.1 38.4 266.6 39.2 267.5C39.6 268 40.1 268.5 40.6 269.2C41.1 269.9 41.7 270.7 42.3 271.6C43.5 273.4 44.8 275.7 46.1 278.3C47.3 281 48.4 284 49.3 287.2C50.1 290.5 50.6 293.6 50.8 296.5C51 299.4 51 302 50.8 304.2C50.7 305.3 50.6 306.3 50.5 307.1C50.4 308 50.2 308.7 50.1 309.3C49.8 310.5 49.7 311.2 49.6 311.2Z" fill="#263238"/>
<path d="M63.8 434.3C63.8 434.3 63.7 434.2 63.7 434C63.6 433.8 63.5 433.5 63.4 433.2C63.1 432.4 62.7 431.4 62.2 430C61.2 427.2 59.7 423.2 57.9 418.2C54.3 408.2 49.4 394.4 44 379V378.9V378.8C44 378.4 44.1 377.9 44.1 377.5C45.9 361 47.6 346.1 48.8 335.3C49.4 329.9 49.9 325.6 50.3 322.5C50.5 321 50.6 319.9 50.7 319C50.8 318.6 50.8 318.3 50.8 318.1C50.8 317.9 50.9 317.8 50.9 317.8C50.9 317.8 50.9 317.9 50.9 318.1C50.9 318.3 50.9 318.6 50.8 319C50.7 319.8 50.6 321 50.5 322.5C50.2 325.6 49.7 329.9 49.2 335.3C48 346.1 46.4 361.1 44.6 377.5C44.5 378 44.5 378.4 44.5 378.8V378.7C49.9 394 54.8 407.9 58.3 417.9C60 422.9 61.4 426.9 62.4 429.8C62.9 431.2 63.2 432.3 63.5 433C63.6 433.3 63.7 433.6 63.8 433.8C63.8 434.2 63.8 434.3 63.8 434.3Z" fill="#263238"/>
<path d="M148.9 265.2C148.9 265.2 151.6 269.2 154.8 276.4C155.6 278.2 156.3 280.2 157.2 282.3C157.9 284.5 158.8 286.8 159.4 289.3C160.2 291.8 160.7 294.4 161.4 297.2C161.7 298.6 161.9 300 162.2 301.4C162.5 302.8 162.6 304.3 162.8 305.8C164.3 317.7 163.9 328.5 163.2 336.3C163 338.2 162.8 340 162.6 341.5C162.4 343 162.2 344.4 162 345.4C161.8 346.4 161.7 347.3 161.6 347.9C161.5 348.5 161.4 348.8 161.4 348.8C161.4 348.8 161.4 348.5 161.5 347.9C161.6 347.3 161.7 346.5 161.8 345.4C161.9 344.3 162.1 343 162.3 341.5C162.5 339.9 162.6 338.2 162.8 336.3C163.4 328.5 163.8 317.7 162.2 305.9C162 304.4 161.8 303 161.6 301.5C161.3 300.1 161.1 298.7 160.8 297.3C160.2 294.6 159.6 291.9 158.9 289.4C158.3 286.9 157.4 284.6 156.7 282.4C155.9 280.3 155.2 278.2 154.4 276.5C154 275.6 153.6 274.8 153.3 273.9C152.9 273.1 152.6 272.4 152.2 271.7C151.5 270.3 150.9 269.1 150.4 268.2C149.9 267.3 149.5 266.5 149.2 266C149 265.5 148.9 265.2 148.9 265.2Z" fill="#263238"/>
<path d="M196.8 332.3C196.7 332.3 196.3 331.4 195.8 329.8C195.3 328.2 194.8 326 194.7 323.4C194.6 320.9 194.9 318.6 195.3 317C195.7 315.4 196.1 314.4 196.1 314.5C196.2 314.5 195.9 315.5 195.6 317.1C195.3 318.7 195.1 321 195.2 323.4C195.3 325.9 195.7 328.1 196.2 329.7C196.5 331.3 196.9 332.2 196.8 332.3Z" fill="#263238"/>
<path d="M425.5 434.3C425.5 434.4 331.2 434.6 214.9 434.6C98.6 434.6 4.30005 434.5 4.30005 434.3C4.30005 434.2 98.6 434 214.9 434C331.2 434 425.5 434.1 425.5 434.3Z" fill="#263238"/>
<path d="M275.42 143H270.264V128.455H275.463C276.926 128.455 278.186 128.746 279.241 129.328C280.297 129.906 281.109 130.737 281.678 131.821C282.25 132.905 282.537 134.203 282.537 135.713C282.537 137.228 282.25 138.53 281.678 139.619C281.109 140.708 280.293 141.544 279.227 142.126C278.167 142.709 276.898 143 275.42 143ZM273.339 140.365H275.293C276.202 140.365 276.966 140.204 277.587 139.882C278.212 139.555 278.68 139.051 278.993 138.369C279.31 137.683 279.469 136.797 279.469 135.713C279.469 134.638 279.31 133.76 278.993 133.078C278.68 132.396 278.214 131.894 277.594 131.572C276.973 131.25 276.209 131.089 275.3 131.089H273.339V140.365ZM289.33 143.213C288.208 143.213 287.242 142.986 286.432 142.531C285.627 142.072 285.007 141.423 284.571 140.585C284.136 139.742 283.918 138.746 283.918 137.595C283.918 136.473 284.136 135.488 284.571 134.641C285.007 133.793 285.62 133.133 286.411 132.659C287.206 132.186 288.139 131.949 289.209 131.949C289.929 131.949 290.599 132.065 291.219 132.297C291.844 132.524 292.388 132.867 292.852 133.327C293.321 133.786 293.686 134.364 293.946 135.06C294.207 135.751 294.337 136.561 294.337 137.489V138.32H285.125V136.445H291.489C291.489 136.009 291.394 135.623 291.205 135.287C291.015 134.951 290.753 134.688 290.416 134.499C290.085 134.304 289.699 134.207 289.259 134.207C288.799 134.207 288.392 134.314 288.037 134.527C287.687 134.735 287.412 135.017 287.213 135.372C287.014 135.723 286.913 136.113 286.908 136.544V138.327C286.908 138.866 287.007 139.333 287.206 139.726C287.41 140.119 287.696 140.422 288.066 140.635C288.435 140.848 288.873 140.955 289.379 140.955C289.716 140.955 290.023 140.907 290.303 140.812C290.582 140.718 290.821 140.576 291.02 140.386C291.219 140.197 291.37 139.965 291.475 139.69L294.273 139.875C294.131 140.547 293.84 141.134 293.399 141.636C292.964 142.134 292.4 142.522 291.709 142.801C291.022 143.076 290.229 143.213 289.33 143.213ZM295.968 143V128.455H305.599V130.99H299.043V134.456H304.96V136.991H299.043V143H295.968ZM307.211 143V132.091H310.236V143H307.211ZM308.73 130.685C308.281 130.685 307.895 130.536 307.573 130.237C307.255 129.934 307.097 129.572 307.097 129.151C307.097 128.734 307.255 128.376 307.573 128.078C307.895 127.775 308.281 127.624 308.73 127.624C309.18 127.624 309.564 127.775 309.881 128.078C310.203 128.376 310.364 128.734 310.364 129.151C310.364 129.572 310.203 129.934 309.881 130.237C309.564 130.536 309.18 130.685 308.73 130.685Z" fill="url(#paint23_linear_3868_77469)"/>
</g>
<defs>
<linearGradient id="paint0_linear_3868_77469" x1="158.6" y1="107.75" x2="165.12" y2="107.75" gradientUnits="userSpaceOnUse">
<stop stop-color="#43D9BB"/>
<stop offset="1" stop-color="#0299ED"/>
</linearGradient>
<linearGradient id="paint1_linear_3868_77469" x1="168.3" y1="100.95" x2="174.82" y2="100.95" gradientUnits="userSpaceOnUse">
<stop stop-color="#43D9BB"/>
<stop offset="1" stop-color="#0299ED"/>
</linearGradient>
<linearGradient id="paint2_linear_3868_77469" x1="179" y1="105.15" x2="185.52" y2="105.15" gradientUnits="userSpaceOnUse">
<stop stop-color="#43D9BB"/>
<stop offset="1" stop-color="#0299ED"/>
</linearGradient>
<linearGradient id="paint3_linear_3868_77469" x1="189.2" y1="98.05" x2="195.72" y2="98.05" gradientUnits="userSpaceOnUse">
<stop stop-color="#43D9BB"/>
<stop offset="1" stop-color="#0299ED"/>
</linearGradient>
<linearGradient id="paint4_linear_3868_77469" x1="158.1" y1="94.9" x2="164.539" y2="94.9" gradientUnits="userSpaceOnUse">
<stop stop-color="#43D9BB"/>
<stop offset="1" stop-color="#0299ED"/>
</linearGradient>
<linearGradient id="paint5_linear_3868_77469" x1="169.1" y1="80.3" x2="175.539" y2="80.3" gradientUnits="userSpaceOnUse">
<stop stop-color="#43D9BB"/>
<stop offset="1" stop-color="#0299ED"/>
</linearGradient>
<linearGradient id="paint6_linear_3868_77469" x1="179.1" y1="89.6001" x2="185.535" y2="89.6" gradientUnits="userSpaceOnUse">
<stop stop-color="#43D9BB"/>
<stop offset="1" stop-color="#0299ED"/>
</linearGradient>
<linearGradient id="paint7_linear_3868_77469" x1="189.7" y1="76.2" x2="196.135" y2="76.2" gradientUnits="userSpaceOnUse">
<stop stop-color="#43D9BB"/>
<stop offset="1" stop-color="#0299ED"/>
</linearGradient>
<linearGradient id="paint8_linear_3868_77469" x1="185.092" y1="87.3914" x2="190.301" y2="79.9793" gradientUnits="userSpaceOnUse">
<stop stop-color="#43D9BB"/>
<stop offset="1" stop-color="#0299ED"/>
</linearGradient>
<linearGradient id="paint9_linear_3868_77469" x1="177.43" y1="85.7877" x2="178.042" y2="85.2025" gradientUnits="userSpaceOnUse">
<stop stop-color="#43D9BB"/>
<stop offset="1" stop-color="#0299ED"/>
</linearGradient>
<linearGradient id="paint10_linear_3868_77469" x1="163.752" y1="92.071" x2="169.619" y2="84.5131" gradientUnits="userSpaceOnUse">
<stop stop-color="#43D9BB"/>
<stop offset="1" stop-color="#0299ED"/>
</linearGradient>
<linearGradient id="paint11_linear_3868_77469" x1="185.397" y1="196.55" x2="201.403" y2="196.55" gradientUnits="userSpaceOnUse">
<stop stop-color="#43D9BB"/>
<stop offset="1" stop-color="#0299ED"/>
</linearGradient>
<linearGradient id="paint12_linear_3868_77469" x1="386.4" y1="135.8" x2="417.73" y2="135.8" gradientUnits="userSpaceOnUse">
<stop stop-color="#43D9BB"/>
<stop offset="1" stop-color="#0299ED"/>
</linearGradient>
<linearGradient id="paint13_linear_3868_77469" x1="395.175" y1="135.7" x2="403.918" y2="135.7" gradientUnits="userSpaceOnUse">
<stop stop-color="#43D9BB"/>
<stop offset="1" stop-color="#0299ED"/>
</linearGradient>
<linearGradient id="paint14_linear_3868_77469" x1="404" y1="135.7" x2="412.399" y2="135.7" gradientUnits="userSpaceOnUse">
<stop stop-color="#43D9BB"/>
<stop offset="1" stop-color="#0299ED"/>
</linearGradient>
<linearGradient id="paint15_linear_3868_77469" x1="390" y1="127.05" x2="415.064" y2="127.05" gradientUnits="userSpaceOnUse">
<stop stop-color="#43D9BB"/>
<stop offset="1" stop-color="#0299ED"/>
</linearGradient>
<linearGradient id="paint16_linear_3868_77469" x1="390.1" y1="143.85" x2="415.164" y2="143.85" gradientUnits="userSpaceOnUse">
<stop stop-color="#43D9BB"/>
<stop offset="1" stop-color="#0299ED"/>
</linearGradient>
<linearGradient id="paint17_linear_3868_77469" x1="387.3" y1="135.8" x2="417.444" y2="135.8" gradientUnits="userSpaceOnUse">
<stop stop-color="#43D9BB"/>
<stop offset="1" stop-color="#0299ED"/>
</linearGradient>
<linearGradient id="paint18_linear_3868_77469" x1="317.232" y1="62.2682" x2="354.418" y2="62.2682" gradientUnits="userSpaceOnUse">
<stop stop-color="#43D9BB"/>
<stop offset="1" stop-color="#0299ED"/>
</linearGradient>
<linearGradient id="paint19_linear_3868_77469" x1="139.4" y1="300.275" x2="248.715" y2="300.275" gradientUnits="userSpaceOnUse">
<stop stop-color="#43D9BB"/>
<stop offset="1" stop-color="#0299ED"/>
</linearGradient>
<linearGradient id="paint20_linear_3868_77469" x1="112.7" y1="332.7" x2="170.617" y2="332.7" gradientUnits="userSpaceOnUse">
<stop stop-color="#43D9BB"/>
<stop offset="1" stop-color="#0299ED"/>
</linearGradient>
<linearGradient id="paint21_linear_3868_77469" x1="7.18933" y1="333.95" x2="96.2515" y2="333.95" gradientUnits="userSpaceOnUse">
<stop stop-color="#43D9BB"/>
<stop offset="1" stop-color="#0299ED"/>
</linearGradient>
<linearGradient id="paint22_linear_3868_77469" x1="53.8999" y1="300.2" x2="100.132" y2="300.2" gradientUnits="userSpaceOnUse">
<stop stop-color="#43D9BB"/>
<stop offset="1" stop-color="#0299ED"/>
</linearGradient>
<linearGradient id="paint23_linear_3868_77469" x1="269" y1="136" x2="305.41" y2="136" gradientUnits="userSpaceOnUse">
<stop stop-color="#43D9BB"/>
<stop offset="1" stop-color="#0299ED"/>
</linearGradient>
<clipPath id="clip0_3868_77469">
<rect width="434.8" height="434.6" fill="white"/>
</clipPath>
</defs>
</svg>
