<svg width="1440" height="567" viewBox="0 0 1440 567" fill="none" xmlns="http://www.w3.org/2000/svg">
<g clip-path="url(#clip0_3933_78000)">
<rect width="1440" height="567" fill="white"/>
<rect width="1440" height="567" fill="#0D121D"/>
<g opacity="0.1">
<path d="M612.037 380.795V442.901L558.038 473.955L504.035 442.901V380.795L558.038 349.737L612.037 380.795Z" stroke="white" stroke-miterlimit="10"/>
<path d="M558.038 287.644V349.754L504.035 380.808L450.036 349.754V287.644L504.035 256.59L558.038 287.644Z" stroke="white" stroke-miterlimit="10"/>
<path d="M558.038 473.954V411.848L612.037 380.795" stroke="white" stroke-miterlimit="10"/>
<path d="M558.038 411.848L504.035 380.795" stroke="white" stroke-miterlimit="10"/>
<path d="M666.041 411.844V473.95L612.037 505.008L558.038 473.95V411.844L612.037 380.791L666.041 411.844Z" stroke="white" stroke-miterlimit="10"/>
<path d="M720.027 567.119V629.229L666.024 660.283L612.025 629.229V567.119L666.024 536.065L720.027 567.119Z" stroke="white" stroke-miterlimit="10"/>
<path d="M450.036 411.844V473.95L396.033 505.008L342.034 473.95V411.844L396.033 380.791L450.036 411.844Z" stroke="white" stroke-miterlimit="10"/>
<path d="M504.035 380.795V442.901L450.036 473.955L396.033 442.901V380.795L450.036 349.737L504.035 380.795Z" stroke="white" stroke-miterlimit="10"/>
<path d="M450.036 473.954V411.848L504.035 380.795" stroke="white" stroke-miterlimit="10"/>
<path d="M450.036 411.848L396.037 380.795" stroke="white" stroke-miterlimit="10"/>
<path d="M558.038 225.537V287.644L504.035 318.697L450.036 287.644V225.537L504.035 194.479L558.038 225.537Z" stroke="white" stroke-miterlimit="10"/>
<path d="M504.035 318.697V256.59L558.038 225.537" stroke="white" stroke-miterlimit="10"/>
<path d="M504.035 256.59L450.036 225.537" stroke="white" stroke-miterlimit="10"/>
<path d="M720.04 505.012V567.119L666.041 598.172L612.037 567.119V505.012L666.041 473.955L720.04 505.012Z" stroke="white" stroke-miterlimit="10"/>
<path d="M666.041 598.172V536.065L720.04 505.012" stroke="white" stroke-miterlimit="10"/>
<path d="M666.041 536.065L612.037 505.012" stroke="white" stroke-miterlimit="10"/>
<path d="M558.038 473.955V536.065L504.035 567.119L450.036 536.065V473.955L504.035 442.901L558.038 473.955Z" stroke="white" stroke-miterlimit="10"/>
<path d="M504.035 567.119V505.012L558.038 473.955" stroke="white" stroke-miterlimit="10"/>
<path d="M504.035 505.012L450.036 473.955" stroke="white" stroke-miterlimit="10"/>
<path d="M558.038 536.065V598.172L504.035 629.23L450.036 598.172V536.065L504.035 505.012L558.038 536.065Z" stroke="white" stroke-miterlimit="10"/>
<path d="M504.035 567.119L450.036 536.065" stroke="white" stroke-miterlimit="10"/>
<path d="M342.004 411.848V473.954L288.005 505.012L234.001 473.954V411.848L288.005 380.795L342.004 411.848Z" stroke="white" stroke-miterlimit="10"/>
<path d="M288.005 505.012V442.901L342.004 411.848" stroke="white" stroke-miterlimit="10"/>
<path d="M288.005 442.901L234.001 411.848" stroke="white" stroke-miterlimit="10"/>
<path d="M288.005 442.901V505.012L234.001 536.065L180.002 505.012V442.901L234.001 411.848L288.005 442.901Z" stroke="white" stroke-miterlimit="10"/>
<path d="M234.001 536.065V473.955L288.005 442.901" stroke="white" stroke-miterlimit="10"/>
<path d="M234.001 473.955L180.002 442.901" stroke="white" stroke-miterlimit="10"/>
<path d="M342.004 536.065V598.172L288.005 629.23L234.001 598.172V536.065L288.005 505.012L342.004 536.065Z" stroke="white" stroke-miterlimit="10"/>
<path d="M288.005 629.23V567.119L342.004 536.065" stroke="white" stroke-miterlimit="10"/>
<path d="M288.005 567.119L234.001 536.065" stroke="white" stroke-miterlimit="10"/>
<path d="M234.001 598.163V660.274L180.002 691.327L125.999 660.274V598.163L180.002 567.11L234.001 598.163Z" stroke="white" stroke-miterlimit="10"/>
<path d="M828.042 318.697V380.808L774.043 411.861L720.04 380.808V318.697L774.043 287.644L828.042 318.697Z" stroke="white" stroke-miterlimit="10"/>
<path d="M558.021 598.172V660.283L504.022 691.336L450.019 660.283V598.172L504.022 567.119L558.021 598.172Z" stroke="white" stroke-miterlimit="10"/>
<path d="M774.073 598.172V660.283L720.07 691.336L666.071 660.283V598.172L720.07 567.119L774.073 598.172Z" stroke="white" stroke-miterlimit="10"/>
<path d="M666.041 287.644V349.754L612.037 380.808L558.038 349.754V287.644L612.037 256.59L666.041 287.644Z" stroke="white" stroke-miterlimit="10"/>
<path d="M612.037 380.808V318.697L666.041 287.644" stroke="white" stroke-miterlimit="10"/>
<path d="M612.037 318.697L558.038 287.644" stroke="white" stroke-miterlimit="10"/>
<path d="M288.005 380.795V442.901L342.004 473.954L396.007 442.901V380.795L342.004 349.737L288.005 380.795Z" stroke="white" stroke-miterlimit="10"/>
<path d="M342.004 287.643V349.754L396.007 380.807L450.006 349.754V287.643L396.007 256.59L342.004 287.643Z" stroke="white" stroke-miterlimit="10"/>
<path d="M342.004 473.954V411.848L288.005 380.794" stroke="white" stroke-miterlimit="10"/>
<path d="M342.004 411.848L396.007 380.794" stroke="white" stroke-miterlimit="10"/>
<path d="M234.001 411.844V473.95L288.005 505.008L342.004 473.95V411.844L288.005 380.79L234.001 411.844Z" stroke="white" stroke-miterlimit="10"/>
<path d="M180.015 567.118V629.229L234.019 660.283L288.018 629.229V567.118L234.019 536.065L180.015 567.118Z" stroke="white" stroke-miterlimit="10"/>
<path d="M450.006 411.844V473.95L504.005 505.008L558.008 473.95V411.844L504.005 380.79L450.006 411.844Z" stroke="white" stroke-miterlimit="10"/>
<path d="M396.007 380.795V442.901L450.006 473.954L504.005 442.901V380.795L450.006 349.737L396.007 380.795Z" stroke="white" stroke-miterlimit="10"/>
<path d="M450.006 473.954V411.848L396.007 380.794" stroke="white" stroke-miterlimit="10"/>
<path d="M450.006 411.848L504.009 380.794" stroke="white" stroke-miterlimit="10"/>
<path d="M342.004 225.537V287.644L396.007 318.697L450.006 287.644V225.537L396.007 194.479L342.004 225.537Z" stroke="white" stroke-miterlimit="10"/>
<path d="M396.007 318.697V256.59L342.004 225.537" stroke="white" stroke-miterlimit="10"/>
<path d="M396.007 256.59L450.006 225.537" stroke="white" stroke-miterlimit="10"/>
<path d="M180.002 505.012V567.118L234.001 598.171L288.005 567.118V505.012L234.001 473.954L180.002 505.012Z" stroke="white" stroke-miterlimit="10"/>
<path d="M234.001 598.171V536.065L180.002 505.012" stroke="white" stroke-miterlimit="10"/>
<path d="M234.001 536.065L288.005 505.012" stroke="white" stroke-miterlimit="10"/>
<path d="M342.004 473.954V536.065L396.007 567.118L450.006 536.065V473.954L396.007 442.901L342.004 473.954Z" stroke="white" stroke-miterlimit="10"/>
<path d="M396.007 567.118V505.012L342.004 473.954" stroke="white" stroke-miterlimit="10"/>
<path d="M396.007 505.012L450.006 473.954" stroke="white" stroke-miterlimit="10"/>
<path d="M342.004 536.065V598.171L396.007 629.229L450.006 598.171V536.065L396.007 505.012L342.004 536.065Z" stroke="white" stroke-miterlimit="10"/>
<path d="M396.007 567.118L450.006 536.065" stroke="white" stroke-miterlimit="10"/>
<path d="M558.038 411.848V473.954L612.037 505.012L666.041 473.954V411.848L612.037 380.794L558.038 411.848Z" stroke="white" stroke-miterlimit="10"/>
<path d="M612.037 505.012V442.901L558.038 411.848" stroke="white" stroke-miterlimit="10"/>
<path d="M612.037 442.901L666.041 411.848" stroke="white" stroke-miterlimit="10"/>
<path d="M612.037 442.901V505.012L666.041 536.065L720.04 505.012V442.901L666.041 411.848L612.037 442.901Z" stroke="white" stroke-miterlimit="10"/>
<path d="M666.041 536.065V473.954L612.037 442.901" stroke="white" stroke-miterlimit="10"/>
<path d="M666.041 473.954L720.04 442.901" stroke="white" stroke-miterlimit="10"/>
<path d="M558.038 536.065V598.171L612.037 629.229L666.041 598.171V536.065L612.037 505.012L558.038 536.065Z" stroke="white" stroke-miterlimit="10"/>
<path d="M612.037 629.229V567.118L558.038 536.065" stroke="white" stroke-miterlimit="10"/>
<path d="M612.037 567.118L666.041 536.065" stroke="white" stroke-miterlimit="10"/>
<path d="M125.999 225.537V287.644L180.002 318.697L234.001 287.644V225.537L180.002 194.479L125.999 225.537Z" stroke="white" stroke-miterlimit="10"/>
<path d="M180.002 318.697V256.59L125.999 225.537" stroke="white" stroke-miterlimit="10"/>
<path d="M180.002 256.59L234.001 225.537" stroke="white" stroke-miterlimit="10"/>
<path d="M666.041 598.163V660.274L720.04 691.327L774.043 660.274V598.163L720.04 567.11L666.041 598.163Z" stroke="white" stroke-miterlimit="10"/>
<path d="M72 318.697V380.808L125.999 411.861L180.002 380.808V318.697L125.999 287.644L72 318.697Z" stroke="white" stroke-miterlimit="10"/>
<path d="M342.021 598.172V660.283L396.02 691.336L450.019 660.283V598.172L396.02 567.119L342.021 598.172Z" stroke="white" stroke-miterlimit="10"/>
<path d="M125.973 598.172V660.283L179.972 691.336L233.971 660.283V598.172L179.972 567.119L125.973 598.172Z" stroke="white" stroke-miterlimit="10"/>
<path d="M234.001 287.643V349.754L288.005 380.807L342.004 349.754V287.643L288.005 256.59L234.001 287.643Z" stroke="white" stroke-miterlimit="10"/>
<path d="M288.005 380.808V318.697L234.001 287.644" stroke="white" stroke-miterlimit="10"/>
<path d="M288.005 318.697L342.004 287.644" stroke="white" stroke-miterlimit="10"/>
<path d="M180.002 256.59V318.697L234.001 349.754L288.005 318.697V256.59L234.001 225.537L180.002 256.59Z" stroke="white" stroke-miterlimit="10"/>
<path d="M234.001 349.754V287.643L180.002 256.59" stroke="white" stroke-miterlimit="10"/>
<path d="M450.036 225.537L504.035 194.479V132.373L450.036 101.319" stroke="white" stroke-miterlimit="10"/>
<path d="M288.005 256.59V174.73" stroke="white" stroke-miterlimit="10"/>
<path d="M720.04 505.012L774.073 536.065" stroke="white" stroke-miterlimit="10"/>
<path d="M180.002 194.479L125.973 163.426" stroke="white" stroke-miterlimit="10"/>
<path d="M1152.08 194.475V256.582L1098.08 287.639L1044.08 256.582V194.475L1098.08 163.422L1152.08 194.475Z" stroke="white" stroke-miterlimit="10"/>
<path d="M1098.08 101.324V163.435L1044.08 194.488L990.073 163.435V101.324L1044.08 70.2705L1098.08 101.324Z" stroke="white" stroke-miterlimit="10"/>
<path d="M1098.08 287.639V225.528L1152.08 194.475" stroke="white" stroke-miterlimit="10"/>
<path d="M1098.08 225.528L1044.08 194.475" stroke="white" stroke-miterlimit="10"/>
<path d="M1206.08 225.524V287.635L1152.08 318.688L1098.08 287.635V225.524L1152.08 194.471L1206.08 225.524Z" stroke="white" stroke-miterlimit="10"/>
<path d="M1260.06 380.799V442.91L1206.07 473.963L1152.06 442.91V380.799L1206.07 349.746L1260.06 380.799Z" stroke="white" stroke-miterlimit="10"/>
<path d="M990.073 225.524V287.635L936.074 318.688L882.071 287.635V225.524L936.074 194.471L990.073 225.524Z" stroke="white" stroke-miterlimit="10"/>
<path d="M828.042 505.016V567.127L774.043 598.18L720.04 567.127V505.016L774.043 473.963L828.042 505.016Z" stroke="white" stroke-miterlimit="10"/>
<path d="M1044.08 194.475V256.582L990.073 287.639L936.074 256.582V194.475L990.073 163.422L1044.08 194.475Z" stroke="white" stroke-miterlimit="10"/>
<path d="M990.073 287.639V225.528L1044.08 194.475" stroke="white" stroke-miterlimit="10"/>
<path d="M990.073 225.528L936.074 194.475" stroke="white" stroke-miterlimit="10"/>
<path d="M1098.08 39.2173V101.324L1044.08 132.377L990.073 101.324V39.2173L1044.08 8.16406L1098.08 39.2173Z" stroke="white" stroke-miterlimit="10"/>
<path d="M1044.08 132.377V70.2705L1098.08 39.2173" stroke="white" stroke-miterlimit="10"/>
<path d="M1044.08 70.2705L990.073 39.2173" stroke="white" stroke-miterlimit="10"/>
<path d="M1260.08 318.692V380.799L1206.08 411.852L1152.08 380.799V318.692L1206.08 287.639L1260.08 318.692Z" stroke="white" stroke-miterlimit="10"/>
<path d="M1206.08 411.852V349.746L1260.08 318.692" stroke="white" stroke-miterlimit="10"/>
<path d="M1206.08 349.746L1152.08 318.692" stroke="white" stroke-miterlimit="10"/>
<path d="M1098.08 287.639V349.746L1044.08 380.799L990.073 349.746V287.639L1044.08 256.582L1098.08 287.639Z" stroke="white" stroke-miterlimit="10"/>
<path d="M1044.08 380.799V318.692L1098.08 287.639" stroke="white" stroke-miterlimit="10"/>
<path d="M1044.08 318.692L990.073 287.639" stroke="white" stroke-miterlimit="10"/>
<path d="M1098.08 349.746V411.852L1044.08 442.91L990.073 411.852V349.746L1044.08 318.692L1098.08 349.746Z" stroke="white" stroke-miterlimit="10"/>
<path d="M1044.08 380.799L990.073 349.746" stroke="white" stroke-miterlimit="10"/>
<path d="M882.045 225.528V287.639L828.042 318.692L774.043 287.639V225.528L828.042 194.475L882.045 225.528Z" stroke="white" stroke-miterlimit="10"/>
<path d="M828.042 318.692V256.582L882.045 225.528" stroke="white" stroke-miterlimit="10"/>
<path d="M828.042 256.582L774.043 225.528" stroke="white" stroke-miterlimit="10"/>
<path d="M828.042 256.582V318.692L774.043 349.746L720.04 318.692V256.582L774.043 225.528L828.042 256.582Z" stroke="white" stroke-miterlimit="10"/>
<path d="M774.043 349.746V287.639L828.042 256.582" stroke="white" stroke-miterlimit="10"/>
<path d="M774.043 287.639L720.04 256.582" stroke="white" stroke-miterlimit="10"/>
<path d="M882.045 349.746V411.852L828.042 442.91L774.043 411.852V349.746L828.042 318.692L882.045 349.746Z" stroke="white" stroke-miterlimit="10"/>
<path d="M828.042 442.91V380.799L882.045 349.746" stroke="white" stroke-miterlimit="10"/>
<path d="M828.042 380.799L774.043 349.746" stroke="white" stroke-miterlimit="10"/>
<path d="M1314.08 39.2173V101.324L1260.08 132.377L1206.08 101.324V39.2173L1260.08 8.16406L1314.08 39.2173Z" stroke="white" stroke-miterlimit="10"/>
<path d="M1260.08 132.377V70.2705L1314.08 39.2173" stroke="white" stroke-miterlimit="10"/>
<path d="M1260.08 70.2705L1206.08 39.2173" stroke="white" stroke-miterlimit="10"/>
<path d="M774.043 411.844V473.954L720.04 505.008L666.041 473.954V411.844L720.04 380.79L774.043 411.844Z" stroke="white" stroke-miterlimit="10"/>
<path d="M720.04 505.008V442.901L774.043 411.844" stroke="white" stroke-miterlimit="10"/>
<path d="M720.04 442.901L666.041 411.844" stroke="white" stroke-miterlimit="10"/>
<path d="M774.043 536.069V598.18L720.04 629.233L666.041 598.18V536.069L720.04 505.016L774.043 536.069Z" stroke="white" stroke-miterlimit="10"/>
<path d="M1368.08 132.377V194.488L1314.08 225.541L1260.08 194.488V132.377L1314.08 101.324L1368.08 132.377Z" stroke="white" stroke-miterlimit="10"/>
<path d="M720.04 442.901V505.008L666.041 536.061L612.037 505.008V442.901L666.041 411.844L720.04 442.901Z" stroke="white" stroke-miterlimit="10"/>
<path d="M666.041 536.061V473.954L720.04 442.901" stroke="white" stroke-miterlimit="10"/>
<path d="M666.041 473.954L612.037 442.901" stroke="white" stroke-miterlimit="10"/>
<path d="M1098.06 411.852V473.963L1044.06 505.016L990.06 473.963V411.852L1044.06 380.799L1098.06 411.852Z" stroke="white" stroke-miterlimit="10"/>
<path d="M1044.06 505.016V442.91L1098.06 411.852" stroke="white" stroke-miterlimit="10"/>
<path d="M1044.06 442.91V505.016L990.06 536.069L936.057 505.016V442.91L990.06 411.852L1044.06 442.91Z" stroke="white" stroke-miterlimit="10"/>
<path d="M1314.11 411.852V473.963L1260.11 505.016L1206.11 473.963V411.852L1260.11 380.799L1314.11 411.852Z" stroke="white" stroke-miterlimit="10"/>
<path d="M1206.08 101.324V163.435L1152.08 194.488L1098.08 163.435V101.324L1152.08 70.2705L1206.08 101.324Z" stroke="white" stroke-miterlimit="10"/>
<path d="M1152.08 194.488V132.377L1206.08 101.324" stroke="white" stroke-miterlimit="10"/>
<path d="M1152.08 132.377L1098.08 101.324" stroke="white" stroke-miterlimit="10"/>
<path d="M1260.08 70.2705V132.377L1206.08 163.435L1152.08 132.377V70.2705L1206.08 39.2173L1260.08 70.2705Z" stroke="white" stroke-miterlimit="10"/>
<path d="M1206.08 163.435V101.324L1260.08 70.2705" stroke="white" stroke-miterlimit="10"/>
<path d="M828.042 194.475V256.582L882.045 287.639L936.044 256.582V194.475L882.045 163.422L828.042 194.475Z" stroke="white" stroke-miterlimit="10"/>
<path d="M882.045 101.324V163.435L936.044 194.488L990.043 163.435V101.324L936.044 70.2705L882.045 101.324Z" stroke="white" stroke-miterlimit="10"/>
<path d="M882.045 287.639V225.528L828.042 194.475" stroke="white" stroke-miterlimit="10"/>
<path d="M882.045 225.528L936.044 194.475" stroke="white" stroke-miterlimit="10"/>
<path d="M774.043 225.524V287.635L828.042 318.688L882.045 287.635V225.524L828.042 194.471L774.043 225.524Z" stroke="white" stroke-miterlimit="10"/>
<path d="M720.057 380.799V442.91L774.056 473.963L828.059 442.91V380.799L774.056 349.746L720.057 380.799Z" stroke="white" stroke-miterlimit="10"/>
<path d="M990.043 225.524V287.635L1044.05 318.688L1098.05 287.635V225.524L1044.05 194.471L990.043 225.524Z" stroke="white" stroke-miterlimit="10"/>
<path d="M1152.08 505.016V567.127L1206.08 598.18L1260.08 567.127V505.016L1206.08 473.963L1152.08 505.016Z" stroke="white" stroke-miterlimit="10"/>
<path d="M936.044 194.475V256.582L990.043 287.639L1044.05 256.582V194.475L990.043 163.422L936.044 194.475Z" stroke="white" stroke-miterlimit="10"/>
<path d="M990.043 287.639V225.528L936.044 194.475" stroke="white" stroke-miterlimit="10"/>
<path d="M990.043 225.528L1044.05 194.475" stroke="white" stroke-miterlimit="10"/>
<path d="M882.045 39.2173V101.324L936.044 132.377L990.043 101.324V39.2173L936.044 8.16406L882.045 39.2173Z" stroke="white" stroke-miterlimit="10"/>
<path d="M936.044 132.377V70.2705L882.045 39.2173" stroke="white" stroke-miterlimit="10"/>
<path d="M936.044 70.2705L990.043 39.2173" stroke="white" stroke-miterlimit="10"/>
<path d="M720.04 318.692V380.799L774.043 411.852L828.042 380.799V318.692L774.043 287.639L720.04 318.692Z" stroke="white" stroke-miterlimit="10"/>
<path d="M774.043 411.852V349.746L720.04 318.692" stroke="white" stroke-miterlimit="10"/>
<path d="M774.043 349.746L828.042 318.692" stroke="white" stroke-miterlimit="10"/>
<path d="M882.041 287.639V349.746L936.044 380.799L990.043 349.746V287.639L936.044 256.582L882.041 287.639Z" stroke="white" stroke-miterlimit="10"/>
<path d="M936.044 380.799V318.692L882.041 287.639" stroke="white" stroke-miterlimit="10"/>
<path d="M936.044 318.692L990.043 287.639" stroke="white" stroke-miterlimit="10"/>
<path d="M882.041 349.746V411.852L936.044 442.91L990.043 411.852V349.746L936.044 318.692L882.041 349.746Z" stroke="white" stroke-miterlimit="10"/>
<path d="M936.044 380.799L990.043 349.746" stroke="white" stroke-miterlimit="10"/>
<path d="M1098.08 225.528V287.639L1152.08 318.692L1206.08 287.639V225.528L1152.08 194.475L1098.08 225.528Z" stroke="white" stroke-miterlimit="10"/>
<path d="M1152.08 318.692V256.582L1098.08 225.528" stroke="white" stroke-miterlimit="10"/>
<path d="M1152.08 256.582L1206.08 225.528" stroke="white" stroke-miterlimit="10"/>
<path d="M1152.08 256.582V318.692L1206.08 349.746L1260.08 318.692V256.582L1206.08 225.528L1152.08 256.582Z" stroke="white" stroke-miterlimit="10"/>
<path d="M1206.08 349.746V287.639L1152.08 256.582" stroke="white" stroke-miterlimit="10"/>
<path d="M1206.08 287.639L1260.08 256.582" stroke="white" stroke-miterlimit="10"/>
<path d="M1098.08 349.746V411.852L1152.08 442.91L1206.08 411.852V349.746L1152.08 318.692L1098.08 349.746Z" stroke="white" stroke-miterlimit="10"/>
<path d="M1152.08 442.91V380.799L1098.08 349.746" stroke="white" stroke-miterlimit="10"/>
<path d="M1152.08 380.799L1206.08 349.746" stroke="white" stroke-miterlimit="10"/>
<path d="M666.041 39.2173V101.324L720.04 132.377L774.043 101.324V39.2173L720.04 8.16406L666.041 39.2173Z" stroke="white" stroke-miterlimit="10"/>
<path d="M720.04 132.377V70.2705L666.041 39.2173" stroke="white" stroke-miterlimit="10"/>
<path d="M720.04 70.2705L774.043 39.2173" stroke="white" stroke-miterlimit="10"/>
<path d="M1206.08 411.844V473.954L1260.08 505.008L1314.08 473.954V411.844L1260.08 380.79L1206.08 411.844Z" stroke="white" stroke-miterlimit="10"/>
<path d="M1260.08 505.008V442.901L1206.08 411.844" stroke="white" stroke-miterlimit="10"/>
<path d="M1260.08 442.901L1314.08 411.844" stroke="white" stroke-miterlimit="10"/>
<path d="M1206.08 536.069V598.18L1260.08 629.233L1314.08 598.18V536.069L1260.08 505.016L1206.08 536.069Z" stroke="white" stroke-miterlimit="10"/>
<path d="M612.037 132.377V194.488L666.041 225.541L720.04 194.488V132.377L666.041 101.324L612.037 132.377Z" stroke="white" stroke-miterlimit="10"/>
<path d="M1260.08 442.901V505.008L1314.08 536.061L1368.08 505.008V442.901L1314.08 411.844L1260.08 442.901Z" stroke="white" stroke-miterlimit="10"/>
<path d="M1314.08 536.061V473.954L1260.08 442.901" stroke="white" stroke-miterlimit="10"/>
<path d="M1314.08 473.954L1368.08 442.901" stroke="white" stroke-miterlimit="10"/>
<path d="M882.058 411.852V473.963L936.057 505.016L990.061 473.963V411.852L936.057 380.799L882.058 411.852Z" stroke="white" stroke-miterlimit="10"/>
<path d="M936.057 505.016V442.91L882.058 411.852" stroke="white" stroke-miterlimit="10"/>
<path d="M936.057 442.91V505.016L990.061 536.069L1044.06 505.016V442.91L990.061 411.852L936.057 442.91Z" stroke="white" stroke-miterlimit="10"/>
<path d="M666.01 411.852V473.963L720.01 505.016L774.013 473.963V411.852L720.01 380.799L666.01 411.852Z" stroke="white" stroke-miterlimit="10"/>
<path d="M774.043 101.324V163.435L828.042 194.488L882.045 163.435V101.324L828.042 70.2705L774.043 101.324Z" stroke="white" stroke-miterlimit="10"/>
<path d="M828.042 194.488V132.377L774.043 101.324" stroke="white" stroke-miterlimit="10"/>
<path d="M828.042 132.377L882.045 101.324" stroke="white" stroke-miterlimit="10"/>
<path d="M720.04 70.2705V132.377L774.043 163.435L828.042 132.377V70.2705L774.043 39.2173L720.04 70.2705Z" stroke="white" stroke-miterlimit="10"/>
<path d="M774.043 163.435V101.324L720.04 70.2705" stroke="white" stroke-miterlimit="10"/>
<path d="M936.075 629.233L990.074 598.18V536.069L936.075 505.016" stroke="white" stroke-miterlimit="10"/>
<path d="M990.073 39.2173L1044.08 8.16406V-53.9467L990.073 -85" stroke="white" stroke-miterlimit="10"/>
<path d="M828.042 70.2704V-11.5898" stroke="white" stroke-miterlimit="10"/>
<path d="M1260.08 318.692L1314.11 349.746" stroke="white" stroke-miterlimit="10"/>
<path d="M720.04 8.164L666.01 -22.8936" stroke="white" stroke-miterlimit="10"/>
</g>
<rect y="-2" width="1440" height="569" fill="url(#paint0_radial_3933_78000)"/>
<g opacity="0.5" filter="url(#filter0_f_3933_78000)">
<circle cx="89.5" cy="328.5" r="334.5" fill="url(#paint1_radial_3933_78000)" fill-opacity="0.5"/>
</g>
</g>
<defs>
<filter id="filter0_f_3933_78000" x="-545" y="-306" width="1269" height="1269" filterUnits="userSpaceOnUse" color-interpolation-filters="sRGB">
<feFlood flood-opacity="0" result="BackgroundImageFix"/>
<feBlend mode="normal" in="SourceGraphic" in2="BackgroundImageFix" result="shape"/>
<feGaussianBlur stdDeviation="150" result="effect1_foregroundBlur_3933_78000"/>
</filter>
<radialGradient id="paint0_radial_3933_78000" cx="0" cy="0" r="1" gradientUnits="userSpaceOnUse" gradientTransform="translate(720 282.5) rotate(90) scale(383.488 970.515)">
<stop stop-color="#0D121D" stop-opacity="0"/>
<stop offset="1" stop-color="#0D121D"/>
</radialGradient>
<radialGradient id="paint1_radial_3933_78000" cx="0" cy="0" r="1" gradientUnits="userSpaceOnUse" gradientTransform="translate(-189.25 483.024) rotate(-19.3808) scale(650.088)">
<stop stop-color="#43D9BB"/>
<stop offset="1" stop-color="#0299ED"/>
</radialGradient>
<clipPath id="clip0_3933_78000">
<rect width="1440" height="567" fill="white"/>
</clipPath>
</defs>
</svg>
