<svg width="80" height="81" viewBox="0 0 80 81" fill="none" xmlns="http://www.w3.org/2000/svg">
<circle cx="40" cy="40.6082" r="40" fill="#FCFCFC"/>
<path fill-rule="evenodd" clip-rule="evenodd" d="M23.6147 23.2329C22.8063 18.9819 26.0397 15.0579 30.243 15.0579C33.9613 15.0579 37.033 18.1644 37.033 21.9249V30.4269C38.003 30.4269 38.973 30.2634 39.943 30.2634C40.913 30.2634 41.7213 30.2634 42.6913 30.4269V21.9249C42.6913 18.1644 45.763 15.0579 49.4813 15.0579C53.6847 15.0579 56.918 18.9819 56.2713 23.2329L54.493 33.2064C60.798 35.9859 65.648 40.8909 65.648 46.9404V50.7009C65.648 55.7695 62.4147 60.0205 57.7263 62.8C53.038 65.743 46.8947 67.378 39.943 67.378C32.9913 67.378 26.848 65.743 22.1597 62.8C17.633 60.0205 14.3997 55.7695 14.3997 50.7009V46.9404C14.3997 40.8909 19.088 35.9859 25.393 33.2064L23.6147 23.2329ZM52.068 34.5144L54.1697 22.7424C54.6547 19.7994 52.553 17.0199 49.4813 17.0199C46.8947 17.0199 44.793 19.1454 44.793 21.7614V32.5524C44.1463 32.3889 43.338 32.3889 42.6913 32.3889C41.7213 32.3889 40.913 32.2254 39.943 32.2254C38.973 32.2254 38.003 32.2254 37.033 32.3889C36.3863 32.3889 35.578 32.5524 34.9313 32.5524V21.9249C34.9313 19.3089 32.8297 17.1834 30.243 17.1834C27.333 17.1834 25.0697 19.9629 25.7163 22.9059L27.818 34.6779C21.028 37.2939 16.5013 41.8719 16.5013 47.1039V50.8644C16.5013 58.876 27.0097 65.416 39.943 65.416C52.8763 65.416 63.3847 58.876 63.3847 50.8644V47.1039C63.5463 41.7084 59.0197 37.1304 52.068 34.5144Z" fill="#633001"/>
<path d="M63.5462 50.7005C63.5462 58.7121 53.0378 65.2521 40.1045 65.2521C27.1712 65.2521 16.6628 58.7121 16.6628 50.7005V46.94H63.7079V50.7005H63.5462Z" fill="#FEDC90"/>
<path fill-rule="evenodd" clip-rule="evenodd" d="M25.7162 22.9062C25.0695 19.9632 27.3328 17.1837 30.2428 17.1837C32.8295 17.1837 34.9312 19.3092 34.9312 21.9252V32.7162C36.5478 32.5527 38.1645 32.3892 39.9428 32.3892C41.5595 32.3892 43.1762 32.5527 44.7928 32.7162V21.9252C44.7928 19.3092 46.8945 17.1837 49.4812 17.1837C52.3912 17.1837 54.6545 19.9632 54.1695 22.9062L52.0678 34.6782C58.8578 37.2942 63.5462 41.8722 63.5462 47.1042C63.5462 55.1158 53.0378 61.6558 40.1045 61.6558C27.1712 61.6558 16.6628 55.1158 16.6628 47.1042C16.6628 41.8722 21.1895 37.2942 27.9795 34.6782L25.7162 22.9062Z" fill="#D1884F"/>
<path d="M33.4768 45.9593C33.4768 48.0848 32.3451 49.8833 30.8901 49.8833C29.4351 49.8833 28.3035 48.0848 28.3035 45.9593C28.3035 43.8337 29.4351 42.0352 30.8901 42.0352C32.3451 42.0352 33.4768 43.8337 33.4768 45.9593Z" fill="#633001"/>
<path d="M51.4206 45.9593C51.4206 48.0848 50.289 49.8833 48.834 49.8833C47.379 49.8833 46.2473 48.0848 46.2473 45.9593C46.2473 43.8337 47.379 42.0352 48.834 42.0352C50.289 42.0352 51.4206 43.8337 51.4206 45.9593Z" fill="#633001"/>
</svg>
