<svg width="46" height="45" viewBox="0 0 46 45" fill="none" xmlns="http://www.w3.org/2000/svg">
<circle cx="23" cy="22.5" r="22" stroke="url(#paint0_linear_4353_91757)"/>
<path d="M18.5 24V28M26.5 22V28M22.5 18V28M18.3 32H26.7C28.3802 32 29.2202 32 29.862 31.673C30.4265 31.3854 30.8854 30.9265 31.173 30.362C31.5 29.7202 31.5 28.8802 31.5 27.2V18.8C31.5 17.1198 31.5 16.2798 31.173 15.638C30.8854 15.0735 30.4265 14.6146 29.862 14.327C29.2202 14 28.3802 14 26.7 14H18.3C16.6198 14 15.7798 14 15.138 14.327C14.5735 14.6146 14.1146 15.0735 13.827 15.638C13.5 16.2798 13.5 17.1198 13.5 18.8V27.2C13.5 28.8802 13.5 29.7202 13.827 30.362C14.1146 30.9265 14.5735 31.3854 15.138 31.673C15.7798 32 16.6198 32 18.3 32Z" stroke="white" stroke-linecap="round" stroke-linejoin="round"/>
<defs>
<linearGradient id="paint0_linear_4353_91757" x1="0.5" y1="22.5" x2="38.6036" y2="22.5" gradientUnits="userSpaceOnUse">
<stop stop-color="#43D9BB"/>
<stop offset="1" stop-color="#0299ED"/>
</linearGradient>
</defs>
</svg>
