<svg width="86" height="85" viewBox="0 0 86 85" fill="none" xmlns="http://www.w3.org/2000/svg">
<path d="M13.7813 49.1407C13.782 52.406 14.9855 55.5566 17.1618 57.9909C19.3382 60.4252 22.3349 61.9725 25.5798 62.3374C28.8246 62.7023 32.0902 61.8592 34.7528 59.9692C37.4155 58.0791 39.2887 55.2745 40.0147 52.0909L37.4242 51.503C36.8902 53.8287 35.5916 55.9081 33.7363 57.4087C31.8513 58.9426 29.4928 59.7756 27.0625 59.7657C24.347 59.7656 21.7346 58.7258 19.7618 56.8598C17.7889 54.9939 16.6053 52.4434 16.454 49.7322C16.3027 47.0209 17.1952 44.3546 18.9482 42.2807C20.7012 40.2069 23.1817 38.8829 25.8803 38.5806L25.5885 35.9404C22.3393 36.2982 19.3369 37.8436 17.1576 40.28C14.9784 42.7164 13.776 45.8719 13.7813 49.1407Z" fill="white"/>
<path d="M21.1994 45.1567L18.1547 48.2014C18.0313 48.3248 17.9335 48.4712 17.8667 48.6323C17.8 48.7934 17.7656 48.9661 17.7656 49.1405C17.7656 49.315 17.8 49.4877 17.8667 49.6488C17.9335 49.8099 18.0313 49.9563 18.1547 50.0797L21.1994 53.1244L23.0776 51.2461L20.972 49.1405L23.0776 47.035L21.1994 45.1567Z" fill="white"/>
<path d="M23.0723 43.2754L26.1165 40.2312L27.9944 42.1092L24.9502 45.1534L23.0723 43.2754Z" fill="white"/>
<path d="M27.0629 55.2311L24.9573 53.1255L23.0791 55.0037L26.1238 58.0484C26.2471 58.1717 26.3935 58.2696 26.5547 58.3363C26.7158 58.4031 26.8885 58.4374 27.0629 58.4374C27.2373 58.4374 27.41 58.4031 27.5712 58.3363C27.7323 58.2696 27.8787 58.1717 28.002 58.0484L31.0467 55.0037L29.1685 53.1255L27.0629 55.2311Z" fill="white"/>
<path d="M31.0391 51.2441L34.0833 48.2L35.9612 50.0779L32.917 53.1221L31.0391 51.2441Z" fill="white"/>
<path d="M24.8679 48.6687L26.5848 46.9518C26.7093 46.8273 26.8782 46.7574 27.0543 46.7574C27.2304 46.7574 27.3993 46.8273 27.5238 46.9518L29.2407 48.6687C29.3652 48.7932 29.4351 48.9621 29.4351 49.1382C29.4351 49.3143 29.3652 49.4832 29.2407 49.6077L27.5238 51.3245C27.3993 51.4491 27.2304 51.519 27.0543 51.519C26.8782 51.519 26.7093 51.4491 26.5848 51.3245L24.8679 49.6077C24.7434 49.4832 24.6735 49.3143 24.6735 49.1382C24.6735 48.9621 24.7434 48.7932 24.8679 48.6687Z" fill="white"/>
<path d="M28.3906 34.5312C28.3906 37.4207 29.2474 40.2453 30.8527 42.6478C32.458 45.0503 34.7397 46.9228 37.4092 48.0286C40.0787 49.1343 43.0162 49.4236 45.8501 48.8599C48.6841 48.2962 51.2872 46.9048 53.3304 44.8616C55.3735 42.8185 56.765 40.2153 57.3287 37.3814C57.8924 34.5475 57.6031 31.61 56.4973 28.9405C55.3916 26.271 53.519 23.9893 51.1165 22.384C48.714 20.7787 45.8895 19.9219 43 19.9219C39.1267 19.9263 35.4133 21.4669 32.6744 24.2057C29.9356 26.9445 28.395 30.6579 28.3906 34.5312ZM43 22.5781C45.3641 22.5781 47.6751 23.2792 49.6408 24.5926C51.6065 25.906 53.1385 27.7728 54.0432 29.957C54.9479 32.1411 55.1847 34.5445 54.7235 36.8632C54.2622 39.1819 53.1238 41.3117 51.4521 42.9834C49.7805 44.6551 47.6506 45.7935 45.3319 46.2547C43.0133 46.7159 40.6099 46.4792 38.4257 45.5745C36.2416 44.6698 34.3748 43.1377 33.0613 41.172C31.7479 39.2064 31.0469 36.8954 31.0469 34.5312C31.0505 31.3622 32.311 28.324 34.5518 26.0831C36.7927 23.8422 39.8309 22.5817 43 22.5781Z" fill="white"/>
<path d="M39.0156 41.1721H41.6719V43.8281H44.3281V41.1721C45.0975 41.1726 45.8505 40.9502 46.4962 40.5318C47.1418 40.1134 47.6524 39.5169 47.9662 38.8144C48.28 38.112 48.3836 37.3336 48.2644 36.5736C48.1453 35.8135 47.8085 35.1042 47.2947 34.5315C47.8085 33.9588 48.1453 33.2495 48.2644 32.4894C48.3836 31.7293 48.28 30.951 47.9662 30.2486C47.6524 29.5461 47.1418 28.9496 46.4962 28.5312C45.8505 28.1128 45.0975 27.8904 44.3281 27.8909V25.2344H41.6719V27.8909H39.0156C38.8412 27.8909 38.6685 27.9252 38.5074 27.992C38.3462 28.0587 38.1998 28.1565 38.0765 28.2799C37.9532 28.4032 37.8553 28.5496 37.7886 28.7107C37.7218 28.8719 37.6875 29.0446 37.6875 29.219V39.844C37.6875 40.0184 37.7218 40.1911 37.7886 40.3523C37.8553 40.5134 37.9532 40.6598 38.0765 40.7831C38.1998 40.9065 38.3462 41.0043 38.5074 41.071C38.6685 41.1378 38.8412 41.1721 39.0156 41.1721ZM44.3281 38.5159H40.3437V35.8596H44.3281C44.6804 35.8596 45.0182 35.9995 45.2673 36.2486C45.5163 36.4977 45.6562 36.8355 45.6562 37.1877C45.6562 37.54 45.5163 37.8778 45.2673 38.1269C45.0182 38.3759 44.6804 38.5159 44.3281 38.5159ZM40.3437 30.5471H44.3281C44.6804 30.5471 45.0182 30.687 45.2673 30.9361C45.5163 31.1852 45.6562 31.523 45.6562 31.8752C45.6562 32.2275 45.5163 32.5653 45.2673 32.8144C45.0182 33.0634 44.6804 33.2034 44.3281 33.2034H40.3437V30.5471Z" fill="white"/>
<path d="M25.5885 33.1221L25.8803 30.4819C23.943 30.2643 22.1029 29.518 20.5615 28.3245C19.0201 27.131 17.8367 25.5364 17.141 23.7154C16.4453 21.8943 16.264 19.9169 16.617 17.9996C16.9701 16.0824 17.8438 14.2993 19.1425 12.8454C20.4413 11.3916 22.115 10.3231 23.9804 9.75696C25.8459 9.19081 27.8311 9.14882 29.7188 9.63558C31.6066 10.1223 33.324 11.1191 34.683 12.5167C36.0421 13.9143 36.9904 15.6589 37.4242 17.5595L40.0146 16.9717C39.4732 14.5948 38.2882 12.4129 36.5893 10.6647C34.8904 8.91654 32.7431 7.66961 30.3828 7.0605C28.0224 6.45139 25.5399 6.50358 23.2072 7.21136C20.8746 7.91914 18.7816 9.25521 17.1577 11.0732C15.5338 12.8913 14.4415 15.1211 14.0005 17.5186C13.5594 19.9161 13.7867 22.3887 14.6573 24.6656C15.5279 26.9425 17.0083 28.9359 18.9364 30.4275C20.8645 31.9191 23.1659 32.8513 25.5885 33.1221Z" fill="white"/>
<path d="M28.3906 19.9219V15.9375H31.0469V13.2812H23.0781V15.9375H25.7344V19.9219H28.3906Z" fill="white"/>
<path d="M28.3906 27.8906V23.7993C31.418 23.3057 33.7031 21.1593 33.7031 18.5938H31.0469C31.0469 20.0336 29.2222 21.25 27.0625 21.25C24.9028 21.25 23.0781 20.0336 23.0781 18.5938H20.4219C20.4219 21.1593 22.707 23.3057 25.7344 23.7993V27.8906H28.3906Z" fill="white"/>
<path d="M52.2637 11.6541C54.1487 10.1201 56.5072 9.28715 58.9375 9.29707C61.653 9.29721 64.2654 10.337 66.2382 12.2029C68.2111 14.0689 69.3947 16.6193 69.546 19.3306C69.6973 22.0419 68.8048 24.7082 67.0518 26.782C65.2988 28.8559 62.8183 30.1799 60.1197 30.4821L60.4115 33.1223C62.8336 32.8512 65.1343 31.9188 67.0618 30.4273C68.9893 28.9357 70.4691 26.9426 71.3394 24.666C72.2096 22.3895 72.4366 19.9174 71.9956 17.5205C71.5545 15.1236 70.4624 12.8942 68.8388 11.0766C67.2152 9.25893 65.1228 7.9231 62.7906 7.21537C60.4585 6.50763 57.9765 6.45528 55.6166 7.06405C53.2567 7.67282 51.1098 8.91923 49.411 10.6668C47.7122 12.4144 46.5271 14.5957 45.9854 16.9719L48.5758 17.5598C49.1099 15.2341 50.4084 13.1547 52.2637 11.6541Z" fill="white"/>
<path d="M58.9375 21.25C59.671 21.25 60.2656 20.6554 60.2656 19.9219C60.2656 19.1884 59.671 18.5938 58.9375 18.5938C58.204 18.5938 57.6094 19.1884 57.6094 19.9219C57.6094 20.6554 58.204 21.25 58.9375 21.25Z" fill="white"/>
<path d="M58.9375 17.2656C59.671 17.2656 60.2656 16.671 60.2656 15.9375C60.2656 15.204 59.671 14.6094 58.9375 14.6094C58.204 14.6094 57.6094 15.204 57.6094 15.9375C57.6094 16.671 58.204 17.2656 58.9375 17.2656Z" fill="white"/>
<path d="M54.9531 21.25C55.6866 21.25 56.2812 20.6554 56.2812 19.9219C56.2812 19.1884 55.6866 18.5938 54.9531 18.5938C54.2196 18.5938 53.625 19.1884 53.625 19.9219C53.625 20.6554 54.2196 21.25 54.9531 21.25Z" fill="white"/>
<path d="M62.9219 21.25C63.6554 21.25 64.25 20.6554 64.25 19.9219C64.25 19.1884 63.6554 18.5938 62.9219 18.5938C62.1884 18.5938 61.5938 19.1884 61.5938 19.9219C61.5938 20.6554 62.1884 21.25 62.9219 21.25Z" fill="white"/>
<path d="M66.9062 21.25C67.6398 21.25 68.2344 20.6554 68.2344 19.9219C68.2344 19.1884 67.6398 18.5938 66.9062 18.5938C66.1727 18.5938 65.5781 19.1884 65.5781 19.9219C65.5781 20.6554 66.1727 21.25 66.9062 21.25Z" fill="white"/>
<path d="M58.9375 13.2812C59.671 13.2812 60.2656 12.6866 60.2656 11.9531C60.2656 11.2196 59.671 10.625 58.9375 10.625C58.204 10.625 57.6094 11.2196 57.6094 11.9531C57.6094 12.6866 58.204 13.2812 58.9375 13.2812Z" fill="white"/>
<path d="M58.9375 29.2188C59.671 29.2188 60.2656 28.6241 60.2656 27.8906C60.2656 27.1571 59.671 26.5625 58.9375 26.5625C58.204 26.5625 57.6094 27.1571 57.6094 27.8906C57.6094 28.6241 58.204 29.2188 58.9375 29.2188Z" fill="white"/>
<path d="M58.9375 25.2344C59.671 25.2344 60.2656 24.6398 60.2656 23.9062C60.2656 23.1727 59.671 22.5781 58.9375 22.5781C58.204 22.5781 57.6094 23.1727 57.6094 23.9062C57.6094 24.6398 58.204 25.2344 58.9375 25.2344Z" fill="white"/>
<path d="M54.9531 17.2656C55.6866 17.2656 56.2812 16.671 56.2812 15.9375C56.2812 15.204 55.6866 14.6094 54.9531 14.6094C54.2196 14.6094 53.625 15.204 53.625 15.9375C53.625 16.671 54.2196 17.2656 54.9531 17.2656Z" fill="white"/>
<path d="M62.9219 17.2656C63.6554 17.2656 64.25 16.671 64.25 15.9375C64.25 15.204 63.6554 14.6094 62.9219 14.6094C62.1884 14.6094 61.5938 15.204 61.5938 15.9375C61.5938 16.671 62.1884 17.2656 62.9219 17.2656Z" fill="white"/>
<path d="M62.9219 25.2344C63.6554 25.2344 64.25 24.6398 64.25 23.9062C64.25 23.1727 63.6554 22.5781 62.9219 22.5781C62.1884 22.5781 61.5938 23.1727 61.5938 23.9062C61.5938 24.6398 62.1884 25.2344 62.9219 25.2344Z" fill="white"/>
<path d="M81.5156 66.4062H77.5312V33.2031C77.5301 32.1468 77.1099 31.134 76.3629 30.3871C75.616 29.6401 74.6032 29.2199 73.5469 29.2188H70.8906V31.875H73.5469C73.899 31.8754 74.2366 32.0155 74.4856 32.2644C74.7345 32.5134 74.8746 32.851 74.875 33.2031V66.4062H11.125V33.2031C11.1254 32.851 11.2655 32.5134 11.5144 32.2644C11.7634 32.0155 12.101 31.8754 12.4531 31.875H15.1094V29.2188H12.4531C11.3968 29.2199 10.384 29.6401 9.63705 30.3871C8.89009 31.134 8.46993 32.1468 8.46875 33.2031V66.4062H4.48438C4.30996 66.4062 4.13726 66.4406 3.97612 66.5073C3.81498 66.5741 3.66857 66.6719 3.54524 66.7952C3.42191 66.9186 3.32408 67.065 3.25734 67.2261C3.19059 67.3873 3.15624 67.56 3.15625 67.7344V71.7188C3.15746 72.7751 3.57763 73.7878 4.32458 74.5348C5.07153 75.2817 6.08427 75.7019 7.14062 75.7031H78.8594C79.9157 75.7019 80.9285 75.2817 81.6754 74.5348C82.4224 73.7878 82.8425 72.7751 82.8438 71.7188V67.7344C82.8438 67.56 82.8094 67.3873 82.7427 67.2261C82.6759 67.065 82.5781 66.9186 82.4548 66.7952C82.3314 66.6719 82.185 66.5741 82.0239 66.5073C81.8627 66.4406 81.69 66.4062 81.5156 66.4062ZM80.1875 71.7188C80.1871 72.0709 80.047 72.4084 79.7981 72.6574C79.5491 72.9064 79.2115 73.0465 78.8594 73.0469H7.14062C6.78851 73.0465 6.45093 72.9064 6.20194 72.6574C5.95296 72.4084 5.8129 72.0709 5.8125 71.7188V69.0625H35.8093L36.7484 70.0016C36.8717 70.1249 37.0181 70.2228 37.1792 70.2895C37.3404 70.3563 37.5131 70.3906 37.6875 70.3906H48.3125C48.4869 70.3906 48.6596 70.3563 48.8208 70.2895C48.9819 70.2228 49.1283 70.1249 49.2516 70.0016L50.1907 69.0625H80.1875V71.7188Z" fill="white"/>
<path d="M60.4115 35.9404L60.1197 38.5806C62.057 38.7982 63.8971 39.5446 65.4385 40.738C66.9799 41.9315 68.1633 43.5261 68.859 45.3472C69.5547 47.1683 69.736 49.1457 69.383 51.0629C69.0299 52.9801 68.1562 54.7633 66.8575 56.2171C65.5587 57.6709 63.885 58.7394 62.0196 59.3056C60.1541 59.8717 58.1689 59.9137 56.2812 59.427C54.3934 58.9402 52.676 57.9434 51.317 56.5458C49.9579 55.1482 49.0096 53.4036 48.5758 51.503L45.9854 52.0909C46.5268 54.4677 47.7118 56.6497 49.4107 58.3978C51.1096 60.146 53.2569 61.3929 55.6172 62.002C57.9776 62.6112 60.4601 62.559 62.7927 61.8512C65.1254 61.1434 67.2183 59.8073 68.8423 57.9893C70.4662 56.1713 71.5585 53.9414 71.9995 51.5439C72.4406 49.1465 72.2133 46.6739 71.3427 44.397C70.4721 42.12 68.9917 40.1266 67.0636 38.635C65.1355 37.1434 62.8341 36.2112 60.4115 35.9404Z" fill="white"/>
<path d="M57.9984 56.7204C58.1217 56.8437 58.2681 56.9415 58.4293 57.0083C58.5904 57.075 58.7631 57.1094 58.9375 57.1094C59.1119 57.1094 59.2846 57.075 59.4458 57.0083C59.6069 56.9415 59.7533 56.8437 59.8766 56.7204L65.1891 51.4079C65.3952 51.2019 65.5277 50.9338 65.5664 50.645C65.6051 50.3562 65.5477 50.0628 65.4031 49.8098L60.0906 40.5129C59.9745 40.3096 59.8066 40.1407 59.6041 40.0232C59.4016 39.9056 59.1716 39.8437 58.9375 39.8438C58.7034 39.8437 58.4734 39.9056 58.2709 40.0232C58.0684 40.1407 57.9006 40.3096 57.7844 40.5129L52.4719 49.8098C52.3273 50.0628 52.27 50.3562 52.3086 50.645C52.3473 50.9338 52.4799 51.2019 52.6859 51.4079L57.9984 56.7204ZM58.9375 53.903L56.2228 51.1883L58.9375 50.5096L61.6522 51.1883L58.9375 53.903ZM58.9375 43.8488L61.5527 48.4254L59.2597 47.8521C59.0481 47.7993 58.8269 47.7993 58.6154 47.8521L56.3223 48.4254L58.9375 43.8488Z" fill="white"/>
</svg>
