<svg width="45" height="45" viewBox="0 0 45 45" fill="none" xmlns="http://www.w3.org/2000/svg">
<circle cx="22.5" cy="22.5" r="22" stroke="url(#paint0_linear_3933_77699)"/>
<path d="M23.5295 19.3519C22.9571 19.7599 22.2566 20 21.5 20C19.567 20 18 18.433 18 16.5C18 14.567 19.567 13 21.5 13C22.753 13 23.8522 13.6584 24.4705 14.6481M16 31.0872H18.6103C18.9506 31.0872 19.2889 31.1277 19.6188 31.2086L22.3769 31.8789C22.9753 32.0247 23.5988 32.0388 24.2035 31.9214L27.253 31.3281C28.0585 31.1712 28.7996 30.7854 29.3803 30.2205L31.5379 28.1217C32.154 27.5234 32.154 26.5524 31.5379 25.9531C30.9832 25.4134 30.1047 25.3527 29.4771 25.8103L26.9626 27.6449C26.6025 27.9081 26.1643 28.0498 25.7137 28.0498H23.2855L24.8311 28.0498C25.7022 28.0498 26.4079 27.3633 26.4079 26.5159V26.2091C26.4079 25.5055 25.9156 24.892 25.2141 24.7219L22.8286 24.1417C22.4404 24.0476 22.0428 24 21.6431 24C20.6783 24 18.9319 24.7988 18.9319 24.7988L16 26.0249M30 17.5C30 19.433 28.433 21 26.5 21C24.567 21 23 19.433 23 17.5C23 15.567 24.567 14 26.5 14C28.433 14 30 15.567 30 17.5ZM12 25.6L12 31.4C12 31.9601 12 32.2401 12.109 32.454C12.2049 32.6422 12.3578 32.7951 12.546 32.891C12.7599 33 13.0399 33 13.6 33H14.4C14.9601 33 15.2401 33 15.454 32.891C15.6422 32.7951 15.7951 32.6422 15.891 32.454C16 32.2401 16 31.9601 16 31.4V25.6C16 25.0399 16 24.7599 15.891 24.546C15.7951 24.3578 15.6422 24.2049 15.454 24.109C15.2401 24 14.9601 24 14.4 24L13.6 24C13.0399 24 12.7599 24 12.546 24.109C12.3578 24.2049 12.2049 24.3578 12.109 24.546C12 24.7599 12 25.0399 12 25.6Z" stroke="white" stroke-linecap="round" stroke-linejoin="round"/>
<defs>
<linearGradient id="paint0_linear_3933_77699" x1="0" y1="22.5" x2="38.1036" y2="22.5" gradientUnits="userSpaceOnUse">
<stop stop-color="#43D9BB"/>
<stop offset="1" stop-color="#0299ED"/>
</linearGradient>
</defs>
</svg>
