<svg width="86" height="86" viewBox="0 0 86 86" fill="none" xmlns="http://www.w3.org/2000/svg">
<path fill-rule="evenodd" clip-rule="evenodd" d="M28.611 45.4982C36.0562 45.4982 42.1135 39.4408 42.1135 31.9956C42.1135 24.7646 33.8454 11.8594 29.6277 6.87226C29.3747 6.57316 29.0028 6.40056 28.611 6.40056C28.2192 6.40056 27.8474 6.57316 27.5944 6.87226C23.3767 11.8593 15.1084 24.764 15.1084 31.9956C15.1084 39.441 21.1657 45.4982 28.611 45.4982ZM28.611 9.8516C32.8773 15.3537 39.4504 26.3097 39.4504 31.9956C39.4504 37.9725 34.5879 42.8351 28.611 42.8351C22.6342 42.8351 17.7715 37.9725 17.7715 31.9956C17.7715 26.3092 24.3447 15.3534 28.611 9.8516ZM19.2682 33.8272C19.1321 33.1045 19.6074 32.4084 20.3301 32.2721C21.0528 32.1361 21.7491 32.6113 21.8852 33.334C22.3775 35.9465 24.368 38.029 26.9566 38.6396C27.6723 38.8083 28.1157 39.5254 27.9468 40.2413C27.8023 40.8543 27.2555 41.2674 26.652 41.2674C26.5508 41.2674 26.4479 41.2557 26.3451 41.2314C22.7331 40.3797 19.9553 37.4733 19.2682 33.8272ZM30.6674 32.4049C30.8307 32.2158 30.8857 32.0114 30.8504 31.7208C30.8096 31.3856 30.7144 30.6005 28.4055 30.2213C24.7683 29.6241 24.1297 27.5624 24.0726 26.3866C23.9791 24.4622 25.2605 22.8449 27.2796 22.3084V21.8843C27.2796 21.149 27.8759 20.5528 28.6112 20.5528C29.3465 20.5528 29.9428 21.149 29.9428 21.8843V22.2964C31.2472 22.6287 32.4724 23.4875 33.1248 25.0414C33.4096 25.7194 33.0907 26.5 32.4126 26.7846C31.7357 27.0691 30.9541 26.7506 30.6694 26.0724C30.1228 24.771 28.7713 24.6976 28.0594 24.8587C27.7357 24.9321 26.6834 25.25 26.7324 26.2576C26.7457 26.5308 26.7808 27.256 28.8369 27.5934C31.6769 28.0597 33.244 29.3403 33.494 31.3998C33.62 32.437 33.339 33.3869 32.6816 34.1471C32.0481 34.8794 31.0681 35.4027 29.9426 35.6334V36.0109C29.9426 36.7463 29.3464 37.3425 28.611 37.3425C27.8757 37.3425 27.2795 36.7463 27.2795 36.0109V35.611C25.5099 35.1947 24.1603 33.9647 23.7382 32.2723C23.5605 31.5587 23.9945 30.836 24.7081 30.6581C25.4215 30.4813 26.1443 30.9146 26.3223 31.6279C26.6022 32.7509 27.793 33.1234 28.725 33.101C29.5436 33.0813 30.3242 32.8017 30.6674 32.4049ZM72.9344 1.94436C72.6814 1.64526 72.3094 1.47266 71.9177 1.47266C71.5261 1.47266 71.1539 1.64526 70.9011 1.94436C67.0692 6.47579 59.5571 18.2069 59.5571 24.7916C59.5571 31.6073 65.102 37.1524 71.9179 37.1524C78.7338 37.1524 84.2783 31.6071 84.2783 24.7914C84.2783 18.2069 76.7662 6.47562 72.9344 1.94436ZM71.9176 34.4891C66.5702 34.4891 62.2199 30.1388 62.2199 24.7914C62.2199 19.7102 68.0604 9.93982 71.9176 4.92886C75.7747 9.93999 81.6152 19.7102 81.6152 24.7914C81.6152 30.1388 77.2649 34.4891 71.9176 34.4891ZM71.4374 32.2922C71.2929 32.9052 70.7461 33.3184 70.1426 33.3184C70.0414 33.3184 69.9385 33.3067 69.8357 33.2824C66.5145 32.499 63.9604 29.8265 63.3287 26.4742C63.1926 25.7515 63.6679 25.0553 64.3906 24.9191C65.1145 24.7831 65.8096 25.2583 65.9457 25.981C66.3826 28.3001 68.1496 30.1486 70.4472 30.6905C71.1627 30.8593 71.6061 31.5764 71.4374 32.2922ZM76.4665 24.2363C76.585 25.2124 76.3202 26.1065 75.7008 26.8227C75.1279 27.485 74.2539 27.9639 73.2491 28.1886V28.4297C73.2491 29.1651 72.6529 29.7613 71.9176 29.7613C71.1822 29.7613 70.586 29.1651 70.586 28.4297V28.1654C68.9845 27.7565 67.7671 26.6222 67.3806 25.0721C67.2029 24.3585 67.637 23.6358 68.3505 23.4579C69.0652 23.2801 69.7867 23.7144 69.9647 24.4278C70.2004 25.3737 71.2218 25.6927 72.0178 25.6678C72.7155 25.6511 73.4017 25.4096 73.6865 25.0804C73.7774 24.9752 73.8568 24.8392 73.8227 24.5573C73.7892 24.2815 73.7105 23.635 71.7108 23.3066C68.3282 22.751 67.7335 20.8174 67.6799 19.7144C67.5935 17.9391 68.7511 16.4434 70.5857 15.9177V15.6285C70.5857 14.8932 71.1819 14.297 71.9172 14.297C72.6526 14.297 73.2488 14.8932 73.2488 15.6285V15.9055C74.4295 16.2317 75.5297 17.0283 76.1228 18.4408C76.4075 19.1187 76.0886 19.8993 75.4105 20.1839C74.7329 20.4686 73.952 20.1498 73.6674 19.4717C73.2042 18.3687 72.0524 18.3081 71.445 18.4454C71.1757 18.5065 70.3001 18.7692 70.3397 19.5852C70.3495 19.7841 70.3786 20.389 72.1423 20.6786C74.7776 21.1115 76.2323 22.3084 76.4665 24.2363ZM52.5974 57.2899C59.6648 57.2899 65.4144 51.5403 65.4144 44.4729C65.4144 37.6299 57.6004 25.4297 53.6142 20.7164C53.3612 20.4173 52.9892 20.2447 52.5976 20.2447C52.2059 20.2447 51.8338 20.4173 51.581 20.7164C47.5948 25.4297 39.7807 37.6299 39.7807 44.4729C39.7804 51.5403 45.5301 57.2899 52.5974 57.2899ZM52.5974 23.6987C56.6182 28.9064 62.7513 39.1502 62.7513 44.4729C62.7513 50.0719 58.1964 54.6268 52.5974 54.6268C46.9984 54.6268 42.4435 50.0719 42.4435 44.4729C42.4435 39.1502 48.5766 28.9064 52.5974 23.6987ZM44.7692 44.66C45.4924 44.5234 46.1882 44.9992 46.3243 45.7219C46.7835 48.1583 48.6397 50.1004 51.0533 50.6696C51.7692 50.8384 52.2126 51.5554 52.0437 52.2711C51.8992 52.8843 51.3524 53.2974 50.7489 53.2974C50.6477 53.2974 50.5448 53.2858 50.4421 53.2615C47.0049 52.4509 44.3613 49.6849 43.7073 46.2151C43.5712 45.4924 44.0465 44.7963 44.7692 44.66ZM54.4814 44.81C54.5794 44.6966 54.6745 44.5383 54.6362 44.2229C54.5997 43.9232 54.5145 43.2211 52.3914 42.8727C48.9072 42.3005 48.2949 40.316 48.2399 39.1837C48.1507 37.3486 49.3579 35.8042 51.2662 35.2742V34.9314C51.2662 34.196 51.8624 33.5998 52.5978 33.5998C53.3331 33.5998 53.9293 34.196 53.9293 34.9314V35.2621C55.1597 35.5908 56.3096 36.4124 56.9263 37.8814C57.2111 38.5593 56.8922 39.34 56.2141 39.6246C55.537 39.909 54.7555 39.5906 54.4709 38.9124C53.9746 37.7299 52.7426 37.6639 52.0938 37.8112C51.8027 37.8771 50.8566 38.1619 50.8999 39.0545C50.9115 39.2957 50.9428 39.9362 52.823 40.2447C55.5398 40.6908 57.0395 41.9212 57.28 43.9019C57.4015 44.9022 57.1305 45.8186 56.496 46.5521C55.899 47.2425 54.9824 47.7394 53.9293 47.9667V48.262C53.9293 48.9974 53.3331 49.5936 52.5978 49.5936C51.8624 49.5936 51.2662 48.9974 51.2662 48.262V47.9436C49.5973 47.5317 48.3273 46.3591 47.9267 44.7522C47.7489 44.0387 48.1832 43.316 48.8965 43.138C49.6111 42.9611 50.3328 43.3945 50.5107 44.1079C50.764 45.1244 51.8468 45.4604 52.7034 45.441C53.4443 45.4231 54.1756 45.1638 54.4814 44.81ZM62.1491 54.9704L49.0625 62.5928C48.5443 62.8944 48.0189 63.1246 47.4769 63.2847C47.6479 62.9507 47.7872 62.5875 47.8919 62.1969C48.5843 59.6123 47.051 56.9149 44.4012 56.0559C44.3441 56.0376 44.286 56.023 44.227 56.0121C40.4796 55.3362 36.7749 53.9968 33.7979 52.9206C32.7605 52.5454 31.7805 52.1913 30.9456 51.9204C27.5311 50.8126 24.4609 52.1748 21.9073 53.6533L12.3198 59.2042L11.4865 57.7318C10.6016 56.1684 8.60998 55.6162 7.04591 56.5011L3.37399 58.5792C2.6185 59.0066 2.0739 59.705 1.84121 60.5451C1.60819 61.3854 1.71538 62.2643 2.14314 63.0198L12.9382 82.0941C13.5369 83.152 14.6424 83.747 15.7792 83.747C16.3227 83.747 16.8729 83.6112 17.3786 83.3249L21.0505 81.2469C21.806 80.8194 22.3506 80.121 22.5833 79.281C22.8163 78.4406 22.7091 77.5618 22.2813 76.8063L21.2514 74.9866L23.2635 73.825L39.957 78.298C40.8968 78.5498 41.8318 78.675 42.7514 78.675C44.6119 78.675 46.4092 78.1628 48.0522 77.1513L71.8017 62.5274C74.0417 61.1484 74.7556 57.6782 73.2994 55.247C72.5945 54.0692 69.7058 50.5694 62.1491 54.9704ZM20.0175 78.5696C19.9927 78.6591 19.9237 78.8249 19.7392 78.9293L16.0673 81.0073C15.8832 81.1112 15.7055 81.0852 15.6158 81.0606C15.5262 81.0358 15.3604 80.9666 15.2561 80.7823L4.46103 61.7078C4.35684 61.5239 4.3828 61.346 4.40777 61.2565C4.43274 61.1669 4.50164 61.0011 4.68606 60.8968L8.35798 58.8187C8.44769 58.7679 8.5469 58.744 8.64543 58.744C8.85482 58.744 9.06121 58.8527 9.16923 59.0436L19.9643 78.1182C20.0685 78.3021 20.0423 78.4801 20.0175 78.5696ZM70.4057 60.2594L46.6562 74.8834C44.8143 76.0172 42.7925 76.3006 40.6468 75.7256L23.4205 71.1099C23.0796 71.0184 22.7161 71.0661 22.4102 71.2429L19.9401 72.669L13.6316 61.5221L23.2419 55.958C25.39 54.7142 27.7106 53.6713 30.124 54.4537C30.9168 54.7109 31.8324 55.0419 32.8925 55.4253C35.9386 56.5264 39.723 57.8948 43.6569 58.6155C44.9314 59.067 45.6439 60.2969 45.3195 61.5078C44.8922 63.1025 43.5532 63.3014 42.4843 63.179C40.5675 62.7842 34.9397 61.1777 33.961 60.9154C33.2512 60.7255 32.5208 61.1468 32.3302 61.857C32.1398 62.5674 32.5616 63.2974 33.2718 63.4878C34.2297 63.7444 39.97 65.3838 42.0073 65.8004C42.0159 65.8022 42.051 65.8087 42.0602 65.8102L43.688 66.0748C46.1627 66.4705 48.3588 66.0845 50.4025 64.8944L63.4893 57.2719C67.1656 55.1311 69.9788 54.8855 71.0149 56.6155C71.7236 57.7982 71.4162 59.6374 70.4057 60.2594ZM9.33933 62.3546C9.44403 63.071 8.94819 63.7366 8.23182 63.8415C7.51544 63.9462 6.84967 63.4503 6.74497 62.734C6.64028 62.0176 7.13612 61.3518 7.85249 61.2471C8.56887 61.1423 9.23464 61.6381 9.33933 62.3546Z" fill="white"/>
</svg>
