<svg width="159" height="294" viewBox="0 0 159 294" fill="none" xmlns="http://www.w3.org/2000/svg">
<path d="M159.881 294V93.8267L33.5143 11.1864C5.64398 -8.6012 0.686831 2.07003 0.687012 11.1864V180.875C0.687012 200.267 10.4975 213.391 27.5132 223.847L159.881 294Z" fill="#1BC5A2" fill-opacity="0.1"/>
<mask id="mask0_427_39814" style="mask-type:alpha" maskUnits="userSpaceOnUse" x="0" y="0" width="160" height="294">
<path d="M159.881 294V93.8267L33.5143 11.1864C5.64398 -8.6012 0.686831 2.07003 0.687012 11.1864V180.875C0.687012 200.267 10.4975 213.391 27.5132 223.847L159.881 294Z" fill="white"/>
</mask>
<g mask="url(#mask0_427_39814)">
<path d="M78.1089 147.43L159.864 93.8696V196.915L78.1089 147.43Z" fill="#43D9BB" fill-opacity="0.1"/>
<path d="M74.1299 248.462L159.862 196.889V294.001L74.1299 248.462Z" fill="#3ECAAE" fill-opacity="0.1"/>
<path d="M78.0989 147.431L0.686127 94.7649V196.916L78.0989 147.431Z" fill="#0C9383" fill-opacity="0.1"/>
</g>
</svg>
