<svg width="45" height="45" viewBox="0 0 45 45" fill="none" xmlns="http://www.w3.org/2000/svg">
<circle cx="22.5" cy="22.5" r="22" stroke="url(#paint0_linear_3933_77730)"/>
<path d="M33 19.5H13M13 23.5H16.5467C17.0869 23.5 17.357 23.5 17.6181 23.5466C17.85 23.5879 18.0761 23.6563 18.2919 23.7506C18.535 23.8567 18.7598 24.0065 19.2092 24.3062L19.7908 24.6938C20.2402 24.9935 20.465 25.1433 20.7081 25.2494C20.9239 25.3437 21.15 25.4121 21.3819 25.4534C21.643 25.5 21.9131 25.5 22.4533 25.5H23.5467C24.0869 25.5 24.357 25.5 24.6181 25.4534C24.85 25.4121 25.0761 25.3437 25.2919 25.2494C25.535 25.1433 25.7598 24.9935 26.2092 24.6938L26.7908 24.3062C27.2402 24.0065 27.465 23.8567 27.7081 23.7506C27.9239 23.6563 28.15 23.5879 28.3819 23.5466C28.643 23.5 28.9131 23.5 29.4533 23.5H33M13 18.2L13 27.8C13 28.9201 13 29.4802 13.218 29.908C13.4097 30.2843 13.7157 30.5903 14.092 30.782C14.5198 31 15.0799 31 16.2 31L29.8 31C30.9201 31 31.4802 31 31.908 30.782C32.2843 30.5903 32.5903 30.2843 32.782 29.908C33 29.4802 33 28.9201 33 27.8V18.2C33 17.0799 33 16.5198 32.782 16.092C32.5903 15.7157 32.2843 15.4097 31.908 15.218C31.4802 15 30.9201 15 29.8 15L16.2 15C15.0799 15 14.5198 15 14.092 15.218C13.7157 15.4097 13.4097 15.7157 13.218 16.092C13 16.5198 13 17.0799 13 18.2Z" stroke="white" stroke-linecap="round" stroke-linejoin="round"/>
<defs>
<linearGradient id="paint0_linear_3933_77730" x1="0" y1="22.5" x2="38.1036" y2="22.5" gradientUnits="userSpaceOnUse">
<stop stop-color="#43D9BB"/>
<stop offset="1" stop-color="#0299ED"/>
</linearGradient>
</defs>
</svg>
