<svg width="86" height="85" viewBox="0 0 86 85" fill="none" xmlns="http://www.w3.org/2000/svg">
<mask id="mask0_4385_38698" style="mask-type:luminance" maskUnits="userSpaceOnUse" x="0" y="0" width="86" height="85">
<path d="M0.944336 4.57035e-05H85.0556V84.1113H0.944336V4.57035e-05Z" fill="white"/>
</mask>
<g mask="url(#mask0_4385_38698)">
<path fill-rule="evenodd" clip-rule="evenodd" d="M77.2389 76.21C77.9193 76.21 78.4709 75.6583 78.4709 74.9779V28.8867C78.4709 26.0244 76.1505 23.704 73.2881 23.704H57.486C56.8055 23.704 56.2539 24.2556 56.2539 24.9361C56.2539 25.6166 56.8055 26.1682 57.486 26.1682H73.2881C74.7896 26.1682 76.0068 27.3854 76.0068 28.8867V74.9779C76.0068 75.6583 76.5584 76.21 77.2389 76.21Z" fill="white"/>
<path fill-rule="evenodd" clip-rule="evenodd" d="M8.76042 76.21C9.44089 76.21 9.99252 75.6583 9.99252 74.9779V28.8867C9.99252 27.3854 11.2097 26.1682 12.711 26.1682H28.5138C29.1942 26.1682 29.7459 25.6166 29.7459 24.9361C29.7459 24.2556 29.1942 23.704 28.5138 23.704H12.711C9.84875 23.704 7.52832 26.0244 7.52832 28.8867V74.9779C7.52832 75.6583 8.07995 76.21 8.76042 76.21Z" fill="white"/>
<path fill-rule="evenodd" clip-rule="evenodd" d="M0.944336 77.6117C0.944336 79.7469 2.675 81.4775 4.81017 81.4775H81.1896C83.3247 81.4775 85.0556 79.747 85.0556 77.6117V74.978C85.0556 74.2975 84.504 73.7459 83.8235 73.7459H24.564C23.8835 73.7459 23.3319 74.2975 23.3319 74.978C23.3319 75.6584 23.8835 76.2101 24.564 76.2101H82.5914V77.6117C82.5914 78.3858 81.9639 79.0133 81.1896 79.0133H4.81017C4.03594 79.0133 3.40853 78.3859 3.40853 77.6117V76.2101H19.2954C19.9758 76.2101 20.5275 75.6584 20.5275 74.978C20.5275 74.2975 19.9758 73.7459 19.2954 73.7459H2.17643C1.49597 73.7459 0.944336 74.2975 0.944336 74.978V77.6117Z" fill="white"/>
<path fill-rule="evenodd" clip-rule="evenodd" d="M37.708 44.0373C37.9345 44.391 38.3256 44.605 38.7456 44.605H47.2547C47.6747 44.605 48.0657 44.391 48.2922 44.0373C51.5396 38.9664 53.4505 32.8519 53.4505 26.2533C53.4505 17.0544 49.7513 8.78379 43.8645 2.98821C43.385 2.51607 42.6153 2.51607 42.1357 2.98822C36.2492 8.78378 32.5498 17.0544 32.5498 26.2533C32.5498 32.8519 34.4607 38.9664 37.708 44.0373ZM39.4286 42.1408C36.6456 37.5721 35.014 32.1261 35.014 26.2533C35.014 18.1848 38.0812 10.9133 43.0002 5.63287C47.9193 10.9133 50.9863 18.1848 50.9863 26.2533C50.9863 32.1261 49.3547 37.5721 46.5717 42.1408H39.4286Z" fill="white"/>
<path fill-rule="evenodd" clip-rule="evenodd" d="M36.761 49.3987C36.9945 49.6978 37.3527 49.8726 37.7321 49.8726H48.2672C48.6466 49.8726 49.0049 49.6978 49.2384 49.3987C49.4719 49.0997 49.5545 48.7097 49.4625 48.3416L48.1457 43.0742C48.0085 42.5257 47.5157 42.1409 46.9503 42.1409H39.049C38.4836 42.1409 37.9908 42.5257 37.8537 43.0742L36.5368 48.3416C36.4448 48.7097 36.5275 49.0997 36.761 49.3987ZM39.3102 47.4084L40.011 44.6051H45.9884L46.6892 47.4084H39.3102Z" fill="white"/>
<path fill-rule="evenodd" clip-rule="evenodd" d="M26.5756 47.0702C26.9539 47.291 27.4209 47.2945 27.8024 47.0792L37.1826 41.7865C37.7753 41.4521 37.9846 40.7006 37.6502 40.1079C37.3158 39.5153 36.5643 39.306 35.9717 39.6403L28.429 43.8963V42.1689C28.429 41.5331 28.652 40.9173 29.0592 40.4286C29.0592 40.4286 29.0591 40.4286 29.0592 40.4286L34.728 33.6261C35.1636 33.1034 35.093 32.3265 34.5702 31.8908C34.0475 31.4552 33.2706 31.5258 32.8349 32.0486L27.1661 38.8511C26.3902 39.7824 25.9648 40.9563 25.9648 42.1689V46.0062C25.9648 46.4442 26.1974 46.8493 26.5756 47.0702Z" fill="white"/>
<path fill-rule="evenodd" clip-rule="evenodd" d="M59.4243 47.0702C59.8025 46.8493 60.0351 46.4442 60.0351 46.0062V42.1689C60.0351 40.9563 59.6098 39.7825 58.8339 38.8512L58.8338 38.8511L53.165 32.0486C52.7294 31.5258 51.9524 31.4552 51.4297 31.8908C50.9069 32.3265 50.8363 33.1034 51.2719 33.6261L56.9407 40.4285C56.9407 40.4286 56.9407 40.4286 56.9407 40.4286C57.3479 40.9173 57.5709 41.5331 57.5709 42.1689V43.8963L50.0282 39.6403C49.4356 39.306 48.6841 39.5153 48.3497 40.1079C48.0153 40.7006 48.2246 41.4521 48.8173 41.7865L58.1975 47.0792C58.579 47.2945 59.046 47.291 59.4243 47.0702Z" fill="white"/>
<path fill-rule="evenodd" clip-rule="evenodd" d="M35.1836 14.4012C35.1836 15.0817 35.7352 15.6333 36.4157 15.6333H49.5845C50.265 15.6333 50.8166 15.0817 50.8166 14.4012C50.8166 13.7207 50.265 13.1691 49.5845 13.1691H36.4157C35.7352 13.1691 35.1836 13.7207 35.1836 14.4012Z" fill="white"/>
<path fill-rule="evenodd" clip-rule="evenodd" d="M69.9162 76.1589C70.5683 76.3531 71.2545 75.9819 71.4487 75.3297C71.7298 74.386 71.8867 73.3848 71.8867 72.3443C71.8867 66.5726 67.2079 61.894 61.4364 61.894C60.6388 61.894 59.8658 61.9874 59.1248 62.1579C57.8286 59.6647 55.2403 57.9432 52.2182 57.9432C51.2404 57.9432 50.3129 58.1288 49.4607 58.4593C49.1043 55.2065 46.3478 52.6757 43.0001 52.6757C39.6524 52.6757 36.8958 55.2065 36.5393 58.4593C35.6871 58.1288 34.7596 57.9432 33.7819 57.9432C30.7597 57.9432 28.1714 59.6647 26.8752 62.1579C26.1342 61.9874 25.3612 61.894 24.5636 61.894C18.7921 61.894 14.1133 66.5726 14.1133 72.3443C14.1133 73.3849 14.2704 74.3861 14.5512 75.3295C14.7453 75.9817 15.4314 76.3531 16.0836 76.1589C16.7358 75.9648 17.1071 75.2787 16.913 74.6265C16.6967 73.8999 16.5775 73.1354 16.5775 72.3443C16.5775 67.9336 20.153 64.3582 24.5636 64.3582C25.4739 64.3582 26.349 64.5187 27.174 64.8044C27.4836 64.9116 27.8231 64.891 28.1175 64.7474C28.4119 64.6037 28.637 64.3487 28.743 64.0388C29.4667 61.9225 31.4437 60.4074 33.7819 60.4074C35.0773 60.4074 36.2591 60.8894 37.2027 61.6822C37.6217 62.0343 38.2227 62.0678 38.6782 61.7644C39.1337 61.4611 39.3346 60.8936 39.1713 60.3713C39.0399 59.9511 38.9646 59.5615 38.9646 59.1753C38.9646 56.9466 40.7713 55.1399 43.0001 55.1399C45.2288 55.1399 47.0355 56.9465 47.0355 59.1753C47.0355 59.5615 46.9601 59.9511 46.8287 60.3713C46.6654 60.8936 46.8663 61.4611 47.3218 61.7644C47.7773 62.0678 48.3783 62.0343 48.7973 61.6822C49.7409 60.8894 50.9227 60.4074 52.2182 60.4074C54.5563 60.4074 56.5333 61.9225 57.257 64.0388C57.363 64.3487 57.5881 64.6037 57.8825 64.7474C58.1769 64.891 58.5164 64.9116 58.826 64.8044C59.651 64.5187 60.5261 64.3582 61.4364 64.3582C65.847 64.3582 69.4225 67.9336 69.4225 72.3443C69.4225 73.1355 69.3034 73.9 69.0871 74.6263C68.8928 75.2785 69.264 75.9646 69.9162 76.1589Z" fill="white"/>
<path fill-rule="evenodd" clip-rule="evenodd" d="M37.8174 24.9364C37.8174 27.7987 40.1378 30.1191 43.0002 30.1191C45.8625 30.1191 48.1829 27.7987 48.1829 24.9364C48.1829 22.0742 45.8625 19.7537 43.0002 19.7537C40.1378 19.7537 37.8174 22.0741 37.8174 24.9364ZM43.0002 27.6549C41.4987 27.6549 40.2816 26.4377 40.2816 24.9364C40.2816 23.4351 41.4987 22.2179 43.0002 22.2179C44.5016 22.2179 45.7188 23.4351 45.7188 24.9364C45.7188 26.4378 44.5016 27.6549 43.0002 27.6549Z" fill="white"/>
</g>
</svg>
