<svg width="45" height="45" viewBox="0 0 45 45" fill="none" xmlns="http://www.w3.org/2000/svg">
<circle cx="22.5" cy="22.5" r="22" stroke="url(#paint0_linear_3933_77748)"/>
<path d="M18 24V28M26 22V28M22 18V28M17.8 32H26.2C27.8802 32 28.7202 32 29.362 31.673C29.9265 31.3854 30.3854 30.9265 30.673 30.362C31 29.7202 31 28.8802 31 27.2V18.8C31 17.1198 31 16.2798 30.673 15.638C30.3854 15.0735 29.9265 14.6146 29.362 14.327C28.7202 14 27.8802 14 26.2 14H17.8C16.1198 14 15.2798 14 14.638 14.327C14.0735 14.6146 13.6146 15.0735 13.327 15.638C13 16.2798 13 17.1198 13 18.8V27.2C13 28.8802 13 29.7202 13.327 30.362C13.6146 30.9265 14.0735 31.3854 14.638 31.673C15.2798 32 16.1198 32 17.8 32Z" stroke="white" stroke-linecap="round" stroke-linejoin="round"/>
<defs>
<linearGradient id="paint0_linear_3933_77748" x1="0" y1="22.5" x2="38.1036" y2="22.5" gradientUnits="userSpaceOnUse">
<stop stop-color="#43D9BB"/>
<stop offset="1" stop-color="#0299ED"/>
</linearGradient>
</defs>
</svg>
