<svg width="634" height="434" viewBox="0 0 634 434" fill="none" xmlns="http://www.w3.org/2000/svg">
<g opacity="0.5">
<path d="M109.1 242.6C111.7 241 114.5 239.8 117.4 239L119.1 230.8L132.9 230.6L134.9 238.7C137.8 239.4 140.6 240.5 143.3 242L150.3 237.4L160.2 247L155.9 254.1C157.5 256.7 158.7 259.5 159.5 262.4L167.7 264.1L167.9 278L159.8 280C159.1 282.9 158 285.7 156.5 288.4L161.1 295.4L151.5 305.3L144.4 301C141.8 302.6 139 303.8 136.1 304.6L134.4 312.8L120.6 313L118.6 304.9C115.7 304.2 112.9 303.1 110.2 301.6L103.2 306.2L93.3001 296.6L97.6001 289.5C96.0001 286.9 94.8001 284.1 94.0001 281.2L85.8001 279.5L85.6001 265.7L93.7001 263.7C94.4001 260.8 95.5001 258 97.0001 255.3L92.4001 248.3L102 238.4L109.1 242.6ZM116.5 261C110.8 266.9 111 276.3 116.9 282C122.8 287.7 132.2 287.5 137.9 281.6C143.6 275.7 143.4 266.3 137.5 260.6C131.5 255 122.1 255.1 116.5 261Z" fill="#EBEBEB"/>
<path d="M15.7002 55.5C17.4002 54.5 19.1002 53.7001 20.9002 53.2001L22.0002 48L30.8002 47.8L32.1002 52.9001C33.9002 53.4001 35.7002 54 37.4002 55L41.8002 52.1L48.1002 58.2001L45.4002 62.7001C46.4002 64.4001 47.2002 66.1001 47.7002 67.9001L52.9002 69L53.1002 77.8001L48.0002 79.1C47.5002 80.9 46.9002 82.7001 45.9002 84.4001L48.8002 88.8001L42.7002 95.1L38.2002 92.4001C36.5002 93.4001 34.8002 94.2 33.0002 94.7L31.9002 99.9001L23.1002 100.1L21.7002 95C19.9002 94.5 18.1002 93.9001 16.4002 92.9001L11.9002 95.8001L5.60019 89.7L8.30019 85.2C7.30019 83.5 6.5002 81.8 6.0002 80L0.900195 78.8001L0.700195 70L5.9002 68.8001C6.4002 67.0001 7.1002 65.2001 8.0002 63.5L5.10019 59.1L11.2002 52.8L15.7002 55.5ZM20.3002 67.2C16.7002 70.9 16.8002 76.9 20.5002 80.5C24.2002 84.1 30.2002 84.0001 33.8002 80.3001C37.4002 76.6001 37.3002 70.6 33.6002 67C29.9002 63.3 24.0002 63.4 20.3002 67.2Z" fill="#E0E0E0"/>
<path d="M570.8 59.6999C573 58.3999 575.4 57.2999 577.9 56.5999L579.4 49.5999L591.2 49.3999L592.9 56.2999C595.4 56.8999 597.8 57.7999 600.1 59.0999L606.1 55.1999L614.6 63.3999L610.9 69.4999C612.2 71.6999 613.3 74.0999 614 76.5999L621 78.0999L621.2 89.8999L614.3 91.5999C613.7 94.0999 612.8 96.4999 611.5 98.7999L615.4 104.8L607.2 113.3L601.1 109.6C598.9 110.9 596.5 112 594 112.7L592.5 119.7L580.7 119.9L579 113C576.5 112.4 574.1 111.5 571.8 110.2L565.8 114.1L557.3 105.9L561 99.7999C559.7 97.5999 558.6 95.1999 557.9 92.6999L550.9 91.1999L550.7 79.3999L557.6 77.6999C558.2 75.1999 559.1 72.7999 560.4 70.4999L556.5 64.4999L564.7 55.9999L570.8 59.6999ZM577.1 75.3999C572.2 80.3999 572.4 88.3999 577.4 93.2999C582.4 98.1999 590.4 97.9999 595.3 92.9999C600.2 87.9999 600 79.9999 595 75.0999C590 70.1999 581.9 70.3999 577.1 75.3999Z" fill="#E0E0E0"/>
<path d="M404 247.2C405.9 246 408 245.2 410.1 244.6L411.4 238.6L421.6 238.4L423.1 244.4C425.2 244.9 427.3 245.7 429.3 246.8L434.5 243.4L441.8 250.5L438.6 255.8C439.8 257.7 440.6 259.8 441.2 261.9L447.2 263.2L447.4 273.4L441.4 274.9C440.9 277 440.1 279.1 439 281.1L442.4 286.3L435.3 293.6L430 290.4C428.1 291.6 426 292.4 423.9 293L422.6 299L412.4 299.2L410.9 293.2C408.8 292.7 406.7 291.9 404.7 290.8L399.5 294.2L392.2 287.1L395.4 281.8C394.2 279.9 393.4 277.8 392.8 275.7L386.8 274.4L386.6 264.2L392.6 262.7C393.1 260.6 393.9 258.5 395 256.5L391.6 251.3L398.7 244L404 247.2ZM409.4 260.8C405.2 265.1 405.3 272.1 409.7 276.3C414 280.5 421 280.4 425.2 276C429.4 271.7 429.3 264.7 424.9 260.5C420.6 256.3 413.6 256.4 409.4 260.8Z" fill="#F5F5F5"/>
<path d="M613.3 20.4999C614.2 19.9999 615.1 19.5999 616.1 19.2999L616.7 16.4999L621.4 16.3999L622.1 19.0999C623.1 19.2999 624 19.6999 624.9 20.1999L627.3 18.6999L630.7 21.8999L629.2 24.2999C629.7 25.1999 630.1 26.0999 630.4 27.0999L633.2 27.6999L633.3 32.3999L630.6 33.0999C630.4 34.0999 630 34.9999 629.5 35.8999L631 38.2999L627.8 41.6999L625.4 40.1999C624.5 40.6999 623.6 41.0999 622.6 41.3999L622 44.1999L617.3 44.2999L616.6 41.5999C615.6 41.3999 614.7 40.9999 613.8 40.4999L611.4 41.9999L608 38.7999L609.5 36.3999C609 35.4999 608.6 34.5999 608.3 33.5999L605.5 32.9999L605.4 28.2999L608.1 27.5999C608.3 26.5999 608.7 25.6999 609.2 24.7999L607.7 22.3999L610.9 18.9999L613.3 20.4999ZM615.8 26.6999C613.9 28.6999 613.9 31.7999 615.9 33.7999C617.9 35.6999 621 35.6999 623 33.6999C624.9 31.6999 624.9 28.5999 622.9 26.5999C620.9 24.5999 617.7 24.6999 615.8 26.6999Z" fill="#E0E0E0"/>
<path d="M607.7 165.6C608.6 165.1 609.5 164.7 610.5 164.4L611.1 161.6L615.8 161.5L616.5 164.2C617.5 164.4 618.4 164.8 619.3 165.3L621.7 163.8L625.1 167L623.6 169.4C624.1 170.3 624.5 171.2 624.8 172.2L627.6 172.8L627.7 177.5L625 178.2C624.8 179.2 624.4 180.1 623.9 181L625.4 183.4L622.2 186.8L619.8 185.3C618.9 185.8 618 186.2 617 186.5L616.4 189.3L611.7 189.4L611 186.7C610 186.5 609.1 186.1 608.2 185.6L605.8 187.1L602.4 183.9L603.9 181.5C603.4 180.6 603 179.7 602.7 178.7L599.9 178L599.8 173.3L602.5 172.6C602.7 171.6 603.1 170.7 603.6 169.8L602.1 167.4L605.3 164L607.7 165.6ZM610.2 171.8C608.3 173.8 608.3 176.9 610.3 178.9C612.3 180.8 615.4 180.8 617.4 178.8C619.3 176.8 619.3 173.7 617.3 171.7C615.3 169.8 612.1 169.9 610.2 171.8Z" fill="#F5F5F5"/>
<path d="M133.9 343C135.1 342.3 136.4 341.7 137.7 341.4L138.5 337.7L144.8 337.6L145.7 341.3C147 341.6 148.3 342.1 149.5 342.8L152.7 340.7L157.2 345.1L155.2 348.4C155.9 349.6 156.5 350.9 156.8 352.2L160.5 353L160.6 359.3L156.9 360.2C156.6 361.5 156.1 362.8 155.4 364L157.5 367.2L153.1 371.7L149.8 369.7C148.6 370.4 147.3 371 146 371.3L145.2 375L138.9 375.1L138 371.4C136.7 371.1 135.4 370.6 134.2 369.9L131 372L126.5 367.6L128.5 364.3C127.8 363.1 127.2 361.8 126.9 360.5L123.2 359.7L123.1 353.4L126.8 352.5C127.1 351.2 127.6 349.9 128.3 348.7L126.2 345.5L130.6 341L133.9 343ZM137.3 351.5C134.7 354.2 134.8 358.5 137.5 361.1C140.2 363.7 144.5 363.6 147.1 360.9C149.7 358.2 149.6 353.9 146.9 351.3C144.2 348.7 139.9 348.8 137.3 351.5Z" fill="#F5F5F5"/>
<path d="M596.5 222.3C596.8 243.2 580.2 260.4 559.5 260.7C538.7 261 521.6 244.3 521.3 223.5C521 202.6 537.6 185.4 558.3 185.1C579 184.8 596.2 201.5 596.5 222.3ZM540.9 223.2C541.1 233.2 549.3 241.2 559.2 241C569.1 240.8 577.1 232.6 576.9 222.6C576.7 212.6 568.5 204.6 558.6 204.8C548.7 205 540.7 213.3 540.9 223.2Z" fill="#F5F5F5"/>
<path d="M596.5 222.3C596.8 243.2 580.2 260.4 559.5 260.7L559.2 241C569.1 240.8 577.1 232.6 576.9 222.6C576.7 212.6 568.5 204.6 558.6 204.8L558.3 185.1C579 184.8 596.2 201.5 596.5 222.3Z" fill="#455A64"/>
<path d="M540.899 223.2C540.899 223.2 540.899 223.1 540.899 222.9C540.899 222.7 540.899 222.4 540.899 222C540.899 221.6 540.899 221.2 540.999 220.6C541.099 220 541.099 219.4 541.299 218.7C541.599 217.3 542.199 215.6 543.199 213.8C544.199 212 545.699 210.1 547.699 208.5C549.699 206.9 552.299 205.5 555.299 204.9C558.299 204.3 561.699 204.3 564.899 205.5C566.499 206 568.099 206.9 569.599 207.9C570.399 208.4 570.999 209 571.699 209.6C572.299 210.3 572.999 210.9 573.499 211.7C575.799 214.7 577.099 218.5 577.199 222.5C577.199 226.5 575.999 230.3 573.799 233.4C573.299 234.2 572.699 234.9 571.999 235.6C571.299 236.2 570.699 236.9 569.999 237.4C568.599 238.5 566.999 239.4 565.399 240C562.199 241.3 558.799 241.4 555.799 240.9C552.799 240.4 550.199 239.1 548.099 237.6C545.999 236 544.499 234.2 543.399 232.5C542.399 230.7 541.699 229.1 541.399 227.7C541.199 227 541.099 226.4 540.999 225.8C540.899 225.3 540.899 224.8 540.899 224.4C540.899 224 540.899 223.8 540.899 223.5C540.899 223.3 540.899 223.2 540.899 223.2C540.999 223.2 540.899 224.8 541.599 227.6C541.899 229 542.599 230.6 543.699 232.3C544.799 234 546.299 235.8 548.299 237.3C550.299 238.8 552.899 240 555.899 240.5C558.799 241 562.099 240.8 565.199 239.6C566.799 239 568.299 238.2 569.699 237.1C570.399 236.6 570.999 236 571.699 235.3C572.299 234.6 572.899 234 573.399 233.2C575.499 230.2 576.699 226.5 576.699 222.6C576.599 218.7 575.299 215 573.099 212.1C572.599 211.4 571.899 210.7 571.299 210.1C570.599 209.5 569.999 208.9 569.299 208.4C567.899 207.4 566.399 206.6 564.799 206C561.599 204.8 558.399 204.8 555.399 205.4C552.499 206 549.899 207.3 547.999 208.9C545.999 210.5 544.499 212.3 543.499 214C542.499 215.8 541.899 217.4 541.599 218.8C540.799 221.6 540.999 223.2 540.899 223.2Z" fill="#263238"/>
<path d="M596.5 222.3C596.5 222.3 596.5 222.1 596.4 221.7C596.4 221.3 596.3 220.7 596.3 219.9C596.3 219.5 596.2 219.1 596.2 218.6C596.1 218.1 596 217.6 595.9 217C595.7 215.9 595.5 214.5 595.1 213.1C594.4 210.2 593 206.8 590.8 203.2C588.6 199.6 585.4 195.8 581.1 192.7C576.8 189.6 571.4 186.9 565.2 185.9C563.6 185.7 562.1 185.4 560.5 185.4C559.7 185.4 558.9 185.3 558.1 185.3C557.3 185.4 556.5 185.4 555.6 185.5C555.2 185.5 554.8 185.5 554.3 185.6L553.1 185.8C552.3 186 551.4 186.1 550.6 186.3C549 186.8 547.2 187.2 545.6 187.9C543.9 188.5 542.4 189.3 540.8 190.1C540 190.6 539.3 191.1 538.5 191.5C537.7 192 537 192.5 536.3 193.1C534.8 194.2 533.5 195.5 532.1 196.8C531.5 197.5 530.9 198.2 530.2 198.9L529.7 199.4L529.3 200L528.5 201.2L527.7 202.4L527 203.6L526.3 204.9L525.9 205.5L525.6 206.2C525.2 207.1 524.8 208 524.4 208.9C524.1 209.8 523.8 210.8 523.4 211.7C522.2 215.5 521.7 219.5 521.7 223.6C521.8 227.7 522.5 231.7 523.8 235.4C524.2 236.3 524.5 237.2 524.9 238.2C525.3 239.1 525.8 240 526.2 240.8L526.5 241.5L526.9 242.1L527.7 243.3L528.5 244.5L529.4 245.6L530.3 246.7L530.7 247.3L531.2 247.8C531.8 248.5 532.5 249.2 533.1 249.9C534.5 251.1 535.9 252.4 537.4 253.5C538.1 254 538.9 254.6 539.7 255C540.5 255.5 541.3 255.9 542.1 256.4C543.7 257.2 545.3 258 547 258.5C548.6 259.2 550.4 259.5 552 259.9C552.8 260.1 553.7 260.1 554.5 260.3L555.8 260.5C556.2 260.6 556.6 260.5 557.1 260.6C557.9 260.6 558.8 260.7 559.6 260.7C560.4 260.7 561.2 260.6 562 260.6C563.6 260.6 565.2 260.2 566.7 260C572.9 258.8 578.2 256 582.4 252.7C586.6 249.4 589.6 245.5 591.7 241.9C593.8 238.2 595.1 234.7 595.7 231.8C596.1 230.4 596.3 229 596.4 227.9C596.5 227.3 596.6 226.8 596.6 226.3C596.6 225.8 596.6 225.4 596.7 225C596.7 224.2 596.8 223.6 596.8 223.2C596.5 222.5 596.5 222.3 596.5 222.3C596.5 222.3 596.5 222.5 596.5 222.9C596.5 223.3 596.5 223.9 596.5 224.7C596.5 225.1 596.5 225.5 596.5 226C596.5 226.5 596.4 227 596.3 227.6C596.2 228.7 596 230.1 595.6 231.5C595 234.4 593.7 237.9 591.7 241.7C589.6 245.4 586.5 249.3 582.3 252.7C578.1 256 572.7 258.9 566.5 260.1C564.9 260.4 563.4 260.7 561.7 260.8C560.9 260.8 560.1 260.9 559.2 260.9C558.4 260.9 557.5 260.8 556.7 260.8C556.3 260.8 555.9 260.8 555.4 260.7L554.1 260.5C553.3 260.4 552.4 260.3 551.5 260.1C549.8 259.7 548.1 259.4 546.4 258.7C544.7 258.2 543.1 257.4 541.4 256.6C540.6 256.2 539.8 255.7 539 255.2C538.2 254.8 537.4 254.2 536.7 253.7C535.1 252.7 533.8 251.4 532.3 250.1C531.6 249.4 531 248.7 530.3 248L529.8 247.5L529.4 246.9L528.5 245.7L527.6 244.5L526.8 243.3L526 242.1L525.6 241.5L525.3 240.8C524.9 239.9 524.4 239 524 238.1C523.6 237.2 523.3 236.2 522.9 235.3C521.6 231.5 520.9 227.5 520.8 223.3C520.8 219.2 521.4 215.1 522.6 211.3C522.9 210.4 523.3 209.4 523.6 208.5C524 207.6 524.4 206.7 524.8 205.8L525.1 205.1L525.5 204.5L526.2 203.2L526.9 201.9L527.8 200.7L528.6 199.5L529 198.9L529.5 198.4C530.1 197.7 530.8 197 531.4 196.2C532.8 194.9 534.1 193.5 535.6 192.5C536.3 191.9 537.1 191.3 537.9 190.9C538.7 190.4 539.4 189.9 540.2 189.4C541.8 188.6 543.4 187.7 545.1 187.1C546.7 186.4 548.5 186 550.1 185.5C550.9 185.3 551.8 185.2 552.6 185L553.9 184.8C554.3 184.7 554.7 184.7 555.2 184.7C556 184.6 556.9 184.6 557.7 184.5C558.5 184.5 559.4 184.5 560.2 184.6C561.8 184.6 563.4 184.9 565 185.1C571.3 186.1 576.7 188.8 581 192C585.3 195.2 588.5 199 590.7 202.7C592.9 206.4 594.3 209.8 595 212.7C595.4 214.1 595.6 215.5 595.8 216.6C595.9 217.2 596 217.7 596 218.2C596 218.7 596.1 219.1 596.1 219.5C596.1 220.3 596.2 220.9 596.2 221.3C596.5 222.1 596.5 222.3 596.5 222.3Z" fill="#263238"/>
<path d="M562.9 263.8C538.6 264.2 519.2 245.3 518.9 220.9L541.9 220.5C542.1 232.2 551 239.5 562.6 239.3L562.9 263.8Z" fill="url(#paint0_linear_3959_72681)"/>
<path d="M562.9 263.8C562.9 263.8 562.9 263.6 562.9 263.3C562.9 263 562.9 262.6 562.9 262C562.9 260.8 562.8 259.2 562.8 257.1C562.7 252.9 562.6 246.8 562.4 239.3L562.6 239.5C560.4 239.5 558 239.3 555.7 238.7C553.3 238.1 551 237 548.8 235.4C546.7 233.8 544.9 231.6 543.6 229.1C542.3 226.5 541.7 223.6 541.6 220.6L541.9 220.8C536.3 220.9 530.3 221 524.1 221.1C522.3 221.1 520.6 221.2 518.9 221.2L519.2 220.9C519.3 225.7 520.2 230.3 521.5 234.5C521.9 235.5 522.3 236.6 522.7 237.6C523.1 238.6 523.6 239.6 524.1 240.5C524.5 241.5 525.1 242.4 525.7 243.3C526.3 244.2 526.7 245.1 527.4 245.9C528 246.7 528.6 247.5 529.2 248.3C529.8 249.1 530.5 249.8 531.2 250.5C531.5 250.9 531.9 251.2 532.2 251.6C532.6 251.9 532.9 252.2 533.3 252.5C534 253.1 534.7 253.7 535.4 254.3C538.3 256.5 541.1 258.3 543.9 259.6C544.6 259.9 545.3 260.2 545.9 260.5C546.6 260.8 547.3 261 547.9 261.2C548.6 261.4 549.2 261.6 549.8 261.9C550.4 262.1 551 262.2 551.6 262.4C552.2 262.5 552.8 262.7 553.3 262.8C553.6 262.9 553.8 262.9 554.1 263C554.4 263 554.6 263.1 554.9 263.1C555.9 263.2 556.9 263.4 557.7 263.5C558.5 263.7 559.3 263.6 559.9 263.7C560.5 263.7 561.1 263.8 561.6 263.8C562 263.8 562.4 263.8 562.6 263.9C562.7 263.8 562.9 263.8 562.9 263.8C562.9 263.8 562.8 263.8 562.6 263.8C562.3 263.8 562 263.8 561.6 263.8C561.1 263.8 560.6 263.8 559.9 263.8C559.2 263.8 558.5 263.8 557.6 263.7C556.7 263.6 555.8 263.5 554.8 263.3C554.5 263.3 554.3 263.2 554 263.2C553.7 263.1 553.5 263.1 553.2 263C552.6 262.9 552.1 262.7 551.5 262.6C550.9 262.5 550.3 262.3 549.7 262.2C549.1 262 548.4 261.8 547.8 261.6C547.1 261.4 546.5 261.2 545.8 260.9C545.1 260.6 544.4 260.3 543.7 260C540.9 258.8 538 256.9 535.1 254.7C534.4 254.1 533.7 253.5 533 252.9C532.6 252.6 532.3 252.3 531.9 252C531.6 251.7 531.2 251.3 530.9 250.9C530.2 250.2 529.5 249.5 528.9 248.7C528.3 247.9 527.7 247.1 527 246.3C526.3 245.5 525.8 244.6 525.3 243.7C524.7 242.8 524.2 241.9 523.7 240.9C523.2 239.9 522.7 239 522.3 237.9C521.9 236.9 521.5 235.8 521.1 234.8C519.7 230.5 518.9 225.9 518.7 221.1V220.8H519C520.6 220.8 522.4 220.7 524.2 220.7C530.4 220.6 536.4 220.5 542 220.4H542.3V220.7C542.3 223.6 543 226.5 544.2 229C545.4 231.5 547.2 233.6 549.2 235.2C551.3 236.8 553.6 237.9 555.9 238.5C558.2 239.1 560.5 239.4 562.7 239.4H562.9V239.6C563 247.1 563 253.2 563.1 257.5C563.1 259.6 563.1 261.2 563.1 262.4C563.1 262.9 563.1 263.3 563.1 263.7C562.9 263.7 562.9 263.8 562.9 263.8Z" fill="#263238"/>
<path d="M582.5 5.30005H383.3V154.2H582.5V5.30005Z" fill="white"/>
<path d="M582.5 5.30005H383.3V23.7001H582.5V5.30005Z" fill="#E0E0E0"/>
<path d="M394.2 17.2C395.691 17.2 396.9 15.9912 396.9 14.5C396.9 13.0089 395.691 11.8 394.2 11.8C392.709 11.8 391.5 13.0089 391.5 14.5C391.5 15.9912 392.709 17.2 394.2 17.2Z" fill="white"/>
<path d="M403.2 17.2C404.691 17.2 405.9 15.9912 405.9 14.5C405.9 13.0089 404.691 11.8 403.2 11.8C401.709 11.8 400.5 13.0089 400.5 14.5C400.5 15.9912 401.709 17.2 403.2 17.2Z" fill="white"/>
<path d="M412.1 17.2C413.591 17.2 414.8 15.9912 414.8 14.5C414.8 13.0089 413.591 11.8 412.1 11.8C410.609 11.8 409.4 13.0089 409.4 14.5C409.4 15.9912 410.609 17.2 412.1 17.2Z" fill="white"/>
<path d="M582.6 154.2C582.6 154.2 582.6 153.3 582.6 151.5C582.6 149.7 582.6 147.1 582.6 143.6C582.6 136.7 582.6 126.5 582.5 113.5C582.5 87.5 582.4 50.3 582.4 5.3L582.6 5.5C526.4 5.5 457.6 5.5 383.4 5.5L383.7 5.2C383.7 58.7 383.7 109.4 383.7 154.1L383.5 153.9C442.5 153.9 492.3 154 527.3 154C544.8 154 558.7 154 568.1 154.1C572.8 154.1 576.5 154.1 578.9 154.1C580.1 154.1 581.1 154.1 581.7 154.1C582.2 154.2 582.6 154.2 582.6 154.2C582.6 154.2 582.3 154.2 581.7 154.2C581.1 154.2 580.1 154.2 578.9 154.2C576.4 154.2 572.8 154.2 568.1 154.2C558.6 154.2 544.8 154.2 527.3 154.3C492.2 154.3 442.4 154.4 383.3 154.4H383.1V154.2C383.1 109.5 383.1 58.8 383.1 5.3V5H383.4C457.6 5 526.4 5 582.6 5H582.8V5.2C582.8 50.3 582.7 87.6 582.7 113.6C582.7 126.6 582.7 136.7 582.6 143.6C582.6 147 582.6 149.7 582.6 151.5C582.6 153.3 582.6 154.2 582.6 154.2Z" fill="#263238"/>
<path d="M571.6 95.1C571.6 95.2 531.9 95.4 483 95.4C434.1 95.4 394.4 95.3 394.4 95.1C394.4 95 434 94.8 483 94.8C531.9 94.8 571.6 94.9 571.6 95.1Z" fill="#E0E0E0"/>
<path d="M571.6 79.8C571.6 79.9 531.9 80.1 483 80.1C434.1 80.1 394.4 80 394.4 79.8C394.4 79.7 434 79.5 483 79.5C531.9 79.5 571.6 79.6 571.6 79.8Z" fill="#E0E0E0"/>
<path d="M571.6 64.5C571.6 64.6 531.9 64.8 483 64.8C434.1 64.8 394.4 64.7 394.4 64.5C394.4 64.4 434 64.2 483 64.2C531.9 64.2 571.6 64.3 571.6 64.5Z" fill="#E0E0E0"/>
<path d="M571.6 49.1999C571.6 49.2999 531.9 49.4999 483 49.4999C434.1 49.4999 394.4 49.3999 394.4 49.1999C394.4 49.0999 434 48.8999 483 48.8999C531.9 48.8999 571.6 49.0999 571.6 49.1999Z" fill="#E0E0E0"/>
<path d="M559.1 94.5C555.6 86.2 553.3 77.1 550.6 68.4C548.3 60.9 548.1 57.4 546.1 51C543 41 534.7 39.9 528.7 42.6C523.4 45 521.1 51.3 519.3 56.9C517.2 63.7 515.1 70.4 512.9 77.2C511.9 80.4 510.9 83.7 509 86.4C507.2 89.2 504.3 91.5 501.1 91.9C495.7 92.6 490.8 88.1 488.5 83.1C486.2 78.1 485.5 72.4 483.5 67.3C481.5 62.2 477.2 57.3 471.7 57.2C465 57.1 460.4 63.9 457.6 70.1C454.1 77.9 451.2 86 449.1 94.3C448.4 97.1 447.7 100 446.3 102.6C444.9 105.1 442.5 107.3 439.6 107.7C435.9 108.2 432.5 105.5 430.3 102.4C428.2 99.3 426.8 95.7 424.6 92.7C422.4 89.7 418.9 87.1 415.2 87.8C411.9 88.4 409.6 91.3 407.6 94C402.3 101.4 397.8 109.4 394 117.7H577.2C569 114.9 562.6 102.8 559.1 94.5Z" fill="url(#paint1_linear_3959_72681)"/>
<path d="M445.7 129.8H437V138.5H445.7V129.8Z" fill="url(#paint2_linear_3959_72681)"/>
<path d="M499.8 134.1H454.7C454.2 134.1 453.7 133.7 453.7 133.1C453.7 132.6 454.1 132.1 454.7 132.1H499.8C500.3 132.1 500.8 132.5 500.8 133.1C500.8 133.6 500.4 134.1 499.8 134.1Z" fill="#263238"/>
<path d="M569.5 117.8C569.5 117.8 569.3 117.8 568.8 117.8C568.3 117.8 567.7 117.8 566.9 117.8C565.2 117.8 562.7 117.8 559.5 117.8C553 117.8 543.7 117.8 532.1 117.9C509 117.9 477.1 117.9 441.8 118C424.9 118 408.8 118 394.2 118H394V117.8C394 94.3 394.1 74.3 394.1 60.2001C394.1 53.1 394.2 47.5001 394.2 43.7001C394.2 41.8001 394.2 40.3 394.2 39.3C394.2 38.8 394.2 38.4001 394.2 38.2001C394.2 37.9001 394.2 37.8 394.2 37.8C394.2 37.8 394.2 37.9001 394.2 38.2001C394.2 38.5001 394.2 38.8 394.2 39.3C394.2 40.3 394.2 41.8001 394.2 43.7001C394.2 47.6 394.2 53.2001 394.3 60.2001C394.3 74.4001 394.4 94.4 394.4 117.8L394.2 117.6C408.9 117.6 424.9 117.6 441.8 117.6C477 117.6 508.9 117.7 532.1 117.7C543.6 117.7 553 117.8 559.5 117.8C562.7 117.8 565.2 117.8 566.9 117.8C567.7 117.8 568.4 117.8 568.8 117.8C569.3 117.8 569.5 117.8 569.5 117.8Z" fill="#263238"/>
<g opacity="0.3">
<path d="M548 57.8L482.9 117.8H515.5L554.6 81.5L548 57.8Z" fill="white"/>
</g>
<g opacity="0.3">
<path d="M490.7 86.6L454.9 117.8H445.7L487.9 81.5L491.6 87.8" fill="white"/>
</g>
<path d="M394.2 117.8C394.2 117.8 396 113.4 400.2 105.8C402.3 102.1 405.1 97.4999 408.7 92.5999C409.6 91.3999 410.7 90.1999 412 89.1999C413.3 88.1999 415 87.5999 416.8 87.5999C418.6 87.6999 420.3 88.3999 421.8 89.5999C423.3 90.6999 424.6 92.1999 425.6 93.7999C427.7 96.9999 429.1 101 431.9 104.1C433.3 105.6 435.1 106.9 437.1 107.5C438.1 107.7 439.2 107.8 440.3 107.5C441.4 107.3 442.4 106.8 443.2 106.1C445 104.8 446.3 102.8 447.1 100.6C448 98.3999 448.5 96.0999 449.1 93.7999C450.3 89.0999 451.8 84.3999 453.6 79.5999C454.5 77.1999 455.4 74.7999 456.5 72.3999C457.5 69.9999 458.6 67.5999 460.1 65.2999C461.5 62.9999 463.2 60.7999 465.5 59.1999C466.6 58.3999 467.9 57.6999 469.3 57.3999C470.7 57.0999 472.1 56.9999 473.5 57.2999C476.3 57.7999 478.8 59.5999 480.6 61.7999C482.4 63.9999 483.8 66.5999 484.6 69.3999C485.5 72.0999 486.2 74.9999 486.9 77.6999C487.7 80.4999 488.6 83.2999 490.3 85.6999C491.9 88.0999 494.1 90.1999 496.7 91.2999C499.3 92.3999 502.4 92.0999 504.8 90.5999C507.2 89.0999 509 86.7999 510.2 84.3999C511.4 81.8999 512.2 79.1999 513.1 76.5999C514.8 71.2999 516.4 66.0999 518 60.9999C518.8 58.4999 519.5 55.8999 520.5 53.4999C521.4 50.9999 522.5 48.6999 524.1 46.5999C524.9 45.5999 525.8 44.5999 526.8 43.8999C527.8 43.0999 529 42.5999 530.2 42.1999C531.4 41.7999 532.6 41.5999 533.9 41.4999C535.1 41.3999 536.4 41.4999 537.6 41.7999C540 42.3999 542.1 43.7999 543.6 45.6999C545.1 47.4999 546.1 49.6999 546.7 51.8999C548 56.2999 548.8 60.5999 549.9 64.5999C550.4 66.5999 551 68.5999 551.6 70.4999C552.2 72.3999 552.7 74.2999 553.3 76.1999C555.5 83.5999 557.5 90.2999 560 95.8999C562.4 101.5 565 106.1 567.6 109.6C570.2 113.1 572.7 115.3 574.6 116.5C575.6 117.1 576.3 117.5 576.9 117.7C577.4 117.9 577.7 118.1 577.7 118.1C577.7 118.1 577.4 118 576.9 117.8C576.3 117.6 575.6 117.2 574.6 116.6C572.7 115.4 570.1 113.2 567.5 109.7C564.9 106.3 562.3 101.6 559.8 95.9999C557.3 90.3999 555.2 83.6999 553 76.2999C552.4 74.4999 551.9 72.5999 551.3 70.5999C550.7 68.6999 550.1 66.6999 549.6 64.6999C548.5 60.5999 547.8 56.2999 546.4 51.9999C545.7 49.8999 544.8 47.6999 543.4 45.8999C542 44.0999 539.9 42.7999 537.6 42.1999C536.4 41.9999 535.2 41.7999 534 41.8999C532.8 41.9999 531.6 42.1999 530.4 42.5999C528.1 43.3999 526 44.8999 524.5 46.8999C523 48.8999 521.9 51.2999 521 53.6999C520.1 56.0999 519.4 58.6999 518.6 61.1999C517 66.2999 515.4 71.4999 513.7 76.7999C512.9 79.3999 512.1 82.0999 510.8 84.6999C509.5 87.1999 507.7 89.5999 505.2 91.1999C503.9 91.8999 502.5 92.4999 501 92.5999C499.5 92.6999 498 92.4999 496.6 91.8999C493.8 90.7999 491.6 88.5999 490 86.0999C488.3 83.5999 487.4 80.7999 486.6 77.9999C485.8 75.1999 485.2 72.3999 484.3 69.6999C483.4 66.9999 482.1 64.3999 480.4 62.2999C478.6 60.1999 476.3 58.4999 473.6 57.9999C472.3 57.6999 470.9 57.7999 469.6 58.0999C468.3 58.3999 467.1 59.0999 466 59.7999C463.8 61.3999 462.1 63.4999 460.7 65.6999C459.3 67.8999 458.2 70.2999 457.2 72.6999C456.2 75.0999 455.2 77.4999 454.3 79.8999C452.5 84.6999 451 89.3999 449.8 94.0999C449.2 96.3999 448.7 98.7999 447.8 101C446.9 103.2 445.6 105.2 443.8 106.6C442.9 107.3 441.8 107.8 440.7 108.1C439.6 108.4 438.4 108.3 437.3 108.1C435.1 107.5 433.3 106.2 431.9 104.6C429 101.4 427.7 97.4999 425.6 94.1999C424.6 92.5999 423.4 91.1999 421.9 90.0999C420.5 88.9999 418.8 88.2999 417.1 88.1999C415.4 88.0999 413.8 88.6999 412.5 89.6999C411.2 90.5999 410.1 91.7999 409.2 92.9999C405.6 97.8999 402.8 102.4 400.6 106.1C398.4 109.8 396.9 112.8 395.9 114.9C395.4 115.9 395 116.7 394.8 117.2C394.4 117.5 394.2 117.8 394.2 117.8Z" fill="#263238"/>
<path d="M316.2 210.2H137V317.9H316.2V210.2Z" fill="white"/>
<path d="M316.2 210.2H137V226.8H316.2V210.2Z" fill="#E0E0E0"/>
<path d="M149.2 218.5C149.2 219.8 148.1 220.9 146.8 220.9C145.5 220.9 144.4 219.8 144.4 218.5C144.4 217.2 145.5 216.1 146.8 216.1C148.1 216.1 149.2 217.2 149.2 218.5Z" fill="white"/>
<path d="M157.2 218.5C157.2 219.8 156.1 220.9 154.8 220.9C153.5 220.9 152.4 219.8 152.4 218.5C152.4 217.2 153.5 216.1 154.8 216.1C156.2 216.1 157.2 217.2 157.2 218.5Z" fill="white"/>
<path d="M165.3 218.5C165.3 219.8 164.2 220.9 162.9 220.9C161.6 220.9 160.5 219.8 160.5 218.5C160.5 217.2 161.6 216.1 162.9 216.1C164.2 216.1 165.3 217.2 165.3 218.5Z" fill="white"/>
<path d="M316.2 317.9C316.2 317.9 316.2 317.2 316.2 316C316.2 314.7 316.2 312.8 316.2 310.4C316.2 305.4 316.2 298.2 316.1 288.8C316.1 270.1 316 243.2 316 210.2L316.2 210.4C267.8 210.4 205.2 210.4 137 210.5L137.3 210.2C137.3 248.4 137.3 284.8 137.3 317.9L137.1 317.7C189.7 317.7 234.4 317.8 266.1 317.8C281.9 317.8 294.5 317.9 303.1 317.9C307.4 317.9 310.7 317.9 313 317.9C314.1 317.9 315 317.9 315.5 317.9C315.9 317.9 316.2 317.9 316.2 317.9C316.2 317.9 315.9 317.9 315.4 317.9C314.8 317.9 314 317.9 312.9 317.9C310.7 317.9 307.4 317.9 303.1 317.9C294.5 317.9 282 317.9 266.2 318C234.5 318 189.7 318.1 137.1 318.1H136.9V317.9C136.9 284.8 136.9 248.3 136.9 210.2V210H137.2C205.4 210 268 210 316.4 210.1H316.6V210.3C316.6 243.3 316.5 270.3 316.5 289C316.5 298.3 316.5 305.6 316.4 310.5C316.4 313 316.4 314.8 316.4 316.1C316.2 317.3 316.2 317.9 316.2 317.9Z" fill="#263238"/>
<path d="M164.2 244.9H156.6V300.7H164.2V244.9Z" fill="url(#paint3_linear_3959_72681)"/>
<path d="M178.9 263.9H171.3V300.7H178.9V263.9Z" fill="url(#paint4_linear_3959_72681)"/>
<path d="M193.6 251.8H186V300.9H193.6V251.8Z" fill="url(#paint5_linear_3959_72681)"/>
<path d="M208.3 247.1H200.7V300.7H208.3V247.1Z" fill="url(#paint6_linear_3959_72681)"/>
<path d="M223.1 265H215.5V300.7H223.1V265Z" fill="url(#paint7_linear_3959_72681)"/>
<path d="M237.8 272H230.2V300.7H237.8V272Z" fill="url(#paint8_linear_3959_72681)"/>
<path d="M252.5 250.6H244.9V300.7H252.5V250.6Z" fill="url(#paint9_linear_3959_72681)"/>
<path d="M267.2 259.7H259.6V300.7H267.2V259.7Z" fill="url(#paint10_linear_3959_72681)"/>
<path d="M281.9 252.5H274.3V300.7H281.9V252.5Z" fill="url(#paint11_linear_3959_72681)"/>
<path d="M296.6 267.8H289V300.7H296.6V267.8Z" fill="url(#paint12_linear_3959_72681)"/>
<g opacity="0.3">
<path d="M178.9 263.9H171.3V300.7H178.9V263.9Z" fill="white"/>
</g>
<g opacity="0.3">
<path d="M208.3 247.1H200.7V300.7H208.3V247.1Z" fill="white"/>
</g>
<g opacity="0.3">
<path d="M237.8 272H230.2V300.7H237.8V272Z" fill="white"/>
</g>
<g opacity="0.3">
<path d="M267.2 259.7H259.6V300.7H267.2V259.7Z" fill="white"/>
</g>
<g opacity="0.3">
<path d="M296.6 267.8H289V300.7H296.6V267.8Z" fill="white"/>
</g>
<path d="M307.5 300.7C307.5 300.8 272 301 228.3 301C184.6 301 149.1 300.9 149.1 300.7C149.1 300.6 184.5 300.4 228.3 300.4C272.1 300.4 307.5 300.6 307.5 300.7Z" fill="#263238"/>
<path d="M95.7002 131.4H0.200195V226.9H95.7002V131.4Z" fill="white"/>
<path d="M49.9998 186.6L76.2998 187C76.0998 201 64.2998 212.5 49.9998 212.5C49.8998 212.5 49.8998 212.5 49.7998 212.5L49.9998 186.6Z" fill="#455A64"/>
<path d="M45.7999 182.9L45.3999 208.7C31.0999 208.5 19.3999 196.9 19.3999 182.9C19.3999 168.7 31.2999 157.1 45.6999 157.1C60.0999 157.1 71.9999 168.8 71.9999 182.9H45.7999Z" fill="url(#paint13_linear_3959_72681)"/>
<path d="M95.6002 131.4H0.200195V150.2H95.6002V131.4Z" fill="#E0E0E0"/>
<path d="M11.3001 143.5C12.7913 143.5 14.0001 142.291 14.0001 140.8C14.0001 139.309 12.7913 138.1 11.3001 138.1C9.80893 138.1 8.6001 139.309 8.6001 140.8C8.6001 142.291 9.80893 143.5 11.3001 143.5Z" fill="white"/>
<path d="M20.4002 143.5C21.8914 143.5 23.1002 142.291 23.1002 140.8C23.1002 139.309 21.8914 138.1 20.4002 138.1C18.909 138.1 17.7002 139.309 17.7002 140.8C17.7002 142.291 18.909 143.5 20.4002 143.5Z" fill="white"/>
<path d="M32.2999 140.8C32.2999 142.3 31.0999 143.5 29.5999 143.5C28.0999 143.5 26.8999 142.3 26.8999 140.8C26.8999 139.3 28.0999 138.1 29.5999 138.1C30.9999 138.1 32.2999 139.3 32.2999 140.8Z" fill="white"/>
<path d="M95.7 226.9C95.7 226.9 95.7 226.7 95.7 226.4C95.7 226.1 95.7 225.7 95.7 225.1C95.7 223.9 95.7 222.2 95.7 220C95.7 215.5 95.7 208.9 95.6 200.6C95.6 183.9 95.5 160 95.5 131.4L95.7 131.6C67.9 131.6 35.2 131.6 0.2 131.6L0.5 131.3C0.5 166.3 0.5 199 0.5 226.8L0.3 226.6C28.9 226.6 52.8 226.7 69.5 226.7C77.9 226.7 84.4 226.7 88.9 226.8C91.1 226.8 92.9 226.8 94 226.8C94.6 226.8 95 226.8 95.3 226.8C95.5 226.9 95.7 226.9 95.7 226.9C95.7 226.9 95.6 226.9 95.3 226.9C95 226.9 94.6 226.9 94 226.9C92.8 226.9 91.1 226.9 88.9 226.9C84.4 226.9 77.9 226.9 69.5 227C52.8 227 28.9 227.1 0.2 227.1H0V226.9C0 199.1 0 166.4 0 131.4V131.1H0.3C35.3 131.1 68 131.1 95.8 131.1H96V131.3C96 160 95.9 183.9 95.9 200.6C95.9 208.9 95.9 215.5 95.8 220C95.8 222.2 95.8 223.9 95.8 225.1C95.8 225.7 95.8 226.1 95.8 226.4C95.7 226.8 95.7 226.9 95.7 226.9Z" fill="#263238"/>
<path d="M329.1 0.300049H68.7002V188.2H329.1V0.300049Z" fill="white"/>
<path d="M282.2 86.2H220.5C210.2 86.2 201.9 77.9 201.9 67.6V61.4001C201.9 51.1001 210.2 42.8 220.5 42.8H282.2C292.5 42.8 300.8 51.1001 300.8 61.4001V67.6C300.8 77.9 292.5 86.2 282.2 86.2Z" fill="#EBEBEB"/>
<path d="M87.4002 91.1998C87.0002 68.8998 104.8 50.3998 127 50.0998C149.2 49.6998 167.6 67.5998 167.9 89.8998C168.3 112.2 150.5 130.7 128.3 131C106.1 131.4 87.7002 113.6 87.4002 91.1998ZM146.9 90.2998C146.7 79.5998 138 71.0998 127.3 71.2998C116.7 71.4998 108.2 80.2998 108.3 90.9998C108.5 101.7 117.2 110.2 127.9 110C138.6 109.8 147.1 100.9 146.9 90.2998Z" fill="#F5F5F5"/>
<path d="M87.4002 91.1999C87.0002 68.8999 104.8 50.3999 127 50.0999L127.3 71.1999C116.7 71.3999 108.2 80.1999 108.3 90.8999C108.5 101.6 117.2 110.1 127.9 109.9L128.2 131C106.1 131.4 87.7002 113.6 87.4002 91.1999Z" fill="#455A64"/>
<path d="M146.9 90.2998C146.9 90.2998 146.9 90.3998 146.9 90.5998C146.9 90.7998 146.9 91.0998 146.9 91.4998C146.9 91.8998 146.9 92.3998 146.8 92.9998C146.7 93.5998 146.7 94.2998 146.5 94.9998C146.2 96.4998 145.6 98.2998 144.5 100.2C143.4 102.1 141.9 104.1 139.7 105.9C137.5 107.6 134.8 109.1 131.6 109.7C128.4 110.3 124.8 110.3 121.3 109C120.4 108.7 119.6 108.3 118.7 107.9C117.9 107.4 117 107 116.3 106.4C115.5 105.9 114.8 105.2 114.1 104.5C113.4 103.8 112.7 103.1 112.2 102.3C111 100.7 110 98.8998 109.3 96.9998C108.6 94.9998 108.3 92.9998 108.2 90.7998C108.2 88.6998 108.5 86.5998 109.1 84.5998C109.7 82.5998 110.7 80.7998 111.8 79.1998C112.4 78.3998 113 77.5998 113.7 76.8998C114.4 76.1998 115.1 75.4998 115.9 74.9998C116.6 74.3998 117.5 73.8998 118.3 73.3998C119.1 72.9998 120 72.4998 120.8 72.1998C124.2 70.7998 127.8 70.6998 131 71.1998C134.2 71.6998 137 73.0998 139.2 74.7998C141.4 76.4998 143.1 78.3998 144.2 80.2998C145.3 82.1998 146 83.9998 146.4 85.4998C146.6 86.1998 146.7 86.8998 146.8 87.4998C146.9 88.0998 146.9 88.5998 146.9 88.9998C146.9 89.3998 146.9 89.6998 146.9 89.8998C146.9 90.1998 146.9 90.2998 146.9 90.2998C146.9 90.2998 146.9 90.1998 146.9 89.9998C146.9 89.7998 146.8 89.4998 146.8 89.0998C146.8 88.6998 146.7 88.1998 146.6 87.5998C146.5 86.9998 146.4 86.2998 146.2 85.5998C145.8 84.0998 145.1 82.3998 144 80.4998C142.9 78.6998 141.2 76.7998 139 75.0998C136.8 73.4998 134.1 72.1998 130.9 71.6998C127.8 71.1998 124.2 71.3998 120.9 72.6998C120.1 72.9998 119.3 73.3998 118.4 73.7998C117.6 74.2998 116.8 74.6998 116.1 75.3998C115.3 75.8998 114.7 76.5998 114 77.2998C113.4 77.9998 112.7 78.6998 112.2 79.4998C111.1 81.0998 110.1 82.8998 109.6 84.7998C109 86.6998 108.7 88.7998 108.7 90.7998C108.8 94.8998 110.2 98.8998 112.6 102C113.2 102.8 113.8 103.5 114.5 104.2C115.2 104.8 115.9 105.5 116.7 106C117.4 106.6 118.3 107 119.1 107.5C119.9 107.9 120.7 108.3 121.6 108.6C125 109.8 128.5 109.9 131.6 109.3C134.7 108.7 137.4 107.3 139.6 105.6C141.7 103.9 143.3 102 144.4 100.1C145.5 98.1998 146.1 96.4998 146.5 94.9998C146.7 94.2998 146.8 93.5998 146.9 92.9998C147 92.3998 147 91.8998 147.1 91.4998C147.1 91.0998 147.1 90.7998 147.2 90.5998C146.9 90.3998 146.9 90.2998 146.9 90.2998Z" fill="#263238"/>
<path d="M87.4002 91.1999C87.4002 91.1999 87.4002 91.3999 87.5002 91.8999C87.5002 92.2999 87.6002 92.9999 87.7002 93.7999C87.7002 94.1999 87.8002 94.6999 87.8002 95.1999C87.9002 95.6999 88.0002 96.2999 88.1002 96.8999C88.2002 97.4999 88.3002 98.1999 88.4002 98.8999C88.5002 99.5999 88.8002 100.3 89.0002 101.1C89.8002 104.2 91.3002 107.9 93.6002 111.7C96.0002 115.6 99.4002 119.6 104 123C104.6 123.4 105.2 123.8 105.8 124.3C106.4 124.7 107.1 125.1 107.7 125.4C108.4 125.8 109 126.2 109.7 126.5C110.4 126.8 111.1 127.1 111.8 127.5C112.2 127.7 112.5 127.8 112.9 128C113.3 128.1 113.6 128.3 114 128.4C114.7 128.7 115.5 128.9 116.3 129.2C117.1 129.4 117.9 129.6 118.7 129.8C119.5 130 120.3 130.2 121.1 130.3C122.8 130.5 124.4 130.8 126.2 130.8C127.1 130.8 127.9 130.9 128.8 130.9C129.7 130.8 130.6 130.8 131.5 130.7C131.9 130.7 132.4 130.7 132.8 130.6L134.1 130.4C135 130.2 135.9 130.1 136.8 129.9C138.6 129.4 140.4 129 142.1 128.2C143.9 127.6 145.6 126.7 147.3 125.8C148.1 125.3 148.9 124.8 149.8 124.3C150.6 123.8 151.4 123.2 152.2 122.6C153.8 121.4 155.2 120 156.7 118.6C157.4 117.8 158 117.1 158.7 116.3L159.2 115.7L159.6 115.1L160.5 113.9L161.4 112.6L162.2 111.3L163 110L163.4 109.3L163.7 108.6C164.1 107.7 164.6 106.7 165 105.7C165.3 104.7 165.7 103.7 166 102.7C167.2 98.6999 167.9 94.3999 167.9 89.9999C167.8 85.5999 167 81.3999 165.6 77.3999C165.2 76.3999 164.8 75.3999 164.5 74.3999C164 73.4999 163.6 72.4999 163.1 71.5999L162.7 70.8999L162.3 70.1999L161.5 68.8999L160.7 67.5999L159.8 66.3999L158.9 65.1999L158.4 64.5999L157.9 63.9999C157.2 63.2999 156.5 62.4999 155.8 61.7999C154.3 60.4999 152.8 59.0999 151.2 57.9999C150.4 57.3999 149.6 56.7999 148.8 56.3999C148 55.8999 147.1 55.3999 146.3 54.8999C144.5 54.0999 142.8 53.1999 141 52.6999C139.2 51.9999 137.4 51.6999 135.6 51.1999C134.7 50.9999 133.8 50.8999 132.9 50.7999L131.6 50.5999C131.2 50.4999 130.7 50.5999 130.3 50.4999C129.4 50.4999 128.5 50.3999 127.6 50.3999C126.7 50.3999 125.9 50.4999 125 50.4999C123.3 50.4999 121.6 50.8999 119.9 51.1999C119.1 51.2999 118.3 51.5999 117.5 51.7999C116.7 51.9999 115.9 52.1999 115.1 52.4999C114.3 52.7999 113.6 53.0999 112.9 53.3999C112.5 53.4999 112.2 53.6999 111.8 53.7999C111.4 53.9999 111.1 54.1999 110.8 54.2999C110.1 54.5999 109.4 54.9999 108.7 55.2999C108 55.5999 107.4 56.0999 106.8 56.4999C106.2 56.8999 105.5 57.2999 104.9 57.6999C104.3 58.0999 103.8 58.5999 103.2 58.9999C98.7002 62.4999 95.4002 66.6999 93.2002 70.5999C91.0002 74.4999 89.6002 78.2999 88.9002 81.3999C88.7002 82.1999 88.5002 82.8999 88.4002 83.5999C88.3002 84.2999 88.2002 84.9999 88.1002 85.5999C88.0002 86.1999 87.9002 86.7999 87.9002 87.2999C87.9002 87.7999 87.9002 88.2999 87.8002 88.6999C87.8002 89.4999 87.7002 90.1999 87.7002 90.5999C87.4002 90.9999 87.4002 91.1999 87.4002 91.1999C87.4002 91.1999 87.4002 90.9999 87.4002 90.4999C87.4002 89.9999 87.4002 89.3999 87.4002 88.5999C87.4002 88.1999 87.4002 87.6999 87.4002 87.1999C87.4002 86.6999 87.5002 86.0999 87.6002 85.4999C87.7002 84.8999 87.8002 84.1999 87.9002 83.4999C88.0002 82.7999 88.2002 82.0999 88.4002 81.2999C89.0002 78.0999 90.4002 74.3999 92.6002 70.3999C94.8002 66.3999 98.1002 62.1999 102.6 58.6999C103.2 58.2999 103.7 57.7999 104.3 57.3999C104.9 56.9999 105.5 56.5999 106.2 56.1999C106.8 55.7999 107.5 55.3999 108.2 54.9999C108.9 54.6999 109.6 54.2999 110.3 53.8999C110.7 53.6999 111 53.4999 111.4 53.3999C111.8 53.2999 112.1 53.0999 112.5 52.9999C113.2 52.6999 114 52.3999 114.8 52.0999C115.6 51.7999 116.4 51.5999 117.2 51.3999C118 51.1999 118.8 50.8999 119.6 50.7999C121.3 50.4999 123 50.0999 124.7 50.0999C125.6 50.0999 126.5 49.9999 127.3 49.8999C128.2 49.8999 129.1 49.9999 130 49.9999C130.5 49.9999 130.9 49.9999 131.4 50.0999L132.8 50.2999C133.7 50.3999 134.6 50.4999 135.5 50.6999C137.3 51.1999 139.2 51.4999 140.9 52.1999C142.7 52.7999 144.5 53.5999 146.2 54.4999C147.1 54.9999 147.9 55.4999 148.8 55.9999C149.7 56.4999 150.5 57.0999 151.3 57.6999C153 58.7999 154.4 60.1999 156 61.5999C156.7 62.2999 157.4 63.0999 158.1 63.7999L158.6 64.3999L159.1 64.9999L159.9 65.9999L160.9 67.1999L161.7 68.4999L162.5 69.7999L162.9 70.4999L163.3 71.1999C163.8 72.0999 164.2 73.0999 164.7 73.9999C165.1 74.9999 165.5 75.9999 165.8 76.9999C167.2 81.0999 168 85.3999 168.1 89.7999C168.1 94.1999 167.5 98.5999 166.2 102.7C165.8 103.7 165.5 104.7 165.1 105.7C164.7 106.7 164.2 107.6 163.8 108.6L163.5 109.3L163.1 110L162.3 111.4L161.5 112.8L160.6 114.1L159.7 115.4L159.2 116L158.7 116.6C158 117.4 157.3 118.1 156.7 118.9C155.2 120.3 153.8 121.7 152.2 122.9C151.4 123.5 150.6 124.1 149.8 124.6C149 125.1 148.1 125.7 147.3 126.2C145.6 127.1 143.9 128 142 128.6C140.2 129.4 138.4 129.8 136.6 130.3C135.7 130.5 134.8 130.6 133.9 130.8L132.5 131C132.1 131.1 131.6 131.1 131.1 131.1C130.2 131.2 129.3 131.2 128.4 131.3C127.5 131.3 126.6 131.3 125.8 131.2C124 131.2 122.3 130.9 120.7 130.7C119.9 130.6 119.1 130.3 118.2 130.2C117.4 130 116.6 129.8 115.8 129.6C115 129.3 114.3 129.1 113.5 128.8C113.1 128.7 112.7 128.5 112.4 128.4C112 128.2 111.7 128.1 111.3 127.9C110.6 127.6 109.9 127.2 109.2 126.9C108.5 126.6 107.9 126.1 107.2 125.8C106.6 125.4 105.9 125.1 105.3 124.6C104.7 124.2 104.1 123.7 103.5 123.3C98.9002 119.9 95.5002 115.8 93.1002 111.9C90.8002 108 89.3002 104.3 88.5002 101.2C88.3002 100.4 88.0002 99.6999 88.0002 98.9999C87.9002 98.2999 87.8002 97.5999 87.7002 96.9999C87.6002 96.3999 87.5002 95.7999 87.4002 95.2999C87.4002 94.7999 87.3002 94.2999 87.3002 93.8999C87.3002 93.0999 87.2002 92.3999 87.2002 91.9999C87.4002 91.4999 87.4002 91.1999 87.4002 91.1999Z" fill="#263238"/>
<path d="M123.4 46.8999C149.4 46.4999 170.1 66.5999 170.5 92.7999L145.9 93.0999C145.7 80.5999 136.2 72.7999 123.8 72.9999L123.4 46.8999Z" fill="url(#paint14_linear_3959_72681)"/>
<path d="M123.4 46.8999C123.4 46.8999 123.4 47.0999 123.4 47.3999C123.4 47.6999 123.4 48.1999 123.4 48.7999C123.4 49.9999 123.5 51.7999 123.5 53.9999C123.6 58.4999 123.7 64.9999 123.9 72.9999L123.7 72.7999C126.1 72.7999 128.6 72.9999 131.1 73.6999C133.6 74.3999 136.2 75.4999 138.4 77.2999C140.7 78.9999 142.6 81.2999 144 84.0999C145.3 86.7999 146 89.9999 146.1 93.1999L145.8 92.9999C151.8 92.8999 158.2 92.7999 164.8 92.6999C166.7 92.6999 168.6 92.5999 170.3 92.5999L170 92.8999C169.9 87.7999 169 82.8999 167.5 78.3999C167.1 77.2999 166.7 76.1999 166.3 75.0999C165.8 73.9999 165.3 72.9999 164.8 71.9999C164.3 70.8999 163.7 69.9999 163.1 68.9999C162.5 68.0999 162 67.0999 161.3 66.1999C160.6 65.2999 160 64.4999 159.3 63.5999C158.6 62.7999 157.9 61.9999 157.2 61.2999C156.8 60.8999 156.5 60.4999 156.2 60.1999C155.8 59.8999 155.4 59.4999 155.1 59.1999C154.3 58.4999 153.6 57.8999 152.9 57.1999C149.8 54.8999 146.8 52.8999 143.8 51.5999C143.1 51.2999 142.3 50.8999 141.6 50.5999C140.9 50.2999 140.1 50.0999 139.5 49.7999C138.8 49.5999 138.1 49.2999 137.5 49.0999C136.8 48.8999 136.2 48.7999 135.5 48.5999C134.9 48.3999 134.3 48.2999 133.7 48.1999C133.4 48.0999 133.1 48.0999 132.8 47.9999C132.5 47.8999 132.2 47.8999 132 47.8999C130.9 47.6999 129.9 47.5999 129 47.4999C128.1 47.2999 127.3 47.3999 126.6 47.2999C125.9 47.2999 125.3 47.1999 124.8 47.1999C124.3 47.1999 124 47.1999 123.7 47.0999C123.5 46.8999 123.4 46.8999 123.4 46.8999C123.4 46.8999 123.5 46.8999 123.8 46.8999C124.1 46.8999 124.4 46.8999 124.9 46.8999C125.4 46.8999 126 46.8999 126.7 46.8999C127.4 46.8999 128.2 46.8999 129.1 46.9999C130 47.0999 131 47.1999 132.1 47.3999C132.4 47.3999 132.7 47.4999 132.9 47.4999C133.2 47.5999 133.5 47.5999 133.8 47.6999C134.4 47.7999 135 47.9999 135.6 48.0999C136.2 48.2999 136.9 48.3999 137.6 48.5999C138.3 48.7999 138.9 49.0999 139.6 49.2999C140.3 49.4999 141 49.7999 141.8 49.9999C142.5 50.2999 143.3 50.6999 144 50.9999C147 52.2999 150.1 54.2999 153.2 56.5999C153.9 57.1999 154.7 57.8999 155.4 58.5999C155.8 58.8999 156.2 59.2999 156.5 59.5999C156.9 59.9999 157.2 60.3999 157.6 60.6999C158.3 61.4999 159.1 62.1999 159.8 62.9999C160.5 63.8999 161.1 64.6999 161.8 65.5999C162.5 66.3999 163 67.3999 163.6 68.3999C164.2 69.3999 164.8 70.2999 165.3 71.3999C165.8 72.3999 166.4 73.4999 166.8 74.5999C167.2 75.6999 167.6 76.7999 168.1 77.9999C169.6 82.5999 170.5 87.5999 170.6 92.6999V92.9999H170.3C168.5 92.9999 166.7 93.0999 164.8 93.0999C158.2 93.1999 151.8 93.2999 145.8 93.3999H145.5V93.0999C145.5 89.9999 144.8 86.8999 143.5 84.1999C142.2 81.4999 140.3 79.2999 138.1 77.5999C135.9 75.8999 133.4 74.7999 130.9 74.0999C128.4 73.3999 126 73.1999 123.6 73.1999H123.4V72.9999C123.3 64.9999 123.2 58.3999 123.2 53.8999C123.2 51.6999 123.2 49.8999 123.2 48.6999C123.2 48.0999 123.2 47.6999 123.2 47.3999C123.4 46.9999 123.4 46.8999 123.4 46.8999Z" fill="#263238"/>
<path d="M329.1 0.300049H68.7002V25.4H329.1V0.300049Z" fill="#E0E0E0"/>
<path d="M289.2 57.4H216C215.1 57.4 214.4 56.6999 214.4 55.7999C214.4 54.8999 215.1 54.2 216 54.2H289.2C290.1 54.2 290.8 54.8999 290.8 55.7999C290.7 56.6999 290 57.4 289.2 57.4Z" fill="#263238"/>
<path d="M289.2 65.7H216C215.1 65.7 214.4 65 214.4 64.1C214.4 63.2 215.1 62.5 216 62.5H289.2C290.1 62.5 290.8 63.2 290.8 64.1C290.7 65 290 65.7 289.2 65.7Z" fill="#263238"/>
<path d="M249.3 74H216C215.1 74 214.4 73.3 214.4 72.4C214.4 71.5 215.1 70.8 216 70.8H249.3C250.2 70.8 250.9 71.5 250.9 72.4C250.8 73.3 250.1 74 249.3 74Z" fill="#263238"/>
<path d="M282.2 139.2H220.5C210.2 139.2 201.9 130.9 201.9 120.6V114.4C201.9 104.1 210.2 95.8 220.5 95.8H282.2C292.5 95.8 300.8 104.1 300.8 114.4V120.6C300.8 130.9 292.5 139.2 282.2 139.2Z" fill="#EBEBEB"/>
<path d="M291.2 166.2H209.5C204.8 166.2 200.9 162.4 200.9 157.6C200.9 152.9 204.7 149 209.5 149H291.2C295.9 149 299.8 152.8 299.8 157.6C299.8 162.4 295.9 166.2 291.2 166.2Z" fill="#EBEBEB"/>
<path d="M288.7 110.8H215.5C214.6 110.8 213.9 110.1 213.9 109.2C213.9 108.3 214.6 107.6 215.5 107.6H288.7C289.6 107.6 290.3 108.3 290.3 109.2C290.3 110.1 289.6 110.8 288.7 110.8Z" fill="#263238"/>
<path d="M285.6 159.4H212.4C211.5 159.4 210.8 158.7 210.8 157.8C210.8 156.9 211.5 156.2 212.4 156.2H285.6C286.5 156.2 287.2 156.9 287.2 157.8C287.1 158.7 286.4 159.4 285.6 159.4Z" fill="#263238"/>
<path d="M288.7 119.1H215.5C214.6 119.1 213.9 118.4 213.9 117.5C213.9 116.6 214.6 115.9 215.5 115.9H288.7C289.6 115.9 290.3 116.6 290.3 117.5C290.3 118.4 289.6 119.1 288.7 119.1Z" fill="#263238"/>
<path d="M248.8 127.4H215.5C214.6 127.4 213.9 126.7 213.9 125.8C213.9 124.9 214.6 124.2 215.5 124.2H248.8C249.7 124.2 250.4 124.9 250.4 125.8C250.3 126.7 249.6 127.4 248.8 127.4Z" fill="#263238"/>
<path d="M196.8 52.1C196.8 52.1 196.3 52.2001 195.4 52.2001C194.4 52.2001 193.2 52.2 191.7 52.3C188.5 52.3 184.2 52.4001 179.4 52.4001C177.4 52.4001 175.5 52.4001 173.8 52.4001L174 52.3C171.6 54.7 169.4 56.8001 167.9 58.2001C167.2 58.9001 166.6 59.4001 166.1 59.9001C165.7 60.3001 165.4 60.5 165.4 60.5C165.4 60.5 165.6 60.2 166 59.8C166.5 59.3 167 58.7 167.7 58C169.1 56.5 171.2 54.4001 173.6 51.9001L173.7 51.8H173.8C175.5 51.8 177.4 51.8 179.4 51.8C184.2 51.8 188.6 51.8001 191.7 51.9001C193.2 51.9001 194.4 52 195.4 52C196.3 52 196.8 52.1 196.8 52.1Z" fill="#263238"/>
<path d="M195.7 54.3001C196.86 54.3001 197.8 53.3599 197.8 52.2001C197.8 51.0403 196.86 50.1001 195.7 50.1001C194.54 50.1001 193.6 51.0403 193.6 52.2001C193.6 53.3599 194.54 54.3001 195.7 54.3001Z" fill="#263238"/>
<path d="M195.7 116.8C196.86 116.8 197.8 115.86 197.8 114.7C197.8 113.54 196.86 112.6 195.7 112.6C194.54 112.6 193.6 113.54 193.6 114.7C193.6 115.86 194.54 116.8 195.7 116.8Z" fill="#263238"/>
<path d="M194.4 115.1C194.4 115.2 193.1 115.2 190.9 115.3C188.7 115.3 185.8 115.3 182.5 115.3C179.3 115.3 176.4 115.2 174.1 115.2C173.1 115.2 172.3 115.2 171.5 115.1C170.9 115.1 170.6 115.1 170.6 115.1C170.6 115 171.9 114.9 174.1 114.8C176.3 114.7 179.2 114.7 182.5 114.7C185.8 114.7 188.8 114.8 190.9 114.8C193 114.9 194.4 115 194.4 115.1Z" fill="#263238"/>
<path d="M107.2 160.8H100.4V167.6H107.2V160.8Z" fill="#455A64"/>
<path d="M130.1 160.8H123.3V167.6H130.1V160.8Z" fill="#E0E0E0"/>
<path d="M154.9 160.8H148.1V167.6H154.9V160.8Z" fill="url(#paint15_linear_3959_72681)"/>
<path d="M86.3999 12.8C86.3999 14.8 84.7999 16.4 82.8999 16.4C80.9999 16.4 79.3999 14.8 79.3999 12.8C79.3999 10.8 80.9999 9.19995 82.8999 9.19995C84.8999 9.19995 86.3999 10.8 86.3999 12.8Z" fill="white"/>
<path d="M98.1001 12.8C98.1001 14.8 96.5001 16.4 94.6001 16.4C92.7001 16.4 91.1001 14.8 91.1001 12.8C91.1001 10.8 92.7001 9.19995 94.6001 9.19995C96.6001 9.19995 98.1001 10.8 98.1001 12.8Z" fill="white"/>
<path d="M109.8 12.8C109.8 14.8 108.2 16.4 106.3 16.4C104.4 16.4 102.8 14.8 102.8 12.8C102.8 10.8 104.4 9.19995 106.3 9.19995C108.2 9.19995 109.8 10.8 109.8 12.8Z" fill="white"/>
<path d="M329.1 188.2C329.1 186.5 329 114.3 328.9 0.3L329.1 0.5C256.2 0.5 166.1 0.5 68.7 0.5L69 0.2C69 67.6 69 131.4 69 188.1L68.8 187.9C222.7 188.1 327 188.2 329.1 188.2C327 188.2 222.7 188.3 68.7 188.4H68.5V188.2C68.5 131.5 68.5 67.6 68.5 0.3V0H68.8C166.2 0 256.3 0 329.2 0H329.4V0.2C329.2 114.2 329.1 186.4 329.1 188.2Z" fill="#263238"/>
<path d="M436.4 124.1H250.9V262.8H436.4V124.1Z" fill="white"/>
<path d="M435.8 124.1H250.3V141.2H435.8V124.1Z" fill="#E0E0E0"/>
<path d="M260.5 135.2C261.881 135.2 263 134.081 263 132.7C263 131.319 261.881 130.2 260.5 130.2C259.119 130.2 258 131.319 258 132.7C258 134.081 259.119 135.2 260.5 135.2Z" fill="white"/>
<path d="M268.8 135.2C270.181 135.2 271.3 134.081 271.3 132.7C271.3 131.319 270.181 130.2 268.8 130.2C267.42 130.2 266.3 131.319 266.3 132.7C266.3 134.081 267.42 135.2 268.8 135.2Z" fill="white"/>
<path d="M277.1 135.2C278.481 135.2 279.6 134.081 279.6 132.7C279.6 131.319 278.481 130.2 277.1 130.2C275.719 130.2 274.6 131.319 274.6 132.7C274.6 134.081 275.719 135.2 277.1 135.2Z" fill="white"/>
<path d="M435.8 262.8C435.8 262.8 435.8 261.9 435.8 260.3C435.8 258.6 435.8 256.2 435.8 252.9C435.8 246.4 435.8 237 435.7 224.9C435.7 200.7 435.6 166.1 435.6 124.2L435.8 124.4C383.5 124.4 319.4 124.4 250.3 124.4L250.6 124.1C250.6 173.9 250.6 221.1 250.6 262.8L250.4 262.6C305.3 262.6 351.7 262.7 384.3 262.7C400.6 262.7 413.5 262.7 422.3 262.8C426.7 262.8 430.1 262.8 432.4 262.8C433.5 262.8 434.4 262.8 435 262.8C435.5 262.7 435.8 262.8 435.8 262.8C435.8 262.8 435.5 262.8 434.9 262.8C434.3 262.8 433.5 262.8 432.3 262.8C430 262.8 426.6 262.8 422.3 262.8C413.5 262.8 400.6 262.8 384.3 262.9C351.6 262.9 305.2 263 250.3 263H250.1V262.8C250.1 221.2 250.1 174 250.1 124.1V123.8H250.4C319.5 123.8 383.6 123.8 435.9 123.8H436.1V124C436.1 166 436 200.7 436 224.9C436 237 436 246.4 435.9 252.9C435.9 256.1 435.9 258.6 435.9 260.2C435.8 261.9 435.8 262.8 435.8 262.8Z" fill="#263238"/>
<path d="M425.6 207.7C425.6 207.8 388.7 208 343.2 208C297.7 208 260.8 207.9 260.8 207.7C260.8 207.5 297.7 207.4 343.2 207.4C388.7 207.4 425.6 207.5 425.6 207.7Z" fill="#E0E0E0"/>
<path d="M425.6 193.4C425.6 193.5 388.7 193.7 343.2 193.7C297.7 193.7 260.8 193.6 260.8 193.4C260.8 193.3 297.7 193.1 343.2 193.1C388.7 193.2 425.6 193.3 425.6 193.4Z" fill="#E0E0E0"/>
<path d="M425.6 179.2C425.6 179.3 388.7 179.5 343.2 179.5C297.7 179.5 260.8 179.4 260.8 179.2C260.8 179.1 297.7 178.9 343.2 178.9C388.7 178.9 425.6 179 425.6 179.2Z" fill="#E0E0E0"/>
<path d="M425.6 165C425.6 165.1 388.7 165.3 343.2 165.3C297.7 165.3 260.8 165.2 260.8 165C260.8 164.8 297.7 164.7 343.2 164.7C388.7 164.7 425.6 164.8 425.6 165Z" fill="#E0E0E0"/>
<path d="M288.4 201.2H274.7V228.8H288.4V201.2Z" fill="url(#paint16_linear_3959_72681)"/>
<path d="M337.6 201.2H323.9V228.8H337.6V201.2Z" fill="#455A64"/>
<path d="M412.3 210.6H398.6V228.8H412.3V210.6Z" fill="#455A64"/>
<path d="M386.8 188.1H373.1V228.8H386.8V188.1Z" fill="#E0E0E0"/>
<path d="M361.6 172.3H347.9V228.8H361.6V172.3Z" fill="url(#paint17_linear_3959_72681)"/>
<path d="M312 188.1H298.3V228.8H312V188.1Z" fill="#E0E0E0"/>
<path d="M423.6 228.8C423.6 228.8 423.4 228.8 423 228.8C422.6 228.8 422 228.8 421.2 228.8C419.6 228.8 417.3 228.8 414.3 228.8C408.3 228.8 399.6 228.8 388.8 228.9C367.3 228.9 337.6 228.9 304.8 229C289.1 229 274.1 229 260.5 229H260.3V228.8C260.3 207 260.4 188.3 260.4 175.1C260.4 168.5 260.5 163.3 260.5 159.7C260.5 157.9 260.5 156.6 260.5 155.6C260.5 155.1 260.5 154.8 260.5 154.5C260.5 154.3 260.5 154.1 260.5 154.1C260.5 154.1 260.5 154.2 260.5 154.5C260.5 154.8 260.5 155.1 260.5 155.6C260.5 156.5 260.5 157.9 260.5 159.7C260.5 163.3 260.5 168.5 260.6 175.1C260.6 188.3 260.7 206.9 260.7 228.8L260.5 228.6C274.1 228.6 289.1 228.6 304.8 228.6C337.6 228.6 367.3 228.7 388.8 228.7C399.5 228.7 408.2 228.8 414.3 228.8C417.3 228.8 419.6 228.8 421.2 228.8C422 228.8 422.6 228.8 423 228.8C423.4 228.8 423.6 228.8 423.6 228.8Z" fill="#263238"/>
<path d="M295.3 242.8H289.3V248.8H295.3V242.8Z" fill="url(#paint18_linear_3959_72681)"/>
<path d="M332.1 242.6H326.1V248.6H332.1V242.6Z" fill="#E0E0E0"/>
<path d="M372 242.8H366V248.8H372V242.8Z" fill="#455A64"/>
<path d="M315.3 245.6C315.3 245.7 311.6 245.9 307.1 245.9C302.6 245.9 298.9 245.8 298.9 245.6C298.9 245.5 302.6 245.3 307.1 245.3C311.6 245.4 315.3 245.5 315.3 245.6Z" fill="#263238"/>
<path d="M351.8 245.6C351.8 245.7 348.1 245.9 343.6 245.9C339.1 245.9 335.4 245.8 335.4 245.6C335.4 245.5 339.1 245.3 343.6 245.3C348.2 245.4 351.8 245.5 351.8 245.6Z" fill="#263238"/>
<path d="M390.8 245.6C390.8 245.7 387.1 245.9 382.6 245.9C378.1 245.9 374.4 245.8 374.4 245.6C374.4 245.5 378.1 245.3 382.6 245.3C387.1 245.4 390.8 245.5 390.8 245.6Z" fill="#263238"/>
<path d="M410.8 80.8H346.7V144.9H410.8V80.8Z" fill="white"/>
<path d="M410.8 144.9C410.8 144.9 410.8 144.8 410.8 144.6C410.8 144.4 410.8 144.1 410.8 143.7C410.8 142.9 410.8 141.7 410.8 140.2C410.8 137.2 410.8 132.8 410.7 127.2C410.7 116 410.6 100 410.6 80.8L410.8 81C392.2 81 370.2 81 346.7 81L347 80.7C347 104.2 347 126.2 347 144.8L346.8 144.6C366 144.6 382 144.7 393.2 144.7C398.8 144.7 403.2 144.7 406.2 144.8C407.7 144.8 408.9 144.8 409.7 144.8C410.1 144.8 410.4 144.8 410.6 144.8C410.6 144.9 410.8 144.9 410.8 144.9C410.8 144.9 410.7 144.9 410.5 144.9C410.3 144.9 410 144.9 409.6 144.9C408.8 144.9 407.7 144.9 406.2 144.9C403.2 144.9 398.8 144.9 393.2 145C381.9 145 365.9 145.1 346.7 145.1H346.5V144.9C346.5 126.3 346.5 104.3 346.5 80.8V80.5H346.8C370.3 80.5 392.3 80.5 410.9 80.5H411.1V80.7C411.1 99.9 411 116 411 127.2C411 132.8 411 137.2 410.9 140.2C410.9 141.7 410.9 142.8 410.9 143.6C410.9 144 410.9 144.3 410.9 144.5C410.8 144.8 410.8 144.9 410.8 144.9Z" fill="#263238"/>
<path d="M382.4 112.9C386 111.4 388.5 107.7 388.6 103.3C388.6 97.5999 384.3 92.8999 379 92.8999C373.7 92.8999 369.3 97.4999 369.3 103.2C369.3 107.6 371.8 111.3 375.5 112.8C360.6 115 361.3 131.3 361.3 131.3L396.6 131.5C396.3 131.5 397.1 115.1 382.4 112.9Z" fill="url(#paint19_linear_3959_72681)"/>
</g>
<path d="M533.503 218.354L536.657 224.819C536.815 225.134 537.13 225.45 537.603 225.45L544.857 226.554C545.803 226.711 546.276 227.815 545.488 228.604L540.284 233.65C539.969 233.965 539.811 234.28 539.969 234.754L541.23 241.85C541.388 242.796 540.442 243.584 539.496 243.111L533.03 239.8C532.715 239.642 532.242 239.642 531.926 239.8L525.461 243.111C524.673 243.584 523.569 242.796 523.726 241.85L524.988 234.754C524.988 234.438 524.988 233.965 524.673 233.65L519.469 228.604C518.838 227.973 519.153 226.711 520.1 226.554L527.353 225.45C527.669 225.45 528.142 225.134 528.3 224.819L531.453 218.354C531.769 217.408 533.03 217.408 533.503 218.354Z" fill="#E0E0E0"/>
<path d="M295.364 89.829L294.575 93.929C294.575 94.0867 294.576 94.4021 294.733 94.5598L297.572 97.5559C297.887 98.029 297.729 98.6598 297.099 98.6598L292.999 99.1328C292.841 99.1328 292.526 99.2905 292.526 99.4482L290.633 103.075C290.318 103.548 289.687 103.548 289.372 103.075L287.637 99.2905C287.479 99.1328 287.322 98.9751 287.164 98.9751L283.064 98.3444C282.591 98.1867 282.276 97.5559 282.749 97.2405L285.745 94.4021C285.902 94.2444 286.06 94.0867 285.902 93.7713L285.272 89.6714C285.272 89.1983 285.745 88.7252 286.218 89.0406L289.845 91.0906C290.002 91.2483 290.318 91.2483 290.476 91.0906L294.26 89.1983C294.891 88.8829 295.522 89.356 295.364 89.829Z" fill="#E0E0E0"/>
<path d="M125.379 317.162L124.118 323.154C124.118 323.469 124.118 323.785 124.433 324.1L128.691 328.515C129.321 329.146 128.848 330.092 128.06 330.25L121.91 331.039C121.595 331.039 121.279 331.196 121.121 331.512L118.283 337.031C117.968 337.819 116.864 337.662 116.548 337.031L114.025 331.354C113.868 331.039 113.552 330.881 113.237 330.723L107.087 329.619C106.298 329.462 105.983 328.515 106.614 327.885L111.187 323.627C111.502 323.469 111.502 323.154 111.502 322.681L110.556 316.531C110.398 315.743 111.345 315.112 111.975 315.585L117.337 318.581C117.652 318.739 117.968 318.739 118.283 318.581L123.802 315.9C124.748 315.743 125.537 316.373 125.379 317.162Z" fill="#E0E0E0"/>
<path d="M182.463 97.6557L185.617 104.121C185.775 104.436 186.09 104.752 186.563 104.752L193.817 105.856C194.763 106.013 195.236 107.117 194.448 107.906L189.244 112.952C188.929 113.267 188.771 113.583 188.929 114.056L190.19 121.152C190.348 122.098 189.402 122.886 188.456 122.413L181.99 119.102C181.675 118.944 181.202 118.944 180.886 119.102L174.421 122.413C173.633 122.886 172.529 122.098 172.686 121.152L173.948 114.056C173.948 113.74 173.948 113.267 173.633 112.952L168.429 107.906C167.798 107.275 168.113 106.013 169.06 105.856L176.313 104.91C176.629 104.91 177.102 104.594 177.259 104.279L180.413 97.8134C180.729 96.8673 181.99 96.8673 182.463 97.6557Z" fill="url(#paint20_linear_3959_72681)"/>
<path d="M100.779 186.594L99.9909 190.694C99.9909 190.851 99.9909 191.167 100.149 191.324L102.987 194.321C103.302 194.794 103.145 195.424 102.514 195.424L98.414 195.897C98.2563 195.897 97.9409 196.055 97.9409 196.213L96.0486 199.84C95.7333 200.313 95.1025 200.313 94.7871 199.84L93.0525 196.055C92.8948 195.897 92.7371 195.74 92.5794 195.74L88.4795 195.109C88.0064 194.794 87.8487 194.163 88.1641 193.847L91.1602 191.009C91.3179 190.851 91.4756 190.694 91.3179 190.378L90.6871 186.278C90.6871 185.805 91.1602 185.332 91.6333 185.648L95.2602 187.698C95.4179 187.855 95.7333 187.855 95.8909 187.698L99.6755 185.805C100.306 185.648 100.779 186.121 100.779 186.594Z" fill="url(#paint21_linear_3959_72681)"/>
<path d="M387.146 82.8906L386.357 86.9905C386.357 87.1482 386.357 87.4636 386.515 87.6213L389.353 90.6174C389.669 91.0905 389.511 91.7213 388.88 91.7213L384.78 92.1943C384.623 92.1943 384.307 92.352 384.307 92.5097L382.415 96.1366C382.1 96.6097 381.469 96.6097 381.153 96.1366L379.577 92.352C379.419 92.1943 379.261 92.0367 379.103 92.0367L375.004 91.4059C374.53 91.2482 374.215 90.6174 374.688 90.3021L377.684 87.4636C377.842 87.3059 378 87.1482 377.842 86.8329L377.211 82.7329C377.211 82.2598 377.684 81.7867 378.157 82.1021L381.784 84.1521C381.942 84.3098 382.257 84.3098 382.415 84.1521L386.2 82.2598C386.83 81.9444 387.303 82.4175 387.146 82.8906Z" fill="url(#paint22_linear_3959_72681)"/>
<path d="M463.488 286.634L462.7 290.734C462.7 290.891 462.7 291.207 462.858 291.364L465.696 294.361C466.012 294.834 465.854 295.464 465.223 295.464L461.123 295.938C460.965 295.938 460.65 296.095 460.65 296.253L458.758 299.88C458.442 300.353 457.812 300.353 457.496 299.88L455.762 296.095C455.604 295.938 455.446 295.78 455.289 295.78L451.189 295.149C450.715 294.991 450.4 294.361 450.873 294.045L453.869 291.207C454.027 291.049 454.185 290.891 454.027 290.576L453.396 286.476C453.396 286.003 453.869 285.53 454.342 285.845L457.969 287.895C458.127 288.053 458.442 288.053 458.6 287.895L462.385 286.003C463.015 285.688 463.646 286.003 463.488 286.634Z" fill="url(#paint23_linear_3959_72681)"/>
<path d="M449.139 190.758L446.773 191.861C446.616 191.861 446.616 192.019 446.616 192.177L446.143 194.7C446.143 195.015 445.669 195.173 445.354 194.857L443.62 193.123C443.462 192.965 443.462 192.965 443.304 192.965L440.781 193.438C440.466 193.438 440.15 193.123 440.308 192.808L441.57 190.442C441.57 190.284 441.57 190.127 441.57 190.127L440.308 187.761C440.15 187.446 440.466 187.131 440.781 187.131L443.304 187.604C443.462 187.604 443.62 187.604 443.62 187.446L445.512 185.554C445.827 185.238 446.143 185.396 446.3 185.869L446.616 188.392C446.616 188.55 446.773 188.708 446.773 188.708L449.139 189.969C449.454 190.127 449.454 190.6 449.139 190.758Z" fill="url(#paint24_linear_3959_72681)"/>
<path d="M229.297 206.62L226.932 207.724C226.774 207.724 226.774 207.882 226.774 208.04L226.301 210.563C226.301 210.878 225.828 211.036 225.513 210.72L223.621 208.986C223.463 208.828 223.463 208.828 223.305 208.828L220.782 209.301C220.467 209.301 220.151 208.986 220.309 208.67L221.571 206.305C221.571 206.147 221.571 205.99 221.571 205.99L220.309 203.624C220.151 203.309 220.467 202.993 220.782 202.993L223.305 203.467C223.463 203.467 223.621 203.467 223.621 203.309L225.513 201.417C225.828 201.101 226.144 201.259 226.301 201.732L226.617 204.255C226.617 204.413 226.774 204.57 226.774 204.57L229.14 205.832C229.613 206.147 229.613 206.463 229.297 206.62Z" fill="url(#paint25_linear_3959_72681)"/>
<path d="M356.101 218.669L354.839 224.819C354.839 225.134 354.839 225.45 355.155 225.765L359.412 230.181C360.043 230.811 359.57 231.757 358.782 231.915L352.632 232.704C352.316 232.704 352.001 232.861 351.843 233.177L349.005 238.696C348.689 239.484 347.586 239.327 347.27 238.696L344.747 233.019C344.589 232.704 344.274 232.546 343.959 232.388L337.809 231.284C337.02 231.127 336.705 230.181 337.336 229.55L341.909 225.292C342.224 225.134 342.224 224.819 342.224 224.346L341.278 218.196C341.12 217.408 342.066 216.777 342.697 217.25L348.059 220.246C348.374 220.404 348.689 220.404 349.005 220.246L354.524 217.565C355.312 217.092 356.258 217.881 356.101 218.669Z" fill="url(#paint26_linear_3959_72681)"/>
<path d="M171.992 242.913C171.992 242.913 174.213 240.071 179.205 241.782C179.205 241.782 184.423 243.664 185.413 245.644C186.403 247.624 185.738 250.749 185.144 252.955C184.564 255.26 180.349 263.943 180.349 263.943C180.349 263.943 181.296 270.576 177.859 278.34C174.408 286.005 166.913 287.277 166.163 292.637C165.498 297.884 165.13 299.552 166.516 302.89C167.802 306.242 170.15 312.068 170.15 312.068L142.982 331.201C142.982 331.201 138.09 310.384 136.902 297.825C135.715 285.267 133.934 272.794 132.562 268.848C131.191 264.902 131.432 258.807 132.535 258.043C132.535 258.043 127.854 250.024 131.772 247.041C135.59 244.071 161.16 232.136 164.186 232.815C167.213 233.494 168.514 234.824 169.758 237.879C171.002 240.933 171.992 242.913 171.992 242.913Z" fill="white"/>
<path d="M150.085 267.76C150.085 267.76 150.339 267.421 150.636 266.671C150.933 265.921 151.033 264.493 150.043 263.22L149.972 263.432C151.004 262.881 152.221 262.202 153.635 261.495L153.409 261.325C153.253 262.358 152.998 263.404 152.772 264.649L152.758 264.55C152.418 265.002 152.093 265.554 151.782 266.204C151.57 266.841 151.372 267.576 151.471 268.269C151.669 269.655 152.772 271.013 154.257 271.508C154.992 271.706 155.812 271.791 156.576 271.48C156.958 271.324 157.34 271.169 157.608 270.928C157.99 270.773 158.259 270.532 158.627 270.278C159.928 269.486 161.186 268.397 162.332 267.223C163.124 266.403 163.803 265.498 164.383 264.607L164.199 264.734C165.952 264.282 167.734 263.32 168.852 261.949C169.969 260.577 170.422 258.795 170.196 257.211L170.026 257.437C171.157 256.872 172.076 256.235 172.868 255.415C173.208 254.963 173.547 254.51 173.788 254.072C174.014 253.534 173.929 252.94 173.958 252.431C173.774 250.437 173.237 248.797 172.841 247.439C172.445 246.081 171.992 245.035 171.794 244.356C171.497 243.691 171.342 243.309 171.342 243.309C171.342 243.309 171.398 243.705 171.709 244.469C171.907 245.148 172.261 246.209 172.657 247.566C173.053 248.924 173.491 250.579 173.661 252.474C173.731 252.969 173.703 253.478 173.562 253.902C173.321 254.34 173.081 254.779 172.727 255.132C172.02 255.839 171.002 256.49 169.969 257.041L169.771 257.07L169.8 257.268C169.913 258.767 169.545 260.435 168.512 261.694C167.48 262.953 165.896 263.886 164.142 264.338L164.043 264.352L163.958 264.466C163.478 265.342 162.799 266.247 161.993 266.969C160.946 268.128 159.673 269.118 158.386 270.009C158.117 270.249 157.736 270.405 157.354 270.56C156.986 270.815 156.703 270.956 156.406 270.999C155.727 271.197 155.02 271.197 154.384 270.985C153.111 270.56 152.036 269.401 151.867 268.213C151.683 266.926 152.334 265.823 152.998 264.819C153.239 263.673 153.38 262.542 153.635 261.495L153.677 261.085L153.295 261.241C151.994 262.032 150.778 262.711 149.746 263.263L149.562 263.39L149.689 263.574C150.17 264.111 150.368 264.79 150.438 265.285C150.523 265.879 150.495 266.388 150.339 266.713C150.226 267.336 149.986 267.774 150.085 267.76Z" fill="#263238"/>
<path d="M138.673 254.338C138.673 254.338 139.168 254.268 140.03 253.942C140.992 253.603 142.237 253.122 143.778 252.599C145.419 252.062 147.229 251.298 149.251 250.605C150.312 250.252 151.358 249.799 152.518 249.432C153.678 249.064 154.809 248.499 156.025 248.527C157.228 248.456 158.246 249.22 158.981 250.125C159.716 251.03 160.169 252.077 160.621 253.123C161.512 255.118 162.092 257.055 162.516 258.611C162.94 260.166 163.336 261.524 163.562 262.401C163.789 263.278 163.958 263.758 163.958 263.758C163.958 263.758 163.888 263.264 163.746 262.274C163.619 261.383 163.322 260.011 162.898 258.455C162.46 256.8 161.894 254.962 161.088 252.855C160.636 251.808 160.183 250.762 159.434 249.758C159.066 249.305 158.585 248.768 158.034 248.442C157.482 248.117 156.747 247.919 156.139 247.905C154.823 247.89 153.593 248.47 152.433 248.838C151.288 249.305 150.227 249.658 149.181 250.11C147.172 250.902 145.249 251.581 143.722 252.203C142.293 252.811 141.049 253.292 140.087 253.631C139.139 254.07 138.673 254.338 138.673 254.338Z" fill="#263238"/>
<path d="M142.449 247.536C142.449 247.536 142.93 247.367 143.891 247.027C144.853 246.688 146.183 246.094 147.71 245.472C149.336 244.835 151.246 244.058 153.367 243.351C154.428 242.997 155.587 242.63 156.747 242.262C157.921 241.993 159.194 241.711 160.438 241.937C161.683 242.163 162.701 242.927 163.535 243.818C164.369 244.709 165.02 245.727 165.557 246.661C166.646 248.627 167.424 250.536 168.06 252.162C168.696 253.789 169.078 255.047 169.417 256.009C169.757 256.971 169.828 257.466 169.927 257.451C169.927 257.451 169.856 256.956 169.615 255.981C169.375 255.005 168.979 253.647 168.442 252.007C167.806 250.38 167.028 248.471 166.024 246.392C165.472 245.36 164.822 244.341 163.973 243.351C163.139 242.46 161.909 241.626 160.551 241.315C159.208 241.102 157.822 241.3 156.662 241.668C155.502 242.036 154.343 242.403 153.282 242.757C151.175 243.563 149.266 244.34 147.639 244.977C146.013 245.613 144.782 246.193 143.934 246.617C142.916 247.267 142.449 247.536 142.449 247.536Z" fill="#263238"/>
<path d="M131.729 252.401C131.842 252.485 133.073 251.199 135.053 250.209C137.018 249.12 138.8 248.865 138.772 248.667C138.758 248.568 136.849 248.639 134.784 249.742C132.818 250.831 131.616 252.316 131.729 252.401Z" fill="#263238"/>
<path d="M156.04 238.019C156.04 238.019 156.436 237.963 157.129 237.864C157.822 237.765 158.897 237.51 160.099 237.44C161.4 237.355 162.927 237.44 164.44 238.133C165.19 238.43 165.869 238.939 166.477 239.66C167.085 240.382 167.509 241.23 167.834 242.093C169.262 245.727 170.351 249.107 171.115 251.625C171.482 252.785 171.723 253.76 171.935 254.538C172.133 255.217 172.288 255.599 172.288 255.599C172.288 255.599 172.232 255.203 172.133 254.51C172.034 253.817 171.779 252.742 171.398 251.483C170.733 248.952 169.743 245.558 168.202 241.838C167.764 240.891 167.339 240.042 166.731 239.321C166.123 238.6 165.331 238.006 164.483 237.723C162.871 237.044 161.244 236.973 159.957 237.157C158.656 237.242 157.596 237.595 156.903 237.694C156.408 237.765 156.026 237.92 156.04 238.019Z" fill="#263238"/>
<path d="M142.59 243.576C142.605 243.675 144.16 243.251 145.97 242.488C147.781 241.724 149.195 241.017 149.181 240.918C149.167 240.819 147.611 241.243 145.801 242.007C143.877 242.686 142.463 243.393 142.59 243.576Z" fill="#263238"/>
<path d="M170.011 258.752C170.04 258.95 172.189 259.149 174.494 260.436C176.799 261.723 178.256 263.434 178.341 263.321C178.44 263.307 177.252 261.355 174.735 259.997C172.316 258.625 169.983 258.554 170.011 258.752Z" fill="#263238"/>
<path d="M173.646 253.789C173.66 253.888 174 254.142 174.848 254.425C175.598 254.722 176.743 254.963 178.016 254.68C179.303 254.496 180.335 253.945 180.986 253.549C181.637 253.153 182.089 252.785 181.976 252.7C181.849 252.517 180.208 253.761 177.945 254.185C175.584 254.623 173.731 253.676 173.646 253.789Z" fill="#263238"/>
<path d="M145.672 270.814C145.686 270.913 147.355 270.574 150.127 270.885C152.786 271.112 156.576 272.187 159.87 274.747C163.165 277.307 165.159 280.658 166.121 283.147C167.096 285.735 167.238 287.433 167.337 287.418C167.337 287.418 167.379 287.008 167.266 286.216C167.153 285.424 166.899 284.35 166.517 283.091C165.64 280.489 163.632 277.038 160.224 274.393C156.83 271.847 152.941 270.786 150.183 270.574C148.755 270.475 147.652 270.532 146.959 270.631C146.068 270.758 145.672 270.814 145.672 270.814Z" fill="#263238"/>
<path d="M145.176 300.584C145.19 300.683 146.208 300.739 147.919 300.697C149.63 300.654 151.907 300.329 154.311 299.481C156.716 298.633 158.78 297.53 160.166 296.625C161.552 295.72 162.245 294.913 162.245 294.913C162.231 294.814 161.411 295.437 159.926 296.356C158.54 297.261 156.461 298.265 154.156 299.099C151.738 299.848 149.475 300.273 147.877 300.4C146.18 300.541 145.161 300.485 145.176 300.584Z" fill="#263238"/>
<path d="M189.367 353.265L232.192 309.371C232.192 309.371 238.231 286.588 248.244 285.259L260.741 372.771L220.363 405.508C216.969 408.619 201.256 421.671 185.445 426.96C176.861 429.802 163.694 428.146 157.953 421.188C156.355 419.194 151.123 410.143 150.331 407.427C147.348 396.439 132.362 311.302 132.362 311.302L179.159 295.225L189.367 353.265Z" fill="#E0E0E0"/>
<path d="M191.428 408.024C191.428 408.024 191.499 407.812 191.754 407.472C191.994 407.034 192.235 406.596 192.546 405.945C192.701 405.62 192.942 405.181 193.097 404.856C193.338 404.418 193.479 403.993 193.706 403.456C194.073 402.494 194.625 401.406 195.035 400.034C195.247 399.397 195.459 398.761 195.657 398.026C195.856 397.29 196.054 396.555 196.252 395.819C196.747 394.335 197.001 392.581 197.27 390.926C197.779 387.419 198.133 383.53 197.95 379.415C197.766 375.299 197.116 371.453 196.211 367.945C195.758 366.192 195.334 364.636 194.712 363.109C194.401 362.345 194.203 361.666 193.906 361.001C193.609 360.337 193.312 359.672 193.029 359.106C192.549 357.862 191.898 356.844 191.46 355.896C191.191 355.429 191.021 354.948 190.767 354.581C190.512 354.213 190.258 353.845 190.116 353.562C189.735 353.011 189.452 352.445 189.197 352.077C188.943 351.71 188.83 351.625 188.83 351.625C188.83 351.625 188.858 351.823 189.112 352.191C189.367 352.558 189.65 353.124 189.932 353.69C190.088 354.072 190.328 354.34 190.597 354.807C190.852 355.175 191.021 355.656 191.29 356.122C191.728 357.07 192.379 358.088 192.761 359.347C193.043 359.912 193.241 360.591 193.538 361.256C193.835 361.921 194.047 362.698 194.245 363.377C194.754 364.82 195.193 366.474 195.645 368.228C196.437 371.651 197.087 375.497 197.271 379.613C197.454 383.728 197.2 387.603 196.676 391.011C196.322 392.779 196.153 394.419 195.658 395.904C195.46 396.64 195.262 397.375 195.064 398.11C194.866 398.846 194.653 399.482 194.441 400.119C194.116 401.377 193.564 402.466 193.211 403.527C192.984 404.064 192.843 404.488 192.701 404.913C192.56 405.337 192.305 405.676 192.15 406.002C191.839 406.652 191.612 407.189 191.471 407.614C191.4 407.826 191.329 408.038 191.428 408.024Z" fill="#263238"/>
<g opacity="0.3">
<path d="M195.403 396.244C197.355 388.692 197.624 385.623 197.638 378.651C197.554 371.693 194.797 361.581 191.318 355.613C201.924 366.927 207.24 384.351 203.322 399.355C202.785 401.25 201.879 403.4 199.928 403.881C198.259 404.22 196.562 402.947 195.926 401.321C195.205 399.808 194.936 397.927 195.403 396.244Z" fill="black"/>
</g>
<path d="M259.194 177.6C254.194 150.9 270.494 124.9 296.694 117.8L299.294 117.1C327.794 111.1 348.794 132 353.994 160.6L373.094 269.7L335.494 303L314.494 291C312.694 283 308.794 266.5 308.794 266.5C308.794 266.5 280.694 269.6 273.094 242.8C269.294 229.8 263.894 202.4 259.194 177.6Z" fill="white"/>
<path d="M308.794 266.5C308.794 266.5 326.094 262.9 341.094 246.6C341.094 246.6 338.194 269.2 310.594 274L308.794 266.5Z" fill="#263238"/>
<path d="M357.194 180.6C357.594 180.3 374.294 170.7 378.694 189.3C383.094 207.9 361.894 209.1 361.694 208.6C361.594 208.1 357.194 180.6 357.194 180.6Z" fill="white"/>
<path d="M367.394 199.6C367.494 199.5 367.794 199.7 368.394 199.9C368.994 200 369.894 200 370.794 199.4C372.594 198.2 373.494 194.7 372.794 191.3C372.394 189.6 371.694 188.1 370.794 186.9C369.894 185.7 368.794 184.9 367.794 185C366.794 185 366.194 185.8 366.094 186.3C365.994 186.9 366.194 187.2 366.094 187.3C366.094 187.4 365.594 187.1 365.594 186.3C365.594 185.9 365.694 185.4 366.094 185C366.494 184.5 367.094 184.2 367.794 184.1C369.294 183.9 370.894 184.9 371.894 186.2C372.994 187.5 373.894 189.2 374.294 191.1C375.094 194.9 373.994 198.8 371.494 200.2C370.294 200.9 369.094 200.7 368.394 200.4C367.494 200 367.294 199.6 367.394 199.6Z" fill="#263238"/>
<path d="M214.894 161.7C214.894 160.5 215.494 159.4 216.394 158.6C218.194 156.8 220.694 156.4 223.094 155.8C228.994 154.3 234.494 151.4 239.094 147.5C236.994 147 235.094 146.3 233.294 145.2C229.594 142.9 226.794 138.8 227.194 134.4C227.294 133.6 227.494 132.7 228.194 132.3C229.294 131.6 230.694 132.6 231.694 133.3C235.194 135.7 238.094 136.4 242.094 135C244.594 134.1 246.894 133 248.694 131.2C248.794 131.1 248.794 131 248.894 130.9C249.594 129.7 250.294 128.5 250.994 127.3C256.294 118.7 261.194 112.5 266.794 108.5C274.994 102.7 289.794 97.6001 299.894 97.8001C309.994 98.0001 320.294 103.6 323.894 113C328.094 107.2 336.094 105.4 343.194 106.4L343.294 106.3C351.094 107.1 356.994 113.8 360.894 120.6C361.094 121 361.294 121.4 361.494 121.7C364.894 125 368.994 127.5 373.394 128.8C374.194 129 375.094 129.3 375.394 130.1C375.694 130.9 375.194 131.7 374.594 132.3C373.194 133.9 371.394 135.2 369.394 136.1C370.494 137.7 371.694 139.2 372.994 140.6C374.094 141.8 375.494 143.2 375.094 144.8C374.794 146 373.494 146.8 372.294 146.9C370.994 147 369.794 146.6 368.594 146.2C369.894 147.9 371.094 149.7 372.394 151.4C369.894 152.5 367.194 152.9 364.494 152.8C364.594 160 366.494 173 365.894 178.1C360.994 179.4 359.694 179.1 357.394 180.5C354.394 182.3 356.994 187.7 352.494 187.1C350.194 186.8 344.994 179.5 343.694 177.5C335.494 164.2 330.194 149.2 328.294 133.7C324.594 131.2 320.294 129.5 315.994 128.6L316.394 128.8C308.194 128 298.994 127.4 292.594 132.7C287.694 136.8 285.794 143.4 282.694 149C276.894 159.7 268.994 166.5 257.394 169.8C258.294 178.3 261.194 191.7 262.594 199.5L252.094 186V186.1C251.394 185.3 250.694 184.5 250.094 183.7L249.894 183.5C248.894 182.2 247.894 180.9 246.694 179.7C246.694 179.7 246.694 179.8 246.594 179.8C243.294 184.5 235.894 180.3 238.094 175.1C238.494 174.1 239.094 173.1 239.894 172.2C238.394 174.4 235.794 176 233.094 175.8C230.394 175.6 227.894 173.6 227.494 170.9C227.194 169.1 228.094 167.2 229.494 166.1C226.194 167.2 222.594 167.3 219.294 166.3C217.194 165.6 214.894 164.3 214.894 161.7Z" fill="#263238"/>
<path d="M317.094 118.2C317.094 118.3 318.394 118.6 320.394 120C322.394 121.4 324.894 124 326.694 128C327.594 130 328.494 132.2 329.094 134.7C329.694 137.2 330.194 139.9 330.594 142.8C331.094 145.7 331.594 148.7 332.494 151.8C332.994 153.3 333.494 154.9 334.194 156.4C334.894 157.9 335.694 159.5 337.194 160.5C338.394 161.4 340.094 161.5 341.294 160.9C342.594 160.3 343.594 159.3 344.294 158.1C345.594 155.6 345.394 152.9 345.294 150.6L344.694 150.8C346.094 152.6 347.594 154.4 349.394 155.7C351.194 157 353.394 157.6 355.394 157.3C356.394 157.2 357.294 156.8 358.094 156.1C358.894 155.5 359.294 154.6 359.594 153.8C359.794 152.9 359.794 152 359.594 151.3C359.394 150.5 358.894 149.8 358.194 149.4L357.994 149.7C360.694 151.6 363.194 152.3 364.894 152.7C365.794 152.9 366.394 152.9 366.894 153C367.394 153 367.594 153 367.594 153C367.594 153 367.394 152.9 366.894 152.9C366.494 152.8 365.794 152.7 364.994 152.5C363.294 152.1 360.894 151.3 358.294 149.4L358.094 149.7C359.194 150.5 359.694 152.1 359.194 153.7C358.994 154.5 358.494 155.2 357.894 155.8C357.194 156.3 356.394 156.7 355.494 156.8C353.694 157.1 351.594 156.5 349.894 155.2C348.194 154 346.794 152.2 345.394 150.4L344.794 149.6V150.6C344.894 153 344.994 155.6 343.894 157.8C343.294 158.9 342.394 159.8 341.194 160.3C340.094 160.8 338.694 160.7 337.694 160C336.394 159.1 335.594 157.6 334.894 156.2C334.194 154.7 333.594 153.2 333.194 151.7C332.294 148.7 331.794 145.7 331.194 142.8C330.694 139.9 330.194 137.2 329.594 134.7C328.994 132.2 328.094 129.9 327.094 127.9C325.194 123.9 322.594 121.2 320.494 119.9C318.494 118.5 317.094 118.2 317.094 118.2Z" fill="#455A64"/>
<path d="M239.294 164.8C239.294 164.8 239.394 164.9 239.594 164.9C239.794 165 240.094 165.1 240.394 165.2C240.794 165.4 241.194 165.5 241.694 165.7C242.194 165.9 242.794 166.1 243.594 166.2C246.394 166.8 250.694 167 255.694 165.5C260.594 164 266.194 160.8 270.694 155.5C275.194 150.3 278.594 143.4 280.894 135.9C282.094 132.1 282.894 128.4 283.894 124.8C284.894 121.3 286.194 117.9 287.994 115.1C289.794 112.3 292.094 109.9 294.694 108.5C295.994 107.8 297.394 107.3 298.694 107C300.094 106.7 301.394 106.7 302.694 106.8C305.194 107 307.394 107.9 309.194 108.9C310.994 109.9 312.294 111.1 313.194 112.1C314.994 114.3 315.494 115.9 315.594 115.8C315.594 115.8 315.594 115.7 315.494 115.5C315.394 115.3 315.294 115 315.194 114.7C314.894 114 314.294 113 313.394 111.9C312.494 110.8 311.194 109.6 309.394 108.5C307.594 107.5 305.394 106.6 302.794 106.3C301.494 106.2 300.094 106.2 298.694 106.4C297.294 106.7 295.894 107.1 294.494 107.9C291.794 109.4 289.394 111.8 287.594 114.7C285.694 117.6 284.394 121 283.394 124.6C282.394 128.2 281.494 131.9 280.394 135.7C278.094 143.2 274.794 150 270.394 155.1C266.094 160.3 260.594 163.5 255.794 165C250.894 166.5 246.594 166.4 243.794 165.9C240.794 165.4 239.394 164.7 239.294 164.8Z" fill="#455A64"/>
<path d="M233.994 153.5C233.994 153.5 234.394 153.7 235.094 153.9C235.794 154.2 236.994 154.4 238.294 154.7C239.694 155 241.394 155.1 243.194 155.1C245.094 155.1 247.094 154.9 249.194 154.5C251.294 154.1 253.294 153.4 254.994 152.7C256.694 152 258.194 151.2 259.394 150.4C260.594 149.6 261.494 148.9 262.094 148.4C262.694 147.9 262.994 147.6 262.994 147.5C262.894 147.4 261.594 148.5 259.194 150C257.994 150.7 256.494 151.5 254.794 152.2C253.094 152.9 251.194 153.5 249.094 153.9C246.994 154.3 244.994 154.5 243.194 154.6C241.394 154.6 239.694 154.5 238.294 154.3C235.694 153.9 233.994 153.3 233.994 153.5Z" fill="#455A64"/>
<path d="M274.259 204.276C274.663 206.342 276.851 207.721 279.026 207.296C281.201 206.872 282.622 204.901 282.219 202.835C281.815 200.768 279.627 199.39 277.452 199.814C275.386 200.218 273.856 202.21 274.259 204.276Z" fill="#263238"/>
<path d="M265.677 194.438C266.327 194.875 268.796 191.91 272.994 190.864C277.192 189.818 280.858 191.247 281.187 190.618C281.362 190.358 280.627 189.486 279.044 188.892C277.439 188.189 274.985 187.765 272.309 188.514C269.721 189.132 267.649 190.666 266.666 191.987C265.661 193.199 265.417 194.263 265.677 194.438Z" fill="#263238"/>
<path d="M312.645 196.779C313.048 198.845 315.236 200.224 317.411 199.799C319.586 199.374 321.007 197.403 320.604 195.337C320.2 193.271 318.012 191.892 315.837 192.317C313.662 192.742 312.241 194.713 312.645 196.779Z" fill="#263238"/>
<path d="M307.503 185.478C308.152 185.916 310.621 182.95 314.82 181.904C319.018 180.858 322.684 182.287 323.013 181.658C323.188 181.398 322.453 180.526 320.869 179.932C319.264 179.23 316.811 178.806 314.135 179.554C311.546 180.173 309.475 181.706 308.491 183.027C307.486 184.239 307.243 185.303 307.503 185.478Z" fill="#263238"/>
<path d="M300.125 221.689C300.082 221.472 297.3 221.676 292.974 222.07C291.865 222.173 290.757 222.277 290.391 221.558C289.916 220.861 290.117 219.58 290.297 218.19C290.636 215.302 291.062 212.283 291.576 209.135C293.242 196.279 294.158 185.94 293.572 185.828C293.116 185.805 291.287 196.096 289.6 208.843C289.195 211.971 288.878 214.968 288.539 217.856C288.467 219.225 288.091 220.766 288.953 222.291C289.428 222.988 290.425 223.471 291.099 223.452C291.903 223.521 292.447 223.415 292.99 223.308C297.47 222.546 300.167 221.907 300.125 221.689Z" fill="#263238"/>
<path d="M302.932 172.485C303.797 173.445 307.565 171.355 312.613 170.03C317.53 168.618 321.919 168.551 322.229 167.249C322.341 166.662 321.28 165.854 319.282 165.453C317.285 165.053 314.439 164.932 311.437 165.744C308.435 166.556 306.016 168.045 304.597 169.451C303.178 170.857 302.63 172.093 302.932 172.485Z" fill="#263238"/>
<path d="M262.56 181.951C263.621 182.76 266.889 180.993 271.087 179.947C275.156 178.814 278.893 178.874 279.571 177.726C279.792 177.118 279.078 176.355 277.256 175.694C275.563 175.122 272.826 174.979 270.02 175.64C267.214 176.301 264.904 177.768 263.703 179.132C262.284 180.538 262.04 181.601 262.56 181.951Z" fill="#263238"/>
<path d="M314.01 221.686C313.358 221.814 314.207 226.164 310.996 229.952C307.893 233.719 303.133 234.197 303.13 234.762C303.085 235.109 304.387 235.419 306.345 235.037C308.323 234.764 311.023 233.559 312.946 231.264C314.868 228.97 315.337 226.169 315.215 224.386C314.984 222.625 314.336 221.623 314.01 221.686Z" fill="#263238"/>
<path d="M453.194 297.8C453.194 297.8 467.594 309.3 472.794 348.6C476.094 373.4 485.394 433.5 485.394 433.5L430.894 433.6C430.894 433.6 419.994 356 421.094 354.9C422.294 353.7 453.194 297.8 453.194 297.8Z" fill="#E0E0E0"/>
<path d="M247.594 283.8L308.894 275.9C308.894 275.9 320.494 294.4 343.094 290.8C374.894 285.7 374.094 263.3 374.094 263.3C374.094 263.3 426.994 281.5 437.294 286.1C447.494 290.7 453.194 297.8 453.194 297.8C453.194 297.8 434.394 370.8 433.794 371.7C433.194 372.6 429.694 434.4 430.994 433.7C431.594 433.4 258.394 433.7 255.494 433.7L250.294 360L240.5 293L247.594 283.8Z" fill="#E0E0E0"/>
<path d="M430.994 433.6C430.994 433.6 430.894 433.8 430.994 433.6C430.994 433.4 430.894 433.1 430.894 432.8C430.894 432 430.894 431 430.894 429.6C430.894 426.8 430.894 422.8 430.894 417.8C430.994 407.8 431.094 394 431.194 378.8C431.194 378.7 431.194 378.6 431.194 378.6C433.194 363.5 435.094 349.7 436.394 339.8C437.094 334.9 437.594 330.8 437.994 328C438.194 326.6 438.394 325.6 438.494 324.8C438.594 324.5 438.594 324.2 438.594 324C438.594 323.8 438.694 323.7 438.694 323.7C438.694 323.7 438.694 323.8 438.694 324C438.694 324.2 438.594 324.5 438.594 324.8C438.494 325.6 438.394 326.6 438.194 328C437.794 330.8 437.294 334.8 436.694 339.8C435.394 349.8 433.594 363.5 431.594 378.6C431.594 378.7 431.594 378.8 431.594 378.8C431.394 394 431.294 407.8 431.094 417.8C430.994 422.8 430.994 426.8 430.894 429.6C430.894 431 430.794 432 430.794 432.8C430.994 433.2 430.994 433.4 430.994 433.6C430.994 433.8 430.994 433.6 430.994 433.6Z" fill="#263238"/>
<path d="M335.094 313.4L320.894 433.3L362.294 433.5L344.394 313.4H335.094Z" fill="url(#paint27_linear_3959_72681)"/>
<path d="M302.794 276.2L308.194 266.5C308.194 266.5 339.394 290.2 338.994 290.7C338.994 290.7 371.794 255.1 372.294 254.6L379.594 265.4C379.594 265.4 350.594 302.7 350.294 303C349.794 303.4 332.094 299.8 332.094 299.8L316.994 292.7L302.794 276.2Z" fill="#E0E0E0"/>
<path d="M330.294 305.3L335.594 315.6H344.894L348.594 303.7L341.694 295.6H337.594L330.294 305.3Z" fill="url(#paint28_linear_3959_72681)"/>
<path d="M339.494 293C339.494 293 339.494 293.1 339.294 293.3C339.094 293.5 338.994 293.8 338.694 294.1C338.194 294.8 337.494 295.8 336.594 297.1C334.694 299.7 332.094 303.2 328.994 307.4L328.794 307.6L328.594 307.4C326.394 305 324.094 302.5 321.594 299.8C316.394 294.1 311.694 288.8 308.394 284.9C306.694 283 305.394 281.4 304.594 280.3C304.194 279.7 303.794 279.3 303.594 279C303.394 278.7 303.294 278.5 303.294 278.5C303.294 278.5 303.394 278.6 303.694 278.9C303.894 279.2 304.294 279.6 304.794 280.2C305.694 281.3 307.094 282.8 308.794 284.7C312.194 288.5 316.894 293.7 322.094 299.5C324.594 302.2 326.894 304.8 329.094 307.2H328.794C331.894 303.1 334.594 299.6 336.494 297C337.394 295.8 338.194 294.8 338.694 294.1C338.894 293.8 339.094 293.5 339.294 293.3C339.394 293.1 339.494 293 339.494 293Z" fill="#263238"/>
<path d="M379.994 267.7C380.394 267.8 378.294 271 374.794 275.8C371.294 280.6 366.194 287.1 360.594 294.2C357.094 298.7 353.694 302.8 350.894 306.4L350.694 306.6L350.494 306.4C347.194 302.5 344.394 299.2 342.494 296.8C341.594 295.7 340.794 294.7 340.294 294.1C340.094 293.8 339.894 293.6 339.694 293.4C339.594 293.2 339.494 293.1 339.494 293.1C339.494 293.1 339.594 293.2 339.694 293.3C339.894 293.5 340.094 293.7 340.294 294C340.894 294.7 341.694 295.5 342.594 296.6C344.594 298.9 347.394 302.2 350.794 306.1H350.494C353.394 302.5 356.694 298.3 360.194 293.9C365.794 286.8 370.894 280.3 374.494 275.6C378.094 270.8 380.194 267.8 379.994 267.7Z" fill="#263238"/>
<path d="M334.794 314.9C334.694 314.9 335.094 313.8 335.794 312.2C336.494 310.6 337.494 308.4 338.694 306C339.894 303.6 341.094 301.5 341.994 300C342.894 298.5 343.494 297.6 343.594 297.6C343.694 297.6 343.094 298.6 342.294 300.1C341.494 301.6 340.294 303.8 339.094 306.1C337.894 308.5 336.894 310.7 336.094 312.2C335.394 314 334.894 314.9 334.794 314.9Z" fill="#263238"/>
<path d="M344.694 315.5C344.694 315.6 342.494 315.7 339.794 315.7C337.094 315.7 334.894 315.6 334.894 315.5C334.894 315.4 337.094 315.3 339.794 315.3C342.494 315.2 344.694 315.3 344.694 315.5Z" fill="#263238"/>
<g opacity="0.3">
<path d="M306.494 282.3L330.294 311.3L341.694 295.4L339.494 293L328.894 307.2L306.494 282.3Z" fill="black"/>
</g>
<g opacity="0.3">
<path d="M341.694 295.4C342.894 297 348.594 312.8 350.794 313C352.994 313.2 378.094 270.9 378.094 270.9L350.694 306.1L341.694 295.4Z" fill="black"/>
</g>
<g opacity="0.3">
<path d="M434.894 433.7L433.094 368.4L431.694 378.8L430.894 433.6L434.894 433.7Z" fill="black"/>
</g>
<path d="M215.263 213.605L201.463 212.005C195.863 217.705 188.763 221.905 180.463 223.905C156.663 229.805 132.563 215.205 126.663 191.405C120.763 167.605 135.363 143.505 159.163 137.605C182.963 131.705 207.063 146.305 212.963 170.105C215.363 180.105 214.263 190.005 210.463 198.705L215.263 213.605Z" fill="white"/>
<path d="M215.263 213.605C215.263 213.605 215.163 213.305 214.963 212.605C214.763 211.905 214.463 211.005 213.963 209.805C213.163 207.305 211.863 203.605 210.263 198.805H210.463C210.463 198.905 210.363 198.905 210.263 198.805C210.163 198.805 210.163 198.705 210.263 198.605C212.563 193.305 214.663 185.805 213.863 177.005C213.663 174.805 213.363 172.505 212.763 170.205C212.063 167.905 211.463 165.605 210.363 163.305C208.363 158.705 205.463 154.105 201.563 150.105C197.663 146.105 192.763 142.605 187.163 140.205C181.563 137.805 175.263 136.505 168.763 136.605C155.763 136.705 141.963 143.405 133.763 155.205C129.563 161.205 126.763 168.005 125.963 175.005C125.063 182.005 125.863 188.905 127.963 195.205C130.063 201.505 133.663 207.005 138.063 211.505C142.363 215.905 147.463 219.305 152.663 221.505C157.863 223.705 163.263 224.805 168.363 224.905C168.963 224.905 169.663 224.905 170.263 224.905C170.863 224.905 171.463 224.905 172.163 224.805C173.363 224.705 174.563 224.605 175.763 224.505C178.063 224.005 180.363 223.705 182.463 223.005C190.963 220.405 197.163 215.805 201.163 211.805H201.263C205.763 212.405 209.163 212.805 211.463 213.105C212.663 213.205 213.463 213.405 214.163 213.405C214.963 213.605 215.263 213.605 215.263 213.605C215.263 213.605 214.963 213.605 214.363 213.505C213.763 213.405 212.863 213.305 211.763 213.205C209.363 212.905 205.963 212.605 201.363 212.105H201.463C197.463 216.205 191.263 220.905 182.763 223.505C180.663 224.205 178.363 224.505 175.963 225.005C174.763 225.105 173.563 225.205 172.263 225.305C171.663 225.405 171.063 225.405 170.363 225.405C169.763 225.405 169.063 225.405 168.463 225.405C163.363 225.305 157.863 224.205 152.563 222.005C147.263 219.805 142.063 216.405 137.663 211.905C133.263 207.405 129.663 201.805 127.463 195.405C125.263 189.005 124.463 182.005 125.363 174.905C126.163 167.805 128.963 160.905 133.263 154.805C133.763 154.005 134.363 153.305 134.863 152.605L136.563 150.505L138.463 148.605C139.063 148.005 139.763 147.305 140.463 146.805C141.163 146.205 141.863 145.705 142.563 145.105C143.263 144.505 143.963 144.105 144.763 143.605C145.463 143.105 146.163 142.605 146.963 142.205C147.763 141.805 148.463 141.405 149.263 141.005C155.463 137.805 162.263 136.105 168.863 136.005C175.463 135.905 181.863 137.205 187.563 139.705C193.263 142.205 198.163 145.705 202.063 149.805C205.963 153.905 208.963 158.505 210.863 163.205C211.963 165.505 212.563 167.905 213.263 170.205C213.863 172.505 214.163 174.805 214.363 177.005C215.063 185.905 212.963 193.405 210.563 198.705L210.363 198.605C210.363 198.505 210.463 198.505 210.563 198.605C210.563 198.605 210.563 198.605 210.563 198.705C212.063 203.505 213.263 207.305 214.063 209.805C214.463 211.005 214.763 212.005 214.963 212.605C215.163 213.305 215.263 213.605 215.263 213.605Z" fill="#263238"/>
<path d="M148.663 182.505L154.163 176.605L165.363 186.005L186.163 164.605L191.663 170.105L164.963 196.905L148.663 182.505Z" fill="url(#paint29_linear_3959_72681)"/>
<defs>
<linearGradient id="paint0_linear_3959_72681" x1="518.9" y1="242.153" x2="556.157" y2="242.153" gradientUnits="userSpaceOnUse">
<stop stop-color="#43D9BB"/>
<stop offset="1" stop-color="#0299ED"/>
</linearGradient>
<linearGradient id="paint1_linear_3959_72681" x1="394" y1="79.5168" x2="549.124" y2="79.5168" gradientUnits="userSpaceOnUse">
<stop stop-color="#43D9BB"/>
<stop offset="1" stop-color="#0299ED"/>
</linearGradient>
<linearGradient id="paint2_linear_3959_72681" x1="437" y1="134.15" x2="444.367" y2="134.15" gradientUnits="userSpaceOnUse">
<stop stop-color="#43D9BB"/>
<stop offset="1" stop-color="#0299ED"/>
</linearGradient>
<linearGradient id="paint3_linear_3959_72681" x1="156.6" y1="272.8" x2="163.035" y2="272.8" gradientUnits="userSpaceOnUse">
<stop stop-color="#43D9BB"/>
<stop offset="1" stop-color="#0299ED"/>
</linearGradient>
<linearGradient id="paint4_linear_3959_72681" x1="171.3" y1="282.3" x2="177.736" y2="282.3" gradientUnits="userSpaceOnUse">
<stop stop-color="#43D9BB"/>
<stop offset="1" stop-color="#0299ED"/>
</linearGradient>
<linearGradient id="paint5_linear_3959_72681" x1="186" y1="276.35" x2="192.435" y2="276.35" gradientUnits="userSpaceOnUse">
<stop stop-color="#43D9BB"/>
<stop offset="1" stop-color="#0299ED"/>
</linearGradient>
<linearGradient id="paint6_linear_3959_72681" x1="200.7" y1="273.9" x2="207.135" y2="273.9" gradientUnits="userSpaceOnUse">
<stop stop-color="#43D9BB"/>
<stop offset="1" stop-color="#0299ED"/>
</linearGradient>
<linearGradient id="paint7_linear_3959_72681" x1="215.5" y1="282.85" x2="221.935" y2="282.85" gradientUnits="userSpaceOnUse">
<stop stop-color="#43D9BB"/>
<stop offset="1" stop-color="#0299ED"/>
</linearGradient>
<linearGradient id="paint8_linear_3959_72681" x1="230.2" y1="286.35" x2="236.635" y2="286.35" gradientUnits="userSpaceOnUse">
<stop stop-color="#43D9BB"/>
<stop offset="1" stop-color="#0299ED"/>
</linearGradient>
<linearGradient id="paint9_linear_3959_72681" x1="244.9" y1="275.65" x2="251.335" y2="275.65" gradientUnits="userSpaceOnUse">
<stop stop-color="#43D9BB"/>
<stop offset="1" stop-color="#0299ED"/>
</linearGradient>
<linearGradient id="paint10_linear_3959_72681" x1="259.6" y1="280.2" x2="266.035" y2="280.2" gradientUnits="userSpaceOnUse">
<stop stop-color="#43D9BB"/>
<stop offset="1" stop-color="#0299ED"/>
</linearGradient>
<linearGradient id="paint11_linear_3959_72681" x1="274.3" y1="276.6" x2="280.736" y2="276.6" gradientUnits="userSpaceOnUse">
<stop stop-color="#43D9BB"/>
<stop offset="1" stop-color="#0299ED"/>
</linearGradient>
<linearGradient id="paint12_linear_3959_72681" x1="289" y1="284.25" x2="295.435" y2="284.25" gradientUnits="userSpaceOnUse">
<stop stop-color="#43D9BB"/>
<stop offset="1" stop-color="#0299ED"/>
</linearGradient>
<linearGradient id="paint13_linear_3959_72681" x1="19.3999" y1="182.9" x2="63.9388" y2="182.9" gradientUnits="userSpaceOnUse">
<stop stop-color="#43D9BB"/>
<stop offset="1" stop-color="#0299ED"/>
</linearGradient>
<linearGradient id="paint14_linear_3959_72681" x1="123.4" y1="69.997" x2="163.282" y2="69.997" gradientUnits="userSpaceOnUse">
<stop stop-color="#43D9BB"/>
<stop offset="1" stop-color="#0299ED"/>
</linearGradient>
<linearGradient id="paint15_linear_3959_72681" x1="148.1" y1="164.2" x2="153.858" y2="164.2" gradientUnits="userSpaceOnUse">
<stop stop-color="#43D9BB"/>
<stop offset="1" stop-color="#0299ED"/>
</linearGradient>
<linearGradient id="paint16_linear_3959_72681" x1="274.7" y1="215" x2="286.301" y2="215" gradientUnits="userSpaceOnUse">
<stop stop-color="#43D9BB"/>
<stop offset="1" stop-color="#0299ED"/>
</linearGradient>
<linearGradient id="paint17_linear_3959_72681" x1="347.9" y1="200.55" x2="359.5" y2="200.55" gradientUnits="userSpaceOnUse">
<stop stop-color="#43D9BB"/>
<stop offset="1" stop-color="#0299ED"/>
</linearGradient>
<linearGradient id="paint18_linear_3959_72681" x1="289.3" y1="245.8" x2="294.381" y2="245.8" gradientUnits="userSpaceOnUse">
<stop stop-color="#43D9BB"/>
<stop offset="1" stop-color="#0299ED"/>
</linearGradient>
<linearGradient id="paint19_linear_3959_72681" x1="361.295" y1="112.2" x2="391.189" y2="112.2" gradientUnits="userSpaceOnUse">
<stop stop-color="#43D9BB"/>
<stop offset="1" stop-color="#0299ED"/>
</linearGradient>
<linearGradient id="paint20_linear_3959_72681" x1="168.101" y1="109.819" x2="190.747" y2="109.819" gradientUnits="userSpaceOnUse">
<stop stop-color="#43D9BB"/>
<stop offset="1" stop-color="#0299ED"/>
</linearGradient>
<linearGradient id="paint21_linear_3959_72681" x1="88" y1="192.87" x2="100.824" y2="192.87" gradientUnits="userSpaceOnUse">
<stop stop-color="#43D9BB"/>
<stop offset="1" stop-color="#0299ED"/>
</linearGradient>
<linearGradient id="paint22_linear_3959_72681" x1="374.454" y1="89.2457" x2="387.204" y2="89.2457" gradientUnits="userSpaceOnUse">
<stop stop-color="#43D9BB"/>
<stop offset="1" stop-color="#0299ED"/>
</linearGradient>
<linearGradient id="paint23_linear_3959_72681" x1="450.639" y1="292.989" x2="463.522" y2="292.989" gradientUnits="userSpaceOnUse">
<stop stop-color="#43D9BB"/>
<stop offset="1" stop-color="#0299ED"/>
</linearGradient>
<linearGradient id="paint24_linear_3959_72681" x1="440.266" y1="190.21" x2="447.979" y2="190.21" gradientUnits="userSpaceOnUse">
<stop stop-color="#43D9BB"/>
<stop offset="1" stop-color="#0299ED"/>
</linearGradient>
<linearGradient id="paint25_linear_3959_72681" x1="220.267" y1="206.072" x2="228.1" y2="206.072" gradientUnits="userSpaceOnUse">
<stop stop-color="#43D9BB"/>
<stop offset="1" stop-color="#0299ED"/>
</linearGradient>
<linearGradient id="paint26_linear_3959_72681" x1="337" y1="228.158" x2="356.225" y2="228.158" gradientUnits="userSpaceOnUse">
<stop stop-color="#43D9BB"/>
<stop offset="1" stop-color="#0299ED"/>
</linearGradient>
<linearGradient id="paint27_linear_3959_72681" x1="320.894" y1="373.45" x2="355.949" y2="373.45" gradientUnits="userSpaceOnUse">
<stop stop-color="#43D9BB"/>
<stop offset="1" stop-color="#0299ED"/>
</linearGradient>
<linearGradient id="paint28_linear_3959_72681" x1="330.294" y1="305.6" x2="345.789" y2="305.6" gradientUnits="userSpaceOnUse">
<stop stop-color="#43D9BB"/>
<stop offset="1" stop-color="#0299ED"/>
</linearGradient>
<linearGradient id="paint29_linear_3959_72681" x1="148.663" y1="180.755" x2="185.073" y2="180.755" gradientUnits="userSpaceOnUse">
<stop stop-color="#43D9BB"/>
<stop offset="1" stop-color="#0299ED"/>
</linearGradient>
</defs>
</svg>
