<svg width="663" height="402" viewBox="0 0 663 402" fill="none" xmlns="http://www.w3.org/2000/svg">
<g opacity="0.1">
<path d="M236.379 340.269C237.26 341.325 238.053 342.47 238.845 343.615C239.197 344.143 239.638 344.76 239.99 345.288C240.342 345.816 240.782 346.345 241.135 346.873C242.72 348.986 244.129 351.276 245.45 353.389C246.858 355.415 248.091 357.528 249.324 359.466C249.588 359.994 249.941 360.434 250.205 360.962C250.469 361.403 250.821 361.931 251.085 362.371C251.614 363.34 252.142 364.221 252.67 365.013C253.639 366.774 254.608 368.359 255.4 369.856C256.193 371.265 256.897 372.498 257.426 373.555C258.482 375.58 259.099 376.813 259.099 376.813C259.099 376.813 258.57 376.549 257.69 375.932C256.809 375.404 255.488 374.612 253.903 373.555C252.406 372.498 250.557 371.265 248.62 369.856C248.179 369.504 247.651 369.152 247.123 368.8C246.594 368.448 246.154 368.007 245.626 367.655C244.657 366.862 243.6 365.982 242.632 365.189C240.606 363.604 238.581 361.667 236.732 359.818C235.763 358.849 234.794 357.968 234.002 357.088C233.121 356.119 232.329 355.151 231.536 354.27C228.366 350.66 226.165 347.137 225.196 344.848C224.315 342.558 223.435 339.564 222.642 336.746C222.29 335.337 221.85 333.928 221.586 332.431C221.233 331.022 220.969 329.614 220.705 328.293C220.177 325.651 219.824 323.449 219.56 321.688C219.384 320.015 219.208 319.047 219.208 319.047C219.208 319.047 220.089 319.575 221.586 320.455C223.171 321.336 225.284 322.569 227.662 323.978C228.894 324.682 230.215 325.387 231.536 326.179C232.241 326.62 232.857 326.972 233.562 327.412C234.266 327.764 234.971 328.205 235.675 328.557C237.084 329.349 238.493 330.23 239.814 331.111C241.223 331.903 242.544 332.784 243.864 333.664C245.097 334.545 246.33 335.602 247.299 336.746C248.355 337.979 249.236 339.3 250.029 340.709C251.702 343.439 252.935 346.697 253.903 349.691C254.872 352.685 255.664 355.415 256.105 357.44C256.545 359.465 256.809 360.786 256.809 360.786C257.073 363.252 257.337 365.63 257.602 368.007C252.142 360.698 246.594 354.006 242.72 348.722C241.751 347.401 240.782 346.257 239.99 345.288C239.197 344.231 238.493 343.263 237.965 342.558C236.996 341.149 236.379 340.269 236.379 340.269Z" fill="white"/>
<path d="M213.485 384.65C215.158 385.003 216.743 385.355 218.328 385.707C219.12 385.883 219.913 385.971 220.706 386.059C221.498 386.147 222.291 386.235 222.995 386.323C226.077 386.588 228.983 386.764 231.713 386.588C234.443 386.412 237.084 386.147 239.462 385.883C240.078 385.795 240.607 385.707 241.223 385.619C241.752 385.531 242.368 385.355 242.896 385.267C243.953 385.003 245.01 384.738 245.978 384.474C247.916 383.946 249.677 383.418 251.174 382.889C252.671 382.361 253.992 381.744 255.048 381.304C257.162 380.335 258.219 379.719 258.219 379.719C258.219 379.719 257.602 379.631 256.546 379.543C255.489 379.367 253.992 379.279 252.143 379.015C250.293 378.75 248.092 378.398 245.714 377.958C245.098 377.87 244.481 377.782 243.865 377.694C243.249 377.606 242.632 377.43 242.016 377.341C240.695 377.077 239.462 376.813 238.053 376.549C235.323 376.109 232.682 375.404 229.952 374.788C228.631 374.436 227.222 374.259 225.901 373.907C224.58 373.555 223.347 373.291 222.114 372.939C217.095 371.882 212.868 370.825 210.227 370.825C207.585 370.913 204.503 370.825 201.333 370.825C199.748 370.825 198.162 370.825 196.577 370.737C194.992 370.649 193.495 370.561 191.998 370.561C189.092 370.385 186.451 370.297 184.601 370.121C182.752 369.945 181.607 369.856 181.607 369.856C181.607 369.856 182.576 371.001 184.249 372.85C186.01 374.612 188.476 377.165 191.47 379.983C197.546 385.443 205.824 391.959 213.749 395.922C215.686 396.979 217.8 397.595 219.825 398.035C221.85 398.476 223.876 398.652 225.813 398.652C229.776 398.476 233.474 397.683 236.644 396.538C239.814 395.394 242.456 393.897 244.217 392.752C246.066 391.607 247.035 390.814 247.035 390.814C248.796 389.229 250.469 387.556 252.143 385.795L250.381 386.147L248.708 386.412C247.563 386.588 246.419 386.676 245.274 386.852C242.984 387.116 240.607 387.292 238.405 387.292C236.204 387.292 234.002 387.292 231.889 387.204C229.776 387.116 227.838 386.852 225.901 386.676C224.052 386.5 222.291 386.235 220.794 386.059C219.297 385.795 217.976 385.531 216.831 385.267C214.806 385.003 213.485 384.65 213.485 384.65Z" fill="white"/>
<path d="M202.125 313.851C204.15 318.782 205.912 323.626 207.32 328.205C208.817 332.696 209.962 337.098 211.019 340.709C211.988 344.407 212.692 347.578 213.22 349.691C213.749 351.892 213.925 353.125 213.925 353.125C213.925 353.125 213.573 352.685 212.868 351.98C212.164 351.188 211.195 350.219 210.05 348.81C208.906 347.401 207.673 345.816 206.264 343.967C205.559 343.087 204.855 342.118 204.15 341.149C203.446 340.181 202.741 339.124 202.037 338.067C196.313 329.702 191.47 319.663 191.03 314.82C190.942 313.587 190.765 312.354 190.677 311.033C190.589 309.712 190.589 308.303 190.589 306.894C190.589 304.076 190.501 301.347 190.765 298.793C190.942 296.239 191.118 294.038 191.206 292.541C191.294 290.956 191.47 290.075 191.47 290.075C191.47 290.075 191.646 290.251 191.998 290.603C192.35 290.956 192.791 291.396 193.407 292.012C194.024 292.629 194.728 293.333 195.521 294.126C196.313 294.918 197.194 295.887 198.162 296.856C199.131 297.824 200.188 298.881 201.156 299.938C201.421 300.202 201.685 300.466 201.949 300.73C202.213 300.994 202.477 301.259 202.741 301.523C203.27 302.051 203.798 302.668 204.415 303.196C206.528 305.485 208.817 307.775 210.667 310.064C210.931 310.329 211.107 310.681 211.371 310.945C211.635 311.209 211.811 311.561 211.988 311.826C212.428 312.442 212.78 313.147 213.044 313.763C213.661 315.172 214.189 316.581 214.541 318.166C215.422 321.16 215.774 324.33 215.95 327.324C216.126 330.318 216.126 332.96 216.126 334.985C216.038 336.922 215.95 338.243 215.95 338.243C215.598 340.445 215.246 342.734 214.894 345.024C208.729 330.054 202.125 313.851 202.125 313.851Z" fill="white"/>
<path d="M175.884 275.81C177.204 286.465 177.469 296.591 177.469 304.341C177.469 308.127 177.293 311.385 177.204 313.675C177.116 315.876 177.028 317.197 177.028 317.197C177.028 317.197 176.764 316.669 176.324 315.788C175.884 314.908 175.267 313.499 174.475 311.826C173.77 310.153 172.89 308.215 172.009 306.102C171.216 303.9 170.336 301.523 169.455 299.145C168.663 296.68 167.958 294.126 167.254 291.66C166.902 290.427 166.637 289.195 166.373 287.962C166.109 286.729 165.845 285.584 165.669 284.439C165.493 283.295 165.228 282.238 165.14 281.181C165.052 280.124 164.964 279.068 164.876 278.187C164.788 276.338 164.788 274.753 164.964 273.608C165.316 271.231 165.933 268.501 166.637 265.771C167.254 263.129 168.134 260.399 168.927 258.022C169.719 255.644 170.424 253.619 171.04 252.21C171.657 250.801 172.009 249.92 172.009 249.92C172.009 249.92 172.449 250.801 173.242 252.386C174.122 253.883 175.267 255.996 176.5 258.462C179.23 263.305 182.488 269.557 185.13 275.017C187.595 280.565 186.891 287.433 185.746 293.245C185.13 296.151 184.425 298.793 183.897 300.642C183.369 302.491 182.928 303.636 182.928 303.636C181.96 305.662 181.079 307.687 180.198 309.8C179.758 305.397 179.142 301.171 178.701 297.208C178.437 295.271 178.173 293.333 177.909 291.484C177.733 289.635 177.469 287.962 177.292 286.377C176.852 283.295 176.588 280.653 176.412 278.892C176.06 276.866 175.884 275.81 175.884 275.81Z" fill="white"/>
<path d="M172.009 348.458C173.418 349.251 174.739 349.955 176.059 350.66C177.38 351.364 178.789 351.892 180.11 352.421C182.84 353.477 185.306 354.446 187.859 355.063C190.325 355.679 192.703 356.207 194.904 356.56C197.106 356.912 199.219 357 201.068 357.088C202.917 357.176 204.679 357.176 206.088 357.088C207.585 357 208.905 356.824 209.962 356.736C212.076 356.471 213.22 356.207 213.22 356.207C213.22 356.207 211.195 355.327 207.937 353.83C204.855 352.245 200.452 350.219 195.873 347.754C194.728 347.137 193.583 346.521 192.438 345.904C191.294 345.288 190.149 344.584 189.004 343.967C186.715 342.646 184.425 341.501 182.312 340.269C180.198 339.036 178.261 337.979 176.5 337.187C174.827 336.306 173.33 335.602 172.097 335.249C169.719 334.545 166.901 333.84 164.083 332.96C161.266 332.079 158.272 331.199 155.718 330.318C150.61 328.557 146.472 327.06 146.472 327.06C146.472 327.06 147.176 328.293 148.233 330.406C149.378 332.519 150.963 335.513 153.076 338.684C154.133 340.269 155.278 342.03 156.51 343.791C157.743 345.552 159.152 347.313 160.473 349.075C161.178 349.955 161.882 350.836 162.586 351.716C163.291 352.597 164.083 353.389 164.788 354.182C166.285 355.855 167.782 357.352 169.367 358.849C170.952 360.258 172.625 361.403 174.298 362.371C176.059 363.252 177.733 364.045 179.582 364.485C183.192 365.453 186.627 365.718 189.797 365.542C196.049 365.101 200.452 363.34 200.452 363.34C202.389 362.371 204.326 361.315 206.264 360.258C204.062 360.082 201.949 359.73 199.835 359.289C197.722 358.849 195.609 358.409 193.583 357.792C191.558 357.176 189.621 356.56 187.771 355.943C186.803 355.591 185.922 355.327 185.041 354.974C184.161 354.622 183.368 354.27 182.576 353.918C179.406 352.509 176.588 351.276 174.827 350.219C173.065 349.075 172.009 348.458 172.009 348.458Z" fill="white"/>
<path d="M137.137 298.177C139.426 300.554 141.628 302.668 143.829 304.605C146.119 306.454 148.408 308.127 150.61 309.536C151.138 309.888 151.667 310.241 152.195 310.593C152.723 310.945 153.34 311.209 153.868 311.473C154.925 312.09 155.981 312.618 157.038 313.147C159.064 314.115 160.913 314.996 162.762 315.612C166.372 316.933 169.366 317.638 171.392 318.078C173.505 318.43 174.65 318.518 174.65 318.518C174.65 318.518 174.21 318.166 173.417 317.461C172.625 316.845 171.568 315.788 170.247 314.555C168.926 313.323 167.341 311.914 165.668 310.241C163.995 308.567 162.146 306.806 160.296 304.957C158.447 303.02 156.598 301.082 154.749 299.145C152.899 297.208 151.138 295.271 149.377 293.421C147.616 291.66 146.119 289.987 144.71 288.578C143.301 287.169 141.98 286.112 140.923 285.408C136.873 282.59 131.149 278.804 126.658 275.457C124.368 273.784 122.343 272.287 120.934 271.142C119.525 269.998 118.645 269.381 118.645 269.381C118.645 269.381 118.909 270.79 119.349 273.168C119.877 275.545 120.758 278.804 121.815 282.678C122.343 284.615 123.047 286.553 123.752 288.666C124.456 290.692 125.161 292.893 126.13 295.006C127.01 297.12 127.979 299.233 128.947 301.259C129.916 303.284 131.061 305.221 132.118 307.159C134.231 310.945 137.225 313.675 140.395 315.788C141.188 316.317 141.98 316.757 142.773 317.197C143.565 317.638 144.358 317.99 145.238 318.342C146.823 319.046 148.408 319.575 149.905 319.927C151.402 320.367 152.811 320.632 154.132 320.808C155.453 320.984 156.598 321.072 157.567 321.16C159.504 321.248 160.737 321.16 160.737 321.16C162.85 320.808 164.963 320.455 167.077 320.103C165.14 319.223 163.114 318.254 161.177 317.197C159.24 316.141 157.39 314.996 155.629 313.763C153.868 312.53 152.019 311.385 150.522 310.153C148.937 308.92 147.44 307.687 146.031 306.542C145.326 305.926 144.71 305.397 144.094 304.869C143.477 304.341 142.949 303.812 142.42 303.284C141.364 302.227 140.395 301.347 139.691 300.554C138.017 299.057 137.137 298.177 137.137 298.177Z" fill="white"/>
<path d="M161.002 232.837C159.505 243.492 157.304 253.267 155.19 260.664C154.222 264.362 153.341 267.356 152.637 269.557C152.02 271.671 151.58 272.816 151.58 272.816C151.58 272.816 151.492 272.199 151.228 271.231C150.964 270.262 150.787 268.677 150.435 266.916C150.171 265.066 149.819 262.953 149.555 260.664C149.29 258.286 149.114 255.82 148.85 253.179C148.674 250.537 148.674 247.895 148.586 245.341C148.586 242.788 148.762 240.234 148.938 237.856C149.114 235.567 149.467 233.365 149.819 231.604C150.171 229.755 150.611 228.258 151.052 227.201C153.077 222.886 156.071 217.515 158.889 213.464C160.298 211.439 161.443 209.677 162.411 208.533C163.38 207.3 163.908 206.595 163.908 206.595C163.908 206.595 164.172 207.652 164.437 209.325C164.877 210.998 165.405 213.376 166.022 216.106C167.342 221.565 168.928 228.434 169.984 234.51C170.425 237.592 170.16 240.586 169.28 243.668C169.104 244.461 168.839 245.165 168.575 245.958C168.311 246.662 168.047 247.455 167.783 248.159C167.254 249.568 166.55 250.977 165.934 252.298C165.317 253.619 164.613 254.852 163.996 255.908C163.38 256.965 162.851 258.022 162.323 258.814C161.354 260.487 160.65 261.456 160.65 261.456C159.241 263.129 157.832 264.802 156.423 266.563C157.128 262.249 157.568 258.022 158.184 253.971C158.449 251.946 158.625 250.096 158.889 248.335C159.153 246.486 159.417 244.813 159.593 243.316C159.681 242.523 159.769 241.819 159.857 241.114C159.946 240.41 160.034 239.706 160.21 239.089C160.386 237.856 160.562 236.712 160.65 235.831C160.914 233.894 161.002 232.837 161.002 232.837Z" fill="white"/>
<path d="M118.116 242.611C119.613 245.605 121.286 248.335 122.959 250.801C124.632 253.266 126.481 255.556 128.154 257.581C129.828 259.607 131.677 261.368 133.438 262.953C135.199 264.538 136.784 265.947 138.369 267.092C141.539 269.381 144.181 270.966 146.03 272.023C146.999 272.551 147.703 272.904 148.232 273.08C148.76 273.344 149.024 273.432 149.024 273.432C149.024 273.432 148.672 272.904 148.144 272.111C147.527 271.23 146.823 269.91 145.854 268.413C145.414 267.62 144.886 266.739 144.269 265.859C143.741 264.978 143.124 264.01 142.508 262.953C141.275 260.84 140.042 258.55 138.721 256.26C137.489 253.883 136.168 251.417 134.847 249.04C133.614 246.574 132.381 244.196 131.148 241.995C129.916 239.793 128.947 237.68 127.89 235.919C126.922 234.158 125.953 232.661 125.072 231.692C123.487 229.667 121.55 227.377 119.613 225L118.116 223.15C117.675 222.534 117.147 221.918 116.707 221.301C115.738 220.068 114.858 218.835 113.977 217.779C112.216 215.489 110.631 213.464 109.662 211.879C108.605 210.382 107.989 209.413 107.989 209.413C107.989 209.413 107.901 210.822 107.725 213.288C107.637 215.753 107.637 219.188 107.637 223.15C107.637 225.176 107.813 227.289 107.989 229.491C108.077 230.635 108.165 231.692 108.253 232.837C108.341 233.982 108.429 235.126 108.605 236.271C108.958 238.561 109.31 240.938 109.662 243.14C109.75 243.668 109.838 244.284 110.014 244.813C110.102 245.341 110.278 245.958 110.367 246.486C110.631 247.631 110.895 248.687 111.159 249.744C111.775 251.858 112.48 253.883 113.537 255.644C114.505 257.405 115.738 259.078 116.971 260.575C119.349 263.569 122.343 265.771 124.984 267.444C126.305 268.325 127.626 269.029 128.771 269.557C129.916 270.174 131.06 270.526 132.029 270.878C133.878 271.583 135.023 271.847 135.023 271.847C137.136 272.199 139.25 272.463 141.363 272.727C139.69 271.319 138.017 269.733 136.432 268.148C134.847 266.563 133.35 264.89 131.941 263.217C129.035 259.871 126.657 256.437 124.544 253.355C123.487 251.858 122.607 250.361 121.814 249.04C121.022 247.719 120.405 246.574 119.877 245.605C119.349 244.637 118.908 243.844 118.644 243.316C118.204 242.876 118.116 242.611 118.116 242.611Z" fill="white"/>
<path d="M157.831 187.222C153.604 196.909 148.937 205.627 145.062 212.055C143.213 215.313 141.54 217.955 140.307 219.804C139.162 221.653 138.458 222.622 138.458 222.622C138.458 222.622 138.458 222.006 138.546 220.949C138.546 219.892 138.81 218.395 138.986 216.546C139.162 214.697 139.339 212.583 139.691 210.294C140.043 208.004 140.483 205.451 140.924 202.897C141.452 200.343 142.156 197.789 142.773 195.324C143.037 194.091 143.477 192.858 143.83 191.713C144.182 190.569 144.622 189.424 144.974 188.279C145.327 187.222 145.767 186.166 146.119 185.197C146.559 184.228 147 183.348 147.352 182.555C148.144 180.882 148.937 179.649 149.73 178.681C150.434 177.8 151.315 176.831 152.195 175.951C153.076 174.982 154.044 174.102 155.013 173.133C155.982 172.164 156.95 171.284 157.919 170.403C158.888 169.523 159.856 168.73 160.825 167.938C162.674 166.441 164.259 165.12 165.492 164.239C166.108 163.799 166.549 163.447 166.901 163.182C167.253 162.918 167.429 162.83 167.429 162.83C167.429 162.83 167.429 163.094 167.429 163.535C167.429 163.975 167.341 164.679 167.341 165.56C167.341 167.321 167.165 169.787 167.077 172.605C167.077 174.014 166.989 175.511 166.901 177.096C166.813 177.888 166.813 178.681 166.725 179.473C166.725 180.266 166.725 181.058 166.637 181.939C166.549 183.524 166.461 185.197 166.373 186.782C166.285 188.367 166.197 189.952 166.02 191.537C165.668 194.619 164.611 197.437 163.026 200.079C162.586 200.695 162.234 201.4 161.794 202.016C161.353 202.633 160.913 203.249 160.473 203.866C159.592 205.098 158.623 206.155 157.655 207.212C156.686 208.268 155.718 209.237 154.837 210.118C153.956 210.998 153.164 211.703 152.459 212.407C151.05 213.64 150.17 214.345 150.17 214.345C148.409 215.489 146.647 216.722 144.798 217.955C145.679 216.018 146.559 213.992 147.352 212.055L147.968 210.646C148.144 210.206 148.409 209.677 148.585 209.237C149.025 208.268 149.377 207.388 149.818 206.419C150.61 204.57 151.227 202.897 152.019 201.224C152.724 199.551 153.428 198.054 154.044 196.557C155.189 193.739 156.334 191.361 157.038 189.688C157.479 188.191 157.831 187.222 157.831 187.222Z" fill="white"/>
<path d="M114.154 183.348C114.859 186.694 115.739 189.776 116.62 192.682C117.588 195.588 118.733 198.318 119.878 200.783C120.935 203.249 122.256 205.539 123.488 207.564C124.721 209.589 125.866 211.439 127.099 213.024C129.564 216.194 131.678 218.571 133.175 220.068C133.967 220.861 134.584 221.389 135.024 221.83C135.464 222.182 135.729 222.446 135.729 222.446C135.729 222.446 135.552 221.918 135.2 220.861C134.936 219.804 134.496 218.395 133.967 216.546C133.703 215.665 133.439 214.697 133.087 213.64C132.911 213.112 132.735 212.583 132.646 212.055C132.47 211.527 132.382 210.91 132.206 210.294C131.59 207.916 130.973 205.363 130.269 202.721C129.652 200.079 129.036 197.261 128.42 194.531C127.803 191.801 127.275 189.072 126.747 186.606C126.13 184.052 125.69 181.763 125.161 179.737C124.633 177.712 124.105 176.039 123.576 174.806C122.52 172.34 121.287 169.523 120.054 166.705C119.438 165.296 118.733 163.799 118.205 162.302C117.588 160.805 117.06 159.396 116.532 158.075C115.475 155.345 114.506 152.879 113.802 151.118C113.185 149.357 112.833 148.3 112.833 148.3C112.833 148.3 112.745 148.653 112.481 149.269C112.305 149.885 111.953 150.766 111.6 151.911C110.896 154.2 109.927 157.459 108.959 161.333C107.197 169.082 105.348 179.209 105.524 188.015C105.524 189.16 105.612 190.216 105.7 191.273C105.789 192.33 105.965 193.387 106.229 194.443C106.757 196.469 107.374 198.406 108.166 200.255C109.663 203.866 111.953 206.948 114.066 209.413C116.179 211.879 118.293 213.728 119.966 214.873C121.551 216.106 122.608 216.722 122.608 216.722C124.545 217.691 126.57 218.571 128.508 219.452C127.275 217.515 126.042 215.577 124.897 213.552C123.753 211.527 122.784 209.501 121.903 207.388C119.966 203.337 118.557 199.286 117.324 195.676C117.06 194.795 116.708 193.915 116.532 193.122C116.268 192.33 116.091 191.537 115.915 190.745C115.475 189.248 115.211 187.927 114.947 186.87C114.418 184.581 114.154 183.348 114.154 183.348Z" fill="white"/>
<path d="M166.637 142.4C160.121 150.502 153.34 157.37 147.969 162.39C145.327 164.943 142.949 166.969 141.364 168.29C139.779 169.699 138.811 170.403 138.811 170.403C138.811 170.403 138.987 169.875 139.339 168.818C139.515 168.29 139.691 167.761 139.955 167.057C140.219 166.352 140.484 165.56 140.836 164.767C141.54 163.094 142.333 161.157 143.213 158.955C144.182 156.842 145.239 154.553 146.384 152.263C147.528 149.973 148.849 147.684 150.082 145.482C151.403 143.281 152.724 141.256 154.045 139.406C155.366 137.557 156.686 135.972 157.919 134.651C158.536 133.947 159.064 133.418 159.592 132.89C160.121 132.362 160.649 132.009 161.177 131.657C163.115 130.424 165.316 129.104 167.606 127.871C169.983 126.726 172.273 125.581 174.474 124.613C176.676 123.732 178.525 123.027 179.934 122.499C181.255 121.971 182.135 121.707 182.135 121.707C182.135 121.707 182.047 121.971 181.871 122.411C181.695 122.851 181.519 123.556 181.255 124.348C180.727 126.021 179.934 128.311 179.141 131.041C178.789 132.362 178.261 133.771 177.821 135.268C177.38 136.765 176.94 138.262 176.412 139.759C175.883 141.256 175.443 142.841 174.915 144.338C174.386 145.835 173.858 147.332 173.33 148.741C171.128 154.376 165.933 158.339 161.177 161.245C159.945 161.949 158.8 162.566 157.743 163.182C156.686 163.711 155.718 164.239 154.837 164.591C153.164 165.384 152.107 165.736 152.107 165.736C150.082 166.352 148.057 166.881 146.031 167.585C151.491 161.069 156.334 154.553 160.297 149.797C160.737 149.181 161.177 148.653 161.618 148.124C162.058 147.596 162.498 147.068 162.851 146.627C163.643 145.659 164.26 144.866 164.876 144.162C166.021 143.105 166.637 142.4 166.637 142.4Z" fill="white"/>
<path d="M125.69 125.317C125.514 126.99 125.514 128.663 125.514 130.336C125.514 131.921 125.602 133.595 125.602 135.092C125.778 138.174 126.218 141.168 126.659 143.897C126.835 145.218 127.187 146.539 127.451 147.86C127.715 149.093 128.068 150.326 128.42 151.559C128.772 152.703 129.036 153.848 129.388 154.905C129.741 155.962 130.093 157.018 130.533 157.899C132.03 161.685 133.439 164.591 134.496 166.529C135.641 168.466 136.345 169.523 136.345 169.523C136.345 169.523 136.345 168.906 136.257 167.849C136.169 166.793 136.169 165.208 136.169 163.358C136.169 161.421 136.081 159.22 136.081 156.754C136.081 154.288 136.169 151.647 136.169 148.917C136.257 146.187 136.345 143.281 136.521 140.551C136.697 137.733 136.873 135.003 136.961 132.45C137.314 127.342 137.314 122.851 137.05 120.21C136.257 114.926 135.2 107.881 134.584 101.893C134.32 98.8994 134.056 96.2576 133.879 94.4084C133.791 93.4397 133.703 92.6472 133.703 92.2069C133.703 91.6785 133.615 91.4144 133.615 91.4144C133.615 91.4144 132.735 92.5591 131.502 94.5845C130.269 96.6098 128.332 99.4277 126.482 102.862C122.608 109.643 118.469 118.977 116.18 127.43C115.651 129.544 115.299 131.657 115.211 133.771C115.123 135.884 115.299 137.909 115.651 139.935C115.827 140.903 116.003 141.872 116.18 142.841C116.444 143.809 116.708 144.69 116.972 145.571C117.589 147.332 118.205 149.005 118.909 150.502C120.318 153.496 121.991 155.962 123.136 157.547C124.369 159.22 125.162 160.1 125.162 160.1C126.835 161.597 128.42 163.094 130.093 164.591C127.275 155.785 125.866 145.923 125.514 138.438C125.338 136.5 125.426 134.827 125.338 133.242C125.338 131.657 125.338 130.336 125.338 129.192C125.338 128.047 125.426 127.166 125.426 126.55C125.69 125.669 125.69 125.317 125.69 125.317Z" fill="white"/>
<path d="M186.626 102.07C178.261 107.793 169.983 112.284 163.555 115.543C161.97 116.335 160.473 117.04 159.152 117.656C157.831 118.272 156.686 118.801 155.718 119.241C153.78 120.122 152.724 120.474 152.724 120.474C152.724 120.474 154.045 118.625 156.07 115.719C157.127 114.31 158.447 112.637 159.856 110.875C160.561 109.995 161.353 109.114 162.146 108.146C162.938 107.265 163.731 106.296 164.612 105.416C165.404 104.447 166.285 103.567 167.253 102.686C168.134 101.805 169.015 100.925 169.895 100.044C171.656 98.371 173.594 96.786 175.267 95.4651C177.028 94.0562 178.701 92.9994 180.198 92.0308C180.991 91.5905 181.607 91.1502 182.311 90.886C183.016 90.6219 183.544 90.3577 184.161 90.1816C188.476 88.9487 194.199 87.9801 198.778 87.5398C201.068 87.3637 203.093 87.2756 204.59 87.1876C205.295 87.1876 205.911 87.1876 206.263 87.1876C206.704 87.1876 206.88 87.1876 206.88 87.1876C206.88 87.1876 206.263 87.9801 205.383 89.4771C204.502 90.9741 203.093 92.9114 201.684 95.2009C200.98 96.3457 200.099 97.5785 199.307 98.8994C198.514 100.22 197.634 101.541 196.753 102.774C195.872 104.095 194.992 105.416 194.111 106.737C193.231 107.969 192.35 109.29 191.47 110.523C189.62 112.901 187.331 114.662 184.689 115.895C182.047 117.216 179.229 118.096 176.588 118.713C173.946 119.329 171.48 119.769 169.719 120.034C167.87 120.298 166.725 120.298 166.725 120.298C164.612 120.21 162.586 120.21 160.473 120.21C167.341 115.543 173.77 110.875 178.701 107.529C179.317 107.089 179.846 106.737 180.462 106.296C180.991 105.944 181.519 105.592 182.047 105.24C183.016 104.535 183.896 104.007 184.601 103.478C185.305 102.95 185.834 102.598 186.186 102.334C186.45 102.246 186.626 102.07 186.626 102.07Z" fill="white"/>
<path d="M151.845 73.1862C151.229 74.7712 150.789 76.3563 150.436 77.9414C149.996 79.5264 149.644 81.0234 149.292 82.5204C148.675 85.5144 148.235 88.5084 147.971 91.2382C147.53 96.7859 147.53 101.717 147.971 105.856C148.147 107.881 148.411 109.731 148.675 111.316C148.939 112.901 149.292 114.31 149.556 115.366C150.084 117.568 150.524 118.801 150.524 118.801C150.524 118.801 151.053 116.423 151.933 112.813C152.374 110.963 152.99 108.85 153.607 106.472C154.223 104.095 155.015 101.629 155.808 98.9874C156.601 96.3456 157.481 93.7039 158.274 91.0621C159.154 88.4204 160.035 85.8666 160.739 83.401C162.412 78.5578 163.645 74.3309 163.997 71.6892C164.614 66.4056 165.406 59.2729 166.375 53.3729C166.815 50.467 167.256 47.8252 167.608 45.976C167.96 44.1268 168.136 42.982 168.136 42.982C168.136 42.982 167.872 43.1581 167.344 43.5984C166.815 43.9506 166.111 44.5671 165.23 45.3596C164.35 46.1521 163.293 47.0327 162.148 48.0894C161.532 48.6178 160.915 49.2342 160.299 49.7625C159.683 50.3789 158.978 50.9953 158.362 51.6998C152.902 56.9833 146.562 64.6445 142.159 72.1295C141.102 73.9787 140.222 75.916 139.605 77.9414C138.989 79.9667 138.637 81.9921 138.372 83.9293C138.108 85.8666 138.108 87.892 138.196 89.7412C138.284 91.5905 138.548 93.4397 138.813 95.0248C139.429 98.371 140.31 101.189 141.014 103.126C141.719 105.063 142.335 106.208 142.335 106.208C143.48 108.146 144.713 110.083 145.945 112.02C145.505 102.686 146.738 92.8233 148.411 85.5144C148.763 83.6652 149.204 81.9921 149.644 80.4951C150.084 78.9981 150.436 77.6772 150.701 76.6205C151.053 75.5638 151.317 74.6832 151.493 74.1548C151.757 73.4503 151.845 73.1862 151.845 73.1862Z" fill="white"/>
<path d="M216.39 69.4878C206.879 72.4818 197.721 74.2429 190.677 75.3877C188.915 75.6519 187.33 75.916 185.921 76.0922C184.513 76.2683 183.28 76.4444 182.223 76.5325C180.198 76.7966 178.965 76.7966 178.965 76.7966C178.965 76.7966 180.726 75.3877 183.456 73.2743C184.865 72.3056 186.538 71.0728 188.387 69.84C190.236 68.6072 192.262 67.3743 194.375 66.0535C196.489 64.8206 198.69 63.6759 200.803 62.5311C203.005 61.4744 205.118 60.5057 207.144 59.7132C209.169 58.9207 211.106 58.3923 212.779 57.952C214.453 57.5117 215.95 57.3356 217.006 57.4237C219.208 57.5117 221.761 57.6879 224.315 58.0401C226.869 58.3923 229.423 58.7446 231.712 59.2729C234.002 59.8013 235.939 60.2416 237.348 60.5938C238.757 61.0341 239.637 61.2983 239.637 61.2983C239.637 61.2983 238.845 61.9147 237.612 63.0595C236.996 63.5878 236.203 64.2923 235.411 64.9967C234.53 65.7012 233.561 66.4937 232.593 67.4624C228.454 70.9848 223.435 75.6519 218.767 79.1742C217.623 80.0548 216.302 80.6712 214.981 81.1996C213.66 81.7279 212.251 82.0802 210.842 82.2563C209.433 82.4324 207.936 82.6085 206.527 82.6085C205.118 82.6085 203.621 82.6085 202.3 82.5205C199.571 82.3443 197.105 81.9921 195.344 81.6399C193.583 81.2876 192.438 81.0235 192.438 81.0235C190.412 80.319 188.475 79.6145 186.45 78.9981C194.199 76.6205 201.684 74.0668 207.232 72.3937C212.603 70.7206 216.39 69.4878 216.39 69.4878Z" fill="white"/>
<path d="M190.326 31.1821C182.841 42.1014 179.583 53.2849 178.262 61.2983C177.91 63.3236 177.734 65.1728 177.558 66.7579C177.382 68.343 177.382 69.84 177.382 70.8967C177.294 73.1862 177.382 74.5071 177.382 74.5071C177.382 74.5071 178.526 72.3937 180.288 69.2236C181.256 67.6385 182.313 65.7012 183.546 63.6758C184.779 61.6505 186.188 59.361 187.596 57.1595C189.093 54.87 190.59 52.5804 191.999 50.2909C193.496 48.0894 194.993 45.7999 196.402 43.6865C197.811 41.6611 199.044 39.6358 200.101 37.8746C201.158 36.1134 202.038 34.6164 202.478 33.3836C203.007 32.1508 203.447 30.8299 204.063 29.421C204.592 28.012 205.208 26.6031 205.825 25.1061C206.441 23.6091 207.057 22.1121 207.586 20.7031C208.202 19.2942 208.819 17.8853 209.435 16.5644C210.58 13.9226 211.637 11.457 212.429 9.78384C213.222 8.11072 213.75 7.05402 213.75 7.05402C213.75 7.05402 212.429 7.58237 210.404 8.46296C208.378 9.4316 205.472 10.7525 202.126 12.5137C195.522 16.036 187.508 21.4076 181.432 27.1314C179.935 28.6284 178.614 30.2135 177.47 31.8866C176.413 33.6478 175.532 35.497 174.828 37.2582C174.476 38.1388 174.123 39.1074 173.859 39.988C173.595 40.9567 173.331 41.8373 173.155 42.8059C172.803 44.6551 172.538 46.4163 172.362 48.0894C172.01 51.4357 172.186 54.4297 172.45 56.5431C172.626 58.6565 172.891 59.8893 172.891 59.8893C173.507 62.0908 174.123 64.2923 174.828 66.5818C176.853 57.5117 180.552 48.4417 183.986 41.8373C185.659 38.5791 187.332 35.9373 188.477 34C189.622 32.2388 190.326 31.1821 190.326 31.1821Z" fill="white"/>
<path d="M215.51 39.1954C187.155 58.2161 163.908 86.7472 149.906 119.593C135.905 152.527 130.886 190.304 135.905 225.968C137.314 235.655 139.075 244.373 141.453 252.474C141.541 252.826 141.629 253.178 141.717 253.619C141.893 254.323 142.069 255.028 142.333 255.82L143.39 258.99C143.566 259.695 143.83 260.311 144.006 260.928C144.447 262.425 144.975 263.922 145.503 265.419L147.793 271.671L150.435 277.923C154.309 286.817 158.36 294.566 162.675 301.699C167.342 309.36 172.449 316.581 177.909 323.273C183.457 329.966 189.445 336.394 195.785 342.294C201.949 347.93 208.73 353.389 215.95 358.409C222.643 363.076 229.864 367.215 237.965 371.353C245.186 374.876 252.847 377.958 261.389 380.776L262.181 377.958C253.728 375.14 246.155 372.146 239.022 368.624C231.009 364.573 223.964 360.434 217.359 355.943C210.227 351.012 203.622 345.64 197.546 340.004C191.294 334.193 185.394 327.852 179.934 321.248C174.651 314.643 169.631 307.511 164.964 299.938C160.649 292.893 156.775 285.232 152.9 276.602L150.347 270.438L148.057 264.186C147.529 262.777 147 261.28 146.56 259.871C146.384 259.166 146.12 258.55 145.944 257.846L144.887 254.675C144.711 253.971 144.535 253.355 144.359 252.65C144.271 252.298 144.182 251.858 144.006 251.505C141.717 243.492 139.868 234.95 138.547 225.352C133.615 190.304 138.459 153.144 152.284 120.65C166.109 88.5084 189.093 60.4176 216.919 41.6611L215.51 39.1954Z" fill="white"/>
<path d="M254.961 19.4703C240.784 24.6657 227.046 31.6224 214.542 40.5163C215.158 38.7552 216.127 36.2015 217.448 33.4716C218.769 30.7418 220.53 27.5717 222.555 24.7538C226.606 18.8539 232.242 13.6584 237.79 12.0733C239.727 11.633 242.192 11.1047 244.834 10.5763C246.155 10.4002 247.652 10.136 249.061 9.95992C250.558 9.7838 252.055 9.51962 253.64 9.34351C255.225 9.16739 256.81 9.07933 258.483 8.90321C260.068 8.72709 261.742 8.72709 263.415 8.63904C266.673 8.46292 270.019 8.55098 273.189 8.63904C274.774 8.63904 276.359 8.81515 277.768 8.90321C279.265 8.99127 280.674 9.07933 282.083 9.16739C284.813 9.51962 287.279 9.69574 289.392 10.048C293.531 10.7524 296.084 11.1927 296.084 11.1927C296.084 11.1927 293.531 12.3375 289.568 14.1867C287.631 15.1554 285.253 16.3002 282.7 17.533C281.467 18.1494 280.146 18.8539 278.737 19.5583C278.032 19.9106 277.328 20.2628 276.623 20.615C275.919 20.9673 275.215 21.4076 274.51 21.7598C273.101 22.5523 271.692 23.3449 270.195 24.1374C268.786 24.9299 267.289 25.8105 265.88 26.603C264.383 27.3956 262.974 28.2762 261.565 29.0687C260.156 29.9493 258.748 30.6537 257.339 31.5343C255.93 32.3269 254.609 33.1194 253.288 33.9119C251.967 34.6164 250.734 35.4089 249.501 36.1134C247.036 37.4343 244.746 38.6671 242.633 39.4596C241.4 39.8999 240.079 40.3402 238.758 40.7805C237.437 41.1327 236.116 41.485 234.884 41.6611C232.33 42.1895 229.688 42.5417 227.222 42.7178C224.757 42.982 222.467 42.982 220.442 42.8939C218.417 42.8939 216.743 42.7178 215.511 42.5417C227.663 33.0313 240.96 25.3702 254.961 19.4703Z" fill="white"/>
</g>
<g opacity="0.1">
<path d="M414.788 339.74C412.851 341.59 411.001 343.527 409.24 345.464C407.479 347.313 405.718 349.251 404.133 351.1C400.875 354.71 398.057 358.409 395.591 361.403C394.358 362.9 393.301 364.397 392.333 365.718C391.364 367.039 390.572 368.095 389.867 369.064C388.546 370.913 387.842 372.058 387.842 372.058C387.842 372.058 388.37 371.794 389.339 371.442C390.307 371.001 391.628 370.473 393.301 369.68C394.887 368.888 396.824 367.919 398.937 366.863C400.963 365.806 403.164 364.485 405.366 363.164C405.894 362.812 406.51 362.46 407.039 362.195L408.712 361.051C409.768 360.346 410.825 359.554 411.882 358.849C413.995 357.44 415.933 355.767 417.694 354.182C418.574 353.39 419.455 352.685 420.159 351.981C420.952 351.188 421.656 350.484 422.273 349.779C423.506 348.37 424.474 347.049 425.091 345.993C427.468 341.59 430.022 335.602 431.607 330.582C432.047 329.349 432.4 328.205 432.752 327.148C433.016 326.091 433.368 325.123 433.544 324.33C433.985 322.745 434.249 321.776 434.249 321.776C434.249 321.776 433.28 322.129 431.695 322.833C430.11 323.538 427.821 324.242 425.267 325.299C420.071 327.236 413.643 329.79 408.095 332.167C407.391 332.52 406.774 332.872 406.158 333.312C405.542 333.752 404.925 334.193 404.309 334.633C403.164 335.602 402.107 336.834 401.139 338.067C399.201 340.533 397.528 343.439 396.119 346.257C394.798 348.987 393.654 351.54 392.949 353.478C392.245 355.415 391.804 356.648 391.804 356.648C391.276 358.937 390.66 361.315 390.043 363.604C396.295 357.352 402.548 351.628 407.127 347.049C408.271 345.904 409.328 345.024 410.209 344.055C411.089 343.175 411.882 342.382 412.586 341.678C414.083 340.445 414.788 339.74 414.788 339.74Z" fill="white"/>
<path d="M431.254 386.588C427.908 386.764 424.826 386.94 421.832 386.764C418.837 386.5 415.932 386.147 413.29 385.707C407.918 384.562 403.427 383.153 399.641 381.392C397.791 380.6 396.118 379.719 394.797 379.015C393.389 378.31 392.156 377.518 391.275 376.901C389.338 375.668 388.369 374.876 388.369 374.876C388.369 374.876 388.986 374.876 389.954 374.964C391.011 374.964 392.508 375.14 394.357 375.052C396.206 375.052 398.408 375.052 400.697 375.052C403.075 375.052 405.629 374.876 408.359 374.788C409.063 374.788 409.679 374.788 410.384 374.7C411.088 374.612 411.705 374.612 412.409 374.524C413.818 374.436 415.139 374.348 416.46 374.259C419.19 374.171 421.831 373.819 424.385 373.731C425.618 373.643 426.851 373.643 427.996 373.555C429.14 373.467 430.197 373.379 431.254 373.379C433.279 373.291 435.04 373.379 436.273 373.555C441.381 374.348 448.337 375.492 454.061 376.109C455.47 376.285 456.879 376.461 458.112 376.549C459.345 376.637 460.401 376.725 461.37 376.813C463.219 376.989 464.364 377.077 464.364 377.077C464.364 377.077 463.219 378.046 461.37 379.543C459.433 381.128 456.703 383.065 453.445 385.355C446.84 389.758 437.946 394.777 429.669 397.419C428.612 397.771 427.643 398.035 426.587 398.212C425.53 398.388 424.561 398.476 423.505 398.564C421.479 398.652 419.454 398.476 417.517 398.212C413.642 397.507 410.12 396.01 407.214 394.513C404.308 392.928 401.93 391.079 400.345 389.67C398.76 388.261 397.88 387.38 397.88 387.38C396.383 385.531 394.974 383.682 393.477 381.744C402.106 384.915 411.617 386.5 418.926 386.764C420.775 386.852 422.448 386.94 423.945 386.94C425.442 386.94 426.763 386.852 427.908 386.852C430.021 386.676 431.254 386.588 431.254 386.588Z" fill="white"/>
<path d="M451.773 319.311C450.452 321.512 449.219 323.802 448.075 326.003C446.842 328.205 445.785 330.318 444.816 332.52C443.848 334.633 442.791 336.658 441.998 338.596C441.118 340.621 440.325 342.47 439.621 344.143C438.124 347.578 437.067 350.572 436.275 352.597C435.482 354.622 435.13 355.855 435.13 355.855C435.13 355.855 435.57 355.503 436.363 354.887C436.715 354.534 437.243 354.182 437.772 353.742C438.3 353.301 438.916 352.773 439.533 352.157C440.854 351.012 442.351 349.603 443.936 348.106C445.521 346.521 447.194 344.76 448.867 342.999C450.54 341.149 452.125 339.212 453.71 337.275C454.063 336.834 454.503 336.306 454.855 335.866C455.207 335.337 455.56 334.897 455.912 334.369C456.616 333.4 457.321 332.431 457.937 331.463C458.554 330.494 459.17 329.614 459.698 328.733C460.227 327.852 460.667 326.972 461.107 326.179C461.9 324.594 462.516 323.185 462.78 322.041C463.925 317.373 464.894 311.297 465.246 306.366C465.422 303.9 465.598 301.787 465.686 300.202C465.686 298.617 465.774 297.736 465.774 297.736C465.774 297.736 464.982 298.353 463.661 299.321C462.34 300.29 460.491 301.699 458.377 303.284C454.063 306.454 448.779 310.505 444.288 314.291C442.175 316.317 440.501 318.694 439.357 321.6C438.74 323.097 438.212 324.506 437.86 325.915C437.419 327.412 437.067 328.909 436.803 330.318C436.275 333.224 435.834 335.778 435.658 337.803C435.482 339.74 435.394 340.973 435.394 340.973C435.482 343.175 435.482 345.464 435.482 347.754C437.507 343.967 439.709 340.533 441.646 337.099C442.615 335.426 443.584 333.84 444.464 332.343C445.345 330.758 446.137 329.349 446.93 328.029C448.515 325.475 449.748 323.185 450.628 321.688C451.245 320.103 451.773 319.311 451.773 319.311Z" fill="white"/>
<path d="M482.593 286.377C479.775 296.592 478.19 306.366 477.221 313.939C476.693 317.638 476.34 320.808 476.164 323.009C476.076 324.154 475.988 325.035 475.988 325.563C475.988 326.179 475.9 326.444 475.9 326.444C475.9 326.444 476.252 326.003 476.781 325.123C477.309 324.242 478.102 323.097 479.07 321.6C479.511 320.896 480.039 320.015 480.567 319.223C481.096 318.342 481.624 317.374 482.152 316.405C482.681 315.436 483.297 314.38 483.913 313.323C484.178 312.794 484.53 312.266 484.794 311.738C485.058 311.209 485.322 310.593 485.587 310.065C486.643 307.775 487.788 305.486 488.757 303.108C489.725 300.73 490.606 298.441 491.31 296.327C492.631 291.924 493.6 288.226 493.512 285.76C493.424 283.383 493.336 280.653 492.984 277.923C492.631 275.105 492.279 272.375 491.839 269.998C491.398 267.532 490.958 265.419 490.606 263.922C490.254 262.425 490.078 261.544 490.078 261.544C490.078 261.544 489.461 262.337 488.492 263.658C487.964 264.362 487.436 265.155 486.731 266.035C486.027 266.916 485.234 267.972 484.442 269.029C482.857 271.231 480.919 273.608 479.158 276.162C478.278 277.395 477.221 278.628 476.428 279.948C475.548 281.269 474.667 282.502 473.875 283.735C473.082 284.968 472.466 286.377 472.026 287.786C471.585 289.195 471.233 290.692 470.969 292.277C470.793 293.774 470.705 295.359 470.617 296.944C470.528 298.441 470.617 300.026 470.705 301.435C470.881 304.341 471.233 307.071 471.497 309.008C471.761 310.945 472.026 312.09 472.026 312.09C472.642 314.203 473.258 316.317 473.787 318.518C475.988 310.241 478.19 302.139 479.863 296.239C480.655 293.245 481.272 290.78 481.8 289.019C482.064 288.138 482.24 287.433 482.328 286.993C482.504 286.641 482.593 286.377 482.593 286.377Z" fill="white"/>
<path d="M476.515 357.792C475.106 358.321 473.609 358.849 472.2 359.289C470.791 359.73 469.382 360.17 468.062 360.434C465.332 361.051 462.69 361.491 460.224 361.755C455.117 362.195 450.714 362.107 447.016 361.579C443.317 361.139 440.411 360.434 438.386 359.818C436.36 359.201 435.304 358.761 435.304 358.761C435.304 358.761 435.832 358.585 436.801 358.321C437.769 358.057 439.09 357.792 440.763 357.176C442.436 356.648 444.374 356.119 446.487 355.415C448.601 354.798 450.89 353.918 453.268 353.125C455.645 352.333 458.111 351.364 460.489 350.572C462.954 349.779 465.244 348.81 467.445 348.018C471.936 346.433 475.635 345.024 478.1 344.76C480.566 344.496 483.296 344.143 486.202 343.791C487.699 343.615 489.108 343.439 490.517 343.263C491.926 342.999 493.334 342.822 494.655 342.646C497.297 342.206 499.675 341.854 501.348 341.502C503.021 341.149 504.078 340.973 504.078 340.973C504.078 340.973 503.902 341.237 503.549 341.766C503.197 342.294 502.669 343.087 501.964 343.967C500.555 345.816 498.53 348.37 496.064 351.276C494.831 352.685 493.423 354.182 492.014 355.679C491.309 356.472 490.605 357.264 489.812 357.969C489.02 358.673 488.227 359.466 487.435 360.17C485.849 361.667 484.176 363.164 482.503 364.485C480.83 365.806 479.069 367.127 477.396 368.271C475.723 369.504 473.962 370.297 472.112 370.913C470.351 371.53 468.502 371.97 466.741 372.146C463.13 372.498 459.608 372.146 456.702 371.53C453.708 370.913 451.154 369.857 449.393 369.064C447.632 368.271 446.575 367.655 446.575 367.655C444.814 366.334 443.053 365.101 441.38 363.78C449.833 364.221 458.727 363.076 465.332 361.315C467.005 360.875 468.502 360.522 469.911 360.082C471.232 359.642 472.465 359.289 473.433 358.937C475.37 358.233 476.515 357.792 476.515 357.792Z" fill="white"/>
<path d="M517.2 314.468C514.822 316.493 512.181 318.166 509.803 319.575C508.57 320.279 507.426 320.984 506.193 321.6C504.96 322.217 503.815 322.745 502.582 323.273C497.915 325.387 493.512 326.532 489.902 327.236C486.203 327.941 483.209 328.117 481.184 328.205C480.127 328.205 479.335 328.205 478.806 328.205C478.278 328.205 477.926 328.205 477.926 328.205C477.926 328.205 478.366 327.941 479.247 327.324C480.039 326.796 481.272 326.003 482.681 325.035C483.385 324.594 484.178 324.066 485.059 323.45C485.851 322.833 486.82 322.217 487.7 321.6C489.55 320.279 491.663 318.87 493.688 317.285C494.745 316.493 495.802 315.7 496.77 314.908C497.827 314.115 498.884 313.323 499.94 312.53C501.966 310.945 504.079 309.36 505.929 307.863C509.627 304.869 513.061 302.492 515.263 301.347C517.464 300.29 520.106 299.145 522.748 297.824C525.39 296.504 528.119 295.183 530.585 294.038C532.963 292.805 535.076 291.66 536.661 290.78C538.246 289.899 539.127 289.459 539.127 289.459C539.127 289.459 538.686 290.78 537.806 292.981C537.365 294.126 536.837 295.447 536.309 296.944C535.692 298.441 534.9 300.026 534.107 301.787C533.667 302.668 533.315 303.548 532.875 304.517C532.434 305.486 531.994 306.366 531.466 307.335C530.497 309.184 529.352 311.121 528.295 313.059C527.767 314.027 527.151 314.996 526.534 315.876C525.918 316.845 525.301 317.726 524.685 318.694C523.452 320.544 522.219 322.305 520.81 323.89C518.169 327.148 514.999 329.438 511.564 330.935C509.891 331.727 508.218 332.255 506.545 332.696C504.872 333.136 503.287 333.312 501.702 333.488C498.62 333.752 495.978 333.664 494.129 333.488C492.191 333.224 491.047 332.96 491.047 332.96C489.021 332.255 486.996 331.551 484.97 330.846C493.336 328.821 501.349 324.682 507.337 321.072C510.243 319.223 512.709 317.55 514.47 316.317C516.319 315.172 517.2 314.468 517.2 314.468Z" fill="white"/>
<path d="M503.11 246.926C503.11 248.247 503.11 249.568 503.11 250.889C503.11 252.21 503.11 253.443 503.198 254.764C503.286 255.996 503.286 257.317 503.374 258.55C503.463 259.783 503.463 261.016 503.551 262.161C503.727 264.538 503.991 266.828 504.167 269.029C504.343 271.143 504.607 273.168 504.783 275.105C505.048 277.042 505.224 278.716 505.488 280.213C505.664 281.71 505.928 283.031 506.104 284.175C506.457 286.377 506.721 287.61 506.721 287.61C506.721 287.61 507.425 285.408 508.57 281.974C509.186 280.301 509.715 278.187 510.331 275.986C510.595 274.841 510.948 273.696 511.212 272.552C511.476 271.407 511.74 270.086 512.004 268.853C513.061 263.834 513.765 258.55 514.118 253.971C514.206 251.682 514.294 249.568 514.206 247.719C514.118 245.87 513.853 244.373 513.589 243.228C513.237 242.083 512.885 240.85 512.445 239.618C512.268 239.001 512.004 238.385 511.828 237.768C511.564 237.152 511.3 236.447 511.124 235.831C510.067 233.277 509.01 230.724 508.042 228.522C505.928 224.119 504.079 220.949 504.079 220.949C504.079 220.949 503.727 221.918 503.11 223.503C502.846 224.295 502.494 225.264 502.054 226.321C501.613 227.377 501.085 228.61 500.645 229.843C498.707 235.038 495.978 241.379 494.216 247.191C493.688 248.6 493.512 250.097 493.424 251.594C493.424 252.386 493.424 253.091 493.424 253.883C493.424 254.676 493.512 255.38 493.6 256.173C493.952 259.255 494.833 262.337 495.625 265.067C496.506 267.796 497.475 270.262 498.267 272.023C498.707 272.904 498.972 273.608 499.236 274.137C499.5 274.665 499.588 274.929 499.588 274.929C500.733 276.778 501.789 278.628 502.934 280.565C503.022 272.375 503.11 263.834 503.198 257.317C503.198 254.147 503.198 251.682 503.198 249.832C503.11 247.983 503.11 246.926 503.11 246.926Z" fill="white"/>
<path d="M543.529 263.481C542.561 264.802 541.68 266.035 540.711 267.268C539.743 268.413 538.686 269.557 537.717 270.614C536.749 271.671 535.692 272.728 534.723 273.696C533.755 274.665 532.698 275.545 531.729 276.338C529.704 278.011 527.767 279.508 525.918 280.741C523.98 281.974 522.219 283.03 520.546 283.911C518.873 284.792 517.376 285.584 515.967 286.113C514.558 286.641 513.413 287.081 512.356 287.433C510.331 288.138 509.274 288.402 509.274 288.402C509.274 288.402 510.771 286.641 513.061 283.999C513.325 283.647 513.677 283.295 514.03 282.942C514.294 282.59 514.646 282.15 514.998 281.798C515.615 281.005 516.319 280.125 517.112 279.244C517.816 278.363 518.609 277.395 519.401 276.426C520.194 275.457 520.986 274.401 521.779 273.344C528.207 265.066 534.9 255.028 538.51 251.593C542.296 248.335 547.316 243.756 551.367 239.97C555.329 236.095 558.411 232.925 558.411 232.925C558.411 232.925 558.235 234.334 558.059 236.712C557.795 239.089 557.443 242.523 556.738 246.31C555.505 254.059 552.864 263.746 549.517 271.671C548.637 273.608 547.58 275.369 546.347 276.954C545.731 277.747 545.114 278.539 544.498 279.244C543.793 279.948 543.089 280.565 542.385 281.181C540.976 282.414 539.479 283.471 537.982 284.351C537.277 284.792 536.485 285.232 535.78 285.584C535.076 285.936 534.283 286.289 533.579 286.553C530.673 287.698 528.119 288.402 526.182 288.754C525.213 288.93 524.509 289.018 523.98 289.107C523.452 289.195 523.188 289.195 523.188 289.195C521.074 289.107 518.961 289.018 516.847 288.93C520.634 286.729 524.068 283.999 527.415 281.269C529 279.86 530.497 278.451 531.994 277.042C533.403 275.634 534.811 274.313 535.956 272.904C538.334 270.262 540.359 267.884 541.592 266.211C542.825 264.538 543.529 263.481 543.529 263.481Z" fill="white"/>
<path d="M512.708 202.897C513.06 204.218 513.413 205.451 513.765 206.683C514.117 207.916 514.469 209.149 514.822 210.382C515.174 211.615 515.614 212.76 515.966 213.904C516.319 215.049 516.759 216.194 517.111 217.339C517.816 219.54 518.696 221.742 519.401 223.679C520.105 225.704 520.81 227.553 521.602 229.315C523.099 232.837 524.244 235.655 525.125 237.592C526.005 239.617 526.622 240.674 526.622 240.674C526.622 240.674 526.798 238.385 527.062 234.774C527.15 233.013 527.15 230.812 527.15 228.522C527.15 227.377 527.15 226.144 527.15 224.912C527.062 223.679 527.062 222.446 526.974 221.125C526.798 218.571 526.71 215.93 526.269 213.376C526.093 212.143 525.917 210.822 525.741 209.677C525.653 209.061 525.565 208.445 525.477 207.916C525.389 207.3 525.213 206.772 525.125 206.155C524.596 203.866 524.156 201.84 523.628 200.079C523.099 198.318 522.395 196.909 521.866 195.94C521.25 194.972 520.545 193.915 519.841 192.858C519.137 191.802 518.432 190.657 517.551 189.6C515.878 187.487 514.205 185.373 512.708 183.524C511.211 181.675 509.714 180.178 508.658 179.121C507.601 178.064 506.984 177.448 506.984 177.448C506.984 177.448 506.808 178.505 506.632 180.178C506.544 181.058 506.456 182.115 506.368 183.26C506.192 184.405 506.016 185.725 505.928 187.134C505.399 192.682 504.431 199.639 504.167 205.715C504.078 207.212 504.166 208.709 504.519 210.206C504.695 210.91 504.871 211.703 505.135 212.407C505.399 213.112 505.575 213.816 505.84 214.521C506.368 215.93 507.072 217.339 507.777 218.659C508.569 219.98 509.362 221.301 510.066 222.446C513.148 227.201 516.407 230.635 516.407 230.635C517.992 232.044 519.489 233.541 520.986 235.038C520.722 233.982 520.457 233.013 520.193 231.956C519.929 230.9 519.665 229.931 519.401 228.874C518.872 226.849 518.344 224.912 517.904 222.974C517.375 221.037 516.935 219.276 516.495 217.515C516.054 215.754 515.702 214.168 515.262 212.671C514.469 209.677 513.853 207.212 513.413 205.539C512.972 203.954 512.708 202.897 512.708 202.897Z" fill="white"/>
<path d="M555.77 206.595C555.241 208.18 554.625 209.677 554.008 211.086C553.392 212.495 552.688 213.904 551.983 215.225C550.574 217.867 549.253 220.333 547.668 222.534C546.171 224.736 544.674 226.761 543.177 228.522C541.68 230.283 540.183 231.868 538.774 233.189C537.365 234.51 536.132 235.743 534.988 236.712C533.755 237.68 532.786 238.473 531.906 239.089C530.144 240.322 529.176 240.938 529.176 240.938C529.176 240.938 530.144 238.825 531.73 235.567C532.522 233.894 533.315 231.868 534.283 229.755C534.723 228.698 535.252 227.553 535.78 226.321C536.22 225.088 536.749 223.943 537.277 222.622C541.328 212.671 545.203 201.048 547.756 196.645C548.461 195.588 549.165 194.355 549.958 193.122C550.398 192.506 550.75 191.89 551.19 191.273C551.543 190.657 551.983 189.952 552.335 189.336C553.92 186.694 555.593 183.964 557.09 181.587C559.908 176.655 562.11 172.693 562.11 172.693C562.11 172.693 562.374 174.102 562.726 176.479C562.902 177.624 563.166 179.121 563.343 180.706C563.519 182.291 563.695 184.14 563.871 186.078C564.752 193.915 564.663 203.954 563.519 212.583C563.166 214.697 562.55 216.722 561.846 218.659C561.141 220.597 560.261 222.358 559.116 223.943C557.002 227.113 554.537 229.755 552.071 231.78C547.14 235.831 542.737 237.504 542.737 237.504C540.712 238.12 538.598 238.649 536.573 239.177C537.365 238.385 538.07 237.504 538.774 236.623C539.479 235.743 540.183 234.862 540.8 233.982C542.12 232.221 543.441 230.371 544.674 228.522C545.819 226.673 546.964 224.824 547.932 223.062C548.461 222.182 548.901 221.301 549.429 220.421C549.87 219.54 550.31 218.748 550.662 217.867C551.455 216.194 552.159 214.697 552.776 213.288C553.392 211.879 553.92 210.646 554.361 209.677C555.329 207.828 555.77 206.595 555.77 206.595Z" fill="white"/>
<path d="M510.683 157.723C511.916 160.012 513.325 162.126 514.558 164.239C515.879 166.352 517.288 168.29 518.52 170.227C519.841 172.164 521.162 173.926 522.395 175.687C523.628 177.36 524.773 178.945 525.917 180.442C527.062 181.939 528.119 183.26 528.999 184.405C529.88 185.549 530.761 186.606 531.465 187.399C532.874 189.072 533.667 189.952 533.667 189.952C533.667 189.952 533.226 187.663 532.522 184.14C532.17 182.379 531.641 180.354 531.025 178.064C530.761 176.92 530.408 175.775 530.056 174.63C529.704 173.485 529.264 172.252 528.911 171.02C528.471 169.787 528.119 168.642 527.679 167.409C527.238 166.176 526.71 165.032 526.27 163.799C525.829 162.654 525.301 161.509 524.861 160.364C524.332 159.22 523.804 158.163 523.364 157.194C521.426 153.144 519.225 149.974 517.64 148.388C514.294 145.306 509.626 141.784 505.664 139.23C504.695 138.614 503.815 137.998 502.934 137.469C502.053 136.941 501.349 136.501 500.645 136.148C499.412 135.444 498.619 135.004 498.619 135.004C498.619 135.004 499.236 139.054 500.116 144.602C500.909 150.15 501.877 157.018 503.11 163.006C503.462 164.503 503.903 165.912 504.607 167.233C505.224 168.554 506.192 169.787 506.985 171.02C507.865 172.252 508.834 173.309 509.891 174.366C510.947 175.423 512.004 176.391 513.061 177.36C515.174 179.209 517.2 180.706 518.697 181.763C520.282 182.819 521.162 183.436 521.162 183.436C523.011 184.316 524.861 185.285 526.71 186.254C522.747 179.297 518.609 171.988 515.526 166.529C514.822 165.208 514.118 163.975 513.501 162.918C512.885 161.861 512.356 160.981 511.916 160.188C511.212 158.515 510.683 157.723 510.683 157.723Z" fill="white"/>
<path d="M553.039 148.3C552.423 154.993 551.102 160.981 549.341 166.088C548.46 168.642 547.491 171.02 546.611 173.221C545.642 175.335 544.585 177.36 543.617 179.033C541.767 182.467 539.742 185.021 538.421 186.782C537.1 188.455 536.22 189.336 536.22 189.336C536.22 189.336 536.66 186.958 537.276 183.348C537.629 181.499 537.893 179.385 538.245 177.008C538.421 175.775 538.685 174.542 538.773 173.309C538.95 171.988 539.126 170.667 539.302 169.347C539.478 168.026 539.654 166.617 539.83 165.208C540.006 163.799 540.094 162.478 540.27 161.069C540.447 159.66 540.535 158.339 540.711 157.018C540.799 155.697 540.975 154.377 541.063 153.144C541.151 151.911 541.327 150.678 541.503 149.533C541.679 148.389 541.767 147.244 541.856 146.275C542.12 144.25 542.472 142.489 542.824 141.256C543.617 138.702 544.497 135.796 545.378 132.802C545.818 131.305 546.258 129.808 546.699 128.311C547.139 126.814 547.491 125.317 547.932 123.908C548.724 121.09 549.341 118.625 549.781 116.775C550.221 114.926 550.485 113.869 550.485 113.869C550.485 113.869 551.102 115.102 552.07 117.304C553.127 119.417 554.272 122.587 555.681 126.198C558.323 133.507 561.14 143.193 562.021 151.823C562.285 153.936 562.197 156.138 562.021 158.163C561.757 160.188 561.405 162.214 560.788 164.063C559.555 167.761 557.882 171.02 555.945 173.749C554.096 176.391 552.158 178.505 550.749 179.914C549.34 181.323 548.372 182.027 548.372 182.027C546.523 183.26 544.673 184.405 542.824 185.549C543.352 184.493 543.881 183.524 544.321 182.467C544.85 181.411 545.202 180.354 545.642 179.297C546.435 177.184 547.315 175.07 548.02 172.869C549.341 168.642 550.485 164.503 551.102 160.893C551.454 159.044 551.806 157.371 552.07 155.874C552.334 154.377 552.423 153.056 552.599 151.911C552.951 149.533 553.039 148.3 553.039 148.3Z" fill="white"/>
<path d="M497.21 114.926C504.431 122.059 511.916 127.871 517.727 132.098C520.545 134.211 523.011 135.972 524.772 137.117C526.533 138.262 527.502 138.878 527.502 138.878C527.502 138.878 527.238 138.35 526.797 137.469C526.357 136.501 525.653 135.268 524.86 133.683C524.068 132.098 523.099 130.248 521.954 128.311C520.809 126.374 519.577 124.26 518.168 122.147C516.759 120.122 515.35 117.92 513.853 115.983C512.356 114.046 510.859 112.108 509.362 110.523C507.865 108.938 506.456 107.441 505.135 106.296C503.814 105.152 502.581 104.359 501.613 103.831C499.675 102.862 497.21 101.893 494.832 100.925C492.455 100.044 489.989 99.2516 487.787 98.6352C486.731 98.3711 485.674 98.0188 484.705 97.7546C483.737 97.4905 482.944 97.3143 482.24 97.1382C480.831 96.8741 479.95 96.6979 479.95 96.6979C479.95 96.6979 481.623 100.396 483.825 105.504C486.026 110.611 488.668 116.951 491.486 122.235C492.807 124.965 494.92 126.99 497.21 128.751C498.354 129.632 499.675 130.424 500.908 131.041C502.141 131.745 503.462 132.362 504.695 132.89C507.16 134.035 509.626 134.827 511.299 135.356C512.972 135.884 514.117 136.148 514.117 136.148C516.142 136.501 518.168 136.765 520.193 137.205C514.645 131.745 508.833 126.022 504.342 121.619C500.116 117.656 497.21 114.926 497.21 114.926Z" fill="white"/>
<path d="M535.428 92.9995C535.692 94.6726 535.956 96.2577 536.132 97.8427C536.308 99.4278 536.396 101.013 536.484 102.51C536.572 104.007 536.572 105.504 536.572 107.001C536.572 108.41 536.484 109.907 536.396 111.228C536.132 116.687 535.163 121.531 534.195 125.405C533.138 129.28 531.993 132.362 531.201 134.387C530.76 135.444 530.408 136.236 530.144 136.765C529.88 137.293 529.704 137.557 529.704 137.557C529.704 137.557 529.704 136.941 529.616 135.884C529.528 134.827 529.352 133.33 529.175 131.481C529.087 130.513 528.999 129.544 528.911 128.487C528.823 127.43 528.647 126.286 528.471 125.053C528.207 122.675 527.943 120.034 527.502 117.392C527.15 114.75 526.798 111.932 526.269 109.202C526.093 107.793 525.829 106.472 525.653 105.152C525.477 103.831 525.213 102.51 525.037 101.277C524.244 96.2577 523.54 91.9428 523.716 89.301C523.892 84.0175 524.244 76.9728 524.244 71.1609C524.244 69.6639 524.244 68.343 524.244 67.0221C524.244 65.7893 524.156 64.6445 524.156 63.764C524.156 61.9147 524.068 60.77 524.068 60.77C524.068 60.77 524.949 61.8267 526.446 63.5878C526.798 64.0281 527.238 64.5565 527.678 65.0848C528.119 65.6132 528.559 66.2296 528.999 66.846C529.968 68.0788 531.025 69.4878 532.169 71.0728C536.572 77.237 541.68 85.7787 544.762 93.704C547.844 101.805 546.699 110.347 544.498 116.599C543.441 119.769 542.208 122.235 541.151 124.084C540.095 125.845 539.39 126.902 539.39 126.902C537.981 128.575 536.484 130.248 534.987 131.921C536.925 122.851 537.013 113.165 536.66 105.68C536.396 101.981 536.132 98.8114 535.78 96.6099C535.692 94.3204 535.428 92.9995 535.428 92.9995Z" fill="white"/>
<path d="M473.345 77.7653C482.063 82.4324 490.781 85.8667 497.473 88.1563C500.732 89.3891 503.55 90.2697 505.487 90.798C507.424 91.4144 508.569 91.6786 508.569 91.6786C508.569 91.6786 508.217 91.2383 507.6 90.5339C506.984 89.7413 506.015 88.6846 504.782 87.4518C502.405 84.8981 499.059 81.6399 495.36 78.3817C491.662 75.2116 487.611 72.1296 483.912 69.9281C482.063 68.7833 480.302 67.8147 478.717 67.1102C477.132 66.4057 475.811 65.9654 474.666 65.7893C472.553 65.349 469.999 65.1729 467.445 64.9968C464.892 64.8207 462.338 64.8207 460.048 64.8207C458.904 64.8207 457.847 64.9087 456.878 64.9087C455.91 64.9968 455.029 64.9968 454.325 65.0849C452.916 65.1729 452.035 65.261 452.035 65.261C452.035 65.261 454.501 68.343 458.023 72.5699C461.457 76.7967 465.596 82.1683 469.647 86.4832C471.584 88.6846 474.226 90.0055 476.868 91.0622C478.189 91.5906 479.598 91.9428 481.006 92.207C482.415 92.4712 483.736 92.7353 485.145 92.9115C487.787 93.2637 490.341 93.2637 492.102 93.3517C493.863 93.3517 495.008 93.2637 495.008 93.2637C497.033 92.9115 499.059 92.6473 501.172 92.3831C494.039 88.6846 487.083 84.8981 481.975 82.1683C476.78 79.5265 473.345 77.7653 473.345 77.7653Z" fill="white"/>
<path d="M504.607 45.2716C510.155 57.2476 511.564 68.6953 511.652 76.7087C511.652 80.7594 511.388 84.0175 511.036 86.219C510.771 88.4205 510.419 89.6533 510.419 89.6533C510.419 89.6533 510.243 89.1249 509.891 88.0682C509.539 87.0996 509.01 85.6907 508.394 83.9295C507.777 82.1683 506.985 80.1429 506.104 77.9415C505.224 75.74 504.255 73.2744 503.198 70.8087C502.142 68.3431 501.085 65.7894 499.94 63.3237C498.795 60.8581 497.739 58.3924 496.77 56.1029C494.745 51.5238 492.983 47.5612 492.455 45.0075C491.31 39.9001 489.901 33.0315 488.404 27.3957C488.052 25.9868 487.7 24.6659 487.436 23.4331C487.084 22.2002 486.819 21.1435 486.555 20.2629C486.027 18.5018 485.763 17.357 485.763 17.357C485.763 17.357 486.907 18.0615 488.757 19.2943C489.197 19.6465 489.725 19.9988 490.342 20.351C490.87 20.7913 491.487 21.1435 492.103 21.6719C493.336 22.5525 494.745 23.6092 496.154 24.7539C501.966 29.4211 508.922 36.0255 513.942 42.7179C515.174 44.3911 516.143 46.2403 517.024 48.0895C517.464 49.0582 517.816 49.9388 518.08 50.9074C518.344 51.8761 518.609 52.8447 518.785 53.8134C519.225 55.7506 519.401 57.5999 519.489 59.4491C519.577 61.2984 519.489 63.0595 519.401 64.7327C519.137 68.0789 518.609 70.8968 518.08 72.9221C517.552 74.9475 517.112 76.0922 517.112 76.0922C516.143 78.1176 515.174 80.231 514.206 82.1683C513.765 72.9221 511.388 63.5879 509.098 56.5432C507.954 53.1089 506.897 50.1149 505.928 48.0895C505.136 46.4164 504.607 45.2716 504.607 45.2716Z" fill="white"/>
<path d="M385.023 375.404L384.583 372.586C392.684 371.265 400.61 369.416 408.359 367.039C416.108 364.573 423.857 361.491 431.166 357.969C438.299 354.534 445.52 350.307 452.653 345.552L457.76 341.942C458.817 341.149 459.873 340.357 460.93 339.476C461.546 339.036 462.075 338.596 462.691 338.155C464.012 337.187 465.333 336.042 466.566 334.985L468.415 333.488C469.736 332.432 471.057 331.287 472.29 330.054C478.19 324.77 483.913 318.782 489.813 311.738C492.103 309.096 494.304 306.19 496.418 303.372L497.739 301.611L502.318 295.007L504.871 290.956C513.853 276.514 520.986 260.576 526.006 243.58C535.78 210.294 536.396 173.221 527.767 139.318C523.364 122.059 516.847 105.768 508.306 91.0622C499.676 76.0042 489.197 62.4431 477.133 50.7313L478.894 48.6179C491.134 60.5058 501.789 74.331 510.507 89.5652C519.137 104.535 525.829 121.002 530.232 138.614C539.038 173.133 538.334 210.734 528.383 244.549C523.276 261.896 516.055 278.099 506.897 292.717L504.343 296.856L499.764 303.548L498.443 305.309C496.33 308.127 494.128 311.033 491.751 313.763C485.763 320.896 479.951 326.972 473.963 332.343C472.73 333.576 471.321 334.721 470 335.866L468.151 337.363C466.83 338.42 465.509 339.564 464.188 340.621C463.66 341.061 463.043 341.502 462.427 341.942C461.37 342.822 460.226 343.615 459.169 344.408L453.973 348.018C446.753 352.861 439.444 357.088 432.223 360.61C424.738 364.133 416.989 367.303 409.063 369.768C401.314 372.146 393.213 373.995 385.023 375.404Z" fill="white"/>
<path d="M443.759 21.9361C450.275 25.8106 456.527 30.0375 462.515 34.7046C468.503 39.3717 474.227 44.4791 479.687 49.9388C479.511 48.9701 479.335 47.8254 479.071 46.5925C478.806 45.3597 478.366 43.9508 478.014 42.5418C477.573 41.0448 477.045 39.4598 476.517 37.8747C475.9 36.2896 475.196 34.7046 474.491 33.0315C474.139 32.2389 473.699 31.4464 473.259 30.6539C472.818 29.8614 472.378 29.0688 471.938 28.3644C470.969 26.8674 470 25.3704 468.944 24.0495C467.887 22.7286 466.654 21.5838 465.509 20.5271C464.277 19.4704 463.044 18.5898 461.723 18.0615C459.874 17.2689 457.672 16.2122 455.118 15.2436C453.798 14.8033 452.477 14.2749 451.068 13.8346C450.363 13.5705 449.659 13.3063 448.954 13.1302C448.25 12.866 447.457 12.6899 446.753 12.4257C445.256 11.9854 443.759 11.5451 442.174 11.1048C440.589 10.6645 439.004 10.3123 437.419 9.96005C434.249 9.16752 430.99 8.63917 427.996 8.11082C424.914 7.67052 421.92 7.23023 419.279 6.96605C416.549 6.70188 414.171 6.52576 412.058 6.4377C408.007 6.26158 405.365 6.17352 405.365 6.17352C405.365 6.17352 407.655 7.84664 411.177 10.3123C412.938 11.6332 414.964 13.1302 417.253 14.8913C418.398 15.7719 419.543 16.6525 420.776 17.6212C422.008 18.5898 423.241 19.4704 424.474 20.5271C429.493 24.5778 434.689 29.1569 439.532 33.2956C441.91 35.4971 444.287 37.3464 446.489 39.1956C447.545 40.0762 448.69 40.8687 449.659 41.6612C450.716 42.4538 451.684 43.1582 452.565 43.7746C457.144 46.5925 462.251 48.5298 467.006 49.7626C469.384 50.3791 471.585 50.9074 473.523 51.2596C475.46 51.5238 477.133 51.788 478.366 51.788C473.259 46.1522 467.799 40.7806 461.987 35.8493C456.175 30.6539 450.099 26.0748 443.759 21.9361Z" fill="white"/>
</g>
<path d="M575.759 273.08C575.759 273.08 569.242 260.664 566.513 257.405C563.783 254.235 552.599 243.756 551.102 240.41C549.605 237.064 549.869 232.485 547.844 232.837C545.907 233.189 542.208 235.831 543.265 241.026C544.322 246.222 549.869 255.204 549.869 255.204L552.423 259.783L549.693 259.871C549.693 259.871 539.39 258.726 536.661 258.726C533.931 258.814 531.817 267.004 531.817 267.004L535.956 297.384C535.956 297.384 540.271 303.46 543.001 304.693C545.731 306.014 559.644 307.247 559.644 307.247L574.526 306.454L611.07 316.229L614.945 285.232C614.945 285.232 590.288 281.71 585.357 280.036C580.514 278.363 579.898 278.628 578.929 277.395C577.784 276.338 575.759 273.08 575.759 273.08Z" fill="white" stroke="#263238" stroke-miterlimit="10"/>
<path d="M540.711 259.607C540.711 259.607 536.749 257.405 534.547 257.581C532.258 257.758 527.767 258.902 527.238 262.072C526.71 265.243 527.415 267.268 530.849 268.501C534.283 269.734 542.473 271.935 546.523 272.64C550.574 273.344 552.776 271.054 553.216 268.765C553.568 266.387 552.952 265.155 550.838 264.626C548.725 264.098 545.291 263.041 545.291 263.041L540.711 259.607Z" fill="white" stroke="#263238" stroke-miterlimit="10"/>
<path d="M530.761 268.413C530.761 268.413 526.534 269.117 525.565 272.023C524.597 274.929 526.094 278.275 528.471 279.244C530.849 280.213 538.862 281.093 542.032 281.269C545.291 281.445 549.077 281.357 550.486 278.892C551.895 276.338 550.046 273.168 548.901 272.992C547.756 272.816 538.862 271.495 536.044 270.526C533.314 269.557 530.761 268.413 530.761 268.413Z" fill="white" stroke="#263238" stroke-miterlimit="10"/>
<path d="M528.471 279.244C528.471 279.244 526.005 281.886 526.358 284.615C526.798 287.257 529.176 289.195 531.113 290.339C532.962 291.484 544.146 290.78 546.523 290.78C548.901 290.868 551.807 287.874 551.631 285.584C551.454 283.295 549.253 282.062 547.932 281.886C546.611 281.621 543.529 281.357 543.529 281.357C543.529 281.357 529.704 279.244 528.471 279.244Z" fill="white" stroke="#263238" stroke-miterlimit="10"/>
<path d="M538.246 291.132C538.246 291.132 531.201 292.717 530.673 295.006C530.145 297.296 532.17 299.321 533.491 300.73C534.812 302.139 541.504 300.642 541.504 300.642C541.504 300.642 549.694 297.032 549.782 294.214C549.87 291.396 547.492 290.956 547.492 290.956L538.246 291.132Z" fill="white" stroke="#263238" stroke-miterlimit="10"/>
<path d="M554.184 262.161C554.184 262.161 555.328 269.381 555.24 272.111C555.152 274.841 553.303 286.289 561.404 289.987" stroke="#263238" stroke-miterlimit="10"/>
<path d="M594.868 280.389L587.383 318.87L598.566 321.336L601.913 281.269L594.868 280.389Z" fill="white" stroke="#263238" stroke-miterlimit="10"/>
<path d="M661.529 289.723L601.913 281.269L594.868 328.997L661.353 342.118L661.529 340.621V289.723Z" fill="#263238" stroke="#263238" stroke-miterlimit="10"/>
<path d="M486.378 328.733C486.378 328.733 484.793 314.732 483.384 310.769C481.975 306.806 475.371 292.981 475.195 289.371C475.018 285.672 476.868 281.534 474.93 281.181C472.993 280.829 468.59 281.974 467.622 287.169C466.741 292.365 468.678 302.756 468.678 302.756L469.383 307.863L466.829 306.894C466.829 306.894 457.671 302.051 455.029 301.083C452.475 300.114 447.544 307.071 447.544 307.071L440.323 336.923C440.323 336.923 442.172 344.143 444.198 346.345C446.223 348.546 458.728 354.798 458.728 354.798L472.905 359.466L503.373 381.833L525.124 357.792C525.124 357.792 496.593 342.118 492.63 338.772C488.668 335.426 488.051 335.514 487.611 334.017C487.171 332.52 486.378 328.733 486.378 328.733Z" fill="white" stroke="#263238" stroke-miterlimit="10"/>
<path d="M458.641 303.372C458.641 303.372 455.735 299.938 453.621 299.233C451.508 298.529 446.841 298.001 445.256 300.73C443.583 303.46 443.495 305.662 446.224 308.039C448.954 310.417 455.823 315.524 459.345 317.55C462.867 319.663 465.773 318.43 466.918 316.317C468.151 314.291 467.975 312.794 466.214 311.562C464.364 310.329 461.635 308.039 461.635 308.039L458.641 303.372Z" fill="white" stroke="#263238" stroke-miterlimit="10"/>
<path d="M446.224 308.039C446.224 308.039 441.997 307.159 440.059 309.536C438.034 311.914 438.298 315.612 440.147 317.285C442.085 319.047 449.129 322.833 452.035 324.154C454.941 325.475 458.552 326.796 460.841 325.035C463.131 323.273 462.514 319.487 461.546 318.959C460.489 318.342 452.74 313.939 450.45 312.002C448.161 310.065 446.224 308.039 446.224 308.039Z" fill="white" stroke="#263238" stroke-miterlimit="10"/>
<path d="M440.148 317.285C440.148 317.285 436.801 318.87 436.273 321.512C435.745 324.154 437.242 326.796 438.562 328.557C439.883 330.318 450.538 333.664 452.74 334.545C454.941 335.426 458.728 333.752 459.432 331.639C460.137 329.526 458.464 327.5 457.319 326.884C456.174 326.179 453.444 324.77 453.444 324.77C453.444 324.77 441.292 317.726 440.148 317.285Z" fill="white" stroke="#263238" stroke-miterlimit="10"/>
<path d="M444.903 331.903C444.903 331.903 437.77 330.846 436.449 332.784C435.128 334.721 436.273 337.363 437.066 339.124C437.77 340.885 444.551 341.942 444.551 341.942C444.551 341.942 453.444 341.502 454.589 338.948C455.734 336.306 453.621 335.073 453.621 335.073L444.903 331.903Z" fill="white" stroke="#263238" stroke-miterlimit="10"/>
<path d="M470.263 310.681C470.263 310.681 468.678 317.814 467.709 320.367C466.653 322.921 460.753 332.872 467.005 339.212" stroke="#263238" stroke-miterlimit="10"/>
<path d="M617.411 400.677C603.585 393.368 547.316 363.516 543.617 361.227C539.39 358.585 530.32 359.289 530.32 359.289L506.721 393.897C506.721 393.897 506.456 398.123 508.834 400.677H617.411Z" fill="url(#paint0_linear_4334_96041)" stroke="#263238" stroke-miterlimit="10"/>
<path d="M527.679 366.158L537.189 371.089" stroke="#263238" stroke-miterlimit="10"/>
<path d="M526.094 369.945C526.094 369.945 530.321 374.171 531.377 374.524" stroke="#263238" stroke-miterlimit="10"/>
<path d="M501.966 340.973L481.008 374.083L506.721 393.897L530.321 359.289L501.966 340.973Z" fill="url(#paint1_linear_4334_96041)" stroke="#263238" stroke-miterlimit="10"/>
<path d="M124.017 344.848C124.017 344.848 134.76 334.105 135.553 329.349C136.346 324.594 130.71 313.235 131.502 309.096C132.295 304.957 133.263 290.075 133.263 290.075C133.263 290.075 133.88 287.874 132.999 284.88C132.119 281.886 129.829 278.011 130.974 277.483C133.263 276.426 137.843 276.074 142.51 284.351C144.007 287.081 143.742 295.887 144.535 298.177C145.239 300.466 146.032 302.491 146.032 302.491L155.454 293.862C159.417 290.251 164.524 285.496 169.28 290.339C170.777 291.924 170.248 296.327 170.248 296.327C170.248 296.327 175.003 297.472 176.06 299.145C177.117 300.818 177.205 304.076 177.997 305.75C178.878 307.863 180.639 309.448 181.52 311.562C182.488 313.939 182.664 316.845 183.633 319.399C186.011 325.739 183.105 330.582 178.526 335.161C171.305 342.294 163.996 346.785 155.19 351.54L137.138 378.31L115.476 354.27L124.017 344.848Z" fill="white" stroke="#263238" stroke-miterlimit="10"/>
<path d="M126.395 400.677L143.742 371.442L120.495 347.666L60.791 400.677H126.395Z" fill="url(#paint2_linear_4334_96041)" stroke="#263238" stroke-miterlimit="10"/>
<path d="M134.936 368.624C136.169 369.945 136.169 371.97 134.848 373.203C133.528 374.436 131.502 374.436 130.269 373.115C129.037 371.794 129.037 369.768 130.357 368.536C131.59 367.303 133.616 367.391 134.936 368.624Z" fill="#263238" stroke="#263238" stroke-miterlimit="10"/>
<path d="M124.017 344.848L145.503 364.661L148.409 361.051L127.363 342.206L124.017 344.848Z" fill="#263238" stroke="#263238" stroke-miterlimit="10"/>
<path d="M142.069 352.509C143.478 354.71 142.861 357.704 140.66 359.113C138.458 360.522 135.464 359.906 134.056 357.704C132.647 355.503 133.263 352.509 135.464 351.1C137.666 349.691 140.66 350.307 142.069 352.509Z" fill="url(#paint3_linear_4334_96041)" stroke="#263238" stroke-miterlimit="10"/>
<path d="M6.10806 349.779L53.6598 301.17C53.6598 301.17 67.1328 298.176 73.385 295.094C79.6372 292.1 80.4297 292.1 80.4297 292.1C80.4297 292.1 86.6819 289.811 89.9401 287.521C93.1982 285.232 100.947 252.474 100.507 249.48C100.155 246.486 88.7953 243.58 88.7953 243.58C88.7953 243.58 77.9641 241.643 74.0014 241.643C70.0388 241.643 67.397 244.461 67.397 244.461C67.397 244.461 66.2522 242.787 65.9 239.353C65.5478 235.919 67.397 226.32 67.2209 221.213C67.0448 216.106 63.0821 210.382 60.4404 209.325C57.7986 208.268 55.8613 208.973 57.1822 216.546C58.5031 224.119 55.0688 235.302 53.3956 240.41C51.7225 245.517 44.6778 267.268 44.6778 267.268L40.0988 273.344L3.73047 296.503" fill="white"/>
<path d="M6.10806 349.779L53.6598 301.17C53.6598 301.17 67.1328 298.176 73.385 295.094C79.6372 292.1 80.4297 292.1 80.4297 292.1C80.4297 292.1 86.6819 289.811 89.9401 287.521C93.1982 285.232 100.947 252.474 100.507 249.48C100.155 246.486 88.7953 243.58 88.7953 243.58C88.7953 243.58 77.9641 241.643 74.0014 241.643C70.0388 241.643 67.397 244.461 67.397 244.461C67.397 244.461 66.2522 242.787 65.9 239.353C65.5478 235.919 67.397 226.32 67.2209 221.213C67.0448 216.106 63.0821 210.382 60.4404 209.325C57.7986 208.268 55.8613 208.973 57.1822 216.546C58.5031 224.119 55.0688 235.302 53.3956 240.41C51.7225 245.517 44.6778 267.268 44.6778 267.268L40.0988 273.344L3.73047 296.503" stroke="#263238" stroke-miterlimit="10"/>
<path d="M76.5547 270.79C76.5547 270.79 73.2965 269.998 72.9443 272.727C72.592 275.369 74.6174 278.627 77.083 280.829C79.5487 283.118 89.7635 283.471 89.7635 283.471C89.7635 283.471 98.8336 282.326 100.154 278.892C101.475 275.457 99.9783 271.847 99.9783 271.847L98.4813 270.174C98.4813 270.174 93.0217 271.319 87.2979 271.319C81.574 271.319 76.5547 270.79 76.5547 270.79Z" fill="white" stroke="#263238" stroke-miterlimit="10"/>
<path d="M76.5559 261.016C76.5559 261.016 73.7381 262.513 73.9142 265.595C74.0903 268.589 77.5246 271.495 79.638 273.168C81.7514 274.841 88.8842 273.96 92.4946 272.992C96.105 272.023 99.099 270.878 100.42 268.413C101.741 265.947 102.357 263.129 100.948 261.192C99.6274 259.254 98.4826 258.726 98.4826 258.726L76.5559 261.016Z" fill="white" stroke="#263238" stroke-miterlimit="10"/>
<path d="M94.6948 248.071C94.6948 248.071 91.4367 248.423 89.5874 249.568C87.6501 250.713 85.977 252.034 85.977 252.034C85.977 252.034 82.1905 252.21 79.7248 252.386C77.2592 252.562 73.6488 252.21 73.4727 254.499C73.2965 256.789 73.4727 259.431 74.9697 260.223C76.4667 261.016 85.8009 263.481 85.8009 263.481C85.8009 263.481 95.4874 260.487 98.4814 258.726C101.475 257.053 102.796 253.971 102.268 251.329C101.74 248.687 98.8336 248.335 98.8336 248.335" fill="white"/>
<path d="M94.6948 248.071C94.6948 248.071 91.4367 248.423 89.5874 249.568C87.6501 250.713 85.977 252.034 85.977 252.034C85.977 252.034 82.1905 252.21 79.7248 252.386C77.2592 252.562 73.6488 252.21 73.4727 254.499C73.2965 256.789 73.4727 259.431 74.9697 260.223C76.4667 261.016 85.8009 263.481 85.8009 263.481C85.8009 263.481 95.4874 260.487 98.4814 258.726C101.475 257.053 102.796 253.971 102.268 251.329C101.74 248.687 98.8336 248.335 98.8336 248.335" stroke="#263238" stroke-miterlimit="10"/>
<path d="M96.9859 282.238C96.9859 282.238 98.4829 283.559 97.5142 286.553C96.5456 289.547 93.9038 291.132 89.765 291.66C85.6263 292.188 78.7577 289.987 76.9084 287.521C74.9711 285.056 77.0846 280.917 77.0846 280.917C77.0846 280.917 80.5189 283.118 86.0666 283.295C91.7023 283.383 96.9859 282.238 96.9859 282.238Z" fill="white" stroke="#263238" stroke-miterlimit="10"/>
<path d="M71.8001 266.299C71.8001 266.299 72.1523 273.52 69.2464 276.602C66.3404 279.684 60.0883 281.886 56.8301 280.124" stroke="#263238" stroke-miterlimit="10"/>
<path d="M68.4531 247.014C68.4531 247.014 71.9755 251.065 72.1516 257.757" stroke="#263238" stroke-miterlimit="10"/>
<path d="M84.3919 245.253C84.3919 245.253 83.2471 249.48 84.4799 251.593" stroke="#263238" stroke-miterlimit="10"/>
<path d="M76.1143 246.838C76.1143 246.838 78.3157 249.48 77.6113 252.298" stroke="#263238" stroke-miterlimit="10"/>
<path d="M31.9963 278.099L51.105 313.323L36.047 329.614L18.6113 286.377L31.9963 278.099Z" fill="white" stroke="#263238" stroke-miterlimit="10"/>
<path d="M18.6118 286.377L38.1608 329.878L1 367.743L1.26418 295.623L18.6118 286.377Z" fill="url(#paint4_linear_4334_96041)" stroke="#263238" stroke-miterlimit="10"/>
<path d="M451.33 196.292C453.796 184.493 476.956 176.039 469.118 152.439C466.653 145.13 461.986 138.878 455.822 134.299C451.242 130.865 445.254 129.808 440.763 126.198C435.48 121.971 435.92 115.542 433.895 109.554C431.341 101.805 424.12 98.8994 416.459 99.4277C407.477 100.044 398.319 102.422 389.777 105.504C389.777 105.504 420.686 67.1982 396.47 36.8179C380.267 16.5644 363.8 16.2121 339.936 21.0554C315.984 25.8986 307.971 39.8999 307.971 48.4417C307.971 57.0714 313.078 60.0654 313.078 60.0654C313.078 60.0654 322.765 54.8699 335.093 56.0147C347.421 57.0714 363.624 100.396 363.007 104.359C362.831 105.416 363.184 107.089 363.8 109.026C363.096 109.466 362.567 109.731 362.303 109.731C359.485 110.347 379.474 150.502 382.38 172.693C385.374 194.883 383.349 246.134 388.28 249.568C393.212 253.002 412.937 262.865 432.134 254.499C451.331 246.134 453.356 234.774 453.796 223.943C454.325 213.024 448.865 208.092 451.33 196.292Z" fill="#263238" stroke="#263238" stroke-miterlimit="10"/>
<path d="M404.748 55.9266C404.748 55.9266 408.886 62.0027 406.685 77.3249C404.483 92.6472 389.689 105.416 389.689 105.416" stroke="#263238" stroke-miterlimit="10"/>
<path d="M423.24 99.6919C423.24 99.6919 434.071 100.044 436.009 107.001C437.946 114.045 433.543 118.008 440.676 126.11C444.022 129.896 449.746 133.859 454.853 136.941C464.54 142.841 471.056 153.056 471.761 164.415C472.025 168.466 471.496 172.34 469.559 175.423C462.867 186.254 449.746 190.128 451.331 200.695C452.916 211.262 463.131 230.723 456.086 240.938C449.041 251.153 435.921 257.581 427.027 253.707" stroke="#263238" stroke-miterlimit="10"/>
<path d="M375.864 58.3043L387.048 52.4924L389.513 57.4237L378.77 62.7953L375.864 58.3043Z" fill="url(#paint5_linear_4334_96041)" stroke="#263238" stroke-miterlimit="10"/>
<path d="M408.095 337.891C408.095 337.891 421.48 366.686 426.147 388.789L428.172 400.853H252.055C252.055 400.853 258.659 364.485 265.44 343.967L408.095 337.891Z" fill="#263238" stroke="#263238" stroke-miterlimit="10"/>
<path d="M389.251 135.972L427.204 154.817C427.204 154.817 428.701 168.114 422.449 196.116C416.197 224.119 378.332 275.457 378.332 275.457C378.332 275.457 401.139 310.417 409.24 328.909C417.342 347.313 419.191 349.867 419.191 349.867C419.191 349.867 416.637 356.472 377.891 366.422C339.233 376.373 310.438 374.171 310.438 374.171L300.84 346.169L287.719 373.027C287.719 373.027 281.467 374.876 268.963 371.882C256.458 368.976 253.816 367.479 253.816 367.479L283.668 253.267C283.668 253.267 276.712 148.3 280.322 146.099C284.021 143.897 321.358 141.696 321.358 141.696L389.251 135.972Z" fill="url(#paint6_linear_4334_96041)" stroke="#263238" stroke-miterlimit="10"/>
<path d="M306.123 243.932C306.123 243.932 298.903 256.084 299.431 260.575C299.959 264.978 301.632 298.265 301.632 298.265" stroke="#263238" stroke-miterlimit="10" stroke-linecap="round" stroke-linejoin="round"/>
<path d="M308.941 260.575C308.941 262.072 307.708 263.305 306.211 263.305C304.714 263.305 303.481 262.072 303.481 260.575C303.481 259.078 304.714 257.846 306.211 257.846C307.708 257.846 308.941 259.078 308.941 260.575Z" stroke="#263238" stroke-miterlimit="10" stroke-linecap="round" stroke-linejoin="round"/>
<path d="M310.526 287.169C310.526 288.666 309.293 289.899 307.796 289.899C306.299 289.899 305.066 288.666 305.066 287.169C305.066 285.672 306.299 284.439 307.796 284.439C309.293 284.439 310.526 285.672 310.526 287.169Z" stroke="#263238" stroke-miterlimit="10" stroke-linecap="round" stroke-linejoin="round"/>
<path d="M344.253 213.816L384.232 181.234L377.363 166.441L389.163 165.824L396.56 141.08" stroke="#263238" stroke-miterlimit="10"/>
<path d="M317.396 235.655L337.473 219.276" stroke="#263238" stroke-miterlimit="10"/>
<path d="M314.93 145.394L306.212 158.956L311.231 165.12L300.048 176.92L307.533 235.038" stroke="#263238" stroke-miterlimit="10"/>
<path d="M321.357 141.696L314.312 230.723L389.251 135.972L342.756 141.08L321.357 141.696Z" fill="white" stroke="#263238" stroke-miterlimit="10"/>
<path d="M335.181 114.662C335.181 114.662 340.288 120.826 338.879 128.223C337.558 135.62 331.747 138.262 330.426 139.671C329.105 140.991 321.268 141.696 321.268 141.696C321.268 141.696 323.205 179.913 333.332 181.234C343.458 182.555 364.769 163.799 370.492 157.723C379.122 148.476 389.161 135.972 389.161 135.972C389.161 135.972 376.745 123.468 373.927 115.014C370.581 104.887 370.228 93.4397 370.228 93.4397L335.181 114.662Z" fill="white" stroke="#263238" stroke-miterlimit="10"/>
<path d="M357.989 117.216L335.886 115.631C337.207 117.656 339.937 122.587 338.968 128.223C337.647 135.62 331.835 138.262 330.515 139.671C329.194 140.992 321.356 141.696 321.356 141.696L325.407 161.157L357.989 117.216Z" fill="#263238" stroke="#263238" stroke-miterlimit="10"/>
<path d="M321.182 43.3343C315.106 47.2089 312.641 53.4611 312.993 62.0028C313.697 78.6459 313.081 72.9221 317.396 84.2817C318.188 86.307 308.062 88.8607 327.17 118.625C332.454 126.814 338.53 128.223 343.461 126.814C348.392 125.405 355.085 120.122 364.595 114.046C374.106 107.969 376.307 96.3457 376.307 96.3457C376.307 96.3457 389.076 90.0055 388.723 79.7026C388.371 69.4878 379.918 66.5818 376.659 68.343C373.489 70.1042 373.489 70.1042 373.489 70.1042C373.489 70.1042 366.885 73.3624 360.809 68.0788C358.431 65.9654 356.142 64.2923 354.645 61.4744C351.563 55.7506 350.858 47.5611 345.575 43.3343C340.731 39.3716 333.687 38.9314 327.875 40.5164C325.321 41.2209 323.12 42.1895 321.182 43.3343Z" fill="white" stroke="#263238" stroke-miterlimit="10" stroke-linecap="round" stroke-linejoin="round"/>
<path d="M340.555 79.1743C340.555 79.1743 342.404 79.7026 344.958 78.4698" stroke="#263238" stroke-miterlimit="10" stroke-linecap="round" stroke-linejoin="round"/>
<path d="M326.906 81.6399C327.258 84.1056 326.553 86.1309 325.409 86.3071C324.264 86.4832 323.031 84.6339 322.767 82.1683C322.415 79.7026 323.119 77.6773 324.264 77.5012C325.321 77.325 326.553 79.1743 326.906 81.6399Z" fill="#263238" stroke="#263238" stroke-miterlimit="10"/>
<path d="M322.326 28.4523C322.326 28.4523 315.546 26.6912 307.62 29.2449C299.695 31.7105 295.997 43.2462 297.67 51.5238C299.343 59.8013 305.595 71.4251 305.595 71.4251L323.647 67.8146L323.207 52.9327L326.377 66.5818L342.58 62.0028L344.781 47.4731L348.039 62.2669L358.518 64.4684C358.518 64.4684 359.751 46.5925 354.82 37.5224C349.712 28.4523 329.811 22.2002 322.326 28.4523Z" fill="#263238" stroke="#263238" stroke-miterlimit="10"/>
<path d="M339.233 77.9414C339.233 77.9414 340.466 74.9474 344.429 73.9787C348.392 73.0101 352.09 77.1489 352.09 77.1489" stroke="#263238" stroke-miterlimit="10" stroke-linecap="round" stroke-linejoin="round"/>
<path d="M331.396 83.225L330.339 92.1189C330.075 94.0562 331.66 95.7293 333.686 95.6413L336.415 95.4652" stroke="#263238" stroke-miterlimit="10" stroke-linecap="round" stroke-linejoin="round"/>
<path d="M331.044 102.334C331.044 102.334 341.259 104.799 345.574 95.289" stroke="#263238" stroke-miterlimit="10" stroke-linecap="round" stroke-linejoin="round"/>
<path d="M336.855 67.6385C336.855 67.6385 340.114 61.2983 349.624 66.2296" stroke="#263238" stroke-width="2" stroke-miterlimit="10" stroke-linecap="round" stroke-linejoin="round"/>
<path d="M325.409 70.5444C325.409 70.5444 318.012 67.1982 315.811 74.8593" stroke="#263238" stroke-width="2" stroke-miterlimit="10" stroke-linecap="round" stroke-linejoin="round"/>
<path d="M201.86 227.377C201.86 227.377 224.668 272.904 229.951 276.954C235.323 281.005 264.999 269.734 264.999 269.734L201.86 227.377Z" fill="white" stroke="#263238" stroke-miterlimit="10"/>
<path d="M353.939 308.127C340.73 309.536 304.098 312.354 295.38 302.491C284.725 290.339 279.794 264.538 279.794 264.538L258.131 272.199C258.131 272.199 270.548 295.359 269.931 311.473C269.403 324.682 239.111 345.552 228.015 352.773C225.638 354.358 224.669 357.264 225.638 359.906C226.782 363.076 230.305 364.749 233.475 363.604L356.669 319.927C359.839 318.782 361.512 315.26 360.368 312.09C359.311 309.536 356.669 307.863 353.939 308.127Z" fill="white" stroke="#263238" stroke-miterlimit="10"/>
<path d="M342.315 312.266C330.867 313.058 298.902 314.203 290.8 304.076C280.937 291.66 275.478 266.035 275.478 266.035L270.723 267.708C270.723 267.708 276.182 293.333 286.045 305.75C294.058 315.876 320.476 316.669 332.012 315.876C334.477 315.7 336.855 317.461 337.824 320.103C338.968 323.273 337.647 326.62 334.918 327.588L345.22 323.89C347.95 322.921 349.271 319.575 348.126 316.405C347.158 313.851 344.78 312.09 342.315 312.266Z" fill="#263238" stroke="#263238" stroke-miterlimit="10"/>
<path d="M276.183 288.754C279.441 287.609 282.435 285.76 285.077 283.295C281.466 273.432 279.793 264.45 279.793 264.45L258.131 272.111C258.131 272.111 262.446 280.212 265.88 290.075C269.402 290.339 272.925 289.899 276.183 288.754Z" fill="#263238" stroke="#263238" stroke-miterlimit="10"/>
<path d="M212.428 250.977C201.068 255.028 185.482 257.581 169.103 251.329C138.282 239.529 124.369 201.048 123.752 199.463L123.488 198.67C122.432 195.764 123.929 192.682 126.835 191.625L187.507 170.139L191.734 182.027L138.106 201.048C142.861 211.351 154.661 232.309 173.594 239.529C198.426 249.04 222.643 231.868 222.907 231.692L230.304 241.907C229.775 242.347 222.907 247.279 212.428 250.977Z" fill="white" stroke="#263238" stroke-miterlimit="10"/>
<path d="M303.129 218.835C314.488 214.785 328.225 206.948 337.031 191.889C353.586 163.358 340.113 124.701 339.585 123.027L339.321 122.235C338.264 119.329 335.182 117.832 332.276 118.889L271.604 140.375L275.83 152.263L329.458 133.242C332.188 144.25 336.327 167.937 326.112 185.461C312.815 208.445 283.227 210.382 282.875 210.382L283.58 222.974C284.284 223.062 292.738 222.534 303.129 218.835Z" fill="white" stroke="#263238" stroke-miterlimit="10"/>
<path d="M282.875 210.47L283.579 223.062C284.284 223.062 292.738 222.534 303.217 218.836C303.921 218.571 304.537 218.307 305.242 218.131C305.594 213.552 305.682 208.885 305.682 204.042C294.058 209.765 283.051 210.47 282.875 210.47Z" fill="#263238" stroke="#263238" stroke-miterlimit="10"/>
<path d="M275.83 152.351L298.109 144.426C297.053 140.287 295.996 136.236 294.763 132.186L271.604 140.375L275.83 152.351Z" fill="#263238" stroke="#263238" stroke-miterlimit="10"/>
<path d="M272.22 277.571C305.418 265.771 307.091 184.933 285.781 124.701L165.404 167.321C186.715 227.553 238.933 289.283 272.22 277.571Z" fill="white" stroke="#263238" stroke-miterlimit="10"/>
<path d="M288.511 133.066C287.63 130.248 286.749 127.43 285.781 124.701L165.404 167.321C166.373 170.051 167.43 172.781 168.486 175.511L288.511 133.066Z" fill="#263238" stroke="#263238" stroke-miterlimit="10"/>
<path d="M265.791 131.745C284.195 183.612 283.403 252.298 257.689 271.142C260.155 271.054 262.621 270.614 264.998 269.733C297.052 258.374 299.429 182.819 279.616 126.902L265.791 131.745Z" fill="#263238" stroke="#263238" stroke-miterlimit="10"/>
<path d="M285.075 128.223L168.133 169.611C165.227 170.667 161.969 169.082 160.912 166.176C159.856 163.27 161.441 160.012 164.347 158.955L281.289 117.48C284.195 116.423 287.453 118.008 288.51 120.914C289.566 123.908 287.981 127.166 285.075 128.223Z" fill="white" stroke="#263238" stroke-miterlimit="10"/>
<path d="M274.597 323.361C274.597 323.361 256.457 328.557 253.639 333.752C250.821 338.948 249.588 341.942 247.563 344.848C245.538 347.842 244.745 349.691 249.148 350.748C253.551 351.804 257.161 345.2 258.834 344.407C260.508 343.615 252.758 357.704 254.431 359.554C256.017 361.403 260.86 360.698 262.093 359.906C263.325 359.201 268.961 355.503 268.961 355.503C268.961 355.503 279.792 356.648 286.661 351.804C293.53 346.961 295.115 338.067 298.285 334.721C301.543 331.375 310.349 326.972 310.349 326.972L303.128 311.033L274.597 323.361Z" fill="white" stroke="#263238" stroke-miterlimit="10"/>
<path d="M299.43 310.857L293.178 315.26L302.336 335.073L313.167 328.733L299.43 310.857Z" fill="white" stroke="#263238" stroke-miterlimit="10"/>
<path d="M384.847 193.034L364.681 245.87L298.373 311.209L314.312 335.249L396.559 280.917C396.559 280.917 431.606 187.399 436.802 178.857C441.909 170.315 431.43 158.251 427.203 154.905C422.976 151.559 409.856 146.98 409.856 146.98" fill="url(#paint7_linear_4334_96041)"/>
<path d="M384.847 193.034L364.681 245.87L298.373 311.209L314.312 335.249L396.559 280.917C396.559 280.917 431.606 187.399 436.802 178.857C441.909 170.315 431.43 158.251 427.203 154.905C422.976 151.559 409.856 146.98 409.856 146.98" stroke="#263238" stroke-miterlimit="10"/>
<path d="M398.584 189.336C394.621 192.418 391.627 195.06 390.923 196.292" stroke="#263238" stroke-miterlimit="10" stroke-linecap="round" stroke-linejoin="round"/>
<path d="M429.757 178.593C429.757 178.593 427.556 171.9 422.536 173.573C419.894 174.454 411.617 179.825 404.132 185.197" stroke="#263238" stroke-miterlimit="10" stroke-linecap="round" stroke-linejoin="round"/>
<path d="M407.038 171.372C407.038 171.372 397.087 176.303 390.923 184.669" stroke="#263238" stroke-miterlimit="10" stroke-linecap="round" stroke-linejoin="round"/>
<path d="M171.305 200.079C169.191 200.695 168.047 202.985 169.015 205.01C169.632 206.331 170.512 207.74 171.569 208.445C174.123 210.206 182.84 206.331 183.633 202.457C184.514 198.582 180.639 196.821 178.878 197.701C177.821 198.23 174.123 199.286 171.305 200.079Z" fill="white" stroke="#263238" stroke-miterlimit="10"/>
<path d="M186.539 221.389C185.042 221.83 184.161 223.503 184.866 225C185.306 225.968 185.923 226.937 186.715 227.465C188.564 228.698 194.817 225.88 195.433 223.062C196.049 220.244 193.231 219.012 191.999 219.628C191.294 219.98 188.652 220.773 186.539 221.389Z" fill="white" stroke="#263238" stroke-miterlimit="10"/>
<path d="M180.903 216.37C178.966 216.898 177.997 219.012 178.79 220.773C179.318 222.006 180.111 223.239 181.079 223.855C183.369 225.44 191.206 221.918 191.999 218.395C192.791 214.873 189.269 213.376 187.684 214.168C186.803 214.609 183.545 215.665 180.903 216.37Z" fill="white" stroke="#263238" stroke-miterlimit="10"/>
<path d="M174.827 208.797C172.714 209.413 171.569 211.703 172.538 213.728C173.154 215.049 174.035 216.458 175.091 217.162C177.645 218.924 186.363 215.049 187.155 211.174C188.036 207.3 184.161 205.539 182.4 206.419C181.344 206.86 177.645 207.916 174.827 208.797Z" fill="white" stroke="#263238" stroke-miterlimit="10"/>
<path d="M278.584 131.906C287.872 129.757 293.658 120.486 291.508 111.198C289.359 101.911 280.088 96.1249 270.8 98.2744C261.513 100.424 255.727 109.695 257.876 118.982C260.026 128.27 269.297 134.056 278.584 131.906Z" fill="white" stroke="#263238" stroke-miterlimit="10"/>
<path d="M197.556 274.621C206.832 272.431 212.577 263.135 210.386 253.858C208.196 244.581 198.9 238.837 189.623 241.027C180.346 243.218 174.602 252.514 176.792 261.791C178.983 271.067 188.279 276.812 197.556 274.621Z" fill="white" stroke="#263238" stroke-miterlimit="10"/>
<path d="M432.312 5.55704C426.236 -0.519015 416.373 -0.519015 410.297 5.55704L405.454 10.4003L400.611 5.55704C394.535 -0.519015 384.672 -0.519015 378.596 5.55704C372.52 11.6331 372.52 21.4957 378.596 27.5718L405.454 53.1969L432.312 27.5718C438.388 21.4957 438.388 11.6331 432.312 5.55704Z" fill="url(#paint8_linear_4334_96041)" stroke="#263238" stroke-miterlimit="10"/>
<path d="M451.42 60.2416C447.897 56.7193 442.262 56.7193 438.739 60.2416L435.921 63.0595L433.104 60.2416C429.581 56.7193 423.945 56.7193 420.423 60.2416C416.901 63.764 416.901 69.3997 420.423 72.9221L435.921 87.716L451.42 73.0101C454.942 69.4878 454.942 63.764 451.42 60.2416Z" fill="url(#paint9_linear_4334_96041)" stroke="#263238" stroke-miterlimit="10"/>
<path d="M286.663 44.6552C283.845 41.8373 279.178 41.8373 276.36 44.6552L274.07 46.9447L271.781 44.6552C268.963 41.8373 264.296 41.8373 261.478 44.6552C258.66 47.473 258.66 52.1402 261.478 54.958L274.07 66.934L286.663 54.958C289.568 52.1402 289.568 47.473 286.663 44.6552Z" fill="url(#paint10_linear_4334_96041)" stroke="#263238" stroke-miterlimit="10"/>
<path d="M2.05664 400.765H660.737" stroke="#263238" stroke-miterlimit="10" stroke-linecap="round" stroke-linejoin="round"/>
<defs>
<linearGradient id="paint0_linear_4334_96041" x1="506.712" y1="379.941" x2="600.446" y2="379.941" gradientUnits="userSpaceOnUse">
<stop stop-color="#43D9BB"/>
<stop offset="1" stop-color="#0299ED"/>
</linearGradient>
<linearGradient id="paint1_linear_4334_96041" x1="481.008" y1="367.435" x2="522.763" y2="367.435" gradientUnits="userSpaceOnUse">
<stop stop-color="#43D9BB"/>
<stop offset="1" stop-color="#0299ED"/>
</linearGradient>
<linearGradient id="paint2_linear_4334_96041" x1="60.791" y1="374.171" x2="131.03" y2="374.171" gradientUnits="userSpaceOnUse">
<stop stop-color="#43D9BB"/>
<stop offset="1" stop-color="#0299ED"/>
</linearGradient>
<linearGradient id="paint3_linear_4334_96041" x1="133.301" y1="355.107" x2="141.364" y2="355.107" gradientUnits="userSpaceOnUse">
<stop stop-color="#43D9BB"/>
<stop offset="1" stop-color="#0299ED"/>
</linearGradient>
<linearGradient id="paint4_linear_4334_96041" x1="1" y1="327.06" x2="32.4658" y2="327.06" gradientUnits="userSpaceOnUse">
<stop stop-color="#43D9BB"/>
<stop offset="1" stop-color="#0299ED"/>
</linearGradient>
<linearGradient id="paint5_linear_4334_96041" x1="375.864" y1="57.6438" x2="387.422" y2="57.6438" gradientUnits="userSpaceOnUse">
<stop stop-color="#43D9BB"/>
<stop offset="1" stop-color="#0299ED"/>
</linearGradient>
<linearGradient id="paint6_linear_4334_96041" x1="253.816" y1="255.175" x2="400.765" y2="255.175" gradientUnits="userSpaceOnUse">
<stop stop-color="#43D9BB"/>
<stop offset="1" stop-color="#0299ED"/>
</linearGradient>
<linearGradient id="paint7_linear_4334_96041" x1="298.373" y1="241.115" x2="416.75" y2="241.115" gradientUnits="userSpaceOnUse">
<stop stop-color="#43D9BB"/>
<stop offset="1" stop-color="#0299ED"/>
</linearGradient>
<linearGradient id="paint8_linear_4334_96041" x1="374.039" y1="27.0984" x2="427.24" y2="27.0984" gradientUnits="userSpaceOnUse">
<stop stop-color="#43D9BB"/>
<stop offset="1" stop-color="#0299ED"/>
</linearGradient>
<linearGradient id="paint9_linear_4334_96041" x1="417.781" y1="72.6579" x2="448.501" y2="72.6579" gradientUnits="userSpaceOnUse">
<stop stop-color="#43D9BB"/>
<stop offset="1" stop-color="#0299ED"/>
</linearGradient>
<linearGradient id="paint10_linear_4334_96041" x1="259.364" y1="54.7379" x2="284.324" y2="54.7379" gradientUnits="userSpaceOnUse">
<stop stop-color="#43D9BB"/>
<stop offset="1" stop-color="#0299ED"/>
</linearGradient>
</defs>
</svg>
