<svg width="301" height="556" viewBox="0 0 301 556" fill="none" xmlns="http://www.w3.org/2000/svg">
<path d="M0 555.668V177.335L238.836 21.1425C291.512 -16.2565 300.881 3.91241 300.88 21.1425V341.858C300.88 378.511 282.338 403.314 250.178 423.078L0 555.668Z" fill="#7EADF3" fill-opacity="0.1"/>
<mask id="mask0_427_39827" style="mask-type:alpha" maskUnits="userSpaceOnUse" x="0" y="0" width="301" height="556">
<path d="M0 555.668V177.335L238.836 21.1425C291.512 -16.2565 300.881 3.91241 300.88 21.1425V341.858C300.88 378.511 282.338 403.314 250.178 423.078L0 555.668Z" fill="white"/>
</mask>
<g mask="url(#mask0_427_39827)">
<path d="M154.551 278.647L0.032196 177.416V372.175L154.551 278.647Z" fill="#A7C9FB" fill-opacity="0.1"/>
<path d="M162.068 469.601L0.0319519 372.125V555.67L162.068 469.601Z" fill="#7DA1D8" fill-opacity="0.1"/>
<path d="M154.566 278.648L300.879 179.108V372.176L154.566 278.648Z" fill="#4773B5" fill-opacity="0.1"/>
</g>
</svg>
