<svg width="45" height="45" viewBox="0 0 45 45" fill="none" xmlns="http://www.w3.org/2000/svg">
<circle cx="22.5" cy="22.5" r="22" stroke="url(#paint0_linear_3933_77717)"/>
<path d="M30.046 28.552C30.4411 28.0088 30.6552 27.355 30.658 26.6832C30.6623 26.5949 30.6313 26.5085 30.5718 26.4431C30.5124 26.3776 30.4293 26.3385 30.341 26.3342C30.1578 26.3274 30.0027 26.4682 29.992 26.6512C29.9945 27.1836 29.8305 27.7034 29.523 28.138C28.8726 28.9594 27.6385 29.001 27.3975 29.001C27.2134 29.001 27.0641 29.1503 27.0641 29.3344C27.0641 29.5185 27.2134 29.6677 27.3975 29.6677C27.6922 29.6677 29.2046 29.6141 30.046 28.552Z" fill="white"/>
<path d="M30.046 28.552C30.4411 28.0088 30.6552 27.355 30.658 26.6832C30.6623 26.5949 30.6313 26.5085 30.5718 26.4431C30.5124 26.3776 30.4293 26.3385 30.341 26.3342C30.1578 26.3274 30.0027 26.4682 29.992 26.6512C29.9945 27.1836 29.8305 27.7034 29.523 28.138C28.8726 28.9594 27.6385 29.001 27.3975 29.001C27.2134 29.001 27.0641 29.1503 27.0641 29.3344C27.0641 29.5185 27.2134 29.6677 27.3975 29.6677C27.6922 29.6677 29.2046 29.6141 30.046 28.552Z" stroke="white"/>
<path d="M23.334 24.3342C23.334 24.1501 23.1847 24.0009 23.0006 24.0009C22.8165 24.0009 22.6673 24.1501 22.6673 24.3342C22.6673 25.0706 23.2643 25.6676 24.0007 25.6676V26.001C24.0007 26.1851 24.1499 26.3343 24.334 26.3343C24.5181 26.3343 24.6674 26.1851 24.6674 26.001V25.6676C25.4038 25.6676 26.0008 25.0706 26.0008 24.3342C26.0008 23.5978 25.4038 23.0008 24.6674 23.0008V21.6674C25.0356 21.6674 25.3341 21.9659 25.3341 22.3341C25.3341 22.5182 25.4833 22.6674 25.6674 22.6674C25.8515 22.6674 26.0008 22.5182 26.0008 22.3341C26.0008 21.5977 25.4038 21.0007 24.6674 21.0007V20.6673C24.6674 20.4832 24.5181 20.334 24.334 20.334C24.1499 20.334 24.0007 20.4832 24.0007 20.6673V21.0007C23.2643 21.0007 22.6673 21.5977 22.6673 22.3341C22.6673 23.0705 23.2643 23.6675 24.0007 23.6675V25.0009C23.6325 25.0009 23.334 24.7024 23.334 24.3342ZM23.334 22.3341C23.334 21.9659 23.6325 21.6674 24.0007 21.6674V23.0008C23.6325 23.0008 23.334 22.7023 23.334 22.3341ZM24.6674 23.6675C25.0356 23.6675 25.3341 23.966 25.3341 24.3342C25.3341 24.7024 25.0356 25.0009 24.6674 25.0009V23.6675Z" fill="white"/>
<path d="M23.334 24.3342C23.334 24.1501 23.1847 24.0009 23.0006 24.0009C22.8165 24.0009 22.6673 24.1501 22.6673 24.3342C22.6673 25.0706 23.2643 25.6676 24.0007 25.6676V26.001C24.0007 26.1851 24.1499 26.3343 24.334 26.3343C24.5181 26.3343 24.6674 26.1851 24.6674 26.001V25.6676C25.4038 25.6676 26.0008 25.0706 26.0008 24.3342C26.0008 23.5978 25.4038 23.0008 24.6674 23.0008V21.6674C25.0356 21.6674 25.3341 21.9659 25.3341 22.3341C25.3341 22.5182 25.4833 22.6674 25.6674 22.6674C25.8515 22.6674 26.0008 22.5182 26.0008 22.3341C26.0008 21.5977 25.4038 21.0007 24.6674 21.0007V20.6673C24.6674 20.4832 24.5181 20.334 24.334 20.334C24.1499 20.334 24.0007 20.4832 24.0007 20.6673V21.0007C23.2643 21.0007 22.6673 21.5977 22.6673 22.3341C22.6673 23.0705 23.2643 23.6675 24.0007 23.6675V25.0009C23.6325 25.0009 23.334 24.7024 23.334 24.3342ZM23.334 22.3341C23.334 21.9659 23.6325 21.6674 24.0007 21.6674V23.0008C23.6325 23.0008 23.334 22.7023 23.334 22.3341ZM24.6674 23.6675C25.0356 23.6675 25.3341 23.966 25.3341 24.3342C25.3341 24.7024 25.0356 25.0009 24.6674 25.0009V23.6675Z" stroke="white"/>
<path d="M31.7224 24.2579C30.9011 20.7673 29.0749 18.7449 27.7562 17.6885C29.41 17.8132 29.9423 18.5012 29.958 18.5219C30.0624 18.671 30.2672 18.7087 30.4179 18.6067C30.5686 18.5046 30.6096 18.3006 30.51 18.1482C30.486 18.1122 30.023 17.4508 28.6766 17.1481C29.0209 16.8651 29.2245 16.446 29.2343 16.0004C29.1897 15.2617 28.6755 14.6353 27.9596 14.4477C27.9889 14.2069 28.0038 13.9645 28.0042 13.722C28.0039 13.4985 27.8916 13.29 27.7051 13.1668C27.5187 13.0436 27.2829 13.022 27.0772 13.1093C26.9089 13.1855 26.7526 13.2857 26.6131 13.4069C26.4496 13.5751 26.2243 13.669 25.9898 13.667C25.7556 13.6686 25.5308 13.5747 25.3674 13.4069C24.7799 12.8644 23.8741 12.8644 23.2866 13.4069C23.123 13.5754 22.8974 13.6694 22.6626 13.667C22.4284 13.6689 22.2037 13.5749 22.0406 13.4069C21.9015 13.286 21.7457 13.1858 21.5779 13.1096C21.3723 13.0229 21.1369 13.0448 20.9509 13.168C20.7648 13.2911 20.6527 13.4992 20.6521 13.7223C20.6521 14.5517 20.8162 16.0311 21.8545 17.0245C21.3088 17.3563 20.7992 17.7441 20.3338 18.1815V15.6671C20.3338 14.907 19.2587 14.3337 17.8337 14.3337C16.4086 14.3337 15.3335 14.907 15.3335 15.6671V19.0256C14.1645 19.1423 13.3334 19.6673 13.3334 20.334V28.8128C12.528 29.0291 12 29.4678 12 30.0012V31.668C12 32.428 13.0751 33.0014 14.5001 33.0014C15.7745 33.0014 16.7669 32.5423 16.9626 31.9013C17.538 32.206 18.1829 32.3553 18.8337 32.3347C20.2588 32.3347 21.3339 31.7613 21.3339 31.0013V26.6677C21.3339 25.9076 20.2588 25.3343 18.8337 25.3343C18.6667 25.3342 18.4998 25.3425 18.3337 25.3593V20.334C18.3337 19.6039 17.3413 19.0479 16.0002 19.0049V16.5901C16.5673 16.8784 17.1978 17.0195 17.8337 17.0005C18.4695 17.0195 19.1 16.8784 19.6671 16.5901V18.8636C19.4474 19.1093 19.2267 19.3769 19.0091 19.6736C18.9094 19.8221 18.9446 20.0227 19.0888 20.1284C19.233 20.234 19.4349 20.2071 19.5464 20.0673C19.7605 19.7775 19.99 19.4993 20.2338 19.2339C20.2365 19.2309 20.2388 19.2279 20.2415 19.2253C20.8778 18.5181 21.6251 17.9192 22.4539 17.4522C22.6173 17.531 22.7902 17.5885 22.9683 17.6232L22.1089 18.4252C21.9743 18.551 21.9672 18.762 22.0929 18.8966C22.2186 19.0312 22.4297 19.0383 22.5643 18.9126L23.8977 17.6688H24.004V18.6689C24.004 18.853 24.1532 19.0022 24.3374 19.0022C24.5215 19.0022 24.6707 18.853 24.6707 18.6689V17.6672H24.777L26.1105 18.9109C26.1975 18.9923 26.3214 19.021 26.4353 18.9862C26.5493 18.9515 26.6361 18.8586 26.663 18.7426C26.6899 18.6265 26.6529 18.5049 26.5658 18.4236L25.7008 17.6182C25.8778 17.5831 26.0495 17.5254 26.2118 17.4465C27.0928 17.9232 29.989 19.8066 31.0737 24.4106C31.5454 26.4147 31.3754 27.9477 30.5687 28.9661C29.5366 30.2679 27.7459 30.3345 27.3975 30.3345H22.6673C22.4832 30.3345 22.3339 30.4838 22.3339 30.6679C22.3339 30.852 22.4832 31.0013 22.6673 31.0013H27.3975C27.9642 31.0013 29.8993 30.8842 31.0911 29.3802C32.0304 28.1938 32.2431 26.4703 31.7224 24.2579V24.2579ZM14.5001 29.3345C15.6025 29.3345 16.3336 29.7345 16.3336 30.0012C16.3336 30.2679 15.6025 30.6679 14.5001 30.6679C13.3977 30.6679 12.6667 30.2679 12.6667 30.0012C12.6667 29.7345 13.3977 29.3345 14.5001 29.3345ZM14.5001 32.3347C13.3977 32.3347 12.6667 31.9346 12.6667 31.668V30.9242C13.2338 31.2125 13.8643 31.3536 14.5001 31.3346C15.136 31.3536 15.7665 31.2125 16.3336 30.9242V31.668C16.3336 31.9346 15.6025 32.3347 14.5001 32.3347ZM18.8337 31.668C17.7313 31.668 17.0003 31.2679 17.0003 31.0013V27.5907C17.5674 27.879 18.1978 28.0201 18.8337 28.0011C19.4696 28.0201 20.1 27.879 20.6671 27.5907V31.0013C20.6671 31.2679 19.9361 31.668 18.8337 31.668ZM20.6671 26.6677C20.6671 26.9344 19.9361 27.3344 18.8337 27.3344C17.7313 27.3344 17.0003 26.9344 17.0003 26.6677C17.0003 26.401 17.7313 26.001 18.8337 26.001C19.9361 26.001 20.6671 26.401 20.6671 26.6677ZM16.3336 26.6677V29.0781C15.7665 28.7899 15.136 28.6488 14.5001 28.6678C14.3331 28.6677 14.1663 28.676 14.0001 28.6928V21.257C14.5672 21.5453 15.1977 21.6864 15.8335 21.6674C16.4694 21.6864 17.0999 21.5453 17.667 21.257V25.4793C16.8616 25.6956 16.3336 26.1343 16.3336 26.6677ZM17.667 20.334C17.667 20.6007 16.9359 21.0007 15.8335 21.0007C14.7312 21.0007 14.0001 20.6007 14.0001 20.334C14.0001 20.0673 14.7312 19.6673 15.8335 19.6673C16.9359 19.6673 17.667 20.0673 17.667 20.334ZM17.8337 16.3338C16.7313 16.3338 16.0002 15.9337 16.0002 15.6671C16.0002 15.4004 16.7313 15.0004 17.8337 15.0004C18.9361 15.0004 19.6671 15.4004 19.6671 15.6671C19.6671 15.9337 18.9361 16.3338 17.8337 16.3338ZM28.5676 16.0004C28.5676 16.5468 27.9759 16.9951 27.2342 17.0005C27.1101 16.9997 26.9865 16.9855 26.8655 16.9581C27.3493 16.442 27.6856 15.8053 27.8392 15.1147C28.2405 15.2329 28.5291 15.5839 28.5676 16.0004ZM21.6232 13.927C21.9047 14.1908 22.2768 14.3363 22.6626 14.3337C23.0486 14.3366 23.421 14.1909 23.7027 13.927C23.8674 13.7606 24.0919 13.667 24.326 13.667C24.5602 13.667 24.7846 13.7606 24.9494 13.927C25.2311 14.1911 25.6036 14.3368 25.9898 14.3337C26.3759 14.3366 26.7484 14.191 27.0302 13.927C27.1226 13.8453 27.2253 13.7763 27.3359 13.7216C27.3359 14.3407 27.2208 15.8711 26.1468 16.7101C25.9052 16.8916 25.6122 16.9918 25.3101 16.9965C25.5987 16.5008 25.8271 15.9725 25.9904 15.4227C26.0224 15.3079 25.9906 15.1848 25.9071 15.0997C25.8237 15.0147 25.7012 14.9806 25.5858 15.0104C25.4704 15.0402 25.3797 15.1292 25.3477 15.244C25.1631 15.8707 24.8793 16.4637 24.507 17.0005H24.1643C23.7928 16.4632 23.5089 15.8703 23.3233 15.244C23.2739 15.0667 23.09 14.9629 22.9126 15.0124C22.7352 15.0618 22.6315 15.2457 22.6809 15.423C22.8445 15.9733 23.0731 16.5021 23.362 16.9981C23.0538 16.9966 22.7543 16.8957 22.5079 16.7105C21.4339 15.8717 21.3189 14.3413 21.3189 13.7243C21.4293 13.7772 21.5318 13.8454 21.6232 13.927V13.927Z" fill="white"/>
<path d="M30.046 28.552C30.4411 28.0087 30.6552 27.3549 30.658 26.6832C30.6623 26.5949 30.6313 26.5085 30.5718 26.443C30.5124 26.3776 30.4293 26.3384 30.341 26.3342C30.1579 26.3277 30.0031 26.4684 29.992 26.6512C29.9945 27.1836 29.8305 27.7034 29.523 28.138C28.8726 28.9593 27.6385 29.001 27.3975 29.001C27.2134 29.001 27.0641 29.1503 27.0641 29.3344C27.0641 29.5185 27.2134 29.6677 27.3975 29.6677C27.6922 29.6677 29.2046 29.614 30.046 28.552Z" fill="white"/>
<path d="M30.046 28.552C30.4411 28.0087 30.6552 27.3549 30.658 26.6832C30.6623 26.5949 30.6313 26.5085 30.5718 26.443C30.5124 26.3776 30.4293 26.3384 30.341 26.3342C30.1579 26.3277 30.0031 26.4684 29.992 26.6512C29.9945 27.1836 29.8305 27.7034 29.523 28.138C28.8726 28.9593 27.6385 29.001 27.3975 29.001C27.2134 29.001 27.0641 29.1503 27.0641 29.3344C27.0641 29.5185 27.2134 29.6677 27.3975 29.6677C27.6922 29.6677 29.2046 29.614 30.046 28.552Z" stroke="white"/>
<defs>
<linearGradient id="paint0_linear_3933_77717" x1="0" y1="22.5" x2="38.1036" y2="22.5" gradientUnits="userSpaceOnUse">
<stop stop-color="#43D9BB"/>
<stop offset="1" stop-color="#0299ED"/>
</linearGradient>
</defs>
</svg>
