<svg width="360" height="403" viewBox="0 0 360 403" fill="none" xmlns="http://www.w3.org/2000/svg">
<path d="M360 218.428L13.7163 203.635V14.879L360 0V218.428Z" fill="#263238"/>
<path d="M351.522 208.133L20.1178 195.244V23.1836L351.522 10.2942V208.133Z" stroke="url(#paint0_linear_3385_66349)" stroke-miterlimit="10"/>
<path d="M127.731 42.734L36.0349 45.3292C33.8722 45.4157 32.1421 43.4261 32.1421 41.0039C32.1421 38.5817 33.8722 36.5056 36.0349 36.4191L127.731 33.3914C130.067 33.3049 131.97 35.2945 131.97 37.8897C132.057 40.4849 130.067 42.6475 127.731 42.734Z" fill="#808080"/>
<path d="M72.6269 39.7929C72.6269 37.2842 70.8103 35.3811 68.5612 35.3811L36.0349 36.5057C33.8722 36.5922 32.1421 38.5818 32.1421 41.0905C32.1421 43.5127 33.8722 45.5023 36.0349 45.4158L68.5612 44.4642C70.8103 44.3777 72.6269 42.3016 72.6269 39.7929Z" fill="url(#paint1_linear_3385_66349)"/>
<path d="M127.731 60.7272L36.0349 62.6303C33.8722 62.7168 32.1421 60.7272 32.1421 58.305C32.1421 55.8828 33.8722 53.8067 36.0349 53.8067L127.731 51.5575C130.067 51.471 131.97 53.5472 131.97 56.0559C132.057 58.5645 130.067 60.7272 127.731 60.7272Z" fill="#808080"/>
<path d="M95.6376 56.8344C95.6376 54.3258 93.8209 52.3361 91.4853 52.4226L36.1214 53.8067C33.9588 53.8932 32.2286 55.8829 32.2286 58.305C32.2286 60.7272 33.9588 62.7169 36.1214 62.6303L91.4853 61.5058C93.7344 61.5058 95.6376 59.3431 95.6376 56.8344Z" fill="url(#paint2_linear_3385_66349)"/>
<path d="M127.731 78.8072L36.0349 80.0183C33.8722 80.0183 32.1421 78.1151 32.1421 75.6064C32.1421 73.1843 33.8722 71.1081 36.0349 71.1081L127.731 69.551C130.067 69.551 131.97 71.5407 131.97 74.1358C132.057 76.6445 130.067 78.8072 127.731 78.8072Z" fill="#808080"/>
<path d="M111.728 74.3952C111.728 71.8865 109.825 69.8104 107.489 69.8969L36.0349 71.108C33.8722 71.108 32.1421 73.1841 32.1421 75.6063C32.1421 78.0285 33.8722 80.0181 36.0349 80.0181L107.575 79.0665C109.911 79.0665 111.728 76.9904 111.728 74.3952Z" fill="url(#paint3_linear_3385_66349)"/>
<path d="M127.731 96.8868L36.0349 97.4058C33.8722 97.4058 32.1421 95.4162 32.1421 92.994C32.1421 90.5718 33.8722 88.5822 36.0349 88.4957L127.731 87.6306C130.067 87.6306 131.97 89.6203 131.97 92.2154C132.057 94.7241 130.067 96.8003 127.731 96.8868Z" fill="url(#paint4_linear_3385_66349)"/>
<path d="M150.742 42.042L138.199 42.3881C135.776 42.4746 133.873 40.3984 133.873 37.8897C133.873 35.2946 135.776 33.2184 138.199 33.1319L150.742 32.6994C153.164 32.6129 155.067 34.689 155.067 37.1977C155.154 39.7929 153.164 41.9555 150.742 42.042Z" fill="url(#paint5_linear_3385_66349)"/>
<path d="M150.742 60.2948L138.199 60.5543C135.776 60.6408 133.873 58.5647 133.873 55.9695C133.873 53.3743 135.776 51.2982 138.199 51.2117L150.742 50.8656C153.164 50.7791 155.067 52.8553 155.067 55.4505C155.154 58.0456 153.164 60.2083 150.742 60.2948Z" fill="url(#paint6_linear_3385_66349)"/>
<path d="M150.742 78.461L138.199 78.634C135.776 78.634 133.873 76.6444 133.873 74.0492C133.873 71.454 135.776 69.3778 138.199 69.3778L150.742 69.2048C153.164 69.2048 155.067 71.1945 155.067 73.7896C155.154 76.3848 153.164 78.461 150.742 78.461Z" fill="url(#paint7_linear_3385_66349)"/>
<path d="M150.742 96.7139L138.199 96.8004C135.776 96.8004 133.873 94.7243 133.873 92.2156C133.873 89.6204 135.776 87.5443 138.199 87.5443L150.742 87.4578C153.164 87.4578 155.067 89.5339 155.067 92.1291C155.154 94.6378 153.164 96.7139 150.742 96.7139Z" fill="url(#paint8_linear_3385_66349)"/>
<path d="M36.7269 31.8342L51.5195 31.3152" stroke="white" stroke-miterlimit="10"/>
<path d="M36.7269 50.0004L51.5195 49.5679" stroke="white" stroke-miterlimit="10"/>
<path d="M36.7269 67.2153L51.5195 66.9558" stroke="white" stroke-miterlimit="10"/>
<path d="M36.7269 85.4679L51.5195 85.2949" stroke="white" stroke-miterlimit="10"/>
<path d="M309.74 32.2669L322.11 31.9209" stroke="white" stroke-miterlimit="10"/>
<path d="M302.56 42.9936L322.11 42.4746" stroke="white" stroke-miterlimit="10"/>
<path d="M309.74 53.2014L322.11 52.9419" stroke="white" stroke-miterlimit="10"/>
<path d="M314.844 63.5821L322.11 63.4956" stroke="white" stroke-miterlimit="10"/>
<path d="M309.74 74.1359L322.11 73.9629" stroke="white" stroke-miterlimit="10"/>
<path d="M306.453 84.6896L322.11 84.5166" stroke="white" stroke-miterlimit="10"/>
<path d="M309.74 95.0701L322.11 94.9836" stroke="white" stroke-miterlimit="10"/>
<path d="M303.771 105.538H322.11" stroke="white" stroke-miterlimit="10"/>
<path d="M309.74 116.005L322.11 116.091" stroke="white" stroke-miterlimit="10"/>
<path d="M325.398 31.8341C326.609 31.8341 327.906 31.7476 329.117 31.7476" stroke="white" stroke-miterlimit="10"/>
<path d="M325.398 42.3878C326.609 42.3878 327.906 42.3013 329.117 42.3013" stroke="white" stroke-miterlimit="10"/>
<path d="M325.398 52.8551C326.609 52.8551 327.906 52.7686 329.117 52.7686" stroke="white" stroke-miterlimit="10"/>
<path d="M325.484 63.4088C326.695 63.4088 327.906 63.3223 329.117 63.3223" stroke="white" stroke-miterlimit="10"/>
<path d="M325.398 73.9625C326.609 73.9625 327.906 73.9625 329.117 73.876" stroke="white" stroke-miterlimit="10"/>
<path d="M325.484 84.4297C326.695 84.4297 327.906 84.4297 329.117 84.4297" stroke="white" stroke-miterlimit="10"/>
<path d="M325.398 94.9836C326.609 94.9836 327.906 94.9836 329.117 94.9836" stroke="white" stroke-miterlimit="10"/>
<path d="M325.398 105.537C326.695 105.537 327.906 105.537 329.204 105.537" stroke="white" stroke-miterlimit="10"/>
<path d="M325.398 116.091C326.609 116.091 327.906 116.091 329.117 116.091" stroke="white" stroke-miterlimit="10"/>
<path d="M332.837 31.5746C335 31.4881 337.076 31.4016 339.239 31.4016" stroke="white" stroke-miterlimit="10"/>
<path d="M332.837 42.1283C335 42.0418 337.076 42.0418 339.239 41.9553" stroke="white" stroke-miterlimit="10"/>
<path d="M332.837 52.682C335 52.5955 337.076 52.5955 339.239 52.509" stroke="white" stroke-miterlimit="10"/>
<path d="M333.01 63.2359C335.086 63.2359 337.162 63.1494 339.239 63.1494" stroke="white" stroke-miterlimit="10"/>
<path d="M332.837 73.8763C335 73.8763 337.076 73.7898 339.239 73.7898" stroke="white" stroke-miterlimit="10"/>
<path d="M332.924 84.4298C335 84.4298 337.076 84.4298 339.239 84.3433" stroke="white" stroke-miterlimit="10"/>
<path d="M332.837 94.9836C335 94.9836 337.076 94.9836 339.239 94.9836" stroke="white" stroke-miterlimit="10"/>
<path d="M332.751 105.537C334.913 105.537 337.076 105.537 339.239 105.537" stroke="white" stroke-miterlimit="10"/>
<path d="M332.837 116.091C335 116.091 337.076 116.091 339.239 116.091" stroke="white" stroke-miterlimit="10"/>
<path d="M168.043 107.614L293.823 107.527" stroke="#999999" stroke-miterlimit="10"/>
<path d="M168.043 99.655L293.823 99.136" stroke="#999999" stroke-miterlimit="10"/>
<path d="M168.043 91.61L293.823 90.6584" stroke="#999999" stroke-miterlimit="10"/>
<path d="M294.255 124.136V86.0735C294.255 86.0735 291.314 82.3538 279.117 83.0458C267.092 83.7378 264.151 94.3781 251.435 100.607C238.805 106.748 232.836 96.8003 222.369 96.8868C212.075 96.9733 206.971 108.392 199.445 112.804C192.005 117.129 185.431 112.285 176.607 113.323C167.784 114.361 165.88 122.406 165.88 122.406L165.794 123.444L294.255 124.136Z" fill="url(#paint9_linear_3385_66349)"/>
<path d="M294.255 124.136V103.202C290.103 102.942 281.452 103.634 272.283 111.333C263.2 118.946 246.764 114.967 241.919 113.15C234.307 110.382 225.483 110.209 216.746 115.745C208.095 121.281 200.915 120.762 192.87 120.676C187.161 120.676 180.5 122.406 177.213 123.358L294.255 124.136Z" fill="#808080"/>
<path d="M198.061 183.479L175.656 182.787C173.579 182.701 171.849 180.884 171.849 178.635C171.849 176.386 173.579 174.656 175.656 174.742L198.061 175.348C200.223 175.434 201.953 177.251 201.953 179.5C201.953 181.749 200.223 183.566 198.061 183.479Z" fill="#808080"/>
<path d="M243.303 184.863L220.033 184.171C217.871 184.085 216.14 182.182 216.14 179.932C216.14 177.683 217.871 175.867 220.033 175.953L243.303 176.559C245.552 176.645 247.283 178.548 247.283 180.798C247.283 183.133 245.466 184.95 243.303 184.863Z" fill="#808080"/>
<path d="M289.152 186.334L265.016 185.555C262.767 185.469 260.951 183.566 260.951 181.23C260.951 178.894 262.767 177.078 265.016 177.164L289.152 177.856C291.487 177.943 293.304 179.846 293.304 182.182C293.39 184.517 291.487 186.42 289.152 186.334Z" fill="#808080"/>
<path d="M31.9691 161.766L156.019 164.708" stroke="#999999" stroke-miterlimit="10"/>
<path d="M31.9691 155.192L156.019 157.701" stroke="#999999" stroke-miterlimit="10"/>
<path d="M31.9691 148.618L156.019 150.78" stroke="#999999" stroke-miterlimit="10"/>
<path d="M31.9691 142.043L156.019 143.86" stroke="#999999" stroke-miterlimit="10"/>
<path d="M31.9691 135.382L156.019 136.853" stroke="#999999" stroke-miterlimit="10"/>
<path d="M31.9691 128.808L156.019 129.932" stroke="#999999" stroke-miterlimit="10"/>
<path d="M31.9691 122.233L156.019 123.012" stroke="#999999" stroke-miterlimit="10"/>
<path d="M31.9691 115.659L156.019 116.005" stroke="#999999" stroke-miterlimit="10"/>
<path d="M46.9347 169.206L34.9968 168.946V142.822L46.9347 142.995V169.206Z" fill="#808080"/>
<path d="M63.8033 169.725L51.6925 169.379V135.728L63.8033 135.815V169.725Z" fill="url(#paint10_linear_3385_66349)"/>
<path d="M80.9315 170.158L68.6477 169.812V130.105L80.9315 130.192V170.158Z" fill="#808080"/>
<path d="M98.3192 170.59L85.8624 170.244V113.669H98.3192V170.59Z" fill="url(#paint11_linear_3385_66349)"/>
<path d="M115.966 171.109L103.337 170.763V130.451L115.966 130.538V171.109Z" fill="#808080"/>
<path d="M133.873 171.542L120.984 171.196V143.254L133.873 143.427V171.542Z" fill="url(#paint12_linear_3385_66349)"/>
<path d="M152.039 172.061L139.064 171.715V154.586L152.039 154.846V172.061Z" fill="#808080"/>
<path d="M35.6024 175.521L45.291 175.78" stroke="white" stroke-miterlimit="10" stroke-linecap="round" stroke-linejoin="round"/>
<path d="M52.3845 176.04L62.2462 176.3" stroke="white" stroke-miterlimit="10" stroke-linecap="round" stroke-linejoin="round"/>
<path d="M69.4262 176.559L79.4609 176.818" stroke="white" stroke-miterlimit="10" stroke-linecap="round" stroke-linejoin="round"/>
<path d="M86.7274 176.991L96.9351 177.337" stroke="white" stroke-miterlimit="10" stroke-linecap="round" stroke-linejoin="round"/>
<path d="M104.375 177.597L114.669 177.856" stroke="white" stroke-miterlimit="10" stroke-linecap="round" stroke-linejoin="round"/>
<path d="M122.195 178.116L132.662 178.375" stroke="white" stroke-miterlimit="10" stroke-linecap="round" stroke-linejoin="round"/>
<path d="M140.361 178.635L151.001 178.981" stroke="white" stroke-miterlimit="10" stroke-linecap="round" stroke-linejoin="round"/>
<path d="M304.117 133.998V127.769L320.986 127.942V134.171L304.117 133.998Z" fill="url(#paint13_linear_3385_66349)"/>
<path d="M304.117 142.648V136.42L325.744 136.679V142.994L304.117 142.648Z" fill="#808080"/>
<path d="M304.117 151.386V145.157L329.463 145.503V151.818L304.117 151.386Z" fill="url(#paint14_linear_3385_66349)"/>
<path d="M304.117 160.036V153.808L340.19 154.5V160.815L304.117 160.036Z" fill="#808080"/>
<path d="M304.117 168.773V162.545L329.463 163.064V169.379L304.117 168.773Z" fill="url(#paint15_linear_3385_66349)"/>
<path d="M304.117 177.424V171.195L321.505 171.628V177.856L304.117 177.424Z" fill="#808080"/>
<path d="M304.117 186.075V179.933L314.671 180.192V186.421L304.117 186.075Z" fill="url(#paint16_linear_3385_66349)"/>
<path d="M204.549 149.656C204.549 160.209 196.417 168.514 186.469 168.341C176.607 168.081 168.649 159.431 168.649 149.05C168.649 138.669 176.607 130.278 186.469 130.365C196.417 130.451 204.549 139.102 204.549 149.656Z" fill="#808080"/>
<path d="M187.247 130.451C186.988 130.451 186.642 130.365 186.382 130.365C176.521 130.278 168.562 138.669 168.562 149.05C168.562 159.431 176.521 168.081 186.382 168.341C186.642 168.341 186.988 168.341 187.247 168.341V130.451Z" fill="url(#paint17_linear_3385_66349)"/>
<path d="M198.926 149.569C198.926 156.835 193.303 162.631 186.469 162.458C179.635 162.285 174.099 156.316 174.099 149.136C174.099 141.956 179.635 136.16 186.469 136.247C193.303 136.333 198.926 142.302 198.926 149.569Z" fill="#263238"/>
<path d="M249.272 150.434C249.272 161.161 240.795 169.725 230.5 169.465C220.206 169.206 211.988 160.382 211.988 149.828C211.988 139.275 220.206 130.711 230.5 130.797C240.795 130.884 249.272 139.621 249.272 150.434Z" fill="url(#paint18_linear_3385_66349)"/>
<path d="M243.39 150.261C243.39 157.7 237.594 163.496 230.414 163.41C223.32 163.237 217.611 157.181 217.611 149.828C217.611 142.475 223.32 136.593 230.414 136.679C237.594 136.852 243.39 142.908 243.39 150.261Z" fill="#263238"/>
<path d="M295.726 151.213C295.726 162.199 286.989 170.849 276.176 170.59C265.535 170.33 256.971 161.334 256.971 150.607C256.971 139.88 265.535 131.143 276.176 131.23C286.902 131.316 295.726 140.226 295.726 151.213Z" fill="#808080"/>
<path d="M277.127 131.229C276.781 131.229 276.522 131.143 276.176 131.143C265.535 131.056 256.971 139.707 256.971 150.52C256.971 161.334 265.535 170.244 276.176 170.503C276.522 170.503 276.781 170.503 277.127 170.503V131.229Z" fill="url(#paint19_linear_3385_66349)"/>
<path d="M289.584 151.039C289.584 158.565 283.529 164.534 276.176 164.361C268.823 164.188 262.854 158.046 262.854 150.52C262.854 143.081 268.823 137.112 276.176 137.198C283.615 137.371 289.584 143.513 289.584 151.039Z" fill="#263238"/>
<path d="M182.576 150.261L190.794 150.347" stroke="white" stroke-miterlimit="10"/>
<path d="M226.608 150.953L235.172 151.126" stroke="white" stroke-miterlimit="10"/>
<path d="M271.591 151.731L280.414 151.904" stroke="white" stroke-miterlimit="10"/>
<path d="M227.04 49.4815L227.127 48.876L226.867 49.049L227.04 49.4815Z" fill="#808080"/>
<path d="M201.521 59.1703L201.953 59.2568L202.992 58.9108L201.521 58.4783L201.694 58.9973L201.088 59.0838L201.521 59.1703Z" fill="#808080"/>
<path d="M212.94 67.2153L210.691 66.3502L210.258 66.6098L210.345 66.2637L209.652 65.7447L208.874 66.0907L209.133 65.6582L208.528 65.4852L208.355 65.7447L208.701 65.0526L208.268 64.0146L207.749 63.582L206.538 63.409L205.673 62.544H205.241L205.327 62.2845L204.895 62.1114V61.9384L204.635 61.8519L204.03 62.1114L203.078 61.8519L202.559 61.4194L202.472 61.6789L202.04 61.9384L202.126 62.4575L201.78 62.371L201.953 61.9384V61.6789L202.04 61.5924L202.126 61.3329L201.261 61.8519H201.088L200.396 62.89H200.31L200.137 62.6305L199.704 62.371L199.272 62.544H198.753L198.234 61.8519L198.407 60.3813L198.061 60.1218L196.85 60.2083L196.763 60.1218L196.936 59.3433L197.023 59.2567L197.369 58.1322H196.59L195.898 59.1702L194.946 59.3433L194.6 59.1702L194.081 58.3917V56.5751L193.995 56.4886L194.081 56.5751L193.995 56.1425L194.081 55.7965L195.119 55.018L196.158 55.2775L196.331 55.191L196.59 55.364L196.504 55.018L197.023 54.7584L197.109 54.8449L197.542 54.7584L197.801 55.018H197.974L198.234 54.9314L199.012 56.7481H199.272L199.445 56.3155L199.012 54.5854L200.396 53.0283V52.7688L200.483 52.6823H200.656L200.742 52.5093L200.569 52.1632V51.9902L200.396 51.7307L200.483 51.6442L200.569 51.2117H200.656L200.742 51.9902L200.915 51.9037L201.002 51.2982H201.175L201.348 50.8657L201.953 50.6061H201.521L202.04 50.4331L202.213 50.2601H202.472L202.386 50.0006L202.645 49.3951L203.078 49.049H203.424L204.289 48.357V48.53L204.549 48.6165L203.943 48.9625V49.3086L204.376 49.222L204.635 48.9625L205.327 48.703L205.414 48.53L205.846 48.357L205.76 48.184V47.9245L205.241 48.4435L204.722 48.357L204.376 48.0975V47.7514L204.203 47.6649V47.4919L204.462 47.0594L203.165 47.3189L202.472 48.011L203.251 46.9729L203.597 46.8864L203.857 46.5404L205.76 46.3673L207.144 45.5023V45.3293L207.057 45.2428L207.23 45.0698L207.057 44.8102L206.711 44.8967V44.6372L205.933 44.8967L205.846 44.7237L206.625 44.3777L205.154 43.4261V43.3396L205.414 43.1666L204.462 41.4365L204.203 41.7825L204.116 42.2151L204.03 42.3881H203.857L203.511 42.5611L202.992 42.1286L202.819 41.523L202.905 41.2635L202.213 41.004L201.607 40.3984L201.261 40.4849L200.31 40.3984L200.223 40.658L200.396 40.9175L200.223 41.2635L200.396 41.7825L200.05 42.5611L200.483 42.9936L200.569 43.7722L200.137 44.2912L199.704 44.4642L199.964 45.5888L199.877 45.8483L199.964 46.0213H199.791L199.618 46.2808L199.358 46.1943L198.839 45.4158V44.6372L198.666 44.4642L196.158 43.5126L195.725 43.6857V43.5126L195.379 42.8206L195.033 42.7341L195.206 41.523L196.244 40.3984L195.292 39.9659L196.331 40.1389L196.417 39.7929L196.85 39.8794L197.282 39.3604L196.504 39.0143V38.8413L197.109 39.1873L197.542 38.7548L197.369 38.5818L197.628 38.4953L197.801 38.6683L198.147 38.5818L197.974 38.3223L198.061 38.2358L198.234 38.4088H198.493L198.926 38.0628L198.666 37.4572V37.2842L198.926 37.1112L198.753 36.7652L197.715 36.4192V36.7652L197.801 36.9382L197.715 37.1112L197.542 37.2842L197.369 37.6302L197.196 37.4572V37.7167L197.282 37.8898L197.109 38.0628L196.763 37.5437L196.85 37.3707V37.1112L196.677 36.8517L196.417 36.7652L196.158 37.2842L196.071 36.8517L196.158 36.5922L195.898 36.5057L195.639 36.5922V36.3326L195.812 36.2461L195.379 35.8136V35.4676L195.033 35.2081L194.946 35.0351L195.206 34.862L195.292 34.516H195.725L196.158 33.824L195.379 33.5645L194.773 33.7375L194.86 33.9105H194.687L194.86 35.1216L194.687 35.2946L194.773 35.4676H194.514V36.4192L195.119 36.6787L195.033 37.1112L195.206 37.0247L195.379 37.1977L194.86 37.5437V37.8898L194.687 38.0628L194.514 37.8032V37.5437L194.168 37.4572L194.427 37.3707L194.6 37.1977H194.946L194.773 36.9382H194.514L194.773 36.8517L194.254 36.6787L193.562 37.0247L194.081 37.3707L193.822 37.5437V37.8032L192.178 37.7167L191.919 37.5437L191.746 37.2842H191.227L190.794 37.5437L190.967 37.7167L191.659 37.4572L191.14 37.8032V38.5818L190.967 38.4953V38.2358L188.891 38.0628L189.237 37.8032L189.151 37.5437L187.161 37.0247L186.123 37.1977V36.9382L186.036 36.6787L185.604 37.1977L185.171 36.5057L184.998 36.5922L184.652 37.0247L183.441 37.6302L183.528 37.4572L184.566 36.7652H184.306L183.268 37.2842L183.009 37.1977L182.576 37.5437L182.663 37.7167L177.559 36.7652L177.472 36.5922H176.953L176.78 36.4192L176.434 36.5057L176.521 36.3326L176.261 36.2461L175.223 36.6787L175.31 36.8517L174.618 36.9382L174.272 37.2842L174.185 37.6302L173.406 37.8032L173.32 38.0628L174.099 38.8413H174.618L174.704 39.1008L175.05 39.1873L174.099 39.3604V39.1008H173.752L173.579 39.2739H173.32L172.887 39.5334L173.32 39.7064L173.233 39.8794L173.493 40.1389H174.358L174.877 39.8794L174.791 40.1389V40.5714H174.445L174.272 40.831L173.926 40.7445L173.839 41.0905L173.579 41.35L173.406 41.696L173.666 41.869V42.2151L174.012 42.6476L174.358 42.5611L174.531 42.3881L174.618 43.0801H175.569L175.656 42.9071H176.002L175.915 43.5992L175.05 44.4642L174.618 44.5507L174.358 44.8967L177.213 42.8206L176.953 42.6476L177.991 41.523L178.164 41.6095V41.7825L177.818 41.869L177.732 42.2151V42.4746V42.5611L177.818 42.6476L178.424 42.2151H178.856V42.042L178.683 41.869L178.77 41.696L179.375 41.7825L179.202 41.869V41.9555L179.635 41.869L179.721 41.9555L180.673 42.042L180.932 42.2151L181.279 42.042L181.192 42.3016L182.057 42.9071L182.23 42.7341L182.49 42.9071V42.6476H182.576V43.0801L182.317 42.9936L182.144 43.0801L182.663 43.8587V43.2531V43.5126L182.836 43.4261V43.0801L183.009 43.3396L182.922 43.5992L182.749 43.6857V44.0317L182.836 43.9452L183.009 43.8587L183.268 44.1182L183.182 43.9452V43.7722L183.441 44.1182L183.268 44.2912L183.009 44.1182L183.095 44.7237L183.182 44.6372L183.355 44.7237L183.441 44.5507L183.614 44.6372L183.787 44.5507V44.8102H183.874L183.96 44.9833L183.874 45.1563L183.96 45.4158H184.22L184.306 45.5888L184.652 45.8483L184.739 46.3673L185.517 46.7134L185.604 46.8864L186.036 46.9729L186.296 47.3189L186.382 47.6649L186.296 48.011L186.123 47.4919V47.3189L185.258 46.5404L184.566 46.3673L185.517 47.2324L185.95 48.2705V51.5577L186.988 53.2013L187.593 53.4608L188.891 55.7965H188.632L189.324 56.3155L189.41 56.7481L190.102 57.5266L190.275 57.4401L190.189 57.1806L189.929 57.0941L189.064 55.4505V55.2775L188.805 55.191L188.545 54.4124H188.632L189.064 54.5854L189.151 55.4505L191.4 58.2187V58.4782L191.313 58.5647L191.573 58.9972L193.735 60.1218H194.86L195.206 60.3813L195.552 60.7273L196.59 61.0734L196.677 60.9869H196.763L196.85 61.2464L197.282 61.7654V61.9384L197.369 62.1979H197.542L198.753 63.063L199.012 62.9765L198.926 62.8035L199.099 62.6305L199.445 62.4575L199.791 63.1495L199.877 64.4471L199.445 65.0526V65.1392L199.272 65.2257L198.839 66.3502L199.012 66.5232H199.185L199.012 66.7828L198.753 67.1288L198.839 67.6478L198.753 67.7343L200.396 70.8485L202.126 72.1461L200.915 81.6618L201.088 81.9213L201.261 81.3158L201.348 81.1428L201.434 81.3158L201.348 82.7864L201.175 82.8729V83.1324L201.002 83.0459L201.175 82.7864L201.002 82.5269L201.088 82.7864L200.742 83.0459V83.2189L200.569 83.3919H201.002V83.5649L200.915 83.8245H201.175V83.9975H200.829L200.656 84.1705L200.742 84.3435L200.915 84.257H201.002L200.656 84.603L200.829 84.8625L201.088 84.5165L201.002 85.0355L200.829 85.2951V85.4681L201.175 85.3816L201.261 85.4681L201.088 85.6411H201.261H201.348L201.521 85.7276L201.261 85.8141L201.175 85.9871L201.434 85.9006H201.867L201.348 86.1601V86.3331L201.953 86.1601L201.607 86.5061L201.261 86.4196V86.6792L201.694 86.8522L201.607 86.7657L202.213 86.0736L202.126 86.4196H202.386L202.213 86.5927V86.8522L202.126 86.5927L202.04 86.8522L201.867 86.7657L201.607 87.0252L201.867 87.1117L202.04 87.4577L202.126 87.1982L202.299 87.5442L202.386 87.4577L202.732 87.7172V87.4577L203.684 87.2847L202.732 86.5927V86.4196L202.645 86.2466L202.386 86.0736V85.9871H202.645L202.472 85.3816L202.559 85.0355L203.511 83.911L203.597 83.5649L203.251 83.4784L203.078 82.9594L203.597 82.6134L203.943 81.5753L204.116 81.6618L204.203 81.4023L204.03 81.4888L203.857 81.4023L203.77 80.7967L204.289 80.9698L204.635 80.7967V80.1912L204.722 80.0182L205.5 79.9317L206.106 79.5857L206.365 79.1531L205.76 78.2016H205.846L206.365 78.3746L207.057 78.2881L208.009 76.558V76.9905L208.701 75.9524L208.874 74.6548L210.085 73.7898L210.864 73.7033L211.729 71.8866L211.815 70.1565L211.902 70.07L212.075 70.1565L213.026 68.6859L212.94 67.6478V67.2153Z" fill="#808080"/>
<path d="M201.175 58.4783L199.099 57.4402L198.061 57.8727L198.58 57.6132L200.05 58.2187L200.223 58.4783H201.175Z" fill="#808080"/>
<path d="M199.877 59.1702L200.569 59.2567L199.877 59.1702Z" fill="#808080"/>
<path d="M195.985 65.6582L196.158 66.0907L195.985 65.6582Z" fill="#808080"/>
<path d="M217.265 35.2079L216.054 35.1214L216.227 34.6023L217.352 34.9484L217.438 34.5158L216.659 33.7373H217.092L217.352 33.3913H216.659L216.486 33.2182L216.659 32.8722L217.265 33.1317L217.784 32.9587L217.438 32.5262L218.13 32.4397L218.217 32.1802L217.611 31.8341L218.13 31.6611L218.044 31.0556L217.438 30.8826L217.265 30.6231L218.476 30.5366L218.303 30.1905L217.784 30.104L218.217 29.931L217.352 29.8445L217.525 29.1525L218.563 28.2874L218.39 28.0279L217.871 28.2874L218.303 27.9414L219.082 27.7684L218.476 27.6819L220.379 26.7303L219.341 26.4708L218.736 26.8168L218.13 26.9033L217.871 26.7303L216.746 27.6819L217.179 26.9033L217.005 26.3843L215.621 27.0763L216.313 26.5573L213.978 26.8168L217.438 25.9517L212.594 25.3462L212.075 25.6922L209.739 25.7787L210.085 26.1247L209.566 26.2978L210.258 26.8168L208.441 26.2978L208.787 26.8168H208.355L207.749 26.4708V26.9033L207.49 27.1628L207.317 26.4708L205.154 27.0763L205.241 27.6819L204.635 27.5954L203.338 28.4604L204.03 28.5469L203.77 29.239L201.694 30.0175L201.867 30.277L203.684 30.6231L202.126 30.8826L202.645 31.0556V31.3151L202.992 31.5746L204.635 31.3151L206.019 32.0072L207.144 33.7373L206.971 34.1698L207.144 34.6023L207.576 34.3428L207.663 34.6888L208.268 35.0349L208.182 35.2079L207.317 35.1214L208.182 35.5539L208.441 35.8999L208.355 36.419H208.009L207.49 37.1975L207.749 37.457L207.576 37.8031L208.009 38.3221V38.9276L208.701 40.1387L210.604 41.2633L210.864 41.0038L210.95 39.8792L211.469 39.1872V38.9276L211.642 38.7546L211.556 38.4951V38.4086L212.334 37.8031L212.421 37.7166L212.507 37.9761L213.113 37.8031L214.151 36.6785L217.179 35.3809L217.265 35.2079Z" fill="#808080"/>
<path d="M208.095 35.8136L207.836 35.554L207.23 35.4675L207.144 35.8136L207.49 35.9866L208.095 35.8136Z" fill="#808080"/>
<path d="M195.725 32.5264L196.59 32.8724L196.85 32.6994L199.272 32.7859L199.531 32.1803L196.504 32.0073L196.59 31.6613L195.119 31.2288L194.427 31.4018L195.725 32.0073V32.5264Z" fill="#808080"/>
<path d="M192.697 36.073H193.13L192.092 35.381L191.919 33.6509L191.313 33.8239L191.659 34.1699L191.227 33.9969H190.967L191.14 34.862L190.967 35.035L190.708 34.4294L190.189 34.1699L190.362 34.5159H190.016L189.497 34.1699L189.237 34.5159L189.064 34.4294V33.9969L187.766 34.6024L187.68 34.862L187.939 35.2945L188.718 35.208L187.853 35.554L189.756 35.9L188.112 36.2461L189.929 37.0246L191.227 36.5056L192.784 36.6786L192.611 36.3326H192.351L192.697 36.073Z" fill="#808080"/>
<path d="M198.32 40.3984L198.839 39.9658L198.32 40.3984Z" fill="#808080"/>
<path d="M206.884 45.6751L206.711 45.5886L205.846 47.3187H207.057L206.971 47.5783L207.23 47.4052L207.749 47.5783L207.663 47.0592L207.49 46.9727V46.6267L207.057 46.5402L206.884 46.2807L206.625 46.3672L206.711 46.1077L206.884 45.6751Z" fill="#808080"/>
<path d="M204.203 46.4536L205.068 46.7131L204.203 46.4536Z" fill="#808080"/>
<path d="M199.272 39.5333L197.888 38.4087L197.542 38.6682L197.282 39.6198H197.628L197.801 39.8793L198.32 39.5333H199.272Z" fill="#808080"/>
<path d="M192.265 32.6129L192.005 32.5264L192.265 32.6129Z" fill="#808080"/>
<path d="M200.829 37.3707L200.915 36.9381L200.483 36.7651L200.223 37.3707H200.829Z" fill="#808080"/>
<path d="M193.562 35.1216L194.081 34.9485L194.514 34.0835L194.341 33.997L194.254 34.17L193.908 33.997L194.341 33.651L194.081 33.3049L193.043 33.7375L193.303 34.0835L192.697 33.997L193.562 35.1216Z" fill="#808080"/>
<path d="M186.469 35.6407L188.718 33.9106L188.372 33.478L186.901 33.2185L185.95 33.3915L186.123 33.7375L185.604 34.7756L186.469 35.6407Z" fill="#808080"/>
<path d="M196.417 30.7097L196.158 30.9692L196.417 30.7097Z" fill="#808080"/>
<path d="M187.593 32.5263L188.112 32.0938L187.593 32.5263Z" fill="#808080"/>
<path d="M183.441 45.0698L183.874 45.7619L183.787 45.2428L183.441 45.0698Z" fill="#808080"/>
<path d="M195.465 30.6233L194.514 30.8828L195.465 30.6233Z" fill="#808080"/>
<path d="M202.04 34.862H201.607L200.223 34.0834L199.877 34.3429L199.704 34.2564L199.185 34.5159L199.272 33.9104L199.012 33.4779H198.407L197.801 33.8239L197.888 34.3429L197.715 34.6889L198.061 34.862L197.542 34.6889L197.455 34.2564L197.628 33.7374L197.888 33.3914L196.763 33.8239L196.417 35.035L197.109 35.1215L197.023 35.2945L196.59 35.381L198.753 35.9865L199.099 35.8135L199.704 35.9V35.6405L199.791 35.4675L200.742 36.2461L200.483 36.5056L200.915 36.3326L201.694 37.0246V37.6302L202.126 37.5436L202.645 37.8032L202.213 38.0627L201.434 37.8032L201.348 38.4087L200.223 38.6682L200.05 39.1008L201.521 39.0142L201.867 39.3603L202.04 39.7928L203.684 40.3983L202.905 39.5333L204.203 39.6198L203.165 38.2357L203.251 37.8897L203.684 38.0627L204.116 38.4952L204.808 38.1492L205.154 37.7167L203.078 36.3326L203.511 36.2461L203.165 36.073L203.338 35.9L203.165 35.554L202.905 35.727L202.992 35.4675L202.299 35.1215L201.953 35.208L201.78 35.1215L202.04 34.862Z" fill="#808080"/>
<path d="M199.185 33.3914L199.358 33.8239L199.791 33.9969L200.569 33.8239L199.791 33.3914H199.185Z" fill="#808080"/>
<path d="M190.362 30.7096L190.189 30.5366L189.41 30.8826L189.843 31.1422L190.362 30.7096Z" fill="#808080"/>
<path d="M191.919 29.8446L192.351 30.1041L191.919 30.1906L193.649 30.5366L193.476 30.1041L192.87 29.6715L191.746 29.4985L191.919 29.8446Z" fill="#808080"/>
<path d="M189.237 30.7962L188.891 30.7097L189.237 30.7962Z" fill="#808080"/>
<path d="M192.092 31.1422L191.573 30.7961L192.092 31.1422Z" fill="#808080"/>
<path d="M188.545 31.9208L188.632 32.1803L188.372 32.4398H188.718L188.112 32.6994H188.978L189.151 32.6129H189.756L189.324 32.9589V33.3049L191.486 32.6994L191.573 32.0073L191.227 32.1803L190.708 31.4883L190.362 31.9208V32.0938L190.621 32.3533L188.891 31.7478L188.545 31.9208Z" fill="#808080"/>
<path d="M186.642 32.267L187.074 32.094L187.247 32.3535L187.939 31.5749L188.026 31.921L188.545 31.6615V31.4019L188.718 31.2289L188.459 31.0559L188.285 31.2289L187.853 31.1424L186.469 32.094L186.642 32.267Z" fill="#808080"/>
<path d="M189.756 30.4503L190.621 30.2773L189.929 30.1042L189.41 30.4503H189.756Z" fill="#808080"/>
<path d="M194.514 29.0661L194.773 29.4121H195.725L195.119 29.7581L196.331 30.2771H196.763L197.369 29.5851L197.888 29.3256L197.282 28.9796L197.109 28.6335L195.119 27.855L195.206 28.028L194.687 28.2875L194.773 28.72L194.514 29.0661Z" fill="#808080"/>
<path d="M194.341 30.623L194.86 30.45L194.946 30.1905L193.995 29.8445L194.341 30.623Z" fill="#808080"/>
<path d="M193.822 29.066L193.389 28.9795L193.822 29.066Z" fill="#808080"/>
<path d="M195.119 32.2668L194.341 32.6994L195.292 32.8724L195.119 32.2668Z" fill="#808080"/>
<path d="M193.216 31.4016L193.303 31.8341L192.957 31.6611L192.87 31.9206L192.697 32.0072L192.178 31.4881V31.9206L192.611 32.2667H193.389L193.303 32.6992H193.908L194.168 32.3532V32.0072L193.822 31.4881L193.216 31.4016Z" fill="#808080"/>
<path d="M196.158 27.5089H196.331L196.417 27.6819L196.331 27.8549L196.59 28.1144H197.369L197.455 28.2874L199.618 27.8549V28.2009L198.666 28.4604L199.012 28.8929L197.542 28.5469V29.066L198.666 29.8445L197.888 29.758L197.109 30.104H197.801V30.3636L198.147 30.7961H197.715L197.196 30.4501L197.109 31.0556L196.504 31.4016H199.964L200.05 31.0556L199.099 30.9691V30.7961L199.877 30.7096L199.964 30.3636L200.483 30.277L201.088 29.585L200.31 29.412L201.002 29.1525L201.348 28.8064L201.953 28.8929L204.203 27.4223L203.251 27.3358L204.895 26.8168L204.981 26.4708L204.203 26.2113L203.511 26.2978L203.597 26.1248L197.715 26.8168L197.282 27.1628L196.763 27.0763L196.59 27.3358L195.898 27.4223L196.158 27.5089Z" fill="#808080"/>
<path d="M173.839 45.1562L174.272 44.8967L173.839 45.1562Z" fill="#808080"/>
<path d="M177.386 43.0799L177.126 43.4259L176.867 43.5989L177.04 43.8585H177.213L177.559 43.5124L177.472 43.2529L177.645 43.1664V42.9934L177.386 43.0799Z" fill="#808080"/>
<path d="M173.406 42.2151L173.147 42.3016L173.579 42.4746V42.2151H173.406Z" fill="#808080"/>
<path d="M225.224 50.26L224.964 50.433L225.224 50.26Z" fill="#808080"/>
<path d="M232.144 51.9036L231.539 51.8171L231.279 51.9036L231.798 52.0767L232.144 51.9036Z" fill="#808080"/>
<path d="M234.48 51.9901L234.653 51.7305V51.644L234.22 51.8171L234.134 52.0766L234.48 51.9901Z" fill="#808080"/>
<path d="M219.428 38.6682L219.947 38.1492L219.514 37.4571H219.341L218.995 37.3706V37.5436L218.476 37.6301L218.39 37.5436L218.13 37.7166L218.044 37.6301L217.871 37.8031V37.9761L217.611 38.0627L217.525 37.8031L217.092 37.4571L217.179 37.6301H217.005L216.832 37.7166L216.659 37.9761L217.352 38.0627L217.265 38.2357L216.746 38.4087H217.179L217.438 38.6682L217.179 38.9277H217.525L218.13 39.1872L219.428 38.6682Z" fill="#808080"/>
<path d="M221.244 45.1562L222.196 44.8102V43.9451L222.369 43.7721L222.196 43.3396L221.504 43.5126L221.59 43.6856L221.417 43.8586H221.071L221.244 44.3777L221.158 44.6372L220.985 44.8967L221.244 45.1562Z" fill="#808080"/>
<path d="M222.196 41.6958L221.936 42.0418L222.196 41.6958Z" fill="#808080"/>
<path d="M222.109 42.2151L222.369 42.3881L222.196 42.6476L222.369 42.8206L222.109 43.0801L222.369 42.9936L222.455 43.1666L222.628 42.9071V43.1666L222.542 43.5127L222.974 43.4262L223.234 43.8587L223.147 44.2047H222.888L222.801 44.2912L222.715 44.5507L222.888 44.6373L222.542 44.8968L222.715 45.0698L223.234 45.1563V45.2428H222.888L222.455 45.8483L222.715 45.6753L222.974 45.7618L223.061 45.5888L223.58 45.4158L223.839 45.5023L224.532 45.2428L224.445 45.1563V44.8968L224.705 44.5507L224.272 44.3777V44.2047L223.493 42.9936H223.234L223.58 42.1286H222.974L222.888 41.9556L223.147 41.696V41.4365L223.061 41.6095H222.715L222.282 42.3016L222.109 42.2151Z" fill="#808080"/>
<path d="M227.819 43.5126L227.992 43.1666L228.078 42.8206L227.992 42.9071L227.905 42.8206L227.646 42.9071L227.819 43.2531L227.732 43.3396L227.819 43.5126Z" fill="#808080"/>
<path d="M229.895 41.7825L229.722 42.3015L229.895 41.7825Z" fill="#808080"/>
<path d="M231.192 41.177L231.019 41.2635L231.192 41.177Z" fill="#808080"/>
<path d="M230.933 41.6959L231.192 41.4364L231.019 41.3499L230.933 41.6959Z" fill="#808080"/>
<path d="M229.808 27.7685H230.933L230.241 28.0281L231.365 28.2876L232.577 27.509L231.452 27.4225L231.279 27.509L231.106 27.2495V27.5955L230.846 27.509H230.587L230.241 27.2495V27.4225L229.981 27.336L230.068 27.509L229.808 27.336L229.635 27.509L229.808 27.682V27.7685Z" fill="#808080"/>
<path d="M227.646 28.9795L227.819 29.1525L227.473 28.72L227.646 28.9795Z" fill="#808080"/>
<path d="M227.905 28.3739L227.732 28.72L228.078 29.066H228.511L228.857 28.6335V28.893L229.116 28.8065L229.203 28.9795L228.338 29.3255L228.684 29.4985L229.289 29.412L228.424 29.758L228.77 30.0175H229.03L228.857 30.1906L229.116 30.3636L229.376 30.2771L230.068 28.893L230.414 28.72L230.5 28.8065L230.587 29.066L230.673 29.239L230.587 29.4985L230.933 29.585L231.106 29.758L231.712 29.3255L231.279 29.239L231.192 29.066L230.933 28.9795L230.76 28.8065V28.6335L229.981 28.2874L229.808 28.0279L229.549 28.2009L229.635 27.9414L229.289 27.7684L229.203 27.6819L229.03 28.0279L229.203 28.5469L228.684 27.9414L228.597 28.2009L228.511 28.2874L228.251 28.0279L228.511 27.9414L228.338 27.8549L227.819 27.9414L227.559 28.0279V28.3739H227.905Z" fill="#808080"/>
<path d="M268.39 47.6648L268.131 47.8378L267.958 48.2703V48.5298L268.304 48.4433L268.131 48.1838L268.823 48.2703L269.515 47.9243L270.034 47.2323L269.428 47.4918L268.736 46.8862L268.477 46.9727L268.39 47.6648Z" fill="#808080"/>
<path d="M264.757 51.9901L264.584 52.2496L264.843 52.1631L265.016 52.9416L265.362 52.3361L265.276 52.0766L265.016 51.9036L264.757 51.9901Z" fill="#808080"/>
<path d="M266.833 50.606L266.66 50.952L265.622 51.1251L265.103 51.5576V51.8171L266.227 51.4711L266.4 51.7306H266.746L266.919 51.4711H267.006L267.612 51.3846L267.785 51.2116L268.131 51.1251L268.304 50.087L268.563 49.6544L268.39 48.7029L268.044 48.8759L267.785 49.8275L267.265 50.433L267.092 50.3465L266.833 50.606Z" fill="#808080"/>
<path d="M265.708 52.1631L266.054 51.9901L266.227 51.7305L265.881 51.644L265.622 51.7305L265.535 52.2496L265.708 52.1631Z" fill="#808080"/>
<path d="M261.729 56.4883L262.162 55.3638L261.556 55.7963L261.729 56.4883Z" fill="#808080"/>
<path d="M258.442 57.786L258.615 57.3535H258.182L257.923 57.8726L258.442 57.786Z" fill="#808080"/>
<path d="M263.286 61.1597L262.854 61.5057L262.594 61.4192L262.248 61.6787L262.075 62.0247L262.594 61.7652L262.854 62.3708L263.2 62.5438V62.1112L263.546 61.9382L263.459 61.1597H263.286Z" fill="#808080"/>
<path d="M261.47 58.6511L261.643 59.4297L262.594 59.9487L263.027 60.8138L263.2 60.5543L263.113 60.1217L262.594 59.5162L262.162 59.4297L261.989 59.0836L262.162 58.5646L262.075 57.8726H261.643L261.556 58.7376L261.47 58.6511Z" fill="#808080"/>
<path d="M261.643 59.7756L261.902 60.1217L261.643 59.7756Z" fill="#808080"/>
<path d="M261.037 60.9867L260.605 61.5923L261.21 60.9867L261.297 60.5542L261.037 60.9867Z" fill="#808080"/>
<path d="M262.94 60.9868L262.681 61.1598L262.94 60.9868Z" fill="#808080"/>
<path d="M262.594 60.6407L262.162 60.2947V60.7272L262.335 60.6407L262.421 61.3327L262.767 60.7272L262.594 60.6407Z" fill="#808080"/>
<path d="M271.677 66.1772L271.331 66.4367L270.639 66.5232L271.158 66.6962L271.764 66.3502L271.937 66.0042L271.677 66.1772Z" fill="#808080"/>
<path d="M272.11 66.0906L272.023 65.7446L271.937 65.8311L272.11 66.0906Z" fill="#808080"/>
<path d="M270.38 66.6962L267.092 65.0526L266.314 65.7446L265.968 64.793L265.276 64.7065L265.016 64.9661L265.103 65.0526L265.362 65.3121H265.795V65.4851L265.362 65.5716L265.535 65.8311L267.266 66.4367L267.439 66.8692V67.2152L267.179 67.4747L267.871 67.3882L268.563 67.8208L269.169 67.3017L269.861 67.4747L270.553 68.1668L271.158 68.2533V68.0803L270.639 67.6477L270.293 66.8692L270.38 66.6962Z" fill="#808080"/>
<path d="M249.186 61.333L249.013 62.1116L249.186 62.6306L249.705 62.1116L249.186 61.333Z" fill="#808080"/>
<path d="M239.238 69.2048L239.151 69.3778V69.6374L238.805 69.8969V70.0699L237.68 70.6754L237.421 73.3571L237.594 74.0492L238.199 74.2222L238.459 74.0492L239.411 70.5024H239.584L239.238 69.2048Z" fill="#808080"/>
<path d="M240.622 60.4679L240.968 60.3813L240.622 60.4679Z" fill="#808080"/>
<path d="M269.947 80.2777L269.428 80.1047L269.515 80.7968L269.947 81.3158L270.12 81.2293L270.207 81.0563H270.38L270.466 80.1047L269.947 80.2777Z" fill="#808080"/>
<path d="M264.67 68.8588L265.103 68.6858L264.67 68.8588Z" fill="#808080"/>
<path d="M266.746 78.1148L267.092 78.0283L266.746 78.1148Z" fill="#808080"/>
<path d="M272.283 74.8278L272.196 73.9627L271.504 73.1842L271.331 72.8382L271.245 72.6651L271.072 72.7516L270.726 71.9731L269.947 71.4541L269.342 69.7239H269.169L268.736 68.3398L268.477 68.5994L268.304 70.5025L267.958 70.935L266.487 69.8969V69.4644L266.746 69.2914L266.833 69.0319L266.746 68.8589L266.66 69.0319L266.487 68.8589L266.314 68.9454L265.362 68.5129L265.449 68.7724L265.016 68.9454L264.584 69.6374V69.9835H264.238L263.632 69.5509L263.459 69.6374L263.373 69.8104L263.113 69.8969L263.027 69.9835L262.94 70.1565L262.854 70.5025H262.594L262.681 70.762L262.594 70.935L262.421 70.6755L262.162 70.762V71.1945L261.729 71.7136L259.739 72.5786L259.566 72.8382V72.5786L259.393 72.8382L259.307 73.7897L259.566 74.3088L259.307 74.1357L259.393 74.3953L259.22 74.2222L260.086 76.4714L259.999 76.9039L259.826 77.25L259.912 77.5095L260.172 77.6825L260.778 77.769L265.016 76.2984L265.968 76.6444V76.9039L266.227 77.1635L266.314 77.596L267.179 76.9039L266.833 77.6825L267.179 77.596L267.352 77.5095L267.266 77.942L267.525 77.8555L267.958 78.8071L268.909 79.2396L269.342 78.9801L269.515 79.0666V79.1531L269.601 79.0666L269.947 79.3261L270.38 78.8936L271.072 78.8071L272.283 74.8278Z" fill="#808080"/>
<path d="M276.868 82.873L276.954 82.7L276.868 82.873Z" fill="#808080"/>
<path d="M239.151 35.2945L239.757 35.1215L239.497 34.9485L239.151 35.2945Z" fill="#808080"/>
<path d="M240.449 33.5644V33.8239L240.622 33.6509L241.227 34.0834H242.092L241.66 33.6509L241.487 32.8724L242.438 31.4883L245.726 29.6716L241.833 30.9692L241.487 31.6613L241.227 31.8343L241.054 32.2668L240.535 32.6128L240.708 32.8724L240.103 33.3049L240.449 33.5644Z" fill="#808080"/>
<path d="M252.819 26.0383L252.386 26.1248L252.819 26.0383Z" fill="#808080"/>
<path d="M269.082 31.5746L268.736 31.1421L268.217 31.4881L269.082 31.5746Z" fill="#808080"/>
<path d="M268.39 30.8826L268.044 31.0556L268.39 30.8826Z" fill="#808080"/>
<path d="M253.511 27.0764L253.338 27.4224L254.722 27.855L255.155 27.1629L254.376 26.8169L253.511 27.0764Z" fill="#808080"/>
<path d="M254.982 28.547L256.885 27.9415L256.539 27.682L256.02 27.7685L256.106 27.5955L255.933 27.3359L255.587 27.5089L255.414 27.7685L255.241 28.028L254.982 28.547Z" fill="#808080"/>
<path d="M267.439 30.5367L268.736 30.3637V30.0177L269.342 30.3637L269.515 30.0177L269.428 29.7581L268.736 29.5851L268.304 29.7581L267.698 29.4121L267.179 30.2772L267.439 30.5367Z" fill="#808080"/>
<path d="M268.996 43.08L268.823 42.6475L268.563 46.5402L268.823 46.2807L269.082 46.5402L268.823 45.7617L268.909 45.2426L269.255 45.1561L269.428 45.0696L268.996 43.08Z" fill="#808080"/>
<path d="M259.047 31.0559L258.874 31.2289L259.393 31.0559H259.047Z" fill="#808080"/>
<path d="M270.812 30.4502L271.591 30.2772L270.207 29.9312L270.034 30.1907L270.812 30.4502Z" fill="#808080"/>
<path d="M252.992 26.817V26.9036L252.732 27.0766L252.992 27.2496L254.29 26.644L254.376 26.3845L253.944 25.8655L253.165 26.298L252.992 26.5575V26.817Z" fill="#808080"/>
<path d="M283.615 36.073L283.961 36.1595L283.875 36.073H283.961H284.134L284.307 35.8135L283.269 35.2944H282.837L283.01 35.4674L282.923 35.727L282.75 35.6405V35.2944L282.664 35.1214L278.079 33.5643L277.992 33.8238L278.165 34.0833L278.079 34.4294L277.214 33.9103L277.646 33.7373L277.214 33.5643L276.868 33.9103H275.051L274.965 34.2564L274.878 33.9103L274.445 33.7373L274.532 33.4778L274.013 32.9588L272.023 33.0453L271.937 32.8723L270.985 32.5262V32.4397L271.245 32.2667L270.207 32.0937L270.034 32.4397H269.688L269.947 32.2667L269.601 32.1802L269.774 32.0937H270.12L268.477 31.8342L268.39 32.0072L267.785 32.3532H268.044L267.958 32.5262L268.044 32.7858H267.439L267.352 32.8723V33.0453L266.573 32.7858L266.227 32.9588L265.535 32.7858L265.189 33.4778L265.016 33.3913L264.238 32.5262H264.584L264.411 31.7477L264.151 31.5747H263.632L263.027 31.2286L262.681 31.5747V31.8342L261.124 31.7477L261.297 31.5747H259.653V31.7477L259.566 31.4017H259.393L259.047 31.4882L258.701 31.3152L258.355 31.5747L258.528 31.6612L257.144 32.1802L257.231 31.9207L258.961 30.8826L259.134 30.7096L259.48 30.5366L259.653 30.2771L259.48 30.1906L259.653 30.1041L259.566 29.758H259.393L259.307 29.4985L258.009 29.412L257.836 29.585L257.404 29.6715L257.663 29.3255L256.798 29.239L257.231 29.066V28.893L256.625 28.72L256.193 28.8065L255.587 29.412L255.674 29.585L254.982 29.758L255.155 29.9311L254.203 30.0176L254.29 29.8445L254.03 29.9311H253.857L253.338 30.1041L253.511 30.2771L251.608 30.8826L251.521 30.9691L251.435 31.0556L251.521 31.1421H251.262L251.608 31.4017H251.348L251.608 31.6612V31.8342L249.791 32.0937L249.705 32.6992L250.137 32.9588L250.31 33.3048L248.84 32.7858L248.667 32.9588L249.013 33.1318L248.407 33.3048L249.099 33.8238L249.013 33.9103L248.667 33.7373H248.148L248.234 33.1318L248.061 32.6992L247.888 33.2183L247.542 33.4778L247.456 33.7373L247.802 34.2564L247.629 35.2079H247.888L248.234 35.1214L248.84 35.2944L248.926 35.5539L248.753 35.8135L249.099 36.073H248.753L248.58 35.8135L248.667 35.5539L248.321 35.2079L247.802 35.3809L247.888 35.9L247.11 36.8515H246.245L246.072 36.6785L246.591 36.765L247.283 36.073L247.456 35.5539L247.196 35.2944L247.283 34.2564L247.023 33.8238L247.283 32.9588L246.331 32.7858L245.379 34.1698H245.552L245.379 34.8619L245.726 35.0349L245.898 35.2944L246.072 35.3809L245.898 35.727L242.784 34.5159L242.871 34.7754L243.303 35.0349L243.476 35.2944L243.39 35.4674L243.044 35.6405V35.4674L242.871 35.2944L242.352 35.5539H241.833L241.573 35.8135H241.141L241.4 35.3809L240.968 35.5539L240.881 35.727L240.708 35.6405L239.324 36.246L239.238 36.592L238.719 36.6785L238.459 36.419V36.1595L238.978 36.073L238.805 35.727L238.026 35.5539L238.199 35.9L238.113 36.3325L238.372 36.765L238.286 37.0245H238.113L238.026 36.938L237.68 36.8515L236.902 37.3706L237.075 37.9761L236.383 37.8896L236.037 37.6301L235.864 37.8031L235.95 37.9761L236.296 38.0626V38.2356L236.037 38.3221L235.518 38.0626L235.258 37.6301V37.1976L234.393 36.5055L236.383 37.1111L237.248 36.592V36.1595L234.48 35.0349L234.739 34.9484L234.566 34.8619L234.134 34.9484H233.788L233.615 34.7754H233.788L234.22 34.6024L234.047 34.4294L233.615 34.2564L233.269 34.5159V34.3429L233.182 34.1698L232.836 34.6889V34.4294L232.317 34.8619L232.404 34.6024L232.577 34.3429V34.1698L232.404 34.3429H232.144L232.058 34.5159L231.798 34.6889L231.712 35.0349L231.625 34.7754L231.885 34.4294L231.539 34.5159V34.7754L231.452 34.8619H231.192L231.365 35.0349H231.192L231.019 34.9484L230.5 34.7754L230.587 35.0349L230.5 34.9484H230.327V34.7754H230.154L230.068 34.8619V35.0349L229.981 35.1214L229.635 35.2079L229.462 35.4674H229.635V35.5539V35.6405H229.462L229.289 35.5539L229.116 35.6405L229.203 35.3809L228.338 36.1595H228.424L229.376 35.8135V35.9865L229.289 36.073L229.203 35.9865L228.511 36.938L228.424 37.1976L228.165 37.2841V37.8896L227.732 37.9761L227.905 38.1491L227.559 38.3221L227.213 38.8412L227.04 38.6682V38.8412L226.608 39.1007L226.781 39.2737H226.521L226.175 39.5332H226.089L225.916 39.7062L226.002 39.8792L225.916 40.4848L226.089 40.5713L226.348 40.4848L226.435 40.5713L226.262 40.7443H226.175L226.089 40.8308V41.0038H226.435L226.262 41.2633L226.608 41.5229L226.954 41.6094L227.559 41.0903L227.732 41.0038L227.819 40.7443L228.597 42.907H228.857L229.03 42.5609H229.289L229.462 42.3879L229.549 42.4744L229.722 42.1284H229.635L229.722 41.3498L230.327 40.5713L230.068 40.2253L229.808 40.1388V39.7062L230.327 38.6682L231.106 38.0626V37.7166L231.192 37.4571L231.365 37.2841H231.885L232.144 37.3706L232.231 37.6301L231.019 39.0142V40.2253L231.798 40.5713L233.009 40.2253L233.182 39.9658L233.009 40.2253L233.182 40.1388L233.355 40.3983L233.615 40.4848L231.798 40.9173L231.625 41.0903L231.712 41.3498L231.885 41.4364L231.971 41.6094V41.9554L231.712 42.1284L231.452 41.7824L231.192 41.9554L231.019 42.5609V43.08L231.106 43.1665L231.019 43.3395H230.673V43.426L230.5 43.5125L230.327 43.3395L229.116 43.8585L228.943 43.772V43.599L228.338 43.945L227.819 43.599L227.646 43.3395H227.992L227.905 43.1665H227.732L227.819 42.907L227.992 42.8205L227.819 42.6474V42.1284L227.386 42.3879V42.5609L227.213 42.4744L227.04 42.7339L227.3 44.0315L227.127 44.2045H226.694V44.2911L226.262 44.3776L226.175 44.6371H226.002L225.829 44.7236L225.483 45.3291L225.137 45.5021L224.445 46.2807L224.099 46.1077L223.926 46.2807V46.6267H223.666L223.493 46.5402L223.234 46.6267L223.061 46.7997V47.0592L223.753 47.3188L224.186 48.0108L224.012 49.0489L222.109 48.8759L221.85 49.0489V51.6441H222.455L222.801 52.0766L222.888 51.9901L223.753 51.8171L224.532 50.952V50.433L225.397 49.6544L225.483 49.3949V49.3084L225.743 48.9624L226.348 49.0489L227.3 48.5299L229.462 50.5195V51.2115L229.808 50.6925L229.635 50.433L229.895 50.26H230.154L228.424 48.5299V48.1838L228.597 48.0108H228.77L228.857 48.2703L229.116 48.3568L229.376 48.8759L230.414 49.5679L230.5 49.3949L230.414 49.5679L230.5 50.3465L230.673 50.606L230.846 50.8655L231.365 51.0385H231.019L231.279 51.5576L231.539 51.7306L231.452 51.3845H231.625L231.452 51.2115L231.539 51.125H231.798L231.712 50.8655H231.452L231.539 50.6925L231.279 50.26L231.452 50.1735H231.712L231.798 49.9139L231.971 50.0005L232.231 49.8274L232.663 50.0005L232.923 49.8274L233.355 49.7409L233.096 49.5679L232.923 49.0489L233.269 48.7029V48.5299L233.615 48.0108L234.047 47.4053L234.393 47.3188V47.5783L234.912 47.6648L234.48 47.9243L234.826 48.0973V48.3568L235.777 48.0108L235.431 47.9243L235.172 47.6648L236.556 47.1458L236.21 47.4053L236.296 47.5783L235.864 48.0108L237.248 49.0489L237.334 49.3949L237.248 49.4814L236.123 49.7409L234.999 49.3084L233.096 49.4814L232.923 49.7409L232.231 49.8274L232.144 50.087L232.231 50.1735V50.8655L232.577 51.2115L232.75 51.298L232.923 51.5576L233.615 51.298L234.047 51.5576L234.393 51.4711L234.653 51.298L234.912 51.3845L235.172 51.298L234.826 52.6821L234.999 52.7686V52.9417V52.7686L234.826 52.6821L234.48 53.5472L231.712 53.3742L230.846 53.0282L230.154 53.4607V53.8932L229.116 53.7202L228.597 53.2877L227.646 53.1147L227.127 52.7686L227.386 52.5091L227.473 51.7306V51.6441L224.532 51.8171L223.407 52.5091L222.196 52.2496L221.85 52.9417L221.417 53.2012L220.985 53.8067V54.3258L218.736 57.786L218.995 58.7376L218.736 60.0351L218.909 60.5542V60.7272V60.9002L221.59 63.7549L223.147 63.5819L223.407 63.6684L225.051 62.9764L225.483 63.0629L225.916 63.7549L226.694 63.5819L226.781 63.7549L227.04 63.8414L227.127 64.1874L227.04 64.5335L226.954 64.966L226.867 65.0525L226.954 65.2255L226.694 65.5715L228.078 68.1667L227.992 68.5127L228.165 69.2913L227.559 71.4539L229.549 77.7689L229.808 78.0284L231.885 77.5094L233.701 75.4332L233.874 74.6547L233.788 74.4817L234.653 73.7896L234.566 72.146L236.556 70.2429L235.95 67.1286L239.843 60.7272L239.67 60.6407L237.507 61.0732L237.334 60.9002L237.248 60.9867L237.334 60.9002L237.161 60.8137L237.334 60.6407L233.961 53.8932L234.48 54.7583L234.653 54.2392L237.334 60.2947L239.843 59.3431L240.103 58.9971L240.968 58.7376L241.054 58.478L241.4 58.3915L241.573 58.0455L241.746 57.959L241.833 57.44L242.352 56.8344V56.6614L242.092 56.3154L241.573 56.1424L241.314 55.3638L240.968 55.8829L240.016 56.3154H239.93L239.757 56.0559V55.5368L239.584 55.8829L238.805 54.1527V54.0662L239.411 53.8932L239.93 54.7583L241.054 55.2773L241.573 55.1043L241.833 55.5368L244.86 55.7098L245.033 56.1424L245.639 56.5749H245.985L245.552 56.7479L246.245 57.3535L246.677 56.8344L248.148 62.0248L248.753 61.4193L249.272 59.1701L251.089 57.5265L251.175 57.1805L252.473 56.5749L253.338 58.305L253.252 58.9106L253.425 59.0836L253.771 58.9971L254.03 58.6511L254.203 58.8241L255.501 63.7549L256.452 64.447L256.279 63.2359L254.982 61.5058L255.155 60.2082L255.414 60.1217L256.02 60.5542L256.106 60.9002H256.279V61.0732H256.539L256.712 61.2462L256.625 61.5923L256.798 61.7653L257.231 61.1597L257.836 60.9002L258.096 60.3812L258.009 59.5161L256.971 57.6995L257.577 56.9209L258.096 56.8344L258.269 57.267L258.355 57.0939L259.393 56.4019L260.258 56.3154L261.297 55.2773V54.6718L261.556 54.5853L262.162 53.4607L261.729 53.2877L262.075 53.1147L261.556 52.6821H261.989L261.47 51.7306L261.21 51.5576L261.47 51.0385L262.162 50.6925L261.989 50.433L261.643 50.26L261.21 50.606L261.037 50.3465L260.691 50.26V49.8274L261.989 49.1354L261.729 49.9139H261.989L262.594 49.5679H262.767L263.113 49.7409L262.94 50.1735L263.027 50.3465L263.2 50.433L263.459 50.3465L263.546 50.433L263.632 50.606L263.546 51.7306L264.497 51.298L264.67 51.125L264.238 50.0005L263.978 49.7409L264.065 49.3949L264.584 48.9624L264.67 48.5299L265.103 48.0973L265.362 47.9243L265.708 48.1838L267.785 45.7617L268.39 43.3395L267.785 42.8205H267.525L267.352 43.08H267.179V42.7339L267.006 42.9935V42.6474H266.66V42.3879L269.255 40.0523L271.418 39.8792L271.85 40.0523L271.677 40.3118L272.888 39.9658L272.802 39.8792V39.6197L273.667 38.6682L274.186 38.5817L274.359 38.6682L274.619 38.5817L274.445 38.9277L274.619 39.1007L274.532 39.2737L275.484 38.7547V38.2356L276.003 37.9761V38.0626L273.667 40.5713L273.407 40.6578L272.975 41.9554L273.321 44.118L273.84 43.599L273.926 43.253L274.186 43.08L274.445 42.9935V42.7339L274.792 42.3879L275.138 42.3014L275.051 41.9554L275.311 41.5229H275.57L275.397 41.2633L275.484 40.6578H275.311V40.3118L275.83 39.5332H276.089L276.176 39.6197L276.522 39.2737L276.608 39.6197L276.868 39.4467L277.646 39.3602L277.906 39.6197L278.079 39.3602L280.241 38.0626H280.847V37.8031L280.155 36.8515L279.895 36.765L280.241 36.6785L280.414 36.8515H280.76L281.193 36.592L281.279 36.419L281.193 36.246V36.073L281.279 35.9865H281.452V36.1595L281.539 36.419L282.404 36.592L282.664 36.8515L283.183 37.0245H283.529L283.356 36.8515H283.529V36.3325L283.615 36.073Z" fill="#808080"/>
<path d="M246.591 32.2668L246.245 32.0938L246.158 32.4398L246.591 32.2668Z" fill="#808080"/>
<path d="M249.099 32.3533L248.84 32.4398L249.099 32.3533Z" fill="#808080"/>
<path d="M200.05 56.6614L199.964 56.7479L200.137 57.0939L200.05 56.6614Z" fill="#808080"/>
<path d="M205.068 62.0249L205.241 61.9384V61.7654L204.981 61.8519L205.068 62.0249Z" fill="#808080"/>
<path d="M257.663 65.6582L257.49 65.7447L257.663 65.6582Z" fill="#808080"/>
<path d="M262.508 67.6478L262.681 67.5613L261.383 67.7343L261.902 67.8208L262.508 67.6478Z" fill="#808080"/>
<path d="M260.605 67.5613L260.345 67.6478L260.172 67.8208L260.691 67.9073L261.124 67.7343L260.605 67.5613Z" fill="#808080"/>
<path d="M263.027 68.0803L263.113 67.9073L263.805 67.5613H263.373L262.767 67.9073L262.594 68.3398L263.027 68.0803Z" fill="#808080"/>
<path d="M264.065 65.7445L264.843 65.9176L264.67 65.5715L264.065 65.7445Z" fill="#808080"/>
<path d="M261.729 68.2531L261.124 68.0801L261.383 68.2531H261.729Z" fill="#808080"/>
<path d="M263.373 65.7446L263.805 65.8311L263.373 65.7446Z" fill="#808080"/>
<path d="M261.037 65.485L261.383 66.6961L261.556 66.3501V65.658L261.729 65.831L261.902 66.1771H262.162L261.989 65.2255L262.508 64.793L261.816 65.0525L261.47 64.7064L263.113 64.0144L262.767 64.1874L261.902 64.1009L261.556 64.2739L261.037 65.485Z" fill="#808080"/>
<path d="M264.065 64.0145L263.892 63.928L264.065 64.7065L264.238 64.1875L264.065 64.0145Z" fill="#808080"/>
<path d="M254.203 64.1875L254.376 64.447L254.203 64.1875Z" fill="#808080"/>
<path d="M254.636 65.1392L254.809 65.3122L254.636 65.1392Z" fill="#808080"/>
<path d="M259.653 67.7342H259.999L259.653 67.4747L259.134 67.3882L259.48 67.1287L256.971 66.8691L256.885 67.1287H257.058L257.231 67.3882L259.653 67.7342Z" fill="#808080"/>
<path d="M257.836 64.4472L258.615 65.7448L258.874 65.8313H259.307L259.739 66.0043L260.172 65.9178L260.605 64.5337L261.037 64.2741L260.691 63.1496L261.21 62.717L260.951 62.544L260.691 62.4575L260.432 62.198L259.912 62.89L259.739 62.9766L259.566 62.89L259.22 63.4091L258.788 63.5821L258.615 64.0146L258.096 63.9281L257.836 64.4472Z" fill="#808080"/>
<path d="M256.971 66.2635V65.831L257.144 65.7445V65.5715L256.885 65.312V65.3985L256.971 65.5715H256.798L253.598 62.7168L256.539 66.7826H256.885L256.971 66.2635Z" fill="#808080"/>
<path d="M228.684 50.8655H228.338L228.078 51.0385L228.77 51.471L228.943 50.8655H228.684Z" fill="#808080"/>
<path d="M226.694 49.741L226.954 50.5195L227.127 50.433L227.213 49.8275L226.954 49.741H226.694Z" fill="#808080"/>
<path d="M192.524 45.5886C192.524 47.6647 190.967 49.3083 189.064 49.3949C187.161 49.4814 185.604 47.8377 185.604 45.8481C185.604 43.8585 187.161 42.1283 189.064 42.0418C190.967 41.9553 192.524 43.5989 192.524 45.5886Z" fill="url(#paint20_linear_3385_66349)"/>
<path d="M197.974 60.7274C197.974 61.6789 197.282 62.4575 196.331 62.4575C195.465 62.4575 194.687 61.7654 194.687 60.8139C194.687 59.8623 195.379 59.0837 196.331 59.0837C197.196 59.0837 197.974 59.7758 197.974 60.7274Z" fill="url(#paint21_linear_3385_66349)"/>
<path d="M237.421 59.6026C237.421 62.9763 234.739 65.831 231.452 65.9175C228.165 66.004 225.483 63.2358 225.483 59.8621C225.483 56.4883 228.165 53.6336 231.452 53.5471C234.739 53.4606 237.421 56.2288 237.421 59.6026Z" fill="url(#paint22_linear_3385_66349)"/>
<path d="M249.186 36.592C249.186 38.0626 248.061 39.2737 246.591 39.2737C245.206 39.2737 243.995 38.1491 243.995 36.6785C243.995 35.2079 245.12 33.9968 246.591 33.9968C248.061 33.9103 249.186 35.1214 249.186 36.592Z" fill="url(#paint23_linear_3385_66349)"/>
<path d="M255.414 51.9035C255.414 53.5472 254.117 54.9313 252.473 55.0178C250.829 55.0178 249.532 53.7202 249.532 52.0766C249.532 50.4329 250.829 49.0488 252.473 48.9623C254.117 48.8758 255.414 50.1734 255.414 51.9035Z" fill="url(#paint24_linear_3385_66349)"/>
<path d="M267.698 34.3429C267.698 35.8135 266.573 36.9381 265.189 37.0246C263.805 37.0246 262.681 35.9866 262.681 34.516C262.681 33.0454 263.805 31.9208 265.189 31.8343C266.573 31.7478 267.698 32.8723 267.698 34.3429Z" fill="url(#paint25_linear_3385_66349)"/>
<path d="M358.01 273.878L3.76819 248.878" stroke="#263238" stroke-miterlimit="10"/>
<path d="M22.021 250.002V210.123" stroke="#263238" stroke-miterlimit="10"/>
<path d="M55.4123 252.078V213.324" stroke="#263238" stroke-miterlimit="10"/>
<path d="M94.2535 255.279V215.4" stroke="#263238" stroke-miterlimit="10"/>
<path d="M137.247 258.48V216.524" stroke="#263238" stroke-miterlimit="10"/>
<path d="M181.884 261.162V216.524" stroke="#263238" stroke-miterlimit="10"/>
<path d="M226.521 263.238V220.763" stroke="#263238" stroke-miterlimit="10"/>
<path d="M274.099 269.38V223.445" stroke="#263238" stroke-miterlimit="10"/>
<path d="M328.079 271.196V227.165" stroke="#263238" stroke-miterlimit="10"/>
<path d="M358.01 280.106L2.64361 253.722" stroke="#263238" stroke-miterlimit="10"/>
<path d="M346.851 384.433L357.405 385.644" stroke="#263238" stroke-miterlimit="10"/>
<path d="M1 344.121L334.913 383.049" stroke="#263238" stroke-miterlimit="10"/>
<path d="M257.144 391.699C269.805 391.699 280.068 388.524 280.068 384.606C280.068 380.688 269.805 377.512 257.144 377.512C244.484 377.512 234.22 380.688 234.22 384.606C234.22 388.524 244.484 391.699 257.144 391.699Z" fill="url(#paint26_linear_3385_66349)"/>
<path opacity="0.5" d="M257.144 391.699C269.805 391.699 280.068 388.524 280.068 384.606C280.068 380.688 269.805 377.512 257.144 377.512C244.484 377.512 234.22 380.688 234.22 384.606C234.22 388.524 244.484 391.699 257.144 391.699Z" fill="white"/>
<path d="M238.719 346.803C236.123 350.955 234.566 356.405 234.566 362.374C234.566 375.609 242.352 386.336 251.954 386.336C261.556 386.336 269.342 375.609 269.342 362.374C269.342 356.405 267.785 351.042 265.189 346.803H238.719Z" fill="white" stroke="#263238" stroke-miterlimit="10" stroke-linecap="round" stroke-linejoin="round"/>
<path d="M265.362 347.408C265.449 349.571 259.566 351.301 252.213 351.301C244.86 351.301 238.719 349.657 238.632 347.495C238.545 345.332 244.428 343.602 251.781 343.602C259.134 343.602 265.189 345.245 265.362 347.408Z" fill="white" stroke="#263238" stroke-miterlimit="10" stroke-linecap="round" stroke-linejoin="round"/>
<path d="M264.238 348.965C261.989 347.668 257.404 346.803 252.04 346.803C246.591 346.803 241.919 347.754 239.93 349.138C242.179 350.436 246.764 351.301 252.127 351.301C257.663 351.301 262.248 350.349 264.238 348.965Z" fill="#263238" stroke="#263238" stroke-miterlimit="10" stroke-linecap="round" stroke-linejoin="round"/>
<path d="M219.687 233.393C219.687 233.393 221.331 236.421 219.86 239.276C218.39 242.13 216.659 244.985 217.698 246.456C218.736 247.926 222.023 249.656 221.677 252.771C221.331 255.798 217.006 261.94 219.687 265.314C222.369 268.688 226.867 268.515 227.04 272.321C227.213 276.127 222.715 279.155 224.012 282.529C225.31 285.902 232.577 286.681 232.577 289.017C232.577 291.352 229.722 293.861 232.058 296.37C234.393 298.878 245.639 305.453 247.283 302.771C248.926 300.089 252.127 292.65 249.964 282.096C249.618 280.28 247.11 279.934 246.764 277.425C246.418 274.916 247.456 270.418 245.726 267.909C243.909 265.401 238.199 264.535 237.853 262.546C237.507 260.556 240.016 255.712 237.507 252.684C234.999 249.656 229.116 248.186 229.116 246.196C229.116 244.207 230.933 241.698 228.424 239.016C225.743 236.335 219.687 233.393 219.687 233.393Z" fill="url(#paint27_linear_3385_66349)"/>
<path d="M228.251 254.587C231.971 265.833 238.545 281.144 241.141 288.498C244.341 297.494 247.196 303.982 248.58 312.892C249.272 317.045 249.791 332.27 250.137 347.322" stroke="#263238" stroke-miterlimit="10" stroke-linecap="round" stroke-linejoin="round"/>
<path d="M220.552 234.518C220.552 234.518 223.58 237.026 226.262 247.926C226.435 248.618 226.608 249.397 226.867 250.175" stroke="#263238" stroke-miterlimit="10" stroke-linecap="round" stroke-linejoin="round"/>
<path d="M275.657 253.895C275.657 253.895 274.359 256.317 275.484 258.653C276.608 260.989 278.079 263.238 277.214 264.362C276.349 265.487 273.753 266.958 274.099 269.38C274.359 271.802 277.819 276.733 275.657 279.415C273.494 282.183 269.947 282.01 269.774 285.037C269.601 288.065 273.234 290.487 272.196 293.256C271.158 296.024 265.276 296.543 265.276 298.446C265.276 300.349 267.612 302.339 265.708 304.328C263.805 306.318 254.809 311.595 253.511 309.432C252.213 307.269 249.618 301.301 251.348 292.909C251.608 291.525 253.684 291.179 253.944 289.19C254.203 287.2 253.338 283.567 254.809 281.577C256.279 279.588 260.864 278.809 261.124 277.252C261.383 275.695 259.393 271.802 261.383 269.38C263.373 266.958 268.131 265.833 268.131 264.19C268.131 262.632 266.66 260.643 268.736 258.48C270.812 256.144 275.657 253.895 275.657 253.895Z" fill="url(#paint28_linear_3385_66349)"/>
<path d="M268.823 270.764C265.795 279.761 260.605 291.958 258.442 297.927C255.847 305.107 253.598 310.297 252.473 317.477C251.867 321.024 251.435 334.865 251.175 347.754" stroke="#263238" stroke-miterlimit="10" stroke-linecap="round" stroke-linejoin="round"/>
<path d="M274.965 254.674C274.965 254.674 272.542 256.663 270.38 265.4C270.207 266.006 270.12 266.525 269.861 267.217" stroke="#263238" stroke-miterlimit="10" stroke-linecap="round" stroke-linejoin="round"/>
<path d="M226.348 294.467C226.348 294.467 227.386 296.543 226.435 298.446C225.483 300.349 224.272 302.252 224.964 303.204C225.656 304.155 227.819 305.366 227.559 307.356C227.3 309.432 224.445 313.498 226.262 315.747C228.078 317.996 231.019 317.91 231.192 320.418C231.279 322.927 228.338 325.003 229.116 327.252C229.981 329.501 234.912 330.021 234.912 331.578C234.912 333.135 233.009 334.778 234.566 336.508C236.123 338.152 243.649 342.564 244.774 340.747C245.812 338.931 248.061 334 246.591 326.906C246.331 325.695 244.687 325.436 244.428 323.792C244.168 322.148 244.947 319.121 243.736 317.477C242.525 315.834 238.719 315.228 238.459 313.844C238.199 312.546 239.93 309.259 238.199 307.269C236.556 305.193 232.577 304.242 232.577 302.944C232.577 301.647 233.788 299.916 232.058 298.186C230.414 296.37 226.348 294.467 226.348 294.467Z" fill="url(#paint29_linear_3385_66349)"/>
<path d="M232.144 308.567C234.653 316.093 238.978 326.301 240.795 331.232C242.957 337.201 244.86 341.526 245.812 347.581" stroke="#263238" stroke-miterlimit="10" stroke-linecap="round" stroke-linejoin="round"/>
<path d="M226.954 295.159C226.954 295.159 229.03 296.802 230.76 304.155C230.846 304.588 231.019 305.107 231.192 305.626" stroke="#263238" stroke-miterlimit="10" stroke-linecap="round" stroke-linejoin="round"/>
<path d="M288.113 291.525C288.113 291.525 286.556 293.256 287.075 295.332C287.594 297.408 288.286 299.57 287.421 300.349C286.47 301.128 284.134 301.82 283.875 303.809C283.615 305.885 285.518 310.47 283.269 312.287C281.02 314.103 278.079 313.325 277.387 315.747C276.695 318.169 279.117 320.851 277.819 322.841C276.522 324.83 271.591 324.225 271.245 325.695C270.899 327.252 272.369 329.242 270.466 330.54C268.563 331.837 260.259 334.346 259.566 332.356C258.961 330.367 257.923 325.003 260.951 318.515C261.47 317.391 263.2 317.564 263.805 316.007C264.411 314.45 264.411 311.335 265.968 309.951C267.525 308.567 271.418 308.913 271.937 307.616C272.456 306.404 271.591 302.858 273.667 301.214C275.743 299.657 279.809 299.57 280.155 298.273C280.414 296.975 279.636 295.072 281.712 293.688C283.702 292.39 288.113 291.525 288.113 291.525Z" fill="url(#paint30_linear_3385_66349)"/>
<path d="M279.29 303.896C275.138 310.643 268.563 319.553 265.708 323.965C262.248 329.329 258.096 332.702 257.144 338.671C256.885 340.488 256.625 343.862 256.366 347.668" stroke="#263238" stroke-miterlimit="10" stroke-linecap="round" stroke-linejoin="round"/>
<path d="M287.335 292.044C287.335 292.044 284.999 293.169 281.539 299.916C281.279 300.349 281.106 300.782 280.847 301.301" stroke="#263238" stroke-miterlimit="10" stroke-linecap="round" stroke-linejoin="round"/>
<path d="M106.364 402.166C126.096 402.166 142.091 397.402 142.091 391.526C142.091 385.65 126.096 380.886 106.364 380.886C86.6329 380.886 70.6373 385.65 70.6373 391.526C70.6373 397.402 86.6329 402.166 106.364 402.166Z" fill="url(#paint31_linear_3385_66349)"/>
<path opacity="0.5" d="M106.364 402.166C126.096 402.166 142.091 397.402 142.091 391.526C142.091 385.65 126.096 380.886 106.364 380.886C86.6329 380.886 70.6373 385.65 70.6373 391.526C70.6373 397.402 86.6329 402.166 106.364 402.166Z" fill="white"/>
<path d="M68.3882 264.276C68.3882 264.276 69.8588 277.338 70.4643 284.086C71.0699 290.833 72.8 310.037 72.5405 312.373C72.3675 314.709 70.2048 338.844 70.2048 348.1C70.2048 357.356 71.5024 370.505 71.5024 370.505C71.5024 370.505 69.4263 374.052 69.7723 375.955C70.2048 377.858 70.6373 379.761 70.6373 380.799C70.6373 381.837 71.0699 383.308 71.0699 383.308C71.0699 383.308 74.2706 385.384 76.1737 385.644C78.0769 385.817 81.8831 384.606 81.8831 383.914C81.8831 383.308 83.6132 376.907 83.6132 374.657C83.6132 372.322 83.6133 373.187 84.2188 369.986C84.8243 366.785 91.5718 323.1 92.4369 319.034C93.3019 315.055 94.513 284.864 94.513 284.864L95.9836 287.632C95.9836 287.632 99.5304 319.899 99.3573 323.532C99.1843 327.079 97.8867 340.834 98.4923 347.149C99.0978 353.463 100.395 369.121 100.395 370.765C100.395 372.408 99.9629 376.215 99.9629 377.772C99.9629 379.242 98.6653 381.578 99.3573 382.616C99.9629 383.654 100.655 385.817 100.655 385.817C100.655 385.817 108.267 387.114 110.344 387.114C112.42 387.114 114.15 385.211 114.15 385.211C114.15 385.211 114.15 383.481 114.15 381.664C114.15 379.761 114.582 378.118 114.582 376.215C114.582 374.311 114.755 370.332 114.755 367.391C114.755 364.45 115.361 360.816 115.62 358.913C115.793 357.01 118.821 334.865 119.167 326.647C119.6 318.429 121.503 299.83 121.503 296.889C121.503 293.947 121.33 266.265 121.33 266.265L120.897 261.162C120.897 261.162 98.7518 264.103 88.1981 262.632C77.6443 261.162 68.9937 260.729 68.9937 260.729L68.3882 264.276Z" fill="#263238" stroke="#263238" stroke-miterlimit="10" stroke-linecap="round" stroke-linejoin="round"/>
<path d="M82.7482 380.627C82.7482 380.627 82.1426 381.232 81.0181 381.578C79.8935 381.924 79.1149 382.184 78.2499 380.886C77.2983 379.589 75.4817 378.118 73.9246 378.81C72.454 379.502 70.6373 380.54 70.2913 381.405C69.9453 382.184 70.2048 390.748 70.2048 392.305C70.2048 393.949 73.319 394.641 76.5198 394.727C79.634 394.814 82.1426 393.083 82.1426 393.083C82.1426 393.083 84.8243 393.343 85.7759 392.132C86.7275 391.007 86.2084 388.326 85.6894 387.374C85.0839 386.423 84.6513 385.644 83.7863 384C82.8347 382.357 82.7482 380.627 82.7482 380.627Z" fill="white" stroke="#263238" stroke-miterlimit="10" stroke-linecap="round" stroke-linejoin="round"/>
<path d="M85.6894 392.132C86.0354 391.786 86.1219 391.18 86.2084 390.575C84.6513 391.267 82.8347 390.834 82.2292 390.921C81.4506 391.007 79.5475 392.305 75.3952 392.045C72.973 391.872 71.2429 391.353 70.2913 390.921C70.2913 391.526 70.2913 391.959 70.2913 392.218C70.2913 393.862 73.4055 394.554 76.6063 394.641C79.7205 394.727 82.2292 392.997 82.2292 392.997C82.2292 392.997 84.7378 393.256 85.6894 392.132Z" fill="url(#paint32_linear_3385_66349)" stroke="#263238" stroke-miterlimit="10" stroke-linecap="round" stroke-linejoin="round"/>
<path d="M81.6236 392.997L82.0561 387.46" stroke="#263238" stroke-miterlimit="10" stroke-linecap="round" stroke-linejoin="round"/>
<path d="M79.2014 381.665C78.8554 381.491 78.5959 381.232 78.2499 380.799C77.2983 379.502 75.4817 378.031 73.9246 378.723C72.627 379.329 71.2429 380.107 70.6373 380.886C71.1564 382.357 72.3675 384.865 74.7896 385.038C76.6928 385.125 78.2499 383.395 79.2014 381.665Z" fill="url(#paint33_linear_3385_66349)" stroke="#263238" stroke-miterlimit="10" stroke-linecap="round" stroke-linejoin="round"/>
<path d="M114.409 383.222C114.409 383.222 112.679 383.654 111.728 383.135C110.776 382.53 109.392 379.069 106.278 379.415C103.164 379.761 101.78 382.703 101.087 383.049C100.395 383.395 100.309 383.481 100.049 383.827C99.7899 384.173 99.7034 393.602 99.7899 394.554C99.8764 395.505 106.537 396.371 110.603 395.938C114.669 395.505 116.053 393.689 116.399 393.516C116.745 393.256 118.302 392.824 118.475 390.748C118.735 388.672 118.043 386.336 116.832 385.557C115.707 384.779 114.755 383.827 114.755 383.827L114.409 383.222Z" fill="white" stroke="#263238" stroke-miterlimit="10" stroke-linecap="round" stroke-linejoin="round"/>
<path d="M109.825 393.256C105.586 393.343 101.433 392.478 99.7034 391.699C99.7034 393.083 99.7034 394.208 99.7899 394.554C99.8764 395.505 106.537 396.37 110.603 395.938C114.669 395.505 116.053 393.689 116.399 393.516C116.745 393.256 118.302 392.824 118.475 390.748C118.562 390.228 118.562 389.709 118.475 389.19C118.302 389.536 118.129 389.882 117.87 390.315C117.178 391.353 115.447 393.17 109.825 393.256Z" fill="url(#paint34_linear_3385_66349)" stroke="#263238" stroke-miterlimit="10" stroke-linecap="round" stroke-linejoin="round"/>
<path d="M114.409 389.277L113.717 395.073" stroke="#263238" stroke-miterlimit="10" stroke-linecap="round" stroke-linejoin="round"/>
<path d="M106.624 386.249C108.7 386.509 110.949 384.865 112.16 383.308C111.987 383.222 111.814 383.222 111.728 383.135C110.776 382.53 109.392 379.069 106.278 379.415C103.164 379.761 101.78 382.703 101.087 383.049C101.001 383.049 103.596 385.903 106.624 386.249Z" fill="url(#paint35_linear_3385_66349)" stroke="#263238" stroke-miterlimit="10" stroke-linecap="round" stroke-linejoin="round"/>
<path d="M94.5995 284.951L89.4957 282.355" stroke="#636363" stroke-miterlimit="10" stroke-linecap="round" stroke-linejoin="round"/>
<path d="M105.326 165.832C105.326 165.832 106.624 163.756 107.056 166.438C107.489 169.119 106.451 172.147 104.98 173.185C103.51 174.223 102.904 173.185 102.904 172.147C102.818 171.109 105.326 165.832 105.326 165.832Z" fill="white" stroke="#263238" stroke-miterlimit="10" stroke-linecap="round" stroke-linejoin="round"/>
<path d="M80.5855 166.87C80.5855 166.87 78.2499 166.265 78.2499 168.773C78.2499 171.282 81.6236 174.915 83.0942 174.05C84.6513 173.272 80.5855 166.87 80.5855 166.87Z" fill="white" stroke="#263238" stroke-miterlimit="10" stroke-linecap="round" stroke-linejoin="round"/>
<path d="M92.8694 142.216C92.8694 142.216 89.5822 147.666 86.1219 149.223C81.7101 151.126 78.0769 156.835 78.3364 161.42C78.5094 166.091 85.2569 181.23 86.3814 181.663C87.4195 182.095 100.741 181.057 101.174 180.365C101.606 179.759 103.51 173.358 105.153 167.303C106.883 161.161 106.883 158.046 106.883 158.046C106.883 158.046 107.748 155.711 107.748 151.904C107.748 148.098 104.98 145.157 104.98 145.157L102.472 148.358L103.337 141.178C103.337 141.178 100.568 140.745 98.2328 142.216C95.8971 143.686 94.2535 145.763 94.2535 145.763L92.8694 142.216Z" fill="#263238" stroke="#263238" stroke-miterlimit="10" stroke-linecap="round" stroke-linejoin="round"/>
<path d="M166.919 147.925C166.573 146.974 165.621 146.974 164.842 144.984C164.064 142.908 161.901 143.427 161.209 143.081C160.604 142.735 160.604 142.475 160.863 141.524C161.209 140.572 161.988 137.458 160.517 137.458C159.133 137.458 158.008 140.745 157.662 141.524C157.316 142.302 154.808 145.59 154.808 145.59C154.808 145.59 153.51 145.936 152.732 145.936C151.953 145.936 151.001 147.493 150.828 148.271C150.742 148.79 151.52 150.347 152.04 151.472C152.386 152.856 152.991 154.24 152.991 154.24C152.991 154.24 153.77 155.365 156.105 155.019C158.441 154.673 162.853 157.873 163.458 157.354C164.064 156.922 165.534 154.067 166.14 152.51C167.092 150.866 167.265 148.877 166.919 147.925Z" fill="white" stroke="#263238" stroke-miterlimit="10" stroke-linecap="round" stroke-linejoin="round"/>
<path d="M65.3605 279.155C65.3605 279.155 68.2152 283.48 68.3882 285.124C68.5612 286.767 68.5612 289.968 68.6477 291.006C68.8207 292.044 68.2152 292.823 67.4366 292.823C66.6581 292.823 66.2255 292.044 66.2255 292.044C66.2255 292.044 66.3985 293.515 66.6581 294.639C66.9176 295.677 68.6477 296.629 68.4747 297.667C68.3017 298.705 66.6581 299.138 64.4089 299.138C62.1598 299.138 59.4781 297.927 58.094 294.812C56.7099 291.698 55.4123 282.615 55.4123 280.971C55.4123 279.328 63.8899 277.944 65.3605 279.155Z" fill="white" stroke="#263238" stroke-miterlimit="10" stroke-linecap="round" stroke-linejoin="round"/>
<path d="M62.2463 284.691C62.2463 284.691 62.8518 286.075 61.6407 288.151C60.4296 290.228 59.8241 291.785 59.8241 292.217C59.8241 292.65 60.6026 294.034 61.2082 295.245C61.8137 296.456 63.8034 296.283 63.8899 297.321C64.0629 298.359 63.6304 298.965 63.6304 298.965" stroke="#263238" stroke-miterlimit="10" stroke-linecap="round" stroke-linejoin="round"/>
<path d="M64.0629 291.093C64.0629 291.093 64.2359 293.082 64.8414 294.553C65.447 296.024 68.5612 296.975 67.4366 298.619" stroke="#263238" stroke-miterlimit="10" stroke-linecap="round" stroke-linejoin="round"/>
<path d="M62.2463 291.785C62.2463 291.785 62.5058 293.774 63.0248 294.639C63.4573 295.504 66.4851 296.456 65.8795 298.878" stroke="#263238" stroke-miterlimit="10" stroke-linecap="round" stroke-linejoin="round"/>
<path d="M66.2255 292.044C66.2255 292.044 65.966 289.622 65.793 288.757C65.62 287.892 65.62 286.162 65.62 286.162" stroke="#263238" stroke-miterlimit="10" stroke-linecap="round" stroke-linejoin="round"/>
<path d="M115.534 187.026C115.534 187.026 110.43 182.614 102.039 180.884C93.5614 179.154 82.4022 181.922 77.9904 184.863C73.5785 187.804 73.146 192.908 73.146 192.908L115.534 187.026Z" fill="white" stroke="#263238" stroke-miterlimit="10" stroke-linecap="round" stroke-linejoin="round"/>
<path d="M150.309 161.247C150.309 161.247 149.877 159.517 150.309 158.738C150.742 157.873 150.915 155.365 151.607 154.759C152.213 154.153 156.884 151.558 160.258 153.029C163.631 154.499 165.361 160.814 165.967 162.285C166.573 163.756 164.669 167.129 163.891 167.562C163.026 167.994 162.161 165.053 161.382 164.188C160.517 163.323 153.337 159.949 150.309 161.247Z" fill="white" stroke="#263238" stroke-miterlimit="10" stroke-linecap="round" stroke-linejoin="round"/>
<path d="M94.5995 186.593C93.7344 186.766 77.7308 188.929 70.5508 191.005C63.3708 193.081 57.4884 195.849 57.2289 198.617C57.0559 201.386 51.1735 252.511 50.914 255.452C50.741 258.393 52.8171 275.521 53.8552 276.127C54.8933 276.732 59.7376 277.165 61.4677 276.559C63.1978 275.954 64.2359 274.656 64.2359 274.656L64.8414 260.556C64.8414 260.556 65.274 265.4 66.139 265.66C67.0041 265.833 80.2395 269.898 98.4058 268.428C116.572 266.957 124.185 264.189 125.655 263.151C127.126 262.113 126.953 258.912 126.953 258.912C126.953 258.912 127.126 256.577 127.126 254.241C127.126 251.905 120.292 205.192 120.292 205.192C120.292 205.192 148.147 197.579 150.223 195.071C152.299 192.562 162.42 164.88 162.42 162.804C162.42 160.728 157.749 157.527 154.375 157.354C151.001 157.181 142.783 173.79 140.88 175.088C138.977 176.385 120.811 183.565 114.063 184.777C107.489 185.901 94.5995 186.593 94.5995 186.593Z" fill="url(#paint36_linear_3385_66349)" stroke="#263238" stroke-miterlimit="10" stroke-linecap="round" stroke-linejoin="round"/>
<path d="M87.9385 200.867C87.9385 200.867 90.7932 212.112 99.1843 216.697" stroke="#263238" stroke-miterlimit="10" stroke-linecap="round" stroke-linejoin="round"/>
<path d="M100.309 221.715C100.914 222.061 101.606 222.407 102.212 222.666" stroke="#263238" stroke-miterlimit="10" stroke-linecap="round" stroke-linejoin="round"/>
<path d="M87.9385 212.545C87.9385 212.545 91.4853 216.351 97.1947 219.984" stroke="#263238" stroke-miterlimit="10" stroke-linecap="round" stroke-linejoin="round"/>
<path d="M121.503 213.67L120.378 205.106L109.998 208.912L114.063 210.556C112.074 212.286 109.565 214.708 111.122 214.448C112.506 214.189 115.188 212.891 117.091 211.853L121.503 213.67Z" fill="#263238" stroke="#263238" stroke-miterlimit="10" stroke-linecap="round" stroke-linejoin="round"/>
<path d="M63.0248 254.328C63.0248 250.521 64.8414 211.853 64.8414 211.853L64.2359 209.085L59.5646 201.646L62.0733 216.092C60.0836 215.486 56.1043 214.448 57.5749 216.438C58.8725 218.168 60.9487 219.985 62.3328 221.023L60.9487 249.656C60.8622 252.079 61.3812 254.414 62.5923 256.49L64.0629 258.999C63.5439 257.874 63.0248 256.317 63.0248 254.328Z" fill="#263238" stroke="#263238" stroke-miterlimit="10" stroke-linecap="round" stroke-linejoin="round"/>
<path d="M64.0629 258.912C64.4954 259.864 64.9279 260.469 64.9279 260.469L64.0629 258.912Z" fill="#263238" stroke="#263238" stroke-miterlimit="10" stroke-linecap="round" stroke-linejoin="round"/>
<path d="M126.088 257.701C93.821 272.234 64.9279 260.469 64.9279 260.469C64.9279 260.469 65.3605 265.314 66.2255 265.573C67.0906 265.746 80.326 269.812 98.4923 268.341C116.659 266.871 124.271 264.103 125.742 263.065C127.212 262.027 127.039 258.826 127.039 258.826C127.039 258.826 127.126 258.307 127.126 257.615L126.088 257.701Z" fill="white" stroke="#263238" stroke-miterlimit="10" stroke-linecap="round" stroke-linejoin="round"/>
<path d="M51.606 273.964C51.606 273.964 56.4504 276.041 60.4296 274.83C64.4089 273.532 65.5335 272.321 66.139 272.494C66.7446 272.667 66.7446 277.771 66.139 279.241C65.5335 280.712 64.0629 281.75 59.5646 282.183C55.1528 282.615 52.8171 280.452 52.3846 279.241C52.0385 278.03 51.606 273.964 51.606 273.964Z" fill="white" stroke="#263238" stroke-miterlimit="10" stroke-linecap="round" stroke-linejoin="round"/>
<path d="M34.2183 389.883C51.561 389.883 65.62 385.506 65.62 380.107C65.62 374.709 51.561 370.332 34.2183 370.332C16.8756 370.332 2.81662 374.709 2.81662 380.107C2.81662 385.506 16.8756 389.883 34.2183 389.883Z" fill="url(#paint37_linear_3385_66349)"/>
<path opacity="0.5" d="M34.2183 389.883C51.561 389.883 65.62 385.506 65.62 380.107C65.62 374.709 51.561 370.332 34.2183 370.332C16.8756 370.332 2.81662 374.709 2.81662 380.107C2.81662 385.506 16.8756 389.883 34.2183 389.883Z" fill="white"/>
<path d="M39.1491 158.998C39.1491 158.998 41.7443 162.112 41.5713 163.323C41.3983 164.534 41.9173 166.524 42.5229 167.303C43.1284 168.081 44.8585 168.687 44.8585 170.071C44.8585 171.455 43.907 172.666 43.907 172.666C43.907 172.666 44.5125 178.808 43.907 180.365C43.3014 181.922 40.7928 181.922 39.4087 181.922C38.0246 181.922 37.246 181.749 36.8135 181.749C36.381 181.749 33.6128 179.327 31.4501 173.877C29.2875 168.514 31.7961 160.469 33.6128 159.431C35.4294 158.393 39.1491 158.998 39.1491 158.998Z" fill="white" stroke="#263238" stroke-miterlimit="10" stroke-linecap="round" stroke-linejoin="round"/>
<path d="M38.0246 168.341L44.3395 164.794" stroke="#263238" stroke-miterlimit="10" stroke-linecap="round" stroke-linejoin="round"/>
<path d="M41.5713 164.189C41.5713 164.189 44.945 163.237 43.734 168.168" stroke="#263238" stroke-miterlimit="10" stroke-linecap="round" stroke-linejoin="round"/>
<path d="M32.4017 186.594L31.4501 198.099L19.2528 195.244V186.161C19.2528 186.161 27.8169 184.258 32.4017 186.594Z" fill="white" stroke="#263238" stroke-miterlimit="10" stroke-linecap="round" stroke-linejoin="round"/>
<path d="M31.1041 153.808C31.1041 153.808 27.8169 154.759 24.1836 154.24C20.6369 153.808 12.7648 154.673 10.6022 159.95C8.43951 165.14 11.0347 169.898 10.8617 171.369C10.6022 172.753 6.7959 174.915 6.7959 177.078C6.7959 179.241 8.43951 181.144 7.74746 182.787C7.05541 184.431 5.84433 185.902 6.7959 187.545C7.74746 189.189 11.5537 186.334 11.9863 187.978C12.4188 189.621 16.052 191.784 17.6957 191.784C19.3393 191.784 21.2424 188.237 22.194 189.621C23.1455 191.005 25.0487 192.476 26.9518 192.217C28.8549 191.957 29.8065 187.632 33.8723 189.362C37.8516 191.092 39.2357 187.459 39.0626 184.171C38.8896 181.057 35.2564 176.818 35.9484 174.396C36.6405 172.061 38.1111 170.33 37.592 167.735C37.073 165.14 34.9969 164.189 36.2079 162.285C37.419 160.382 39.0626 160.382 39.4952 158.047C39.9277 155.711 39.0626 152.597 35.4294 152.078C32.0557 151.732 31.1041 153.808 31.1041 153.808Z" fill="white" stroke="#263238" stroke-miterlimit="10" stroke-linecap="round" stroke-linejoin="round"/>
<path d="M9.7371 275.176C9.7371 275.176 13.1108 294.294 11.3807 312.633C10.6887 319.986 7.05541 321.975 6.10385 331.751C5.15228 341.526 8.52602 361.336 6.7959 371.889C6.53638 373.36 4.89277 376.907 6.7959 378.81C8.69903 380.713 15.36 379.502 17.2631 379.502C19.1663 379.502 23.7511 378.81 24.1836 377.599C24.7026 376.388 21.3289 375.177 19.1663 371.111C17.0036 367.045 15.36 361.595 15.36 356.059C15.36 350.609 18.7337 335.038 21.3289 322.408C23.9241 309.778 25.3947 302.858 25.3947 295.678C25.3947 288.498 25.3947 274.397 25.3947 273.273C25.3947 272.061 18.9067 269.207 13.8894 270.158C8.95855 271.11 9.7371 275.176 9.7371 275.176Z" fill="white" stroke="#263238" stroke-miterlimit="10" stroke-linecap="round" stroke-linejoin="round"/>
<path d="M19.2528 371.198C18.9067 370.506 18.5607 369.727 18.2147 368.948C17.6091 370.246 17.3496 371.803 16.1385 372.149C13.9759 372.668 6.7959 371.89 6.7959 371.89C6.53638 373.36 4.89277 376.907 6.7959 378.81C8.69903 380.713 15.36 379.502 17.2631 379.502C19.1663 379.502 23.7511 378.81 24.1836 377.599C24.7892 376.475 21.4154 375.263 19.2528 371.198Z" fill="#263238" stroke="#263238" stroke-miterlimit="10" stroke-linecap="round" stroke-linejoin="round"/>
<path d="M15.9655 361.595C15.6195 359.779 15.4465 357.962 15.4465 356.145C15.4465 350.696 18.8202 335.125 21.4154 322.495C24.0106 309.865 25.4812 302.944 25.4812 295.764C25.4812 288.584 25.4812 274.484 25.4812 273.359C25.4812 272.148 18.9932 269.293 13.9759 270.245C8.95855 271.197 9.6506 275.262 9.6506 275.262C9.6506 275.262 13.0243 294.38 11.2942 312.719C10.6022 320.072 6.96891 322.062 6.01734 331.837C5.3253 338.931 6.8824 351.388 7.14192 361.595C9.39108 362.114 12.4188 362.46 15.9655 361.595Z" fill="url(#paint38_linear_3385_66349)" stroke="#263238" stroke-miterlimit="10" stroke-linecap="round" stroke-linejoin="round"/>
<path d="M6.62289 357.097C6.62289 357.097 10.1696 357.789 12.0728 357.789C13.9759 357.789 16.5711 356.838 16.5711 356.838L17.2631 363.066C17.2631 363.066 13.1974 364.277 10.6022 364.277C8.00699 364.277 7.05542 363.758 7.05542 363.758C7.05542 363.758 6.62289 359 6.62289 357.097Z" fill="white" stroke="#263238" stroke-miterlimit="10" stroke-linecap="round" stroke-linejoin="round"/>
<path d="M7.05542 257.529C7.05542 257.529 5.58482 267.044 7.05542 271.889C8.52602 276.646 12.3323 283.394 13.2839 285.297C14.2354 287.2 15.4465 293.169 15.4465 294.38C15.4465 295.591 16.3981 309.692 14.9275 316.785C13.4569 323.965 11.8132 328.031 11.8132 334.951C11.8132 341.872 15.187 367.737 15.187 372.236C15.187 376.734 13.5434 382.53 14.6679 383.741C15.879 384.952 36.381 382.53 38.2841 381.751C40.1872 381.059 40.1872 378.897 39.4952 377.945C38.8031 376.993 30.1525 374.139 28.7684 373.014C27.2978 371.803 26.3463 367.997 26.1732 366.353C25.9137 364.71 26.6923 339.104 27.6439 333.308C28.5954 327.598 32.4017 316.353 34.5643 310.124C36.727 303.896 40.5332 281.923 40.5332 274.051C40.5332 266.179 39.8412 259.951 39.8412 259.951C39.8412 259.951 17.6092 261.594 7.05542 257.529Z" fill="white" stroke="#263238" stroke-miterlimit="10" stroke-linecap="round" stroke-linejoin="round"/>
<path d="M38.3706 381.751C40.2737 381.059 40.2737 378.896 39.5817 377.945C38.8896 376.993 30.239 374.139 28.8549 373.014C28.6819 372.841 28.4224 372.582 28.2494 372.322L27.6438 376.128C27.6438 376.128 25.4812 378.031 22.367 378.031C19.9448 378.031 16.4846 376.474 14.9275 375.782C14.4949 379.416 13.6299 383.049 14.6679 383.741C19.5988 387.374 36.4675 382.443 38.3706 381.751Z" fill="#263238" stroke="#263238" stroke-miterlimit="10" stroke-linecap="round" stroke-linejoin="round"/>
<path d="M26.1732 365.315C26.0867 360.73 26.7788 338.412 27.6438 333.221C28.5954 327.512 32.4017 316.266 34.5643 310.038C36.727 303.809 40.5332 281.837 40.5332 273.965C40.5332 266.093 39.8412 259.864 39.8412 259.864C39.8412 259.864 17.6091 261.508 7.14192 257.442C7.14192 257.442 5.67132 266.958 7.14192 271.802C8.61252 276.56 12.4188 283.307 13.3704 285.21C14.3219 287.113 15.533 293.082 15.533 294.293C15.533 295.505 16.4846 309.605 15.014 316.699C13.5434 323.879 11.8998 327.944 11.8998 334.865C11.8998 339.796 13.5434 355.713 14.5814 364.363C16.9171 364.969 20.2908 365.661 22.886 365.661C24.0106 365.747 25.1352 365.574 26.1732 365.315Z" fill="url(#paint39_linear_3385_66349)" stroke="#263238" stroke-miterlimit="10" stroke-linecap="round" stroke-linejoin="round"/>
<path d="M14.4949 367.478C14.4949 367.478 16.6576 368.429 19.5123 368.429C22.367 368.429 26.6923 369.121 26.4328 367.737C26.1732 366.267 26.6923 361.509 26.6923 361.509C26.6923 361.509 21.4154 362.201 18.3012 361.768C15.187 361.249 13.2839 361.076 13.2839 361.076C13.2839 361.076 13.8029 366.007 14.4949 367.478Z" fill="white" stroke="#263238" stroke-miterlimit="10" stroke-linecap="round" stroke-linejoin="round"/>
<path d="M34.0453 200.694C34.0453 200.694 30.6716 195.936 24.2701 194.206C17.7822 192.562 11.6402 202.078 9.91011 207.355C8.2665 212.632 8.00698 226.732 5.58481 233.826C3.16264 241.006 1.51903 255.279 2.4706 257.009C3.42216 258.653 23.9241 263.93 31.1041 263.93C38.2841 263.93 45.8966 258.221 46.1561 255.366C46.4157 252.511 44.945 233.393 43.734 223.099C42.6959 212.891 34.0453 200.694 34.0453 200.694Z" fill="#263238" stroke="#263238" stroke-miterlimit="10" stroke-linecap="round" stroke-linejoin="round"/>
<path d="M30.8446 280.107C30.8446 280.107 30.7581 283.394 30.8446 285.383C30.9311 287.287 30.4985 289.363 30.1525 290.66C29.8065 291.958 28.7684 292.823 28.6819 291.958C28.5954 291.093 29.0279 289.449 29.0279 288.757C29.0279 288.065 28.7684 284.691 28.7684 284.691C28.7684 284.691 28.5089 286.421 28.0764 288.238C27.5573 290.141 26.1732 292.044 25.5677 292.217C24.9622 292.39 24.5296 291.785 24.8757 290.92C25.2217 290.055 26.0002 287.46 26.0867 286.854C26.1732 286.248 26.1732 284.518 26.1732 284.518C26.1732 284.518 24.6161 288.93 24.0106 289.968C23.4051 290.92 23.3185 291.439 22.6265 291.525C22.021 291.612 22.021 290.228 22.4535 289.19C22.886 288.152 23.4916 284.778 23.4916 284.432C23.4916 284.086 22.7995 285.902 21.8479 286.854C20.9829 287.806 20.2908 288.671 19.9448 288.498C19.5123 288.325 20.1178 286.767 20.4638 286.075C20.8099 285.383 21.2424 283.913 21.2424 283.394C21.2424 282.875 21.2424 281.318 21.2424 281.318C21.2424 281.318 20.5504 279.674 23.9241 279.155C27.2113 278.376 30.1525 277.771 30.8446 280.107Z" fill="white" stroke="#263238" stroke-miterlimit="10" stroke-linecap="round" stroke-linejoin="round"/>
<path d="M18.9932 277.857C18.9932 277.857 18.2147 280.02 20.0313 281.231C21.8479 282.442 28.1629 283.394 30.239 281.491C32.3152 279.587 32.3152 277.684 32.3152 277.684L18.9932 277.857Z" fill="white" stroke="#263238" stroke-miterlimit="10" stroke-linecap="round" stroke-linejoin="round"/>
<path d="M20.8964 203.549C20.8964 203.549 15.6195 212.113 15.6195 217.649C15.6195 223.099 12.7648 261.594 12.5053 266.352C12.2458 271.11 12.7648 274.916 15.6195 277.338C18.4742 279.761 30.1525 279.761 33.2667 278.55C36.381 277.338 39.2357 271.889 39.2357 268.082C39.2357 264.276 35.6889 236.075 34.9104 230.625C34.2183 225.175 33.9588 210.556 31.7961 207.182C29.6335 203.808 28.9414 203.635 28.9414 203.635" fill="#263238"/>
<path d="M20.8964 203.549C20.8964 203.549 15.6195 212.113 15.6195 217.649C15.6195 223.099 12.7648 261.594 12.5053 266.352C12.2458 271.11 12.7648 274.916 15.6195 277.338C18.4742 279.761 30.1525 279.761 33.2667 278.55C36.381 277.338 39.2357 271.889 39.2357 268.082C39.2357 264.276 35.6889 236.075 34.9104 230.625C34.2183 225.175 33.9588 210.556 31.7961 207.182C29.6335 203.808 28.9414 203.635 28.9414 203.635" stroke="#263238" stroke-miterlimit="10" stroke-linecap="round" stroke-linejoin="round"/>
<path d="M13.1108 257.701C13.1108 257.701 14.5814 224.397 15.706 217.649C16.8306 210.902 19.5988 205.279 19.5988 205.279" stroke="#636363" stroke-miterlimit="10" stroke-linecap="round" stroke-linejoin="round"/>
<path d="M30.412 205.625C30.412 205.625 34.5643 213.584 34.7373 222.061C34.9969 230.539 37.8516 257.702 37.8516 257.702" stroke="#636363" stroke-miterlimit="10" stroke-linecap="round" stroke-linejoin="round"/>
<path d="M33.7858 213.843L34.5643 209.085" stroke="#636363" stroke-miterlimit="10" stroke-linecap="round" stroke-linejoin="round"/>
<defs>
<linearGradient id="paint0_linear_3385_66349" x1="20.1178" y1="109.214" x2="300.733" y2="109.214" gradientUnits="userSpaceOnUse">
<stop stop-color="#43D9BB"/>
<stop offset="1" stop-color="#0299ED"/>
</linearGradient>
<linearGradient id="paint1_linear_3385_66349" x1="32.1421" y1="40.3998" x2="66.4225" y2="40.3998" gradientUnits="userSpaceOnUse">
<stop stop-color="#43D9BB"/>
<stop offset="1" stop-color="#0299ED"/>
</linearGradient>
<linearGradient id="paint2_linear_3385_66349" x1="32.2286" y1="57.5265" x2="85.9199" y2="57.5265" gradientUnits="userSpaceOnUse">
<stop stop-color="#43D9BB"/>
<stop offset="1" stop-color="#0299ED"/>
</linearGradient>
<linearGradient id="paint3_linear_3385_66349" x1="32.1421" y1="74.9562" x2="99.5309" y2="74.9562" gradientUnits="userSpaceOnUse">
<stop stop-color="#43D9BB"/>
<stop offset="1" stop-color="#0299ED"/>
</linearGradient>
<linearGradient id="paint4_linear_3385_66349" x1="32.1421" y1="92.5182" x2="116.673" y2="92.5182" gradientUnits="userSpaceOnUse">
<stop stop-color="#43D9BB"/>
<stop offset="1" stop-color="#0299ED"/>
</linearGradient>
<linearGradient id="paint5_linear_3385_66349" x1="133.873" y1="37.5437" x2="151.821" y2="37.5437" gradientUnits="userSpaceOnUse">
<stop stop-color="#43D9BB"/>
<stop offset="1" stop-color="#0299ED"/>
</linearGradient>
<linearGradient id="paint6_linear_3385_66349" x1="133.873" y1="55.71" x2="151.821" y2="55.71" gradientUnits="userSpaceOnUse">
<stop stop-color="#43D9BB"/>
<stop offset="1" stop-color="#0299ED"/>
</linearGradient>
<linearGradient id="paint7_linear_3385_66349" x1="133.873" y1="73.9194" x2="151.821" y2="73.9194" gradientUnits="userSpaceOnUse">
<stop stop-color="#43D9BB"/>
<stop offset="1" stop-color="#0299ED"/>
</linearGradient>
<linearGradient id="paint8_linear_3385_66349" x1="133.873" y1="92.1291" x2="151.821" y2="92.1291" gradientUnits="userSpaceOnUse">
<stop stop-color="#43D9BB"/>
<stop offset="1" stop-color="#0299ED"/>
</linearGradient>
<linearGradient id="paint9_linear_3385_66349" x1="165.794" y1="103.548" x2="274.568" y2="103.548" gradientUnits="userSpaceOnUse">
<stop stop-color="#43D9BB"/>
<stop offset="1" stop-color="#0299ED"/>
</linearGradient>
<linearGradient id="paint10_linear_3385_66349" x1="51.6925" y1="152.726" x2="61.9473" y2="152.726" gradientUnits="userSpaceOnUse">
<stop stop-color="#43D9BB"/>
<stop offset="1" stop-color="#0299ED"/>
</linearGradient>
<linearGradient id="paint11_linear_3385_66349" x1="85.8624" y1="142.129" x2="96.4102" y2="142.129" gradientUnits="userSpaceOnUse">
<stop stop-color="#43D9BB"/>
<stop offset="1" stop-color="#0299ED"/>
</linearGradient>
<linearGradient id="paint12_linear_3385_66349" x1="120.984" y1="157.398" x2="131.898" y2="157.398" gradientUnits="userSpaceOnUse">
<stop stop-color="#43D9BB"/>
<stop offset="1" stop-color="#0299ED"/>
</linearGradient>
<linearGradient id="paint13_linear_3385_66349" x1="304.117" y1="130.97" x2="318.401" y2="130.97" gradientUnits="userSpaceOnUse">
<stop stop-color="#43D9BB"/>
<stop offset="1" stop-color="#0299ED"/>
</linearGradient>
<linearGradient id="paint14_linear_3385_66349" x1="304.117" y1="148.488" x2="325.579" y2="148.488" gradientUnits="userSpaceOnUse">
<stop stop-color="#43D9BB"/>
<stop offset="1" stop-color="#0299ED"/>
</linearGradient>
<linearGradient id="paint15_linear_3385_66349" x1="304.117" y1="165.962" x2="325.579" y2="165.962" gradientUnits="userSpaceOnUse">
<stop stop-color="#43D9BB"/>
<stop offset="1" stop-color="#0299ED"/>
</linearGradient>
<linearGradient id="paint16_linear_3385_66349" x1="304.117" y1="183.177" x2="313.053" y2="183.177" gradientUnits="userSpaceOnUse">
<stop stop-color="#43D9BB"/>
<stop offset="1" stop-color="#0299ED"/>
</linearGradient>
<linearGradient id="paint17_linear_3385_66349" x1="168.562" y1="149.352" x2="184.384" y2="149.352" gradientUnits="userSpaceOnUse">
<stop stop-color="#43D9BB"/>
<stop offset="1" stop-color="#0299ED"/>
</linearGradient>
<linearGradient id="paint18_linear_3385_66349" x1="211.988" y1="150.134" x2="243.558" y2="150.134" gradientUnits="userSpaceOnUse">
<stop stop-color="#43D9BB"/>
<stop offset="1" stop-color="#0299ED"/>
</linearGradient>
<linearGradient id="paint19_linear_3385_66349" x1="256.971" y1="150.823" x2="274.038" y2="150.823" gradientUnits="userSpaceOnUse">
<stop stop-color="#43D9BB"/>
<stop offset="1" stop-color="#0299ED"/>
</linearGradient>
<linearGradient id="paint20_linear_3385_66349" x1="185.604" y1="45.7183" x2="191.464" y2="45.7183" gradientUnits="userSpaceOnUse">
<stop stop-color="#43D9BB"/>
<stop offset="1" stop-color="#0299ED"/>
</linearGradient>
<linearGradient id="paint21_linear_3385_66349" x1="194.687" y1="60.7706" x2="197.47" y2="60.7706" gradientUnits="userSpaceOnUse">
<stop stop-color="#43D9BB"/>
<stop offset="1" stop-color="#0299ED"/>
</linearGradient>
<linearGradient id="paint22_linear_3385_66349" x1="225.483" y1="59.7323" x2="235.591" y2="59.7323" gradientUnits="userSpaceOnUse">
<stop stop-color="#43D9BB"/>
<stop offset="1" stop-color="#0299ED"/>
</linearGradient>
<linearGradient id="paint23_linear_3385_66349" x1="243.995" y1="36.633" x2="248.39" y2="36.633" gradientUnits="userSpaceOnUse">
<stop stop-color="#43D9BB"/>
<stop offset="1" stop-color="#0299ED"/>
</linearGradient>
<linearGradient id="paint24_linear_3385_66349" x1="249.532" y1="51.988" x2="254.513" y2="51.988" gradientUnits="userSpaceOnUse">
<stop stop-color="#43D9BB"/>
<stop offset="1" stop-color="#0299ED"/>
</linearGradient>
<linearGradient id="paint25_linear_3385_66349" x1="262.681" y1="34.4271" x2="266.929" y2="34.4271" gradientUnits="userSpaceOnUse">
<stop stop-color="#43D9BB"/>
<stop offset="1" stop-color="#0299ED"/>
</linearGradient>
<linearGradient id="paint26_linear_3385_66349" x1="234.22" y1="384.606" x2="273.042" y2="384.606" gradientUnits="userSpaceOnUse">
<stop stop-color="#43D9BB"/>
<stop offset="1" stop-color="#0299ED"/>
</linearGradient>
<linearGradient id="paint27_linear_3385_66349" x1="217.382" y1="268.398" x2="245.586" y2="268.398" gradientUnits="userSpaceOnUse">
<stop stop-color="#43D9BB"/>
<stop offset="1" stop-color="#0299ED"/>
</linearGradient>
<linearGradient id="paint28_linear_3385_66349" x1="250.772" y1="281.919" x2="273.382" y2="281.919" gradientUnits="userSpaceOnUse">
<stop stop-color="#43D9BB"/>
<stop offset="1" stop-color="#0299ED"/>
</linearGradient>
<linearGradient id="paint29_linear_3385_66349" x1="224.76" y1="317.822" x2="243.655" y2="317.822" gradientUnits="userSpaceOnUse">
<stop stop-color="#43D9BB"/>
<stop offset="1" stop-color="#0299ED"/>
</linearGradient>
<linearGradient id="paint30_linear_3385_66349" x1="258.893" y1="312.311" x2="283.635" y2="312.311" gradientUnits="userSpaceOnUse">
<stop stop-color="#43D9BB"/>
<stop offset="1" stop-color="#0299ED"/>
</linearGradient>
<linearGradient id="paint31_linear_3385_66349" x1="70.6373" y1="391.526" x2="131.141" y2="391.526" gradientUnits="userSpaceOnUse">
<stop stop-color="#43D9BB"/>
<stop offset="1" stop-color="#0299ED"/>
</linearGradient>
<linearGradient id="paint32_linear_3385_66349" x1="70.2913" y1="392.609" x2="83.7691" y2="392.609" gradientUnits="userSpaceOnUse">
<stop stop-color="#43D9BB"/>
<stop offset="1" stop-color="#0299ED"/>
</linearGradient>
<linearGradient id="paint33_linear_3385_66349" x1="70.6373" y1="381.794" x2="77.889" y2="381.794" gradientUnits="userSpaceOnUse">
<stop stop-color="#43D9BB"/>
<stop offset="1" stop-color="#0299ED"/>
</linearGradient>
<linearGradient id="paint34_linear_3385_66349" x1="99.7034" y1="392.621" x2="115.653" y2="392.621" gradientUnits="userSpaceOnUse">
<stop stop-color="#43D9BB"/>
<stop offset="1" stop-color="#0299ED"/>
</linearGradient>
<linearGradient id="paint35_linear_3385_66349" x1="101.085" y1="382.834" x2="110.463" y2="382.834" gradientUnits="userSpaceOnUse">
<stop stop-color="#43D9BB"/>
<stop offset="1" stop-color="#0299ED"/>
</linearGradient>
<linearGradient id="paint36_linear_3385_66349" x1="50.9038" y1="217.102" x2="145.33" y2="217.102" gradientUnits="userSpaceOnUse">
<stop stop-color="#43D9BB"/>
<stop offset="1" stop-color="#0299ED"/>
</linearGradient>
<linearGradient id="paint37_linear_3385_66349" x1="2.81662" y1="380.107" x2="55.9952" y2="380.107" gradientUnits="userSpaceOnUse">
<stop stop-color="#43D9BB"/>
<stop offset="1" stop-color="#0299ED"/>
</linearGradient>
<linearGradient id="paint38_linear_3385_66349" x1="5.84157" y1="316.088" x2="22.4714" y2="316.088" gradientUnits="userSpaceOnUse">
<stop stop-color="#43D9BB"/>
<stop offset="1" stop-color="#0299ED"/>
</linearGradient>
<linearGradient id="paint39_linear_3385_66349" x1="6.48832" y1="311.563" x2="35.3157" y2="311.563" gradientUnits="userSpaceOnUse">
<stop stop-color="#43D9BB"/>
<stop offset="1" stop-color="#0299ED"/>
</linearGradient>
</defs>
</svg>
