<svg width="88" height="87" viewBox="0 0 88 87" fill="none" xmlns="http://www.w3.org/2000/svg">
<path d="M75.0883 60.8319V55.4172C75.0861 53.6255 74.3734 51.9078 73.1065 50.6408C71.8395 49.3739 70.1218 48.6612 68.3301 48.659H56.9519C58.203 46.3511 59.2122 43.9201 59.9634 41.4048L65.0996 37.2944C65.898 36.657 66.4816 35.7901 66.7718 34.8106C67.062 33.8311 67.0447 32.7861 66.7223 31.8168C66.3999 30.8474 65.7879 30.0002 64.9689 29.3896C64.1499 28.779 63.1633 28.4343 62.1422 28.402L65.1537 20.1218C65.9221 18.0087 66.1698 15.7415 65.8759 13.5122C65.5819 11.283 64.755 9.15752 63.4651 7.31578C62.1752 5.47405 60.4604 3.97038 58.4659 2.93215C56.4715 1.89393 54.2561 1.35175 52.0076 1.35156H40.5322C31.9456 1.34942 23.5316 3.76253 16.2513 8.31522C16.0326 8.45072 15.857 8.64584 15.7454 8.87765C15.6337 9.10946 15.5905 9.36833 15.6209 9.62384C15.6513 9.87935 15.7539 10.1209 15.9168 10.32C16.0798 10.5192 16.2961 10.6677 16.5405 10.7482L19.7994 11.8295C20.2479 11.9791 20.6611 12.2188 21.0137 12.5338C21.3663 12.8489 21.6508 13.2326 21.8497 13.6616C22.0487 14.0905 22.1579 14.5556 22.1707 15.0282C22.1835 15.5009 22.0996 15.9711 21.9241 16.4102C21.6003 17.2196 21.4515 18.0885 21.4876 18.9595C21.5237 19.8306 21.7439 20.6841 22.1336 21.464L25.6182 28.4263C24.6213 28.5057 23.6714 28.8829 22.8917 29.5091C22.112 30.1352 21.5386 30.9813 21.2459 31.9376C20.9533 32.8938 20.9549 33.9159 21.2506 34.8712C21.5463 35.8264 22.1224 36.6707 22.9041 37.2944L28.0403 41.4048C28.7907 43.92 29.7989 46.351 31.0491 48.659H19.671C17.8792 48.6612 16.1615 49.3739 14.8945 50.6408C13.6276 51.9078 12.9149 53.6255 12.9127 55.4172V60.8319C9.71374 62.1683 6.9808 64.4199 5.05703 67.3041C3.13327 70.1883 2.1044 73.5766 2.09961 77.0435V83.8017C2.09961 84.1602 2.24201 84.504 2.4955 84.7575C2.74898 85.0109 3.09277 85.1533 3.45125 85.1533H84.5498C84.9082 85.1533 85.252 85.0109 85.5055 84.7575C85.759 84.504 85.9014 84.1602 85.9014 83.8017V77.0435C85.8966 73.5766 84.8677 70.1883 82.944 67.3041C81.0202 64.4199 78.2873 62.1683 75.0883 60.8319ZM54.8136 28.3844H46.7038C46.3453 28.3844 46.0015 28.5268 45.748 28.7803C45.4945 29.0338 45.3521 29.3776 45.3521 29.736V31.0877H42.6489V29.736C42.6489 29.3776 42.5065 29.0338 42.253 28.7803C41.9995 28.5268 41.6557 28.3844 41.2972 28.3844H29.1324V26.4042L37.5694 20.7801C39.3849 19.5672 41.5197 18.9208 43.7031 18.9229C46.8268 18.9193 49.857 17.8562 52.2982 15.9074L54.5068 14.1408L56.8249 17.6199C58.1595 19.6169 58.8708 21.9654 58.8686 24.3673V28.3844H54.8136ZM53.462 31.0877V35.1426C53.462 35.5011 53.3196 35.8449 53.0661 36.0984C52.8126 36.3518 52.4688 36.4942 52.1104 36.4942H49.4071C49.0486 36.4942 48.7048 36.3518 48.4513 36.0984C48.1978 35.8449 48.0554 35.5011 48.0554 35.1426V31.0877H53.462ZM39.9456 31.0877V35.1426C39.9456 35.5011 39.8032 35.8449 39.5497 36.0984C39.2962 36.3518 38.9524 36.4942 38.5939 36.4942H35.8907C35.5322 36.4942 35.1884 36.3518 34.9349 36.0984C34.6814 35.8449 34.539 35.5011 34.539 35.1426V31.0877H39.9456ZM64.2751 33.3855C64.2758 33.7303 64.1986 34.0708 64.0493 34.3816C63.9 34.6924 63.6824 34.9655 63.4128 35.1805L60.9623 37.1403C61.3195 35.1417 61.5161 33.1177 61.5502 31.0877H61.9773C62.2791 31.0877 62.5779 31.1471 62.8567 31.2626C63.1354 31.3781 63.3888 31.5473 63.6021 31.7607C63.8155 31.9741 63.9847 32.2274 64.1002 32.5061C64.2157 32.7849 64.2751 33.0837 64.2751 33.3855ZM24.4328 17.4145C24.7451 16.6335 24.8945 15.797 24.8719 14.9562C24.8493 14.1155 24.6552 13.2882 24.3015 12.5251C23.9477 11.7621 23.4418 11.0793 22.8148 10.5188C22.1877 9.95826 21.4527 9.53175 20.6549 9.26543L20.2413 9.13026C26.4851 5.79681 33.4543 4.0536 40.5322 4.05485H52.0076C53.8211 4.05519 55.6078 4.49252 57.2164 5.32983C58.8251 6.16713 60.2082 7.37973 61.2488 8.86496C62.2894 10.3502 62.9568 12.0643 63.1944 13.8622C63.432 15.66 63.2329 17.4886 62.614 19.1932L61.4394 22.4237C61.1458 20.1668 60.3364 18.0079 59.074 16.1142L55.9382 11.4091C55.8341 11.2533 55.6988 11.1208 55.5408 11.02C55.3828 10.9193 55.2056 10.8525 55.0204 10.8239C54.8353 10.7959 54.6465 10.8063 54.4656 10.8545C54.2847 10.9026 54.1156 10.9874 53.9689 11.1037L50.61 13.7975C48.6476 15.3623 46.213 16.2161 43.7031 16.2196C40.9857 16.2172 38.3288 17.0216 36.0691 18.5309L27.0306 24.5565C26.9468 24.6134 26.8698 24.6796 26.8009 24.7539L24.5517 20.2543C24.3325 19.8161 24.2086 19.3366 24.1881 18.8471C24.1676 18.3576 24.251 17.8694 24.4328 17.4145ZM24.5896 35.1832C24.2165 34.8862 23.9451 34.4804 23.8129 34.0223C23.6808 33.5641 23.6944 33.0761 23.852 32.6261C24.0096 32.176 24.3034 31.7861 24.6925 31.5105C25.0816 31.2348 25.5468 31.0871 26.0237 31.0877H26.4481C26.4821 33.1186 26.6787 35.1435 27.036 37.143L24.5896 35.1832ZM29.1541 31.0877H31.8357V35.1426C31.8357 36.218 32.2629 37.2494 33.0234 38.0099C33.7838 38.7703 34.8152 39.1975 35.8907 39.1975H38.5939C39.6694 39.1975 40.7008 38.7703 41.4612 38.0099C42.2216 37.2494 42.6489 36.218 42.6489 35.1426V33.791H45.3521V35.1426C45.3521 36.218 45.7794 37.2494 46.5398 38.0099C47.3003 38.7703 48.3316 39.1975 49.4071 39.1975H52.1104C53.1858 39.1975 54.2172 38.7703 54.9776 38.0099C55.7381 37.2494 56.1653 36.218 56.1653 35.1426V31.0877H58.8469C58.742 37.2829 57.0123 43.342 53.831 48.659H34.17C30.9887 43.342 29.259 37.2829 29.1541 31.0877ZM19.671 51.3623H68.3301C69.4055 51.3623 70.4369 51.7895 71.1973 52.55C71.9578 53.3104 72.385 54.3418 72.385 55.4172V82.4501H15.616V55.4172C15.616 54.3418 16.0432 53.3104 16.8037 52.55C17.5641 51.7895 18.5955 51.3623 19.671 51.3623ZM4.80289 77.0435C4.80656 74.3047 5.56554 71.62 6.99635 69.2847C8.42716 66.9494 10.4744 65.0539 12.9127 63.8069V82.4501H4.80289V77.0435ZM83.1981 82.4501H75.0883V63.8069C77.5265 65.0541 79.5737 66.9495 81.0044 69.2848C82.4352 71.6201 83.1943 74.3047 83.1981 77.0435V82.4501Z" fill="white"/>
<path d="M44.0003 78.3952C45.0696 78.3952 46.1149 78.0781 47.004 77.484C47.8932 76.8899 48.5861 76.0455 48.9953 75.0576C49.4045 74.0697 49.5116 72.9826 49.303 71.9338C49.0944 70.8851 48.5795 69.9217 47.8233 69.1656C47.0672 68.4095 46.1039 67.8945 45.0551 67.6859C44.0063 67.4773 42.9192 67.5844 41.9313 67.9936C40.9434 68.4028 40.099 69.0958 39.5049 69.9849C38.9108 70.874 38.5938 71.9193 38.5938 72.9886C38.5938 74.4225 39.1634 75.7977 40.1773 76.8116C41.1912 77.8255 42.5664 78.3952 44.0003 78.3952ZM44.0003 70.2853C44.535 70.2853 45.0576 70.4439 45.5022 70.7409C45.9467 71.0379 46.2932 71.4601 46.4978 71.9541C46.7024 72.4481 46.756 72.9916 46.6517 73.516C46.5474 74.0404 46.2899 74.5221 45.9118 74.9001C45.5338 75.2782 45.0521 75.5356 44.5277 75.6399C44.0033 75.7442 43.4598 75.6907 42.9658 75.4861C42.4719 75.2815 42.0497 74.935 41.7526 74.4905C41.4556 74.0459 41.297 73.5233 41.297 72.9886C41.297 72.2716 41.5818 71.5841 42.0888 71.0771C42.5958 70.5701 43.2834 70.2853 44.0003 70.2853Z" fill="white"/>
<path d="M34.9341 65.8342L36.8454 63.923L32.3944 59.472L36.8454 55.0211L34.9341 53.1099L29.5276 58.5164C29.2742 58.7699 29.1318 59.1136 29.1318 59.472C29.1318 59.8304 29.2742 60.1742 29.5276 60.4277L34.9341 65.8342Z" fill="white"/>
<path d="M53.0655 65.8342L58.4721 60.4277C58.7255 60.1742 58.8678 59.8304 58.8678 59.472C58.8678 59.1136 58.7255 58.7699 58.4721 58.5164L53.0655 53.1099L51.1543 55.0211L55.6053 59.472L51.1543 63.923L53.0655 65.8342Z" fill="white"/>
<path d="M46.9742 53.2548L38.8623 64.0664L41.0246 65.6888L49.1366 54.8772L46.9742 53.2548Z" fill="white"/>
</svg>
