<svg width="46" height="45" viewBox="0 0 46 45" fill="none" xmlns="http://www.w3.org/2000/svg">
<circle cx="23" cy="22.5" r="22" stroke="url(#paint0_linear_4353_91746)"/>
<path d="M12.9995 19.437H31.9995M20.4995 13.437L18.4995 19.437L22.4995 30.937L26.4995 19.437L24.4995 13.437M23.1141 30.6995L32.0727 19.9492C32.2246 19.767 32.3005 19.6759 32.3295 19.5742C32.3551 19.4845 32.3551 19.3895 32.3295 19.2998C32.3005 19.1982 32.2246 19.1071 32.0727 18.9249L27.7394 13.7249C27.6512 13.6191 27.6072 13.5662 27.5531 13.5281C27.5052 13.4944 27.4518 13.4694 27.3953 13.4542C27.3314 13.437 27.2626 13.437 27.1248 13.437H17.8742C17.7365 13.437 17.6676 13.437 17.6038 13.4542C17.5473 13.4694 17.4938 13.4944 17.446 13.5281C17.3919 13.5662 17.3478 13.6191 17.2597 13.7249L12.9263 18.9249C12.7745 19.1071 12.6986 19.1982 12.6696 19.2998C12.644 19.3895 12.644 19.4845 12.6696 19.5742C12.6986 19.6759 12.7745 19.767 12.9263 19.9492L21.885 30.6995C22.096 30.9528 22.2015 31.0794 22.3279 31.1256C22.4387 31.1661 22.5603 31.1661 22.6712 31.1256C22.7975 31.0794 22.9031 30.9528 23.1141 30.6995Z" stroke="white" stroke-linecap="round" stroke-linejoin="round"/>
<defs>
<linearGradient id="paint0_linear_4353_91746" x1="0.5" y1="22.5" x2="38.6036" y2="22.5" gradientUnits="userSpaceOnUse">
<stop stop-color="#43D9BB"/>
<stop offset="1" stop-color="#0299ED"/>
</linearGradient>
</defs>
</svg>
