<svg width="151" height="48" viewBox="0 0 151 48" fill="none" xmlns="http://www.w3.org/2000/svg">
<path d="M24.019 48C37.2739 48 48.019 37.2548 48.019 24C48.019 10.7452 37.2739 0 24.019 0C10.7642 0 0.019043 10.7452 0.019043 24C0.019043 37.2548 10.7642 48 24.019 48Z" fill="url(#paint0_linear_3868_73887)"/>
<path d="M39.1737 22.5327L32.3948 15.7538L32.3825 15.7415L32.3557 15.718C32.3118 15.6784 32.2659 15.641 32.2181 15.6062C32.1846 15.5793 32.151 15.5536 32.1152 15.5301C32.0996 15.519 32.0839 15.51 32.0672 15.4999C31.6807 15.2468 31.2132 15.1483 30.7574 15.2239C30.3017 15.2995 29.891 15.5438 29.607 15.9081L19.0641 26.4521V17.0588C19.0641 16.565 18.8679 16.0914 18.5188 15.7422C18.1696 15.3931 17.696 15.1969 17.2022 15.1969C16.7084 15.1969 16.2348 15.3931 15.8856 15.7422C15.5365 16.0914 15.3403 16.565 15.3403 17.0588V26.4521L11.4913 22.6031C11.1394 22.2676 10.6703 22.0831 10.1842 22.0888C9.69814 22.0946 9.23357 22.2903 8.88982 22.634C8.54607 22.9778 8.35039 23.4424 8.34461 23.9285C8.33883 24.4146 8.52341 24.8837 8.85889 25.2355L15.886 32.2626C15.9302 32.3073 15.9768 32.3495 16.0258 32.389C16.0728 32.427 16.122 32.4639 16.1712 32.5008C16.4251 32.6653 16.7152 32.7655 17.0166 32.7926H17.0244C17.0848 32.7982 17.1452 32.8016 17.2055 32.8016H17.2335C17.2842 32.8016 17.3345 32.7994 17.3845 32.7949H17.4214C17.4695 32.7893 17.5175 32.7837 17.5645 32.7736H17.5858C17.6383 32.7625 17.6909 32.7502 17.7423 32.7345H17.7513C17.8074 32.7176 17.8626 32.6978 17.9168 32.6752C17.9939 32.6433 18.0686 32.606 18.1404 32.5634L18.1829 32.5388C18.2532 32.4958 18.3205 32.448 18.3842 32.3957L18.4032 32.3789C18.4423 32.3453 18.4815 32.3118 18.515 32.2738L29.2055 21.5765V30.9408C29.2055 31.4346 29.4017 31.9082 29.7509 32.2574C30.1 32.6065 30.5736 32.8027 31.0674 32.8027C31.5612 32.8027 32.0348 32.6065 32.384 32.2574C32.7332 31.9082 32.9293 31.4346 32.9293 30.9408V21.5475L36.5413 25.1661C36.8919 25.5084 37.3633 25.6987 37.8533 25.6957C38.3433 25.6926 38.8123 25.4966 39.1587 25.1501C39.5051 24.8035 39.7009 24.3344 39.7037 23.8444C39.7065 23.3545 39.5161 22.8831 39.1737 22.5327Z" fill="white"/>
<path d="M56.4031 18.3972H61.9273V32.8272H65.2362V18.3972H70.7604V15.3063H56.4031V18.3972Z" fill="white"/>
<path d="M78.011 19.6566C77.6193 19.6838 77.2316 19.7531 76.8547 19.8635C76.4918 19.9691 76.1444 20.1221 75.8215 20.3186C75.4153 20.5557 75.0597 20.8703 74.7748 21.2445C74.6404 21.4222 74.5186 21.609 74.4102 21.8037V19.6868H71.4905V32.8274H74.8296V26.1112C74.8207 25.6503 74.8884 25.1912 75.0298 24.7525C75.1578 24.3642 75.3659 24.0072 75.6406 23.7044C75.9152 23.4016 76.2504 23.1598 76.6244 22.9946C77.0354 22.8022 77.4788 22.6884 77.9316 22.6591C78.3591 22.6168 78.7907 22.6547 79.2042 22.771V19.6868C78.8084 19.6377 78.4088 19.6276 78.011 19.6566Z" fill="white"/>
<path d="M91.7599 21.7057C91.3294 20.8588 90.6015 20.2006 89.7157 19.8573C88.8159 19.4994 87.7856 19.3205 86.6249 19.3205C85.0437 19.3205 83.7946 19.6616 82.8776 20.3437C81.9792 20.9984 81.321 21.9305 81.0045 22.9962L83.997 23.9445C84.2087 23.3436 84.5777 22.9261 85.1041 22.692C85.5803 22.468 86.0986 22.3475 86.6249 22.3387C87.5016 22.3387 88.1263 22.5213 88.4991 22.8866C88.7909 23.1718 88.9654 23.5889 89.028 24.1279C88.4689 24.2117 87.9377 24.2911 87.4401 24.3638C86.5895 24.4898 85.8272 24.6218 85.1532 24.7597C84.5625 24.8754 83.981 25.0339 83.4133 25.2338C82.7938 25.4453 82.2214 25.7753 81.728 26.2056C81.3236 26.5711 81.0126 27.0282 80.8211 27.5386C80.6297 28.0729 80.5351 28.6372 80.5416 29.2048C80.5338 29.9045 80.708 30.5943 81.047 31.2064C81.3925 31.8229 81.9075 32.3274 82.5309 32.6602C83.184 33.0217 83.981 33.2021 84.9218 33.2014C86.0579 33.2014 86.9969 33.0046 87.7387 32.611C88.3757 32.2558 88.9393 31.7826 89.3993 31.2165V32.8368H92.2955V24.7955C92.2981 24.2515 92.2735 23.7077 92.2218 23.1662C92.1655 22.6537 92.0085 22.1574 91.7599 21.7057ZM88.6691 28.8357C88.5326 29.0883 88.363 29.3215 88.1647 29.529C87.8799 29.8331 87.5418 30.0825 87.1672 30.2649C86.687 30.4936 86.159 30.6041 85.6274 30.5869C85.2911 30.5952 84.9563 30.5375 84.6422 30.4169C84.3858 30.319 84.1637 30.1479 84.0037 29.9249C83.85 29.6972 83.7717 29.4268 83.78 29.1522C83.7773 28.945 83.8257 28.7402 83.9209 28.5562C84.0281 28.3613 84.1775 28.1928 84.3582 28.063C84.5998 27.8899 84.863 27.7489 85.141 27.6437C85.4632 27.5267 85.7922 27.4292 86.1261 27.3518C86.4989 27.2623 86.9898 27.1628 87.5989 27.0532C87.9869 26.9839 88.4611 26.9011 89.0023 26.8095C88.9956 27.0432 88.9855 27.2948 88.9676 27.5922C88.9498 28.0222 88.8484 28.4445 88.6691 28.8357Z" fill="white"/>
<path d="M107.443 22.8196C107.281 22.2212 107.021 21.6542 106.671 21.1422C106.282 20.5832 105.762 20.1278 105.156 19.816C104.507 19.4678 103.668 19.2938 102.638 19.2938C101.348 19.2938 100.279 19.5733 99.4317 20.1325C99.043 20.3894 98.6892 20.6958 98.3794 21.0438V19.6863H95.4351V32.8269H98.7898V26.1599C98.7898 25.3398 98.8808 24.6826 99.0627 24.1884C99.2446 23.6941 99.4794 23.3191 99.7672 23.0634C100.026 22.8215 100.339 22.6441 100.68 22.5456C100.976 22.4602 101.283 22.415 101.592 22.4115C102.297 22.4115 102.843 22.5699 103.228 22.8867C103.609 23.196 103.898 23.6041 104.062 24.0665C104.229 24.5186 104.331 24.9917 104.367 25.4721C104.399 25.9381 104.415 26.3212 104.415 26.6217V32.8269H107.769V25.4531C107.769 25.2295 107.754 24.8862 107.721 24.4064C107.679 23.8698 107.586 23.3385 107.443 22.8196Z" fill="white"/>
<path d="M119.835 25.8702C119.23 25.5273 118.429 25.2254 117.432 24.9645C116.41 24.705 115.65 24.494 115.151 24.3315C114.652 24.169 114.324 24.011 114.166 23.8574C114.088 23.7839 114.027 23.6949 113.986 23.5963C113.945 23.4977 113.925 23.3916 113.928 23.2848C113.928 22.9035 114.112 22.6139 114.481 22.4092C114.85 22.2046 115.34 22.1263 115.947 22.1666C116.572 22.215 117.067 22.3813 117.432 22.6653C117.612 22.804 117.761 22.9783 117.87 23.1773C117.979 23.3763 118.045 23.5956 118.065 23.8216L121.448 23.2122C121.348 22.4504 121.034 21.7328 120.541 21.1434C120.021 20.5392 119.358 20.0752 118.612 19.7936C117.738 19.4629 116.809 19.3016 115.875 19.3184C114.812 19.3184 113.89 19.4869 113.107 19.8238C112.375 20.1196 111.743 20.6186 111.285 21.2619C110.848 21.9094 110.623 22.677 110.641 23.4582C110.623 24.0598 110.77 24.655 111.066 25.1792C111.35 25.6548 111.813 26.0626 112.454 26.4025C113.095 26.7425 113.952 27.0508 115.026 27.3273C115.974 27.5793 116.673 27.7821 117.124 27.9357C117.571 28.09 117.864 28.2454 117.994 28.4042C118.13 28.5834 118.199 28.8053 118.188 29.0304C118.196 29.2197 118.155 29.4077 118.07 29.5769C117.985 29.7461 117.858 29.8909 117.702 29.9977C117.375 30.2281 116.914 30.3433 116.317 30.3433C115.587 30.3433 114.985 30.1688 114.51 29.8199C114.033 29.4676 113.705 28.9487 113.592 28.3662L110.205 28.8895C110.424 30.2605 111.043 31.3214 112.06 32.0721C113.078 32.8228 114.414 33.1978 116.069 33.1971C117.789 33.1971 119.135 32.8116 120.108 32.0408C121.081 31.2699 121.57 30.2098 121.573 28.8605C121.591 28.252 121.448 27.6496 121.16 27.1137C120.881 26.6322 120.44 26.2177 119.835 25.8702Z" fill="white"/>
<path d="M134.734 21.7057C134.304 20.859 133.576 20.2009 132.69 19.8573C131.79 19.4994 130.759 19.3205 129.599 19.3205C128.018 19.3205 126.769 19.6616 125.852 20.3437C124.954 20.9987 124.295 21.9306 123.978 22.9962L126.971 23.9445C127.183 23.3436 127.552 22.9261 128.078 22.692C128.555 22.468 129.073 22.3475 129.599 22.3387C130.476 22.3387 131.101 22.5213 131.474 22.8866C131.765 23.1718 131.939 23.5889 132.002 24.1279C131.443 24.2117 130.912 24.2911 130.415 24.3638C129.564 24.4898 128.802 24.6218 128.128 24.7597C127.537 24.8754 126.955 25.0339 126.388 25.2338C125.682 25.4948 125.121 25.8172 124.702 26.2011C124.298 26.5666 123.987 27.0237 123.796 27.5341C123.604 28.0683 123.509 28.6326 123.516 29.2003C123.508 29.9 123.682 30.5898 124.021 31.202C124.367 31.8186 124.882 32.3232 125.505 32.6557C126.158 33.0173 126.955 33.1977 127.896 33.1969C129.032 33.1969 129.971 33.0001 130.713 32.6065C131.35 32.2514 131.914 31.7781 132.374 31.212V32.8324H135.27V24.7955C135.273 24.2515 135.248 23.7077 135.196 23.1662C135.14 22.6537 134.983 22.1574 134.734 21.7057ZM131.643 28.8357C131.507 29.0883 131.337 29.3215 131.139 29.529C130.854 29.8331 130.516 30.0825 130.142 30.2649C129.661 30.4936 129.133 30.6041 128.602 30.5869C128.265 30.5952 127.931 30.5375 127.617 30.4169C127.36 30.319 127.138 30.1479 126.978 29.9249C126.824 29.6972 126.746 29.4268 126.754 29.1522C126.752 28.945 126.8 28.7402 126.895 28.5562C127.002 28.361 127.152 28.1924 127.333 28.063C127.574 27.8899 127.837 27.7489 128.115 27.6437C128.438 27.5265 128.767 27.429 129.101 27.3518C129.473 27.2623 129.964 27.1628 130.573 27.0532C130.961 26.9839 131.435 26.9012 131.977 26.8095C131.97 27.0432 131.959 27.2948 131.942 27.5922C131.923 28.022 131.822 28.4442 131.643 28.8357Z" fill="white"/>
<path d="M145.586 26.2563L150.331 19.6865H146.243L141.79 26.0136V15.3063H138.432L138.407 32.8272H141.79V26.5001L146.34 32.8272H150.648L145.586 26.2563Z" fill="white"/>
<defs>
<linearGradient id="paint0_linear_3868_73887" x1="3.23067" y1="11.9978" x2="44.8074" y2="36.0011" gradientUnits="userSpaceOnUse">
<stop offset="0.13" stop-color="#348BED"/>
<stop offset="0.31" stop-color="#2B80E8"/>
<stop offset="0.64" stop-color="#1461DB"/>
<stop offset="0.72" stop-color="#0E57D7"/>
</linearGradient>
</defs>
</svg>
