<svg width="440" height="457" viewBox="0 0 440 457" fill="none" xmlns="http://www.w3.org/2000/svg">
<path d="M171.22 427.018C171.22 427.018 158.879 435.467 153.876 434.911C153.209 434.8 152.764 434.689 152.431 434.244C149.207 430.909 146.539 425.016 146.539 425.016C146.539 425.016 148.095 422.904 152.876 428.574L155.877 425.795L149.651 419.458C149.651 419.458 153.209 416.678 159.213 420.236C158.99 419.791 155.099 411.342 158.101 399.891L143.314 385.883L156.211 374.654L157.211 373.764C157.211 373.764 157.99 374.543 159.324 375.766C160.547 376.988 162.325 378.545 164.215 380.213C168.774 384.215 174.332 388.551 176.667 388.551C181.225 388.551 171.22 427.018 171.22 427.018Z" fill="white"/>
<path opacity="0.4" d="M161.547 421.459C161.547 421.459 154.543 428.685 153.765 434.8C153.098 434.689 152.653 434.577 152.32 434.133C149.096 430.798 146.427 424.905 146.427 424.905C146.427 424.905 147.984 422.793 152.764 428.463L155.766 425.683L149.54 419.346C149.54 419.346 153.098 416.567 159.101 420.125C158.879 419.68 154.988 411.231 157.99 399.78L143.314 385.883L156.211 374.654L159.324 375.877C160.547 377.1 162.325 378.656 164.215 380.324C161.436 384.326 155.655 392.664 155.655 392.664L160.769 399.557C160.769 399.446 157.767 416.789 161.547 421.459Z" fill="url(#paint0_linear_4593_91744)"/>
<path d="M171.22 427.018C171.22 427.018 158.879 435.467 153.876 434.911C153.209 434.8 152.764 434.689 152.431 434.244C149.207 430.909 146.539 425.016 146.539 425.016C146.539 425.016 148.095 422.904 152.876 428.574L155.877 425.795L149.651 419.458C149.651 419.458 153.209 416.678 159.213 420.236C158.99 419.791 155.099 411.342 158.101 399.891L143.314 385.883L156.211 374.654L157.211 373.764C157.211 373.764 157.99 374.543 159.324 375.766C160.547 376.988 162.325 378.545 164.215 380.213C168.774 384.215 174.332 388.551 176.667 388.551C181.225 388.551 171.22 427.018 171.22 427.018Z" stroke="#263238" stroke-miterlimit="10" stroke-linecap="round" stroke-linejoin="round"/>
<path d="M155.877 425.795C155.877 425.795 156.989 422.459 159.101 420.236" stroke="#263238" stroke-miterlimit="10" stroke-linecap="round" stroke-linejoin="round"/>
<path d="M386.789 328.961C385.01 331.629 382.676 334.186 379.785 336.521C356.994 355.31 304.519 364.648 304.519 364.648C304.519 364.648 302.74 367.316 300.072 370.985C295.18 377.767 287.287 388.106 280.839 393.22C278.059 395.444 275.613 396.667 273.723 396.333L283.618 432.688L288.065 448.475C288.065 448.475 242.817 468.264 165.438 445.584C165.438 445.584 164.549 435.467 165.216 433.355C165.216 433.244 165.327 433.132 165.327 433.021C165.994 431.242 168.329 429.241 168.329 429.241C168.329 429.241 167.884 422.793 167.662 416.123C167.44 411.009 167.44 405.783 167.773 403.449C168.329 400.113 170.775 392.109 171.998 388.106C172.442 386.661 172.665 385.772 172.665 385.772L168.774 349.751L167.662 339.411C167.662 339.411 167.662 339.189 167.551 338.856C167.551 338.744 167.551 338.744 167.551 338.633L166.995 333.074L147.094 339.189C147.094 339.189 148.206 341.524 149.54 344.748C152.208 350.751 155.988 359.868 156.878 363.425C156.989 363.759 156.989 363.981 157.1 364.315C158.99 369.54 165.994 374.321 165.994 374.321L147.094 396.333L141.536 392.442C141.536 392.442 140.757 393.109 139.312 393.887C135.643 395.889 127.972 398.779 119.523 394.332C116.41 392.665 113.297 390.107 110.184 386.105C95.2865 366.872 88.9495 351.196 91.0619 332.741C93.1742 314.286 175.889 257.586 192.343 258.142L216.802 263.59C217.357 263.145 218.803 262.033 219.803 262.033C224.25 262.255 224.361 267.37 224.361 267.37L279.171 276.264C279.171 276.264 284.841 273.373 285.842 273.484C288.287 273.595 289.288 275.708 289.288 275.708C289.288 275.708 303.519 267.258 308.077 269.148C323.197 275.819 397.795 312.173 386.789 328.961Z" fill="url(#paint1_linear_4593_91744)"/>
<path opacity="0.2" d="M196.568 419.013C196.568 419.013 188.118 429.463 172.887 431.909C169.997 432.354 167.44 432.799 165.216 433.243C165.883 431.465 168.218 429.463 168.218 429.463C168.218 429.463 167.773 423.015 167.551 416.345C173.999 420.458 185.228 425.35 196.568 419.013Z" fill="black"/>
<path opacity="0.2" d="M171.998 388.328C172.442 386.883 172.665 385.994 172.665 385.994L168.774 349.973C174.555 358.2 195.011 386.327 209.242 389.44C224.028 392.553 184.449 398.112 171.998 388.328Z" fill="black"/>
<path opacity="0.2" d="M283.507 432.799C268.053 431.02 246.152 427.129 244.04 419.013C240.593 406.339 257.158 398.779 280.727 393.22C277.948 395.444 275.502 396.667 273.612 396.333L283.507 432.799Z" fill="black"/>
<path opacity="0.2" d="M379.785 336.52C356.994 355.309 304.519 364.648 304.519 364.648C304.519 364.648 302.74 367.316 300.072 370.985C295.625 360.646 289.288 339.189 296.737 312.84C296.737 312.84 300.739 334.742 317.527 339.967C317.527 339.967 304.63 330.406 309.189 307.392C309.189 307.392 313.524 334.519 342.096 341.968C355.882 345.637 369.446 341.635 379.785 336.52Z" fill="black"/>
<path opacity="0.2" d="M167.662 338.966L166.995 333.185L147.094 339.3C147.094 339.3 148.206 341.635 149.54 344.859C141.98 344.081 127.527 351.196 124.97 343.413C121.969 334.075 140.646 337.299 140.646 337.299L158.323 327.071C154.988 312.84 163.437 302.056 163.437 302.056L165.105 311.951C165.883 293.051 173.221 282.712 173.221 282.712C167.106 297.72 167.217 334.519 167.662 338.966Z" fill="black"/>
<path opacity="0.2" d="M165.994 374.432L147.095 396.444L141.536 392.553C141.536 392.553 140.758 393.22 139.312 393.998C135.643 396 127.972 398.89 119.523 394.443C125.638 385.994 138.2 373.542 153.209 368.762C153.209 368.762 146.983 377.767 143.203 385.883L147.095 389.663C147.206 389.663 156.878 378.656 165.994 374.432Z" fill="black"/>
<path opacity="0.2" d="M211.798 277.486C211.798 279.376 210.575 301.5 226.585 307.281C242.594 313.063 256.825 303.279 256.825 303.279C256.825 303.279 232.255 326.96 217.246 314.285C202.348 301.5 211.798 277.486 211.798 277.486Z" fill="black"/>
<path d="M165.327 445.806C165.327 445.806 164.438 435.689 165.105 433.577C165.661 431.798 168.218 429.464 168.218 429.464C168.218 429.464 166.884 409.007 167.773 403.671C168.551 399.113 172.665 385.994 172.665 385.994L166.995 333.186L147.094 339.3C147.094 339.3 155.544 357.978 156.878 363.648C158.212 369.206 165.994 374.543 165.994 374.543L147.094 396.556L141.536 392.664C141.536 392.664 125.082 405.561 110.184 386.327C95.2865 367.094 88.9495 351.418 91.0619 332.963C93.1742 314.508 176 257.808 192.343 258.364L216.802 263.812C217.357 263.367 218.803 262.255 219.803 262.255C224.25 262.478 224.361 267.592 224.361 267.592L279.06 276.486C279.06 276.486 284.73 273.595 285.73 273.707C288.176 273.818 289.177 275.93 289.177 275.93C289.177 275.93 303.407 267.481 307.966 269.371C322.974 275.819 397.684 312.173 386.567 328.961C370.78 352.864 304.297 364.648 304.297 364.648C304.297 364.648 282.173 398.001 273.501 396.444L287.732 448.586" stroke="#263238" stroke-miterlimit="10" stroke-linecap="round" stroke-linejoin="round"/>
<path d="M328.866 332.63C353.992 349.195 374.226 346.193 390.124 324.847C390.124 324.847 403.354 307.837 402.353 289.493C401.353 271.149 397.017 211.226 339.873 226.568C330.423 229.125 308.521 258.475 306.631 266.591C305.742 270.26 296.959 289.049 288.398 308.616" fill="url(#paint2_linear_4593_91744)"/>
<path d="M328.866 332.63C353.992 349.195 374.226 346.193 390.124 324.847C390.124 324.847 403.354 307.837 402.353 289.493C401.353 271.149 397.017 211.226 339.873 226.568C330.423 229.125 308.521 258.475 306.631 266.591C305.742 270.26 296.959 289.049 288.398 308.616" stroke="#263238" stroke-miterlimit="10" stroke-linecap="round" stroke-linejoin="round"/>
<path d="M260.938 156.75C260.938 156.75 276.948 154.304 288.065 164.31C302.073 176.872 317.86 210.781 295.403 267.036C295.403 267.036 262.161 245.023 205.462 259.698C205.462 259.698 210.353 246.468 201.793 205C197.902 186.211 207.685 142.964 260.938 156.75Z" fill="#263238"/>
<path d="M236.591 297.831C260.271 301.723 285.508 275.485 285.508 275.485C285.508 275.485 272.612 273.929 271.5 267.814C267.831 248.692 282.617 225.123 282.617 225.123C282.617 225.123 225.14 226.679 235.145 239.687C237.258 242.466 238.703 245.023 239.704 247.469C243.15 256.029 240.815 262.478 238.925 264.034C238.814 264.145 238.592 264.256 238.481 264.368C235.034 265.924 220.693 263.589 220.693 263.589C220.693 263.589 215.023 294.385 236.591 297.831Z" fill="white" stroke="#263238" stroke-miterlimit="10" stroke-linecap="round" stroke-linejoin="round"/>
<path d="M277.392 282.712C277.392 282.712 266.497 287.048 250.488 285.825L243.261 289.382" stroke="#263238" stroke-miterlimit="10" stroke-linecap="round" stroke-linejoin="round"/>
<path d="M236.035 288.826L235.479 284.046C235.479 284.046 223.694 280.377 220.026 273.373" stroke="#263238" stroke-miterlimit="10" stroke-linecap="round" stroke-linejoin="round"/>
<path d="M238.925 264.256C256.491 268.815 264.829 246.246 264.829 246.246C264.829 246.246 250.71 242.021 239.704 247.58C243.261 256.252 240.815 262.7 238.925 264.256Z" fill="#263238"/>
<path d="M283.618 213.338C287.954 189.324 283.173 160.418 246.485 162.753C220.359 164.421 220.581 193.104 222.249 201.665C225.14 216.117 221.026 221.787 225.473 233.794C228.697 242.466 236.146 252.249 245.04 255.807C250.488 258.031 272.389 242.688 274.057 235.573" fill="white"/>
<path d="M283.618 213.338C287.954 189.324 283.173 160.418 246.485 162.753C220.359 164.421 220.581 193.104 222.249 201.665C225.14 216.117 221.026 221.787 225.473 233.794C228.697 242.466 236.146 252.249 245.04 255.807C250.488 258.031 272.389 242.688 274.057 235.573" stroke="#263238" stroke-miterlimit="10" stroke-linecap="round" stroke-linejoin="round"/>
<path d="M237.592 206.223C237.369 208.891 237.036 215.562 231.366 220.564C227.697 223.789 236.146 227.013 236.146 227.013" stroke="#263238" stroke-miterlimit="10" stroke-linecap="round" stroke-linejoin="round"/>
<path d="M231.588 196.662C231.588 196.662 223.472 192.771 218.024 199.219" stroke="#263238" stroke-miterlimit="10" stroke-linecap="round" stroke-linejoin="round"/>
<path d="M245.151 196.217C245.151 196.217 252.934 193.438 262.384 196.884" stroke="#263238" stroke-miterlimit="10" stroke-linecap="round" stroke-linejoin="round"/>
<path d="M253.489 207.557C253.712 209.892 255.268 211.559 256.936 211.448C258.604 211.226 259.715 209.225 259.493 206.89C259.271 204.555 257.714 202.888 256.046 202.999C254.379 203.221 253.267 205.222 253.489 207.557Z" fill="#263238"/>
<path d="M236.591 234.573C246.708 233.35 254.712 228.013 254.712 228.013C254.712 228.013 255.491 238.13 247.041 240.243C240.593 241.799 238.036 234.461 238.036 234.461" stroke="#263238" stroke-miterlimit="10" stroke-linecap="round" stroke-linejoin="round"/>
<path d="M260.382 171.981C260.382 171.981 258.048 200.442 283.285 210.892L295.069 183.543L277.281 163.754L250.377 155.971C210.242 158.528 192.899 183.432 215.245 249.915C215.134 249.804 208.908 170.647 260.382 171.981Z" fill="#263238"/>
<path d="M277.726 212.004C277.392 208.78 285.508 200.664 288.176 205.889C292.846 214.783 289.399 222.566 284.619 225.678C282.506 227.013 279.727 229.57 277.726 227.235" fill="white"/>
<path d="M277.726 212.004C277.392 208.78 285.508 200.664 288.176 205.889C292.846 214.783 289.399 222.566 284.619 225.678C282.506 227.013 279.727 229.57 277.726 227.235" stroke="#263238" stroke-miterlimit="10" stroke-linecap="round" stroke-linejoin="round"/>
<path d="M229.031 208.557C229.253 210.892 230.81 212.56 232.477 212.449C234.145 212.226 235.257 210.225 235.034 207.89C234.812 205.556 233.256 203.888 231.588 203.999C229.92 204.222 228.809 206.334 229.031 208.557Z" fill="#263238"/>
<g opacity="0.2">
<path d="M211.576 203.888C211.243 205.778 211.02 207.779 210.909 209.78" stroke="white" stroke-miterlimit="10" stroke-linecap="round" stroke-linejoin="round"/>
<path d="M256.158 166.755C235.812 166.199 216.913 179.207 212.466 199.552" stroke="white" stroke-miterlimit="10" stroke-linecap="round" stroke-linejoin="round"/>
<path d="M252.489 160.974C252.489 160.974 223.139 154.081 212.132 173.537" stroke="white" stroke-miterlimit="10" stroke-linecap="round" stroke-linejoin="round"/>
<path d="M276.392 194.883C278.17 197.329 280.283 199.663 282.729 201.553" stroke="white" stroke-miterlimit="10" stroke-linecap="round" stroke-linejoin="round"/>
<path d="M264.718 164.754C266.274 173.87 269.276 183.209 274.057 191.214" stroke="white" stroke-miterlimit="10" stroke-linecap="round" stroke-linejoin="round"/>
<path d="M294.18 253.027C293.624 255.362 293.068 257.697 292.401 259.92" stroke="white" stroke-miterlimit="10" stroke-linecap="round" stroke-linejoin="round"/>
<path d="M292.512 214.227C297.293 224.789 296.959 237.908 294.958 249.025" stroke="white" stroke-miterlimit="10" stroke-linecap="round" stroke-linejoin="round"/>
<path d="M288.955 232.682C288.955 232.682 290.4 244.467 280.728 254.473" stroke="white" stroke-miterlimit="10" stroke-linecap="round" stroke-linejoin="round"/>
<path d="M275.502 168.201C280.505 174.982 284.174 182.209 289.955 188.323C296.07 194.772 302.185 202.22 303.296 211.337" stroke="white" stroke-miterlimit="10" stroke-linecap="round" stroke-linejoin="round"/>
<path d="M268.387 161.197C269.832 162.086 271.166 163.198 272.278 164.532" stroke="white" stroke-miterlimit="10" stroke-linecap="round" stroke-linejoin="round"/>
</g>
<path d="M368.779 317.732C368.223 317.843 367.556 317.954 367 318.066C351.213 320.289 333.647 307.282 327.644 291.606C322.974 279.265 327.088 265.146 329.311 259.142C329.978 257.253 330.534 256.141 330.534 256.141C339.984 242.577 395.238 269.148 395.906 283.712C396.461 298.276 384.899 314.174 368.779 317.732Z" fill="#263238" stroke="#263238" stroke-miterlimit="10" stroke-linecap="round" stroke-linejoin="round"/>
<path d="M386.011 285.714C386.011 285.714 382.898 308.949 367 318.066C351.213 320.289 333.647 307.282 327.644 291.606C322.974 279.265 327.088 265.146 329.311 259.143C347.878 248.47 386.011 285.714 386.011 285.714Z" fill="white"/>
<path opacity="0.4" d="M386.011 285.714C386.011 285.714 382.898 308.949 367 318.066C351.213 320.289 333.647 307.282 327.644 291.606C322.974 279.265 327.088 265.146 329.311 259.143C347.878 248.47 386.011 285.714 386.011 285.714Z" fill="url(#paint3_linear_4593_91744)"/>
<path d="M386.011 285.714C386.011 285.714 382.898 308.949 367 318.066C351.213 320.289 333.647 307.282 327.644 291.606C322.974 279.265 327.088 265.146 329.311 259.143C347.878 248.47 386.011 285.714 386.011 285.714Z" stroke="#263238" stroke-miterlimit="10" stroke-linecap="round" stroke-linejoin="round"/>
<path d="M320.973 297.943C320.973 297.943 338.872 323.624 359.773 325.848C380.674 327.96 394.127 310.394 394.905 297.053" stroke="#263238" stroke-miterlimit="10" stroke-linecap="round" stroke-linejoin="round"/>
<path d="M310.856 181.764C312.413 177.317 323.753 178.874 327.31 192.548C330.868 206.334 344.987 239.687 344.987 239.687C344.987 239.687 401.131 156.972 411.248 153.859C421.365 150.635 417.362 164.977 403.91 184.877C403.91 184.877 416.473 182.654 419.808 184.877C423.144 187.101 421.476 200.442 423.255 205.111C426.256 213.005 419.697 214.561 419.697 214.561C419.697 214.561 424.811 214.561 428.48 217.896C432.038 221.232 430.259 235.24 431.259 239.242C432.26 243.244 425.367 246.58 425.367 246.58C425.367 246.58 441.932 255.585 438.152 257.92C431.815 261.7 428.258 257.808 428.258 257.808C428.258 257.808 402.798 289.827 383.565 296.942C364.332 304.057 326.977 275.819 322.974 260.365C318.972 244.912 323.753 245.913 320.751 220.231C317.86 194.549 310.856 181.764 310.856 181.764Z" fill="white" stroke="#263238" stroke-miterlimit="10" stroke-linecap="round" stroke-linejoin="round"/>
<path d="M392.792 131.068L318.75 150.301C316.081 150.968 314.525 153.637 315.192 156.305L350.212 290.494C350.879 293.162 353.547 294.719 356.216 294.051L430.259 274.818C432.927 274.151 434.483 271.483 433.816 268.815L398.796 134.626C398.129 131.957 395.461 130.401 392.792 131.068Z" fill="white" stroke="#263238" stroke-miterlimit="10" stroke-linecap="round" stroke-linejoin="round"/>
<path d="M350.434 146.41C350.657 147.077 350.212 147.744 349.545 147.856C348.878 148.078 348.211 147.633 348.1 146.966C347.877 146.299 348.322 145.632 348.989 145.521C349.545 145.41 350.212 145.743 350.434 146.41Z" fill="url(#paint4_linear_4593_91744)" stroke="#263238" stroke-miterlimit="10" stroke-linecap="round" stroke-linejoin="round"/>
<path d="M365.666 142.408C365.777 142.853 365.555 143.186 365.11 143.297C364.665 143.409 364.332 143.186 364.22 142.742C364.109 142.297 364.332 141.963 364.776 141.852C365.11 141.852 365.555 142.075 365.666 142.408Z" fill="url(#paint5_linear_4593_91744)" stroke="#263238" stroke-miterlimit="10" stroke-linecap="round" stroke-linejoin="round"/>
<path d="M361.663 143.964L352.769 146.299C352.547 146.299 352.436 146.188 352.324 146.077V145.966C352.324 145.743 352.436 145.632 352.547 145.521L361.441 143.186C361.663 143.186 361.774 143.297 361.886 143.409V143.52C361.997 143.742 361.886 143.853 361.663 143.964Z" fill="url(#paint6_linear_4593_91744)" stroke="#263238" stroke-miterlimit="10" stroke-linecap="round" stroke-linejoin="round"/>
<path d="M396.572 135.849L431.259 269.037C431.704 270.593 430.703 272.15 429.147 272.595L356.104 291.606C354.548 292.05 352.992 291.05 352.547 289.493L317.86 156.416C317.415 154.86 318.416 153.303 319.972 152.858L334.981 148.967C335.982 148.745 336.982 149.078 337.649 149.968L338.761 151.524C339.317 152.414 340.429 152.747 341.429 152.525L374.337 143.964C375.338 143.742 376.005 142.853 376.116 141.852L376.338 139.962C376.45 138.961 377.117 138.072 378.117 137.85L393.126 133.959C394.571 133.403 396.239 134.403 396.572 135.849Z" fill="url(#paint7_linear_4593_91744)" stroke="#263238" stroke-miterlimit="10" stroke-linecap="round" stroke-linejoin="round"/>
<path d="M399.176 210.617C405.975 194.961 398.795 176.758 383.139 169.959C367.483 163.16 349.28 170.341 342.481 185.997C335.682 201.653 342.862 219.856 358.518 226.655C374.174 233.453 392.378 226.273 399.176 210.617Z" fill="white" stroke="#263238" stroke-miterlimit="10" stroke-linecap="round" stroke-linejoin="round"/>
<path d="M405.689 246.802L363.998 257.697C358.995 259.031 353.881 256.029 352.547 251.027C351.213 246.024 354.214 240.91 359.217 239.575L400.908 228.68C405.911 227.346 411.025 230.348 412.359 235.351C413.693 240.354 410.692 245.468 405.689 246.802Z" fill="#263238"/>
<path d="M304.519 364.648C304.519 364.648 291.845 335.187 298.294 299.61" stroke="#263238" stroke-miterlimit="10" stroke-linecap="round" stroke-linejoin="round"/>
<path d="M273.723 396.444C273.723 396.444 248.153 404.227 245.596 410.119C243.039 416.011 257.047 411.008 257.047 411.008" stroke="#263238" stroke-miterlimit="10" stroke-linecap="round" stroke-linejoin="round"/>
<path d="M289.399 275.819C289.399 275.819 265.83 299.166 250.154 305.392" stroke="#263238" stroke-miterlimit="10" stroke-linecap="round" stroke-linejoin="round"/>
<path d="M212.355 269.593C212.355 269.593 208.019 301.056 224.028 307.059" stroke="#263238" stroke-miterlimit="10" stroke-linecap="round" stroke-linejoin="round"/>
<path d="M166.995 333.185C166.995 333.185 166.884 291.939 175.111 279.154" stroke="#263238" stroke-miterlimit="10" stroke-linecap="round" stroke-linejoin="round"/>
<path d="M163.993 291.161C163.993 291.161 161.658 316.843 166.884 325.181" stroke="#263238" stroke-miterlimit="10" stroke-linecap="round" stroke-linejoin="round"/>
<path d="M147.094 339.3C147.094 339.3 129.195 333.185 125.526 340.745C121.857 348.416 136.199 341.635 136.199 341.635" stroke="#263238" stroke-miterlimit="10" stroke-linecap="round" stroke-linejoin="round"/>
<path d="M157.878 365.982C157.878 365.982 140.313 375.877 139.423 381.547" stroke="#263238" stroke-miterlimit="10" stroke-linecap="round" stroke-linejoin="round"/>
<path d="M186.562 338.633C186.562 338.633 220.137 389.44 238.703 384.771" stroke="#263238" stroke-miterlimit="10" stroke-linecap="round" stroke-linejoin="round"/>
<path d="M209.575 409.896C209.575 409.896 183.227 429.241 179.335 427.573" stroke="#263238" stroke-miterlimit="10" stroke-linecap="round" stroke-linejoin="round"/>
<path opacity="0.2" d="M394.238 327.404C396.017 325.959 397.24 324.958 397.573 324.625C397.24 325.069 396.017 326.07 394.238 327.404Z" fill="black"/>
<path d="M70.5027 279.52C74.7274 284.857 77.5068 291.305 78.5073 298.309" stroke="white" stroke-miterlimit="10" stroke-linecap="round" stroke-linejoin="round"/>
<path d="M5.35376 285.746C12.3578 272.294 26.9218 263.511 43.0423 264.845C52.7146 265.623 61.2751 269.848 67.6121 276.185" stroke="white" stroke-miterlimit="10" stroke-linecap="round" stroke-linejoin="round"/>
<path d="M8.46661 326.659C3.13018 319.432 0.350789 310.316 1.12902 300.644" stroke="white" stroke-miterlimit="10" stroke-linecap="round" stroke-linejoin="round"/>
<path d="M29.8125 341.334C22.8084 339.444 16.5826 335.664 11.802 330.661" stroke="white" stroke-miterlimit="10" stroke-linecap="round" stroke-linejoin="round"/>
<path d="M78.8409 306.647C77.1733 328.104 58.3846 344.114 36.9277 342.446" stroke="white" stroke-miterlimit="10" stroke-linecap="round" stroke-linejoin="round"/>
<path d="M55.4185 303.492L51.9397 313.318C53.5166 314.244 54.5692 315.583 54.9559 317.395C55.2266 318.647 55.0806 319.953 54.5401 321.114C53.4232 323.595 50.9631 324.898 47.9394 324.549C47.6556 325.35 47.4092 326.184 47.0512 326.98C46.9665 327.126 46.8525 327.252 46.7165 327.351C46.5805 327.45 46.4255 327.52 46.2611 327.556C46.0457 327.598 45.6787 327.365 45.5396 327.149C45.4005 326.932 45.4235 326.593 45.4983 326.343C45.7366 325.558 46.0329 324.79 46.3206 323.977C44.5425 322.933 43.4241 321.433 43.1669 319.379C42.9097 317.326 43.5995 315.583 45.1375 314.135C44.8999 313.759 44.6554 313.39 44.4297 313.011C44.1457 312.526 44.251 311.997 44.6746 311.744C45.0982 311.492 45.5584 311.633 45.8792 312.087C46.0023 312.263 46.1116 312.447 46.2306 312.626L46.5611 313.121C47.2015 312.968 47.8003 312.77 48.4148 312.695C49.0294 312.619 49.6216 312.675 50.2851 312.672L53.7458 302.897C52.6451 302.29 51.7552 301.362 51.1943 300.236C50.7397 300.379 50.3188 300.534 49.8946 300.651C49.361 300.802 48.9149 300.587 48.7667 300.126C48.6186 299.665 48.8636 299.226 49.3685 299.031C49.5701 298.95 49.7754 298.894 49.98 298.827L50.6363 298.603C50.3812 296.578 50.8833 294.778 52.354 293.323C53.8247 291.867 55.6301 291.363 57.7514 291.673C58.0228 290.907 58.2812 290.112 58.5912 289.34C58.6899 289.095 58.8953 288.79 59.113 288.724C59.3735 288.645 59.8173 288.695 59.9706 288.876C60.0733 289.009 60.1465 289.162 60.1855 289.326C60.2245 289.49 60.2283 289.659 60.1967 289.825C59.9847 290.634 59.6601 291.413 59.3647 292.247C60.9618 293.185 62.0144 294.524 62.4011 296.336C62.6716 297.587 62.5258 298.892 61.9858 300.053C60.8778 302.539 58.4177 303.842 55.4185 303.492ZM60.6223 299.022C60.9057 298.222 60.9455 297.355 60.7367 296.532C60.5279 295.709 60.0799 294.966 59.4492 294.398C58.8186 293.829 58.0336 293.461 57.1934 293.338C56.3532 293.215 55.4955 293.344 54.7287 293.709C53.9619 294.074 53.3203 294.657 52.885 295.386C52.4497 296.115 52.2402 296.957 52.283 297.805C52.3258 298.653 52.619 299.469 53.1255 300.151C53.632 300.832 54.3291 301.348 55.1287 301.634C55.6609 301.824 56.2253 301.907 56.7896 301.878C57.354 301.85 57.9071 301.71 58.4175 301.468C58.9278 301.225 59.3852 300.884 59.7636 300.465C60.1419 300.045 60.4337 299.555 60.6223 299.022V299.022ZM53.1562 320.11C53.4459 319.312 53.4926 318.446 53.2904 317.622C53.0883 316.797 52.6464 316.051 52.0205 315.478C51.3946 314.904 50.6127 314.529 49.7737 314.399C48.9347 314.27 48.0762 314.392 47.3065 314.75C46.5367 315.108 45.8904 315.686 45.4491 316.412C45.0077 317.137 44.7912 317.976 44.8268 318.825C44.8623 319.673 45.1485 320.492 45.649 321.177C46.1495 321.863 46.842 322.385 47.639 322.677C48.1701 322.872 48.7344 322.96 49.2996 322.936C49.8648 322.912 50.4197 322.777 50.9324 322.538C51.4452 322.299 51.9058 321.962 52.2876 321.544C52.6695 321.127 52.9651 320.638 53.1576 320.106L53.1562 320.11Z" fill="white"/>
<path d="M30.224 281.921L30.9685 279.818C31.2471 279.031 31.6382 278.746 32.1801 278.927C32.722 279.109 32.8682 279.601 32.5796 280.416L31.8408 282.503C33.6485 283.562 34.7441 285.071 34.989 287.129C35.2339 289.187 34.524 290.914 32.987 292.381C33.2064 292.735 33.4321 293.093 33.6505 293.454C33.9655 293.976 33.9037 294.455 33.4792 294.731C33.0547 295.008 32.5556 294.89 32.202 294.37C31.9728 294.031 31.7527 293.687 31.5105 293.32C30.3726 293.811 29.1159 293.956 27.8961 293.739L24.412 303.58C25.5209 304.185 26.4188 305.114 26.9857 306.242C27.408 306.109 27.7944 305.979 28.1823 305.866C28.7424 305.704 29.2052 305.924 29.3493 306.405C29.4935 306.886 29.2624 307.285 28.727 307.485C28.3426 307.627 27.9487 307.744 27.5232 307.882C27.7964 309.929 27.2686 311.724 25.7872 313.171C24.3058 314.618 22.4997 315.117 20.4066 314.795C20.14 315.548 19.8723 316.304 19.6052 317.058C19.3773 317.702 18.9516 317.969 18.4475 317.801C17.9434 317.633 17.757 317.139 17.9936 316.466C18.2554 315.727 18.5192 314.982 18.7883 314.222C17.3152 313.359 16.3077 312.154 15.8429 310.528C15.4914 309.297 15.5483 307.985 16.005 306.789C16.8128 304.593 19.1678 302.484 22.7391 302.972L26.2165 293.15C24.7635 292.303 23.7547 291.094 23.2975 289.473C22.9467 288.241 23.0045 286.929 23.4623 285.734C24.2693 283.536 26.6278 281.43 30.224 281.921ZM27.5562 291.872C28.3527 292.165 29.2182 292.216 30.0436 292.018C30.8689 291.819 31.617 291.381 32.1934 290.758C32.7698 290.135 33.1488 289.355 33.2823 288.517C33.4159 287.679 33.2982 286.82 32.9439 286.048C32.5897 285.277 32.0149 284.628 31.2921 284.183C30.5693 283.738 29.7308 283.517 28.8826 283.548C28.0344 283.58 27.2144 283.861 26.5262 284.358C25.838 284.855 25.3124 285.544 25.0157 286.34C24.818 286.87 24.727 287.434 24.7478 287.999C24.7685 288.564 24.9007 289.12 25.1368 289.634C25.3728 290.148 25.7081 290.61 26.1232 290.994C26.5384 291.378 27.0254 291.676 27.5562 291.872ZM25.6329 310.329C25.9169 309.527 25.9562 308.659 25.7459 307.834C25.5355 307.01 25.085 306.266 24.4515 305.698C23.818 305.13 23.03 304.763 22.1874 304.643C21.3449 304.523 20.4859 304.657 19.7192 305.026C18.9526 305.396 18.3129 305.984 17.8814 306.718C17.4499 307.451 17.2459 308.296 17.2954 309.146C17.3449 309.995 17.6456 310.811 18.1594 311.489C18.6731 312.168 19.3768 312.678 20.1812 312.956C21.2526 313.326 22.4269 313.258 23.4481 312.766C24.4693 312.274 25.2546 311.398 25.6329 310.329Z" fill="white"/>
<path d="M36.2838 308.565C35.167 307.957 34.2614 307.024 33.6873 305.89C33.2537 306.025 32.8313 306.162 32.4106 306.282C31.8507 306.439 31.3837 306.223 31.2351 305.742C31.0864 305.261 31.334 304.827 31.8963 304.637C32.3005 304.5 32.7113 304.378 33.1454 304.241C32.8562 302.102 33.4747 300.273 35.0603 298.751C34.8252 298.39 34.5885 298.037 34.3643 297.675C34.0279 297.132 34.1048 296.649 34.562 296.366C34.9834 296.107 35.46 296.245 35.7973 296.738C36.0302 297.076 36.2506 297.423 36.4995 297.801C37.6731 297.262 38.9857 297.103 40.254 297.347L44.7196 284.733C44.7689 284.561 44.8334 284.393 44.9123 284.232C45.1472 283.822 45.5104 283.654 45.9571 283.812C46.4039 283.97 46.5796 284.336 46.5073 284.794C46.4674 284.968 46.4121 285.139 46.3421 285.303L41.8774 297.914C42.9978 298.521 43.9084 299.453 44.4898 300.587C44.8962 300.456 45.2672 300.331 45.642 300.216C46.2382 300.033 46.7159 300.233 46.8726 300.721C47.0293 301.21 46.7606 301.634 46.1692 301.85C45.9841 301.918 45.7969 301.975 45.61 302.039L45.0193 302.245C45.3065 304.394 44.6833 306.227 43.0677 307.757C43.3076 308.131 43.5526 308.498 43.783 308.873C44.0722 309.343 43.9948 309.832 43.602 310.109C43.2092 310.386 42.6859 310.277 42.3489 309.818C42.224 309.643 42.1133 309.458 41.9957 309.279C41.8781 309.101 41.7573 308.923 41.6163 308.712C40.4536 309.227 39.1621 309.378 37.912 309.144L33.4478 321.754C33.3986 321.926 33.3343 322.093 33.2556 322.254C33.0216 322.661 32.6585 322.829 32.2104 322.67C31.7623 322.512 31.5868 322.153 31.6634 321.688C31.7033 321.514 31.7586 321.344 31.8286 321.179L36.2918 308.572L36.2838 308.565ZM40.5142 299.19C39.7117 298.906 38.8429 298.867 38.0181 299.077C37.1933 299.288 36.4497 299.739 35.8816 300.373C35.3135 301.007 34.9467 301.796 34.8275 302.638C34.7084 303.481 34.8424 304.341 35.2126 305.107C35.5827 305.874 36.1723 306.513 36.9064 306.944C37.6406 307.375 38.4862 307.578 39.336 307.527C40.1857 307.477 41.0013 307.175 41.6792 306.66C42.357 306.145 42.8666 305.44 43.1432 304.635C43.5101 303.565 43.44 302.393 42.9481 301.374C42.4562 300.356 41.5822 299.572 40.5159 299.194L40.5142 299.19Z" fill="white"/>
<path d="M347.074 200.658L346.614 198.744L354.119 196.937L354.58 198.851L351.982 199.476L353.629 206.312L351.318 206.868L349.672 200.033L347.074 200.658ZM357.108 205.474L355.001 196.724L357.346 196.16L358.169 199.577L361.272 198.83L360.449 195.412L362.793 194.848L364.9 203.598L362.556 204.162L361.733 200.744L358.63 201.492L359.453 204.909L357.108 205.474ZM366.251 194.015L368.358 202.765L366.014 203.329L363.906 194.58L366.251 194.015ZM369.469 202.497L367.362 193.747L371.089 192.85C371.73 192.696 372.319 192.679 372.857 192.799C373.395 192.92 373.85 193.17 374.224 193.55C374.598 193.93 374.86 194.431 375.01 195.052C375.161 195.678 375.15 196.24 374.978 196.736C374.809 197.232 374.504 197.649 374.062 197.988C373.623 198.325 373.074 198.573 372.416 198.732L370.19 199.268L369.746 197.422L371.5 197C371.775 196.934 372.002 196.843 372.179 196.728C372.359 196.609 372.482 196.461 372.549 196.282C372.619 196.102 372.624 195.888 372.564 195.641C372.504 195.39 372.401 195.199 372.257 195.068C372.114 194.934 371.936 194.853 371.721 194.827C371.509 194.796 371.265 194.815 370.989 194.881L370.163 195.08L371.813 201.933L369.469 202.497ZM373.562 197.263L376.688 200.759L374.141 201.372L371.065 197.864L373.562 197.263ZM380.723 199.787L377.4 200.587L375.293 191.838L378.582 191.045C379.47 190.832 380.28 190.822 381.011 191.017C381.744 191.208 382.365 191.589 382.874 192.159C383.385 192.726 383.75 193.465 383.97 194.377C384.189 195.288 384.202 196.114 384.009 196.853C383.814 197.59 383.438 198.211 382.878 198.717C382.318 199.219 381.6 199.576 380.723 199.787ZM379.259 198.006L380.153 197.791C380.58 197.688 380.927 197.531 381.194 197.319C381.464 197.106 381.637 196.81 381.712 196.43C381.79 196.05 381.756 195.555 381.609 194.945C381.462 194.336 381.266 193.88 381.021 193.577C380.778 193.274 380.484 193.09 380.138 193.026C379.795 192.961 379.399 192.982 378.949 193.091L378.123 193.29L379.259 198.006ZM386.108 198.49L384.001 189.74L390.073 188.278L390.534 190.192L386.806 191.09L387.169 192.594L390.525 191.786L390.986 193.7L387.629 194.508L388.453 197.926L386.108 198.49ZM393.279 187.506L395.387 196.256L393.042 196.82L390.935 188.071L393.279 187.506Z" fill="#131313"/>
<path d="M369.238 245.075C369.128 244.785 368.917 244.591 368.605 244.492C368.293 244.392 367.93 244.391 367.516 244.491C367.22 244.562 366.974 244.666 366.778 244.802C366.582 244.936 366.441 245.09 366.357 245.264C366.274 245.436 366.254 245.613 366.298 245.796C366.335 245.95 366.407 246.073 366.514 246.165C366.623 246.257 366.752 246.325 366.902 246.369C367.054 246.411 367.212 246.438 367.377 246.452C367.541 246.464 367.698 246.468 367.846 246.466L368.591 246.46C368.833 246.456 369.086 246.467 369.349 246.495C369.611 246.523 369.863 246.583 370.104 246.674C370.344 246.765 370.553 246.9 370.73 247.078C370.91 247.255 371.034 247.489 371.104 247.78C371.193 248.146 371.165 248.497 371.022 248.832C370.882 249.167 370.631 249.464 370.271 249.724C369.914 249.984 369.453 250.182 368.889 250.318C368.349 250.448 367.863 250.484 367.431 250.425C367 250.366 366.638 250.223 366.347 249.994C366.055 249.764 365.851 249.457 365.734 249.073L366.826 248.81C366.904 249.038 367.035 249.213 367.221 249.333C367.408 249.45 367.627 249.519 367.878 249.539C368.131 249.556 368.397 249.531 368.676 249.464C368.984 249.39 369.247 249.28 369.466 249.136C369.687 248.99 369.848 248.822 369.949 248.633C370.05 248.441 370.074 248.24 370.024 248.03C369.978 247.838 369.879 247.696 369.727 247.603C369.578 247.51 369.39 247.448 369.164 247.418C368.941 247.387 368.692 247.373 368.419 247.374L367.516 247.371C366.904 247.369 366.396 247.272 365.992 247.079C365.59 246.887 365.335 246.565 365.226 246.114C365.137 245.742 365.171 245.389 365.33 245.057C365.488 244.725 365.742 244.436 366.09 244.189C366.438 243.94 366.854 243.758 367.338 243.641C367.827 243.524 368.276 243.497 368.687 243.561C369.1 243.624 369.447 243.764 369.728 243.982C370.008 244.197 370.195 244.477 370.288 244.822L369.238 245.075Z" fill="white"/>
<path d="M372.752 249.274L371.584 244.423L372.637 244.17L373.805 249.021L372.752 249.274ZM371.936 243.547C371.752 243.591 371.582 243.574 371.424 243.496C371.268 243.416 371.171 243.299 371.134 243.145C371.097 242.989 371.129 242.841 371.232 242.7C371.337 242.557 371.481 242.464 371.664 242.419C371.847 242.375 372.017 242.393 372.173 242.474C372.331 242.552 372.429 242.669 372.466 242.824C372.503 242.978 372.469 243.127 372.365 243.27C372.262 243.41 372.119 243.503 371.936 243.547Z" fill="white"/>
<path d="M377.955 250.053C377.525 250.157 377.143 250.195 376.808 250.169C376.476 250.142 376.192 250.069 375.957 249.949C375.722 249.83 375.533 249.683 375.389 249.508L376.214 248.955C376.3 249.033 376.408 249.11 376.538 249.188C376.672 249.267 376.839 249.322 377.04 249.351C377.243 249.38 377.491 249.36 377.782 249.289C378.181 249.193 378.49 249.026 378.709 248.789C378.928 248.553 378.992 248.246 378.901 247.867L378.672 246.913L378.605 246.93C378.566 247.048 378.502 247.185 378.413 247.34C378.326 247.495 378.19 247.643 378.005 247.786C377.821 247.928 377.563 248.039 377.232 248.119C376.804 248.222 376.397 248.225 376.011 248.129C375.627 248.03 375.293 247.828 375.008 247.525C374.726 247.219 374.522 246.808 374.398 246.292C374.274 245.776 374.265 245.31 374.371 244.895C374.48 244.479 374.682 244.132 374.978 243.853C375.274 243.573 375.639 243.38 376.073 243.276C376.409 243.195 376.693 243.18 376.924 243.231C377.154 243.28 377.343 243.358 377.49 243.462C377.64 243.567 377.758 243.662 377.846 243.748L377.923 243.729L377.734 242.943L378.767 242.694L379.96 247.652C380.061 248.069 380.035 248.437 379.883 248.757C379.732 249.076 379.487 249.345 379.149 249.562C378.813 249.778 378.415 249.942 377.955 250.053ZM377.276 247.28C377.579 247.207 377.82 247.082 377.998 246.905C378.179 246.726 378.295 246.504 378.345 246.24C378.398 245.974 378.384 245.673 378.303 245.338C378.225 245.012 378.102 244.737 377.934 244.515C377.766 244.293 377.561 244.137 377.318 244.049C377.075 243.958 376.8 243.949 376.492 244.024C376.175 244.1 375.928 244.237 375.752 244.436C375.576 244.632 375.464 244.868 375.416 245.145C375.37 245.421 375.385 245.713 375.459 246.023C375.536 246.341 375.657 246.607 375.823 246.821C375.989 247.035 376.194 247.184 376.438 247.268C376.684 247.351 376.963 247.355 377.276 247.28Z" fill="white"/>
<path d="M381.708 244.071L382.402 246.951L381.348 247.205L380.18 242.354L381.191 242.11L381.381 242.9L381.448 242.884C381.511 242.597 381.656 242.344 381.884 242.124C382.115 241.904 382.433 241.744 382.84 241.647C383.208 241.558 383.548 241.55 383.859 241.622C384.169 241.692 384.433 241.844 384.651 242.079C384.869 242.314 385.027 242.631 385.123 243.031L385.866 246.117L384.812 246.371L384.097 243.399C384.012 243.047 383.844 242.797 383.592 242.648C383.339 242.498 383.034 242.465 382.677 242.551C382.433 242.61 382.227 242.71 382.059 242.85C381.894 242.99 381.778 243.165 381.712 243.375C381.648 243.582 381.646 243.814 381.708 244.071Z" fill="white"/>
<path d="M392.85 242.307L392.166 239.468L393.224 239.213L394.392 244.064L393.356 244.314L393.153 243.474L393.097 243.487C393.035 243.776 392.887 244.04 392.654 244.279C392.422 244.515 392.103 244.682 391.697 244.78C391.349 244.864 391.025 244.869 390.724 244.797C390.425 244.722 390.167 244.567 389.948 244.332C389.733 244.097 389.577 243.779 389.48 243.379L388.737 240.293L389.791 240.04L390.507 243.012C390.586 243.342 390.752 243.581 391.003 243.727C391.255 243.874 391.544 243.908 391.871 243.829C392.068 243.782 392.253 243.69 392.427 243.555C392.603 243.419 392.734 243.246 392.82 243.036C392.909 242.825 392.919 242.582 392.85 242.307Z" fill="white"/>
<path d="M396.245 245.542L394.64 238.872L395.669 238.625L395.858 239.411L395.946 239.39C395.983 239.274 396.043 239.136 396.126 238.976C396.209 238.815 396.341 238.661 396.522 238.513C396.702 238.363 396.96 238.247 397.296 238.166C397.733 238.061 398.146 238.066 398.537 238.181C398.928 238.297 399.266 238.517 399.55 238.843C399.837 239.168 400.044 239.593 400.17 240.117C400.296 240.641 400.307 241.114 400.202 241.536C400.097 241.956 399.898 242.307 399.606 242.592C399.314 242.874 398.949 243.067 398.512 243.172C398.183 243.252 397.902 243.267 397.669 243.218C397.439 243.169 397.249 243.092 397.099 242.988C396.95 242.884 396.831 242.788 396.743 242.7L396.679 242.715L397.299 245.289L396.245 245.542ZM396.256 241.049C396.338 241.39 396.465 241.676 396.638 241.906C396.81 242.137 397.018 242.299 397.262 242.394C397.506 242.487 397.779 242.497 398.082 242.424C398.397 242.348 398.642 242.21 398.818 242.01C398.993 241.807 399.103 241.563 399.149 241.278C399.197 240.993 399.182 240.688 399.104 240.364C399.027 240.044 398.903 239.769 398.734 239.541C398.567 239.311 398.359 239.149 398.109 239.053C397.862 238.956 397.58 238.946 397.263 239.023C396.958 239.096 396.716 239.229 396.539 239.421C396.364 239.612 396.253 239.847 396.205 240.126C396.158 240.405 396.175 240.712 396.256 241.049Z" fill="white"/>
<path d="M167.096 77.0409C171.21 80.3762 174.545 84.8232 176.435 90.0484" stroke="white" stroke-miterlimit="10" stroke-linecap="round" stroke-linejoin="round"/>
<path d="M118.29 93.0503C121.292 81.488 130.853 72.3716 143.416 70.4816C150.976 69.3699 158.202 71.1487 164.206 74.9286" stroke="white" stroke-miterlimit="10" stroke-linecap="round" stroke-linejoin="round"/>
<path d="M127.851 123.735C122.515 119.065 118.846 112.617 117.734 105.168" stroke="white" stroke-miterlimit="10" stroke-linecap="round" stroke-linejoin="round"/>
<path d="M146.64 131.295C140.97 131.072 135.522 129.293 130.964 126.292" stroke="white" stroke-miterlimit="10" stroke-linecap="round" stroke-linejoin="round"/>
<path d="M178.103 96.3856C180.549 113.062 168.986 128.515 152.31 130.961" stroke="white" stroke-miterlimit="10" stroke-linecap="round" stroke-linejoin="round"/>
<path d="M146.779 89.2627H157.938C159.651 89.2627 160.507 89.2627 161.161 89.5959C161.736 89.889 162.204 90.3568 162.497 90.932C162.83 91.586 162.83 92.4422 162.83 94.1544V96.1417C162.83 97.5662 162.83 98.2785 162.597 98.8404C162.287 99.5895 161.692 100.185 160.943 100.495C160.381 100.728 159.669 100.728 158.244 100.728M149.837 112.193H138.677C136.965 112.193 136.109 112.193 135.455 111.859C134.88 111.566 134.412 111.099 134.119 110.523C133.786 109.869 133.786 109.013 133.786 107.301V105.314C133.786 103.889 133.786 103.177 134.018 102.615C134.329 101.866 134.924 101.271 135.673 100.96C136.235 100.728 136.947 100.728 138.372 100.728M145.709 104.549H150.907C151.335 104.549 151.549 104.549 151.712 104.466C151.856 104.393 151.973 104.276 152.046 104.132C152.13 103.969 152.13 103.754 152.13 103.326V98.129C152.13 97.7009 152.13 97.4869 152.046 97.3234C151.973 97.1795 151.856 97.0626 151.712 96.9893C151.549 96.906 151.335 96.906 150.907 96.906H145.709C145.281 96.906 145.067 96.906 144.904 96.9893C144.76 97.0626 144.643 97.1795 144.57 97.3234C144.486 97.4869 144.486 97.7009 144.486 98.129V103.326C144.486 103.754 144.486 103.969 144.57 104.132C144.643 104.276 144.76 104.393 144.904 104.466C145.067 104.549 145.281 104.549 145.709 104.549ZM157.174 116.014H162.372C162.8 116.014 163.014 116.014 163.177 115.931C163.321 115.858 163.438 115.741 163.511 115.597C163.595 115.434 163.595 115.219 163.595 114.791V109.594C163.595 109.166 163.595 108.952 163.511 108.788C163.438 108.645 163.321 108.528 163.177 108.454C163.014 108.371 162.8 108.371 162.372 108.371H157.174C156.746 108.371 156.532 108.371 156.369 108.454C156.225 108.528 156.108 108.645 156.035 108.788C155.951 108.952 155.951 109.166 155.951 109.594V114.791C155.951 115.219 155.951 115.434 156.035 115.597C156.108 115.741 156.225 115.858 156.369 115.931C156.532 116.014 156.746 116.014 157.174 116.014ZM134.244 93.0844H139.442C139.87 93.0844 140.084 93.0844 140.247 93.0011C140.391 92.9278 140.508 92.8109 140.581 92.667C140.665 92.5035 140.665 92.2895 140.665 91.8614V86.664C140.665 86.2359 140.665 86.0219 140.581 85.8584C140.508 85.7146 140.391 85.5976 140.247 85.5243C140.084 85.441 139.87 85.441 139.442 85.441H134.244C133.816 85.441 133.602 85.441 133.439 85.5243C133.295 85.5976 133.178 85.7146 133.105 85.8584C133.021 86.0219 133.021 86.2359 133.021 86.664V91.8614C133.021 92.2895 133.021 92.5035 133.105 92.667C133.178 92.8109 133.295 92.9278 133.439 93.0011C133.602 93.0844 133.816 93.0844 134.244 93.0844Z" stroke="white" stroke-linecap="round" stroke-linejoin="round"/>
<path d="M54.8088 155.976C58.9223 159.311 62.2576 163.758 64.1476 168.983" stroke="white" stroke-miterlimit="10" stroke-linecap="round" stroke-linejoin="round"/>
<path d="M6.00293 171.985C9.00467 160.423 18.5658 151.306 31.1286 149.416C38.6886 148.305 45.915 150.083 51.9185 153.863" stroke="white" stroke-miterlimit="10" stroke-linecap="round" stroke-linejoin="round"/>
<path d="M15.564 202.67C10.2276 198 6.55878 191.552 5.44702 184.103" stroke="white" stroke-miterlimit="10" stroke-linecap="round" stroke-linejoin="round"/>
<path d="M34.3525 210.229C28.6826 210.007 23.235 208.228 18.6768 205.227" stroke="white" stroke-miterlimit="10" stroke-linecap="round" stroke-linejoin="round"/>
<path d="M65.8155 175.32C68.2613 191.997 56.6991 207.45 40.0227 209.896" stroke="white" stroke-miterlimit="10" stroke-linecap="round" stroke-linejoin="round"/>
<path d="M32.1986 172.784H38.6955C40.595 172.784 42.135 174.323 42.135 176.223C42.135 178.123 40.595 179.663 38.6955 179.663H32.1986H39.4598C41.3594 179.663 42.8993 181.202 42.8993 183.102C42.8993 185.002 41.3594 186.541 39.4598 186.541H32.1986M32.1986 172.784H29.9056M32.1986 172.784V186.541M32.1986 186.541H29.9056M32.963 170.491V172.784M32.963 186.541V188.834M37.549 170.491V172.784M37.549 186.541V188.834M51.3069 179.663C51.3069 188.105 44.4629 194.949 36.0203 194.949C27.5777 194.949 20.7336 188.105 20.7336 179.663C20.7336 171.22 27.5777 164.376 36.0203 164.376C44.4629 164.376 51.3069 171.22 51.3069 179.663Z" stroke="white" stroke-linecap="round" stroke-linejoin="round"/>
<path d="M276.014 10.434C281.515 14.8937 285.975 20.8401 288.502 27.827" stroke="white" stroke-miterlimit="10" stroke-linecap="round" stroke-linejoin="round"/>
<path d="M210.753 31.841C214.767 16.3805 227.552 4.19046 244.35 1.66327C254.459 0.176679 264.122 2.55522 272.149 7.60962" stroke="white" stroke-miterlimit="10" stroke-linecap="round" stroke-linejoin="round"/>
<path d="M223.538 72.8707C216.403 66.627 211.497 58.0048 210.01 48.0447" stroke="white" stroke-miterlimit="10" stroke-linecap="round" stroke-linejoin="round"/>
<path d="M248.661 82.9794C241.08 82.6821 233.795 80.3036 227.7 76.2898" stroke="white" stroke-miterlimit="10" stroke-linecap="round" stroke-linejoin="round"/>
<path d="M290.732 36.3007C294.002 58.5995 278.542 79.263 256.243 82.5335" stroke="white" stroke-miterlimit="10" stroke-linecap="round" stroke-linejoin="round"/>
<path d="M254.018 34.6498C252.848 35.484 251.416 35.9747 249.869 35.9747C245.918 35.9747 242.715 32.7716 242.715 28.8205C242.715 24.8693 245.918 21.6663 249.869 21.6663C252.431 21.6663 254.677 23.0121 255.941 25.0352M238.627 58.6374H243.963C244.658 58.6374 245.35 58.7202 246.024 58.8858L251.662 60.2558C252.885 60.5538 254.159 60.5828 255.396 60.3427L261.629 59.13C263.276 58.8092 264.79 58.0207 265.977 56.866L270.387 52.5759C271.647 51.3528 271.647 49.3682 270.387 48.1431C269.254 47.04 267.458 46.9159 266.175 47.8513L261.035 51.6012C260.299 52.1392 259.404 52.429 258.482 52.429H253.519L256.678 52.4288C258.459 52.4288 259.901 51.0257 259.901 49.2936V48.6665C259.901 47.2282 258.895 45.9741 257.461 45.6264L252.585 44.4406C251.792 44.2482 250.979 44.1509 250.162 44.1509C248.19 44.1509 244.62 45.7837 244.62 45.7837L238.627 48.2899M267.244 30.8645C267.244 34.8157 264.041 38.0187 260.09 38.0187C256.139 38.0187 252.936 34.8157 252.936 30.8645C252.936 26.9134 256.139 23.7103 260.09 23.7103C264.041 23.7103 267.244 26.9134 267.244 30.8645ZM230.451 47.4214L230.451 59.2769C230.451 60.4217 230.451 60.9941 230.674 61.4313C230.87 61.8159 231.182 62.1286 231.567 62.3246C232.004 62.5474 232.577 62.5474 233.721 62.5474H235.357C236.501 62.5474 237.074 62.5474 237.511 62.3246C237.896 62.1286 238.208 61.8159 238.404 61.4313C238.627 60.9941 238.627 60.4217 238.627 59.2769V47.4214C238.627 46.2766 238.627 45.7042 238.404 45.267C238.208 44.8824 237.896 44.5697 237.511 44.3737C237.074 44.1509 236.501 44.1509 235.357 44.1509L233.721 44.1509C232.577 44.1509 232.004 44.1509 231.567 44.3737C231.182 44.5697 230.87 44.8824 230.674 45.267C230.451 45.7042 230.451 46.2766 230.451 47.4214Z" stroke="white" stroke-linecap="round" stroke-linejoin="round"/>
<path d="M396.084 41.5631C401.585 46.0229 406.044 51.9692 408.572 58.9562" stroke="white" stroke-miterlimit="10" stroke-linecap="round" stroke-linejoin="round"/>
<path d="M330.823 62.9701C334.837 47.5096 347.621 35.3196 364.42 32.7924C374.529 31.3058 384.191 33.6844 392.219 38.7388" stroke="white" stroke-miterlimit="10" stroke-linecap="round" stroke-linejoin="round"/>
<path d="M343.608 104C336.472 97.7563 331.566 89.1341 330.08 79.174" stroke="white" stroke-miterlimit="10" stroke-linecap="round" stroke-linejoin="round"/>
<path d="M368.731 114.109C361.149 113.811 353.865 111.433 347.77 107.419" stroke="white" stroke-miterlimit="10" stroke-linecap="round" stroke-linejoin="round"/>
<path d="M410.802 67.4299C414.072 89.7287 398.612 110.392 376.313 113.663" stroke="white" stroke-miterlimit="10" stroke-linecap="round" stroke-linejoin="round"/>
<path d="M372.272 101.284C372.066 101.216 371.863 101.148 371.654 101.077C370.892 100.818 370.229 100.329 369.758 99.6776C369.286 99.026 369.028 98.2438 369.021 97.4394C369.015 96.6432 369.26 95.8655 369.72 95.2158C370.18 94.5661 370.833 94.0773 371.586 93.8182C372.031 93.6672 372.13 93.4617 372.13 93.0235C372.101 91.5266 372.119 90.0297 372.121 88.5328C372.114 88.3627 372.123 88.1924 372.146 88.0239C372.219 87.6156 372.47 87.3938 372.885 87.3938C373.3 87.3938 373.566 87.617 373.62 88.0252C373.651 88.3463 373.661 88.669 373.65 88.9914C373.65 90.4026 373.65 91.8124 373.65 93.2236C373.65 93.4889 373.698 93.6413 373.997 93.7379C375.716 94.2945 376.813 95.8295 376.747 97.5374C376.679 99.3064 375.498 100.731 373.725 101.184C373.647 101.21 373.572 101.242 373.499 101.28L372.272 101.284ZM372.845 99.7514C373.304 99.7583 373.756 99.6289 374.142 99.3794C374.529 99.13 374.832 98.7717 375.015 98.3498C375.198 97.9278 375.252 97.4612 375.171 97.0086C375.089 96.5561 374.875 96.1379 374.555 95.8069C374.236 95.4759 373.826 95.2469 373.377 95.1487C372.927 95.0505 372.459 95.0875 372.031 95.2551C371.602 95.4228 371.233 95.7135 370.97 96.0906C370.707 96.4677 370.561 96.9143 370.552 97.3741C370.546 97.9912 370.783 98.5859 371.212 99.0295C371.641 99.4731 372.228 99.73 372.845 99.7446V99.7514Z" fill="white"/>
<path d="M346.756 74.5372C346.799 74.412 346.848 74.2881 346.883 74.1616C347.103 73.3503 347.58 72.6321 348.243 72.1142C348.905 71.5962 349.717 71.3062 350.557 71.2875C351.379 71.2738 352.184 71.5246 352.853 72.0032C353.522 72.4817 354.02 73.1625 354.272 73.9452C354.391 74.3208 354.559 74.4011 354.913 74.3984C356.527 74.382 358.142 74.3848 359.756 74.3984C360.42 74.3984 360.807 74.861 360.618 75.3972C360.461 75.8422 360.088 75.9266 359.665 75.9266C358.458 75.9266 357.251 75.9266 356.045 75.9266C355.825 75.9443 355.603 75.9443 355.383 75.9266C354.702 75.815 354.362 76.0409 354.098 76.7322C353.536 78.2046 351.986 79.1027 350.451 79.017C349.663 78.979 348.906 78.7016 348.28 78.2218C347.654 77.7421 347.19 77.0828 346.948 76.3321C346.892 76.1416 346.82 75.9524 346.756 75.7619V74.5372ZM350.616 72.8171C349.997 72.8198 349.405 73.0681 348.969 73.5075C348.534 73.9468 348.291 74.5411 348.293 75.1597C348.296 75.7783 348.544 76.3705 348.984 76.806C349.423 77.2415 350.017 77.4847 350.636 77.482C351.255 77.4793 351.847 77.2309 352.282 76.7916C352.718 76.3523 352.961 75.7579 352.958 75.1393C352.956 74.5207 352.707 73.9285 352.268 73.493C351.829 73.0575 351.234 72.8144 350.616 72.8171V72.8171Z" fill="white"/>
<path d="M372.095 83.2735C372.103 83.068 372.117 82.902 372.117 82.7292C372.117 79.719 372.117 76.7084 372.117 73.6974C372.117 73.383 372.08 73.1708 371.728 73.0415C369.465 72.2114 367.21 71.3581 364.952 70.5144C364.86 70.4804 364.76 70.4627 364.578 70.4137C364.578 70.8056 364.578 71.1527 364.578 71.5024C364.568 72.1392 364.283 72.4944 363.795 72.4863C363.308 72.4781 363.055 72.1365 363.051 71.5337C363.051 70.8193 363.051 70.1048 363.051 69.3904C363.051 68.94 363.248 68.6664 363.672 68.5086C366.597 67.4199 369.523 66.3122 372.45 65.2426C372.735 65.1467 373.043 65.1467 373.328 65.2426C376.244 66.3108 379.144 67.409 382.059 68.4882C382.526 68.6623 382.723 68.9576 382.72 69.4489C382.708 71.1663 382.72 72.885 382.72 74.6023C382.72 75.2229 382.448 75.5549 381.973 75.5549C381.498 75.5549 381.196 75.2188 381.193 74.5724C381.193 73.2116 381.193 71.8508 381.193 70.426C381.002 70.479 380.861 70.5063 380.729 70.5621C378.503 71.3935 376.278 72.2318 374.051 73.0605C373.807 73.1503 373.652 73.2442 373.653 73.5518C373.664 76.7157 373.653 79.8782 373.663 83.0421C373.671 83.1301 373.685 83.2173 373.705 83.3034C374.072 83.1673 374.417 83.0449 374.76 82.9156C376.763 82.1658 378.763 81.4064 380.773 80.673C381.102 80.5518 381.221 80.3926 381.2 80.047C381.172 79.538 381.184 79.0264 381.2 78.5161C381.214 77.9554 381.505 77.6179 381.958 77.6111C382.411 77.6043 382.718 77.9418 382.724 78.497C382.734 79.2958 382.724 80.0946 382.724 80.8948C382.731 81.3425 382.545 81.6323 382.123 81.7916C379.174 82.8857 376.236 84.0015 373.293 85.0793C373.022 85.1667 372.73 85.1633 372.461 85.0698C369.53 83.9906 366.61 82.8843 363.681 81.7943C363.261 81.6378 363.054 81.3683 363.055 80.9165C363.062 79.0971 363.055 77.2764 363.055 75.4569C363.055 74.8908 363.345 74.5547 363.798 74.5479C364.251 74.5411 364.577 74.8949 364.579 75.4841C364.587 77.0155 364.587 78.546 364.579 80.0756C364.579 80.3613 364.636 80.5301 364.941 80.6417C367.188 81.4663 369.432 82.3128 371.67 83.1497C371.796 83.1959 371.924 83.2245 372.095 83.2735ZM366.005 69.272C367.731 69.9211 369.407 70.4518 370.985 71.1771C372.302 71.78 373.468 71.7868 374.787 71.1771C376.369 70.4518 378.04 69.9211 379.746 69.2802C379.501 69.1781 379.337 69.1005 379.16 69.0366C377.747 68.5045 376.286 68.0677 374.93 67.4172C373.518 66.7368 372.208 66.6728 370.847 67.4431C370.556 67.6077 370.214 67.6839 369.895 67.8037L366.005 69.272Z" fill="white"/>
<path d="M384.402 64.6774C383.839 65.253 383.297 65.815 382.746 66.3675C382.326 66.788 381.871 66.8329 381.538 66.5036C381.204 66.1743 381.245 65.7129 381.66 65.2965C382.222 64.7332 382.795 64.1807 383.352 63.6336C381.353 60.6139 382.566 57.5453 384.465 56.1586C385.495 55.3985 386.765 55.0371 388.04 55.1411C389.316 55.245 390.511 55.8074 391.404 56.7242C392.297 57.641 392.828 58.8502 392.898 60.1282C392.969 61.4061 392.574 62.6663 391.787 63.6758C390.357 65.5483 387.321 66.6247 384.402 64.6774ZM387.606 56.6662C386.859 56.6657 386.129 56.8868 385.509 57.3017C384.888 57.7165 384.405 58.3062 384.12 58.9961C383.835 59.6861 383.762 60.445 383.909 61.1768C384.056 61.9086 384.417 62.5802 384.946 63.1065C385.476 63.6328 386.149 63.99 386.882 64.1328C387.615 64.2756 388.373 64.1977 389.061 63.9088C389.75 63.6199 390.337 63.1331 390.748 62.5102C391.159 61.8873 391.376 61.1562 391.371 60.4098C391.365 59.4149 390.965 58.4629 390.26 57.7612C389.555 57.0594 388.601 56.6649 387.606 56.6635V56.6662Z" fill="white"/>
<path d="M384.41 85.6181C387.299 83.6844 390.336 84.7322 391.786 86.6183C392.569 87.6313 392.959 88.894 392.884 90.1725C392.808 91.4511 392.271 92.6588 391.373 93.5722C390.476 94.4855 389.277 95.0425 388 95.1401C386.723 95.2377 385.454 94.8692 384.428 94.1029C382.535 92.6985 381.373 89.638 383.339 86.6755C382.761 86.0985 382.166 85.5188 381.586 84.9255C381.231 84.5608 381.222 84.0981 381.533 83.7905C381.845 83.483 382.297 83.5061 382.671 83.8518C382.796 83.9675 382.913 84.0913 383.031 84.2124L384.41 85.6181ZM391.369 89.8707C391.37 89.1245 391.149 88.3951 390.734 87.7747C390.319 87.1544 389.73 86.6712 389.04 86.3864C388.35 86.1017 387.592 86.0281 386.86 86.1752C386.129 86.3222 385.457 86.6832 384.931 87.2123C384.405 87.7414 384.048 88.4149 383.905 89.1472C383.762 89.8796 383.84 90.6379 384.129 91.3259C384.418 92.0139 384.905 92.6006 385.527 93.0117C386.15 93.4227 386.881 93.6396 387.627 93.6347C388.621 93.6268 389.571 93.2271 390.272 92.5222C390.973 91.8174 391.367 90.8646 391.369 89.8707V89.8707Z" fill="white"/>
<path d="M361.383 85.5988C361.913 85.0544 362.456 84.4992 363.007 83.9481C363.431 83.5249 363.881 83.4677 364.216 83.7807C364.551 84.0937 364.523 84.589 364.08 85.0259C363.535 85.577 362.967 86.1145 362.395 86.6779C363.36 88.0836 363.685 89.5669 363.281 91.1781C362.983 92.3969 362.252 93.4657 361.225 94.1856C360.205 94.908 358.962 95.2461 357.716 95.1402C356.47 95.0342 355.303 94.491 354.419 93.6066C353.535 92.7223 352.993 91.5539 352.889 90.3082C352.784 89.0625 353.123 87.8199 353.846 86.8004C355.557 84.4298 358.175 84.0012 361.383 85.5988ZM358.174 93.6344C358.92 93.6325 359.649 93.4091 360.268 92.9924C360.886 92.5758 361.368 91.9848 361.65 91.2943C361.933 90.6037 362.004 89.8449 361.855 89.1139C361.705 88.3829 361.342 87.7127 360.812 87.1883C360.281 86.6639 359.606 86.3089 358.874 86.1684C358.141 86.0278 357.383 86.108 356.696 86.3988C356.009 86.6896 355.424 87.1779 355.014 87.8018C354.605 88.4257 354.391 89.157 354.398 89.9031C354.408 90.8973 354.81 91.8474 355.517 92.5463C356.225 93.2452 357.179 93.6363 358.174 93.6344V93.6344Z" fill="white"/>
<path d="M362.43 63.6285C362.975 64.1728 363.531 64.7172 364.081 65.2615C364.521 65.7038 364.57 66.176 364.217 66.5067C363.865 66.8373 363.429 66.7788 363.009 66.3515C362.464 65.799 361.92 65.2356 361.355 64.6587C359.918 65.6493 358.397 65.965 356.76 65.5269C355.545 65.2084 354.489 64.458 353.788 63.4162C353.077 62.382 352.757 61.1292 352.883 59.8808C353.01 58.6324 353.575 57.4695 354.479 56.5989C355.383 55.7284 356.566 55.2068 357.818 55.1269C359.07 55.0471 360.31 55.4143 361.317 56.163C363.086 57.4558 364.48 60.4687 362.43 63.6285ZM354.402 60.4428C354.404 61.1891 354.628 61.9178 355.045 62.5365C355.463 63.1552 356.054 63.636 356.745 63.9179C357.436 64.1999 358.195 64.2702 358.926 64.12C359.657 63.9699 360.327 63.606 360.851 63.0745C361.375 62.543 361.729 61.8678 361.869 61.1347C362.008 60.4017 361.927 59.6436 361.635 58.9568C361.343 58.27 360.854 57.6854 360.229 57.2772C359.604 56.869 358.872 56.6555 358.126 56.6638C357.132 56.676 356.184 57.0797 355.486 57.7872C354.788 58.4948 354.397 59.449 354.399 60.4428H354.402Z" fill="white"/>
<path d="M372.118 59.5324C372.118 58.7336 372.102 57.9335 372.126 57.1347C372.136 56.7863 372.023 56.6461 371.683 56.5332C370.814 56.2459 370.077 55.6587 369.602 54.8771C369.128 54.0954 368.947 53.1702 369.092 52.2673C369.238 51.3644 369.7 50.5429 370.396 49.9499C371.092 49.3569 371.977 49.0312 372.892 49.0312C373.806 49.0312 374.691 49.3569 375.387 49.9499C376.083 50.5429 376.545 51.3644 376.691 52.2673C376.837 53.1702 376.656 54.0954 376.181 54.8771C375.706 55.6587 374.969 56.2459 374.101 56.5332C373.724 56.6543 373.641 56.819 373.643 57.1728C373.658 58.7364 373.656 60.3027 373.643 61.8649C373.643 62.0962 373.643 62.4092 373.507 62.5371C373.284 62.7423 372.994 62.8605 372.691 62.8705C372.315 62.8515 372.132 62.514 372.128 62.1343C372.118 61.2675 372.128 60.4006 372.128 59.5338L372.118 59.5324ZM375.217 52.8821C375.215 52.5758 375.154 52.2727 375.035 51.9902C374.917 51.7077 374.744 51.4513 374.527 51.2356C374.309 51.0199 374.051 50.8491 373.768 50.7331C373.484 50.617 373.181 50.5579 372.875 50.5592C372.568 50.5604 372.265 50.622 371.983 50.7404C371.7 50.8587 371.444 51.0316 371.228 51.2491C371.012 51.4665 370.842 51.7244 370.726 52.0078C370.61 52.2913 370.55 52.5949 370.552 52.9012C370.554 53.5198 370.802 54.112 371.242 54.5477C371.681 54.9833 372.275 55.2266 372.894 55.2241C373.512 55.2216 374.105 54.9734 374.54 54.5342C374.976 54.095 375.219 53.5007 375.217 52.8821V52.8821Z" fill="white"/>
<path d="M399.012 75.137C399.012 76.0375 398.698 76.91 398.124 77.6034C397.549 78.2967 396.75 78.7674 395.865 78.9337C393.96 79.2671 392.154 78.2533 391.541 76.4353C391.395 76.0066 391.198 75.9073 390.785 75.9127C389.289 75.9345 387.792 75.9236 386.295 75.9209C386.108 75.9257 385.921 75.9134 385.737 75.8841C385.561 75.8525 385.403 75.759 385.291 75.6207C385.178 75.4825 385.119 75.3085 385.124 75.1303C385.129 74.9521 385.197 74.7816 385.317 74.6495C385.436 74.5174 385.599 74.4326 385.776 74.4104C386.03 74.3883 386.285 74.382 386.54 74.3913C387.951 74.3913 389.363 74.3791 390.775 74.3981C391.183 74.3981 391.386 74.326 391.53 73.8851C392.129 72.0711 393.94 71.0369 395.84 71.3621C396.726 71.5217 397.529 71.9866 398.108 72.6762C398.687 73.3657 399.007 74.2364 399.012 75.137V75.137ZM397.481 75.137C397.477 74.6771 397.336 74.2287 397.078 73.8484C396.819 73.468 396.454 73.1728 396.028 72.9999C395.601 72.827 395.134 72.7842 394.683 72.8769C394.233 72.9696 393.82 73.1936 393.496 73.5207C393.173 73.8478 392.954 74.2633 392.866 74.7149C392.779 75.1664 392.827 75.6337 393.005 76.0579C393.183 76.482 393.482 76.844 393.866 77.0981C394.249 77.3522 394.699 77.4871 395.159 77.4858C395.778 77.4786 396.369 77.2274 396.803 76.7868C397.238 76.3462 397.481 75.7518 397.479 75.133L397.481 75.137Z" fill="white"/>
<path d="M169.32 171.54C173.433 174.876 176.769 179.323 178.659 184.548" stroke="white" stroke-miterlimit="10" stroke-linecap="round" stroke-linejoin="round"/>
<path d="M120.514 187.55C123.516 175.987 133.077 166.871 145.64 164.981C153.2 163.869 160.426 165.648 166.429 169.428" stroke="white" stroke-miterlimit="10" stroke-linecap="round" stroke-linejoin="round"/>
<path d="M130.075 218.234C124.739 213.565 121.07 207.117 119.958 199.668" stroke="white" stroke-miterlimit="10" stroke-linecap="round" stroke-linejoin="round"/>
<path d="M148.864 225.794C143.194 225.572 137.746 223.793 133.188 220.791" stroke="white" stroke-miterlimit="10" stroke-linecap="round" stroke-linejoin="round"/>
<path d="M180.326 190.885C182.772 207.561 171.21 223.015 154.534 225.461" stroke="white" stroke-miterlimit="10" stroke-linecap="round" stroke-linejoin="round"/>
<path d="M157.41 198.284H157.425M136.773 184.526V205.928C136.773 207.616 138.142 208.985 139.831 208.985H161.232C162.92 208.985 164.289 207.616 164.289 205.928V190.641C164.289 188.952 162.92 187.584 161.232 187.584L139.831 187.584C138.142 187.584 136.773 186.215 136.773 184.526ZM136.773 184.526C136.773 182.838 138.142 181.469 139.831 181.469H158.175M158.175 198.284C158.175 198.706 157.832 199.049 157.41 199.049C156.988 199.049 156.646 198.706 156.646 198.284C156.646 197.862 156.988 197.52 157.41 197.52C157.832 197.52 158.175 197.862 158.175 198.284Z" stroke="white" stroke-linecap="round" stroke-linejoin="round"/>
<defs>
<linearGradient id="paint0_linear_4593_91744" x1="143.314" y1="404.727" x2="161.012" y2="404.727" gradientUnits="userSpaceOnUse">
<stop stop-color="#43D9BB"/>
<stop offset="1" stop-color="#0299ED"/>
</linearGradient>
<linearGradient id="paint1_linear_4593_91744" x1="90.666" y1="357.305" x2="342.342" y2="357.305" gradientUnits="userSpaceOnUse">
<stop stop-color="#43D9BB"/>
<stop offset="1" stop-color="#0299ED"/>
</linearGradient>
<linearGradient id="paint2_linear_4593_91744" x1="288.398" y1="283.662" x2="384.935" y2="283.662" gradientUnits="userSpaceOnUse">
<stop stop-color="#43D9BB"/>
<stop offset="1" stop-color="#0299ED"/>
</linearGradient>
<linearGradient id="paint3_linear_4593_91744" x1="325.507" y1="287.767" x2="376.738" y2="287.767" gradientUnits="userSpaceOnUse">
<stop stop-color="#43D9BB"/>
<stop offset="1" stop-color="#0299ED"/>
</linearGradient>
<linearGradient id="paint4_linear_4593_91744" x1="348.042" y1="146.707" x2="350.117" y2="146.707" gradientUnits="userSpaceOnUse">
<stop stop-color="#43D9BB"/>
<stop offset="1" stop-color="#0299ED"/>
</linearGradient>
<linearGradient id="paint5_linear_4593_91744" x1="364.192" y1="142.589" x2="365.464" y2="142.589" gradientUnits="userSpaceOnUse">
<stop stop-color="#43D9BB"/>
<stop offset="1" stop-color="#0299ED"/>
</linearGradient>
<linearGradient id="paint6_linear_4593_91744" x1="352.324" y1="144.743" x2="360.457" y2="144.743" gradientUnits="userSpaceOnUse">
<stop stop-color="#43D9BB"/>
<stop offset="1" stop-color="#0299ED"/>
</linearGradient>
<linearGradient id="paint7_linear_4593_91744" x1="317.754" y1="212.757" x2="413.954" y2="212.757" gradientUnits="userSpaceOnUse">
<stop stop-color="#43D9BB"/>
<stop offset="1" stop-color="#0299ED"/>
</linearGradient>
</defs>
</svg>
