<svg width="45" height="45" viewBox="0 0 45 45" fill="none" xmlns="http://www.w3.org/2000/svg">
<circle cx="22.5" cy="22.5" r="22" stroke="url(#paint0_linear_3933_77691)"/>
<path d="M13 25C12.7348 25 12.4804 25.1053 12.2929 25.2929C12.1054 25.4804 12 25.7348 12 26V28.6713C12 28.9351 12.1042 29.1881 12.2898 29.3754C12.4755 29.5627 12.7276 29.669 12.9913 29.6713C13.7107 29.6757 14.8267 29.684 15.364 29.682C15.5368 29.6854 15.7083 29.7124 15.8737 29.7623L22.5704 31.9203C22.8256 32.0023 23.0968 32.0216 23.361 31.9764C23.6252 31.9313 23.8746 31.8231 24.0881 31.661L31.5731 25.975C31.6923 25.8825 31.7912 25.7666 31.8638 25.6344C31.9364 25.5022 31.9811 25.3565 31.9952 25.2063C32.0093 25.0561 31.9924 24.9047 31.9456 24.7613C31.8988 24.6179 31.8231 24.4856 31.7231 24.3726L31.7118 24.3596C31.5374 24.166 31.2995 24.041 31.0411 24.0073C30.7827 23.9735 30.5207 24.0333 30.3024 24.1756L27.4301 25.9943C27.4073 25.7199 27.2925 25.4613 27.1043 25.2603C26.916 25.0594 26.6654 24.9279 26.3931 24.8873L26.0727 24.8366L29.7334 22.6936C29.9159 22.5848 30.067 22.4306 30.1722 22.246C30.2773 22.0614 30.3329 21.8527 30.3334 21.6403V16.0273C30.3341 15.8145 30.279 15.6053 30.1738 15.4204C30.0685 15.2355 29.9167 15.0813 29.7334 14.9733L24.9374 12.1622C24.7537 12.056 24.5452 12 24.3329 12C24.1206 12 23.9121 12.056 23.7284 12.1622L18.9364 14.9723C18.7525 15.0801 18.6 15.2343 18.4942 15.4194C18.3884 15.6045 18.333 15.8141 18.3334 16.0273V21.6403C18.3338 21.8529 18.3892 22.0618 18.4944 22.2465C18.5995 22.4313 18.7508 22.5857 18.9334 22.6946L21.3001 24.0803L18.8357 23.6896C18.4118 23.6255 17.9785 23.6985 17.599 23.898L15.9537 24.798C15.7082 24.9317 15.4332 25.0017 15.1537 25.0016L13 25ZM29.3954 22.119L25.0334 24.672L24.6667 24.6136V19.2826C24.7644 19.2533 24.8577 19.2113 24.9444 19.1576L29.6668 16.2449V21.6403C29.6667 21.7367 29.6416 21.8314 29.5941 21.9153C29.5465 21.9992 29.4781 22.0693 29.3954 22.119ZM24.0641 12.7392C24.1458 12.6921 24.2384 12.6672 24.3327 12.6672C24.4271 12.6672 24.5197 12.6921 24.6014 12.7392L29.3961 15.5499C29.4161 15.5633 29.4351 15.578 29.4531 15.5939L24.5924 18.5909C24.5149 18.6408 24.4247 18.6673 24.3326 18.6673C24.2404 18.6673 24.1502 18.6408 24.0727 18.5909L19.2137 15.5929C19.2321 15.5766 19.2515 15.5617 19.272 15.5483L24.0641 12.7392ZM19.2734 22.12C19.1902 22.0705 19.1213 22.0003 19.0734 21.9162C19.0255 21.8321 19.0002 21.7371 19 21.6403V16.2446L23.7207 19.1563C23.808 19.2103 23.9019 19.2528 24.0001 19.2826V24.508L23.1104 24.3666L19.2734 22.12ZM16.2734 25.3816L17.914 24.486C18.1659 24.3551 18.4526 24.3069 18.7334 24.3483L26.2894 25.546C26.4296 25.5677 26.5564 25.6415 26.6446 25.7526C26.7327 25.8637 26.7758 26.004 26.7651 26.1454C26.7544 26.2869 26.6908 26.4191 26.5869 26.5157C26.483 26.6123 26.3466 26.6662 26.2047 26.6667H19.6667C19.5783 26.6667 19.4935 26.7018 19.431 26.7643C19.3685 26.8268 19.3334 26.9116 19.3334 27C19.3334 27.0884 19.3685 27.1732 19.431 27.2357C19.4935 27.2982 19.5783 27.3333 19.6667 27.3333H21.2214L23.1927 28.831C23.3269 28.9323 23.4887 28.9903 23.6567 28.9974C23.8247 29.0045 23.9908 28.9603 24.1331 28.8707L30.6628 24.7373C30.7472 24.6818 30.8485 24.6578 30.9489 24.6695C31.0493 24.6812 31.1423 24.7279 31.2118 24.8013C31.2144 24.8047 31.2172 24.8079 31.2201 24.811C31.2603 24.8553 31.291 24.9074 31.3102 24.9641C31.3294 25.0208 31.3368 25.0808 31.3319 25.1404C31.3269 25.2001 31.3098 25.258 31.2815 25.3108C31.2532 25.3635 31.2144 25.4099 31.1674 25.447L23.6851 31.13C23.557 31.2271 23.4073 31.2919 23.2489 31.3189C23.0904 31.3459 22.9278 31.3342 22.7747 31.285L16.078 29.1273C15.8484 29.0531 15.6087 29.0151 15.3674 29.015H15.3634C14.83 29.0173 13.7137 29.0087 12.9967 29.0043C12.909 29.0032 12.8253 28.9676 12.7638 28.9052C12.7022 28.8428 12.6677 28.7587 12.6677 28.671V26C12.6677 25.9116 12.7028 25.8268 12.7653 25.7643C12.8278 25.7018 12.9126 25.6666 13.001 25.6666H15.1564C15.547 25.6663 15.9313 25.5683 16.2744 25.3816H16.2734ZM25.3151 27.3333L23.7764 28.3077C23.7489 28.3247 23.717 28.3331 23.6847 28.3317C23.6524 28.3303 23.6213 28.3193 23.5954 28.3L22.3231 27.3333H25.3151Z" fill="white"/>
<defs>
<linearGradient id="paint0_linear_3933_77691" x1="0" y1="22.5" x2="38.1036" y2="22.5" gradientUnits="userSpaceOnUse">
<stop stop-color="#43D9BB"/>
<stop offset="1" stop-color="#0299ED"/>
</linearGradient>
</defs>
</svg>
