<svg width="80" height="80" viewBox="0 0 80 80" fill="none" xmlns="http://www.w3.org/2000/svg">
<path d="M40 80C62.0914 80 80 62.0914 80 40C80 17.9086 62.0914 0 40 0C17.9086 0 0 17.9086 0 40C0 62.0914 17.9086 80 40 80Z" fill="url(#paint0_linear_3843_70196)"/>
<path d="M65.257 37.5546L53.9589 26.2565L53.9384 26.236L53.8937 26.1969C53.8205 26.1308 53.744 26.0686 53.6644 26.0105C53.6085 25.9658 53.5526 25.9229 53.493 25.8838C53.4669 25.8651 53.4408 25.8502 53.4128 25.8335C52.7687 25.4116 51.9895 25.2474 51.2299 25.3734C50.4703 25.4994 49.7859 25.9065 49.3125 26.5137L31.741 44.0871V28.4315C31.741 27.6085 31.4141 26.8192 30.8321 26.2373C30.2502 25.6553 29.4609 25.3284 28.6379 25.3284C27.8148 25.3284 27.0255 25.6553 26.4436 26.2373C25.8616 26.8192 25.5347 27.6085 25.5347 28.4315V44.0871L19.1196 37.6721C18.5333 37.1129 17.7514 36.8053 16.9413 36.8149C16.1311 36.8246 15.3568 37.1507 14.7839 37.7236C14.211 38.2965 13.8849 39.0708 13.8752 39.881C13.8656 40.6911 14.1732 41.473 14.7323 42.0593L26.4442 53.7712C26.5178 53.8458 26.5956 53.9161 26.6772 53.9818C26.7555 54.0452 26.8375 54.1067 26.9195 54.1682C27.3426 54.4424 27.8263 54.6094 28.3285 54.6546H28.3415C28.4422 54.6639 28.5428 54.6695 28.6434 54.6695H28.69C28.7745 54.6695 28.8584 54.6658 28.9416 54.6583H29.0031C29.0833 54.649 29.1634 54.6397 29.2417 54.6229H29.2771C29.3647 54.6043 29.4523 54.5838 29.538 54.5577H29.553C29.6465 54.5295 29.7386 54.4965 29.8288 54.4589C29.9573 54.4058 30.0819 54.3435 30.2015 54.2725L30.2724 54.2316C30.3896 54.1599 30.5017 54.0802 30.6078 53.993L30.6395 53.965C30.7048 53.9091 30.77 53.8532 30.8259 53.7898L48.6434 35.9611V51.5682C48.6434 52.3913 48.9704 53.1805 49.5523 53.7625C50.1343 54.3445 50.9236 54.6714 51.7466 54.6714C52.5696 54.6714 53.3589 54.3445 53.9409 53.7625C54.5228 53.1805 54.8498 52.3913 54.8498 51.5682V35.9127L60.8697 41.9438C61.4541 42.5142 62.2398 42.8313 63.0564 42.8263C63.873 42.8213 64.6547 42.4946 65.2321 41.917C65.8094 41.3394 66.1358 40.5576 66.1404 39.7409C66.1451 38.9243 65.8277 38.1388 65.257 37.5546Z" fill="white"/>
<defs>
<linearGradient id="paint0_linear_3843_70196" x1="5.35272" y1="19.9963" x2="74.6473" y2="60.0019" gradientUnits="userSpaceOnUse">
<stop offset="0.13" stop-color="#348BED"/>
<stop offset="0.31" stop-color="#2B80E8"/>
<stop offset="0.64" stop-color="#1461DB"/>
<stop offset="0.72" stop-color="#0E57D7"/>
</linearGradient>
</defs>
</svg>
