<svg width="700" height="230" viewBox="0 0 700 230" fill="none" xmlns="http://www.w3.org/2000/svg">
<path d="M101.316 180.026C90.1526 180.026 80.7896 178.401 73.2273 175.15C65.7849 171.779 60.0832 167.445 56.1219 162.148C52.2807 156.73 50.2401 151.071 50 145.172C50 144.088 50.3601 143.185 51.0803 142.463C51.8006 141.741 52.7008 141.379 53.7812 141.379H69.8062C71.3667 141.379 72.5071 141.741 73.2273 142.463C74.0675 143.065 74.7878 143.848 75.388 144.811C76.1082 147.098 77.4886 149.386 79.5293 151.673C81.5699 153.84 84.3308 155.646 87.8118 157.091C91.413 158.536 95.9144 159.258 101.316 159.258C109.959 159.258 116.381 157.813 120.582 154.924C124.903 152.034 127.064 148.122 127.064 143.185C127.064 139.694 125.924 136.925 123.643 134.878C121.362 132.711 117.821 130.785 113.02 129.099C108.338 127.293 102.096 125.427 94.2939 123.501C85.2911 121.334 77.7287 118.745 71.6068 115.735C65.6049 112.605 61.0435 108.692 57.9225 103.997C54.9215 99.3016 53.4211 93.342 53.4211 86.1184C53.4211 79.1355 55.2817 72.9352 59.0028 67.5174C62.844 62.0996 68.2457 57.8256 75.2079 54.6954C82.2901 51.5651 90.6927 50 100.416 50C108.218 50 115.12 51.0836 121.122 53.2507C127.124 55.2974 132.106 58.0664 136.067 61.5579C140.028 64.9289 143.029 68.601 145.07 72.574C147.23 76.4266 148.371 80.219 148.491 83.9513C148.491 84.9144 148.131 85.8174 147.411 86.6601C146.81 87.3825 145.91 87.7437 144.71 87.7437H127.964C127.004 87.7437 126.044 87.5029 125.084 87.0213C124.123 86.5397 123.343 85.6368 122.743 84.3124C122.023 80.5802 119.682 77.3898 115.721 74.7411C111.759 72.0924 106.658 70.7681 100.416 70.7681C93.9338 70.7681 88.7121 71.972 84.7509 74.3799C80.7896 76.7878 78.809 80.52 78.809 85.5766C78.809 88.9476 79.7693 91.7769 81.6899 94.0644C83.7306 96.2315 86.9116 98.1578 91.2329 99.8433C95.6743 101.529 101.496 103.335 108.698 105.261C118.902 107.549 127.244 110.197 133.726 113.207C140.208 116.217 144.95 120.07 147.951 124.765C150.952 129.34 152.452 135.179 152.452 142.282C152.452 150.228 150.291 157.031 145.97 162.689C141.769 168.227 135.827 172.501 128.144 175.511C120.462 178.521 111.519 180.026 101.316 180.026Z" fill="#1E1E1E"/>
<path d="M211.259 180.026C197.935 180.026 187.371 176.173 179.569 168.468C171.766 160.763 167.565 149.807 166.965 135.601C166.845 134.397 166.785 132.892 166.785 131.086C166.785 129.159 166.845 127.654 166.965 126.571C167.445 117.541 169.486 109.716 173.087 103.094C176.808 96.4723 181.91 91.4157 188.392 87.9243C194.874 84.3124 202.496 82.5065 211.259 82.5065C220.982 82.5065 229.144 84.5532 235.746 88.6466C242.349 92.6197 247.33 98.218 250.691 105.442C254.052 112.545 255.733 120.792 255.733 130.183V133.975C255.733 135.179 255.313 136.203 254.472 137.045C253.632 137.888 252.552 138.309 251.231 138.309H191.453C191.453 138.309 191.453 138.49 191.453 138.851C191.453 139.212 191.453 139.513 191.453 139.754C191.573 143.968 192.353 147.881 193.793 151.493C195.354 154.984 197.575 157.813 200.455 159.98C203.456 162.148 206.997 163.231 211.079 163.231C214.44 163.231 217.261 162.749 219.541 161.786C221.822 160.703 223.683 159.499 225.123 158.175C226.564 156.85 227.584 155.767 228.184 154.924C229.264 153.479 230.105 152.636 230.705 152.396C231.425 152.034 232.445 151.854 233.766 151.854H249.251C250.451 151.854 251.411 152.215 252.132 152.937C252.972 153.66 253.332 154.563 253.212 155.646C253.092 157.573 252.072 159.92 250.151 162.689C248.35 165.458 245.71 168.167 242.229 170.816C238.747 173.465 234.366 175.692 229.084 177.498C223.923 179.183 217.981 180.026 211.259 180.026ZM191.453 123.14H231.245V122.598C231.245 117.903 230.465 113.809 228.904 110.318C227.344 106.826 225.063 104.057 222.062 102.01C219.061 99.9637 215.46 98.9404 211.259 98.9404C207.057 98.9404 203.456 99.9637 200.455 102.01C197.454 104.057 195.174 106.826 193.613 110.318C192.173 113.809 191.453 117.903 191.453 122.598V123.14Z" fill="#1E1E1E"/>
<path d="M315.358 180.026C306.715 180.026 299.093 178.401 292.491 175.15C286.009 171.899 280.907 167.204 277.186 161.064C273.585 154.803 271.604 147.279 271.244 138.49C271.124 136.684 271.064 134.336 271.064 131.447C271.064 128.437 271.124 125.969 271.244 124.043C271.604 115.254 273.585 107.789 277.186 101.649C280.907 95.3887 286.009 90.6332 292.491 87.3825C299.093 84.1319 306.715 82.5065 315.358 82.5065C323.041 82.5065 329.583 83.5901 334.984 85.7572C340.386 87.9243 344.827 90.6332 348.308 93.8838C351.79 97.1345 354.37 100.566 356.051 104.178C357.851 107.669 358.812 110.859 358.932 113.749C359.052 115.073 358.632 116.157 357.671 117C356.831 117.722 355.811 118.083 354.61 118.083H338.765C337.565 118.083 336.605 117.782 335.885 117.18C335.284 116.578 334.684 115.675 334.084 114.471C332.283 109.656 329.883 106.284 326.882 104.358C324.001 102.311 320.28 101.288 315.718 101.288C309.716 101.288 304.915 103.214 301.314 107.067C297.833 110.799 295.972 116.759 295.732 124.946C295.492 129.521 295.492 133.734 295.732 137.587C295.972 145.894 297.833 151.914 301.314 155.646C304.915 159.378 309.716 161.245 315.718 161.245C320.4 161.245 324.181 160.281 327.062 158.355C329.943 156.308 332.283 152.877 334.084 148.061C334.684 146.857 335.284 145.954 335.885 145.352C336.605 144.751 337.565 144.45 338.765 144.45H354.61C355.811 144.45 356.831 144.871 357.671 145.714C358.632 146.436 359.052 147.459 358.932 148.784C358.812 150.951 358.212 153.419 357.131 156.188C356.171 158.837 354.55 161.606 352.27 164.495C350.109 167.264 347.348 169.853 343.987 172.261C340.626 174.548 336.545 176.414 331.743 177.859C327.062 179.304 321.6 180.026 315.358 180.026Z" fill="#1E1E1E"/>
<path d="M412.461 180.026C405.138 180.026 398.776 178.401 393.375 175.15C388.093 171.779 384.012 167.084 381.131 161.064C378.25 154.924 376.809 147.7 376.809 139.393V88.6466C376.809 87.4427 377.23 86.4194 378.07 85.5766C378.91 84.7338 379.93 84.3124 381.131 84.3124H396.976C398.296 84.3124 399.316 84.7338 400.037 85.5766C400.877 86.4194 401.297 87.4427 401.297 88.6466V138.309C401.297 153.238 407.839 160.703 420.923 160.703C427.165 160.703 432.087 158.716 435.688 154.743C439.409 150.77 441.27 145.292 441.27 138.309V88.6466C441.27 87.4427 441.69 86.4194 442.53 85.5766C443.37 84.7338 444.391 84.3124 445.591 84.3124H461.436C462.636 84.3124 463.657 84.7338 464.497 85.5766C465.337 86.4194 465.757 87.4427 465.757 88.6466V173.886C465.757 175.09 465.337 176.113 464.497 176.956C463.657 177.799 462.636 178.22 461.436 178.22H446.851C445.531 178.22 444.451 177.799 443.61 176.956C442.89 176.113 442.53 175.09 442.53 173.886V166.482C439.289 170.696 435.268 174.006 430.466 176.414C425.665 178.822 419.663 180.026 412.461 180.026Z" fill="#1E1E1E"/>
<path d="M493.863 178.22C492.663 178.22 491.642 177.799 490.802 176.956C489.962 176.113 489.542 175.09 489.542 173.886V88.8272C489.542 87.5029 489.962 86.4194 490.802 85.5766C491.642 84.7338 492.663 84.3124 493.863 84.3124H508.448C509.648 84.3124 510.668 84.7338 511.508 85.5766C512.469 86.4194 512.949 87.5029 512.949 88.8272V96.2315C515.71 92.3789 519.251 89.4292 523.572 87.3825C528.014 85.3358 533.115 84.3124 538.877 84.3124H546.259C547.58 84.3124 548.6 84.7338 549.32 85.5766C550.161 86.4194 550.581 87.4427 550.581 88.6466V101.649C550.581 102.853 550.161 103.877 549.32 104.719C548.6 105.562 547.58 105.983 546.259 105.983H532.215C526.453 105.983 521.952 107.609 518.711 110.859C515.59 114.11 514.029 118.565 514.029 124.223V173.886C514.029 175.09 513.609 176.113 512.769 176.956C511.929 177.799 510.848 178.22 509.528 178.22H493.863Z" fill="#1E1E1E"/>
<path d="M604.806 180.026C595.203 180.026 587.1 178.341 580.498 174.97C574.016 171.598 569.035 166.843 565.554 160.703C562.192 154.563 560.272 147.399 559.792 139.212C559.672 137.045 559.612 134.397 559.612 131.266C559.612 128.136 559.672 125.487 559.792 123.32C560.272 115.013 562.253 107.85 565.734 101.83C569.335 95.6897 574.376 90.9341 580.858 87.5631C587.46 84.1921 595.443 82.5065 604.806 82.5065C614.169 82.5065 622.091 84.1921 628.573 87.5631C635.175 90.9341 640.217 95.6897 643.698 101.83C647.299 107.85 649.34 115.013 649.82 123.32C649.94 125.487 650 128.136 650 131.266C650 134.397 649.94 137.045 649.82 139.212C649.34 147.399 647.359 154.563 643.878 160.703C640.517 166.843 635.535 171.598 628.933 174.97C622.451 178.341 614.409 180.026 604.806 180.026ZM604.806 162.148C611.168 162.148 616.089 160.161 619.57 156.188C623.052 152.095 624.972 146.135 625.332 138.309C625.452 136.503 625.512 134.156 625.512 131.266C625.512 128.377 625.452 126.029 625.332 124.223C624.972 116.518 623.052 110.619 619.57 106.525C616.089 102.432 611.168 100.385 604.806 100.385C598.444 100.385 593.522 102.432 590.041 106.525C586.56 110.619 584.64 116.518 584.279 124.223C584.159 126.029 584.099 128.377 584.099 131.266C584.099 134.156 584.159 136.503 584.279 138.309C584.64 146.135 586.56 152.095 590.041 156.188C593.522 160.161 598.444 162.148 604.806 162.148Z" fill="#1E1E1E"/>
</svg>
