<svg width="45" height="45" viewBox="0 0 45 45" fill="none" xmlns="http://www.w3.org/2000/svg">
<circle cx="22.5" cy="22.5" r="22" stroke="url(#paint0_linear_4369_91689)"/>
<path d="M18 14.5C18 13.1193 19.1193 12 20.5 12C21.8807 12 23 13.1193 23 14.5V16H24C25.3978 16 26.0967 16 26.6481 16.2284C27.3831 16.5328 27.9672 17.1169 28.2716 17.8519C28.5 18.4033 28.5 19.1022 28.5 20.5H30C31.3807 20.5 32.5 21.6193 32.5 23C32.5 24.3807 31.3807 25.5 30 25.5H28.5V27.2C28.5 28.8802 28.5 29.7202 28.173 30.362C27.8854 30.9265 27.4265 31.3854 26.862 31.673C26.2202 32 25.3802 32 23.7 32H23V30.25C23 29.0074 21.9926 28 20.75 28C19.5074 28 18.5 29.0074 18.5 30.25V32H17.3C15.6198 32 14.7798 32 14.138 31.673C13.5735 31.3854 13.1146 30.9265 12.827 30.362C12.5 29.7202 12.5 28.8802 12.5 27.2V25.5H14C15.3807 25.5 16.5 24.3807 16.5 23C16.5 21.6193 15.3807 20.5 14 20.5H12.5C12.5 19.1022 12.5 18.4033 12.7284 17.8519C13.0328 17.1169 13.6169 16.5328 14.3519 16.2284C14.9033 16 15.6022 16 17 16H18V14.5Z" stroke="white" stroke-linecap="round" stroke-linejoin="round"/>
<defs>
<linearGradient id="paint0_linear_4369_91689" x1="0" y1="22.5" x2="38.1036" y2="22.5" gradientUnits="userSpaceOnUse">
<stop stop-color="#43D9BB"/>
<stop offset="1" stop-color="#0299ED"/>
</linearGradient>
</defs>
</svg>
