<svg width="1437" height="1145" viewBox="0 0 1437 1145" fill="none" xmlns="http://www.w3.org/2000/svg">
<g opacity="0.08">
<path d="M1437 0H1435.89V1145H1437V0Z" fill="url(#paint0_linear_3843_68638)"/>
<path d="M1306.44 0H1305.33V1145H1306.44V0Z" fill="url(#paint1_linear_3843_68638)"/>
<path d="M1175.89 0H1174.77V1145H1175.89V0Z" fill="url(#paint2_linear_3843_68638)"/>
<path d="M1045.41 0H1044.29V1145H1045.41V0Z" fill="url(#paint3_linear_3843_68638)"/>
<path d="M914.852 0H913.738V1145H914.852V0Z" fill="url(#paint4_linear_3843_68638)"/>
<path d="M784.296 0H783.182V1145H784.296V0Z" fill="url(#paint5_linear_3843_68638)"/>
<path d="M653.815 0H652.701V1145H653.815V0Z" fill="url(#paint6_linear_3843_68638)"/>
<path d="M523.261 0H522.147V1145H523.261V0Z" fill="url(#paint7_linear_3843_68638)"/>
<path d="M392.705 0H391.591V1145H392.705V0Z" fill="url(#paint8_linear_3843_68638)"/>
<path d="M262.224 0H261.11V1145H262.224V0Z" fill="url(#paint9_linear_3843_68638)"/>
<path d="M131.67 0H130.556V1145H131.67V0Z" fill="url(#paint10_linear_3843_68638)"/>
<path d="M1.11395 0H0V1145H1.11395V0Z" fill="url(#paint11_linear_3843_68638)"/>
</g>
<defs>
<linearGradient id="paint0_linear_3843_68638" x1="1436.44" y1="0" x2="1436.44" y2="1145" gradientUnits="userSpaceOnUse">
<stop stop-color="white"/>
<stop offset="1" stop-color="white" stop-opacity="0"/>
</linearGradient>
<linearGradient id="paint1_linear_3843_68638" x1="1305.89" y1="0" x2="1305.89" y2="1145" gradientUnits="userSpaceOnUse">
<stop stop-color="white"/>
<stop offset="1" stop-color="white" stop-opacity="0"/>
</linearGradient>
<linearGradient id="paint2_linear_3843_68638" x1="1175.33" y1="0" x2="1175.33" y2="1145" gradientUnits="userSpaceOnUse">
<stop stop-color="white"/>
<stop offset="1" stop-color="white" stop-opacity="0"/>
</linearGradient>
<linearGradient id="paint3_linear_3843_68638" x1="1044.85" y1="0" x2="1044.85" y2="1145" gradientUnits="userSpaceOnUse">
<stop stop-color="white"/>
<stop offset="1" stop-color="white" stop-opacity="0"/>
</linearGradient>
<linearGradient id="paint4_linear_3843_68638" x1="914.295" y1="0" x2="914.295" y2="1145" gradientUnits="userSpaceOnUse">
<stop stop-color="white"/>
<stop offset="1" stop-color="white" stop-opacity="0"/>
</linearGradient>
<linearGradient id="paint5_linear_3843_68638" x1="783.739" y1="0" x2="783.739" y2="1145" gradientUnits="userSpaceOnUse">
<stop stop-color="white"/>
<stop offset="1" stop-color="white" stop-opacity="0"/>
</linearGradient>
<linearGradient id="paint6_linear_3843_68638" x1="653.258" y1="0" x2="653.258" y2="1145" gradientUnits="userSpaceOnUse">
<stop stop-color="white"/>
<stop offset="1" stop-color="white" stop-opacity="0"/>
</linearGradient>
<linearGradient id="paint7_linear_3843_68638" x1="522.704" y1="0" x2="522.704" y2="1145" gradientUnits="userSpaceOnUse">
<stop stop-color="white"/>
<stop offset="1" stop-color="white" stop-opacity="0"/>
</linearGradient>
<linearGradient id="paint8_linear_3843_68638" x1="392.148" y1="0" x2="392.148" y2="1145" gradientUnits="userSpaceOnUse">
<stop stop-color="white"/>
<stop offset="1" stop-color="white" stop-opacity="0"/>
</linearGradient>
<linearGradient id="paint9_linear_3843_68638" x1="261.667" y1="0" x2="261.667" y2="1145" gradientUnits="userSpaceOnUse">
<stop stop-color="white"/>
<stop offset="1" stop-color="white" stop-opacity="0"/>
</linearGradient>
<linearGradient id="paint10_linear_3843_68638" x1="131.113" y1="0" x2="131.113" y2="1145" gradientUnits="userSpaceOnUse">
<stop stop-color="white"/>
<stop offset="1" stop-color="white" stop-opacity="0"/>
</linearGradient>
<linearGradient id="paint11_linear_3843_68638" x1="0.556974" y1="0" x2="0.556974" y2="1145" gradientUnits="userSpaceOnUse">
<stop stop-color="white"/>
<stop offset="1" stop-color="white" stop-opacity="0"/>
</linearGradient>
</defs>
</svg>
