<svg width="46" height="45" viewBox="0 0 46 45" fill="none" xmlns="http://www.w3.org/2000/svg">
<circle cx="23" cy="22.5" r="22" stroke="url(#paint0_linear_4366_91681)"/>
<path d="M23 22L32 22M23 13L23 31M18.8 13H27.2C28.8802 13 29.7202 13 30.362 13.327C30.9265 13.6146 31.3854 14.0735 31.673 14.638C32 15.2798 32 16.1198 32 17.8V26.2C32 27.8802 32 28.7202 31.673 29.362C31.3854 29.9265 30.9265 30.3854 30.362 30.673C29.7202 31 28.8802 31 27.2 31H18.8C17.1198 31 16.2798 31 15.638 30.673C15.0735 30.3854 14.6146 29.9265 14.327 29.362C14 28.7202 14 27.8802 14 26.2V17.8C14 16.1198 14 15.2798 14.327 14.638C14.6146 14.0735 15.0735 13.6146 15.638 13.327C16.2798 13 17.1198 13 18.8 13Z" stroke="white" stroke-linecap="round" stroke-linejoin="round"/>
<defs>
<linearGradient id="paint0_linear_4366_91681" x1="0.5" y1="22.5" x2="38.6036" y2="22.5" gradientUnits="userSpaceOnUse">
<stop stop-color="#43D9BB"/>
<stop offset="1" stop-color="#0299ED"/>
</linearGradient>
</defs>
</svg>
