<svg width="46" height="45" viewBox="0 0 46 45" fill="none" xmlns="http://www.w3.org/2000/svg">
<circle cx="23" cy="22.5" r="22" stroke="url(#paint0_linear_4353_91733)"/>
<path d="M20 26C23.866 26 27 22.866 27 19C27 15.134 23.866 12 20 12C16.134 12 13 15.134 13 19C13 22.866 16.134 26 20 26Z" stroke="white" stroke-linecap="round" stroke-linejoin="round"/>
<path d="M26 32C29.866 32 33 28.866 33 25C33 21.134 29.866 18 26 18C22.134 18 19 21.134 19 25C19 28.866 22.134 32 26 32Z" stroke="white" stroke-linecap="round" stroke-linejoin="round"/>
<defs>
<linearGradient id="paint0_linear_4353_91733" x1="0.5" y1="22.5" x2="38.6036" y2="22.5" gradientUnits="userSpaceOnUse">
<stop stop-color="#43D9BB"/>
<stop offset="1" stop-color="#0299ED"/>
</linearGradient>
</defs>
</svg>
