<svg width="45" height="45" viewBox="0 0 45 45" fill="none" xmlns="http://www.w3.org/2000/svg">
<circle cx="22.5" cy="22.5" r="22" stroke="url(#paint0_linear_3933_77709)"/>
<path d="M12.4995 19.437H31.4995M19.9995 13.437L17.9995 19.437L21.9995 30.937L25.9995 19.437L23.9995 13.437M22.6141 30.6995L31.5727 19.9492C31.7246 19.767 31.8005 19.6759 31.8295 19.5742C31.8551 19.4845 31.8551 19.3895 31.8295 19.2998C31.8005 19.1982 31.7246 19.1071 31.5727 18.9249L27.2394 13.7249C27.1512 13.6191 27.1072 13.5662 27.0531 13.5281C27.0052 13.4944 26.9518 13.4694 26.8953 13.4542C26.8314 13.437 26.7626 13.437 26.6248 13.437H17.3742C17.2365 13.437 17.1676 13.437 17.1038 13.4542C17.0473 13.4694 16.9938 13.4944 16.946 13.5281C16.8919 13.5662 16.8478 13.6191 16.7597 13.7249L12.4263 18.9249C12.2745 19.1071 12.1986 19.1982 12.1696 19.2998C12.144 19.3895 12.144 19.4845 12.1696 19.5742C12.1986 19.6759 12.2745 19.767 12.4263 19.9492L21.385 30.6995C21.596 30.9528 21.7015 31.0794 21.8279 31.1256C21.9387 31.1661 22.0603 31.1661 22.1712 31.1256C22.2975 31.0794 22.4031 30.9528 22.6141 30.6995Z" stroke="white" stroke-linecap="round" stroke-linejoin="round"/>
<defs>
<linearGradient id="paint0_linear_3933_77709" x1="0" y1="22.5" x2="38.1036" y2="22.5" gradientUnits="userSpaceOnUse">
<stop stop-color="#43D9BB"/>
<stop offset="1" stop-color="#0299ED"/>
</linearGradient>
</defs>
</svg>
