<svg width="634" height="434" viewBox="0 0 634 434" fill="none" xmlns="http://www.w3.org/2000/svg">
<g opacity="0.5">
<path d="M109.1 242.6C111.7 241 114.5 239.8 117.4 239L119.1 230.8L132.9 230.6L134.9 238.7C137.8 239.4 140.6 240.5 143.3 242L150.3 237.4L160.2 247L155.9 254.1C157.5 256.7 158.7 259.5 159.5 262.4L167.7 264.1L167.9 278L159.8 280C159.1 282.9 158 285.7 156.5 288.4L161.1 295.4L151.5 305.3L144.4 301C141.8 302.6 139 303.8 136.1 304.6L134.4 312.8L120.6 313L118.6 304.9C115.7 304.2 112.9 303.1 110.2 301.6L103.2 306.2L93.3001 296.6L97.6001 289.5C96.0001 286.9 94.8001 284.1 94.0001 281.2L85.8001 279.5L85.6001 265.7L93.7001 263.7C94.4001 260.8 95.5001 258 97.0001 255.3L92.4001 248.3L102 238.4L109.1 242.6ZM116.5 261C110.8 266.9 111 276.3 116.9 282C122.8 287.7 132.2 287.5 137.9 281.6C143.6 275.7 143.4 266.3 137.5 260.6C131.5 255 122.1 255.1 116.5 261Z" fill="#EBEBEB"/>
<path d="M15.7002 55.5C17.4002 54.5 19.1002 53.7 20.9002 53.2L22.0002 48L30.8002 47.8L32.1002 52.9C33.9002 53.4 35.7002 54 37.4002 55L41.8002 52.1L48.1002 58.2L45.4002 62.7C46.4002 64.4 47.2002 66.1 47.7002 67.9L52.9002 69L53.1002 77.8L48.0002 79.1C47.5002 80.9 46.9002 82.7 45.9002 84.4L48.8002 88.8L42.7002 95.1L38.2002 92.4C36.5002 93.4 34.8002 94.2 33.0002 94.7L31.9002 99.9L23.1002 100.1L21.7002 95C19.9002 94.5 18.1002 93.9 16.4002 92.9L11.9002 95.8L5.60019 89.7L8.30019 85.2C7.30019 83.5 6.5002 81.8 6.0002 80L0.900195 78.8L0.700195 70L5.9002 68.8C6.4002 67 7.1002 65.2 8.0002 63.5L5.10019 59.1L11.2002 52.8L15.7002 55.5ZM20.3002 67.2C16.7002 70.9 16.8002 76.9 20.5002 80.5C24.2002 84.1 30.2002 84 33.8002 80.3C37.4002 76.6 37.3002 70.6 33.6002 67C29.9002 63.3 24.0002 63.4 20.3002 67.2Z" fill="#E0E0E0"/>
<path d="M570.8 59.7C573 58.4 575.4 57.3 577.9 56.6L579.4 49.6L591.2 49.4L592.9 56.3C595.4 56.9 597.8 57.8 600.1 59.1L606.1 55.2L614.6 63.4L610.9 69.5C612.2 71.7 613.3 74.1 614 76.6L621 78.1L621.2 89.9L614.3 91.6C613.7 94.1 612.8 96.5 611.5 98.8L615.4 104.8L607.2 113.3L601.1 109.6C598.9 110.9 596.5 112 594 112.7L592.5 119.7L580.7 119.9L579 113C576.5 112.4 574.1 111.5 571.8 110.2L565.8 114.1L557.3 105.9L561 99.8C559.7 97.6 558.6 95.2 557.9 92.7L550.9 91.2L550.7 79.4L557.6 77.7C558.2 75.2 559.1 72.8 560.4 70.5L556.5 64.5L564.7 56L570.8 59.7ZM577.1 75.4C572.2 80.4 572.4 88.4 577.4 93.3C582.4 98.2 590.4 98 595.3 93C600.2 88 600 80 595 75.1C590 70.2 581.9 70.4 577.1 75.4Z" fill="#E0E0E0"/>
<path d="M404 247.2C405.9 246 408 245.2 410.1 244.6L411.4 238.6L421.6 238.4L423.1 244.4C425.2 244.9 427.3 245.7 429.3 246.8L434.5 243.4L441.8 250.5L438.6 255.8C439.8 257.7 440.6 259.8 441.2 261.9L447.2 263.2L447.4 273.4L441.4 274.9C440.9 277 440.1 279.1 439 281.1L442.4 286.3L435.3 293.6L430 290.4C428.1 291.6 426 292.4 423.9 293L422.6 299L412.4 299.2L410.9 293.2C408.8 292.7 406.7 291.9 404.7 290.8L399.5 294.2L392.2 287.1L395.4 281.8C394.2 279.9 393.4 277.8 392.8 275.7L386.8 274.4L386.6 264.2L392.6 262.7C393.1 260.6 393.9 258.5 395 256.5L391.6 251.3L398.7 244L404 247.2ZM409.4 260.8C405.2 265.1 405.3 272.1 409.7 276.3C414 280.5 421 280.4 425.2 276C429.4 271.7 429.3 264.7 424.9 260.5C420.6 256.3 413.6 256.4 409.4 260.8Z" fill="#F5F5F5"/>
<path d="M613.3 20.5C614.2 20 615.1 19.6 616.1 19.3L616.7 16.5L621.4 16.4L622.1 19.1C623.1 19.3 624 19.7 624.9 20.2L627.3 18.7L630.7 21.9L629.2 24.3C629.7 25.2 630.1 26.1 630.4 27.1L633.2 27.7L633.3 32.4L630.6 33.1C630.4 34.1 630 35 629.5 35.9L631 38.3L627.8 41.7L625.4 40.2C624.5 40.7 623.6 41.1 622.6 41.4L622 44.2L617.3 44.3L616.6 41.6C615.6 41.4 614.7 41 613.8 40.5L611.4 42L608 38.8L609.5 36.4C609 35.5 608.6 34.6 608.3 33.6L605.5 33L605.4 28.3L608.1 27.6C608.3 26.6 608.7 25.7 609.2 24.8L607.7 22.4L610.9 19L613.3 20.5ZM615.8 26.7C613.9 28.7 613.9 31.8 615.9 33.8C617.9 35.7 621 35.7 623 33.7C624.9 31.7 624.9 28.6 622.9 26.6C620.9 24.6 617.7 24.7 615.8 26.7Z" fill="#E0E0E0"/>
<path d="M607.7 165.6C608.6 165.1 609.5 164.7 610.5 164.4L611.1 161.6L615.8 161.5L616.5 164.2C617.5 164.4 618.4 164.8 619.3 165.3L621.7 163.8L625.1 167L623.6 169.4C624.1 170.3 624.5 171.2 624.8 172.2L627.6 172.8L627.7 177.5L625 178.2C624.8 179.2 624.4 180.1 623.9 181L625.4 183.4L622.2 186.8L619.8 185.3C618.9 185.8 618 186.2 617 186.5L616.4 189.3L611.7 189.4L611 186.7C610 186.5 609.1 186.1 608.2 185.6L605.8 187.1L602.4 183.9L603.9 181.5C603.4 180.6 603 179.7 602.7 178.7L599.9 178L599.8 173.3L602.5 172.6C602.7 171.6 603.1 170.7 603.6 169.8L602.1 167.4L605.3 164L607.7 165.6ZM610.2 171.8C608.3 173.8 608.3 176.9 610.3 178.9C612.3 180.8 615.4 180.8 617.4 178.8C619.3 176.8 619.3 173.7 617.3 171.7C615.3 169.8 612.1 169.9 610.2 171.8Z" fill="#F5F5F5"/>
<path d="M133.9 343C135.1 342.3 136.4 341.7 137.7 341.4L138.5 337.7L144.8 337.6L145.7 341.3C147 341.6 148.3 342.1 149.5 342.8L152.7 340.7L157.2 345.1L155.2 348.4C155.9 349.6 156.5 350.9 156.8 352.2L160.5 353L160.6 359.3L156.9 360.2C156.6 361.5 156.1 362.8 155.4 364L157.5 367.2L153.1 371.7L149.8 369.7C148.6 370.4 147.3 371 146 371.3L145.2 375L138.9 375.1L138 371.4C136.7 371.1 135.4 370.6 134.2 369.9L131 372L126.5 367.6L128.5 364.3C127.8 363.1 127.2 361.8 126.9 360.5L123.2 359.7L123.1 353.4L126.8 352.5C127.1 351.2 127.6 349.9 128.3 348.7L126.2 345.5L130.6 341L133.9 343ZM137.3 351.5C134.7 354.2 134.8 358.5 137.5 361.1C140.2 363.7 144.5 363.6 147.1 360.9C149.7 358.2 149.6 353.9 146.9 351.3C144.2 348.7 139.9 348.8 137.3 351.5Z" fill="#F5F5F5"/>
<path d="M596.5 222.3C596.8 243.2 580.2 260.4 559.5 260.7C538.7 261 521.6 244.3 521.3 223.5C521 202.6 537.6 185.4 558.3 185.1C579 184.8 596.2 201.5 596.5 222.3ZM540.9 223.2C541.1 233.2 549.3 241.2 559.2 241C569.1 240.8 577.1 232.6 576.9 222.6C576.7 212.6 568.5 204.6 558.6 204.8C548.7 205 540.7 213.3 540.9 223.2Z" fill="#F5F5F5"/>
<path d="M596.5 222.3C596.8 243.2 580.2 260.4 559.5 260.7L559.2 241C569.1 240.8 577.1 232.6 576.9 222.6C576.7 212.6 568.5 204.6 558.6 204.8L558.3 185.1C579 184.8 596.2 201.5 596.5 222.3Z" fill="#455A64"/>
<path d="M540.899 223.2C540.899 223.2 540.899 223.1 540.899 222.9C540.899 222.7 540.899 222.4 540.899 222C540.899 221.6 540.899 221.2 540.999 220.6C541.099 220 541.099 219.4 541.299 218.7C541.599 217.3 542.199 215.6 543.199 213.8C544.199 212 545.699 210.1 547.699 208.5C549.699 206.9 552.299 205.5 555.299 204.9C558.299 204.3 561.699 204.3 564.899 205.5C566.499 206 568.099 206.9 569.599 207.9C570.399 208.4 570.999 209 571.699 209.6C572.299 210.3 572.999 210.9 573.499 211.7C575.799 214.7 577.099 218.5 577.199 222.5C577.199 226.5 575.999 230.3 573.799 233.4C573.299 234.2 572.699 234.9 571.999 235.6C571.299 236.2 570.699 236.9 569.999 237.4C568.599 238.5 566.999 239.4 565.399 240C562.199 241.3 558.799 241.4 555.799 240.9C552.799 240.4 550.199 239.1 548.099 237.6C545.999 236 544.499 234.2 543.399 232.5C542.399 230.7 541.699 229.1 541.399 227.7C541.199 227 541.099 226.4 540.999 225.8C540.899 225.3 540.899 224.8 540.899 224.4C540.899 224 540.899 223.8 540.899 223.5C540.899 223.3 540.899 223.2 540.899 223.2C540.999 223.2 540.899 224.8 541.599 227.6C541.899 229 542.599 230.6 543.699 232.3C544.799 234 546.299 235.8 548.299 237.3C550.299 238.8 552.899 240 555.899 240.5C558.799 241 562.099 240.8 565.199 239.6C566.799 239 568.299 238.2 569.699 237.1C570.399 236.6 570.999 236 571.699 235.3C572.299 234.6 572.899 234 573.399 233.2C575.499 230.2 576.699 226.5 576.699 222.6C576.599 218.7 575.299 215 573.099 212.1C572.599 211.4 571.899 210.7 571.299 210.1C570.599 209.5 569.999 208.9 569.299 208.4C567.899 207.4 566.399 206.6 564.799 206C561.599 204.8 558.399 204.8 555.399 205.4C552.499 206 549.899 207.3 547.999 208.9C545.999 210.5 544.499 212.3 543.499 214C542.499 215.8 541.899 217.4 541.599 218.8C540.799 221.6 540.999 223.2 540.899 223.2Z" fill="#263238"/>
<path d="M596.5 222.3C596.5 222.3 596.5 222.1 596.4 221.7C596.4 221.3 596.3 220.7 596.3 219.9C596.3 219.5 596.2 219.1 596.2 218.6C596.1 218.1 596 217.6 595.9 217C595.7 215.9 595.5 214.5 595.1 213.1C594.4 210.2 593 206.8 590.8 203.2C588.6 199.6 585.4 195.8 581.1 192.7C576.8 189.6 571.4 186.9 565.2 185.9C563.6 185.7 562.1 185.4 560.5 185.4C559.7 185.4 558.9 185.3 558.1 185.3C557.3 185.4 556.5 185.4 555.6 185.5C555.2 185.5 554.8 185.5 554.3 185.6L553.1 185.8C552.3 186 551.4 186.1 550.6 186.3C549 186.8 547.2 187.2 545.6 187.9C543.9 188.5 542.4 189.3 540.8 190.1C540 190.6 539.3 191.1 538.5 191.5C537.7 192 537 192.5 536.3 193.1C534.8 194.2 533.5 195.5 532.1 196.8C531.5 197.5 530.9 198.2 530.2 198.9L529.7 199.4L529.3 200L528.5 201.2L527.7 202.4L527 203.6L526.3 204.9L525.9 205.5L525.6 206.2C525.2 207.1 524.8 208 524.4 208.9C524.1 209.8 523.8 210.8 523.4 211.7C522.2 215.5 521.7 219.5 521.7 223.6C521.8 227.7 522.5 231.7 523.8 235.4C524.2 236.3 524.5 237.2 524.9 238.2C525.3 239.1 525.8 240 526.2 240.8L526.5 241.5L526.9 242.1L527.7 243.3L528.5 244.5L529.4 245.6L530.3 246.7L530.7 247.3L531.2 247.8C531.8 248.5 532.5 249.2 533.1 249.9C534.5 251.1 535.9 252.4 537.4 253.5C538.1 254 538.9 254.6 539.7 255C540.5 255.5 541.3 255.9 542.1 256.4C543.7 257.2 545.3 258 547 258.5C548.6 259.2 550.4 259.5 552 259.9C552.8 260.1 553.7 260.1 554.5 260.3L555.8 260.5C556.2 260.6 556.6 260.5 557.1 260.6C557.9 260.6 558.8 260.7 559.6 260.7C560.4 260.7 561.2 260.6 562 260.6C563.6 260.6 565.2 260.2 566.7 260C572.9 258.8 578.2 256 582.4 252.7C586.6 249.4 589.6 245.5 591.7 241.9C593.8 238.2 595.1 234.7 595.7 231.8C596.1 230.4 596.3 229 596.4 227.9C596.5 227.3 596.6 226.8 596.6 226.3C596.6 225.8 596.6 225.4 596.7 225C596.7 224.2 596.8 223.6 596.8 223.2C596.5 222.5 596.5 222.3 596.5 222.3C596.5 222.3 596.5 222.5 596.5 222.9C596.5 223.3 596.5 223.9 596.5 224.7C596.5 225.1 596.5 225.5 596.5 226C596.5 226.5 596.4 227 596.3 227.6C596.2 228.7 596 230.1 595.6 231.5C595 234.4 593.7 237.9 591.7 241.7C589.6 245.4 586.5 249.3 582.3 252.7C578.1 256 572.7 258.9 566.5 260.1C564.9 260.4 563.4 260.7 561.7 260.8C560.9 260.8 560.1 260.9 559.2 260.9C558.4 260.9 557.5 260.8 556.7 260.8C556.3 260.8 555.9 260.8 555.4 260.7L554.1 260.5C553.3 260.4 552.4 260.3 551.5 260.1C549.8 259.7 548.1 259.4 546.4 258.7C544.7 258.2 543.1 257.4 541.4 256.6C540.6 256.2 539.8 255.7 539 255.2C538.2 254.8 537.4 254.2 536.7 253.7C535.1 252.7 533.8 251.4 532.3 250.1C531.6 249.4 531 248.7 530.3 248L529.8 247.5L529.4 246.9L528.5 245.7L527.6 244.5L526.8 243.3L526 242.1L525.6 241.5L525.3 240.8C524.9 239.9 524.4 239 524 238.1C523.6 237.2 523.3 236.2 522.9 235.3C521.6 231.5 520.9 227.5 520.8 223.3C520.8 219.2 521.4 215.1 522.6 211.3C522.9 210.4 523.3 209.4 523.6 208.5C524 207.6 524.4 206.7 524.8 205.8L525.1 205.1L525.5 204.5L526.2 203.2L526.9 201.9L527.8 200.7L528.6 199.5L529 198.9L529.5 198.4C530.1 197.7 530.8 197 531.4 196.2C532.8 194.9 534.1 193.5 535.6 192.5C536.3 191.9 537.1 191.3 537.9 190.9C538.7 190.4 539.4 189.9 540.2 189.4C541.8 188.6 543.4 187.7 545.1 187.1C546.7 186.4 548.5 186 550.1 185.5C550.9 185.3 551.8 185.2 552.6 185L553.9 184.8C554.3 184.7 554.7 184.7 555.2 184.7C556 184.6 556.9 184.6 557.7 184.5C558.5 184.5 559.4 184.5 560.2 184.6C561.8 184.6 563.4 184.9 565 185.1C571.3 186.1 576.7 188.8 581 192C585.3 195.2 588.5 199 590.7 202.7C592.9 206.4 594.3 209.8 595 212.7C595.4 214.1 595.6 215.5 595.8 216.6C595.9 217.2 596 217.7 596 218.2C596 218.7 596.1 219.1 596.1 219.5C596.1 220.3 596.2 220.9 596.2 221.3C596.5 222.1 596.5 222.3 596.5 222.3Z" fill="#263238"/>
<path d="M562.9 263.8C538.6 264.2 519.2 245.3 518.9 220.9L541.9 220.5C542.1 232.2 551 239.5 562.6 239.3L562.9 263.8Z" fill="url(#paint0_linear_4001_73911)"/>
<path d="M562.9 263.8C562.9 263.8 562.9 263.6 562.9 263.3C562.9 263 562.9 262.6 562.9 262C562.9 260.8 562.8 259.2 562.8 257.1C562.7 252.9 562.6 246.8 562.4 239.3L562.6 239.5C560.4 239.5 558 239.3 555.7 238.7C553.3 238.1 551 237 548.8 235.4C546.7 233.8 544.9 231.6 543.6 229.1C542.3 226.5 541.7 223.6 541.6 220.6L541.9 220.8C536.3 220.9 530.3 221 524.1 221.1C522.3 221.1 520.6 221.2 518.9 221.2L519.2 220.9C519.3 225.7 520.2 230.3 521.5 234.5C521.9 235.5 522.3 236.6 522.7 237.6C523.1 238.6 523.6 239.6 524.1 240.5C524.5 241.5 525.1 242.4 525.7 243.3C526.3 244.2 526.7 245.1 527.4 245.9C528 246.7 528.6 247.5 529.2 248.3C529.8 249.1 530.5 249.8 531.2 250.5C531.5 250.9 531.9 251.2 532.2 251.6C532.6 251.9 532.9 252.2 533.3 252.5C534 253.1 534.7 253.7 535.4 254.3C538.3 256.5 541.1 258.3 543.9 259.6C544.6 259.9 545.3 260.2 545.9 260.5C546.6 260.8 547.3 261 547.9 261.2C548.6 261.4 549.2 261.6 549.8 261.9C550.4 262.1 551 262.2 551.6 262.4C552.2 262.5 552.8 262.7 553.3 262.8C553.6 262.9 553.8 262.9 554.1 263C554.4 263 554.6 263.1 554.9 263.1C555.9 263.2 556.9 263.4 557.7 263.5C558.5 263.7 559.3 263.6 559.9 263.7C560.5 263.7 561.1 263.8 561.6 263.8C562 263.8 562.4 263.8 562.6 263.9C562.7 263.8 562.9 263.8 562.9 263.8C562.9 263.8 562.8 263.8 562.6 263.8C562.3 263.8 562 263.8 561.6 263.8C561.1 263.8 560.6 263.8 559.9 263.8C559.2 263.8 558.5 263.8 557.6 263.7C556.7 263.6 555.8 263.5 554.8 263.3C554.5 263.3 554.3 263.2 554 263.2C553.7 263.1 553.5 263.1 553.2 263C552.6 262.9 552.1 262.7 551.5 262.6C550.9 262.5 550.3 262.3 549.7 262.2C549.1 262 548.4 261.8 547.8 261.6C547.1 261.4 546.5 261.2 545.8 260.9C545.1 260.6 544.4 260.3 543.7 260C540.9 258.8 538 256.9 535.1 254.7C534.4 254.1 533.7 253.5 533 252.9C532.6 252.6 532.3 252.3 531.9 252C531.6 251.7 531.2 251.3 530.9 250.9C530.2 250.2 529.5 249.5 528.9 248.7C528.3 247.9 527.7 247.1 527 246.3C526.3 245.5 525.8 244.6 525.3 243.7C524.7 242.8 524.2 241.9 523.7 240.9C523.2 239.9 522.7 239 522.3 237.9C521.9 236.9 521.5 235.8 521.1 234.8C519.7 230.5 518.9 225.9 518.7 221.1V220.8H519C520.6 220.8 522.4 220.7 524.2 220.7C530.4 220.6 536.4 220.5 542 220.4H542.3V220.7C542.3 223.6 543 226.5 544.2 229C545.4 231.5 547.2 233.6 549.2 235.2C551.3 236.8 553.6 237.9 555.9 238.5C558.2 239.1 560.5 239.4 562.7 239.4H562.9V239.6C563 247.1 563 253.2 563.1 257.5C563.1 259.6 563.1 261.2 563.1 262.4C563.1 262.9 563.1 263.3 563.1 263.7C562.9 263.7 562.9 263.8 562.9 263.8Z" fill="#263238"/>
<path d="M582.5 5.29999H383.3V154.2H582.5V5.29999Z" fill="white"/>
<path d="M582.5 5.29999H383.3V23.7H582.5V5.29999Z" fill="#E0E0E0"/>
<path d="M394.2 17.2C395.691 17.2 396.9 15.9912 396.9 14.5C396.9 13.0088 395.691 11.8 394.2 11.8C392.709 11.8 391.5 13.0088 391.5 14.5C391.5 15.9912 392.709 17.2 394.2 17.2Z" fill="white"/>
<path d="M403.2 17.2C404.691 17.2 405.9 15.9912 405.9 14.5C405.9 13.0088 404.691 11.8 403.2 11.8C401.709 11.8 400.5 13.0088 400.5 14.5C400.5 15.9912 401.709 17.2 403.2 17.2Z" fill="white"/>
<path d="M412.1 17.2C413.591 17.2 414.8 15.9912 414.8 14.5C414.8 13.0088 413.591 11.8 412.1 11.8C410.609 11.8 409.4 13.0088 409.4 14.5C409.4 15.9912 410.609 17.2 412.1 17.2Z" fill="white"/>
<path d="M582.6 154.2C582.6 154.2 582.6 153.3 582.6 151.5C582.6 149.7 582.6 147.1 582.6 143.6C582.6 136.7 582.6 126.5 582.5 113.5C582.5 87.5 582.4 50.3 582.4 5.3L582.6 5.5C526.4 5.5 457.6 5.5 383.4 5.5L383.7 5.2C383.7 58.7 383.7 109.4 383.7 154.1L383.5 153.9C442.5 153.9 492.3 154 527.3 154C544.8 154 558.7 154 568.1 154.1C572.8 154.1 576.5 154.1 578.9 154.1C580.1 154.1 581.1 154.1 581.7 154.1C582.2 154.2 582.6 154.2 582.6 154.2C582.6 154.2 582.3 154.2 581.7 154.2C581.1 154.2 580.1 154.2 578.9 154.2C576.4 154.2 572.8 154.2 568.1 154.2C558.6 154.2 544.8 154.2 527.3 154.3C492.2 154.3 442.4 154.4 383.3 154.4H383.1V154.2C383.1 109.5 383.1 58.8 383.1 5.3V5H383.4C457.6 5 526.4 5 582.6 5H582.8V5.2C582.8 50.3 582.7 87.6 582.7 113.6C582.7 126.6 582.7 136.7 582.6 143.6C582.6 147 582.6 149.7 582.6 151.5C582.6 153.3 582.6 154.2 582.6 154.2Z" fill="#263238"/>
<path d="M571.6 95.1C571.6 95.2 531.9 95.4 483 95.4C434.1 95.4 394.4 95.3 394.4 95.1C394.4 95 434 94.8 483 94.8C531.9 94.8 571.6 94.9 571.6 95.1Z" fill="#E0E0E0"/>
<path d="M571.6 79.8C571.6 79.9 531.9 80.1 483 80.1C434.1 80.1 394.4 80 394.4 79.8C394.4 79.7 434 79.5 483 79.5C531.9 79.5 571.6 79.6 571.6 79.8Z" fill="#E0E0E0"/>
<path d="M571.6 64.5C571.6 64.6 531.9 64.8 483 64.8C434.1 64.8 394.4 64.7 394.4 64.5C394.4 64.4 434 64.2 483 64.2C531.9 64.2 571.6 64.3 571.6 64.5Z" fill="#E0E0E0"/>
<path d="M571.6 49.2C571.6 49.3 531.9 49.5 483 49.5C434.1 49.5 394.4 49.4 394.4 49.2C394.4 49.1 434 48.9 483 48.9C531.9 48.9 571.6 49.1 571.6 49.2Z" fill="#E0E0E0"/>
<path d="M559.1 94.5C555.6 86.2 553.3 77.1 550.6 68.4C548.3 60.9 548.1 57.4 546.1 51C543 41 534.7 39.9 528.7 42.6C523.4 45 521.1 51.3 519.3 56.9C517.2 63.7 515.1 70.4 512.9 77.2C511.9 80.4 510.9 83.7 509 86.4C507.2 89.2 504.3 91.5 501.1 91.9C495.7 92.6 490.8 88.1 488.5 83.1C486.2 78.1 485.5 72.4 483.5 67.3C481.5 62.2 477.2 57.3 471.7 57.2C465 57.1 460.4 63.9 457.6 70.1C454.1 77.9 451.2 86 449.1 94.3C448.4 97.1 447.7 100 446.3 102.6C444.9 105.1 442.5 107.3 439.6 107.7C435.9 108.2 432.5 105.5 430.3 102.4C428.2 99.3 426.8 95.7 424.6 92.7C422.4 89.7 418.9 87.1 415.2 87.8C411.9 88.4 409.6 91.3 407.6 94C402.3 101.4 397.8 109.4 394 117.7H577.2C569 114.9 562.6 102.8 559.1 94.5Z" fill="url(#paint1_linear_4001_73911)"/>
<path d="M445.7 129.8H437V138.5H445.7V129.8Z" fill="url(#paint2_linear_4001_73911)"/>
<path d="M499.8 134.1H454.7C454.2 134.1 453.7 133.7 453.7 133.1C453.7 132.6 454.1 132.1 454.7 132.1H499.8C500.3 132.1 500.8 132.5 500.8 133.1C500.8 133.6 500.4 134.1 499.8 134.1Z" fill="#263238"/>
<path d="M569.5 117.8C569.5 117.8 569.3 117.8 568.8 117.8C568.3 117.8 567.7 117.8 566.9 117.8C565.2 117.8 562.7 117.8 559.5 117.8C553 117.8 543.7 117.8 532.1 117.9C509 117.9 477.1 117.9 441.8 118C424.9 118 408.8 118 394.2 118H394V117.8C394 94.3 394.1 74.3 394.1 60.2C394.1 53.1 394.2 47.5 394.2 43.7C394.2 41.8 394.2 40.3 394.2 39.3C394.2 38.8 394.2 38.4 394.2 38.2C394.2 37.9 394.2 37.8 394.2 37.8C394.2 37.8 394.2 37.9 394.2 38.2C394.2 38.5 394.2 38.8 394.2 39.3C394.2 40.3 394.2 41.8 394.2 43.7C394.2 47.6 394.2 53.2 394.3 60.2C394.3 74.4 394.4 94.4 394.4 117.8L394.2 117.6C408.9 117.6 424.9 117.6 441.8 117.6C477 117.6 508.9 117.7 532.1 117.7C543.6 117.7 553 117.8 559.5 117.8C562.7 117.8 565.2 117.8 566.9 117.8C567.7 117.8 568.4 117.8 568.8 117.8C569.3 117.8 569.5 117.8 569.5 117.8Z" fill="#263238"/>
<g opacity="0.3">
<path d="M548 57.8L482.9 117.8H515.5L554.6 81.5L548 57.8Z" fill="white"/>
</g>
<g opacity="0.3">
<path d="M490.7 86.6L454.9 117.8H445.7L487.9 81.5L491.6 87.8" fill="white"/>
</g>
<path d="M394.2 117.8C394.2 117.8 396 113.4 400.2 105.8C402.3 102.1 405.1 97.5 408.7 92.6C409.6 91.4 410.7 90.2 412 89.2C413.3 88.2 415 87.6 416.8 87.6C418.6 87.7 420.3 88.4 421.8 89.6C423.3 90.7 424.6 92.2 425.6 93.8C427.7 97 429.1 101 431.9 104.1C433.3 105.6 435.1 106.9 437.1 107.5C438.1 107.7 439.2 107.8 440.3 107.5C441.4 107.3 442.4 106.8 443.2 106.1C445 104.8 446.3 102.8 447.1 100.6C448 98.4 448.5 96.1 449.1 93.8C450.3 89.1 451.8 84.4 453.6 79.6C454.5 77.2 455.4 74.8 456.5 72.4C457.5 70 458.6 67.6 460.1 65.3C461.5 63 463.2 60.8 465.5 59.2C466.6 58.4 467.9 57.7 469.3 57.4C470.7 57.1 472.1 57 473.5 57.3C476.3 57.8 478.8 59.6 480.6 61.8C482.4 64 483.8 66.6 484.6 69.4C485.5 72.1 486.2 75 486.9 77.7C487.7 80.5 488.6 83.3 490.3 85.7C491.9 88.1 494.1 90.2 496.7 91.3C499.3 92.4 502.4 92.1 504.8 90.6C507.2 89.1 509 86.8 510.2 84.4C511.4 81.9 512.2 79.2 513.1 76.6C514.8 71.3 516.4 66.1 518 61C518.8 58.5 519.5 55.9 520.5 53.5C521.4 51 522.5 48.7 524.1 46.6C524.9 45.6 525.8 44.6 526.8 43.9C527.8 43.1 529 42.6 530.2 42.2C531.4 41.8 532.6 41.6 533.9 41.5C535.1 41.4 536.4 41.5 537.6 41.8C540 42.4 542.1 43.8 543.6 45.7C545.1 47.5 546.1 49.7 546.7 51.9C548 56.3 548.8 60.6 549.9 64.6C550.4 66.6 551 68.6 551.6 70.5C552.2 72.4 552.7 74.3 553.3 76.2C555.5 83.6 557.5 90.3 560 95.9C562.4 101.5 565 106.1 567.6 109.6C570.2 113.1 572.7 115.3 574.6 116.5C575.6 117.1 576.3 117.5 576.9 117.7C577.4 117.9 577.7 118.1 577.7 118.1C577.7 118.1 577.4 118 576.9 117.8C576.3 117.6 575.6 117.2 574.6 116.6C572.7 115.4 570.1 113.2 567.5 109.7C564.9 106.3 562.3 101.6 559.8 96C557.3 90.4 555.2 83.7 553 76.3C552.4 74.5 551.9 72.6 551.3 70.6C550.7 68.7 550.1 66.7 549.6 64.7C548.5 60.6 547.8 56.3 546.4 52C545.7 49.9 544.8 47.7 543.4 45.9C542 44.1 539.9 42.8 537.6 42.2C536.4 42 535.2 41.8 534 41.9C532.8 42 531.6 42.2 530.4 42.6C528.1 43.4 526 44.9 524.5 46.9C523 48.9 521.9 51.3 521 53.7C520.1 56.1 519.4 58.7 518.6 61.2C517 66.3 515.4 71.5 513.7 76.8C512.9 79.4 512.1 82.1 510.8 84.7C509.5 87.2 507.7 89.6 505.2 91.2C503.9 91.9 502.5 92.5 501 92.6C499.5 92.7 498 92.5 496.6 91.9C493.8 90.8 491.6 88.6 490 86.1C488.3 83.6 487.4 80.8 486.6 78C485.8 75.2 485.2 72.4 484.3 69.7C483.4 67 482.1 64.4 480.4 62.3C478.6 60.2 476.3 58.5 473.6 58C472.3 57.7 470.9 57.8 469.6 58.1C468.3 58.4 467.1 59.1 466 59.8C463.8 61.4 462.1 63.5 460.7 65.7C459.3 67.9 458.2 70.3 457.2 72.7C456.2 75.1 455.2 77.5 454.3 79.9C452.5 84.7 451 89.4 449.8 94.1C449.2 96.4 448.7 98.8 447.8 101C446.9 103.2 445.6 105.2 443.8 106.6C442.9 107.3 441.8 107.8 440.7 108.1C439.6 108.4 438.4 108.3 437.3 108.1C435.1 107.5 433.3 106.2 431.9 104.6C429 101.4 427.7 97.5 425.6 94.2C424.6 92.6 423.4 91.2 421.9 90.1C420.5 89 418.8 88.3 417.1 88.2C415.4 88.1 413.8 88.7 412.5 89.7C411.2 90.6 410.1 91.8 409.2 93C405.6 97.9 402.8 102.4 400.6 106.1C398.4 109.8 396.9 112.8 395.9 114.9C395.4 115.9 395 116.7 394.8 117.2C394.4 117.5 394.2 117.8 394.2 117.8Z" fill="#263238"/>
<path d="M316.2 210.2H137V317.9H316.2V210.2Z" fill="white"/>
<path d="M316.2 210.2H137V226.8H316.2V210.2Z" fill="#E0E0E0"/>
<path d="M149.2 218.5C149.2 219.8 148.1 220.9 146.8 220.9C145.5 220.9 144.4 219.8 144.4 218.5C144.4 217.2 145.5 216.1 146.8 216.1C148.1 216.1 149.2 217.2 149.2 218.5Z" fill="white"/>
<path d="M157.2 218.5C157.2 219.8 156.1 220.9 154.8 220.9C153.5 220.9 152.4 219.8 152.4 218.5C152.4 217.2 153.5 216.1 154.8 216.1C156.2 216.1 157.2 217.2 157.2 218.5Z" fill="white"/>
<path d="M165.3 218.5C165.3 219.8 164.2 220.9 162.9 220.9C161.6 220.9 160.5 219.8 160.5 218.5C160.5 217.2 161.6 216.1 162.9 216.1C164.2 216.1 165.3 217.2 165.3 218.5Z" fill="white"/>
<path d="M316.2 317.9C316.2 317.9 316.2 317.2 316.2 316C316.2 314.7 316.2 312.8 316.2 310.4C316.2 305.4 316.2 298.2 316.1 288.8C316.1 270.1 316 243.2 316 210.2L316.2 210.4C267.8 210.4 205.2 210.4 137 210.5L137.3 210.2C137.3 248.4 137.3 284.8 137.3 317.9L137.1 317.7C189.7 317.7 234.4 317.8 266.1 317.8C281.9 317.8 294.5 317.9 303.1 317.9C307.4 317.9 310.7 317.9 313 317.9C314.1 317.9 315 317.9 315.5 317.9C315.9 317.9 316.2 317.9 316.2 317.9C316.2 317.9 315.9 317.9 315.4 317.9C314.8 317.9 314 317.9 312.9 317.9C310.7 317.9 307.4 317.9 303.1 317.9C294.5 317.9 282 317.9 266.2 318C234.5 318 189.7 318.1 137.1 318.1H136.9V317.9C136.9 284.8 136.9 248.3 136.9 210.2V210H137.2C205.4 210 268 210 316.4 210.1H316.6V210.3C316.6 243.3 316.5 270.3 316.5 289C316.5 298.3 316.5 305.6 316.4 310.5C316.4 313 316.4 314.8 316.4 316.1C316.2 317.3 316.2 317.9 316.2 317.9Z" fill="#263238"/>
<path d="M164.2 244.9H156.6V300.7H164.2V244.9Z" fill="url(#paint3_linear_4001_73911)"/>
<path d="M178.9 263.9H171.3V300.7H178.9V263.9Z" fill="url(#paint4_linear_4001_73911)"/>
<path d="M193.6 251.8H186V300.9H193.6V251.8Z" fill="url(#paint5_linear_4001_73911)"/>
<path d="M208.3 247.1H200.7V300.7H208.3V247.1Z" fill="url(#paint6_linear_4001_73911)"/>
<path d="M223.1 265H215.5V300.7H223.1V265Z" fill="url(#paint7_linear_4001_73911)"/>
<path d="M237.8 272H230.2V300.7H237.8V272Z" fill="url(#paint8_linear_4001_73911)"/>
<path d="M252.5 250.6H244.9V300.7H252.5V250.6Z" fill="url(#paint9_linear_4001_73911)"/>
<path d="M267.2 259.7H259.6V300.7H267.2V259.7Z" fill="url(#paint10_linear_4001_73911)"/>
<path d="M281.9 252.5H274.3V300.7H281.9V252.5Z" fill="url(#paint11_linear_4001_73911)"/>
<path d="M296.6 267.8H289V300.7H296.6V267.8Z" fill="url(#paint12_linear_4001_73911)"/>
<g opacity="0.3">
<path d="M178.9 263.9H171.3V300.7H178.9V263.9Z" fill="white"/>
</g>
<g opacity="0.3">
<path d="M208.3 247.1H200.7V300.7H208.3V247.1Z" fill="white"/>
</g>
<g opacity="0.3">
<path d="M237.8 272H230.2V300.7H237.8V272Z" fill="white"/>
</g>
<g opacity="0.3">
<path d="M267.2 259.7H259.6V300.7H267.2V259.7Z" fill="white"/>
</g>
<g opacity="0.3">
<path d="M296.6 267.8H289V300.7H296.6V267.8Z" fill="white"/>
</g>
<path d="M307.5 300.7C307.5 300.8 272 301 228.3 301C184.6 301 149.1 300.9 149.1 300.7C149.1 300.6 184.5 300.4 228.3 300.4C272.1 300.4 307.5 300.6 307.5 300.7Z" fill="#263238"/>
<path d="M95.7002 131.4H0.200195V226.9H95.7002V131.4Z" fill="white"/>
<path d="M49.9998 186.6L76.2998 187C76.0998 201 64.2998 212.5 49.9998 212.5C49.8998 212.5 49.8998 212.5 49.7998 212.5L49.9998 186.6Z" fill="#455A64"/>
<path d="M45.7999 182.9L45.3999 208.7C31.0999 208.5 19.3999 196.9 19.3999 182.9C19.3999 168.7 31.2999 157.1 45.6999 157.1C60.0999 157.1 71.9999 168.8 71.9999 182.9H45.7999Z" fill="url(#paint13_linear_4001_73911)"/>
<path d="M95.6002 131.4H0.200195V150.2H95.6002V131.4Z" fill="#E0E0E0"/>
<path d="M11.3001 143.5C12.7913 143.5 14.0001 142.291 14.0001 140.8C14.0001 139.309 12.7913 138.1 11.3001 138.1C9.80893 138.1 8.6001 139.309 8.6001 140.8C8.6001 142.291 9.80893 143.5 11.3001 143.5Z" fill="white"/>
<path d="M20.4002 143.5C21.8914 143.5 23.1002 142.291 23.1002 140.8C23.1002 139.309 21.8914 138.1 20.4002 138.1C18.909 138.1 17.7002 139.309 17.7002 140.8C17.7002 142.291 18.909 143.5 20.4002 143.5Z" fill="white"/>
<path d="M32.2999 140.8C32.2999 142.3 31.0999 143.5 29.5999 143.5C28.0999 143.5 26.8999 142.3 26.8999 140.8C26.8999 139.3 28.0999 138.1 29.5999 138.1C30.9999 138.1 32.2999 139.3 32.2999 140.8Z" fill="white"/>
<path d="M95.7 226.9C95.7 226.9 95.7 226.7 95.7 226.4C95.7 226.1 95.7 225.7 95.7 225.1C95.7 223.9 95.7 222.2 95.7 220C95.7 215.5 95.7 208.9 95.6 200.6C95.6 183.9 95.5 160 95.5 131.4L95.7 131.6C67.9 131.6 35.2 131.6 0.2 131.6L0.5 131.3C0.5 166.3 0.5 199 0.5 226.8L0.3 226.6C28.9 226.6 52.8 226.7 69.5 226.7C77.9 226.7 84.4 226.7 88.9 226.8C91.1 226.8 92.9 226.8 94 226.8C94.6 226.8 95 226.8 95.3 226.8C95.5 226.9 95.7 226.9 95.7 226.9C95.7 226.9 95.6 226.9 95.3 226.9C95 226.9 94.6 226.9 94 226.9C92.8 226.9 91.1 226.9 88.9 226.9C84.4 226.9 77.9 226.9 69.5 227C52.8 227 28.9 227.1 0.2 227.1H0V226.9C0 199.1 0 166.4 0 131.4V131.1H0.3C35.3 131.1 68 131.1 95.8 131.1H96V131.3C96 160 95.9 183.9 95.9 200.6C95.9 208.9 95.9 215.5 95.8 220C95.8 222.2 95.8 223.9 95.8 225.1C95.8 225.7 95.8 226.1 95.8 226.4C95.7 226.8 95.7 226.9 95.7 226.9Z" fill="#263238"/>
<path d="M329.1 0.299988H68.7002V188.2H329.1V0.299988Z" fill="white"/>
<path d="M282.2 86.2H220.5C210.2 86.2 201.9 77.9 201.9 67.6V61.4C201.9 51.1 210.2 42.8 220.5 42.8H282.2C292.5 42.8 300.8 51.1 300.8 61.4V67.6C300.8 77.9 292.5 86.2 282.2 86.2Z" fill="#EBEBEB"/>
<path d="M87.4002 91.2C87.0002 68.9 104.8 50.4 127 50.1C149.2 49.7 167.6 67.6 167.9 89.9C168.3 112.2 150.5 130.7 128.3 131C106.1 131.4 87.7002 113.6 87.4002 91.2ZM146.9 90.3C146.7 79.6 138 71.1 127.3 71.3C116.7 71.5 108.2 80.3 108.3 91C108.5 101.7 117.2 110.2 127.9 110C138.6 109.8 147.1 100.9 146.9 90.3Z" fill="#F5F5F5"/>
<path d="M87.4002 91.2C87.0002 68.9 104.8 50.4 127 50.1L127.3 71.2C116.7 71.4 108.2 80.2 108.3 90.9C108.5 101.6 117.2 110.1 127.9 109.9L128.2 131C106.1 131.4 87.7002 113.6 87.4002 91.2Z" fill="#455A64"/>
<path d="M146.9 90.3001C146.9 90.3001 146.9 90.4001 146.9 90.6001C146.9 90.8001 146.9 91.1001 146.9 91.5001C146.9 91.9001 146.9 92.4001 146.8 93.0001C146.7 93.6001 146.7 94.3001 146.5 95.0001C146.2 96.5001 145.6 98.3001 144.5 100.2C143.4 102.1 141.9 104.1 139.7 105.9C137.5 107.6 134.8 109.1 131.6 109.7C128.4 110.3 124.8 110.3 121.3 109C120.4 108.7 119.6 108.3 118.7 107.9C117.9 107.4 117 107 116.3 106.4C115.5 105.9 114.8 105.2 114.1 104.5C113.4 103.8 112.7 103.1 112.2 102.3C111 100.7 110 98.9001 109.3 97.0001C108.6 95.0001 108.3 93.0001 108.2 90.8001C108.2 88.7001 108.5 86.6001 109.1 84.6001C109.7 82.6001 110.7 80.8001 111.8 79.2001C112.4 78.4001 113 77.6001 113.7 76.9001C114.4 76.2001 115.1 75.5001 115.9 75.0001C116.6 74.4001 117.5 73.9001 118.3 73.4001C119.1 73.0001 120 72.5001 120.8 72.2001C124.2 70.8001 127.8 70.7001 131 71.2001C134.2 71.7001 137 73.1001 139.2 74.8001C141.4 76.5001 143.1 78.4001 144.2 80.3001C145.3 82.2001 146 84.0001 146.4 85.5001C146.6 86.2001 146.7 86.9001 146.8 87.5001C146.9 88.1001 146.9 88.6001 146.9 89.0001C146.9 89.4001 146.9 89.7001 146.9 89.9001C146.9 90.2001 146.9 90.3001 146.9 90.3001C146.9 90.3001 146.9 90.2001 146.9 90.0001C146.9 89.8001 146.8 89.5001 146.8 89.1001C146.8 88.7001 146.7 88.2001 146.6 87.6001C146.5 87.0001 146.4 86.3001 146.2 85.6001C145.8 84.1001 145.1 82.4001 144 80.5001C142.9 78.7001 141.2 76.8001 139 75.1001C136.8 73.5001 134.1 72.2001 130.9 71.7001C127.8 71.2001 124.2 71.4001 120.9 72.7001C120.1 73.0001 119.3 73.4001 118.4 73.8001C117.6 74.3001 116.8 74.7001 116.1 75.4001C115.3 75.9001 114.7 76.6001 114 77.3001C113.4 78.0001 112.7 78.7001 112.2 79.5001C111.1 81.1001 110.1 82.9001 109.6 84.8001C109 86.7001 108.7 88.8001 108.7 90.8001C108.8 94.9001 110.2 98.9001 112.6 102C113.2 102.8 113.8 103.5 114.5 104.2C115.2 104.8 115.9 105.5 116.7 106C117.4 106.6 118.3 107 119.1 107.5C119.9 107.9 120.7 108.3 121.6 108.6C125 109.8 128.5 109.9 131.6 109.3C134.7 108.7 137.4 107.3 139.6 105.6C141.7 103.9 143.3 102 144.4 100.1C145.5 98.2001 146.1 96.5001 146.5 95.0001C146.7 94.3001 146.8 93.6001 146.9 93.0001C147 92.4001 147 91.9001 147.1 91.5001C147.1 91.1001 147.1 90.8001 147.2 90.6001C146.9 90.4001 146.9 90.3001 146.9 90.3001Z" fill="#263238"/>
<path d="M87.4002 91.2C87.4002 91.2 87.4002 91.4 87.5002 91.9C87.5002 92.3 87.6002 93 87.7002 93.8C87.7002 94.2 87.8002 94.7 87.8002 95.2C87.9002 95.7 88.0002 96.3 88.1002 96.9C88.2002 97.5 88.3002 98.2 88.4002 98.9C88.5002 99.6 88.8002 100.3 89.0002 101.1C89.8002 104.2 91.3002 107.9 93.6002 111.7C96.0002 115.6 99.4002 119.6 104 123C104.6 123.4 105.2 123.8 105.8 124.3C106.4 124.7 107.1 125.1 107.7 125.4C108.4 125.8 109 126.2 109.7 126.5C110.4 126.8 111.1 127.1 111.8 127.5C112.2 127.7 112.5 127.8 112.9 128C113.3 128.1 113.6 128.3 114 128.4C114.7 128.7 115.5 128.9 116.3 129.2C117.1 129.4 117.9 129.6 118.7 129.8C119.5 130 120.3 130.2 121.1 130.3C122.8 130.5 124.4 130.8 126.2 130.8C127.1 130.8 127.9 130.9 128.8 130.9C129.7 130.8 130.6 130.8 131.5 130.7C131.9 130.7 132.4 130.7 132.8 130.6L134.1 130.4C135 130.2 135.9 130.1 136.8 129.9C138.6 129.4 140.4 129 142.1 128.2C143.9 127.6 145.6 126.7 147.3 125.8C148.1 125.3 148.9 124.8 149.8 124.3C150.6 123.8 151.4 123.2 152.2 122.6C153.8 121.4 155.2 120 156.7 118.6C157.4 117.8 158 117.1 158.7 116.3L159.2 115.7L159.6 115.1L160.5 113.9L161.4 112.6L162.2 111.3L163 110L163.4 109.3L163.7 108.6C164.1 107.7 164.6 106.7 165 105.7C165.3 104.7 165.7 103.7 166 102.7C167.2 98.7 167.9 94.4 167.9 90C167.8 85.6 167 81.4 165.6 77.4C165.2 76.4 164.8 75.4 164.5 74.4C164 73.5 163.6 72.5 163.1 71.6L162.7 70.9L162.3 70.2L161.5 68.9L160.7 67.6L159.8 66.4L158.9 65.2L158.4 64.6L157.9 64C157.2 63.3 156.5 62.5 155.8 61.8C154.3 60.5 152.8 59.1 151.2 58C150.4 57.4 149.6 56.8 148.8 56.4C148 55.9 147.1 55.4 146.3 54.9C144.5 54.1 142.8 53.2 141 52.7C139.2 52 137.4 51.7 135.6 51.2C134.7 51 133.8 50.9 132.9 50.8L131.6 50.6C131.2 50.5 130.7 50.6 130.3 50.5C129.4 50.5 128.5 50.4 127.6 50.4C126.7 50.4 125.9 50.5 125 50.5C123.3 50.5 121.6 50.9 119.9 51.2C119.1 51.3 118.3 51.6 117.5 51.8C116.7 52 115.9 52.2 115.1 52.5C114.3 52.8 113.6 53.1 112.9 53.4C112.5 53.5 112.2 53.7 111.8 53.8C111.4 54 111.1 54.2 110.8 54.3C110.1 54.6 109.4 55 108.7 55.3C108 55.6 107.4 56.1 106.8 56.5C106.2 56.9 105.5 57.3 104.9 57.7C104.3 58.1 103.8 58.6 103.2 59C98.7002 62.5 95.4002 66.7 93.2002 70.6C91.0002 74.5 89.6002 78.3 88.9002 81.4C88.7002 82.2 88.5002 82.9 88.4002 83.6C88.3002 84.3 88.2002 85 88.1002 85.6C88.0002 86.2 87.9002 86.8 87.9002 87.3C87.9002 87.8 87.9002 88.3 87.8002 88.7C87.8002 89.5 87.7002 90.2 87.7002 90.6C87.4002 91 87.4002 91.2 87.4002 91.2C87.4002 91.2 87.4002 91 87.4002 90.5C87.4002 90 87.4002 89.4 87.4002 88.6C87.4002 88.2 87.4002 87.7 87.4002 87.2C87.4002 86.7 87.5002 86.1 87.6002 85.5C87.7002 84.9 87.8002 84.2 87.9002 83.5C88.0002 82.8 88.2002 82.1 88.4002 81.3C89.0002 78.1 90.4002 74.4 92.6002 70.4C94.8002 66.4 98.1002 62.2 102.6 58.7C103.2 58.3 103.7 57.8 104.3 57.4C104.9 57 105.5 56.6 106.2 56.2C106.8 55.8 107.5 55.4 108.2 55C108.9 54.7 109.6 54.3 110.3 53.9C110.7 53.7 111 53.5 111.4 53.4C111.8 53.3 112.1 53.1 112.5 53C113.2 52.7 114 52.4 114.8 52.1C115.6 51.8 116.4 51.6 117.2 51.4C118 51.2 118.8 50.9 119.6 50.8C121.3 50.5 123 50.1 124.7 50.1C125.6 50.1 126.5 50 127.3 49.9C128.2 49.9 129.1 50 130 50C130.5 50 130.9 50 131.4 50.1L132.8 50.3C133.7 50.4 134.6 50.5 135.5 50.7C137.3 51.2 139.2 51.5 140.9 52.2C142.7 52.8 144.5 53.6 146.2 54.5C147.1 55 147.9 55.5 148.8 56C149.7 56.5 150.5 57.1 151.3 57.7C153 58.8 154.4 60.2 156 61.6C156.7 62.3 157.4 63.1 158.1 63.8L158.6 64.4L159.1 65L159.9 66L160.9 67.2L161.7 68.5L162.5 69.8L162.9 70.5L163.3 71.2C163.8 72.1 164.2 73.1 164.7 74C165.1 75 165.5 76 165.8 77C167.2 81.1 168 85.4 168.1 89.8C168.1 94.2 167.5 98.6 166.2 102.7C165.8 103.7 165.5 104.7 165.1 105.7C164.7 106.7 164.2 107.6 163.8 108.6L163.5 109.3L163.1 110L162.3 111.4L161.5 112.8L160.6 114.1L159.7 115.4L159.2 116L158.7 116.6C158 117.4 157.3 118.1 156.7 118.9C155.2 120.3 153.8 121.7 152.2 122.9C151.4 123.5 150.6 124.1 149.8 124.6C149 125.1 148.1 125.7 147.3 126.2C145.6 127.1 143.9 128 142 128.6C140.2 129.4 138.4 129.8 136.6 130.3C135.7 130.5 134.8 130.6 133.9 130.8L132.5 131C132.1 131.1 131.6 131.1 131.1 131.1C130.2 131.2 129.3 131.2 128.4 131.3C127.5 131.3 126.6 131.3 125.8 131.2C124 131.2 122.3 130.9 120.7 130.7C119.9 130.6 119.1 130.3 118.2 130.2C117.4 130 116.6 129.8 115.8 129.6C115 129.3 114.3 129.1 113.5 128.8C113.1 128.7 112.7 128.5 112.4 128.4C112 128.2 111.7 128.1 111.3 127.9C110.6 127.6 109.9 127.2 109.2 126.9C108.5 126.6 107.9 126.1 107.2 125.8C106.6 125.4 105.9 125.1 105.3 124.6C104.7 124.2 104.1 123.7 103.5 123.3C98.9002 119.9 95.5002 115.8 93.1002 111.9C90.8002 108 89.3002 104.3 88.5002 101.2C88.3002 100.4 88.0002 99.7 88.0002 99C87.9002 98.3 87.8002 97.6 87.7002 97C87.6002 96.4 87.5002 95.8 87.4002 95.3C87.4002 94.8 87.3002 94.3 87.3002 93.9C87.3002 93.1 87.2002 92.4 87.2002 92C87.4002 91.5 87.4002 91.2 87.4002 91.2Z" fill="#263238"/>
<path d="M123.4 46.9C149.4 46.5 170.1 66.6 170.5 92.8L145.9 93.1C145.7 80.6 136.2 72.8 123.8 73L123.4 46.9Z" fill="url(#paint14_linear_4001_73911)"/>
<path d="M123.4 46.9C123.4 46.9 123.4 47.1 123.4 47.4C123.4 47.7 123.4 48.2 123.4 48.8C123.4 50 123.5 51.8 123.5 54C123.6 58.5 123.7 65 123.9 73L123.7 72.8C126.1 72.8 128.6 73 131.1 73.7C133.6 74.4 136.2 75.5 138.4 77.3C140.7 79 142.6 81.3 144 84.1C145.3 86.8 146 90 146.1 93.2L145.8 93C151.8 92.9 158.2 92.8 164.8 92.7C166.7 92.7 168.6 92.6 170.3 92.6L170 92.9C169.9 87.8 169 82.9 167.5 78.4C167.1 77.3 166.7 76.2 166.3 75.1C165.8 74 165.3 73 164.8 72C164.3 70.9 163.7 70 163.1 69C162.5 68.1 162 67.1 161.3 66.2C160.6 65.3 160 64.5 159.3 63.6C158.6 62.8 157.9 62 157.2 61.3C156.8 60.9 156.5 60.5 156.2 60.2C155.8 59.9 155.4 59.5 155.1 59.2C154.3 58.5 153.6 57.9 152.9 57.2C149.8 54.9 146.8 52.9 143.8 51.6C143.1 51.3 142.3 50.9 141.6 50.6C140.9 50.3 140.1 50.1 139.5 49.8C138.8 49.6 138.1 49.3 137.5 49.1C136.8 48.9 136.2 48.8 135.5 48.6C134.9 48.4 134.3 48.3 133.7 48.2C133.4 48.1 133.1 48.1 132.8 48C132.5 47.9 132.2 47.9 132 47.9C130.9 47.7 129.9 47.6 129 47.5C128.1 47.3 127.3 47.4 126.6 47.3C125.9 47.3 125.3 47.2 124.8 47.2C124.3 47.2 124 47.2 123.7 47.1C123.5 46.9 123.4 46.9 123.4 46.9C123.4 46.9 123.5 46.9 123.8 46.9C124.1 46.9 124.4 46.9 124.9 46.9C125.4 46.9 126 46.9 126.7 46.9C127.4 46.9 128.2 46.9 129.1 47C130 47.1 131 47.2 132.1 47.4C132.4 47.4 132.7 47.5 132.9 47.5C133.2 47.6 133.5 47.6 133.8 47.7C134.4 47.8 135 48 135.6 48.1C136.2 48.3 136.9 48.4 137.6 48.6C138.3 48.8 138.9 49.1 139.6 49.3C140.3 49.5 141 49.8 141.8 50C142.5 50.3 143.3 50.7 144 51C147 52.3 150.1 54.3 153.2 56.6C153.9 57.2 154.7 57.9 155.4 58.6C155.8 58.9 156.2 59.3 156.5 59.6C156.9 60 157.2 60.4 157.6 60.7C158.3 61.5 159.1 62.2 159.8 63C160.5 63.9 161.1 64.7 161.8 65.6C162.5 66.4 163 67.4 163.6 68.4C164.2 69.4 164.8 70.3 165.3 71.4C165.8 72.4 166.4 73.5 166.8 74.6C167.2 75.7 167.6 76.8 168.1 78C169.6 82.6 170.5 87.6 170.6 92.7V93H170.3C168.5 93 166.7 93.1 164.8 93.1C158.2 93.2 151.8 93.3 145.8 93.4H145.5V93.1C145.5 90 144.8 86.9 143.5 84.2C142.2 81.5 140.3 79.3 138.1 77.6C135.9 75.9 133.4 74.8 130.9 74.1C128.4 73.4 126 73.2 123.6 73.2H123.4V73C123.3 65 123.2 58.4 123.2 53.9C123.2 51.7 123.2 49.9 123.2 48.7C123.2 48.1 123.2 47.7 123.2 47.4C123.4 47 123.4 46.9 123.4 46.9Z" fill="#263238"/>
<path d="M329.1 0.299988H68.7002V25.4H329.1V0.299988Z" fill="#E0E0E0"/>
<path d="M289.2 57.4H216C215.1 57.4 214.4 56.7 214.4 55.8C214.4 54.9 215.1 54.2 216 54.2H289.2C290.1 54.2 290.8 54.9 290.8 55.8C290.7 56.7 290 57.4 289.2 57.4Z" fill="#263238"/>
<path d="M289.2 65.7H216C215.1 65.7 214.4 65 214.4 64.1C214.4 63.2 215.1 62.5 216 62.5H289.2C290.1 62.5 290.8 63.2 290.8 64.1C290.7 65 290 65.7 289.2 65.7Z" fill="#263238"/>
<path d="M249.3 74H216C215.1 74 214.4 73.3 214.4 72.4C214.4 71.5 215.1 70.8 216 70.8H249.3C250.2 70.8 250.9 71.5 250.9 72.4C250.8 73.3 250.1 74 249.3 74Z" fill="#263238"/>
<path d="M282.2 139.2H220.5C210.2 139.2 201.9 130.9 201.9 120.6V114.4C201.9 104.1 210.2 95.8 220.5 95.8H282.2C292.5 95.8 300.8 104.1 300.8 114.4V120.6C300.8 130.9 292.5 139.2 282.2 139.2Z" fill="#EBEBEB"/>
<path d="M291.2 166.2H209.5C204.8 166.2 200.9 162.4 200.9 157.6C200.9 152.9 204.7 149 209.5 149H291.2C295.9 149 299.8 152.8 299.8 157.6C299.8 162.4 295.9 166.2 291.2 166.2Z" fill="#EBEBEB"/>
<path d="M288.7 110.8H215.5C214.6 110.8 213.9 110.1 213.9 109.2C213.9 108.3 214.6 107.6 215.5 107.6H288.7C289.6 107.6 290.3 108.3 290.3 109.2C290.3 110.1 289.6 110.8 288.7 110.8Z" fill="#263238"/>
<path d="M285.6 159.4H212.4C211.5 159.4 210.8 158.7 210.8 157.8C210.8 156.9 211.5 156.2 212.4 156.2H285.6C286.5 156.2 287.2 156.9 287.2 157.8C287.1 158.7 286.4 159.4 285.6 159.4Z" fill="#263238"/>
<path d="M288.7 119.1H215.5C214.6 119.1 213.9 118.4 213.9 117.5C213.9 116.6 214.6 115.9 215.5 115.9H288.7C289.6 115.9 290.3 116.6 290.3 117.5C290.3 118.4 289.6 119.1 288.7 119.1Z" fill="#263238"/>
<path d="M248.8 127.4H215.5C214.6 127.4 213.9 126.7 213.9 125.8C213.9 124.9 214.6 124.2 215.5 124.2H248.8C249.7 124.2 250.4 124.9 250.4 125.8C250.3 126.7 249.6 127.4 248.8 127.4Z" fill="#263238"/>
<path d="M196.8 52.1C196.8 52.1 196.3 52.2 195.4 52.2C194.4 52.2 193.2 52.2 191.7 52.3C188.5 52.3 184.2 52.4 179.4 52.4C177.4 52.4 175.5 52.4 173.8 52.4L174 52.3C171.6 54.7 169.4 56.8 167.9 58.2C167.2 58.9 166.6 59.4 166.1 59.9C165.7 60.3 165.4 60.5 165.4 60.5C165.4 60.5 165.6 60.2 166 59.8C166.5 59.3 167 58.7 167.7 58C169.1 56.5 171.2 54.4 173.6 51.9L173.7 51.8H173.8C175.5 51.8 177.4 51.8 179.4 51.8C184.2 51.8 188.6 51.8 191.7 51.9C193.2 51.9 194.4 52 195.4 52C196.3 52 196.8 52.1 196.8 52.1Z" fill="#263238"/>
<path d="M195.7 54.3C196.86 54.3 197.8 53.3598 197.8 52.2C197.8 51.0402 196.86 50.1 195.7 50.1C194.54 50.1 193.6 51.0402 193.6 52.2C193.6 53.3598 194.54 54.3 195.7 54.3Z" fill="#263238"/>
<path d="M195.7 116.8C196.86 116.8 197.8 115.86 197.8 114.7C197.8 113.54 196.86 112.6 195.7 112.6C194.54 112.6 193.6 113.54 193.6 114.7C193.6 115.86 194.54 116.8 195.7 116.8Z" fill="#263238"/>
<path d="M194.4 115.1C194.4 115.2 193.1 115.2 190.9 115.3C188.7 115.3 185.8 115.3 182.5 115.3C179.3 115.3 176.4 115.2 174.1 115.2C173.1 115.2 172.3 115.2 171.5 115.1C170.9 115.1 170.6 115.1 170.6 115.1C170.6 115 171.9 114.9 174.1 114.8C176.3 114.7 179.2 114.7 182.5 114.7C185.8 114.7 188.8 114.8 190.9 114.8C193 114.9 194.4 115 194.4 115.1Z" fill="#263238"/>
<path d="M107.2 160.8H100.4V167.6H107.2V160.8Z" fill="#455A64"/>
<path d="M130.1 160.8H123.3V167.6H130.1V160.8Z" fill="#E0E0E0"/>
<path d="M154.9 160.8H148.1V167.6H154.9V160.8Z" fill="url(#paint15_linear_4001_73911)"/>
<path d="M86.3999 12.8C86.3999 14.8 84.7999 16.4 82.8999 16.4C80.9999 16.4 79.3999 14.8 79.3999 12.8C79.3999 10.8 80.9999 9.20001 82.8999 9.20001C84.8999 9.20001 86.3999 10.8 86.3999 12.8Z" fill="white"/>
<path d="M98.1001 12.8C98.1001 14.8 96.5001 16.4 94.6001 16.4C92.7001 16.4 91.1001 14.8 91.1001 12.8C91.1001 10.8 92.7001 9.20001 94.6001 9.20001C96.6001 9.20001 98.1001 10.8 98.1001 12.8Z" fill="white"/>
<path d="M109.8 12.8C109.8 14.8 108.2 16.4 106.3 16.4C104.4 16.4 102.8 14.8 102.8 12.8C102.8 10.8 104.4 9.20001 106.3 9.20001C108.2 9.20001 109.8 10.8 109.8 12.8Z" fill="white"/>
<path d="M329.1 188.2C329.1 186.5 329 114.3 328.9 0.3L329.1 0.5C256.2 0.5 166.1 0.5 68.7 0.5L69 0.2C69 67.6 69 131.4 69 188.1L68.8 187.9C222.7 188.1 327 188.2 329.1 188.2C327 188.2 222.7 188.3 68.7 188.4H68.5V188.2C68.5 131.5 68.5 67.6 68.5 0.3V0H68.8C166.2 0 256.3 0 329.2 0H329.4V0.2C329.2 114.2 329.1 186.4 329.1 188.2Z" fill="#263238"/>
<path d="M436.4 124.1H250.9V262.8H436.4V124.1Z" fill="white"/>
<path d="M435.8 124.1H250.3V141.2H435.8V124.1Z" fill="#E0E0E0"/>
<path d="M260.5 135.2C261.881 135.2 263 134.081 263 132.7C263 131.319 261.881 130.2 260.5 130.2C259.119 130.2 258 131.319 258 132.7C258 134.081 259.119 135.2 260.5 135.2Z" fill="white"/>
<path d="M268.8 135.2C270.181 135.2 271.3 134.081 271.3 132.7C271.3 131.319 270.181 130.2 268.8 130.2C267.42 130.2 266.3 131.319 266.3 132.7C266.3 134.081 267.42 135.2 268.8 135.2Z" fill="white"/>
<path d="M277.1 135.2C278.481 135.2 279.6 134.081 279.6 132.7C279.6 131.319 278.481 130.2 277.1 130.2C275.719 130.2 274.6 131.319 274.6 132.7C274.6 134.081 275.719 135.2 277.1 135.2Z" fill="white"/>
<path d="M435.8 262.8C435.8 262.8 435.8 261.9 435.8 260.3C435.8 258.6 435.8 256.2 435.8 252.9C435.8 246.4 435.8 237 435.7 224.9C435.7 200.7 435.6 166.1 435.6 124.2L435.8 124.4C383.5 124.4 319.4 124.4 250.3 124.4L250.6 124.1C250.6 173.9 250.6 221.1 250.6 262.8L250.4 262.6C305.3 262.6 351.7 262.7 384.3 262.7C400.6 262.7 413.5 262.7 422.3 262.8C426.7 262.8 430.1 262.8 432.4 262.8C433.5 262.8 434.4 262.8 435 262.8C435.5 262.7 435.8 262.8 435.8 262.8C435.8 262.8 435.5 262.8 434.9 262.8C434.3 262.8 433.5 262.8 432.3 262.8C430 262.8 426.6 262.8 422.3 262.8C413.5 262.8 400.6 262.8 384.3 262.9C351.6 262.9 305.2 263 250.3 263H250.1V262.8C250.1 221.2 250.1 174 250.1 124.1V123.8H250.4C319.5 123.8 383.6 123.8 435.9 123.8H436.1V124C436.1 166 436 200.7 436 224.9C436 237 436 246.4 435.9 252.9C435.9 256.1 435.9 258.6 435.9 260.2C435.8 261.9 435.8 262.8 435.8 262.8Z" fill="#263238"/>
<path d="M425.6 207.7C425.6 207.8 388.7 208 343.2 208C297.7 208 260.8 207.9 260.8 207.7C260.8 207.5 297.7 207.4 343.2 207.4C388.7 207.4 425.6 207.5 425.6 207.7Z" fill="#E0E0E0"/>
<path d="M425.6 193.4C425.6 193.5 388.7 193.7 343.2 193.7C297.7 193.7 260.8 193.6 260.8 193.4C260.8 193.3 297.7 193.1 343.2 193.1C388.7 193.2 425.6 193.3 425.6 193.4Z" fill="#E0E0E0"/>
<path d="M425.6 179.2C425.6 179.3 388.7 179.5 343.2 179.5C297.7 179.5 260.8 179.4 260.8 179.2C260.8 179.1 297.7 178.9 343.2 178.9C388.7 178.9 425.6 179 425.6 179.2Z" fill="#E0E0E0"/>
<path d="M425.6 165C425.6 165.1 388.7 165.3 343.2 165.3C297.7 165.3 260.8 165.2 260.8 165C260.8 164.8 297.7 164.7 343.2 164.7C388.7 164.7 425.6 164.8 425.6 165Z" fill="#E0E0E0"/>
<path d="M288.4 201.2H274.7V228.8H288.4V201.2Z" fill="url(#paint16_linear_4001_73911)"/>
<path d="M337.6 201.2H323.9V228.8H337.6V201.2Z" fill="#455A64"/>
<path d="M412.3 210.6H398.6V228.8H412.3V210.6Z" fill="#455A64"/>
<path d="M386.8 188.1H373.1V228.8H386.8V188.1Z" fill="#E0E0E0"/>
<path d="M361.6 172.3H347.9V228.8H361.6V172.3Z" fill="url(#paint17_linear_4001_73911)"/>
<path d="M312 188.1H298.3V228.8H312V188.1Z" fill="#E0E0E0"/>
<path d="M423.6 228.8C423.6 228.8 423.4 228.8 423 228.8C422.6 228.8 422 228.8 421.2 228.8C419.6 228.8 417.3 228.8 414.3 228.8C408.3 228.8 399.6 228.8 388.8 228.9C367.3 228.9 337.6 228.9 304.8 229C289.1 229 274.1 229 260.5 229H260.3V228.8C260.3 207 260.4 188.3 260.4 175.1C260.4 168.5 260.5 163.3 260.5 159.7C260.5 157.9 260.5 156.6 260.5 155.6C260.5 155.1 260.5 154.8 260.5 154.5C260.5 154.3 260.5 154.1 260.5 154.1C260.5 154.1 260.5 154.2 260.5 154.5C260.5 154.8 260.5 155.1 260.5 155.6C260.5 156.5 260.5 157.9 260.5 159.7C260.5 163.3 260.5 168.5 260.6 175.1C260.6 188.3 260.7 206.9 260.7 228.8L260.5 228.6C274.1 228.6 289.1 228.6 304.8 228.6C337.6 228.6 367.3 228.7 388.8 228.7C399.5 228.7 408.2 228.8 414.3 228.8C417.3 228.8 419.6 228.8 421.2 228.8C422 228.8 422.6 228.8 423 228.8C423.4 228.8 423.6 228.8 423.6 228.8Z" fill="#263238"/>
<path d="M295.3 242.8H289.3V248.8H295.3V242.8Z" fill="url(#paint18_linear_4001_73911)"/>
<path d="M332.1 242.6H326.1V248.6H332.1V242.6Z" fill="#E0E0E0"/>
<path d="M372 242.8H366V248.8H372V242.8Z" fill="#455A64"/>
<path d="M315.3 245.6C315.3 245.7 311.6 245.9 307.1 245.9C302.6 245.9 298.9 245.8 298.9 245.6C298.9 245.5 302.6 245.3 307.1 245.3C311.6 245.4 315.3 245.5 315.3 245.6Z" fill="#263238"/>
<path d="M351.8 245.6C351.8 245.7 348.1 245.9 343.6 245.9C339.1 245.9 335.4 245.8 335.4 245.6C335.4 245.5 339.1 245.3 343.6 245.3C348.2 245.4 351.8 245.5 351.8 245.6Z" fill="#263238"/>
<path d="M390.8 245.6C390.8 245.7 387.1 245.9 382.6 245.9C378.1 245.9 374.4 245.8 374.4 245.6C374.4 245.5 378.1 245.3 382.6 245.3C387.1 245.4 390.8 245.5 390.8 245.6Z" fill="#263238"/>
<path d="M410.8 80.8H346.7V144.9H410.8V80.8Z" fill="white"/>
<path d="M410.8 144.9C410.8 144.9 410.8 144.8 410.8 144.6C410.8 144.4 410.8 144.1 410.8 143.7C410.8 142.9 410.8 141.7 410.8 140.2C410.8 137.2 410.8 132.8 410.7 127.2C410.7 116 410.6 100 410.6 80.8L410.8 81C392.2 81 370.2 81 346.7 81L347 80.7C347 104.2 347 126.2 347 144.8L346.8 144.6C366 144.6 382 144.7 393.2 144.7C398.8 144.7 403.2 144.7 406.2 144.8C407.7 144.8 408.9 144.8 409.7 144.8C410.1 144.8 410.4 144.8 410.6 144.8C410.6 144.9 410.8 144.9 410.8 144.9C410.8 144.9 410.7 144.9 410.5 144.9C410.3 144.9 410 144.9 409.6 144.9C408.8 144.9 407.7 144.9 406.2 144.9C403.2 144.9 398.8 144.9 393.2 145C381.9 145 365.9 145.1 346.7 145.1H346.5V144.9C346.5 126.3 346.5 104.3 346.5 80.8V80.5H346.8C370.3 80.5 392.3 80.5 410.9 80.5H411.1V80.7C411.1 99.9 411 116 411 127.2C411 132.8 411 137.2 410.9 140.2C410.9 141.7 410.9 142.8 410.9 143.6C410.9 144 410.9 144.3 410.9 144.5C410.8 144.8 410.8 144.9 410.8 144.9Z" fill="#263238"/>
<path d="M382.4 112.9C386 111.4 388.5 107.7 388.6 103.3C388.6 97.6 384.3 92.9 379 92.9C373.7 92.9 369.3 97.5 369.3 103.2C369.3 107.6 371.8 111.3 375.5 112.8C360.6 115 361.3 131.3 361.3 131.3L396.6 131.5C396.3 131.5 397.1 115.1 382.4 112.9Z" fill="url(#paint19_linear_4001_73911)"/>
</g>
<g clip-path="url(#clip0_4001_73911)">
<path d="M92.1001 173.6L99.4001 173C99.4001 173 98.9001 166.9 105.3 166.3C108.6 166 110.5 168 111.3 169.6C112.3 171.5 112.2 173.7 111.2 175.5C110.1 177.6 107.6 179.7 102.6 179.2L103.9 195.6L111.1 195L110.3 185.4C110.3 185.4 120.2 182 119.3 170.9C118.5 160.3 108.7 158.5 104.6 158.9C101.5 159.1 90.9001 160.7 92.1001 173.6Z" fill="#E0E0E0"/>
<path d="M111.419 198.424L104.142 198.999L104.678 205.778L111.955 205.203L111.419 198.424Z" fill="#E0E0E0"/>
<path d="M444.1 234.4H448C448 234.4 448 231.1 451.4 231C453.2 231 454.1 232.1 454.5 233C454.9 234 454.8 235.2 454.2 236.2C453.5 237.3 452.1 238.3 449.4 237.8V246.7H453.3V241.5C453.3 241.5 458.8 240.1 458.8 234.1C458.8 228.3 453.6 227 451.4 227C449.8 227 444 227.4 444.1 234.4Z" fill="#E0E0E0"/>
<path d="M453.5 248.6H449.5V252.3H453.5V248.6Z" fill="#E0E0E0"/>
<path d="M93.3003 358.1L98.3003 358.8C98.3003 358.8 98.9003 354.6 103.3 355.1C105.6 355.4 106.6 357.1 106.9 358.3C107.3 359.7 106.9 361.2 106 362.3C104.9 363.6 102.9 364.6 99.6003 363.5L98.0003 374.9L103 375.6L103.9 368.9C103.9 368.9 111.1 368.1 112.2 360.4C113.3 353 106.9 350.4 104.1 350C101.9 349.7 94.4003 349.2 93.3003 358.1Z" fill="#F5F5F5"/>
<path d="M102.608 377.884L97.5586 377.165L96.8813 381.917L101.93 382.636L102.608 377.884Z" fill="#F5F5F5"/>
<path d="M224.9 15.3L231.5 13.9C231.5 13.9 230.3 8.30002 236.1 7.00002C239.1 6.30002 241.1 7.90002 242 9.30002C243.1 10.9 243.3 12.9 242.7 14.8C242 16.9 239.9 19.1 235.2 19.3L238.4 34.2L244.9 32.8L243 24.1C243 24.1 251.7 19.7 249.5 9.60002C247.4 -0.0999756 238.2 -0.499976 234.5 0.400024C231.8 0.900024 222.3 3.70002 224.9 15.3Z" fill="#F5F5F5"/>
<path d="M245.76 35.8561L239.115 37.2971L240.471 43.5518L247.117 42.1109L245.76 35.8561Z" fill="#F5F5F5"/>
<path d="M499.8 399.1L503.7 400C503.7 400 504.4 396.8 507.8 397.5C509.6 397.9 510.2 399.2 510.4 400.2C510.6 401.3 510.2 402.4 509.4 403.3C508.5 404.2 506.9 404.9 504.4 403.9L502.5 412.6L506.3 413.4L507.4 408.3C507.4 408.3 513 408.1 514.3 402.2C515.5 396.6 510.8 394.1 508.6 393.7C507 393.1 501.3 392.3 499.8 399.1Z" fill="#E0E0E0"/>
<path d="M505.943 414.969L502.038 414.105L501.239 417.718L505.145 418.581L505.943 414.969Z" fill="#E0E0E0"/>
<path d="M511.5 116.9H518.8C518.8 116.9 518.8 110.8 525.1 110.7C528.4 110.6 530.1 112.8 530.8 114.5C531.6 116.4 531.4 118.6 530.3 120.4C529.1 122.4 526.4 124.3 521.5 123.4V139.8H528.7V130.2C528.7 130.2 538.8 127.6 538.8 116.5C538.8 105.9 529.3 103.4 525.2 103.4C522 103.3 511.4 104.1 511.5 116.9Z" fill="#F5F5F5"/>
<path d="M528.699 143.1H521.399V149.9H528.699V143.1Z" fill="#F5F5F5"/>
<path d="M330.5 25.7L338.3 27.4C338.3 27.4 339.8 20.8 346.6 22.2C350.2 22.9 351.5 25.7 351.8 27.6C352.2 29.9 351.4 32.2 349.8 33.8C348 35.7 344.6 37 339.6 34.9L335.7 52.6L343.5 54.3L345.8 43.9C345.8 43.9 357.3 43.5 359.9 31.5C362.4 20 352.7 15.1 348.3 14.1C345 13.6 333.4 11.9 330.5 25.7Z" fill="#E0E0E0"/>
<path d="M342.815 58.0596L334.906 56.3116L333.288 63.6346L341.197 65.3826L342.815 58.0596Z" fill="#E0E0E0"/>
<path d="M515.5 433.7C515.5 433.8 426.3 434 316.3 434C206.3 434 117.1 433.9 117.1 433.7C117.1 433.6 206.3 433.4 316.3 433.4C426.3 433.5 515.5 433.6 515.5 433.7Z" fill="#263238"/>
<path d="M287.6 38.1L263.3 46.1L271.9 70.1L287.6 38.1Z" fill="#455A64"/>
<path d="M290.3 142L282.4 127.1C297.9 118.9 305.8 106.9 304.6 93.4001C303.4 78.8001 291.7 65.4001 275.6 60.0001L280.9 44.0001C303.7 51.6001 319.6 70.5001 321.4 92.1001C323.2 112.4 311.8 130.6 290.3 142Z" fill="#455A64"/>
<g opacity="0.3">
<path d="M303.9 103.9C303.9 103.9 311.4 106.3 321.2 101L320.2 108.3L302.2 115.1L301.8 109.6L303.9 103.9Z" fill="black"/>
</g>
<path d="M420.2 420L417.2 399.7C478.6 390.7 510.7 341.1 521.7 320.2L539.9 329.7C527.4 353.4 490.9 409.6 420.2 420Z" fill="url(#paint20_linear_4001_73911)"/>
<path d="M542.7 343.4L538.7 311.5L507.5 325.8L542.7 343.4Z" fill="url(#paint21_linear_4001_73911)"/>
<g opacity="0.3">
<path d="M460 385.2L455 387.8L458.1 409.1L466.6 405L460 385.2Z" fill="black"/>
</g>
<path d="M236 407.4C208.2 402.7 168.7 390.9 138.5 360.8C110.3 332.7 96.8001 293.5 103.4 258.3C106.8 240.2 115.6 222.5 128.8 207.3C141.1 193.2 156.8 181.4 174.5 173.1C203.7 159.4 239.2 153.6 283.3 155.3L282.6 172.2C241.3 170.6 208.3 175.9 181.7 188.4C149.2 203.6 125.6 231.6 120 261.4C114.4 291.2 126.1 324.7 150.4 348.8C177.5 375.7 213.4 386.4 238.8 390.7L236 407.4Z" fill="#455A64"/>
<g opacity="0.3">
<path d="M222.6 387.3L217.6 403.5L230 406.6L229.5 388.9L222.6 387.3Z" fill="black"/>
</g>
<path d="M236.2 177.6C231.2 150.9 247.5 124.9 273.7 117.8L276.3 117.1C304.8 111.1 325.8 132 331 160.6L350.1 269.7L312.5 303L291.5 291C289.7 283 285.8 266.5 285.8 266.5C285.8 266.5 257.7 269.6 250.1 242.8C246.3 229.8 240.9 202.4 236.2 177.6Z" fill="white"/>
<path d="M285.8 266.5C285.8 266.5 303.1 262.9 318.1 246.6C318.1 246.6 315.2 269.2 287.6 274L285.8 266.5Z" fill="#263238"/>
<path d="M251.8 199.8C252.3 201.9 254.4 203.1 256.6 202.7C258.7 202.2 260.1 200.2 259.6 198.2C259.1 196.1 257 194.9 254.8 195.3C252.7 195.7 251.4 197.7 251.8 199.8Z" fill="#263238"/>
<path d="M245.2 188C245.8 188.4 248.1 185.4 252.3 184.3C256.4 183.1 260 184.4 260.4 183.8C260.6 183.5 259.8 182.7 258.2 182.1C256.6 181.5 254.2 181.2 251.6 181.9C249 182.6 247.1 184.2 246.1 185.5C245.1 186.8 244.9 187.8 245.2 188Z" fill="#263238"/>
<path d="M287.3 190.7C287.8 192.8 289.9 194 292.1 193.6C294.2 193.1 295.6 191.1 295.1 189.1C294.6 187 292.5 185.8 290.3 186.2C288.2 186.6 286.8 188.6 287.3 190.7Z" fill="#263238"/>
<path d="M286.1 177.9C286.7 178.3 289 175.3 293.2 174.2C297.3 173 300.9 174.3 301.3 173.7C301.5 173.4 300.7 172.6 299.1 172C297.5 171.4 295.1 171.1 292.5 171.8C289.9 172.5 288 174.1 287 175.4C286 176.7 285.8 177.8 286.1 177.9Z" fill="#263238"/>
<path d="M279.8 213.8C279.8 213.6 277.1 213.8 272.7 214.4C271.6 214.6 270.6 214.6 270.2 214C269.7 213.3 269.9 212 270.1 210.7C270.4 207.9 270.7 204.9 271 201.8C272.2 189.2 272.8 178.9 272.3 178.8C271.8 178.8 270.4 189 269.2 201.6C268.9 204.7 268.7 207.7 268.4 210.5C268.3 211.8 268 213.4 269 214.8C269.5 215.5 270.4 215.9 271.2 215.9C271.9 215.9 272.5 215.8 273.1 215.7C277.3 214.7 279.9 214 279.8 213.8Z" fill="#263238"/>
<path d="M302.4 164.1C301.9 163 297.7 164 292.6 163.9C287.5 163.9 283.3 162.9 282.8 164C282.6 164.5 283.4 165.5 285.1 166.5C286.8 167.4 289.5 168.2 292.6 168.2C295.6 168.2 298.3 167.4 300.1 166.5C301.8 165.6 302.6 164.6 302.4 164.1Z" fill="#263238"/>
<path d="M241.7 175.9C242.8 176.6 245.9 174.8 250 173.7C254 172.5 257.7 172.4 258.2 171.2C258.4 170.6 257.6 169.8 255.9 169.3C254.2 168.8 251.5 168.7 248.7 169.5C245.9 170.3 243.7 171.8 242.5 173.1C241.4 174.4 241.2 175.5 241.7 175.9Z" fill="#263238"/>
<path d="M334.2 180.6C334.6 180.3 351.3 170.7 355.7 189.3C360.1 207.9 338.9 209.1 338.7 208.6C338.6 208.1 334.2 180.6 334.2 180.6Z" fill="white"/>
<path d="M344.4 199.6C344.5 199.5 344.8 199.7 345.4 199.9C346 200 346.9 200 347.8 199.4C349.6 198.2 350.5 194.7 349.8 191.3C349.4 189.6 348.7 188.1 347.8 186.9C346.9 185.7 345.8 184.9 344.8 185C343.8 185 343.2 185.8 343.1 186.3C343 186.9 343.2 187.2 343.1 187.3C343.1 187.4 342.6 187.1 342.6 186.3C342.6 185.9 342.7 185.4 343.1 185C343.5 184.5 344.1 184.2 344.8 184.1C346.3 183.9 347.9 184.9 348.9 186.2C350 187.5 350.9 189.2 351.3 191.1C352.1 194.9 351 198.8 348.5 200.2C347.3 200.9 346.1 200.7 345.4 200.4C344.5 200 344.3 199.6 344.4 199.6Z" fill="#263238"/>
<path d="M191.9 161.7C191.9 160.5 192.5 159.4 193.4 158.6C195.2 156.8 197.7 156.4 200.1 155.8C206 154.3 211.5 151.4 216.1 147.5C214 147 212.1 146.3 210.3 145.2C206.6 142.9 203.8 138.8 204.2 134.4C204.3 133.6 204.5 132.7 205.2 132.3C206.3 131.6 207.7 132.6 208.7 133.3C212.2 135.7 215.1 136.4 219.1 135C221.6 134.1 223.9 133 225.7 131.2C225.8 131.1 225.8 131 225.9 130.9C226.6 129.7 227.3 128.5 228 127.3C233.3 118.7 238.2 112.5 243.8 108.5C252 102.7 266.8 97.6001 276.9 97.8001C287 98.0001 297.3 103.6 300.9 113C305.1 107.2 313.1 105.4 320.2 106.4L320.3 106.3C328.1 107.1 334 113.8 337.9 120.6C338.1 121 338.3 121.4 338.5 121.7C341.9 125 346 127.5 350.4 128.8C351.2 129 352.1 129.3 352.4 130.1C352.7 130.9 352.2 131.7 351.6 132.3C350.2 133.9 348.4 135.2 346.4 136.1C347.5 137.7 348.7 139.2 350 140.6C351.1 141.8 352.5 143.2 352.1 144.8C351.8 146 350.5 146.8 349.3 146.9C348 147 346.8 146.6 345.6 146.2C346.9 147.9 348.1 149.7 349.4 151.4C346.9 152.5 344.2 152.9 341.5 152.8C341.6 160 343.5 173 342.9 178.1C338 179.4 336.7 179.1 334.4 180.5C331.4 182.3 334 187.7 329.5 187.1C327.2 186.8 322 179.5 320.7 177.5C312.5 164.2 307.2 149.2 305.3 133.7C301.6 131.2 297.3 129.5 293 128.6L293.4 128.8C285.2 128 276 127.4 269.6 132.7C264.7 136.8 262.8 143.4 259.7 149C253.9 159.7 246 166.5 234.4 169.8C235.3 178.3 238.2 191.7 239.6 199.5L229.1 186V186.1C228.4 185.3 227.7 184.5 227.1 183.7L226.9 183.5C225.9 182.2 224.9 180.9 223.7 179.7C223.7 179.7 223.7 179.8 223.6 179.8C220.3 184.5 212.9 180.3 215.1 175.1C215.5 174.1 216.1 173.1 216.9 172.2C215.4 174.4 212.8 176 210.1 175.8C207.4 175.6 204.9 173.6 204.5 170.9C204.2 169.1 205.1 167.2 206.5 166.1C203.2 167.2 199.6 167.3 196.3 166.3C194.2 165.6 191.9 164.3 191.9 161.7Z" fill="#263238"/>
<path d="M294.1 118.2C294.1 118.3 295.4 118.6 297.4 120C299.4 121.4 301.9 124 303.7 128C304.6 130 305.5 132.2 306.1 134.7C306.7 137.2 307.2 139.9 307.6 142.8C308.1 145.7 308.6 148.7 309.5 151.8C310 153.3 310.5 154.9 311.2 156.4C311.9 157.9 312.7 159.5 314.2 160.5C315.4 161.4 317.1 161.5 318.3 160.9C319.6 160.3 320.6 159.3 321.3 158.1C322.6 155.6 322.4 152.9 322.3 150.6L321.7 150.8C323.1 152.6 324.6 154.4 326.4 155.7C328.2 157 330.4 157.6 332.4 157.3C333.4 157.2 334.3 156.8 335.1 156.1C335.9 155.5 336.3 154.6 336.6 153.8C336.8 152.9 336.8 152 336.6 151.3C336.4 150.5 335.9 149.8 335.2 149.4L335 149.7C337.7 151.6 340.2 152.3 341.9 152.7C342.8 152.9 343.4 152.9 343.9 153C344.4 153 344.6 153 344.6 153C344.6 153 344.4 152.9 343.9 152.9C343.5 152.8 342.8 152.7 342 152.5C340.3 152.1 337.9 151.3 335.3 149.4L335.1 149.7C336.2 150.5 336.7 152.1 336.2 153.7C336 154.5 335.5 155.2 334.9 155.8C334.2 156.3 333.4 156.7 332.5 156.8C330.7 157.1 328.6 156.5 326.9 155.2C325.2 154 323.8 152.2 322.4 150.4L321.8 149.6V150.6C321.9 153 322 155.6 320.9 157.8C320.3 158.9 319.4 159.8 318.2 160.3C317.1 160.8 315.7 160.7 314.7 160C313.4 159.1 312.6 157.6 311.9 156.2C311.2 154.7 310.6 153.2 310.2 151.7C309.3 148.7 308.8 145.7 308.2 142.8C307.7 139.9 307.2 137.2 306.6 134.7C306 132.2 305.1 129.9 304.1 127.9C302.2 123.9 299.6 121.2 297.5 119.9C295.5 118.5 294.1 118.2 294.1 118.2Z" fill="#455A64"/>
<path d="M216.3 164.8C216.3 164.8 216.4 164.9 216.6 164.9C216.8 165 217.1 165.1 217.4 165.2C217.8 165.4 218.2 165.5 218.7 165.7C219.2 165.9 219.8 166.1 220.6 166.2C223.4 166.8 227.7 167 232.7 165.5C237.6 164 243.2 160.8 247.7 155.5C252.2 150.3 255.6 143.4 257.9 135.9C259.1 132.1 259.9 128.4 260.9 124.8C261.9 121.3 263.2 117.9 265 115.1C266.8 112.3 269.1 109.9 271.7 108.5C273 107.8 274.4 107.3 275.7 107C277.1 106.7 278.4 106.7 279.7 106.8C282.2 107 284.4 107.9 286.2 108.9C288 109.9 289.3 111.1 290.2 112.1C292 114.3 292.5 115.9 292.6 115.8C292.6 115.8 292.6 115.7 292.5 115.5C292.4 115.3 292.3 115 292.2 114.7C291.9 114 291.3 113 290.4 111.9C289.5 110.8 288.2 109.6 286.4 108.5C284.6 107.5 282.4 106.6 279.8 106.3C278.5 106.2 277.1 106.2 275.7 106.4C274.3 106.7 272.9 107.1 271.5 107.9C268.8 109.4 266.4 111.8 264.6 114.7C262.7 117.6 261.4 121 260.4 124.6C259.4 128.2 258.5 131.9 257.4 135.7C255.1 143.2 251.8 150 247.4 155.1C243.1 160.3 237.6 163.5 232.8 165C227.9 166.5 223.6 166.4 220.8 165.9C217.8 165.4 216.4 164.7 216.3 164.8Z" fill="#455A64"/>
<path d="M211 153.5C211 153.5 211.4 153.7 212.1 153.9C212.8 154.2 214 154.4 215.3 154.7C216.7 155 218.4 155.1 220.2 155.1C222.1 155.1 224.1 154.9 226.2 154.5C228.3 154.1 230.3 153.4 232 152.7C233.7 152 235.2 151.2 236.4 150.4C237.6 149.6 238.5 148.9 239.1 148.4C239.7 147.9 240 147.6 240 147.5C239.9 147.4 238.6 148.5 236.2 150C235 150.7 233.5 151.5 231.8 152.2C230.1 152.9 228.2 153.5 226.1 153.9C224 154.3 222 154.5 220.2 154.6C218.4 154.6 216.7 154.5 215.3 154.3C212.7 153.9 211 153.3 211 153.5Z" fill="#455A64"/>
<path d="M295.2 223.2C295.3 223.6 292.1 224.5 288.3 225.7C284.5 226.9 281.4 227.9 281.2 227.6C281 227.2 283.9 225.6 287.8 224.3C291.8 223.1 295.2 222.8 295.2 223.2Z" fill="#263238"/>
<path d="M281.2 165.7C281.2 165.7 280.7 166 279.8 166C278.9 166 277.6 165.8 276.5 165.1C275.3 164.4 274.5 163.3 274.2 162.5C273.8 161.7 273.8 161.1 273.9 161.1C274 161.1 274.1 161.6 274.5 162.3C274.9 163 275.7 163.9 276.8 164.6C277.9 165.3 279 165.6 279.9 165.6C280.6 165.7 281.1 165.6 281.2 165.7Z" fill="#263238"/>
<path d="M298.7 226.2C298.6 226.1 299.1 225 298.7 223.5C298.4 222 297.5 221.1 297.6 221C297.6 221 297.9 221.1 298.3 221.5C298.7 221.9 299 222.6 299.2 223.4C299.4 224.2 299.3 225 299.1 225.5C298.9 225.9 298.7 226.2 298.7 226.2Z" fill="#263238"/>
<path d="M195.2 228.1C195.2 228.1 217.1 183.7 218.6 181.9C220.1 180.1 228.1 161.5 228.1 161.5L239.3 148.2C239.3 148.2 244.5 149 241.2 155.8L236.5 164.8L253.9 147.3C253.9 147.3 259.1 147.9 257 153.4C255.5 157.5 250.2 163.8 250.2 163.8L265.8 150.2C265.8 150.2 272.3 151.2 269.2 158C267.2 162.4 249 182.5 249 182.5C249 182.5 258.1 176.9 260.9 175C263.8 173.1 266.7 169.1 268.8 169.5C270.9 169.9 274.6 173.2 269.1 179.4C263.6 185.7 248.1 195.6 245.8 196.9C243.5 198.1 243.5 198.1 243.5 198.1C243.5 198.1 240.8 205.1 237 208.4C237 208.4 230.8 228.1 227.6 233.6C224.2 239.5 218.6 242.6 218.6 242.6L209 268.5L181.6 249.6L195.2 228.1Z" fill="white"/>
<path d="M195.2 228.1C195.2 228.1 194.9 228.6 194.3 229.5C193.7 230.5 192.9 231.9 191.7 233.7C189.4 237.4 186.1 242.8 181.8 249.7V249.6C189.2 254.7 198.4 261 209.2 268.5L209 268.6C211.9 260.8 215.1 252.1 218.6 242.7C218.6 242.7 218.6 242.6 218.7 242.6C221.2 241 223.6 239 225.6 236.6C226.6 235.4 227.5 234 228.2 232.6C228.9 231.1 229.6 229.6 230.2 228.1C232.6 221.9 234.8 215.3 237 208.5C237 208.5 237 208.4 237.1 208.4C238.5 207.1 239.7 205.5 240.7 203.8C241.7 202 242.7 200.2 243.5 198.2L243.6 198.1C244.7 197.5 245.9 196.9 247 196.2C248.1 195.5 249.2 194.8 250.4 194C252.6 192.5 254.9 191 257.1 189.4C259.3 187.8 261.5 186.1 263.7 184.4C265.8 182.6 268 180.8 269.8 178.6C270.7 177.5 271.4 176.3 271.8 174.9C272.2 173.6 272 172.1 271 171.1C270.5 170.6 270 170.2 269.3 170C268.7 169.8 268 170 267.4 170.3C266.2 171 265.1 172.1 264.1 173C263 174 261.9 175 260.6 175.7C259.3 176.5 258.1 177.3 256.8 178.1C254.3 179.7 251.8 181.3 249.2 182.8C249.1 182.9 249 182.8 248.9 182.7C248.8 182.6 248.9 182.5 248.9 182.4C250.2 180.9 251.7 179.3 253.1 177.7C257.1 173.1 261.1 168.6 264.8 163.9C265.7 162.7 266.6 161.6 267.5 160.4C268.4 159.2 269.2 158 269.6 156.6C270 155.2 270.1 153.7 269.3 152.5C268.6 151.3 267.2 150.6 265.8 150.4L266 150.3C260.7 154.9 255.5 159.4 250.4 163.8C250.3 163.9 250.2 163.9 250.1 163.8C250 163.7 250 163.6 250.1 163.5C252.3 160.8 254.4 158 256 155C256.4 154.2 256.8 153.5 257 152.7C257.3 151.9 257.4 151.1 257.2 150.3C257.1 149.5 256.7 148.8 256 148.3C255.4 147.8 254.6 147.5 253.8 147.4L254 147.3C248 153.3 242.2 159.2 236.6 164.8C236.5 164.9 236.4 164.9 236.3 164.8C236.2 164.7 236.2 164.6 236.3 164.6C237.9 161.6 239.4 158.7 240.9 155.8C241.3 155.1 241.6 154.4 241.8 153.6C241.9 153.2 242 152.8 242.1 152.5C242.1 152.1 242.2 151.7 242.1 151.4C242 150.6 241.7 149.9 241.2 149.4C240.7 148.9 240 148.5 239.3 148.4L239.5 148.3C235.6 153 231.9 157.4 228.3 161.6C226 166.8 223.8 171.8 221.6 176.5C221 177.7 220.5 178.8 219.9 179.9C219.6 180.5 219.3 181 219 181.5C218.6 182 218.3 182.5 218 183C216.8 185.1 215.7 187.2 214.7 189.2C210.5 197.3 207 204.3 204.1 210.1C201.2 215.8 199 220.3 197.5 223.3C196.7 224.8 196.2 226 195.8 226.7C195.4 227.8 195.2 228.1 195.2 228.1C195.2 228.1 195.4 227.7 195.8 226.9C196.2 226.1 196.7 224.9 197.5 223.4C199 220.4 201.2 215.9 204 210.1C206.9 204.3 210.3 197.3 214.5 189.2C215.5 187.2 216.6 185.1 217.8 182.9C218.1 182.4 218.5 181.8 218.8 181.3C219.1 180.8 219.4 180.2 219.7 179.7C220.3 178.6 220.8 177.4 221.4 176.3C223.6 171.6 225.8 166.6 228 161.4C231.5 157.2 235.2 152.7 239.1 148.1C239.1 148.1 239.2 148 239.3 148C240.1 148.2 240.9 148.5 241.4 149.1C242 149.7 242.3 150.5 242.4 151.3C242.5 151.7 242.4 152.1 242.4 152.5C242.3 152.9 242.3 153.3 242.1 153.7C241.9 154.5 241.5 155.2 241.2 156C239.7 158.9 238.2 161.8 236.6 164.8L236.3 164.6C241.9 159 247.7 153.2 253.7 147.1C253.7 147.1 253.8 147 253.9 147C254.8 147.1 255.6 147.5 256.3 148C257 148.5 257.5 149.4 257.6 150.3C257.7 151.2 257.6 152.1 257.3 152.9C257.1 153.7 256.7 154.5 256.3 155.3C254.7 158.3 252.6 161.1 250.3 163.8L250 163.5C255.1 159.1 260.3 154.5 265.6 149.9C265.6 149.9 265.7 149.8 265.8 149.9C266.6 150 267.3 150.3 267.9 150.7C268.5 151.1 269.2 151.6 269.6 152.3C270.4 153.6 270.4 155.3 269.9 156.7C269.7 157.4 269.4 158.1 269 158.8C268.6 159.5 268.2 160.1 267.8 160.7C266.9 161.9 266 163.1 265.1 164.2C261.4 168.9 257.4 173.4 253.4 178C252 179.6 250.5 181.2 249.2 182.7L248.9 182.4C251.4 180.8 254 179.2 256.5 177.7C259 176.1 261.6 174.7 263.7 172.7C264.8 171.7 265.8 170.7 267.1 169.9C267.4 169.7 267.8 169.6 268.2 169.5C268.6 169.4 269 169.5 269.4 169.6C270.1 169.8 270.8 170.3 271.3 170.8C272.4 171.9 272.6 173.6 272.2 175.1C271.8 176.5 271 177.8 270.2 178.9C268.4 181.1 266.2 183 264.1 184.8C261.9 186.6 259.7 188.2 257.5 189.8C255.3 191.4 253 192.9 250.8 194.4C249.7 195.1 248.6 195.9 247.4 196.6C246.3 197.3 245.1 197.9 243.9 198.5L244 198.4C243.2 200.4 242.2 202.3 241.2 204.1C240.1 205.9 238.9 207.5 237.5 208.8L237.6 208.7C235.4 215.5 233.2 222.1 230.8 228.3C230.2 229.8 229.5 231.4 228.8 232.8C228.1 234.3 227.2 235.6 226.2 236.9C224.2 239.4 221.8 241.4 219.2 243L219.3 242.9C215.8 252.3 212.6 261 209.7 268.8C209.7 268.9 209.6 268.9 209.5 268.9C198.7 261.4 189.5 255 182.2 250C182.2 250 182.1 249.9 182.2 249.9C186.5 243 189.9 237.6 192.2 233.9C193.3 232.1 194.2 230.7 194.8 229.7C194.8 228.6 195.2 228.1 195.2 228.1Z" fill="#263238"/>
<path d="M252.6 160.9C252.6 160.9 252.3 161.4 251.6 162.1C251 162.9 250 163.9 248.8 165.3C246.4 167.9 243.1 171.5 239.1 175.2C236 178.1 232.9 180.7 230.3 182.6C227.9 183.3 226.2 184.3 225 185.1C223.8 185.9 223.3 186.5 223.2 186.4C223.2 186.4 223.3 186.2 223.6 186C223.9 185.7 224.3 185.4 224.9 184.9C226 184 227.8 182.9 230.2 182.2H230.1C232.6 180.2 235.6 177.7 238.8 174.7C242.7 171 246.1 167.5 248.6 164.9C249.8 163.6 250.7 162.6 251.5 161.8C252.2 161.3 252.6 160.9 252.6 160.9Z" fill="#263238"/>
<path d="M237.2 163.8C237.2 163.8 236.6 164.6 235.6 165.9C234.5 167.1 233 168.8 231.3 170.6C229.6 172.3 228.1 173.9 226.9 175.2C225.8 176.4 225.1 177.1 225 177C225 177 225.6 176.2 226.7 175C227.8 173.8 229.3 172.1 231 170.3C232.7 168.6 234.2 167 235.4 165.7C236.5 164.4 237.2 163.7 237.2 163.8Z" fill="#263238"/>
<path d="M249.3 182.3C249.3 182.3 249.1 182.5 248.7 182.8C248.3 183.1 247.6 183.5 246.8 184.1C245.2 185.1 242.9 186.4 240.3 187.7C237.7 189 235.3 189.9 233.5 190.6C232.6 190.9 231.9 191.1 231.4 191.3C230.9 191.4 230.6 191.5 230.6 191.5C230.6 191.4 231.7 191 233.4 190.3C235.2 189.6 237.6 188.6 240.1 187.3C242.7 186 245 184.8 246.6 183.8C248.2 182.9 249.2 182.3 249.3 182.3Z" fill="#263238"/>
<path d="M191.8 231.6C190.8 232.9 162.5 275.6 162.5 275.6C162.5 275.6 135.7 317.4 131.8 329.1C126.1 346.3 124.8 376 143.3 384C161.8 392 168.2 392.2 190.5 383.6C212.8 375 229.1 361.5 229.1 361.5L224.7 283.8L206.7 293L222.2 251.4L191.8 231.6Z" fill="#E0E0E0"/>
<path d="M430.2 297.8C430.2 297.8 444.6 309.3 449.8 348.6C453.1 373.4 462.4 433.5 462.4 433.5L407.9 433.6C407.9 433.6 397 356 398.1 354.9C399.3 353.7 430.2 297.8 430.2 297.8Z" fill="#E0E0E0"/>
<path d="M224.6 283.8L285.9 275.9C285.9 275.9 297.5 294.4 320.1 290.8C351.9 285.7 351.1 263.3 351.1 263.3C351.1 263.3 404 281.5 414.3 286.1C424.5 290.7 430.2 297.8 430.2 297.8C430.2 297.8 411.4 370.8 410.8 371.7C410.2 372.6 406.7 434.4 408 433.7C408.6 433.4 235.4 433.7 232.5 433.7L227.3 360L209.1 297.2L224.6 283.8Z" fill="#E0E0E0"/>
<path d="M214.7 272.4C214.7 272.4 214.6 272.7 214.5 273.1C214.3 273.6 214 274.3 213.7 275.1C213 276.9 212 279.4 210.9 282.6C208.6 289 205.6 297.8 202.3 307.6C200.7 312.5 199 317.1 198 321.5C197.5 323.7 197 325.8 196.5 327.7C196 329.6 195.3 331.4 194.7 333C194.1 334.6 193.6 336 193.1 337.3C192.7 338.6 192.2 339.6 191.8 340.5C191.4 341.4 191.1 342 190.8 342.5C190.6 342.9 190.4 343.2 190.4 343.2C190.4 343.2 190.5 343 190.7 342.5C190.9 342 191.2 341.3 191.6 340.5C192 339.6 192.4 338.6 192.8 337.3C193.2 336 193.7 334.6 194.3 333C195.6 329.9 196.5 326 197.5 321.6C198.4 317.2 200.1 312.6 201.7 307.6C204.9 297.8 208 288.9 210.4 282.6C211.6 279.4 212.6 276.9 213.4 275.1C213.8 274.3 214 273.6 214.3 273.1C214.5 272.6 214.6 272.4 214.7 272.4Z" fill="#263238"/>
<path d="M229.5 390C229.5 390 229.5 389.8 229.4 389.5C229.4 389.1 229.3 388.6 229.3 388C229.2 386.7 229 384.8 228.9 382.5C228.6 377.7 228.1 371 227.5 363.1C226.4 358.2 225.2 352.8 223.7 347.3C220.6 335.8 217 325.5 213.5 318.5C211.8 315 210.1 312.3 208.9 310.5C208.3 309.6 207.7 309 207.4 308.5C207.2 308.3 207.1 308.1 207 308C206.9 307.9 206.9 307.8 206.9 307.8C206.9 307.8 207 307.8 207.1 308C207.2 308.1 207.4 308.3 207.5 308.5C207.9 309 208.4 309.6 209.1 310.5C210.3 312.3 212.1 314.9 213.8 318.5C217.3 325.5 221 335.7 224.1 347.3C225.6 352.9 226.9 358.2 227.9 363.1C228.4 371 228.8 377.7 229.1 382.5C229.2 384.9 229.3 386.7 229.4 388.1C229.4 388.7 229.5 389.2 229.5 389.6C229.5 389.8 229.5 390 229.5 390Z" fill="#263238"/>
<path d="M408 433.6C408 433.6 407.9 433.8 408 433.6C408 433.4 407.9 433.1 407.9 432.8C407.9 432 407.9 431 407.9 429.6C407.9 426.8 407.9 422.8 407.9 417.8C408 407.8 408.1 394 408.2 378.8C408.2 378.7 408.2 378.6 408.2 378.6C410.2 363.5 412.1 349.7 413.4 339.8C414.1 334.9 414.6 330.8 415 328C415.2 326.6 415.4 325.6 415.5 324.8C415.6 324.5 415.6 324.2 415.6 324C415.6 323.8 415.7 323.7 415.7 323.7C415.7 323.7 415.7 323.8 415.7 324C415.7 324.2 415.6 324.5 415.6 324.8C415.5 325.6 415.4 326.6 415.2 328C414.8 330.8 414.3 334.8 413.7 339.8C412.4 349.8 410.6 363.5 408.6 378.6C408.6 378.7 408.6 378.8 408.6 378.8C408.4 394 408.3 407.8 408.1 417.8C408 422.8 408 426.8 407.9 429.6C407.9 431 407.8 432 407.8 432.8C408 433.2 408 433.4 408 433.6C408 433.6 408 433.8 408 433.6Z" fill="#263238"/>
<path d="M312.1 313.4L297.9 433.3L339.3 433.5L321.4 313.4H312.1Z" fill="url(#paint22_linear_4001_73911)"/>
<g opacity="0.3">
<path d="M129.7 336.8C129.7 336.8 154.8 380.2 196.4 381.2L205.9 375.6L135.1 319.4C135.1 319.3 131 330.1 129.7 336.8Z" fill="black"/>
</g>
<path d="M279.8 276.2L285.2 266.5C285.2 266.5 316.4 290.2 316 290.7C316 290.7 348.8 255.1 349.3 254.6L356.6 265.4C356.6 265.4 327.6 302.7 327.3 303C326.8 303.4 309.1 299.8 309.1 299.8L294 292.7L279.8 276.2Z" fill="#E0E0E0"/>
<path d="M307.3 305.3L312.6 315.6H321.9L325.6 303.7L318.7 295.6H314.6L307.3 305.3Z" fill="url(#paint23_linear_4001_73911)"/>
<path d="M316.5 293C316.5 293 316.5 293.1 316.3 293.3C316.1 293.5 316 293.8 315.7 294.1C315.2 294.8 314.5 295.8 313.6 297.1C311.7 299.7 309.1 303.2 306 307.4L305.8 307.6L305.6 307.4C303.4 305 301.1 302.5 298.6 299.8C293.4 294.1 288.7 288.8 285.4 284.9C283.7 283 282.4 281.4 281.6 280.3C281.2 279.7 280.8 279.3 280.6 279C280.4 278.7 280.3 278.5 280.3 278.5C280.3 278.5 280.4 278.6 280.7 278.9C280.9 279.2 281.3 279.6 281.8 280.2C282.7 281.3 284.1 282.8 285.8 284.7C289.2 288.5 293.9 293.7 299.1 299.5C301.6 302.2 303.9 304.8 306.1 307.2H305.8C308.9 303.1 311.6 299.6 313.5 297C314.4 295.8 315.2 294.8 315.7 294.1C315.9 293.8 316.1 293.5 316.3 293.3C316.4 293.1 316.5 293 316.5 293Z" fill="#263238"/>
<path d="M357 267.7C357.4 267.8 355.3 271 351.8 275.8C348.3 280.6 343.2 287.1 337.6 294.2C334.1 298.7 330.7 302.8 327.9 306.4L327.7 306.6L327.5 306.4C324.2 302.5 321.4 299.2 319.5 296.8C318.6 295.7 317.8 294.7 317.3 294.1C317.1 293.8 316.9 293.6 316.7 293.4C316.6 293.2 316.5 293.1 316.5 293.1C316.5 293.1 316.6 293.2 316.7 293.3C316.9 293.5 317.1 293.7 317.3 294C317.9 294.7 318.7 295.5 319.6 296.6C321.6 298.9 324.4 302.2 327.8 306.1H327.5C330.4 302.5 333.7 298.3 337.2 293.9C342.8 286.8 347.9 280.3 351.5 275.6C355.1 270.8 357.2 267.8 357 267.7Z" fill="#263238"/>
<path d="M311.8 314.9C311.7 314.9 312.1 313.8 312.8 312.2C313.5 310.6 314.5 308.4 315.7 306C316.9 303.6 318.1 301.5 319 300C319.9 298.5 320.5 297.6 320.6 297.6C320.7 297.6 320.1 298.6 319.3 300.1C318.5 301.6 317.3 303.8 316.1 306.1C314.9 308.5 313.9 310.7 313.1 312.2C312.4 314 311.9 314.9 311.8 314.9Z" fill="#263238"/>
<path d="M321.7 315.5C321.7 315.6 319.5 315.7 316.8 315.7C314.1 315.7 311.9 315.6 311.9 315.5C311.9 315.4 314.1 315.3 316.8 315.3C319.5 315.2 321.7 315.3 321.7 315.5Z" fill="#263238"/>
<g opacity="0.3">
<path d="M283.5 282.3L307.3 311.3L318.7 295.4L316.5 293L305.9 307.2L283.5 282.3Z" fill="black"/>
</g>
<g opacity="0.3">
<path d="M318.7 295.4C319.9 297 325.6 312.8 327.8 313C330 313.2 355.1 270.9 355.1 270.9L327.7 306.1L318.7 295.4Z" fill="black"/>
</g>
<g opacity="0.3">
<path d="M190.7 342.4L188.2 348.6C188.2 348.6 197.9 349.6 201.2 330.8C204.5 312 204.6 300.6 204.6 300.6L190.7 342.4Z" fill="black"/>
</g>
<g opacity="0.3">
<path d="M411.9 433.7L410.1 368.4L408.7 378.8L407.9 433.6L411.9 433.7Z" fill="black"/>
</g>
<path opacity="0.3" d="M298.6 433.7C298.6 433.7 305.7 422.4 317.4 416.5C329.6 410.3 336 410.5 336 410.5L334.6 401.1L317.4 401.6L302.1 413.6L300 421.4L298.6 433.7Z" fill="black"/>
<path d="M226.2 382.5C183.3 382.5 143.4 353.6 130.7 326C127 318 120.8 302.4 121.1 288.3C121.3 277 125.6 260.9 137 252.4C142.4 248.4 150 245.5 157.8 244.6C166.6 243.5 174.7 244.9 180.6 248.6L170.1 265.3C165.8 262.6 154.3 264.3 148.8 268.3C144.4 271.5 141 280.3 140.9 288.7C140.8 296.2 143.6 306.8 148.7 317.8C153.7 328.7 165 340.2 178.9 348.7C194.6 358.3 212.2 363.3 228.5 362.8L229.1 382.5C228 382.4 227.1 382.5 226.2 382.5Z" fill="url(#paint24_linear_4001_73911)"/>
<g opacity="0.3">
<path d="M166 264L171.7 245C171.7 245 178.2 246.7 180.3 248.6L170 264.9" fill="black"/>
</g>
<path d="M281.6 433.3C281.6 421.8 288.5 409.4 300.1 400C328.7 377 370.6 382 393 386.9L389.3 403.4C344 393.3 320.5 405.2 310.6 413.1C301.6 420.3 298.4 428.4 298.4 433.2L281.6 433.3Z" fill="#455A64"/>
<path d="M380.6 408.1L405.5 398.8L387.9 378.8L380.6 408.1Z" fill="#455A64"/>
<g opacity="0.3">
<path d="M349.5 152.8L348.1 169.6H342.6L341 152.7C344.2 152.4 347.1 152.4 349.5 152.8Z" fill="black"/>
</g>
<g opacity="0.3">
<path d="M222.6 263.1C222.6 263.1 236.9 273.1 236.7 273.1C236.5 273.2 235.8 273.5 235.1 274.7L220.1 266.8C220.1 266.8 221.4 264.5 222.6 263.1Z" fill="black"/>
</g>
<path d="M415.3 286.7L397.1 279.5C399.4 273.2 401.9 268 404.9 262.1C408.6 254.7 412.5 247 415.6 237.4C426.7 202.4 425.2 183.1 418.3 157.8L437.3 152.6C445.1 181.1 447 204 434.4 243.4C430.8 254.6 426.4 263.3 422.5 271C419.7 276.4 417.2 281.5 415.3 286.7Z" fill="url(#paint25_linear_4001_73911)"/>
<path d="M445.1 153.3L420.2 129.3L406.7 161.3L445.1 153.3Z" fill="url(#paint26_linear_4001_73911)"/>
<g opacity="0.3">
<path d="M397.1 279.5L398.8 275.4L417 281.9L415.3 286.7L397.1 279.5Z" fill="black"/>
</g>
<path d="M204.383 113.904C206.711 99.6783 197.066 86.2588 182.84 83.9308C168.614 81.6029 155.194 91.248 152.867 105.474C150.539 119.7 160.184 133.119 174.409 135.447C188.635 137.775 202.055 128.13 204.383 113.904Z" fill="white"/>
<path d="M204.7 109.7C204.7 109.7 204.7 109.6 204.7 109.3C204.7 109 204.6 108.6 204.6 108.1C204.6 107.8 204.6 107.5 204.5 107.2C204.5 106.9 204.4 106.5 204.3 106.1C204.2 105.3 204.1 104.4 203.8 103.4C203.3 101.4 202.4 99 200.9 96.5C199.4 94 197.2 91.4 194.3 89.2C191.4 87 187.7 85.1 183.4 84.4C179.2 83.7 174.4 83.8 169.8 85.5C168.6 85.9 167.6 86.4 166.4 87C165.3 87.6 164.2 88.2 163.2 89C162.1 89.7 161.2 90.6 160.3 91.5C159.4 92.5 158.5 93.4 157.8 94.5C156.3 96.6 154.9 99 154.1 101.6C153.3 104.2 152.8 106.9 152.8 109.7C152.8 112.5 153.3 115.3 154.1 117.9C154.9 120.5 156.3 122.9 157.8 125C158.5 126.1 159.5 127 160.3 128C161.3 128.9 162.2 129.8 163.2 130.5C164.2 131.3 165.3 131.9 166.4 132.5C167.5 133 168.6 133.6 169.8 134C174.4 135.7 179.1 135.9 183.4 135.1C187.7 134.3 191.4 132.5 194.3 130.3C197.2 128.1 199.4 125.5 200.9 123C202.4 120.5 203.3 118.1 203.8 116.1C204.1 115.1 204.2 114.2 204.3 113.4C204.4 113 204.4 112.6 204.5 112.3C204.5 112 204.5 111.7 204.6 111.4C204.6 110.9 204.7 110.5 204.7 110.2C204.7 109.8 204.7 109.7 204.7 109.7C204.7 109.7 204.7 109.8 204.7 110.1C204.7 110.4 204.7 110.8 204.7 111.3C204.7 111.6 204.7 111.9 204.7 112.2C204.7 112.5 204.6 112.9 204.6 113.3C204.5 114.1 204.4 115 204.1 116C203.7 118 202.7 120.4 201.3 123C199.8 125.5 197.6 128.2 194.7 130.5C191.7 132.7 188 134.7 183.7 135.5C179.4 136.3 174.5 136.1 169.9 134.4C168.7 134 167.6 133.4 166.5 132.9C165.4 132.2 164.3 131.6 163.3 130.8C162.2 130.1 161.3 129.1 160.3 128.3C159.4 127.3 158.5 126.4 157.7 125.2C156.1 123 154.8 120.6 153.9 117.9C153 115.3 152.6 112.4 152.5 109.6C152.5 106.7 153 103.9 153.9 101.3C154.7 98.6 156.1 96.2 157.7 94C158.5 92.9 159.4 91.9 160.3 91C161.3 90.1 162.2 89.2 163.3 88.5C164.3 87.7 165.4 87.1 166.5 86.4C167.6 85.9 168.8 85.3 169.9 84.9C174.5 83.1 179.4 83 183.7 83.8C188 84.6 191.8 86.5 194.7 88.8C197.7 91.1 199.8 93.7 201.3 96.3C202.8 98.9 203.7 101.3 204.1 103.3C204.4 104.3 204.5 105.2 204.6 106C204.7 106.4 204.7 106.8 204.7 107.1C204.7 107.4 204.7 107.7 204.7 108C204.7 108.5 204.7 108.9 204.7 109.2C204.7 109.5 204.7 109.7 204.7 109.7Z" fill="#263238"/>
<path d="M170.6 104.7H174.9C174.9 104.7 174.9 101.1 178.6 101.1C180.5 101.1 181.5 102.3 181.9 103.3C182.4 104.4 182.2 105.7 181.6 106.8C180.9 108 179.3 109.1 176.4 108.6V118.2H180.6V112.6C180.6 112.6 186.5 111.1 186.5 104.6C186.5 98.4 180.9 96.9 178.5 96.9C176.8 96.7 170.6 97.2 170.6 104.7Z" fill="#263238"/>
<path d="M180.8 120.1H176.5V124.1H180.8V120.1Z" fill="#263238"/>
<path d="M216.3 122.1C216.3 124.5 214.3 126.5 211.9 126.5C209.5 126.5 207.5 124.5 207.5 122.1C207.5 119.7 209.5 117.7 211.9 117.7C214.3 117.7 216.3 119.6 216.3 122.1Z" fill="white"/>
<path d="M216.3 122.1C216.2 122.1 216.2 121.7 216 121.1C215.8 120.5 215.4 119.5 214.4 118.8C213.5 118.1 211.9 117.7 210.5 118.3C209.1 118.8 207.8 120.4 207.8 122.1C207.8 123.9 209 125.4 210.5 126C212 126.6 213.5 126.2 214.4 125.5C215.4 124.8 215.8 123.9 216 123.2C216.2 122.4 216.2 122.1 216.3 122.1C216.3 122.1 216.4 122.5 216.3 123.2C216.2 123.9 215.8 124.9 214.7 125.8C213.7 126.6 212 127.1 210.3 126.5C208.6 126 207.2 124.2 207.2 122.1C207.2 120 208.6 118.3 210.3 117.7C212 117.1 213.7 117.6 214.7 118.4C215.7 119.2 216.1 120.3 216.3 121C216.4 121.7 216.3 122.1 216.3 122.1Z" fill="#263238"/>
<path d="M486 375.9C505.441 375.9 521.2 360.14 521.2 340.7C521.2 321.26 505.441 305.5 486 305.5C466.56 305.5 450.8 321.26 450.8 340.7C450.8 360.14 466.56 375.9 486 375.9Z" fill="white"/>
<path d="M521.2 340.7C521.2 340.7 521.2 340.5 521.1 340.1C521.1 339.7 521 339.1 521 338.4C521 338 521 337.6 520.9 337.2C520.9 336.8 520.8 336.3 520.7 335.7C520.5 334.6 520.4 333.4 520 332.1C519.4 329.4 518.1 326.2 516.1 322.8C514.1 319.4 511.2 315.9 507.2 312.9C503.2 309.9 498.3 307.4 492.5 306.4C486.8 305.4 480.3 305.6 474.2 307.9C472.6 308.4 471.2 309.2 469.7 309.9C468.3 310.8 466.8 311.6 465.4 312.6C464 313.6 462.7 314.8 461.4 316C460.2 317.3 459 318.6 458 320C455.9 322.9 454.1 326.1 453 329.6C451.9 333.1 451.3 336.8 451.2 340.6C451.2 344.4 451.9 348.1 453 351.6C454.1 355.1 455.9 358.3 458 361.2C459 362.7 460.2 363.9 461.4 365.2C462.7 366.4 463.9 367.6 465.4 368.6C466.7 369.7 468.2 370.5 469.7 371.3C471.2 372 472.7 372.8 474.2 373.3C480.3 375.6 486.8 375.8 492.5 374.8C498.3 373.8 503.2 371.3 507.2 368.3C511.2 365.3 514.1 361.8 516.1 358.4C518.1 355 519.4 351.8 520 349.1C520.4 347.8 520.6 346.5 520.7 345.5C520.8 345 520.9 344.5 520.9 344C520.9 343.6 521 343.1 521 342.8C521.1 342.1 521.1 341.5 521.1 341.1C521.2 340.9 521.2 340.7 521.2 340.7C521.2 340.7 521.2 340.9 521.2 341.3C521.2 341.7 521.2 342.3 521.2 343C521.2 343.4 521.2 343.8 521.2 344.2C521.2 344.7 521.1 345.1 521 345.7C520.8 346.8 520.7 348 520.3 349.4C519.7 352.1 518.5 355.4 516.5 358.8C514.5 362.2 511.6 365.8 507.6 368.9C503.6 371.9 498.6 374.5 492.7 375.6C486.9 376.6 480.3 376.5 474.1 374.1C472.5 373.6 471 372.8 469.5 372.1C468 371.2 466.5 370.4 465.1 369.3C463.7 368.3 462.4 367.1 461.1 365.9C459.9 364.6 458.6 363.3 457.6 361.8C455.5 358.9 453.6 355.6 452.5 352C451.3 348.4 450.7 344.6 450.7 340.8C450.8 336.9 451.4 333.2 452.5 329.6C453.6 326 455.5 322.7 457.6 319.8C458.6 318.3 459.9 317 461.1 315.7C462.4 314.5 463.7 313.3 465.1 312.3C466.5 311.2 468 310.4 469.5 309.5C471 308.8 472.5 308 474.1 307.5C480.4 305.1 486.9 305 492.7 306C498.5 307.1 503.6 309.6 507.6 312.7C511.6 315.8 514.5 319.4 516.5 322.8C518.5 326.3 519.7 329.5 520.3 332.2C520.7 333.6 520.8 334.8 521 335.9C521.1 336.4 521.2 336.9 521.2 337.4C521.2 337.9 521.2 338.3 521.2 338.6C521.2 339.3 521.2 339.9 521.2 340.3C521.2 340.5 521.2 340.7 521.2 340.7Z" fill="#263238"/>
<path d="M476.5 332.7H481.6C481.6 332.7 481.6 328.4 486 328.4C488.3 328.4 489.5 329.9 490 331C490.6 332.3 490.4 333.9 489.6 335.1C488.7 336.5 486.8 337.8 483.4 337.2V348.7H488.4V342C488.4 342 495.5 340.2 495.5 332.4C495.5 325 488.8 323.2 486 323.2C483.9 323.2 476.4 323.8 476.5 332.7Z" fill="#263238"/>
<path d="M488.6 351.1H483.5V355.9H488.6V351.1Z" fill="#263238"/>
<path d="M448.7 301.8C448.7 305 451.3 307.6 454.5 307.6C457.7 307.6 460.3 305 460.3 301.8C460.3 298.6 457.7 296 454.5 296C451.4 295.9 448.7 298.6 448.7 301.8Z" fill="white"/>
<path d="M448.7 301.8C448.8 301.8 448.8 301.3 449 300.4C449.3 299.5 449.9 298.3 451.1 297.4C452.3 296.5 454.4 295.9 456.3 296.7C458.2 297.4 459.9 299.4 459.9 301.8C459.9 304.2 458.3 306.2 456.3 306.9C454.4 307.6 452.3 307.1 451.1 306.2C449.8 305.3 449.2 304 449 303.2C448.8 302.3 448.8 301.8 448.7 301.8C448.7 301.8 448.6 302.3 448.7 303.3C448.9 304.2 449.4 305.6 450.8 306.7C452.1 307.8 454.4 308.5 456.6 307.7C458.8 307 460.8 304.6 460.7 301.9C460.7 299.1 458.8 296.8 456.6 296.1C454.4 295.3 452.1 296 450.8 297.1C449.4 298.2 448.9 299.6 448.7 300.5C448.6 301.3 448.7 301.8 448.7 301.8Z" fill="#263238"/>
<path d="M167.516 402.471C171.43 389.634 164.196 376.055 151.359 372.142C138.522 368.228 124.944 375.462 121.03 388.299C117.117 401.136 124.351 414.714 137.187 418.628C150.024 422.541 163.603 415.307 167.516 402.471Z" fill="white"/>
<path d="M168.6 395.4C168.6 395.4 168.6 395.3 168.6 395C168.6 394.7 168.6 394.3 168.5 393.8C168.5 393.5 168.5 393.3 168.4 393C168.4 392.7 168.3 392.4 168.2 392C168.1 391.3 168 390.4 167.7 389.5C167.3 387.6 166.4 385.4 165 383.1C163.6 380.8 161.6 378.3 158.8 376.2C156.1 374.1 152.6 372.4 148.6 371.7C144.6 371 140.2 371.1 135.9 372.8C134.8 373.1 133.8 373.7 132.8 374.2C131.8 374.8 130.8 375.4 129.8 376.1C128.8 376.8 128 377.6 127.1 378.4C126.3 379.3 125.4 380.2 124.7 381.2C123.3 383.2 122 385.4 121.3 387.8C120.5 390.2 120.1 392.8 120.1 395.4C120.1 398 120.6 400.6 121.3 403C122.1 405.4 123.3 407.6 124.7 409.6C125.4 410.6 126.3 411.5 127.1 412.4C128 413.2 128.9 414.1 129.8 414.7C130.7 415.4 131.8 416 132.8 416.6C133.8 417.1 134.9 417.6 135.9 418C140.2 419.6 144.6 419.7 148.6 419.1C152.6 418.4 156 416.7 158.8 414.6C161.5 412.5 163.6 410.1 165 407.7C166.4 405.4 167.3 403.1 167.7 401.3C168 400.4 168.1 399.5 168.2 398.8C168.3 398.4 168.3 398.1 168.4 397.8C168.4 397.5 168.4 397.2 168.5 397C168.5 396.5 168.6 396.1 168.6 395.8C168.6 395.5 168.6 395.4 168.6 395.4C168.6 395.4 168.6 395.5 168.6 395.8C168.6 396.1 168.6 396.5 168.6 397C168.6 397.3 168.6 397.5 168.6 397.9C168.6 398.2 168.5 398.6 168.5 398.9C168.4 399.6 168.3 400.5 168 401.4C167.6 403.3 166.7 405.5 165.3 407.9C163.9 410.3 161.9 412.8 159.1 414.9C156.3 417 152.8 418.8 148.8 419.5C144.8 420.2 140.2 420.1 135.9 418.5C134.8 418.1 133.8 417.6 132.7 417.1C131.7 416.5 130.6 415.9 129.7 415.2C128.7 414.5 127.8 413.7 126.9 412.8C126.1 411.9 125.2 411 124.5 410C123 408 121.8 405.7 121 403.2C120.2 400.7 119.8 398.1 119.7 395.4C119.7 392.7 120.2 390.1 121 387.6C121.8 385.1 123.1 382.9 124.5 380.8C125.2 379.8 126.1 378.9 126.9 378C127.8 377.2 128.7 376.3 129.7 375.6C130.6 374.8 131.7 374.3 132.7 373.7C133.8 373.2 134.8 372.6 135.9 372.3C140.2 370.7 144.8 370.6 148.8 371.3C152.8 372 156.3 373.8 159.1 375.9C161.9 378 163.9 380.5 165.3 382.9C166.7 385.3 167.5 387.5 168 389.4C168.3 390.3 168.4 391.2 168.5 391.9C168.5 392.3 168.6 392.6 168.6 392.9C168.6 393.2 168.6 393.5 168.6 393.8C168.6 394.3 168.6 394.7 168.6 395C168.6 395.3 168.6 395.4 168.6 395.4Z" fill="#263238"/>
<path d="M137.7 389.9H141.2C141.2 389.9 141.2 386.9 144.3 386.9C145.9 386.9 146.7 387.9 147.1 388.7C147.5 389.6 147.4 390.7 146.8 391.5C146.2 392.5 144.9 393.4 142.5 393V400.9H146V396.3C146 396.3 150.9 395 150.9 389.7C150.9 384.6 146.3 383.4 144.3 383.4C142.8 383.3 137.6 383.7 137.7 389.9Z" fill="#263238"/>
<path d="M146 402.6H142.5V405.9H146V402.6Z" fill="#263238"/>
<path d="M160.3 364.5C160.3 367.6 162.8 370.1 165.9 370.1C169 370.1 171.5 367.6 171.5 364.5C171.5 361.4 169 358.9 165.9 358.9C162.8 358.9 160.3 361.3 160.3 364.5Z" fill="white"/>
<path d="M160.3 364.5C160.4 364.5 160.4 364 160.6 363.2C160.8 362.4 161.4 361.2 162.7 360.3C163.9 359.4 165.9 358.9 167.7 359.6C169.6 360.3 171.2 362.2 171.1 364.5C171.1 366.8 169.5 368.8 167.7 369.4C165.8 370.1 163.9 369.6 162.7 368.7C161.5 367.8 160.9 366.6 160.6 365.8C160.3 365 160.3 364.5 160.3 364.5C160.3 364.5 160.2 365 160.3 365.9C160.5 366.8 161 368.1 162.3 369.2C163.6 370.3 165.8 370.9 167.9 370.1C170 369.4 171.9 367.1 171.9 364.5C171.9 361.8 170.1 359.6 167.9 358.9C165.7 358.1 163.6 358.8 162.3 359.8C161 360.9 160.4 362.2 160.3 363.1C160.1 364 160.2 364.5 160.3 364.5Z" fill="#263238"/>
</g>
<defs>
<linearGradient id="paint0_linear_4001_73911" x1="518.9" y1="242.153" x2="556.157" y2="242.153" gradientUnits="userSpaceOnUse">
<stop stop-color="#43D9BB"/>
<stop offset="1" stop-color="#0299ED"/>
</linearGradient>
<linearGradient id="paint1_linear_4001_73911" x1="394" y1="79.5168" x2="549.124" y2="79.5168" gradientUnits="userSpaceOnUse">
<stop stop-color="#43D9BB"/>
<stop offset="1" stop-color="#0299ED"/>
</linearGradient>
<linearGradient id="paint2_linear_4001_73911" x1="437" y1="134.15" x2="444.367" y2="134.15" gradientUnits="userSpaceOnUse">
<stop stop-color="#43D9BB"/>
<stop offset="1" stop-color="#0299ED"/>
</linearGradient>
<linearGradient id="paint3_linear_4001_73911" x1="156.6" y1="272.8" x2="163.035" y2="272.8" gradientUnits="userSpaceOnUse">
<stop stop-color="#43D9BB"/>
<stop offset="1" stop-color="#0299ED"/>
</linearGradient>
<linearGradient id="paint4_linear_4001_73911" x1="171.3" y1="282.3" x2="177.736" y2="282.3" gradientUnits="userSpaceOnUse">
<stop stop-color="#43D9BB"/>
<stop offset="1" stop-color="#0299ED"/>
</linearGradient>
<linearGradient id="paint5_linear_4001_73911" x1="186" y1="276.35" x2="192.435" y2="276.35" gradientUnits="userSpaceOnUse">
<stop stop-color="#43D9BB"/>
<stop offset="1" stop-color="#0299ED"/>
</linearGradient>
<linearGradient id="paint6_linear_4001_73911" x1="200.7" y1="273.9" x2="207.135" y2="273.9" gradientUnits="userSpaceOnUse">
<stop stop-color="#43D9BB"/>
<stop offset="1" stop-color="#0299ED"/>
</linearGradient>
<linearGradient id="paint7_linear_4001_73911" x1="215.5" y1="282.85" x2="221.935" y2="282.85" gradientUnits="userSpaceOnUse">
<stop stop-color="#43D9BB"/>
<stop offset="1" stop-color="#0299ED"/>
</linearGradient>
<linearGradient id="paint8_linear_4001_73911" x1="230.2" y1="286.35" x2="236.635" y2="286.35" gradientUnits="userSpaceOnUse">
<stop stop-color="#43D9BB"/>
<stop offset="1" stop-color="#0299ED"/>
</linearGradient>
<linearGradient id="paint9_linear_4001_73911" x1="244.9" y1="275.65" x2="251.335" y2="275.65" gradientUnits="userSpaceOnUse">
<stop stop-color="#43D9BB"/>
<stop offset="1" stop-color="#0299ED"/>
</linearGradient>
<linearGradient id="paint10_linear_4001_73911" x1="259.6" y1="280.2" x2="266.035" y2="280.2" gradientUnits="userSpaceOnUse">
<stop stop-color="#43D9BB"/>
<stop offset="1" stop-color="#0299ED"/>
</linearGradient>
<linearGradient id="paint11_linear_4001_73911" x1="274.3" y1="276.6" x2="280.736" y2="276.6" gradientUnits="userSpaceOnUse">
<stop stop-color="#43D9BB"/>
<stop offset="1" stop-color="#0299ED"/>
</linearGradient>
<linearGradient id="paint12_linear_4001_73911" x1="289" y1="284.25" x2="295.435" y2="284.25" gradientUnits="userSpaceOnUse">
<stop stop-color="#43D9BB"/>
<stop offset="1" stop-color="#0299ED"/>
</linearGradient>
<linearGradient id="paint13_linear_4001_73911" x1="19.3999" y1="182.9" x2="63.9388" y2="182.9" gradientUnits="userSpaceOnUse">
<stop stop-color="#43D9BB"/>
<stop offset="1" stop-color="#0299ED"/>
</linearGradient>
<linearGradient id="paint14_linear_4001_73911" x1="123.4" y1="69.9971" x2="163.282" y2="69.9971" gradientUnits="userSpaceOnUse">
<stop stop-color="#43D9BB"/>
<stop offset="1" stop-color="#0299ED"/>
</linearGradient>
<linearGradient id="paint15_linear_4001_73911" x1="148.1" y1="164.2" x2="153.858" y2="164.2" gradientUnits="userSpaceOnUse">
<stop stop-color="#43D9BB"/>
<stop offset="1" stop-color="#0299ED"/>
</linearGradient>
<linearGradient id="paint16_linear_4001_73911" x1="274.7" y1="215" x2="286.301" y2="215" gradientUnits="userSpaceOnUse">
<stop stop-color="#43D9BB"/>
<stop offset="1" stop-color="#0299ED"/>
</linearGradient>
<linearGradient id="paint17_linear_4001_73911" x1="347.9" y1="200.55" x2="359.5" y2="200.55" gradientUnits="userSpaceOnUse">
<stop stop-color="#43D9BB"/>
<stop offset="1" stop-color="#0299ED"/>
</linearGradient>
<linearGradient id="paint18_linear_4001_73911" x1="289.3" y1="245.8" x2="294.381" y2="245.8" gradientUnits="userSpaceOnUse">
<stop stop-color="#43D9BB"/>
<stop offset="1" stop-color="#0299ED"/>
</linearGradient>
<linearGradient id="paint19_linear_4001_73911" x1="361.295" y1="112.2" x2="391.189" y2="112.2" gradientUnits="userSpaceOnUse">
<stop stop-color="#43D9BB"/>
<stop offset="1" stop-color="#0299ED"/>
</linearGradient>
<linearGradient id="paint20_linear_4001_73911" x1="417.2" y1="370.1" x2="521.096" y2="370.1" gradientUnits="userSpaceOnUse">
<stop stop-color="#43D9BB"/>
<stop offset="1" stop-color="#0299ED"/>
</linearGradient>
<linearGradient id="paint21_linear_4001_73911" x1="507.5" y1="327.45" x2="537.305" y2="327.45" gradientUnits="userSpaceOnUse">
<stop stop-color="#43D9BB"/>
<stop offset="1" stop-color="#0299ED"/>
</linearGradient>
<linearGradient id="paint22_linear_4001_73911" x1="297.9" y1="373.45" x2="332.955" y2="373.45" gradientUnits="userSpaceOnUse">
<stop stop-color="#43D9BB"/>
<stop offset="1" stop-color="#0299ED"/>
</linearGradient>
<linearGradient id="paint23_linear_4001_73911" x1="307.3" y1="305.6" x2="322.795" y2="305.6" gradientUnits="userSpaceOnUse">
<stop stop-color="#43D9BB"/>
<stop offset="1" stop-color="#0299ED"/>
</linearGradient>
<linearGradient id="paint24_linear_4001_73911" x1="121.09" y1="313.367" x2="212.547" y2="313.367" gradientUnits="userSpaceOnUse">
<stop stop-color="#43D9BB"/>
<stop offset="1" stop-color="#0299ED"/>
</linearGradient>
<linearGradient id="paint25_linear_4001_73911" x1="397.1" y1="219.65" x2="436.393" y2="219.65" gradientUnits="userSpaceOnUse">
<stop stop-color="#43D9BB"/>
<stop offset="1" stop-color="#0299ED"/>
</linearGradient>
<linearGradient id="paint26_linear_4001_73911" x1="406.7" y1="145.3" x2="439.215" y2="145.3" gradientUnits="userSpaceOnUse">
<stop stop-color="#43D9BB"/>
<stop offset="1" stop-color="#0299ED"/>
</linearGradient>
<clipPath id="clip0_4001_73911">
<rect width="450.7" height="434" fill="white" transform="translate(92)"/>
</clipPath>
</defs>
</svg>
