<svg width="45" height="45" viewBox="0 0 45 45" fill="none" xmlns="http://www.w3.org/2000/svg">
<circle cx="22.5" cy="22.5" r="22" stroke="url(#paint0_linear_3933_77756)"/>
<path d="M30 23.5V17.8C30 16.1198 30 15.2798 29.673 14.638C29.3854 14.0735 28.9265 13.6146 28.362 13.327C27.7202 13 26.8802 13 25.2 13H18.8C17.1198 13 16.2798 13 15.638 13.327C15.0735 13.6146 14.6146 14.0735 14.327 14.638C14 15.2798 14 16.1198 14 17.8V28.2C14 29.8802 14 30.7202 14.327 31.362C14.6146 31.9265 15.0735 32.3854 15.638 32.673C16.2798 33 17.1198 33 18.8 33H22M24 22H18M20 26H18M26 18H18M24.5 30L26.5 32L31 27.5" stroke="white" stroke-linecap="round" stroke-linejoin="round"/>
<defs>
<linearGradient id="paint0_linear_3933_77756" x1="0" y1="22.5" x2="38.1036" y2="22.5" gradientUnits="userSpaceOnUse">
<stop stop-color="#43D9BB"/>
<stop offset="1" stop-color="#0299ED"/>
</linearGradient>
</defs>
</svg>
