<svg width="80" height="81" viewBox="0 0 80 81" fill="none" xmlns="http://www.w3.org/2000/svg">
<path d="M40 80.6082C62.0914 80.6082 80 62.6995 80 40.6082C80 18.5168 62.0914 0.608154 40 0.608154C17.9086 0.608154 0 18.5168 0 40.6082C0 62.6995 17.9086 80.6082 40 80.6082Z" fill="url(#paint0_linear_3843_70242)"/>
<path d="M20.3121 52.608V33.7813L34.5894 44.5266V52.608H38.2334V43.768C38.2327 43.4395 38.1559 43.1156 38.009 42.8218C37.8621 42.528 37.6491 42.2723 37.3867 42.0746L20.0721 29.0386C19.7554 28.8034 19.3797 28.6606 18.9867 28.6261C18.5937 28.5916 18.1988 28.6667 17.846 28.8431C17.4932 29.0196 17.1961 29.2904 16.988 29.6255C16.7798 29.9606 16.6686 30.3468 16.6667 30.7413V52.608H20.3121ZM59.7974 52.608V33.7813L45.5201 44.5266V52.608H41.8761V43.768C41.8768 43.4395 41.9536 43.1156 42.1005 42.8218C42.2474 42.528 42.4604 42.2723 42.7227 42.0746L60.0374 29.044C60.3537 28.809 60.729 28.6663 61.1215 28.6315C61.514 28.5968 61.9085 28.6715 62.2611 28.8473C62.6138 29.023 62.9109 29.2931 63.1195 29.6274C63.328 29.9617 63.4399 30.3473 63.4427 30.7413V52.608H59.7974Z" fill="white"/>
<defs>
<linearGradient id="paint0_linear_3843_70242" x1="40" y1="0.608154" x2="40" y2="80.6082" gradientUnits="userSpaceOnUse">
<stop stop-color="#4FA89B"/>
<stop offset="1" stop-color="#6ACEBB"/>
</linearGradient>
</defs>
</svg>
