<svg width="602" height="556" viewBox="0 0 602 556" fill="none" xmlns="http://www.w3.org/2000/svg">
<path d="M300.88 555.668V177.335L62.0445 21.1425C9.3688 -16.2565 -0.000340715 3.91241 0 21.1425V341.858C0 378.511 18.542 403.314 50.7022 423.078L300.88 555.668Z" fill="#1BC5A2" fill-opacity="0.1"/>
<mask id="mask0_460_40209" style="mask-type:alpha" maskUnits="userSpaceOnUse" x="0" y="0" width="301" height="556">
<path d="M300.88 555.668V177.335L62.0445 21.1425C9.3688 -16.2565 -0.000340715 3.91241 0 21.1425V341.858C0 378.511 18.542 403.314 50.7022 423.078L300.88 555.668Z" fill="white"/>
</mask>
<g mask="url(#mask0_460_40209)">
<path d="M146.329 278.647L300.848 177.416V372.175L146.329 278.647Z" fill="#43D9BB" fill-opacity="0.1"/>
<path d="M138.809 469.601L300.845 372.125V555.67L138.809 469.601Z" fill="#3ECAAE" fill-opacity="0.1"/>
<path d="M146.311 278.648L-0.00164795 179.108V372.176L146.311 278.648Z" fill="#0C9383" fill-opacity="0.1"/>
</g>
<path d="M300.88 555.668V177.335L539.716 21.1425C592.392 -16.2565 601.761 3.91241 601.761 21.1425V341.858C601.761 378.511 583.219 403.314 551.059 423.078L300.88 555.668Z" fill="#7EADF3" fill-opacity="0.1"/>
<mask id="mask1_460_40209" style="mask-type:alpha" maskUnits="userSpaceOnUse" x="300" y="0" width="302" height="556">
<path d="M300.88 555.668V177.335L539.716 21.1425C592.392 -16.2565 601.761 3.91241 601.761 21.1425V341.858C601.761 378.511 583.219 403.314 551.059 423.078L300.88 555.668Z" fill="white"/>
</mask>
<g mask="url(#mask1_460_40209)">
<path d="M455.432 278.647L300.913 177.416V372.175L455.432 278.647Z" fill="#A7C9FB" fill-opacity="0.1"/>
<path d="M462.948 469.601L300.913 372.125V555.67L462.948 469.601Z" fill="#7DA1D8" fill-opacity="0.1"/>
<path d="M455.447 278.648L601.759 179.108V372.176L455.447 278.648Z" fill="#4773B5" fill-opacity="0.1"/>
</g>
</svg>
