<svg width="100" height="22" viewBox="0 0 100 22" fill="none" xmlns="http://www.w3.org/2000/svg">
<path d="M8.55268 21.2329C6.6921 21.2329 5.13161 20.9675 3.87121 20.4366C2.63082 19.8862 1.68053 19.1784 1.02032 18.3134C0.380119 17.4287 0.0400125 16.5046 0 15.5413C0 15.3643 0.0600188 15.2169 0.180056 15.0989C0.300094 14.981 0.450141 14.922 0.630197 14.922H3.30103C3.56112 14.922 3.75118 14.981 3.87121 15.0989C4.01126 15.1972 4.13129 15.325 4.23133 15.4823C4.35136 15.8558 4.58144 16.2294 4.92154 16.6029C5.26165 16.9568 5.72179 17.2517 6.30197 17.4876C6.90216 17.7236 7.6524 17.8415 8.55268 17.8415C9.99313 17.8415 11.0635 17.6056 11.7637 17.1338C12.4839 16.6619 12.844 16.023 12.844 15.2169C12.844 14.6468 12.654 14.1946 12.2738 13.8604C11.8937 13.5065 11.3035 13.1919 10.5033 12.9167C9.72305 12.6218 8.68272 12.317 7.38231 12.0025C5.88184 11.6486 4.62145 11.2259 3.60113 10.7344C2.60081 10.2232 1.84058 9.58429 1.32041 8.81754C0.820257 8.0508 0.570179 7.07763 0.570179 5.89802C0.570179 4.75774 0.880276 3.74524 1.50047 2.86054C2.14067 1.97584 3.04095 1.2779 4.20132 0.766743C5.38169 0.255581 6.78212 0 8.40263 0C9.70304 0 10.8534 0.176941 11.8537 0.530822C12.854 0.865043 13.6843 1.31723 14.3445 1.88737C15.0047 2.43785 15.5049 3.03748 15.845 3.68626C16.2051 4.31539 16.3951 4.93468 16.4151 5.54414C16.4151 5.70142 16.3551 5.84887 16.2351 5.98649C16.1351 6.10445 15.985 6.16343 15.7849 6.16343H12.9941C12.834 6.16343 12.674 6.12411 12.5139 6.04547C12.3539 5.96683 12.2238 5.81938 12.1238 5.60312C12.0038 4.99366 11.6136 4.47267 10.9534 4.04015C10.2932 3.60762 9.44296 3.39136 8.40263 3.39136C7.32229 3.39136 6.45202 3.58796 5.79181 3.98116C5.13161 4.37437 4.8015 4.98383 4.8015 5.80955C4.8015 6.36003 4.96156 6.82204 5.28166 7.19559C5.62176 7.54947 6.15193 7.86403 6.87215 8.13927C7.61239 8.41451 8.58269 8.70941 9.78307 9.02397C11.4836 9.39751 12.874 9.83004 13.9544 10.3215C15.0347 10.813 15.825 11.4422 16.3251 12.2089C16.8253 12.956 17.0753 13.9095 17.0753 15.0694C17.0753 16.367 16.7152 17.4778 15.995 18.4018C15.2948 19.3062 14.3045 20.0041 13.0241 20.4956C11.7437 20.9871 10.2532 21.2329 8.55268 21.2329Z" fill="#1E1E1E"/>
<path d="M26.8765 21.2329C24.6558 21.2329 22.8952 20.6038 21.5948 19.3455C20.2944 18.0873 19.5942 16.2982 19.4942 13.9783C19.4741 13.7817 19.4641 13.536 19.4641 13.2411C19.4641 12.9265 19.4741 12.6807 19.4942 12.5038C19.5742 11.0293 19.9143 9.7514 20.5145 8.67009C21.1347 7.58879 21.9849 6.76306 23.0653 6.19292C24.1456 5.60312 25.416 5.30822 26.8765 5.30822C28.497 5.30822 29.8574 5.64244 30.9577 6.31088C32.0581 6.95966 32.8884 7.87386 33.4485 9.05346C34.0087 10.2134 34.2888 11.5601 34.2888 13.0936V13.7129C34.2888 13.9095 34.2188 14.0766 34.0787 14.2142C33.9387 14.3519 33.7586 14.4207 33.5386 14.4207H23.5754C23.5754 14.4207 23.5754 14.4502 23.5754 14.5091C23.5754 14.5681 23.5754 14.6173 23.5754 14.6566C23.5954 15.3447 23.7255 15.9836 23.9656 16.5734C24.2256 17.1436 24.5958 17.6056 25.0759 17.9595C25.5761 18.3134 26.1662 18.4903 26.8465 18.4903C27.4066 18.4903 27.8768 18.4117 28.2569 18.2544C28.637 18.0774 28.9471 17.8808 29.1872 17.6646C29.4273 17.4483 29.5973 17.2714 29.6974 17.1338C29.8774 16.8978 30.0175 16.7602 30.1175 16.7209C30.2375 16.6619 30.4076 16.6324 30.6276 16.6324H33.2085C33.4085 16.6324 33.5686 16.6914 33.6886 16.8094C33.8286 16.9273 33.8887 17.0748 33.8687 17.2517C33.8487 17.5663 33.6786 17.9496 33.3585 18.4018C33.0584 18.854 32.6183 19.2964 32.0381 19.7289C31.4579 20.1614 30.7277 20.5251 29.8474 20.82C28.9871 21.0953 27.9968 21.2329 26.8765 21.2329ZM23.5754 11.9435H30.2075V11.855C30.2075 11.0883 30.0775 10.4198 29.8174 9.8497C29.5573 9.27955 29.1772 8.82737 28.677 8.49315C28.1769 8.15893 27.5767 7.99182 26.8765 7.99182C26.1762 7.99182 25.5761 8.15893 25.0759 8.49315C24.5757 8.82737 24.1956 9.27955 23.9355 9.8497C23.6955 10.4198 23.5754 11.0883 23.5754 11.855V11.9435Z" fill="#1E1E1E"/>
<path d="M44.2264 21.2329C42.7859 21.2329 41.5155 20.9675 40.4152 20.4366C39.3348 19.9058 38.4846 19.1391 37.8644 18.1364C37.2642 17.1141 36.9341 15.8853 36.8741 14.4502C36.854 14.1553 36.844 13.7719 36.844 13.3C36.844 12.8085 36.854 12.4055 36.8741 12.0909C36.9341 10.6558 37.2642 9.43683 37.8644 8.43417C38.4846 7.41185 39.3348 6.63527 40.4152 6.10445C41.5155 5.57363 42.7859 5.30822 44.2264 5.30822C45.5068 5.30822 46.5971 5.48516 47.4974 5.83904C48.3977 6.19292 49.1379 6.63527 49.7181 7.1661C50.2983 7.69692 50.7284 8.25723 51.0085 8.84703C51.3086 9.41718 51.4686 9.93817 51.4886 10.41C51.5086 10.6263 51.4386 10.8032 51.2786 10.9408C51.1385 11.0588 50.9685 11.1178 50.7684 11.1178H48.1276C47.9275 11.1178 47.7675 11.0686 47.6474 10.9703C47.5474 10.872 47.4474 10.7246 47.3473 10.528C47.0472 9.74157 46.6471 9.19108 46.147 8.87652C45.6668 8.5423 45.0466 8.37519 44.2864 8.37519C43.2861 8.37519 42.4858 8.68975 41.8856 9.31887C41.3054 9.92834 40.9953 10.9015 40.9553 12.2384C40.9153 12.9855 40.9153 13.6736 40.9553 14.3027C40.9953 15.6592 41.3054 16.6423 41.8856 17.2517C42.4858 17.8612 43.2861 18.1659 44.2864 18.1659C45.0666 18.1659 45.6968 18.0086 46.177 17.6941C46.6571 17.3598 47.0472 16.7995 47.3473 16.0131C47.4474 15.8165 47.5474 15.6691 47.6474 15.5708C47.7675 15.4725 47.9275 15.4233 48.1276 15.4233H50.7684C50.9685 15.4233 51.1385 15.4921 51.2786 15.6298C51.4386 15.7477 51.5086 15.9148 51.4886 16.1311C51.4686 16.485 51.3686 16.888 51.1885 17.3402C51.0285 17.7727 50.7584 18.2249 50.3783 18.6967C50.0182 19.1489 49.558 19.5716 48.9979 19.9648C48.4377 20.3383 47.7575 20.6431 46.9572 20.879C46.177 21.1149 45.2667 21.2329 44.2264 21.2329Z" fill="#1E1E1E"/>
<path d="M60.4101 21.2329C59.1897 21.2329 58.1294 20.9675 57.2291 20.4366C56.3488 19.8862 55.6686 19.1194 55.1885 18.1364C54.7083 17.1338 54.4682 15.9541 54.4682 14.5976V6.31088C54.4682 6.11428 54.5383 5.94717 54.6783 5.80955C54.8183 5.67193 54.9884 5.60312 55.1885 5.60312H57.8293C58.0494 5.60312 58.2194 5.67193 58.3395 5.80955C58.4795 5.94717 58.5495 6.11428 58.5495 6.31088V14.4207C58.5495 16.8585 59.6399 18.0774 61.8205 18.0774C62.8609 18.0774 63.6811 17.753 64.2813 17.1043C64.9015 16.4555 65.2116 15.5609 65.2116 14.4207V6.31088C65.2116 6.11428 65.2816 5.94717 65.4217 5.80955C65.5617 5.67193 65.7318 5.60312 65.9318 5.60312H68.5727C68.7727 5.60312 68.9428 5.67193 69.0828 5.80955C69.2229 5.94717 69.2929 6.11428 69.2929 6.31088V20.2302C69.2929 20.4268 69.2229 20.5939 69.0828 20.7315C68.9428 20.8692 68.7727 20.938 68.5727 20.938H66.1419C65.9218 20.938 65.7418 20.8692 65.6017 20.7315C65.4817 20.5939 65.4217 20.4268 65.4217 20.2302V19.0211C64.8815 19.7092 64.2113 20.2499 63.411 20.6431C62.6108 21.0363 61.6105 21.2329 60.4101 21.2329Z" fill="#1E1E1E"/>
<path d="M73.9772 20.938C73.7771 20.938 73.607 20.8692 73.467 20.7315C73.327 20.5939 73.2569 20.4268 73.2569 20.2302V6.34037C73.2569 6.12411 73.327 5.94717 73.467 5.80955C73.607 5.67193 73.7771 5.60312 73.9772 5.60312H76.4079C76.608 5.60312 76.778 5.67193 76.9181 5.80955C77.0781 5.94717 77.1582 6.12411 77.1582 6.34037V7.54947C77.6183 6.92034 78.2085 6.43867 78.9287 6.10445C79.6689 5.77023 80.5192 5.60312 81.4795 5.60312H82.7099C82.93 5.60312 83.1 5.67193 83.2201 5.80955C83.3601 5.94717 83.4301 6.11428 83.4301 6.31088V8.43417C83.4301 8.63077 83.3601 8.79788 83.2201 8.9355C83.1 9.07312 82.93 9.14193 82.7099 9.14193H80.3692C79.4089 9.14193 78.6586 9.40734 78.1185 9.93817C77.5983 10.469 77.3382 11.1964 77.3382 12.1204V20.2302C77.3382 20.4268 77.2682 20.5939 77.1282 20.7315C76.9881 20.8692 76.8081 20.938 76.588 20.938H73.9772Z" fill="#1E1E1E"/>
<path d="M92.4676 21.2329C90.8671 21.2329 89.5167 20.9576 88.4164 20.4072C87.336 19.8567 86.5058 19.0801 85.9256 18.0774C85.3654 17.0748 85.0453 15.905 84.9653 14.5681C84.9453 14.2142 84.9353 13.7817 84.9353 13.2705C84.9353 12.7594 84.9453 12.3269 84.9653 11.973C85.0453 10.6164 85.3754 9.44666 85.9556 8.46366C86.5558 7.461 87.396 6.68442 88.4764 6.13394C89.5767 5.58346 90.9072 5.30822 92.4676 5.30822C94.0281 5.30822 95.3485 5.58346 96.4289 6.13394C97.5292 6.68442 98.3695 7.461 98.9497 8.46366C99.5499 9.44666 99.89 10.6164 99.97 11.973C99.99 12.3269 100 12.7594 100 13.2705C100 13.7817 99.99 14.2142 99.97 14.5681C99.89 15.905 99.5599 17.0748 98.9797 18.0774C98.4195 19.0801 97.5892 19.8567 96.4889 20.4072C95.4086 20.9576 94.0681 21.2329 92.4676 21.2329ZM92.4676 18.3134C93.528 18.3134 94.3482 17.989 94.9284 17.3402C95.5086 16.6717 95.8287 15.6986 95.8887 14.4207C95.9087 14.1258 95.9187 13.7424 95.9187 13.2705C95.9187 12.7987 95.9087 12.4153 95.8887 12.1204C95.8287 10.8622 95.5086 9.89885 94.9284 9.2304C94.3482 8.56196 93.528 8.22774 92.4676 8.22774C91.4073 8.22774 90.5871 8.56196 90.0069 9.2304C89.4267 9.89885 89.1066 10.8622 89.0466 12.1204C89.0266 12.4153 89.0166 12.7987 89.0166 13.2705C89.0166 13.7424 89.0266 14.1258 89.0466 14.4207C89.1066 15.6986 89.4267 16.6717 90.0069 17.3402C90.5871 17.989 91.4073 18.3134 92.4676 18.3134Z" fill="#1E1E1E"/>
</svg>
