<svg width="20" height="21" viewBox="0 0 20 21" fill="none" xmlns="http://www.w3.org/2000/svg">
<g clip-path="url(#clip0_3344_64328)">
<path d="M18.5195 0.696777H1.47656C0.660156 0.696777 0 1.34131 0 2.13818V19.2515C0 20.0483 0.660156 20.6968 1.47656 20.6968H18.5195C19.3359 20.6968 20 20.0483 20 19.2554V2.13818C20 1.34131 19.3359 0.696777 18.5195 0.696777ZM5.93359 17.7397H2.96484V8.19287H5.93359V17.7397ZM4.44922 6.89209C3.49609 6.89209 2.72656 6.12256 2.72656 5.17334C2.72656 4.22412 3.49609 3.45459 4.44922 3.45459C5.39844 3.45459 6.16797 4.22412 6.16797 5.17334C6.16797 6.11865 5.39844 6.89209 4.44922 6.89209ZM17.043 17.7397H14.0781V13.0991C14.0781 11.9937 14.0586 10.5679 12.5352 10.5679C10.9922 10.5679 10.7578 11.7749 10.7578 13.021V17.7397H7.79688V8.19287H10.6406V9.49756H10.6797C11.0742 8.74756 12.043 7.95459 13.4844 7.95459C16.4883 7.95459 17.043 9.93115 17.043 12.5015V17.7397Z" fill="#98A2B3"/>
</g>
<defs>
<clipPath id="clip0_3344_64328">
<rect width="20" height="20" fill="white" transform="translate(0 0.696777)"/>
</clipPath>
</defs>
</svg>
