<svg width="117" height="20" viewBox="0 0 117 20" fill="none" xmlns="http://www.w3.org/2000/svg">
<g clip-path="url(#clip0_3385_62837)">
<path d="M10.2051 1.60996C10.3759 1.19932 10.9576 1.19932 11.1284 1.60996L13.1945 6.57744C13.2665 6.75056 13.4293 6.86885 13.6162 6.88383L18.979 7.31376C19.4223 7.3493 19.6021 7.90256 19.2643 8.19189L15.1784 11.6919C15.036 11.8139 14.9739 12.0053 15.0174 12.1876L16.2657 17.4208C16.3689 17.8534 15.8982 18.1954 15.5187 17.9635L10.9274 15.1592C10.7674 15.0615 10.5661 15.0615 10.4061 15.1592L5.81481 17.9635C5.43526 18.1954 4.96463 17.8534 5.06783 17.4208L6.31613 12.1876C6.35964 12.0053 6.29745 11.8139 6.15506 11.6919L2.06916 8.19189C1.73139 7.90256 1.91116 7.3493 2.35448 7.31376L7.71729 6.88383C7.90419 6.86885 8.06699 6.75056 8.139 6.57744L10.2051 1.60996Z" fill="#F2F4F7"/>
<g clip-path="url(#clip1_3385_62837)">
<path d="M10.2051 1.60996C10.3759 1.19932 10.9576 1.19932 11.1284 1.60996L13.1945 6.57744C13.2665 6.75056 13.4293 6.86885 13.6162 6.88383L18.979 7.31376C19.4223 7.3493 19.6021 7.90256 19.2643 8.19189L15.1784 11.6919C15.036 11.8139 14.9739 12.0053 15.0174 12.1876L16.2657 17.4208C16.3689 17.8534 15.8982 18.1954 15.5187 17.9635L10.9274 15.1592C10.7674 15.0615 10.5661 15.0615 10.4061 15.1592L5.81481 17.9635C5.43526 18.1954 4.96463 17.8534 5.06783 17.4208L6.31613 12.1876C6.35964 12.0053 6.29745 11.8139 6.15506 11.6919L2.06916 8.19189C1.73139 7.90256 1.91116 7.3493 2.35448 7.31376L7.71729 6.88383C7.90419 6.86885 8.06699 6.75056 8.139 6.57744L10.2051 1.60996Z" fill="#FEC84B"/>
</g>
</g>
<g clip-path="url(#clip2_3385_62837)">
<path d="M34.2051 1.60996C34.3759 1.19932 34.9576 1.19932 35.1284 1.60996L37.1945 6.57744C37.2665 6.75056 37.4293 6.86885 37.6162 6.88383L42.979 7.31376C43.4223 7.3493 43.6021 7.90256 43.2643 8.19189L39.1784 11.6919C39.036 11.8139 38.9739 12.0053 39.0174 12.1876L40.2657 17.4208C40.3689 17.8534 39.8982 18.1954 39.5187 17.9635L34.9274 15.1592C34.7674 15.0615 34.5661 15.0615 34.4061 15.1592L29.8148 17.9635C29.4353 18.1954 28.9646 17.8534 29.0678 17.4208L30.3161 12.1876C30.3596 12.0053 30.2975 11.8139 30.1551 11.6919L26.0692 8.19189C25.7314 7.90256 25.9112 7.3493 26.3545 7.31376L31.7173 6.88383C31.9042 6.86885 32.067 6.75056 32.139 6.57744L34.2051 1.60996Z" fill="#F2F4F7"/>
<g clip-path="url(#clip3_3385_62837)">
<path d="M34.2051 1.60996C34.3759 1.19932 34.9576 1.19932 35.1284 1.60996L37.1945 6.57744C37.2665 6.75056 37.4293 6.86885 37.6162 6.88383L42.979 7.31376C43.4223 7.3493 43.6021 7.90256 43.2643 8.19189L39.1784 11.6919C39.036 11.8139 38.9739 12.0053 39.0174 12.1876L40.2657 17.4208C40.3689 17.8534 39.8982 18.1954 39.5187 17.9635L34.9274 15.1592C34.7674 15.0615 34.5661 15.0615 34.4061 15.1592L29.8148 17.9635C29.4353 18.1954 28.9646 17.8534 29.0678 17.4208L30.3161 12.1876C30.3596 12.0053 30.2975 11.8139 30.1551 11.6919L26.0692 8.19189C25.7314 7.90256 25.9112 7.3493 26.3545 7.31376L31.7173 6.88383C31.9042 6.86885 32.067 6.75056 32.139 6.57744L34.2051 1.60996Z" fill="#FEC84B"/>
</g>
</g>
<g clip-path="url(#clip4_3385_62837)">
<path d="M58.2051 1.60996C58.3759 1.19932 58.9576 1.19932 59.1284 1.60996L61.1945 6.57744C61.2665 6.75056 61.4293 6.86885 61.6162 6.88383L66.979 7.31376C67.4223 7.3493 67.6021 7.90256 67.2643 8.19189L63.1784 11.6919C63.036 11.8139 62.9739 12.0053 63.0174 12.1876L64.2657 17.4208C64.3689 17.8534 63.8982 18.1954 63.5187 17.9635L58.9274 15.1592C58.7674 15.0615 58.5661 15.0615 58.4061 15.1592L53.8148 17.9635C53.4353 18.1954 52.9646 17.8534 53.0678 17.4208L54.3161 12.1876C54.3596 12.0053 54.2975 11.8139 54.1551 11.6919L50.0692 8.19189C49.7314 7.90256 49.9112 7.3493 50.3545 7.31376L55.7173 6.88383C55.9042 6.86885 56.067 6.75056 56.139 6.57744L58.2051 1.60996Z" fill="#F2F4F7"/>
<g clip-path="url(#clip5_3385_62837)">
<path d="M58.2051 1.60996C58.3759 1.19932 58.9576 1.19932 59.1284 1.60996L61.1945 6.57744C61.2665 6.75056 61.4293 6.86885 61.6162 6.88383L66.979 7.31376C67.4223 7.3493 67.6021 7.90256 67.2643 8.19189L63.1784 11.6919C63.036 11.8139 62.9739 12.0053 63.0174 12.1876L64.2657 17.4208C64.3689 17.8534 63.8982 18.1954 63.5187 17.9635L58.9274 15.1592C58.7674 15.0615 58.5661 15.0615 58.4061 15.1592L53.8148 17.9635C53.4353 18.1954 52.9646 17.8534 53.0678 17.4208L54.3161 12.1876C54.3596 12.0053 54.2975 11.8139 54.1551 11.6919L50.0692 8.19189C49.7314 7.90256 49.9112 7.3493 50.3545 7.31376L55.7173 6.88383C55.9042 6.86885 56.067 6.75056 56.139 6.57744L58.2051 1.60996Z" fill="#FEC84B"/>
</g>
</g>
<g clip-path="url(#clip6_3385_62837)">
<path d="M82.2051 1.60996C82.3759 1.19932 82.9576 1.19932 83.1284 1.60996L85.1945 6.57744C85.2665 6.75056 85.4293 6.86885 85.6162 6.88383L90.979 7.31376C91.4223 7.3493 91.6021 7.90256 91.2643 8.19189L87.1784 11.6919C87.036 11.8139 86.9739 12.0053 87.0174 12.1876L88.2657 17.4208C88.3689 17.8534 87.8982 18.1954 87.5187 17.9635L82.9274 15.1592C82.7674 15.0615 82.5661 15.0615 82.4061 15.1592L77.8148 17.9635C77.4353 18.1954 76.9646 17.8534 77.0678 17.4208L78.3161 12.1876C78.3596 12.0053 78.2975 11.8139 78.1551 11.6919L74.0692 8.19189C73.7314 7.90256 73.9112 7.3493 74.3545 7.31376L79.7173 6.88383C79.9042 6.86885 80.067 6.75056 80.139 6.57744L82.2051 1.60996Z" fill="#F2F4F7"/>
<g clip-path="url(#clip7_3385_62837)">
<path d="M82.2051 1.60996C82.3759 1.19932 82.9576 1.19932 83.1284 1.60996L85.1945 6.57744C85.2665 6.75056 85.4293 6.86885 85.6162 6.88383L90.979 7.31376C91.4223 7.3493 91.6021 7.90256 91.2643 8.19189L87.1784 11.6919C87.036 11.8139 86.9739 12.0053 87.0174 12.1876L88.2657 17.4208C88.3689 17.8534 87.8982 18.1954 87.5187 17.9635L82.9274 15.1592C82.7674 15.0615 82.5661 15.0615 82.4061 15.1592L77.8148 17.9635C77.4353 18.1954 76.9646 17.8534 77.0678 17.4208L78.3161 12.1876C78.3596 12.0053 78.2975 11.8139 78.1551 11.6919L74.0692 8.19189C73.7314 7.90256 73.9112 7.3493 74.3545 7.31376L79.7173 6.88383C79.9042 6.86885 80.067 6.75056 80.139 6.57744L82.2051 1.60996Z" fill="#FEC84B"/>
</g>
</g>
<g clip-path="url(#clip8_3385_62837)">
<path d="M106.205 1.60996C106.376 1.19932 106.958 1.19932 107.128 1.60996L109.194 6.57744C109.267 6.75056 109.429 6.86885 109.616 6.88383L114.979 7.31376C115.422 7.3493 115.602 7.90256 115.264 8.19189L111.178 11.6919C111.036 11.8139 110.974 12.0053 111.017 12.1876L112.266 17.4208C112.369 17.8534 111.898 18.1954 111.519 17.9635L106.927 15.1592C106.767 15.0615 106.566 15.0615 106.406 15.1592L101.815 17.9635C101.435 18.1954 100.965 17.8534 101.068 17.4208L102.316 12.1876C102.36 12.0053 102.297 11.8139 102.155 11.6919L98.0692 8.19189C97.7314 7.90256 97.9112 7.3493 98.3545 7.31376L103.717 6.88383C103.904 6.86885 104.067 6.75056 104.139 6.57744L106.205 1.60996Z" fill="#F2F4F7"/>
<g clip-path="url(#clip9_3385_62837)">
<path d="M106.205 1.60996C106.376 1.19932 106.958 1.19932 107.128 1.60996L109.194 6.57744C109.267 6.75056 109.429 6.86885 109.616 6.88383L114.979 7.31376C115.422 7.3493 115.602 7.90256 115.264 8.19189L111.178 11.6919C111.036 11.8139 110.974 12.0053 111.017 12.1876L112.266 17.4208C112.369 17.8534 111.898 18.1954 111.519 17.9635L106.927 15.1592C106.767 15.0615 106.566 15.0615 106.406 15.1592L101.815 17.9635C101.435 18.1954 100.965 17.8534 101.068 17.4208L102.316 12.1876C102.36 12.0053 102.297 11.8139 102.155 11.6919L98.0692 8.19189C97.7314 7.90256 97.9112 7.3493 98.3545 7.31376L103.717 6.88383C103.904 6.86885 104.067 6.75056 104.139 6.57744L106.205 1.60996Z" fill="#FEC84B"/>
</g>
</g>
<defs>
<clipPath id="clip0_3385_62837">
<rect width="20" height="20" fill="white" transform="translate(0.666748)"/>
</clipPath>
<clipPath id="clip1_3385_62837">
<rect width="20" height="20" fill="white" transform="translate(0.666748)"/>
</clipPath>
<clipPath id="clip2_3385_62837">
<rect width="20" height="20" fill="white" transform="translate(24.6667)"/>
</clipPath>
<clipPath id="clip3_3385_62837">
<rect width="20" height="20" fill="white" transform="translate(24.6667)"/>
</clipPath>
<clipPath id="clip4_3385_62837">
<rect width="20" height="20" fill="white" transform="translate(48.6667)"/>
</clipPath>
<clipPath id="clip5_3385_62837">
<rect width="20" height="20" fill="white" transform="translate(48.6667)"/>
</clipPath>
<clipPath id="clip6_3385_62837">
<rect width="20" height="20" fill="white" transform="translate(72.6667)"/>
</clipPath>
<clipPath id="clip7_3385_62837">
<rect width="20" height="20" fill="white" transform="translate(72.6667)"/>
</clipPath>
<clipPath id="clip8_3385_62837">
<rect width="20" height="20" fill="white" transform="translate(96.6667)"/>
</clipPath>
<clipPath id="clip9_3385_62837">
<rect width="20" height="20" fill="white" transform="translate(96.6667)"/>
</clipPath>
</defs>
</svg>
