<svg width="703" height="130" viewBox="0 0 703 130" fill="none" xmlns="http://www.w3.org/2000/svg">
<path d="M0.307373 28.5331V0.122314H113.189V28.5331H74.1245V130H39.3721V28.5331H0.307373Z" fill="white"/>
<path d="M126.459 130V0.122314H161.719V50.8558H208.394V0.122314H243.654V130H208.394V79.2665H161.719V130H126.459Z" fill="white"/>
<path d="M295.655 0.122314V130H260.396V0.122314H295.655Z" fill="white"/>
<path d="M312.366 130V0.122314H368.426C378.065 0.122314 386.5 1.87685 393.729 5.38591C400.959 8.89497 406.582 13.9472 410.598 20.5425C414.615 27.1379 416.623 35.0438 416.623 44.2604C416.623 53.5616 414.551 61.4041 410.408 67.7881C406.307 74.172 400.536 78.9917 393.095 82.2471C385.697 85.5025 377.051 87.1302 367.158 87.1302H333.674V59.7341H360.055C364.198 59.7341 367.729 59.2268 370.646 58.2121C373.605 57.1552 375.867 55.4852 377.431 53.2022C379.038 50.9192 379.841 47.9386 379.841 44.2604C379.841 40.54 379.038 37.5171 377.431 35.1918C375.867 32.8243 373.605 31.0909 370.646 29.9916C367.729 28.8501 364.198 28.2794 360.055 28.2794H347.625V130H312.366ZM388.466 70.3882L420.935 130H382.632L350.923 70.3882H388.466Z" fill="white"/>
<path d="M481.625 130H431.653V0.122314H481.118C494.478 0.122314 506.02 2.7224 515.743 7.92258C525.51 13.0805 533.035 20.5214 538.32 30.2453C543.647 39.9269 546.31 51.5322 546.31 65.0611C546.31 78.5901 543.668 90.2165 538.383 99.9404C533.098 109.622 525.615 117.063 515.934 122.263C506.252 127.421 494.816 130 481.625 130ZM466.912 100.067H480.357C486.783 100.067 492.258 99.0314 496.782 96.9598C501.348 94.8882 504.815 91.3157 507.182 86.2424C509.592 81.169 510.797 74.1086 510.797 65.0611C510.797 56.0137 509.571 48.9533 507.119 43.8799C504.709 38.8066 501.158 35.2341 496.465 33.1625C491.814 31.0909 486.107 30.055 479.342 30.055H466.912V100.067Z" fill="white"/>
<path d="M562.624 130V0.122314H653.945V28.5331H597.884V50.8558H648.364V79.2665H597.884V130H562.624Z" fill="white"/>
<path d="M702.173 0.122314V130H666.913V0.122314H702.173Z" fill="white"/>
</svg>
