<svg width="716" height="217" viewBox="0 0 716 217" fill="none" xmlns="http://www.w3.org/2000/svg">
<path d="M5.30738 71.8012V43.3904H118.189V71.8012H79.1246V173.268H44.3721V71.8012H5.30738ZM131.459 173.268V43.3904H166.719V94.1239H213.394V43.3904H248.654V173.268H213.394V122.535H166.719V173.268H131.459ZM300.655 43.3904V173.268H265.396V43.3904H300.655ZM317.366 173.268V43.3904H373.426C383.066 43.3904 391.5 45.145 398.729 48.654C405.959 52.1631 411.582 57.2153 415.598 63.8106C419.615 70.406 421.623 78.3119 421.623 87.5285C421.623 96.8297 419.551 104.672 415.408 111.056C411.307 117.44 405.536 122.26 398.095 125.515C390.697 128.771 382.051 130.398 372.158 130.398H338.674V103.002H365.055C369.198 103.002 372.729 102.495 375.646 101.48C378.605 100.423 380.867 98.7533 382.431 96.4703C384.038 94.1873 384.841 91.2067 384.841 87.5285C384.841 83.8081 384.038 80.7852 382.431 78.4599C380.867 76.0924 378.605 74.359 375.646 73.2597C372.729 72.1182 369.198 71.5475 365.055 71.5475H352.625V173.268H317.366ZM393.466 113.656L425.935 173.268H387.632L355.923 113.656H393.466ZM486.625 173.268H436.653V43.3904H486.118C499.478 43.3904 511.019 45.9905 520.743 51.1907C530.51 56.3486 538.035 63.7895 543.32 73.5134C548.647 83.195 551.31 94.8003 551.31 108.329C551.31 121.858 548.668 133.485 543.383 143.208C538.098 152.89 530.615 160.331 520.934 165.531C511.252 170.689 499.816 173.268 486.625 173.268ZM471.912 143.335H485.357C491.783 143.335 497.258 142.3 501.782 140.228C506.348 138.156 509.815 134.584 512.182 129.51C514.592 124.437 515.797 117.377 515.797 108.329C515.797 99.2818 514.571 92.2214 512.119 87.148C509.709 82.0747 506.158 78.5022 501.465 76.4306C496.814 74.359 491.107 73.3232 484.342 73.3232H471.912V143.335ZM567.624 173.268V43.3904H658.945V71.8012H602.884V94.1239H653.364V122.535H602.884V173.268H567.624ZM707.173 43.3904V173.268H671.913V43.3904H707.173Z" fill="url(#paint0_linear_17_8)"/>
<defs>
<linearGradient id="paint0_linear_17_8" x1="-6.66827e-07" y1="108.268" x2="716" y2="108.268" gradientUnits="userSpaceOnUse">
<stop stop-color="#42D8BC"/>
<stop offset="1" stop-color="#039AEC"/>
</linearGradient>
</defs>
</svg>
