<svg width="122" height="39" viewBox="0 0 122 39" fill="none" xmlns="http://www.w3.org/2000/svg">
<path d="M55.0238 14.9894V5.91673H56.0032V6.9649H56.1235C56.198 6.85034 56.3011 6.70429 56.4328 6.52673C56.5674 6.34631 56.7593 6.18593 57.0084 6.04561C57.2605 5.90241 57.6013 5.83082 58.0308 5.83082C58.5864 5.83082 59.0761 5.96971 59.5 6.24751C59.9238 6.5253 60.2546 6.91908 60.4923 7.42884C60.73 7.9386 60.8488 8.54001 60.8488 9.23306C60.8488 9.93183 60.73 10.5375 60.4923 11.0502C60.2546 11.5599 59.9253 11.9551 59.5043 12.2358C59.0833 12.5136 58.5979 12.6525 58.048 12.6525C57.6242 12.6525 57.2848 12.5823 57.0299 12.442C56.775 12.2988 56.5789 12.137 56.4414 11.9566C56.3039 11.7733 56.198 11.6215 56.1235 11.5012H56.0376V14.9894H55.0238ZM56.0204 9.21587C56.0204 9.71418 56.0934 10.1538 56.2395 10.5347C56.3856 10.9127 56.5989 11.2091 56.8796 11.4239C57.1602 11.6358 57.5039 11.7418 57.9106 11.7418C58.3344 11.7418 58.6881 11.6301 58.9716 11.4067C59.258 11.1805 59.4728 10.8769 59.616 10.496C59.762 10.1123 59.8351 9.68554 59.8351 9.21587C59.8351 8.75193 59.7635 8.33381 59.6203 7.96151C59.4799 7.58635 59.2666 7.28994 58.9802 7.07229C58.6967 6.85178 58.3401 6.74152 57.9106 6.74152C57.4982 6.74152 57.1516 6.84605 56.871 7.05511C56.5903 7.2613 56.3784 7.55055 56.2352 7.92285C56.092 8.29229 56.0204 8.72329 56.0204 9.21587ZM65.0759 12.6525C64.4802 12.6525 63.9575 12.5107 63.5079 12.2272C63.0612 11.9437 62.7118 11.547 62.4598 11.0373C62.2106 10.5275 62.086 9.93183 62.086 9.25024C62.086 8.56292 62.2106 7.96294 62.4598 7.45032C62.7118 6.93769 63.0612 6.53962 63.5079 6.2561C63.9575 5.97258 64.4802 5.83082 65.0759 5.83082C65.6716 5.83082 66.1928 5.97258 66.6395 6.2561C67.0892 6.53962 67.4385 6.93769 67.6877 7.45032C67.9397 7.96294 68.0657 8.56292 68.0657 9.25024C68.0657 9.93183 67.9397 10.5275 67.6877 11.0373C67.4385 11.547 67.0892 11.9437 66.6395 12.2272C66.1928 12.5107 65.6716 12.6525 65.0759 12.6525ZM65.0759 11.7418C65.5284 11.7418 65.9007 11.6258 66.1928 11.3938C66.4849 11.1619 66.7011 10.8569 66.8414 10.4788C66.9818 10.1008 67.0519 9.69127 67.0519 9.25024C67.0519 8.80921 66.9818 8.39825 66.8414 8.01736C66.7011 7.63647 66.4849 7.3286 66.1928 7.09377C65.9007 6.85894 65.5284 6.74152 65.0759 6.74152C64.6234 6.74152 64.2511 6.85894 63.959 7.09377C63.6669 7.3286 63.4506 7.63647 63.3103 8.01736C63.17 8.39825 63.0998 8.80921 63.0998 9.25024C63.0998 9.69127 63.17 10.1008 63.3103 10.4788C63.4506 10.8569 63.6669 11.1619 63.959 11.3938C64.2511 11.6258 64.6234 11.7418 65.0759 11.7418ZM70.8837 12.515L68.8733 5.91673H69.9387L71.3649 10.9685H71.4336L72.8426 5.91673H73.9251L75.317 10.9514H75.3857L76.8119 5.91673H77.8772L75.8668 12.515H74.8702L73.4268 7.44602H73.3237L71.8804 12.515H70.8837ZM81.7595 12.6525C81.1237 12.6525 80.5753 12.5122 80.1142 12.2315C79.656 11.948 79.3023 11.5528 79.0532 11.0459C78.8069 10.5361 78.6838 9.94329 78.6838 9.26742C78.6838 8.59156 78.8069 7.99588 79.0532 7.48039C79.3023 6.96203 79.6489 6.55823 80.0928 6.26898C80.5395 5.97687 81.0607 5.83082 81.6564 5.83082C82.0001 5.83082 82.3394 5.88809 82.6745 6.00265C83.0096 6.1172 83.3146 6.30335 83.5895 6.5611C83.8644 6.81598 84.0835 7.15391 84.2468 7.57489C84.41 7.99588 84.4916 8.51423 84.4916 9.12996V9.55953H79.4054V8.6832H83.4606C83.4606 8.3109 83.3862 7.9787 83.2373 7.68658C83.0912 7.39447 82.8821 7.16393 82.6101 6.99497C82.3409 6.826 82.023 6.74152 81.6564 6.74152C81.2526 6.74152 80.9032 6.84175 80.6083 7.04222C80.3161 7.23983 80.0913 7.49757 79.9338 7.81546C79.7763 8.13334 79.6976 8.47414 79.6976 8.83785V9.42207C79.6976 9.92038 79.7835 10.3428 79.9553 10.6893C80.13 11.033 80.372 11.295 80.6813 11.4754C80.9906 11.653 81.35 11.7418 81.7595 11.7418C82.0259 11.7418 82.2664 11.7045 82.4812 11.6301C82.6989 11.5528 82.8864 11.4382 83.0439 11.2864C83.2015 11.1318 83.3232 10.9399 83.4091 10.7108L84.3885 10.9857C84.2854 11.3179 84.1122 11.61 83.8687 11.8621C83.6253 12.1112 83.3246 12.306 82.9666 12.4463C82.6086 12.5837 82.2063 12.6525 81.7595 12.6525ZM86.0338 12.515V5.91673H87.0132V6.91335H87.082C87.2022 6.58687 87.4199 6.32197 87.7349 6.11863C88.0499 5.9153 88.4051 5.81363 88.8003 5.81363C88.8747 5.81363 88.9678 5.81507 89.0795 5.81793C89.1912 5.82079 89.2757 5.82509 89.3329 5.83082V6.8618C89.2986 6.85321 89.2198 6.84032 89.0967 6.82314C88.9764 6.80309 88.8489 6.79307 88.7143 6.79307C88.3936 6.79307 88.1072 6.86037 87.8552 6.99497C87.606 7.1267 87.4084 7.30999 87.2624 7.54482C87.1192 7.7768 87.0476 8.0417 87.0476 8.33954V12.515H86.0338ZM93.1003 12.6525C92.4645 12.6525 91.9161 12.5122 91.455 12.2315C90.9968 11.948 90.6431 11.5528 90.394 11.0459C90.1477 10.5361 90.0246 9.94329 90.0246 9.26742C90.0246 8.59156 90.1477 7.99588 90.394 7.48039C90.6431 6.96203 90.9897 6.55823 91.4336 6.26898C91.8803 5.97687 92.4015 5.83082 92.9972 5.83082C93.3409 5.83082 93.6802 5.88809 94.0153 6.00265C94.3504 6.1172 94.6554 6.30335 94.9303 6.5611C95.2052 6.81598 95.4243 7.15391 95.5876 7.57489C95.7508 7.99588 95.8324 8.51423 95.8324 9.12996V9.55953H90.7462V8.6832H94.8014C94.8014 8.3109 94.727 7.9787 94.5781 7.68658C94.432 7.39447 94.2229 7.16393 93.9509 6.99497C93.6817 6.826 93.3638 6.74152 92.9972 6.74152C92.5934 6.74152 92.244 6.84175 91.9491 7.04222C91.6569 7.23983 91.4321 7.49757 91.2746 7.81546C91.1171 8.13334 91.0384 8.47414 91.0384 8.83785V9.42207C91.0384 9.92038 91.1243 10.3428 91.2961 10.6893C91.4708 11.033 91.7128 11.295 92.0221 11.4754C92.3314 11.653 92.6908 11.7418 93.1003 11.7418C93.3667 11.7418 93.6072 11.7045 93.822 11.6301C94.0397 11.5528 94.2272 11.4382 94.3847 11.2864C94.5423 11.1318 94.664 10.9399 94.7499 10.7108L95.7293 10.9857C95.6262 11.3179 95.453 11.61 95.2095 11.8621C94.9661 12.1112 94.6654 12.306 94.3074 12.4463C93.9494 12.5837 93.5471 12.6525 93.1003 12.6525ZM99.8661 12.6525C99.3163 12.6525 98.8308 12.5136 98.4099 12.2358C97.9889 11.9551 97.6595 11.5599 97.4218 11.0502C97.1841 10.5375 97.0653 9.93183 97.0653 9.23306C97.0653 8.54001 97.1841 7.9386 97.4218 7.42884C97.6595 6.91908 97.9903 6.5253 98.4142 6.24751C98.838 5.96971 99.3277 5.83082 99.8833 5.83082C100.313 5.83082 100.652 5.90241 100.901 6.04561C101.153 6.18593 101.345 6.34631 101.477 6.52673C101.612 6.70429 101.716 6.85034 101.791 6.9649H101.877V3.71731H102.89V12.515H101.911V11.5012H101.791C101.716 11.6215 101.61 11.7733 101.473 11.9566C101.335 12.137 101.139 12.2988 100.884 12.442C100.629 12.5823 100.29 12.6525 99.8661 12.6525ZM100.004 11.7418C100.41 11.7418 100.754 11.6358 101.035 11.4239C101.315 11.2091 101.529 10.9127 101.675 10.5347C101.821 10.1538 101.894 9.71418 101.894 9.21587C101.894 8.72329 101.822 8.29229 101.679 7.92285C101.536 7.55055 101.324 7.2613 101.043 7.05511C100.763 6.84605 100.416 6.74152 100.004 6.74152C99.574 6.74152 99.216 6.85178 98.9297 7.07229C98.6461 7.28994 98.4328 7.58635 98.2896 7.96151C98.1493 8.33381 98.0791 8.75193 98.0791 9.21587C98.0791 9.68554 98.1507 10.1123 98.2939 10.496C98.4399 10.8769 98.6547 11.1805 98.9382 11.4067C99.2246 11.6301 99.5797 11.7418 100.004 11.7418ZM108.428 12.515V3.71731H109.441V6.9649H109.527C109.602 6.85034 109.705 6.70429 109.837 6.52673C109.971 6.34631 110.163 6.18593 110.412 6.04561C110.664 5.90241 111.005 5.83082 111.435 5.83082C111.99 5.83082 112.48 5.96971 112.904 6.24751C113.328 6.5253 113.658 6.91908 113.896 7.42884C114.134 7.9386 114.253 8.54001 114.253 9.23306C114.253 9.93183 114.134 10.5375 113.896 11.0502C113.658 11.5599 113.329 11.9551 112.908 12.2358C112.487 12.5136 112.002 12.6525 111.452 12.6525C111.028 12.6525 110.689 12.5823 110.434 12.442C110.179 12.2988 109.983 12.137 109.845 11.9566C109.708 11.7733 109.602 11.6215 109.527 11.5012H109.407V12.515H108.428ZM109.424 9.21587C109.424 9.71418 109.497 10.1538 109.643 10.5347C109.789 10.9127 110.003 11.2091 110.283 11.4239C110.564 11.6358 110.908 11.7418 111.314 11.7418C111.738 11.7418 112.092 11.6301 112.375 11.4067C112.662 11.1805 112.877 10.8769 113.02 10.496C113.166 10.1123 113.239 9.68554 113.239 9.21587C113.239 8.75193 113.167 8.33381 113.024 7.96151C112.884 7.58635 112.67 7.28994 112.384 7.07229C112.1 6.85178 111.744 6.74152 111.314 6.74152C110.902 6.74152 110.555 6.84605 110.275 7.05511C109.994 7.2613 109.782 7.55055 109.639 7.92285C109.496 8.29229 109.424 8.72329 109.424 9.21587ZM116.22 14.9894C116.048 14.9894 115.895 14.9751 115.76 14.9464C115.626 14.9206 115.533 14.8949 115.481 14.8691L115.739 13.9756C115.985 14.0386 116.203 14.0615 116.392 14.0443C116.581 14.0271 116.748 13.9426 116.895 13.7909C117.043 13.6419 117.179 13.3999 117.303 13.0649L117.492 12.5494L115.052 5.91673H116.151L117.973 11.1747H118.041L119.863 5.91673H120.963L118.162 13.4773C118.036 13.8181 117.88 14.1001 117.694 14.3235C117.507 14.5498 117.291 14.7173 117.045 14.8261C116.801 14.935 116.527 14.9894 116.22 14.9894Z" fill="white"/>
<path d="M0.675781 21.3261V16.4183H20.1752V21.3261H13.4271V38.8536H7.42389V21.3261H0.675781Z" fill="white"/>
<path d="M22.4675 38.8536V16.4183H28.5583V25.1821H36.621V16.4183H42.7118V38.8536H36.621V30.0898H28.5583V38.8536H22.4675Z" fill="white"/>
<path d="M51.6947 16.4183V38.8536H45.6038V16.4183H51.6947Z" fill="white"/>
<path d="M54.5812 38.8536V16.4183H64.2652C65.9303 16.4183 67.3873 16.7214 68.6361 17.3276C69.885 17.9337 70.8563 18.8065 71.5501 19.9458C72.2439 21.085 72.5908 22.4507 72.5908 24.0428C72.5908 25.6495 72.2329 27.0042 71.5172 28.107C70.8088 29.2098 69.8119 30.0424 68.5266 30.6047C67.2485 31.167 65.755 31.4482 64.0461 31.4482H58.262V26.7158H62.8192C63.5349 26.7158 64.1447 26.6281 64.6486 26.4529C65.1598 26.2703 65.5506 25.9818 65.8208 25.5874C66.0983 25.1931 66.2371 24.6782 66.2371 24.0428C66.2371 23.4001 66.0983 22.878 65.8208 22.4763C65.5506 22.0673 65.1598 21.7679 64.6486 21.578C64.1447 21.3808 63.5349 21.2822 62.8192 21.2822H60.6721V38.8536H54.5812ZM67.7269 28.5562L73.3357 38.8536H66.7191L61.2417 28.5562H67.7269Z" fill="white"/>
<path d="M83.8194 38.8536H75.1871V16.4183H83.7317C86.0395 16.4183 88.0333 16.8675 89.713 17.7658C91.4 18.6567 92.7 19.9421 93.6129 21.6218C94.5331 23.2942 94.9932 25.299 94.9932 27.636C94.9932 29.973 94.5367 31.9813 93.6238 33.6611C92.711 35.3335 91.4183 36.6188 89.7459 37.5171C88.0735 38.4081 86.098 38.8536 83.8194 38.8536ZM81.2779 33.683H83.6003C84.7104 33.683 85.6561 33.5041 86.4376 33.1462C87.2263 32.7883 87.8252 32.1712 88.2341 31.2948C88.6504 30.4185 88.8585 29.1988 88.8585 27.636C88.8585 26.0731 88.6468 24.8535 88.2232 23.9771C87.8069 23.1007 87.1934 22.4836 86.3828 22.1257C85.5794 21.7679 84.5935 21.589 83.425 21.589H81.2779V33.683Z" fill="white"/>
<path d="M97.8113 38.8536V16.4183H113.586V21.3261H103.902V25.1821H112.622V30.0898H103.902V38.8536H97.8113Z" fill="white"/>
<path d="M121.917 16.4183V38.8536H115.826V16.4183H121.917Z" fill="white"/>
</svg>
