<svg width="33" height="44" viewBox="0 0 33 44" fill="none" xmlns="http://www.w3.org/2000/svg">
<path d="M25.5051 34.1143V39.5871C25.5051 41.5753 23.8929 43.1929 21.9113 43.1929H4.09386C2.11219 43.1929 0.5 41.5753 0.5 39.5871V4.20885C0.5 2.22058 2.11219 0.603027 4.09386 0.603027H21.9113C23.8929 0.603027 25.5051 2.22058 25.5051 4.20885V14.6879C25.5051 15.0212 25.2358 15.2914 24.9036 15.2914C24.5714 15.2914 24.3021 15.0212 24.3021 14.6879V4.20885C24.3021 2.88615 23.2296 1.81002 21.9113 1.81002H4.09386C2.77555 1.81002 1.703 2.88606 1.703 4.20885V39.5871C1.703 40.9097 2.77547 41.9859 4.09386 41.9859H21.9113C23.2296 41.9859 24.3021 40.9098 24.3021 39.5871V34.1143C24.3021 33.781 24.5714 33.5108 24.9036 33.5108C25.2358 33.5108 25.5051 33.781 25.5051 34.1143ZM12.0573 38.3974C12.0573 38.9198 12.4819 39.3457 13.0026 39.3457C13.5231 39.3457 13.9478 38.9198 13.9478 38.3974C13.9478 37.8751 13.5231 37.449 13.0026 37.449C12.4819 37.4489 12.0573 37.875 12.0573 38.3974ZM18.3218 25.608V22.5351H17.599C17.2668 22.5351 16.9975 22.2649 16.9975 21.9316V16.8579C16.9975 16.5246 17.2668 16.2544 17.599 16.2544H18.3218V13.1816C18.3218 12.8483 18.5911 12.5781 18.9233 12.5781C19.2555 12.5781 19.5248 12.8483 19.5248 13.1816V16.2544H20.2475C20.5797 16.2544 20.849 16.5246 20.849 16.8579V21.9316C20.849 22.2649 20.5797 22.5351 20.2475 22.5351H19.5248V25.608C19.5248 25.9413 19.2555 26.2115 18.9233 26.2115C18.5911 26.2115 18.3218 25.9413 18.3218 25.608ZM18.2006 21.3281H19.6461V17.4614H18.2006V21.3281ZM32.8095 16.8579V21.9316C32.8095 22.2649 32.5402 22.5351 32.208 22.5351H31.4853V25.608C31.4853 25.9413 31.216 26.2115 30.8838 26.2115C30.5516 26.2115 30.2823 25.9413 30.2823 25.608V22.5351H29.5596C29.2274 22.5351 28.9581 22.2649 28.9581 21.9316V16.8579C28.9581 16.5246 29.2274 16.2544 29.5596 16.2544H30.2823V13.1816C30.2823 12.8483 30.5516 12.5781 30.8838 12.5781C31.216 12.5781 31.4853 12.8483 31.4853 13.1816V16.2544H32.208C32.5402 16.2544 32.8095 16.5246 32.8095 16.8579ZM30.1611 17.4614V21.3281H31.6066V17.4614H30.1611ZM26.8293 21.8642V26.9379C26.8293 27.2712 26.56 27.5414 26.2278 27.5414H25.505V30.6142C25.505 30.9475 25.2357 31.2177 24.9035 31.2177C24.5713 31.2177 24.302 30.9475 24.302 30.6142V27.5414H23.5793C23.2471 27.5414 22.9778 27.2712 22.9778 26.9379V21.8642C22.9778 21.5309 23.2471 21.2607 23.5793 21.2607H24.302V18.1879C24.302 17.8546 24.5713 17.5844 24.9035 17.5844C25.2357 17.5844 25.505 17.8546 25.505 18.1879V21.2607H26.2278C26.56 21.2607 26.8293 21.5309 26.8293 21.8642ZM25.6263 22.4677H24.1809V26.3344H25.6263V22.4677ZM14.2673 27.5414H13.5445V30.6142C13.5445 30.9475 13.2752 31.2177 12.943 31.2177C12.6108 31.2177 12.3415 30.9475 12.3415 30.6142V27.5414H11.6188C11.2866 27.5414 11.0173 27.2712 11.0173 26.9379V21.8642C11.0173 21.5309 11.2866 21.2607 11.6188 21.2607H12.3415V18.1879C12.3415 17.8546 12.6108 17.5844 12.943 17.5844C13.2752 17.5844 13.5445 17.8546 13.5445 18.1879V21.2607H14.2673C14.5994 21.2607 14.8687 21.5309 14.8687 21.8642V26.9379C14.8687 27.2712 14.5995 27.5414 14.2673 27.5414ZM13.6658 22.4677H12.2204V26.3344H13.6658V22.4677Z" fill="url(#paint0_linear_4475_40761)"/>
<defs>
<linearGradient id="paint0_linear_4475_40761" x1="0.5" y1="21.8979" x2="32.8095" y2="21.8979" gradientUnits="userSpaceOnUse">
<stop stop-color="#42D8BC"/>
<stop offset="1" stop-color="#039AEC"/>
</linearGradient>
</defs>
</svg>
