<svg width="39" height="39" viewBox="0 0 39 39" fill="none" xmlns="http://www.w3.org/2000/svg">
<path fill-rule="evenodd" clip-rule="evenodd" d="M6.73703 37.4435C6.73704 37.4435 6.73702 37.4436 6.73703 37.4435L13.243 30.9377C14.6698 29.5109 14.6698 27.1975 13.243 25.7707C11.8162 24.3439 9.50283 24.3439 8.076 25.7707L1.57013 32.2766C1.57012 32.2767 1.57014 32.2766 1.57013 32.2766C0.143285 33.7034 0.143305 36.0168 1.5701 37.4436C2.9969 38.8704 5.31026 38.8704 6.73703 37.4435ZM5.16626 35.8729C4.60701 36.4322 3.70017 36.4322 3.14082 35.8729C2.58146 35.3135 2.5815 34.4067 3.14079 33.8474L9.64673 27.3414C10.2061 26.7821 11.1129 26.7821 11.6723 27.3414C12.2316 27.9007 12.2316 28.8076 11.6723 29.3669L5.16626 35.8729Z" fill="url(#paint0_linear_4475_40756)"/>
<path fill-rule="evenodd" clip-rule="evenodd" d="M15.7701 21.6728L11.6721 25.7707L13.2428 27.3414L17.3408 23.2435L15.7701 21.6728Z" fill="url(#paint1_linear_4475_40756)"/>
<path fill-rule="evenodd" clip-rule="evenodd" d="M32.9554 21.6728C28.6436 25.9846 21.6527 25.9846 17.3409 21.6728C13.029 17.361 13.029 10.3701 17.3409 6.05829C21.6527 1.7464 28.6436 1.74638 32.9554 6.05828C37.2673 10.3701 37.2673 17.361 32.9554 21.6728ZM15.7702 23.2435C20.9495 28.4228 29.3468 28.4228 34.5262 23.2435C39.7055 18.0642 39.7055 9.66689 34.5262 4.48757C29.3468 -0.691822 20.9495 -0.691822 15.7702 4.48758C10.5908 9.66689 10.5908 18.0642 15.7702 23.2435C15.7702 23.2435 15.7702 23.2435 15.7702 23.2435Z" fill="url(#paint2_linear_4475_40756)"/>
<path fill-rule="evenodd" clip-rule="evenodd" d="M19.5208 19.7152C20.1342 19.7152 20.6315 19.2179 20.6315 18.6045V15.05C20.6315 14.4366 20.1342 13.9394 19.5208 13.9394C18.9074 13.9394 18.4101 14.4366 18.4101 15.05V18.6045C18.4101 19.2179 18.9074 19.7152 19.5208 19.7152Z" fill="url(#paint3_linear_4475_40756)"/>
<path fill-rule="evenodd" clip-rule="evenodd" d="M23.223 19.7152C23.8364 19.7152 24.3337 19.2179 24.3337 18.6045V11.3478C24.3337 10.7344 23.8364 10.2371 23.223 10.2371C22.6096 10.2371 22.1124 10.7344 22.1124 11.3478V18.6045C22.1124 19.2179 22.6096 19.7152 23.223 19.7152Z" fill="url(#paint4_linear_4475_40756)"/>
<path fill-rule="evenodd" clip-rule="evenodd" d="M26.9251 19.7152C27.5385 19.7152 28.0357 19.2179 28.0357 18.6045V12.8287C28.0357 12.2153 27.5385 11.718 26.9251 11.718C26.3117 11.718 25.8144 12.2153 25.8144 12.8287V18.6045C25.8144 19.2179 26.3117 19.7152 26.9251 19.7152Z" fill="url(#paint5_linear_4475_40756)"/>
<path fill-rule="evenodd" clip-rule="evenodd" d="M30.6275 19.7152C31.2409 19.7152 31.7381 19.2179 31.7381 18.6045V9.12647C31.7381 8.51307 31.2409 8.01581 30.6275 8.01581C30.0141 8.01581 29.5168 8.51307 29.5168 9.12647V18.6045C29.5168 19.2179 30.0141 19.7152 30.6275 19.7152Z" fill="url(#paint6_linear_4475_40756)"/>
<defs>
<linearGradient id="paint0_linear_4475_40756" x1="0.5" y1="19.5584" x2="38.4107" y2="19.5583" gradientUnits="userSpaceOnUse">
<stop stop-color="#42D8BC"/>
<stop offset="1" stop-color="#039AEC"/>
</linearGradient>
<linearGradient id="paint1_linear_4475_40756" x1="0.5" y1="19.5584" x2="38.4107" y2="19.5583" gradientUnits="userSpaceOnUse">
<stop stop-color="#42D8BC"/>
<stop offset="1" stop-color="#039AEC"/>
</linearGradient>
<linearGradient id="paint2_linear_4475_40756" x1="0.5" y1="19.5584" x2="38.4107" y2="19.5583" gradientUnits="userSpaceOnUse">
<stop stop-color="#42D8BC"/>
<stop offset="1" stop-color="#039AEC"/>
</linearGradient>
<linearGradient id="paint3_linear_4475_40756" x1="0.5" y1="19.5584" x2="38.4107" y2="19.5583" gradientUnits="userSpaceOnUse">
<stop stop-color="#42D8BC"/>
<stop offset="1" stop-color="#039AEC"/>
</linearGradient>
<linearGradient id="paint4_linear_4475_40756" x1="0.5" y1="19.5584" x2="38.4107" y2="19.5583" gradientUnits="userSpaceOnUse">
<stop stop-color="#42D8BC"/>
<stop offset="1" stop-color="#039AEC"/>
</linearGradient>
<linearGradient id="paint5_linear_4475_40756" x1="0.5" y1="19.5584" x2="38.4107" y2="19.5583" gradientUnits="userSpaceOnUse">
<stop stop-color="#42D8BC"/>
<stop offset="1" stop-color="#039AEC"/>
</linearGradient>
<linearGradient id="paint6_linear_4475_40756" x1="0.5" y1="19.5584" x2="38.4107" y2="19.5583" gradientUnits="userSpaceOnUse">
<stop stop-color="#42D8BC"/>
<stop offset="1" stop-color="#039AEC"/>
</linearGradient>
</defs>
</svg>
