<svg width="38" height="42" viewBox="0 0 38 42" fill="none" xmlns="http://www.w3.org/2000/svg">
<path d="M5.11702 32.0877C4.84059 32.0877 4.57549 31.9779 4.38003 31.7824C4.18457 31.5869 4.07476 31.3218 4.07476 31.0454C4.06507 29.908 4.16983 28.7724 4.38744 27.656C4.44217 27.385 4.60231 27.1468 4.83263 26.9939C5.06295 26.841 5.34458 26.7858 5.61557 26.8406C5.88656 26.8953 6.1247 27.0554 6.27762 27.2858C6.43054 27.5161 6.4857 27.7977 6.43096 28.0687C6.24245 29.0495 6.15145 30.0466 6.15928 31.0454C6.15928 31.3218 6.04947 31.5869 5.85401 31.7824C5.65855 31.9779 5.39344 32.0877 5.11702 32.0877Z" fill="url(#paint0_linear_4475_40766)"/>
<path d="M5.40816 28.9046C5.33814 28.9049 5.26829 28.8979 5.19971 28.8838C4.92884 28.829 4.69081 28.6689 4.53797 28.4386C4.38513 28.2084 4.32998 27.9269 4.38466 27.656C5.01627 24.5292 6.52894 22.7226 7.86303 21.1245C9.13946 19.5958 10.2776 18.2367 10.6952 15.8437C9.75772 16.2878 8.73294 16.5171 7.69558 16.5149H6.24197C6.17222 16.5146 6.10311 16.5282 6.03869 16.5549C5.97426 16.5816 5.91581 16.6209 5.86676 16.6705C5.27751 17.2602 4.47814 17.5917 3.64449 17.592C2.81085 17.5924 2.01122 17.2615 1.42151 16.6723C0.831803 16.083 0.500326 15.2837 0.5 14.45C0.499674 13.6164 0.830526 12.8167 1.41977 12.227L2.25358 11.3932C2.93352 10.7147 3.47346 9.90918 3.84268 9.02242C4.76891 6.80726 6.34411 5.42106 7.32106 4.72899V1.64529C7.32106 1.36886 7.43087 1.10376 7.62633 0.908298C7.82179 0.712836 8.08689 0.603027 8.36332 0.603027C8.54606 0.603027 12.6526 0.642633 14.3556 3.91186C14.8158 4.02481 15.2656 4.1766 15.7001 4.36559C17.1406 5.03542 18.2349 6.02279 18.9576 7.30268C19.0932 7.54346 19.1277 7.82827 19.0535 8.09448C18.9792 8.36068 18.8022 8.58649 18.5615 8.72225C18.3207 8.85793 18.0359 8.89243 17.7697 8.81816C17.5035 8.74389 17.2777 8.56692 17.1419 8.32619C16.6389 7.43401 15.8586 6.7357 14.8233 6.25209C14.6634 6.17704 14.2639 6.0207 13.3884 5.81573C13.2258 5.77747 13.0748 5.70069 12.948 5.59186C12.8213 5.48303 12.7226 5.34533 12.6602 5.19037C12.0258 3.6242 10.4666 3.03636 9.41183 2.8154V5.28556C9.41193 5.46381 9.36631 5.63911 9.27933 5.7947C9.19235 5.95029 9.06692 6.08098 8.91502 6.17426C7.55314 7.00807 6.37885 8.37274 5.77226 9.82357C5.2983 10.9608 4.60564 11.9939 3.73359 12.8642L2.89978 13.698C2.79826 13.7954 2.71717 13.912 2.66128 14.0411C2.60538 14.1701 2.5758 14.3091 2.57426 14.4497C2.57272 14.5904 2.59925 14.7299 2.65231 14.8602C2.70536 14.9905 2.78388 15.1089 2.88325 15.2084C2.98262 15.308 3.10085 15.3867 3.23102 15.44C3.3612 15.4933 3.5007 15.5201 3.64135 15.5188C3.78201 15.5175 3.921 15.4882 4.05018 15.4326C4.17937 15.3769 4.29615 15.296 4.39369 15.1947C4.63597 14.9515 4.92406 14.7587 5.24131 14.6275C5.55856 14.4963 5.89867 14.4293 6.24197 14.4304H7.69488C8.34043 14.4318 8.97984 14.3052 9.57617 14.0579C10.1725 13.8107 10.7139 13.4477 11.1691 12.99C11.3149 12.8441 11.5006 12.7448 11.7029 12.7045C11.9051 12.6642 12.1147 12.6849 12.3052 12.7638C12.4957 12.8427 12.6586 12.9764 12.7731 13.1479C12.8876 13.3194 12.9487 13.521 12.9486 13.7272C12.9486 18.2916 11.176 20.4116 9.46186 22.462C8.17224 24.0046 6.95418 25.461 6.42749 28.0701C6.37965 28.3053 6.2521 28.5168 6.06639 28.6688C5.88067 28.8209 5.64817 28.9041 5.40816 28.9046Z" fill="url(#paint1_linear_4475_40766)"/>
<path d="M11.5923 36.9092H5.11703C4.34306 36.9072 3.60142 36.5986 3.05447 36.051C2.50751 35.5034 2.1998 34.7613 2.1987 33.9874V32.925C2.19962 32.1503 2.50775 31.4077 3.05549 30.8599C3.60324 30.3122 4.34588 30.0041 5.12051 30.0032H14.5919C14.8683 30.0032 15.1334 30.113 15.3289 30.3084C15.5243 30.5039 15.6341 30.769 15.6341 31.0454C15.6341 31.3218 15.5243 31.5869 15.3289 31.7824C15.1334 31.9779 14.8683 32.0877 14.5919 32.0877L5.11702 32.0877C4.89567 32.0889 4.68382 32.1777 4.52763 32.3345C4.37144 32.4914 4.28359 32.7036 4.28322 32.925V33.9874C4.28359 34.2087 4.37144 34.421 4.52763 34.5778C4.68382 34.7346 4.89569 34.8234 5.11703 34.8247H11.5923C11.8687 34.8247 12.1338 34.9345 12.3292 35.1299C12.5247 35.3254 12.6345 35.5905 12.6345 35.8669C12.6345 36.1433 12.5247 36.4084 12.3292 36.6039C12.1338 36.7994 11.8687 36.9092 11.5923 36.9092Z" fill="url(#paint2_linear_4475_40766)"/>
<path d="M34.3407 41.73H17.1142C16.3395 41.7292 15.5967 41.4212 15.049 40.8734C14.5012 40.3256 14.1931 39.5829 14.1924 38.8082V37.7465C14.1931 36.9718 14.5012 36.229 15.049 35.6812C15.5967 35.1335 16.3395 34.8254 17.1142 34.8246H34.3407C35.1154 34.8254 35.8581 35.1335 36.4059 35.6812C36.9537 36.229 37.2617 36.9718 37.2625 37.7465V38.8082C37.2617 39.5829 36.9537 40.3256 36.4059 40.8734C35.8581 41.4212 35.1154 41.7292 34.3407 41.73ZM17.1142 36.9092C16.8922 36.9094 16.6793 36.9976 16.5223 37.1546C16.3653 37.3116 16.2771 37.5244 16.2769 37.7465V38.8082C16.2771 39.0302 16.3653 39.243 16.5223 39.4C16.6793 39.557 16.8922 39.6453 17.1142 39.6455H34.3407C34.5627 39.6453 34.7755 39.557 34.9325 39.4C35.0895 39.243 35.1778 39.0302 35.178 38.8082V37.7465C35.1778 37.5244 35.0895 37.3116 34.9325 37.1546C34.7755 36.9976 34.5627 36.9094 34.3407 36.9092H17.1142Z" fill="url(#paint3_linear_4475_40766)"/>
<path d="M30.4315 20.1496H21.0234C20.2066 20.1374 19.4275 19.8044 18.8543 19.2225C18.281 18.6407 17.9597 17.8566 17.9597 17.0398C17.9597 16.223 18.281 15.439 18.8543 14.8572C19.4275 14.2753 20.2066 13.9423 21.0234 13.9301H30.4315C31.2482 13.9423 32.0273 14.2753 32.6006 14.8572C33.1738 15.439 33.4951 16.223 33.4951 17.0398C33.4951 17.8566 33.1738 18.6407 32.6006 19.2225C32.0273 19.8044 31.2482 20.1374 30.4315 20.1496ZM21.0234 16.0146C20.7561 16.0216 20.5021 16.1326 20.3155 16.3241C20.1289 16.5157 20.0245 16.7725 20.0245 17.0398C20.0245 17.3072 20.1289 17.564 20.3155 17.7555C20.5021 17.9471 20.7561 18.0581 21.0234 18.0651H30.4315C30.6988 18.0581 30.9528 17.9471 31.1394 17.7555C31.326 17.564 31.4304 17.3072 31.4304 17.0398C31.4304 16.7725 31.326 16.5157 31.1394 16.3241C30.9528 16.1326 30.6988 16.0216 30.4315 16.0146H21.0234Z" fill="url(#paint4_linear_4475_40766)"/>
<path d="M25.7274 16.0146C24.6799 16.0146 23.656 15.704 22.785 15.1221C21.9141 14.5401 21.2353 13.713 20.8344 12.7452C20.4336 11.7775 20.3287 10.7127 20.5331 9.68531C20.7374 8.65797 21.2418 7.7143 21.9825 6.97363C22.7231 6.23296 23.6668 5.72856 24.6942 5.52421C25.7215 5.31986 26.7864 5.42474 27.7541 5.82559C28.7218 6.22643 29.549 6.90525 30.1309 7.77618C30.7128 8.64712 31.0234 9.67106 31.0234 10.7185C31.022 12.1227 30.4635 13.4689 29.4706 14.4618C28.4777 15.4547 27.1315 16.0131 25.7274 16.0146ZM25.7274 7.50697C25.0922 7.50697 24.4713 7.69532 23.9431 8.04821C23.415 8.4011 23.0034 8.90268 22.7603 9.48952C22.5172 10.0764 22.4536 10.7221 22.5775 11.3451C22.7014 11.968 23.0073 12.5403 23.4565 12.9894C23.9056 13.4386 24.4778 13.7445 25.1008 13.8684C25.7238 13.9923 26.3695 13.9287 26.9564 13.6856C27.5432 13.4425 28.0448 13.0309 28.3977 12.5028C28.7506 11.9746 28.9389 11.3537 28.9389 10.7185C28.938 9.86705 28.5994 9.05071 27.9973 8.44863C27.3952 7.84654 26.5788 7.50789 25.7274 7.50697Z" fill="url(#paint5_linear_4475_40766)"/>
<path d="M17.8847 36.9092C17.6083 36.9092 17.3432 36.7994 17.1477 36.6039C16.9523 36.4084 16.8425 36.1433 16.8425 35.8669V35.7071C16.846 32.8075 17.7555 29.9814 19.444 27.624L19.5329 27.4982C20.8336 25.6736 22.0552 23.9497 22.0552 19.1073C22.0552 18.8309 22.165 18.5658 22.3604 18.3704C22.5559 18.1749 22.821 18.0651 23.0974 18.0651C23.3739 18.0651 23.639 18.1749 23.8344 18.3704C24.0299 18.5658 24.1397 18.8309 24.1397 19.1073C24.1397 24.6147 22.5958 26.7881 21.2339 28.7052L21.1456 28.8296C19.7071 30.8352 18.9314 33.2403 18.927 35.7085V35.8683C18.9266 36.1445 18.8167 36.4092 18.6212 36.6044C18.4258 36.7996 18.1609 36.9092 17.8847 36.9092Z" fill="url(#paint6_linear_4475_40766)"/>
<path d="M33.5701 36.9092C33.2937 36.9092 33.0286 36.7994 32.8331 36.6039C32.6376 36.4084 32.5278 36.1433 32.5278 35.8669V35.7071C32.5234 33.2389 31.7477 30.8338 30.3092 28.8282L30.221 28.7038C28.8591 26.7867 27.3151 24.6133 27.3151 19.106C27.3151 18.8295 27.4249 18.5644 27.6204 18.369C27.8159 18.1735 28.081 18.0637 28.3574 18.0637C28.6338 18.0637 28.8989 18.1735 29.0944 18.369C29.2898 18.5644 29.3996 18.8295 29.3996 19.106C29.3996 23.9483 30.624 25.6722 31.9205 27.4969L32.0095 27.6226C33.6987 29.9802 34.6087 32.8068 34.6123 35.7071V35.8669C34.6123 36.1433 34.5025 36.4084 34.3071 36.6039C34.1116 36.7994 33.8465 36.9092 33.5701 36.9092Z" fill="url(#paint7_linear_4475_40766)"/>
<defs>
<linearGradient id="paint0_linear_4475_40766" x1="0.5" y1="21.1665" x2="37.2625" y2="21.1665" gradientUnits="userSpaceOnUse">
<stop stop-color="#42D8BC"/>
<stop offset="1" stop-color="#039AEC"/>
</linearGradient>
<linearGradient id="paint1_linear_4475_40766" x1="0.5" y1="21.1665" x2="37.2625" y2="21.1665" gradientUnits="userSpaceOnUse">
<stop stop-color="#42D8BC"/>
<stop offset="1" stop-color="#039AEC"/>
</linearGradient>
<linearGradient id="paint2_linear_4475_40766" x1="0.5" y1="21.1665" x2="37.2625" y2="21.1665" gradientUnits="userSpaceOnUse">
<stop stop-color="#42D8BC"/>
<stop offset="1" stop-color="#039AEC"/>
</linearGradient>
<linearGradient id="paint3_linear_4475_40766" x1="0.5" y1="21.1665" x2="37.2625" y2="21.1665" gradientUnits="userSpaceOnUse">
<stop stop-color="#42D8BC"/>
<stop offset="1" stop-color="#039AEC"/>
</linearGradient>
<linearGradient id="paint4_linear_4475_40766" x1="0.5" y1="21.1665" x2="37.2625" y2="21.1665" gradientUnits="userSpaceOnUse">
<stop stop-color="#42D8BC"/>
<stop offset="1" stop-color="#039AEC"/>
</linearGradient>
<linearGradient id="paint5_linear_4475_40766" x1="0.5" y1="21.1665" x2="37.2625" y2="21.1665" gradientUnits="userSpaceOnUse">
<stop stop-color="#42D8BC"/>
<stop offset="1" stop-color="#039AEC"/>
</linearGradient>
<linearGradient id="paint6_linear_4475_40766" x1="0.5" y1="21.1665" x2="37.2625" y2="21.1665" gradientUnits="userSpaceOnUse">
<stop stop-color="#42D8BC"/>
<stop offset="1" stop-color="#039AEC"/>
</linearGradient>
<linearGradient id="paint7_linear_4475_40766" x1="0.5" y1="21.1665" x2="37.2625" y2="21.1665" gradientUnits="userSpaceOnUse">
<stop stop-color="#42D8BC"/>
<stop offset="1" stop-color="#039AEC"/>
</linearGradient>
</defs>
</svg>
