<svg width="50" height="40" viewBox="0 0 50 40" fill="none" xmlns="http://www.w3.org/2000/svg">
<path d="M2.54516 28.9646L4.7412 26.7702L2.54516 24.5758C1.90389 23.9362 1.90389 22.898 2.54516 22.2568C3.18642 21.6155 4.22294 21.6155 4.8642 22.2568L7.06025 24.4528L9.25629 22.2568C9.89756 21.6155 10.9341 21.6155 11.5753 22.2568C12.2166 22.898 12.2166 23.9362 11.5753 24.5758L9.3793 26.7702L11.5753 28.9646C12.2166 29.6042 12.2166 30.6424 11.5753 31.2837C11.2555 31.6035 10.8357 31.7642 10.4158 31.7642C9.99596 31.7642 9.5761 31.6035 9.25629 31.2837L7.06025 29.0876L4.8642 31.2837C4.54439 31.6035 4.12454 31.7642 3.70468 31.7642C3.28483 31.7642 2.86497 31.6035 2.54516 31.2837C1.90389 30.6424 1.90389 29.6042 2.54516 28.9646ZM44.3766 30.4554C43.7353 29.8142 42.6988 29.8142 42.0575 30.4554L39.8615 32.6515L37.6654 30.4554C37.0242 29.8142 35.9877 29.8142 35.3464 30.4554C34.7051 31.0967 34.7051 32.1349 35.3464 32.7745L37.5424 34.9689L35.3464 37.1633C34.7051 37.8029 34.7051 38.8411 35.3464 39.4823C35.6662 39.8021 36.0861 39.9629 36.5059 39.9629C36.9258 39.9629 37.3456 39.8021 37.6654 39.4823L39.8615 37.2863L42.0575 39.4823C42.3773 39.8021 42.7972 39.9629 43.2171 39.9629C43.6369 39.9629 44.0568 39.8021 44.3766 39.4823C45.0178 38.8411 45.0178 37.8029 44.3766 37.1633L42.1805 34.9689L44.3766 32.7745C45.0178 32.1349 45.0178 31.0967 44.3766 30.4554ZM49.2213 14.2041L44.3011 9.28388C43.6599 8.64261 42.6234 8.64261 41.9821 9.28388C41.3408 9.92514 41.3408 10.9617 41.9821 11.6029L44.1027 13.7235H31.6612C25.3322 13.7235 20.1807 18.8733 20.1807 25.204V28.4841C20.1807 33.0057 16.5021 36.6844 11.9804 36.6844H2.14006C1.23311 36.6844 0.5 37.4191 0.5 38.3244C0.5 39.2298 1.23311 39.9645 2.14006 39.9645H11.9804C18.3094 39.9645 23.4609 34.8147 23.4609 28.4841V25.204C23.4609 20.6823 27.1395 17.0036 31.6612 17.0036H44.1027L41.9821 19.1242C41.3408 19.7655 41.3408 20.802 41.9821 21.4433C42.3019 21.7631 42.7218 21.9238 43.1416 21.9238C43.5615 21.9238 43.9813 21.7631 44.3011 21.4433L49.2213 16.5231C49.8626 15.8818 49.8626 14.8453 49.2213 14.2041ZM8.70031 6.34324C8.70031 3.17792 11.2752 0.603027 14.4405 0.603027C17.6058 0.603027 20.1807 3.17792 20.1807 6.34324C20.1807 9.50856 17.6058 12.0835 14.4405 12.0835C11.2752 12.0835 8.70031 9.50856 8.70031 6.34324ZM11.9804 6.34324C11.9804 7.69957 13.0842 8.80334 14.4405 8.80334C15.7969 8.80334 16.9006 7.69957 16.9006 6.34324C16.9006 4.98691 15.7969 3.88315 14.4405 3.88315C13.0842 3.88315 11.9804 4.98691 11.9804 6.34324Z" fill="url(#paint0_linear_4475_40781)"/>
<defs>
<linearGradient id="paint0_linear_4475_40781" x1="0.5" y1="20.2838" x2="49.7023" y2="20.2838" gradientUnits="userSpaceOnUse">
<stop stop-color="#42D8BC"/>
<stop offset="1" stop-color="#039AEC"/>
</linearGradient>
</defs>
</svg>
