<svg width="39" height="39" viewBox="0 0 39 39" fill="none" xmlns="http://www.w3.org/2000/svg">
<path d="M11.8947 29.7229C12.1187 29.7229 12.3447 29.716 12.5665 29.7024L12.489 28.4386C12.2929 28.4507 12.0929 28.4568 11.8947 28.4568C10.4787 28.4568 9.15713 28.1559 8.17349 27.6094C7.31994 27.1352 6.8304 26.5211 6.8304 25.9246C6.83098 25.7827 6.85654 25.642 6.9059 25.5089L5.71679 25.0743C5.61642 25.3466 5.56481 25.6344 5.56432 25.9246C5.56432 28.0545 8.34496 29.7229 11.8947 29.7229Z" fill="url(#paint0_linear_4475_40776)"/>
<path d="M1.13304 5.03431C1.80438 5.03507 2.448 5.3021 2.92271 5.7768C3.39742 6.25151 3.66444 6.89513 3.6652 7.56647C3.6652 7.73436 3.7319 7.89538 3.85062 8.0141C3.96933 8.13282 4.13035 8.19951 4.29824 8.19951C4.46613 8.19951 4.62715 8.13282 4.74587 8.0141C4.86459 7.89538 4.93128 7.73436 4.93128 7.56647C4.93204 6.89513 5.19907 6.25151 5.67378 5.7768C6.14848 5.3021 6.79211 5.03507 7.46344 5.03431C7.63134 5.03431 7.79235 4.96761 7.91107 4.8489C8.02979 4.73018 8.09648 4.56916 8.09648 4.40127C8.09648 4.23338 8.02979 4.07236 7.91107 3.95364C7.79235 3.83492 7.63134 3.76823 7.46344 3.76823C6.79211 3.76747 6.14848 3.50044 5.67378 3.02574C5.19907 2.55103 4.93204 1.90741 4.93128 1.23607C4.93128 1.06817 4.86459 0.907159 4.74587 0.788441C4.62715 0.669722 4.46613 0.603027 4.29824 0.603027C4.13035 0.603027 3.96933 0.669722 3.85062 0.788441C3.7319 0.907159 3.6652 1.06817 3.6652 1.23607C3.66444 1.90741 3.39742 2.55103 2.92271 3.02574C2.448 3.50044 1.80438 3.76747 1.13304 3.76823C0.965148 3.76823 0.804131 3.83492 0.685413 3.95364C0.566695 4.07236 0.5 4.23338 0.5 4.40127C0.5 4.56916 0.566695 4.73018 0.685413 4.8489C0.804131 4.96761 0.965148 5.03431 1.13304 5.03431ZM4.29824 3.33356C4.57974 3.75679 4.94269 4.11975 5.36592 4.40127C4.94269 4.68279 4.57974 5.04575 4.29824 5.46898C4.01674 5.04575 3.65379 4.68279 3.23057 4.40127C3.65379 4.11975 4.01674 3.75679 4.29824 3.33356Z" fill="url(#paint1_linear_4475_40776)"/>
<path d="M12.6049 20.6914L13.4659 19.7632C11.8692 18.2819 10.8737 16.2647 10.6694 14.0963C10.4651 11.928 11.0664 9.76027 12.3584 8.00691C13.6504 6.25354 15.5427 5.03724 17.6743 4.59009C19.8058 4.14294 22.0274 4.49624 23.9151 5.58258L24.5481 4.48604C22.3908 3.24341 19.8515 2.83874 17.4148 3.34928C14.9782 3.85982 12.8149 5.24981 11.3379 7.25391C9.86085 9.25801 9.17361 11.7358 9.40732 14.2144C9.64103 16.693 10.7793 18.9987 12.6049 20.6914Z" fill="url(#paint2_linear_4475_40776)"/>
<path d="M19.4912 22.1264C18.0503 22.1263 16.631 21.7756 15.3558 21.1046L14.7641 22.2238C16.8792 23.3395 19.3208 23.671 21.6567 23.1595C23.9927 22.6481 26.0724 21.3267 27.5278 19.4293C28.9831 17.5319 29.7203 15.1808 29.6089 12.7921C29.4974 10.4034 28.5445 8.13116 26.9188 6.37751L25.9906 7.23851C27.1629 8.50303 27.9408 10.0821 28.2291 11.7821C28.5174 13.4821 28.3035 15.2293 27.6136 16.8096C26.9237 18.3899 25.7878 19.7346 24.3451 20.679C22.9024 21.6234 21.2156 22.1264 19.4912 22.1264Z" fill="url(#paint3_linear_4475_40776)"/>
<path d="M19.1838 6.38006L13.4864 9.54526C13.3877 9.60009 13.3055 9.68031 13.2483 9.77761C13.191 9.87491 13.1608 9.98574 13.1608 10.0986V16.429C13.1608 16.5419 13.191 16.6528 13.2483 16.7501C13.3055 16.8474 13.3877 16.9276 13.4864 16.9824L19.1838 20.1476C19.2778 20.1999 19.3836 20.2273 19.4912 20.2273C19.5988 20.2273 19.7046 20.1999 19.7987 20.1476L25.496 16.9824C25.5947 16.9276 25.6769 16.8474 25.7342 16.7501C25.7914 16.6528 25.8216 16.5419 25.8216 16.429V10.0986C25.8216 9.98574 25.7914 9.87491 25.7342 9.77761C25.6769 9.68031 25.5947 9.60009 25.496 9.54526L19.7987 6.38006C19.7046 6.32784 19.5988 6.30043 19.4912 6.30043C19.3836 6.30043 19.2778 6.32784 19.1838 6.38006ZM24.5555 16.0566L19.4912 18.8701L14.4269 16.0566V10.4711L19.4912 7.65758L24.5555 10.4711V16.0566Z" fill="url(#paint4_linear_4475_40776)"/>
<path d="M16.6759 10.7985L17.2421 11.9309L19.4635 10.8202L22.0233 12.3562V14.5299H23.2894V11.9978C23.2894 11.8884 23.2611 11.781 23.2072 11.6859C23.1534 11.5907 23.0758 11.5112 22.9821 11.4549L19.8169 9.55577C19.7256 9.50098 19.6219 9.47012 19.5155 9.46604C19.4091 9.46196 19.3033 9.4848 19.2081 9.53244L16.6759 10.7985Z" fill="url(#paint5_linear_4475_40776)"/>
<path d="M34.9779 16.1791C35.2037 15.2238 35.3176 14.2455 35.3172 13.2638C35.3172 6.28262 29.6376 0.603027 22.6564 0.603027H19.4912C12.51 0.603027 6.8304 6.28262 6.8304 13.2638C6.82911 14.7792 7.10121 16.2824 7.63364 17.7011C5.7347 18.2928 4.08743 19.2651 2.82993 20.5464C1.30567 22.0997 0.5 23.9594 0.5 25.9246V30.3559C0.5 32.5965 1.71458 34.6878 3.91998 36.2446C6.05846 37.7541 8.89061 38.5854 11.8947 38.5854C14.8988 38.5854 17.731 37.7541 19.8695 36.2446C21.0106 35.4391 21.8856 34.4903 22.4652 33.4519C23.9612 33.9206 25.5201 34.1574 27.0877 34.1542C30.0918 34.1542 32.924 33.3228 35.0624 31.8133C37.2678 30.2565 38.4824 28.1652 38.4824 25.9246V22.1264C38.4824 19.8682 37.212 17.7244 34.9779 16.1791ZM37.2163 22.1264C37.2163 25.9661 32.6727 29.0898 27.0877 29.0898C25.8042 29.0942 24.5262 28.9225 23.2895 28.5796V27.2824C24.5226 27.6461 25.8021 27.8285 27.0877 27.8238C29.4014 27.8238 31.5859 27.2637 33.2386 26.2466C34.9873 25.1705 35.9503 23.7072 35.9503 22.1264C35.9503 20.8522 35.3021 19.6264 34.1184 18.6377C34.298 18.2561 34.4583 17.8658 34.5987 17.4681C36.2726 18.7447 37.2163 20.4068 37.2163 22.1264ZM27.7207 30.3431C28.5718 30.3106 29.4187 30.2082 30.2529 30.0368V32.5395C29.4206 32.7269 28.5731 32.8389 27.7207 32.8741V30.3431ZM31.4941 29.7229C32.3826 29.4582 33.2399 29.0985 34.0511 28.6498V30.9766C33.2614 31.4847 32.4106 31.8908 31.519 32.1853V29.7229H31.4941ZM31.6693 6.30039C32.2713 7.07694 32.7704 7.92805 33.1542 8.83255H31.3511C31.0172 7.94259 30.584 7.09316 30.0596 6.30039H31.6693ZM34.6842 22.1264C34.6842 23.2511 33.9351 24.3313 32.5751 25.1683C31.1191 26.0643 29.1703 26.5577 27.0877 26.5577C25.797 26.5652 24.5139 26.3608 23.2895 25.9525V25.9246C23.2895 25.9194 23.2891 25.9141 23.2891 25.9088C25.3636 25.8035 27.3804 25.1897 29.1619 24.1216C30.9435 23.0535 32.4351 21.5638 33.5055 19.7837C34.2689 20.4892 34.6842 21.3053 34.6842 22.1264ZM32.1362 12.6308C32.0942 11.7759 31.9653 10.9274 31.7514 10.0986H33.6034C33.8422 10.9237 33.9864 11.7732 34.0333 12.6308H32.1362ZM32.1362 13.8969H34.0333C33.9864 14.7545 33.8422 15.604 33.6034 16.429H31.7514C31.9653 15.6002 32.0942 14.7518 32.1362 13.8969ZM31.3511 17.6951H33.1542C32.7704 18.5996 32.2713 19.4507 31.6693 20.2273H30.0596C30.584 19.4345 31.0172 18.5851 31.3511 17.6951ZM29.1044 21.4934H30.5297C29.2147 22.7537 27.6168 23.6806 25.87 24.1965C27.0906 23.4811 28.1837 22.5676 29.1044 21.4934ZM30.5297 5.03431H29.1044C28.1837 3.9601 27.0906 3.04659 25.87 2.33121C27.6168 2.84704 29.2147 3.77395 30.5297 5.03431ZM19.4912 1.86911C25.7743 1.86911 30.8859 6.98072 30.8859 13.2638C30.8859 19.5469 25.7743 24.6586 19.4912 24.6586C13.2081 24.6586 8.09648 19.5469 8.09648 13.2638C8.09648 6.98072 13.2081 1.86911 19.4912 1.86911ZM3.73355 21.4332C4.8551 20.2904 6.40052 19.3953 8.14148 18.8699C8.33253 19.2551 8.54309 19.6304 8.77235 19.9942C5.34126 20.9038 3.03216 23.2362 3.03216 25.9246C3.03216 26.9349 3.36904 27.9381 4.00637 28.8259L5.0349 28.0877C4.5461 27.4067 4.29824 26.679 4.29824 25.9246C4.29824 24.8048 4.84632 23.7393 5.8832 22.8435C6.82611 22.029 8.11699 21.4226 9.56012 21.1079C9.86587 21.4943 10.1937 21.8628 10.542 22.2114C9.20972 22.3808 8.00063 22.7983 7.10516 23.4132L7.82173 24.4569C8.80703 23.7805 10.2916 23.3925 11.8947 23.3925V23.3861C13.3835 24.5081 15.1026 25.286 16.9282 25.6638C16.9482 25.7493 16.9585 25.8368 16.959 25.9246C16.959 26.8101 15.8738 27.7047 14.2584 28.1506L14.5953 29.371C16.8343 28.7529 18.2251 27.4324 18.2251 25.9246C18.2251 25.9035 18.2243 25.8825 18.2237 25.8614C18.6407 25.903 19.0632 25.9241 19.4912 25.9246H22.0234C22.0234 30.1134 17.4797 33.5211 11.8947 33.5211C6.30976 33.5211 1.76608 30.1134 1.76608 25.9246C1.76608 24.2979 2.44641 22.7448 3.73355 21.4332ZM4.93128 32.9462C5.72952 33.4232 6.57892 33.8089 7.46344 34.0958V36.6166C6.57179 36.3221 5.72098 35.916 4.93128 35.4079V32.9462ZM8.72952 34.4427C9.56216 34.6275 10.4095 34.7382 11.2617 34.7734V37.3054C10.4093 37.2701 9.56181 37.1582 8.72952 36.9708V34.4427ZM12.5278 34.7734C13.3799 34.7382 14.2273 34.6275 15.0599 34.4427V36.9708C14.2276 37.1582 13.3802 37.2701 12.5278 37.3054V34.7734ZM16.326 34.0958C17.2105 33.8089 18.0599 33.4232 18.8582 32.9462V35.4079C18.0685 35.916 17.2177 36.3221 16.326 36.6166V34.0958ZM1.76608 30.3559V30.0017C2.29137 30.7802 2.93169 31.4745 3.6652 32.0609V34.4106C2.47058 33.2679 1.76608 31.8675 1.76608 30.3559ZM20.1243 34.4106V32.0609C20.8578 31.4745 21.4981 30.7802 22.0234 30.0017V30.3559C22.0234 31.8675 21.3189 33.2679 20.1243 34.4106ZM23.2895 30.3559V29.8906C24.3257 30.1521 25.3866 30.3039 26.4547 30.3434V32.8743C25.2758 32.8256 24.1078 32.6277 22.9787 32.2856C23.1842 31.663 23.2891 31.0116 23.2895 30.3559ZM37.2163 25.9246C37.2163 27.4362 36.5118 28.8366 35.3172 29.9793V27.8289C36.0437 27.2921 36.6841 26.6477 37.2163 25.9178V25.9246Z" fill="url(#paint6_linear_4475_40776)"/>
<path d="M7.03117 29.8037L6.41242 30.9083C7.98517 31.7894 9.88093 32.255 11.8947 32.255C15.6089 32.255 18.9545 30.5899 20.2198 28.1116L19.0922 27.5359C18.0377 29.6013 15.1453 30.989 11.8947 30.989C10.1228 30.989 8.39554 30.568 7.03117 29.8037Z" fill="url(#paint7_linear_4475_40776)"/>
<path d="M27.0877 36.0533C26.0649 36.0544 25.0442 35.9616 24.0383 35.776L23.8067 37.0208C24.8889 37.2205 25.9872 37.3205 27.0877 37.3194C29.9998 37.3194 32.8405 36.6155 35.0866 35.3374L34.4604 34.237C32.4021 35.4083 29.7838 36.0533 27.0877 36.0533Z" fill="url(#paint8_linear_4475_40776)"/>
<path d="M35.5719 33.513L36.3285 34.5281C36.8126 34.1692 37.2642 33.7683 37.6779 33.3302L36.7547 32.4638C36.392 32.8475 35.9962 33.1987 35.5719 33.513Z" fill="url(#paint9_linear_4475_40776)"/>
<path d="M4.16386 9.3078C4.05231 9.74123 3.95819 10.185 3.88405 10.6269L5.13266 10.8365C5.20086 10.4301 5.28745 10.0219 5.38999 9.62339L4.16386 9.3078Z" fill="url(#paint10_linear_4475_40776)"/>
<path d="M3.71933 11.9457C3.6834 12.3814 3.6652 12.8249 3.6652 13.2638C3.66455 14.5982 3.83208 15.9274 4.16382 17.2199L5.38995 16.9043C5.08473 15.7149 4.93063 14.4918 4.93128 13.2638C4.93128 12.8595 4.94805 12.451 4.98117 12.0498L3.71933 11.9457Z" fill="url(#paint11_linear_4475_40776)"/>
<defs>
<linearGradient id="paint0_linear_4475_40776" x1="0.5" y1="19.5942" x2="38.4824" y2="19.5942" gradientUnits="userSpaceOnUse">
<stop stop-color="#42D8BC"/>
<stop offset="1" stop-color="#039AEC"/>
</linearGradient>
<linearGradient id="paint1_linear_4475_40776" x1="0.5" y1="19.5942" x2="38.4824" y2="19.5942" gradientUnits="userSpaceOnUse">
<stop stop-color="#42D8BC"/>
<stop offset="1" stop-color="#039AEC"/>
</linearGradient>
<linearGradient id="paint2_linear_4475_40776" x1="0.5" y1="19.5942" x2="38.4824" y2="19.5942" gradientUnits="userSpaceOnUse">
<stop stop-color="#42D8BC"/>
<stop offset="1" stop-color="#039AEC"/>
</linearGradient>
<linearGradient id="paint3_linear_4475_40776" x1="0.5" y1="19.5942" x2="38.4824" y2="19.5942" gradientUnits="userSpaceOnUse">
<stop stop-color="#42D8BC"/>
<stop offset="1" stop-color="#039AEC"/>
</linearGradient>
<linearGradient id="paint4_linear_4475_40776" x1="0.5" y1="19.5942" x2="38.4824" y2="19.5942" gradientUnits="userSpaceOnUse">
<stop stop-color="#42D8BC"/>
<stop offset="1" stop-color="#039AEC"/>
</linearGradient>
<linearGradient id="paint5_linear_4475_40776" x1="0.5" y1="19.5942" x2="38.4824" y2="19.5942" gradientUnits="userSpaceOnUse">
<stop stop-color="#42D8BC"/>
<stop offset="1" stop-color="#039AEC"/>
</linearGradient>
<linearGradient id="paint6_linear_4475_40776" x1="0.5" y1="19.5942" x2="38.4824" y2="19.5942" gradientUnits="userSpaceOnUse">
<stop stop-color="#42D8BC"/>
<stop offset="1" stop-color="#039AEC"/>
</linearGradient>
<linearGradient id="paint7_linear_4475_40776" x1="0.5" y1="19.5942" x2="38.4824" y2="19.5942" gradientUnits="userSpaceOnUse">
<stop stop-color="#42D8BC"/>
<stop offset="1" stop-color="#039AEC"/>
</linearGradient>
<linearGradient id="paint8_linear_4475_40776" x1="0.5" y1="19.5942" x2="38.4824" y2="19.5942" gradientUnits="userSpaceOnUse">
<stop stop-color="#42D8BC"/>
<stop offset="1" stop-color="#039AEC"/>
</linearGradient>
<linearGradient id="paint9_linear_4475_40776" x1="0.5" y1="19.5942" x2="38.4824" y2="19.5942" gradientUnits="userSpaceOnUse">
<stop stop-color="#42D8BC"/>
<stop offset="1" stop-color="#039AEC"/>
</linearGradient>
<linearGradient id="paint10_linear_4475_40776" x1="0.5" y1="19.5942" x2="38.4824" y2="19.5942" gradientUnits="userSpaceOnUse">
<stop stop-color="#42D8BC"/>
<stop offset="1" stop-color="#039AEC"/>
</linearGradient>
<linearGradient id="paint11_linear_4475_40776" x1="0.5" y1="19.5942" x2="38.4824" y2="19.5942" gradientUnits="userSpaceOnUse">
<stop stop-color="#42D8BC"/>
<stop offset="1" stop-color="#039AEC"/>
</linearGradient>
</defs>
</svg>
