<svg width="33" height="53" viewBox="0 0 33 53" fill="none" xmlns="http://www.w3.org/2000/svg">
<path d="M20.7614 5.10557H11.7564C11.1593 5.10557 10.5867 4.86838 10.1645 4.44619C9.74228 4.02399 9.50509 3.45137 9.50509 2.8543H23.0127C23.0127 3.45137 22.7755 4.02399 22.3533 4.44619C21.9311 4.86838 21.3585 5.10557 20.7614 5.10557Z" fill="url(#paint0_linear_4475_40771)"/>
<path d="M18.5101 16.3619H15.1332V18.6132H18.5101C18.8087 18.6132 19.095 18.4946 19.3061 18.2835C19.5172 18.0724 19.6358 17.7861 19.6358 17.4875C19.6358 17.189 19.5172 16.9027 19.3061 16.6916C19.095 16.4805 18.8087 16.3619 18.5101 16.3619Z" fill="url(#paint1_linear_4475_40771)"/>
<path d="M15.1332 23.1157H18.5101C18.8087 23.1157 19.095 22.9971 19.3061 22.786C19.5172 22.5749 19.6358 22.2886 19.6358 21.9901C19.6358 21.6915 19.5172 21.4052 19.3061 21.1941C19.095 20.983 18.8087 20.8644 18.5101 20.8644H15.1332V23.1157Z" fill="url(#paint2_linear_4475_40771)"/>
<path fill-rule="evenodd" clip-rule="evenodd" d="M26.3896 19.7388C26.3896 25.3338 21.8539 29.8695 16.2589 29.8695C10.6639 29.8695 6.12819 25.3338 6.12819 19.7388C6.12819 14.1438 10.6639 9.60811 16.2589 9.60811C21.8539 9.60811 26.3896 14.1438 26.3896 19.7388ZM19.6358 12.985V14.3132C20.1555 14.5007 20.6212 14.8128 20.9922 15.2222C21.3632 15.6315 21.6281 16.1257 21.7637 16.6612C21.8992 17.1968 21.9013 17.7575 21.7698 18.294C21.6382 18.8306 21.377 19.3267 21.0091 19.7388C21.377 20.1509 21.6382 20.647 21.7698 21.1836C21.9013 21.7202 21.8992 22.2808 21.7637 22.8164C21.6281 23.352 21.3632 23.8461 20.9922 24.2555C20.6212 24.6648 20.1555 24.9769 19.6358 25.1644V26.4926C19.6358 26.7911 19.5172 27.0775 19.3061 27.2886C19.095 27.4997 18.8087 27.6182 18.5101 27.6182C18.2116 27.6182 17.9253 27.4997 17.7142 27.2886C17.5031 27.0775 17.3845 26.7911 17.3845 26.4926V25.367H16.2589V26.4926C16.2589 26.7911 16.1403 27.0775 15.9292 27.2886C15.7181 27.4997 15.4318 27.6182 15.1332 27.6182C14.8347 27.6182 14.5484 27.4997 14.3373 27.2886C14.1262 27.0775 14.0076 26.7911 14.0076 26.4926V25.367H11.7563C11.4578 25.367 11.1715 25.2484 10.9604 25.0373C10.7493 24.8262 10.6307 24.5399 10.6307 24.2413C10.6307 23.9428 10.7493 23.6565 10.9604 23.4454C11.1715 23.2343 11.4578 23.1157 11.7563 23.1157H12.882V16.3619H11.7563C11.4578 16.3619 11.1715 16.2433 10.9604 16.0322C10.7493 15.8211 10.6307 15.5348 10.6307 15.2363C10.6307 14.9377 10.7493 14.6514 10.9604 14.4403C11.1715 14.2292 11.4578 14.1106 11.7563 14.1106H14.0076V12.985C14.0076 12.6865 14.1262 12.4002 14.3373 12.1891C14.5484 11.978 14.8347 11.8594 15.1332 11.8594C15.4318 11.8594 15.7181 11.978 15.9292 12.1891C16.1403 12.4002 16.2589 12.6865 16.2589 12.985V14.1106H17.3845V12.985C17.3845 12.6865 17.5031 12.4002 17.7142 12.1891C17.9253 11.978 18.2116 11.8594 18.5101 11.8594C18.8087 11.8594 19.095 11.978 19.3061 12.1891C19.5172 12.4002 19.6358 12.6865 19.6358 12.985Z" fill="url(#paint3_linear_4475_40771)"/>
<path fill-rule="evenodd" clip-rule="evenodd" d="M25.264 35.4977H7.25381V51.2566H25.264V35.4977ZM21.8871 45.6284V36.6233H19.4332C19.6183 37.1334 19.6778 37.6805 19.6066 38.2185C19.5354 38.7564 19.3356 39.2692 19.0242 39.7136C18.7128 40.1579 18.2988 40.5207 17.8175 40.7711C17.3361 41.0216 16.8015 41.1523 16.2589 41.1523C15.7163 41.1523 15.1816 41.0216 14.7003 40.7711C14.2189 40.5207 13.805 40.1579 13.4936 39.7136C13.1821 39.2692 12.9824 38.7564 12.9112 38.2185C12.84 37.6805 12.8995 37.1334 13.0846 36.6233H10.6307V45.6284C11.2278 45.6284 11.8004 45.8656 12.2226 46.2878C12.6448 46.71 12.882 47.2826 12.882 47.8797H19.6358C19.6358 47.2826 19.873 46.71 20.2952 46.2878C20.7174 45.8656 21.29 45.6284 21.8871 45.6284Z" fill="url(#paint4_linear_4475_40771)"/>
<path d="M27.5152 0.603027H5.00254C3.80839 0.603027 2.66315 1.0774 1.81876 1.92179C0.974373 2.76618 0.5 3.91142 0.5 5.10556V43.3771C0.5 44.5713 0.974373 45.7165 1.81876 46.5609C2.66315 47.4053 3.80839 47.8797 5.00254 47.8797H6.12817V51.2566C6.12817 51.5551 6.24676 51.8414 6.45786 52.0525C6.66896 52.2636 6.95527 52.3822 7.25381 52.3822H25.264C25.5625 52.3822 25.8488 52.2636 26.0599 52.0525C26.271 51.8414 26.3896 51.5551 26.3896 51.2566V47.8797H27.5152C28.7094 47.8797 29.8546 47.4053 30.699 46.5609C31.5434 45.7165 32.0178 44.5713 32.0178 43.3771V5.10556C32.0178 3.91142 31.5434 2.76618 30.699 1.92179C29.8546 1.0774 28.7094 0.603027 27.5152 0.603027ZM5.00254 2.8543H27.5152C28.1123 2.8543 28.6849 3.09148 29.1071 3.51368C29.5293 3.93587 29.7665 4.50849 29.7665 5.10556V40.0002H26.3896V36.6233C26.6881 36.6233 26.9744 36.5047 27.1855 36.2936C27.3966 36.0825 27.5152 35.7962 27.5152 35.4977C27.5152 35.1992 27.3966 34.9128 27.1855 34.7017C26.9744 34.4906 26.6881 34.3721 26.3896 34.3721H6.12817C5.82963 34.3721 5.54333 34.4906 5.33223 34.7017C5.12113 34.9128 5.00254 35.1992 5.00254 35.4977C5.00254 35.7962 5.12113 36.0825 5.33223 36.2936C5.54333 36.5047 5.82963 36.6233 6.12817 36.6233V40.0002H2.75127V5.10556C2.75127 4.50849 2.98846 3.93587 3.41065 3.51368C3.83285 3.09148 4.40546 2.8543 5.00254 2.8543ZM5.00254 45.6284C4.40546 45.6284 3.83285 45.3912 3.41065 44.969C2.98846 44.5468 2.75127 43.9742 2.75127 43.3771V42.2515H6.12817V45.6284H5.00254ZM24.1383 50.1309H8.37944V36.6233H24.1383V50.1309ZM27.5152 45.6284H26.3896V42.2515H29.7665V43.3771C29.7665 43.9742 29.5293 44.5468 29.1071 44.969C28.6849 45.3912 28.1123 45.6284 27.5152 45.6284Z" fill="url(#paint5_linear_4475_40771)"/>
<defs>
<linearGradient id="paint0_linear_4475_40771" x1="0.5" y1="26.4926" x2="32.0178" y2="26.4926" gradientUnits="userSpaceOnUse">
<stop stop-color="#42D8BC"/>
<stop offset="1" stop-color="#039AEC"/>
</linearGradient>
<linearGradient id="paint1_linear_4475_40771" x1="0.5" y1="26.4926" x2="32.0178" y2="26.4926" gradientUnits="userSpaceOnUse">
<stop stop-color="#42D8BC"/>
<stop offset="1" stop-color="#039AEC"/>
</linearGradient>
<linearGradient id="paint2_linear_4475_40771" x1="0.5" y1="26.4926" x2="32.0178" y2="26.4926" gradientUnits="userSpaceOnUse">
<stop stop-color="#42D8BC"/>
<stop offset="1" stop-color="#039AEC"/>
</linearGradient>
<linearGradient id="paint3_linear_4475_40771" x1="0.5" y1="26.4926" x2="32.0178" y2="26.4926" gradientUnits="userSpaceOnUse">
<stop stop-color="#42D8BC"/>
<stop offset="1" stop-color="#039AEC"/>
</linearGradient>
<linearGradient id="paint4_linear_4475_40771" x1="0.5" y1="26.4926" x2="32.0178" y2="26.4926" gradientUnits="userSpaceOnUse">
<stop stop-color="#42D8BC"/>
<stop offset="1" stop-color="#039AEC"/>
</linearGradient>
<linearGradient id="paint5_linear_4475_40771" x1="0.5" y1="26.4926" x2="32.0178" y2="26.4926" gradientUnits="userSpaceOnUse">
<stop stop-color="#42D8BC"/>
<stop offset="1" stop-color="#039AEC"/>
</linearGradient>
</defs>
</svg>
