<svg width="38" height="43" viewBox="0 0 38 43" fill="none" xmlns="http://www.w3.org/2000/svg">
<path d="M16.042 38.6862C16.042 39.0876 15.7166 39.413 15.3152 39.413H11.12C10.7187 39.413 10.3933 39.0876 10.3933 38.6862C10.3933 38.2849 10.7187 37.9595 11.12 37.9595H15.3152C15.7166 37.9595 16.042 38.2848 16.042 38.6862ZM16.042 4.79683C16.042 4.3955 15.7166 4.07011 15.3152 4.07011H11.12C10.7187 4.07011 10.3933 4.3955 10.3933 4.79683C10.3933 5.19816 10.7187 5.52355 11.12 5.52355H15.3152C15.7166 5.52355 16.042 5.19825 16.042 4.79683ZM6.75041 4.07011H6.30239C5.90106 4.07011 5.57567 4.3955 5.57567 4.79683C5.57567 5.19816 5.90106 5.52355 6.30239 5.52355H6.75041C7.15174 5.52355 7.47713 5.19816 7.47713 4.79683C7.47713 4.3955 7.15183 4.07011 6.75041 4.07011ZM37.3304 17.5284V28.9037C37.3304 30.9931 35.6306 32.6931 33.5412 32.6931H25.9351V37.6927C25.9351 40.583 23.5838 42.9344 20.6935 42.9344H5.74164C2.85139 42.9344 0.5 40.583 0.5 37.6927V5.84467C0.5 2.95442 2.85139 0.603027 5.74164 0.603027H20.6935C23.5838 0.603027 25.9351 2.95442 25.9351 5.84467V8.76753L27.9394 7.73413C29.7967 6.77659 32.0864 7.50858 33.0439 9.36571L35.6202 14.3626C36.6494 15.0408 37.3304 16.2063 37.3304 17.5284ZM19.4642 13.739H33.5412C33.5828 13.739 33.6238 13.7408 33.6651 13.7422L31.7521 10.0317C31.1618 8.88698 29.7502 8.43569 28.6055 9.02597L19.4642 13.739ZM24.4817 37.6927V36.2449H1.95344V37.6927C1.95344 39.7816 3.65287 41.4809 5.74164 41.4809H20.6935C22.7824 41.4809 24.4817 39.7815 24.4817 37.6927ZM24.4817 32.6931H17.2073C15.1178 32.6931 13.418 30.9932 13.418 28.9037V17.5284C13.418 16.0241 14.2991 14.7219 15.5724 14.1104L24.4817 9.51686V5.84467C24.4817 3.7558 22.7823 2.05646 20.6935 2.05646H5.74164C3.65278 2.05646 1.95344 3.7559 1.95344 5.84467V34.7915H24.4817V32.6931ZM35.877 28.9037V26.7922H24.504C22.5321 26.7922 20.9279 25.1879 20.9279 23.2161C20.9279 21.2441 22.5322 19.6398 24.504 19.6398H35.877V17.5283C35.877 16.2403 34.8292 15.1924 33.5412 15.1924H17.2073C16.852 15.1924 16.5151 15.2725 16.2134 15.415L16.1588 15.4432L16.1583 15.4422C15.3958 15.8271 14.8714 16.6174 14.8714 17.5283V28.9036C14.8714 30.1916 15.9192 31.2396 17.2073 31.2396H33.5412C34.8292 31.2397 35.877 30.1917 35.877 28.9037ZM24.504 21.0932C23.3336 21.0932 22.3813 22.0455 22.3813 23.2161C22.3813 24.3865 23.3336 25.3388 24.504 25.3388H35.877V21.0932H24.504Z" fill="url(#paint0_linear_4475_40738)"/>
<defs>
<linearGradient id="paint0_linear_4475_40738" x1="0.5" y1="21.7687" x2="37.3305" y2="21.7687" gradientUnits="userSpaceOnUse">
<stop stop-color="#42D8BC"/>
<stop offset="1" stop-color="#039AEC"/>
</linearGradient>
</defs>
</svg>
